<svg id="Layer_1" enable-background="new 0 0 256 256" height="512" viewBox="0 0 256 256" width="512" xmlns="http://www.w3.org/2000/svg"><path d="m51.23 235.784c-2.4 0-4.345-1.945-4.345-4.345 0-10.218 0-175.398 0-211.222h-3.061-4.345c-2.4 0-4.345 1.945-4.345 4.345 0 4.401 0 219.501 0 217.995 0 2.4 1.945 4.346 4.345 4.346h165.292c2.4 0 4.345-1.946 4.345-4.346v-6.773c-32.621 0-153.385 0-157.886 0z" fill="#4671c6"/><path d="m216.522 9.098c-39.504 0-130.884 0-165.292 0-2.4 0-4.345 1.946-4.345 4.346v217.995c0 2.4 1.945 4.345 4.345 4.345h165.292c2.4 0 4.345-1.945 4.345-4.345 0-2.647 0-212.964 0-217.995.001-2.4-1.945-4.346-4.345-4.346z" fill="#e0ebfc"/><g fill="#b9befc"><path d="m196.376 105.191h-125c-2.761 0-5-2.239-5-5 0-2.761 2.239-5 5-5h125c2.761 0 5 2.239 5 5 0 2.761-2.238 5-5 5z"/><path d="m73.876 151.691c-5.238 0-9.5-4.262-9.5-9.5s4.262-9.5 9.5-9.5 9.5 4.262 9.5 9.5-4.262 9.5-9.5 9.5zm0-15c-3.032 0-5.5 2.468-5.5 5.5s2.468 5.5 5.5 5.5 5.5-2.468 5.5-5.5-2.468-5.5-5.5-5.5z"/><path d="m128.876 125.191h-57.5c-2.761 0-5-2.239-5-5 0-2.761 2.239-5 5-5h57.5c2.761 0 5 2.239 5 5 0 2.761-2.238 5-5 5z"/><path d="m133.876 151.691c-5.238 0-9.5-4.262-9.5-9.5s4.262-9.5 9.5-9.5 9.5 4.262 9.5 9.5-4.262 9.5-9.5 9.5zm0-15c-3.032 0-5.5 2.468-5.5 5.5s2.468 5.5 5.5 5.5 5.5-2.468 5.5-5.5-2.468-5.5-5.5-5.5z"/><path d="m193.876 151.691c-5.238 0-9.5-4.262-9.5-9.5s4.262-9.5 9.5-9.5 9.5 4.262 9.5 9.5-4.262 9.5-9.5 9.5zm0-15c-3.032 0-5.5 2.468-5.5 5.5s2.468 5.5 5.5 5.5 5.5-2.468 5.5-5.5-2.468-5.5-5.5-5.5z"/><path d="m196.376 76.191h-125c-2.761 0-5-2.239-5-5 0-2.761 2.239-5 5-5h125c2.761 0 5 2.239 5 5 0 2.761-2.238 5-5 5z"/><path d="m196.376 174.191h-125c-2.761 0-5-2.239-5-5 0-2.761 2.239-5 5-5h125c2.761 0 5 2.239 5 5 0 2.761-2.238 5-5 5z"/><path d="m73.876 220.691c-5.238 0-9.5-4.262-9.5-9.5s4.262-9.5 9.5-9.5 9.5 4.262 9.5 9.5-4.262 9.5-9.5 9.5zm0-15c-3.032 0-5.5 2.468-5.5 5.5s2.468 5.5 5.5 5.5 5.5-2.468 5.5-5.5-2.468-5.5-5.5-5.5z"/><path d="m128.876 194.191h-57.5c-2.761 0-5-2.239-5-5 0-2.761 2.239-5 5-5h57.5c2.761 0 5 2.239 5 5 0 2.761-2.238 5-5 5z"/><path d="m133.876 220.691c-5.238 0-9.5-4.262-9.5-9.5s4.262-9.5 9.5-9.5 9.5 4.262 9.5 9.5-4.262 9.5-9.5 9.5zm0-15c-3.032 0-5.5 2.468-5.5 5.5s2.468 5.5 5.5 5.5 5.5-2.468 5.5-5.5-2.468-5.5-5.5-5.5z"/><path d="m193.876 220.691c-5.238 0-9.5-4.262-9.5-9.5s4.262-9.5 9.5-9.5 9.5 4.262 9.5 9.5-4.262 9.5-9.5 9.5zm0-15c-3.032 0-5.5 2.468-5.5 5.5s2.468 5.5 5.5 5.5 5.5-2.468 5.5-5.5-2.468-5.5-5.5-5.5z"/></g><path d="m192.367 145.431c-1.833-.151-1.732-.586-8.449-10.184-.95-1.357-.62-3.229.737-4.179 1.36-.95 3.229-.618 4.179.737l4.171 5.96 16.638-16.927c1.161-1.183 3.062-1.198 4.242-.037 1.182 1.161 1.198 3.061.037 4.242l-19.166 19.5c-.657.669-1.565.965-2.389.888z" fill="#f9a7a7"/><path d="m72.616 214.441c-.083 0-.166-.003-.249-.011-.888-.073-1.697-.539-2.209-1.269l-6.24-8.915c-.95-1.357-.62-3.229.737-4.179 1.36-.95 3.229-.618 4.179.737l4.171 5.96 16.638-16.927c1.161-1.184 3.062-1.199 4.242-.037 1.182 1.161 1.198 3.061.037 4.242l-19.166 19.5c-.567.578-1.339.899-2.14.899z" fill="#f9a7a7"/><path d="m177.845 47.914h-16.071c-3.311 8.89-3.481 10.111-6.337 10.111-1.008 0-1.897-.368-2.67-1.105-1.992-1.897-1.035-4.018 0-6.579 12.149-30.84 11.833-33.194 17.015-33.194 4.391 0 5.391 3.351 6.957 7.47 11.222 27.717 11.542 28.054 11.542 29.742 0 1.744-1.63 3.667-3.91 3.667-2.967-.001-3.398-1.886-6.526-10.112zm-13.969-6.014h11.812l-5.96-16.313z" fill="#f9a7a7"/><path d="m194.344 37.721h-2.922c-.552 0-1-.448-1-1v-5.27c0-.552-.448-1-1-1h-5.308c-.552 0-1-.448-1-1 0-2.59-.292-3.998 1-3.998h5.308c.552 0 1-.448 1-1v-5.308c0-.552.448-1 1-1h2.922c.552 0 1 .448 1 1v5.308c0 .552.448 1 1 1h5.345c.552 0 1 .448 1 1v2.998c0 .552-.448 1-1 1h-5.345c-.552 0-1 .448-1 1v5.27c0 .552-.448 1-1 1z" fill="#f9a7a7"/><path d="m216.522 237.784h-165.292c-3.499 0-6.346-2.847-6.346-6.346v-217.995c0-3.499 2.847-6.346 6.346-6.346h165.292c3.498 0 6.345 2.847 6.345 6.346v217.995c0 3.5-2.846 6.346-6.345 6.346zm-165.292-226.686c-1.293 0-2.346 1.053-2.346 2.346v217.995c0 1.293 1.053 2.346 2.346 2.346h165.292c1.293 0 2.345-1.053 2.345-2.346v-217.996c0-1.293-1.052-2.346-2.345-2.346h-165.292z" fill="#3762cc"/></svg>