<svg id="Layer_1" enable-background="new 0 0 256 256" height="512" viewBox="0 0 256 256" width="512" xmlns="http://www.w3.org/2000/svg"><path d="m51.011 235.686c-2.4 0-4.345-1.945-4.345-4.345v-209.027c-3.236 0-5.666 0-8.969 0-2.4 0-4.345 1.945-4.345 4.345v217.995c0 2.4 1.945 4.345 4.345 4.345h165.292c2.4 0 4.345-1.946 4.345-4.345v-8.969h-156.323z" fill="#4671c6"/><path d="m216.303 235.686c2.4 0 4.345-1.946 4.345-4.345v-179.05l-43.29-43.291h-126.347c-2.4 0-4.345 1.946-4.345 4.345v217.995c0 2.4 1.946 4.345 4.345 4.345h165.292z" fill="#e0ebfc"/><path d="m177.358 9v38.945c0 2.4 1.946 4.345 4.345 4.345h38.945z" fill="#a4c9ff"/><path d="m135.007 139.272h-26.532c-3.176 8.53-4.647 12.876-6.232 14.98-1.506 1.998-5.742 2.648-8.636-.111-3.295-3.139-1.7-6.653 0-10.862 20.185-51.243 19.302-51.36 23.526-53.753 2.264-1.281 10.148-3.283 14.067 6.232 0 0-.484-1.034 19.03 47.164 1.336 3.205 2.003 5.535 2.003 6.989 0 2.879-2.689 6.054-6.454 6.054-5.084.001-5.885-3.848-10.772-16.693zm-23.059-9.927h19.498l-9.838-26.932z" fill="#f9a7a7"/><path d="m171.021 146.828h-12.87c-4.867 0-5.218-3.614-4.691-5.089.367-1.017 1.567-2.497 2.231-3.371 16.002-21.406 15.611-21.586 17.843-21.586 2.598 0 3.897 1.487 3.897 4.461v19.843c1.306 0 2.926-.068 4.268.538 1.552.701 1.596 3.563.218 4.525-1.157.806-2.921.679-4.487.679 0 4.015.78 8.665-3.205 8.665-3.962.001-3.204-4.669-3.204-8.665zm-11.023-5.742h11.024v-14.895z" fill="#f9a7a7"/><g fill="#3762cc"><path d="m205.495 212.609c-.197-.285-9.176-8.63-9.431-8.868-1.929-1.805-4.663 1.119-2.729 2.924l5.443 5.081h-121.107l5.443-5.081c1.931-1.802-.795-4.731-2.729-2.924-9.271 8.653-9.546 8.636-9.745 9.596-.363 1.747 1.117 2.359 9.745 10.412 1.926 1.796 4.662-1.121 2.729-2.924l-5.443-5.081h121.107l-5.443 5.081c-1.331 1.242-.435 3.462 1.364 3.462 1 0 .992.053 10.537-9.104.709-.681.819-1.765.259-2.574z"/><path d="m74.419 184.55-5.081 5.444v-161.31c5.429 5.817 5.387 6.078 6.543 6.078 1.735 0 2.658-2.083 1.461-3.365-.37-.396-8.193-8.78-8.566-9.172-.797-.828-2.108-.82-2.9.02l-8.542 9.152c-1.806 1.935 1.124 4.662 2.924 2.729l5.081-5.443v161.31l-5.081-5.444c-1.802-1.932-4.73.795-2.924 2.729 8.604 9.218 8.647 9.558 9.596 9.746 1.479.307 1.309.008 10.412-9.746 1.804-1.93-1.115-4.661-2.923-2.728z"/><path d="m216.303 237.686h-165.292c-3.499 0-6.345-2.847-6.345-6.345v-217.996c-.001-3.498 2.846-6.345 6.345-6.345 135.04 0 126.848-.327 127.761.586 46.776 46.776 43.877 43.502 43.877 44.705v179.05c-.001 3.498-2.847 6.345-6.346 6.345zm-165.292-226.686c-1.293 0-2.345 1.052-2.345 2.345v217.996c0 1.293 1.052 2.345 2.345 2.345h165.292c1.293 0 2.346-1.052 2.346-2.345v-178.222l-42.12-42.119z"/><path d="m181.703 54.291c-3.499 0-6.346-2.847-6.346-6.345v-38.946c0-1.777 2.157-2.672 3.414-1.414 46.606 46.605 44.46 43.694 43.725 45.47-.706 1.704 1.26 1.235-40.793 1.235zm-2.346-40.462v34.117c0 1.293 1.053 2.345 2.346 2.345h34.117z"/></g></svg>