<svg id="Layer_1" enable-background="new 0 0 256 256" height="512" viewBox="0 0 256 256" width="512" xmlns="http://www.w3.org/2000/svg"><path d="m49 169.5h158v7h-158z" fill="#e0ebfc"/><path d="m49 199.5h158v7h-158z" fill="#e0ebfc"/><path d="m207 178.5h-158c-1.104 0-2-.896-2-2v-7c0-1.104.896-2 2-2h158c1.104 0 2 .896 2 2v7c0 1.104-.896 2-2 2zm-156-4h154v-3h-154z" fill="#3762cc"/><path d="m207 208.5h-158c-1.104 0-2-.896-2-2v-7c0-1.104.896-2 2-2h158c1.104 0 2 .896 2 2v7c0 1.104-.896 2-2 2zm-156-4h154v-3h-154z" fill="#3762cc"/><path d="m213 8h-170c-5.523 0-10 4.478-10 10v220c0 5.522 4.477 10 10 10h170c5.523 0 10-4.478 10-10v-220c0-5.522-4.477-10-10-10zm-6 219c0 2.762-2.239 5-5 5h-148c-2.761 0-5-2.238-5-5v-198c0-2.762 2.239-5 5-5h148c2.761 0 5 2.238 5 5z" fill="#4671c6"/><path d="m49 49.5h158v7h-158z" fill="#e0ebfc"/><path d="m49 79.5h158v7h-158z" fill="#e0ebfc"/><path d="m49 109.5h158v7h-158z" fill="#e0ebfc"/><path d="m49 139.5h158v7h-158z" fill="#e0ebfc"/><path d="m207 58.5h-158c-1.104 0-2-.896-2-2v-7c0-1.104.896-2 2-2h158c1.104 0 2 .896 2 2v7c0 1.104-.896 2-2 2zm-156-4h154v-3h-154z" fill="#3762cc"/><path d="m207 88.5h-158c-1.104 0-2-.896-2-2v-7c0-1.104.896-2 2-2h158c1.104 0 2 .896 2 2v7c0 1.104-.896 2-2 2zm-156-4h154v-3h-154z" fill="#3762cc"/><path d="m207 118.5h-158c-1.104 0-2-.896-2-2v-7c0-1.104.896-2 2-2h158c1.104 0 2 .896 2 2v7c0 1.104-.896 2-2 2zm-156-4h154v-3h-154z" fill="#3762cc"/><path d="m207 148.5h-158c-1.104 0-2-.896-2-2v-7c0-1.104.896-2 2-2h158c1.104 0 2 .896 2 2v7c0 1.104-.896 2-2 2zm-156-4h154v-3h-154z" fill="#3762cc"/><path d="m203 63h-2c-2.209 0-4-1.791-4-4v-12c0-2.209 1.791-4 4-4h2c2.209 0 4 1.791 4 4v12c0 2.209-1.791 4-4 4z" fill="#f9a7a7"/><path d="m193 63h-2c-2.209 0-4-1.791-4-4v-12c0-2.209 1.791-4 4-4h2c2.209 0 4 1.791 4 4v12c0 2.209-1.791 4-4 4z" fill="#f9a7a7"/><path d="m183 63h-2c-2.209 0-4-1.791-4-4v-12c0-2.209 1.791-4 4-4h2c2.209 0 4 1.791 4 4v12c0 2.209-1.791 4-4 4z" fill="#f9a7a7"/><path d="m173 63h-2c-2.209 0-4-1.791-4-4v-12c0-2.209 1.791-4 4-4h2c2.209 0 4 1.791 4 4v12c0 2.209-1.791 4-4 4z" fill="#f9a7a7"/><path d="m163 63h-2c-2.209 0-4-1.791-4-4v-12c0-2.209 1.791-4 4-4h2c2.209 0 4 1.791 4 4v12c0 2.209-1.791 4-4 4z" fill="#f9a7a7"/><path d="m143 63h-2c-2.209 0-4-1.791-4-4v-12c0-2.209 1.791-4 4-4h2c2.209 0 4 1.791 4 4v12c0 2.209-1.791 4-4 4z" fill="#f9a7a7"/><path d="m103 63h-2c-2.209 0-4-1.791-4-4v-12c0-2.209 1.791-4 4-4h2c2.209 0 4 1.791 4 4v12c0 2.209-1.791 4-4 4z" fill="#f9a7a7"/><path d="m83 63h-2c-2.209 0-4-1.791-4-4v-12c0-2.209 1.791-4 4-4h2c2.209 0 4 1.791 4 4v12c0 2.209-1.791 4-4 4z" fill="#f9a7a7"/><path d="m203 93h-2c-2.209 0-4-1.791-4-4v-12c0-2.209 1.791-4 4-4h2c2.209 0 4 1.791 4 4v12c0 2.209-1.791 4-4 4z" fill="#f9cfcf"/><path d="m193 93h-2c-2.209 0-4-1.791-4-4v-12c0-2.209 1.791-4 4-4h2c2.209 0 4 1.791 4 4v12c0 2.209-1.791 4-4 4z" fill="#f9cfcf"/><path d="m183 93h-2c-2.209 0-4-1.791-4-4v-12c0-2.209 1.791-4 4-4h2c2.209 0 4 1.791 4 4v12c0 2.209-1.791 4-4 4z" fill="#f9cfcf"/><path d="m173 93h-2c-2.209 0-4-1.791-4-4v-12c0-2.209 1.791-4 4-4h2c2.209 0 4 1.791 4 4v12c0 2.209-1.791 4-4 4z" fill="#f9cfcf"/><path d="m153 93h-2c-2.209 0-4-1.791-4-4v-12c0-2.209 1.791-4 4-4h2c2.209 0 4 1.791 4 4v12c0 2.209-1.791 4-4 4z" fill="#f9cfcf"/><path d="m123 93h-2c-2.209 0-4-1.791-4-4v-12c0-2.209 1.791-4 4-4h2c2.209 0 4 1.791 4 4v12c0 2.209-1.791 4-4 4z" fill="#f9cfcf"/><path d="m93 93h-2c-2.209 0-4-1.791-4-4v-12c0-2.209 1.791-4 4-4h2c2.209 0 4 1.791 4 4v12c0 2.209-1.791 4-4 4z" fill="#f9cfcf"/><path d="m203 123h-2c-2.209 0-4-1.791-4-4v-12c0-2.209 1.791-4 4-4h2c2.209 0 4 1.791 4 4v12c0 2.209-1.791 4-4 4z" fill="#b9befc"/><path d="m193 123h-2c-2.209 0-4-1.791-4-4v-12c0-2.209 1.791-4 4-4h2c2.209 0 4 1.791 4 4v12c0 2.209-1.791 4-4 4z" fill="#b9befc"/><path d="m183 123h-2c-2.209 0-4-1.791-4-4v-12c0-2.209 1.791-4 4-4h2c2.209 0 4 1.791 4 4v12c0 2.209-1.791 4-4 4z" fill="#b9befc"/><path d="m153 123h-2c-2.209 0-4-1.791-4-4v-12c0-2.209 1.791-4 4-4h2c2.209 0 4 1.791 4 4v12c0 2.209-1.791 4-4 4z" fill="#b9befc"/><path d="m133 123h-2c-2.209 0-4-1.791-4-4v-12c0-2.209 1.791-4 4-4h2c2.209 0 4 1.791 4 4v12c0 2.209-1.791 4-4 4z" fill="#b9befc"/><path d="m103 123h-2c-2.209 0-4-1.791-4-4v-12c0-2.209 1.791-4 4-4h2c2.209 0 4 1.791 4 4v12c0 2.209-1.791 4-4 4z" fill="#b9befc"/><path d="m73 123h-2c-2.209 0-4-1.791-4-4v-12c0-2.209 1.791-4 4-4h2c2.209 0 4 1.791 4 4v12c0 2.209-1.791 4-4 4z" fill="#b9befc"/><path d="m203 153h-2c-2.209 0-4-1.791-4-4v-12c0-2.209 1.791-4 4-4h2c2.209 0 4 1.791 4 4v12c0 2.209-1.791 4-4 4z" fill="#a4c9ff"/><path d="m193 153h-2c-2.209 0-4-1.791-4-4v-12c0-2.209 1.791-4 4-4h2c2.209 0 4 1.791 4 4v12c0 2.209-1.791 4-4 4z" fill="#a4c9ff"/><path d="m183 153h-2c-2.209 0-4-1.791-4-4v-12c0-2.209 1.791-4 4-4h2c2.209 0 4 1.791 4 4v12c0 2.209-1.791 4-4 4z" fill="#a4c9ff"/><path d="m173 153h-2c-2.209 0-4-1.791-4-4v-12c0-2.209 1.791-4 4-4h2c2.209 0 4 1.791 4 4v12c0 2.209-1.791 4-4 4z" fill="#a4c9ff"/><path d="m163 153h-2c-2.209 0-4-1.791-4-4v-12c0-2.209 1.791-4 4-4h2c2.209 0 4 1.791 4 4v12c0 2.209-1.791 4-4 4z" fill="#a4c9ff"/><path d="m153 153h-2c-2.209 0-4-1.791-4-4v-12c0-2.209 1.791-4 4-4h2c2.209 0 4 1.791 4 4v12c0 2.209-1.791 4-4 4z" fill="#a4c9ff"/><path d="m143 153h-2c-2.209 0-4-1.791-4-4v-12c0-2.209 1.791-4 4-4h2c2.209 0 4 1.791 4 4v12c0 2.209-1.791 4-4 4z" fill="#a4c9ff"/><path d="m123 153h-2c-2.209 0-4-1.791-4-4v-12c0-2.209 1.791-4 4-4h2c2.209 0 4 1.791 4 4v12c0 2.209-1.791 4-4 4z" fill="#a4c9ff"/><path d="m53 163h2c2.209 0 4 1.791 4 4v12c0 2.209-1.791 4-4 4h-2c-2.209 0-4-1.791-4-4v-12c0-2.209 1.791-4 4-4z" fill="#6bdddd"/><path d="m63 163h2c2.209 0 4 1.791 4 4v12c0 2.209-1.791 4-4 4h-2c-2.209 0-4-1.791-4-4v-12c0-2.209 1.791-4 4-4z" fill="#6bdddd"/><path d="m73 163h2c2.209 0 4 1.791 4 4v12c0 2.209-1.791 4-4 4h-2c-2.209 0-4-1.791-4-4v-12c0-2.209 1.791-4 4-4z" fill="#6bdddd"/><path d="m83 163h2c2.209 0 4 1.791 4 4v12c0 2.209-1.791 4-4 4h-2c-2.209 0-4-1.791-4-4v-12c0-2.209 1.791-4 4-4z" fill="#6bdddd"/><path d="m93 163h2c2.209 0 4 1.791 4 4v12c0 2.209-1.791 4-4 4h-2c-2.209 0-4-1.791-4-4v-12c0-2.209 1.791-4 4-4z" fill="#6bdddd"/><path d="m103 163h2c2.209 0 4 1.791 4 4v12c0 2.209-1.791 4-4 4h-2c-2.209 0-4-1.791-4-4v-12c0-2.209 1.791-4 4-4z" fill="#6bdddd"/><path d="m153 163h2c2.209 0 4 1.791 4 4v12c0 2.209-1.791 4-4 4h-2c-2.209 0-4-1.791-4-4v-12c0-2.209 1.791-4 4-4z" fill="#6bdddd"/><path d="m173 163h2c2.209 0 4 1.791 4 4v12c0 2.209-1.791 4-4 4h-2c-2.209 0-4-1.791-4-4v-12c0-2.209 1.791-4 4-4z" fill="#6bdddd"/><path d="m63 193h2c2.209 0 4 1.791 4 4v12c0 2.209-1.791 4-4 4h-2c-2.209 0-4-1.791-4-4v-12c0-2.209 1.791-4 4-4z" fill="#f9a7a7"/><path d="m73 193h2c2.209 0 4 1.791 4 4v12c0 2.209-1.791 4-4 4h-2c-2.209 0-4-1.791-4-4v-12c0-2.209 1.791-4 4-4z" fill="#f9a7a7"/><path d="m83 193h2c2.209 0 4 1.791 4 4v12c0 2.209-1.791 4-4 4h-2c-2.209 0-4-1.791-4-4v-12c0-2.209 1.791-4 4-4z" fill="#f9a7a7"/><path d="m93 193h2c2.209 0 4 1.791 4 4v12c0 2.209-1.791 4-4 4h-2c-2.209 0-4-1.791-4-4v-12c0-2.209 1.791-4 4-4z" fill="#f9a7a7"/><path d="m103 193h2c2.209 0 4 1.791 4 4v12c0 2.209-1.791 4-4 4h-2c-2.209 0-4-1.791-4-4v-12c0-2.209 1.791-4 4-4z" fill="#f9a7a7"/><path d="m123 193h2c2.209 0 4 1.791 4 4v12c0 2.209-1.791 4-4 4h-2c-2.209 0-4-1.791-4-4v-12c0-2.209 1.791-4 4-4z" fill="#f9a7a7"/><path d="m163 193h2c2.209 0 4 1.791 4 4v12c0 2.209-1.791 4-4 4h-2c-2.209 0-4-1.791-4-4v-12c0-2.209 1.791-4 4-4z" fill="#f9a7a7"/><path d="m183 193h2c2.209 0 4 1.791 4 4v12c0 2.209-1.791 4-4 4h-2c-2.209 0-4-1.791-4-4v-12c0-2.209 1.791-4 4-4z" fill="#f9a7a7"/><g fill="#3762cc"><path d="m203 65h-2c-3.309 0-6-2.691-6-6v-12c0-3.309 2.691-6 6-6h2c3.309 0 6 2.691 6 6v12c0 3.309-2.691 6-6 6zm-2-20c-1.103 0-2 .897-2 2v12c0 1.103.897 2 2 2h2c1.103 0 2-.897 2-2v-12c0-1.103-.897-2-2-2z"/><path d="m193 65h-2c-3.309 0-6-2.691-6-6v-12c0-3.309 2.691-6 6-6h2c3.309 0 6 2.691 6 6v12c0 3.309-2.691 6-6 6zm-2-20c-1.103 0-2 .897-2 2v12c0 1.103.897 2 2 2h2c1.103 0 2-.897 2-2v-12c0-1.103-.897-2-2-2z"/><path d="m183 65h-2c-3.309 0-6-2.691-6-6v-12c0-3.309 2.691-6 6-6h2c3.309 0 6 2.691 6 6v12c0 3.309-2.691 6-6 6zm-2-20c-1.103 0-2 .897-2 2v12c0 1.103.897 2 2 2h2c1.103 0 2-.897 2-2v-12c0-1.103-.897-2-2-2z"/><path d="m173 65h-2c-3.309 0-6-2.691-6-6v-12c0-3.309 2.691-6 6-6h2c3.309 0 6 2.691 6 6v12c0 3.309-2.691 6-6 6zm-2-20c-1.103 0-2 .897-2 2v12c0 1.103.897 2 2 2h2c1.103 0 2-.897 2-2v-12c0-1.103-.897-2-2-2z"/><path d="m163 65h-2c-3.309 0-6-2.691-6-6v-12c0-3.309 2.691-6 6-6h2c3.309 0 6 2.691 6 6v12c0 3.309-2.691 6-6 6zm-2-20c-1.103 0-2 .897-2 2v12c0 1.103.897 2 2 2h2c1.103 0 2-.897 2-2v-12c0-1.103-.897-2-2-2z"/><path d="m143 65h-2c-3.309 0-6-2.691-6-6v-12c0-3.309 2.691-6 6-6h2c3.309 0 6 2.691 6 6v12c0 3.309-2.691 6-6 6zm-2-20c-1.103 0-2 .897-2 2v12c0 1.103.897 2 2 2h2c1.103 0 2-.897 2-2v-12c0-1.103-.897-2-2-2z"/><path d="m103 65h-2c-3.309 0-6-2.691-6-6v-12c0-3.309 2.691-6 6-6h2c3.309 0 6 2.691 6 6v12c0 3.309-2.691 6-6 6zm-2-20c-1.103 0-2 .897-2 2v12c0 1.103.897 2 2 2h2c1.103 0 2-.897 2-2v-12c0-1.103-.897-2-2-2z"/><path d="m83 65h-2c-3.309 0-6-2.691-6-6v-12c0-3.309 2.691-6 6-6h2c3.309 0 6 2.691 6 6v12c0 3.309-2.691 6-6 6zm-2-20c-1.103 0-2 .897-2 2v12c0 1.103.897 2 2 2h2c1.103 0 2-.897 2-2v-12c0-1.103-.897-2-2-2z"/><path d="m203 95h-2c-3.309 0-6-2.691-6-6v-12c0-3.309 2.691-6 6-6h2c3.309 0 6 2.691 6 6v12c0 3.309-2.691 6-6 6zm-2-20c-1.103 0-2 .897-2 2v12c0 1.103.897 2 2 2h2c1.103 0 2-.897 2-2v-12c0-1.103-.897-2-2-2z"/><path d="m193 95h-2c-3.309 0-6-2.691-6-6v-12c0-3.309 2.691-6 6-6h2c3.309 0 6 2.691 6 6v12c0 3.309-2.691 6-6 6zm-2-20c-1.103 0-2 .897-2 2v12c0 1.103.897 2 2 2h2c1.103 0 2-.897 2-2v-12c0-1.103-.897-2-2-2z"/><path d="m183 95h-2c-3.309 0-6-2.691-6-6v-12c0-3.309 2.691-6 6-6h2c3.309 0 6 2.691 6 6v12c0 3.309-2.691 6-6 6zm-2-20c-1.103 0-2 .897-2 2v12c0 1.103.897 2 2 2h2c1.103 0 2-.897 2-2v-12c0-1.103-.897-2-2-2z"/><path d="m173 95h-2c-3.309 0-6-2.691-6-6v-12c0-3.309 2.691-6 6-6h2c3.309 0 6 2.691 6 6v12c0 3.309-2.691 6-6 6zm-2-20c-1.103 0-2 .897-2 2v12c0 1.103.897 2 2 2h2c1.103 0 2-.897 2-2v-12c0-1.103-.897-2-2-2z"/><path d="m153 95h-2c-3.309 0-6-2.691-6-6v-12c0-3.309 2.691-6 6-6h2c3.309 0 6 2.691 6 6v12c0 3.309-2.691 6-6 6zm-2-20c-1.103 0-2 .897-2 2v12c0 1.103.897 2 2 2h2c1.103 0 2-.897 2-2v-12c0-1.103-.897-2-2-2z"/><path d="m123 95h-2c-3.309 0-6-2.691-6-6v-12c0-3.309 2.691-6 6-6h2c3.309 0 6 2.691 6 6v12c0 3.309-2.691 6-6 6zm-2-20c-1.103 0-2 .897-2 2v12c0 1.103.897 2 2 2h2c1.103 0 2-.897 2-2v-12c0-1.103-.897-2-2-2z"/><path d="m93 95h-2c-3.309 0-6-2.691-6-6v-12c0-3.309 2.691-6 6-6h2c3.309 0 6 2.691 6 6v12c0 3.309-2.691 6-6 6zm-2-20c-1.103 0-2 .897-2 2v12c0 1.103.897 2 2 2h2c1.103 0 2-.897 2-2v-12c0-1.103-.897-2-2-2z"/><path d="m203 125h-2c-3.309 0-6-2.691-6-6v-12c0-3.309 2.691-6 6-6h2c3.309 0 6 2.691 6 6v12c0 3.309-2.691 6-6 6zm-2-20c-1.103 0-2 .897-2 2v12c0 1.103.897 2 2 2h2c1.103 0 2-.897 2-2v-12c0-1.103-.897-2-2-2z"/><path d="m193 125h-2c-3.309 0-6-2.691-6-6v-12c0-3.309 2.691-6 6-6h2c3.309 0 6 2.691 6 6v12c0 3.309-2.691 6-6 6zm-2-20c-1.103 0-2 .897-2 2v12c0 1.103.897 2 2 2h2c1.103 0 2-.897 2-2v-12c0-1.103-.897-2-2-2z"/><path d="m183 125h-2c-3.309 0-6-2.691-6-6v-12c0-3.309 2.691-6 6-6h2c3.309 0 6 2.691 6 6v12c0 3.309-2.691 6-6 6zm-2-20c-1.103 0-2 .897-2 2v12c0 1.103.897 2 2 2h2c1.103 0 2-.897 2-2v-12c0-1.103-.897-2-2-2z"/><path d="m153 125h-2c-3.309 0-6-2.691-6-6v-12c0-3.309 2.691-6 6-6h2c3.309 0 6 2.691 6 6v12c0 3.309-2.691 6-6 6zm-2-20c-1.103 0-2 .897-2 2v12c0 1.103.897 2 2 2h2c1.103 0 2-.897 2-2v-12c0-1.103-.897-2-2-2z"/><path d="m133 125h-2c-3.309 0-6-2.691-6-6v-12c0-3.309 2.691-6 6-6h2c3.309 0 6 2.691 6 6v12c0 3.309-2.691 6-6 6zm-2-20c-1.103 0-2 .897-2 2v12c0 1.103.897 2 2 2h2c1.103 0 2-.897 2-2v-12c0-1.103-.897-2-2-2z"/><path d="m103 125h-2c-3.309 0-6-2.691-6-6v-12c0-3.309 2.691-6 6-6h2c3.309 0 6 2.691 6 6v12c0 3.309-2.691 6-6 6zm-2-20c-1.103 0-2 .897-2 2v12c0 1.103.897 2 2 2h2c1.103 0 2-.897 2-2v-12c0-1.103-.897-2-2-2z"/><path d="m73 125h-2c-3.309 0-6-2.691-6-6v-12c0-3.309 2.691-6 6-6h2c3.309 0 6 2.691 6 6v12c0 3.309-2.691 6-6 6zm-2-20c-1.103 0-2 .897-2 2v12c0 1.103.897 2 2 2h2c1.103 0 2-.897 2-2v-12c0-1.103-.897-2-2-2z"/><path d="m203 155h-2c-3.309 0-6-2.691-6-6v-12c0-3.309 2.691-6 6-6h2c3.309 0 6 2.691 6 6v12c0 3.309-2.691 6-6 6zm-2-20c-1.103 0-2 .897-2 2v12c0 1.103.897 2 2 2h2c1.103 0 2-.897 2-2v-12c0-1.103-.897-2-2-2z"/><path d="m193 155h-2c-3.309 0-6-2.691-6-6v-12c0-3.309 2.691-6 6-6h2c3.309 0 6 2.691 6 6v12c0 3.309-2.691 6-6 6zm-2-20c-1.103 0-2 .897-2 2v12c0 1.103.897 2 2 2h2c1.103 0 2-.897 2-2v-12c0-1.103-.897-2-2-2z"/><path d="m183 155h-2c-3.309 0-6-2.691-6-6v-12c0-3.309 2.691-6 6-6h2c3.309 0 6 2.691 6 6v12c0 3.309-2.691 6-6 6zm-2-20c-1.103 0-2 .897-2 2v12c0 1.103.897 2 2 2h2c1.103 0 2-.897 2-2v-12c0-1.103-.897-2-2-2z"/><path d="m173 155h-2c-3.309 0-6-2.691-6-6v-12c0-3.309 2.691-6 6-6h2c3.309 0 6 2.691 6 6v12c0 3.309-2.691 6-6 6zm-2-20c-1.103 0-2 .897-2 2v12c0 1.103.897 2 2 2h2c1.103 0 2-.897 2-2v-12c0-1.103-.897-2-2-2z"/><path d="m163 155h-2c-3.309 0-6-2.691-6-6v-12c0-3.309 2.691-6 6-6h2c3.309 0 6 2.691 6 6v12c0 3.309-2.691 6-6 6zm-2-20c-1.103 0-2 .897-2 2v12c0 1.103.897 2 2 2h2c1.103 0 2-.897 2-2v-12c0-1.103-.897-2-2-2z"/><path d="m153 155h-2c-3.309 0-6-2.691-6-6v-12c0-3.309 2.691-6 6-6h2c3.309 0 6 2.691 6 6v12c0 3.309-2.691 6-6 6zm-2-20c-1.103 0-2 .897-2 2v12c0 1.103.897 2 2 2h2c1.103 0 2-.897 2-2v-12c0-1.103-.897-2-2-2z"/><path d="m143 155h-2c-3.309 0-6-2.691-6-6v-12c0-3.309 2.691-6 6-6h2c3.309 0 6 2.691 6 6v12c0 3.309-2.691 6-6 6zm-2-20c-1.103 0-2 .897-2 2v12c0 1.103.897 2 2 2h2c1.103 0 2-.897 2-2v-12c0-1.103-.897-2-2-2z"/><path d="m123 155h-2c-3.309 0-6-2.691-6-6v-12c0-3.309 2.691-6 6-6h2c3.309 0 6 2.691 6 6v12c0 3.309-2.691 6-6 6zm-2-20c-1.103 0-2 .897-2 2v12c0 1.103.897 2 2 2h2c1.103 0 2-.897 2-2v-12c0-1.103-.897-2-2-2z"/><path d="m55 185h-2c-3.309 0-6-2.691-6-6v-12c0-3.309 2.691-6 6-6h2c3.309 0 6 2.691 6 6v12c0 3.309-2.691 6-6 6zm-2-20c-1.103 0-2 .897-2 2v12c0 1.103.897 2 2 2h2c1.103 0 2-.897 2-2v-12c0-1.103-.897-2-2-2z"/><path d="m65 185h-2c-3.309 0-6-2.691-6-6v-12c0-3.309 2.691-6 6-6h2c3.309 0 6 2.691 6 6v12c0 3.309-2.691 6-6 6zm-2-20c-1.103 0-2 .897-2 2v12c0 1.103.897 2 2 2h2c1.103 0 2-.897 2-2v-12c0-1.103-.897-2-2-2z"/><path d="m75 185h-2c-3.309 0-6-2.691-6-6v-12c0-3.309 2.691-6 6-6h2c3.309 0 6 2.691 6 6v12c0 3.309-2.691 6-6 6zm-2-20c-1.103 0-2 .897-2 2v12c0 1.103.897 2 2 2h2c1.103 0 2-.897 2-2v-12c0-1.103-.897-2-2-2z"/><path d="m85 185h-2c-3.309 0-6-2.691-6-6v-12c0-3.309 2.691-6 6-6h2c3.309 0 6 2.691 6 6v12c0 3.309-2.691 6-6 6zm-2-20c-1.103 0-2 .897-2 2v12c0 1.103.897 2 2 2h2c1.103 0 2-.897 2-2v-12c0-1.103-.897-2-2-2z"/><path d="m95 185h-2c-3.309 0-6-2.691-6-6v-12c0-3.309 2.691-6 6-6h2c3.309 0 6 2.691 6 6v12c0 3.309-2.691 6-6 6zm-2-20c-1.103 0-2 .897-2 2v12c0 1.103.897 2 2 2h2c1.103 0 2-.897 2-2v-12c0-1.103-.897-2-2-2z"/><path d="m105 185h-2c-3.309 0-6-2.691-6-6v-12c0-3.309 2.691-6 6-6h2c3.309 0 6 2.691 6 6v12c0 3.309-2.691 6-6 6zm-2-20c-1.103 0-2 .897-2 2v12c0 1.103.897 2 2 2h2c1.103 0 2-.897 2-2v-12c0-1.103-.897-2-2-2z"/><path d="m155 185h-2c-3.309 0-6-2.691-6-6v-12c0-3.309 2.691-6 6-6h2c3.309 0 6 2.691 6 6v12c0 3.309-2.691 6-6 6zm-2-20c-1.103 0-2 .897-2 2v12c0 1.103.897 2 2 2h2c1.103 0 2-.897 2-2v-12c0-1.103-.897-2-2-2z"/><path d="m175 185h-2c-3.309 0-6-2.691-6-6v-12c0-3.309 2.691-6 6-6h2c3.309 0 6 2.691 6 6v12c0 3.309-2.691 6-6 6zm-2-20c-1.103 0-2 .897-2 2v12c0 1.103.897 2 2 2h2c1.103 0 2-.897 2-2v-12c0-1.103-.897-2-2-2z"/><path d="m65 215h-2c-3.309 0-6-2.691-6-6v-12c0-3.309 2.691-6 6-6h2c3.309 0 6 2.691 6 6v12c0 3.309-2.691 6-6 6zm-2-20c-1.103 0-2 .897-2 2v12c0 1.103.897 2 2 2h2c1.103 0 2-.897 2-2v-12c0-1.103-.897-2-2-2z"/><path d="m75 215h-2c-3.309 0-6-2.691-6-6v-12c0-3.309 2.691-6 6-6h2c3.309 0 6 2.691 6 6v12c0 3.309-2.691 6-6 6zm-2-20c-1.103 0-2 .897-2 2v12c0 1.103.897 2 2 2h2c1.103 0 2-.897 2-2v-12c0-1.103-.897-2-2-2z"/><path d="m85 215h-2c-3.309 0-6-2.691-6-6v-12c0-3.309 2.691-6 6-6h2c3.309 0 6 2.691 6 6v12c0 3.309-2.691 6-6 6zm-2-20c-1.103 0-2 .897-2 2v12c0 1.103.897 2 2 2h2c1.103 0 2-.897 2-2v-12c0-1.103-.897-2-2-2z"/><path d="m95 215h-2c-3.309 0-6-2.691-6-6v-12c0-3.309 2.691-6 6-6h2c3.309 0 6 2.691 6 6v12c0 3.309-2.691 6-6 6zm-2-20c-1.103 0-2 .897-2 2v12c0 1.103.897 2 2 2h2c1.103 0 2-.897 2-2v-12c0-1.103-.897-2-2-2z"/><path d="m105 215h-2c-3.309 0-6-2.691-6-6v-12c0-3.309 2.691-6 6-6h2c3.309 0 6 2.691 6 6v12c0 3.309-2.691 6-6 6zm-2-20c-1.103 0-2 .897-2 2v12c0 1.103.897 2 2 2h2c1.103 0 2-.897 2-2v-12c0-1.103-.897-2-2-2z"/><path d="m125 215h-2c-3.309 0-6-2.691-6-6v-12c0-3.309 2.691-6 6-6h2c3.309 0 6 2.691 6 6v12c0 3.309-2.691 6-6 6zm-2-20c-1.103 0-2 .897-2 2v12c0 1.103.897 2 2 2h2c1.103 0 2-.897 2-2v-12c0-1.103-.897-2-2-2z"/><path d="m165 215h-2c-3.309 0-6-2.691-6-6v-12c0-3.309 2.691-6 6-6h2c3.309 0 6 2.691 6 6v12c0 3.309-2.691 6-6 6zm-2-20c-1.103 0-2 .897-2 2v12c0 1.103.897 2 2 2h2c1.103 0 2-.897 2-2v-12c0-1.103-.897-2-2-2z"/><path d="m185 215h-2c-3.309 0-6-2.691-6-6v-12c0-3.309 2.691-6 6-6h2c3.309 0 6 2.691 6 6v12c0 3.309-2.691 6-6 6zm-2-20c-1.103 0-2 .897-2 2v12c0 1.103.897 2 2 2h2c1.103 0 2-.897 2-2v-12c0-1.103-.897-2-2-2z"/><path d="m213 250h-170c-6.617 0-12-5.383-12-12v-220c0-6.617 5.383-12 12-12h170c6.617 0 12 5.383 12 12v220c0 6.617-5.383 12-12 12zm-170-240c-4.411 0-8 3.589-8 8v220c0 4.411 3.589 8 8 8h170c4.411 0 8-3.589 8-8v-220c0-4.411-3.589-8-8-8zm159 224h-148c-3.86 0-7-3.141-7-7v-198c0-3.859 3.14-7 7-7h148c3.86 0 7 3.141 7 7v198c0 3.859-3.14 7-7 7zm-148-208c-1.654 0-3 1.346-3 3v198c0 1.654 1.346 3 3 3h148c1.654 0 3-1.346 3-3v-198c0-1.654-1.346-3-3-3z"/></g></svg>