<svg id="Layer_1" enable-background="new 0 0 256 256" height="512" viewBox="0 0 256 256" width="512" xmlns="http://www.w3.org/2000/svg"><path d="m242.002 216.867h-228c-3.314 0-6-2.686-6-6v-158c0-3.314 2.686-6 6-6h228c3.314 0 6 2.686 6 6v158c0 3.313-2.687 6-6 6z" fill="#e0ebfc"/><path d="m20.002 201.867v-140c0-1.657 1.343-3 3-3h210c1.657 0 3 1.343 3 3v140c0 1.657-1.343 3-3 3h-210c-1.657 0-3-1.343-3-3z" fill="#a4c9ff"/><path d="m242.001 218.866h-228c-4.411 0-8-3.589-8-8v-158c0-4.411 3.589-8 8-8h228c4.411 0 8 3.589 8 8v158c0 4.411-3.588 8-8 8zm-228-170c-2.206 0-4 1.794-4 4v158c0 2.206 1.794 4 4 4h228c2.206 0 4-1.794 4-4v-158c0-2.206-1.794-4-4-4z" fill="#3762cc"/><path d="m233.001 206.867h-210c-2.757 0-5-2.243-5-5v-140c0-2.757 2.243-5 5-5h210c2.757 0 5 2.243 5 5v140c0 2.757-2.243 5-5 5zm-210-146c-.551 0-1 .448-1 1v140c0 .552.449 1 1 1h210c.551 0 1-.448 1-1v-140c0-.552-.449-1-1-1z" fill="#3762cc"/><path d="m225.165 132.367c-2.831-8.341-13.479-10.774-19.751-4.59l-3.85 3.796c-5.054 4.984-13.613 1.403-13.613-5.695v-5.406c0-8.798-9.197-14.689-17.114-10.852-13.282 6.437-22.391 20.134-22.171 35.935.294 21.161 17.564 38.43 38.725 38.725 21.955.305 39.848-17.4 39.848-39.284.001-4.418-.729-8.665-2.074-12.629zm-12.863 12.582c-3.975 0-7.198-3.223-7.198-7.198s3.223-7.198 7.198-7.198 7.198 3.223 7.198 7.198-3.222 7.198-7.198 7.198z" fill="#4671c6"/><circle cx="198.549" cy="168.844" fill="#f9a7a7" r="8.997"/><circle cx="174.634" cy="165.84" fill="#ffea92" r="8.997"/><circle cx="162.076" cy="146.931" fill="#6bdddd" r="8.997"/><circle cx="170.609" cy="126.076" fill="#e0ebfc" r="8.997"/><path d="m160.028 82.201c1.308-.839 2.862-1.327 4.531-1.327 4.643 0 8.407 3.764 8.407 8.407s-3.764 8.407-8.407 8.407c0 0-10.131 1.431-16.596-12.386-.337-.719.35-1.497 1.105-1.25 6.294 2.053 9.96-1.351 10.96-1.851z" fill="#e0ebfc"/><path d="m171.626 85.717c0 7.272-.254 7.887.759 7.887h3.261c.88 0 1.593-.713 1.593-1.593v-5.461c0-.88-.713-1.593-1.593-1.593h-3.261c-.419.001-.759.341-.759.76z" fill="#eaa97d"/><path d="m155.681 79.818c2.527-.82 8.317-.512 9.125 4.113 1 5.726.868 6.463 2.154 7.235 1.36.816 2.193 2.286 2.193 3.874v1.918c0 1.515-1.201 2.797-2.716 2.805-.01 0-.019 0-.029 0-.19.023-1.107.119-2.486 0h-10.875c-1.169 0-2.24-.81-2.416-1.966-.203-1.331.73-2.495 1.976-2.67-.045-.035-.09-.07-.134-.106h-6.041c-1.219 0-2.331-.874-2.455-2.086-.142-1.393.952-2.573 2.317-2.573h1.558c-1.818-2.289-3.456-4.981-4.876-8.015-.111-.236-.167-.484-.167-.738 0-.552.272-1.078.727-1.409.451-.327 1.016-.415 1.55-.241 2.705.882 6.521 1.423 10.592-.147z" fill="#f9a7a7"/><path d="m225.545 85.4c-1.353-.362-2.804-.569-4.275-.626v-.004c-.051.001-29.513.946-44.079 1.413.028.119.047.241.047.368v5.461c0 .127-.019.25-.047.368 17.787.57 15.748.504 44.079 1.413v-.004c1.471-.057 2.921-.264 4.275-.626 2.625-.703 4.303-2.216 4.303-3.881 0-1.666-1.678-3.179-4.303-3.882z" fill="#eaa97d"/><path d="m138.781 112.709c-.036-.02-.074-.036-.11-.055-2.351-1.246-4.989-1.854-7.466-1.854-.111 0-.218.014-.328.017l-8.687-6.254c-6.853-4.934-11.177-12.42-12.233-20.527 0 0 .001-.001.001-.002l-.177-1.29c-9.888 10.674-26.689 18.008-39.898 19.69 0 0-4.655.62-7.03.802-15.409 1.184-26.765-1.863-35.048-6.374-.531 2.953-.824 5.987-.824 9.09v4.864c-.11-.002-.218-.017-.328-.017-8.753 0-15.848 7.032-15.848 15.706s7.096 15.706 15.848 15.706c.575 0 1.141-.034 1.7-.093 5.361 22.774 25.961 39.745 50.575 39.745s45.215-16.97 50.575-39.745c.559.059 1.126.093 1.7.093 8.753 0 15.848-7.032 15.848-15.706.002-5.953-3.342-11.132-8.27-13.796z" fill="#f9cfcf"/><path d="m111.587 187.287h-8.615c-.019-.001-.037-.004-.056-.004l-.003.004h-56.671c-14.972 0-27.109 12.137-27.109 27.109v24.612h119.563c0-9.177 0-15.439 0-24.612 0-14.972-12.137-27.109-27.109-27.109z" fill="#e0ebfc"/><path d="m78.939 159.805c-3.561 0-6.876-1.282-9.094-3.52-1.685-1.698-2.612-3.841-2.612-6.032 0-1.104.896-2 2-2s2 .896 2 2c0 1.146.502 2.258 1.452 3.216 1.451 1.463 3.789 2.336 6.254 2.336 2.481 0 4.749-.852 6.222-2.336.95-.958 1.452-2.07 1.452-3.216 0-1.104.896-2 2-2s2 .896 2 2c0 2.191-.928 4.334-2.612 6.032-2.219 2.237-5.522 3.52-9.062 3.52z" fill="#3762cc"/><path d="m53.232 139.08c-3.458 0-6.271-2.813-6.271-6.27v-10.451c0-3.458 2.813-6.271 6.271-6.271 3.457 0 6.27 2.813 6.27 6.271v10.451c.001 3.457-2.813 6.27-6.27 6.27z" fill="#3762cc"/><path d="m104.615 139.08c-3.458 0-6.271-2.813-6.271-6.27v-10.451c0-3.458 2.813-6.271 6.271-6.271 3.457 0 6.27 2.813 6.27 6.271v10.451c0 3.457-2.813 6.27-6.27 6.27z" fill="#3762cc"/><path d="m78.921 181.863c-8.713 0-16.917-2.135-24.127-5.892v13.719c0 10.463 8.482 18.945 18.945 18.945h10.336c10.463 0 18.945-8.482 18.945-18.945v-13.706c-7.202 3.75-15.397 5.879-24.099 5.879z" fill="#f9cfcf"/><path d="m138.696 241.007h-119.563c-1.104 0-2-.896-2-2v-24.611c0-16.051 13.058-29.108 29.109-29.108h6.553v-9.315c0-.699.365-1.348.963-1.71.598-.363 1.342-.387 1.961-.063 7.112 3.706 15.135 5.665 23.202 5.665 8.059 0 16.073-1.954 23.177-5.652.621-.321 1.364-.298 1.961.064.598.362.962 1.011.962 1.71v9.302h6.566c16.05 0 29.108 13.058 29.108 29.108v24.611c.001 1.103-.895 1.999-1.999 1.999zm-117.563-4h115.563v-22.611c0-13.845-11.264-25.108-25.108-25.108h-8.566c-1.104 0-2-.896-2-2v-8.118c-6.914 3.078-14.49 4.694-22.1 4.694-7.62 0-15.204-1.62-22.126-4.706v8.13c0 1.104-.896 2-2 2h-8.553c-13.845 0-25.109 11.264-25.109 25.108v22.611z" fill="#3762cc"/><g fill="#4671c6"><path d="m37.066 215.434h83.727v23.573h-83.727z"/><path d="m37.066 215.434h83.727v23.573h-83.727z"/><path d="m37.066 215.434h83.727v23.573h-83.727z"/><path d="m37.066 215.434h83.727v23.573h-83.727z"/></g><path d="m120.793 241.007h-83.727c-1.104 0-2-.896-2-2v-23.573c0-1.104.896-2 2-2h83.727c1.104 0 2 .896 2 2v23.573c0 1.104-.896 2-2 2zm-81.727-4h79.727v-19.573h-79.727z" fill="#3762cc"/><path d="m50.816 215.897v-29.338c0-1.657-1.343-3-3-3h-7.75c-1.657 0-3 1.343-3 3v29.338c0 3.797 3.078 6.875 6.875 6.875 3.797 0 6.875-3.078 6.875-6.875z" fill="#4671c6"/><path d="m120.793 215.897v-29.338c0-1.657-1.343-3-3-3h-7.75c-1.657 0-3 1.343-3 3v29.338c0 3.797 3.078 6.875 6.875 6.875 3.797 0 6.875-3.078 6.875-6.875z" fill="#4671c6"/><path d="m43.941 224.771c-4.894 0-8.875-3.981-8.875-8.875v-29.338c0-2.757 2.243-5 5-5h7.75c2.757 0 5 2.243 5 5v29.338c0 4.894-3.981 8.875-8.875 8.875zm-3.875-39.212c-.551 0-1 .448-1 1v29.338c0 2.688 2.187 4.875 4.875 4.875s4.875-2.187 4.875-4.875v-29.338c0-.552-.449-1-1-1z" fill="#3762cc"/><path d="m113.918 224.771c-4.894 0-8.875-3.981-8.875-8.875v-29.338c0-2.757 2.243-5 5-5h7.75c2.757 0 5 2.243 5 5v29.338c0 4.894-3.981 8.875-8.875 8.875zm-3.875-39.212c-.551 0-1 .448-1 1v29.338c0 2.688 2.187 4.875 4.875 4.875s4.875-2.187 4.875-4.875v-29.338c0-.552-.449-1-1-1z" fill="#3762cc"/><circle cx="43.941" cy="215.434" fill="#f9a7a7" r="3.2"/><circle cx="113.918" cy="215.434" fill="#f9a7a7" r="3.2"/><path d="m129.901 67.014c-2.14-2.79-5.784-3.961-9.148-2.942l-2.652.804c-.262 6.593-3.45 12.648-8.315 17.894l.173 1.266c0 .001-.001.001-.001.002 1.055 8.107 5.379 15.593 12.233 20.527l8.687 6.254c.11-.002.218-.017.328-.017 2.745 0 5.327.693 7.578 1.91l1.102-8.082c1.821-13.37-1.773-26.912-9.985-37.616z" fill="#4671c6"/><path d="m16.653 88.426c-1.002 5.295-1.176 10.761-.435 16.203l1.241 9.102c2.595-1.837 5.763-2.93 9.195-2.93.111 0 .218.014.328.017v-4.864c0-3.104.297-6.136.829-9.087-4.624-2.519-8.287-5.489-11.158-8.441z" fill="#4671c6"/><path d="m138.783 114.71c-.327 0-.654-.08-.951-.24-2.02-1.092-4.312-1.669-6.627-1.669-.121.009-.198.014-.275.016-.449.021-.866-.121-1.222-.376l-8.687-6.254c-7.151-5.148-11.907-13.128-13.048-21.893-.003-.022-.005-.046-.008-.068l-.162-1.186c-.082-.594.108-1.192.515-1.632 4.938-5.322 7.556-10.912 7.783-16.613.034-.851.604-1.587 1.418-1.834l2.652-.804c4.137-1.252 8.685.209 11.315 3.64 8.477 11.049 12.26 25.301 10.378 39.102l-1.102 8.082c-.088.65-.491 1.216-1.076 1.513-.282.144-.592.216-.903.216zm-7.281-5.906c1.931.031 3.846.376 5.658 1.01l.744-5.456c1.738-12.75-1.757-25.918-9.589-36.126 0-.001 0-.001 0-.001-1.624-2.114-4.429-3.021-6.981-2.245l-1.334.404c-.583 5.911-3.304 11.631-8.106 17.032l.046.341c.004.031.008.062.011.093 1.017 7.642 5.171 14.595 11.408 19.085z" fill="#3762cc"/><path d="m17.459 115.73c-.27 0-.541-.055-.796-.165-.642-.279-1.091-.872-1.185-1.564l-1.241-9.103c-.76-5.576-.608-11.243.451-16.845.139-.733.674-1.328 1.389-1.543.714-.216 1.49-.014 2.01.521 3.103 3.19 6.696 5.908 10.681 8.077.757.412 1.165 1.263 1.012 2.111-.529 2.936-.797 5.874-.797 8.733v4.864c0 .54-.218 1.057-.604 1.433-.387.377-.895.595-1.449.566-.078-.002-.155-.007-.231-.012-.006 0-.012 0-.018 0-2.929 0-5.702.886-8.064 2.558-.345.244-.75.369-1.158.369zm.602-23.218c-.441 3.956-.395 7.927.139 11.846l.838 6.144c1.871-.883 3.875-1.431 5.945-1.623v-2.925c0-2.638.21-5.334.625-8.033-2.7-1.573-5.225-3.383-7.547-5.409z" fill="#3762cc"/><path d="m78.93 183.863c-24.633 0-45.823-16.221-52.11-39.652-.055.001-.11.001-.166.001-9.841 0-17.848-7.943-17.848-17.706 0-9.204 7.116-16.79 16.177-17.628v-2.925c0-3.112.288-6.29.855-9.445.114-.632.524-1.171 1.104-1.449.58-.276 1.256-.261 1.821.047 9.336 5.085 20.755 7.146 33.938 6.137 2.293-.177 6.874-.784 6.92-.79 11.49-1.464 28.492-8.054 38.694-19.067.526-.567 1.333-.78 2.069-.548.738.232 1.275.869 1.38 1.636l.177 1.29c.004.031.008.062.011.093 1.017 7.642 5.171 14.595 11.408 19.085l8.144 5.863c2.787.049 5.654.784 8.105 2.083l.125.063c5.75 3.107 9.321 9.068 9.321 15.557 0 9.763-8.007 17.706-17.848 17.706-.055 0-.11 0-.166-.001-6.289 23.43-27.478 39.65-52.111 39.65zm-50.574-43.745c.918 0 1.731.631 1.945 1.542 5.294 22.493 25.291 38.203 48.628 38.203s43.333-15.71 48.628-38.203c.231-.98 1.151-1.636 2.159-1.53.521.055 1.008.082 1.489.082 7.636 0 13.848-6.148 13.848-13.706 0-5.01-2.76-9.616-7.203-12.026-.028-.015-.083-.041-.093-.046-1.995-1.058-4.314-1.633-6.552-1.633-.121.009-.198.014-.275.016-.449.021-.866-.121-1.222-.376l-8.687-6.254c-6.432-4.631-10.926-11.552-12.595-19.274-10.972 10.099-26.741 16.035-38.289 17.507-.182.023-4.727.627-7.13.812-12.818.986-24.119-.809-33.642-5.331-.254 2.03-.383 4.058-.383 6.054v4.864c0 .54-.218 1.057-.604 1.433-.387.377-.895.595-1.449.566-.078-.002-.155-.007-.231-.012-.002 0-.005 0-.007 0-7.677 0-13.885 6.146-13.885 13.701 0 7.558 6.212 13.706 13.848 13.706.481 0 .968-.027 1.489-.082.071-.009.143-.013.213-.013z" fill="#3762cc"/><path d="m110.966 46.97c-6.688-6.14-13.449-10.132-20.142-12.454h.007c-15.473-5.198-33.763-1.984-43.597 2.924l.035-.002c-19.63 8.915-33.419 27.594-37.677 33.922-.271.33-1.246 1.702-1.389 2.146-.326 1.016-.269 2.178.213 3.198 3.577 7.571 17.198 29.392 54.438 26.532 2.376-.182 7.03-.802 7.03-.802 20.248-2.578 48.993-18.416 48.228-39.253-.229-6.254-2.805-12.225-7.146-16.211z" fill="#4671c6"/><path d="m56.365 105.491c-33.796 0-46.537-21.117-49.756-27.933-.683-1.445-.796-3.145-.31-4.663.268-.834 1.355-2.293 1.665-2.697 3.923-5.822 18.094-25.222 38.24-34.473.045-.026.091-.052.138-.075 10.825-5.403 29.802-8.179 45.126-3.03.039.013.077.026.114.042 7.238 2.528 14.214 6.846 20.737 12.834 4.7 4.314 7.54 10.734 7.792 17.612.823 22.397-29.027 38.643-49.974 41.311-.181.023-4.726.627-7.129.812-2.3.176-4.514.26-6.643.26zm-46.277-31.311c-.158.546-.109 1.151.136 1.67 2.958 6.259 14.696 25.638 46.181 25.64 2.018 0 4.112-.079 6.295-.247 2.292-.176 6.874-.784 6.92-.79 19.898-2.533 47.201-17.909 46.493-37.197-.213-5.817-2.583-11.216-6.5-14.812-6.148-5.645-12.691-9.695-19.446-12.038-.023-.009-.047-.017-.07-.026-14.166-4.72-31.638-2.212-41.738 2.735-.083.054-.17.103-.263.145-19.367 8.795-33.098 27.648-36.845 33.217-.035.053-.072.103-.112.151-.236.287-.881 1.223-1.051 1.552z" fill="#3762cc"/><path d="m129.261 72.917-102.563-8.98c-5.245-.459-9.125-5.084-8.666-10.329 1.932-22.068 21.389-38.392 43.457-36.46l41.641 3.646c22.068 1.932 38.392 21.389 36.46 43.457-.46 5.246-5.084 9.125-10.329 8.666z" fill="#f9a7a7"/><path d="m130.101 74.954c-.336 0-.673-.015-1.014-.045l-102.564-8.979c-6.335-.556-11.039-6.161-10.484-12.496.981-11.205 6.267-21.357 14.884-28.588 8.617-7.229 19.53-10.681 30.739-9.689l41.641 3.646c23.132 2.025 40.303 22.492 38.278 45.624-.524 5.993-5.572 10.527-11.48 10.527zm-.666-4.029c4.135.359 7.8-2.71 8.163-6.849 1.833-20.934-13.708-39.456-34.642-41.29l-41.641-3.646c-10.146-.884-20.021 2.227-27.82 8.77s-12.583 15.732-13.471 25.873c-.362 4.138 2.71 7.799 6.849 8.162z" fill="#3762cc"/></svg>