<svg id="Layer_1" enable-background="new 0 0 256 256" height="512" viewBox="0 0 256 256" width="512" xmlns="http://www.w3.org/2000/svg"><path d="m242.002 201.433h-228c-3.314 0-6-2.686-6-6v-158c0-3.314 2.686-6 6-6h228c3.314 0 6 2.686 6 6v158c0 3.314-2.687 6-6 6z" fill="#e0ebfc"/><path d="m20.002 186.433v-140c0-1.657 1.343-3 3-3h210c1.657 0 3 1.343 3 3v140c0 1.657-1.343 3-3 3h-210c-1.657 0-3-1.343-3-3z" fill="#a4c9ff"/><path d="m242.002 203.433h-228c-4.411 0-8-3.589-8-8v-158c0-4.411 3.589-8 8-8h228c4.411 0 8 3.589 8 8v158c0 4.411-3.589 8-8 8zm-228-170c-2.206 0-4 1.794-4 4v158c0 2.206 1.794 4 4 4h228c2.206 0 4-1.794 4-4v-158c0-2.206-1.794-4-4-4z" fill="#3762cc"/><path d="m233.002 191.434h-210c-2.757 0-5-2.243-5-5v-140c0-2.757 2.243-5 5-5h210c2.757 0 5 2.243 5 5v140c0 2.756-2.243 5-5 5zm-210-146c-.552 0-1 .448-1 1v140c0 .552.448 1 1 1h210c.552 0 1-.448 1-1v-140c0-.552-.448-1-1-1z" fill="#3762cc"/><path d="m180.043 82.274c-12.596 5.368-20.481 15.417-20.481 26.381v5.478 5.478c0 10.964 7.885 21.014 20.481 26.381-12.596 5.368-20.481 15.417-20.481 26.381v5.478h4.769v-4.997-.363-.117c0-9.458 7.788-18.354 19.841-22.665l2.615-.935 2.615.935c12.053 4.31 19.841 13.207 19.841 22.665v.117.363 4.997h4.769v-5.478c0-10.964-7.885-21.014-20.481-26.381 12.596-5.368 20.481-15.417 20.481-26.381v-5.478-5.478c0-10.964-7.885-21.014-20.481-26.381 12.596-5.368 20.481-15.417 20.481-26.381v-5.478h-4.769v4.997.48c0 9.458-7.788 18.354-19.841 22.664l-2.615.935-2.615-.935c-12.053-4.31-19.841-13.207-19.841-22.664v-.48-4.997h-4.769v5.478c0 10.963 7.885 21.013 20.481 26.381zm4.13 3.717 2.615-.935 2.615.935c12.053 4.31 19.841 13.206 19.841 22.664v10.955c0 9.458-7.788 18.354-19.841 22.664l-2.615.935-2.615-.935c-12.053-4.31-19.841-13.206-19.841-22.664v-10.955c0-9.458 7.788-18.354 19.841-22.664z" fill="#ffea92"/><path d="m164.402 172.949h44.77v4.901h-44.77z" fill="#f9a7a7" transform="matrix(-1 0 0 -1 373.575 350.8)"/><path d="m164.402 50.415h44.77v4.901h-44.77z" fill="#4671c6" transform="matrix(-1 0 0 -1 373.575 105.731)"/><path d="m168.453 160.696h36.668c1.159 1.56 2.091 3.203 2.774 4.901h-42.216c.684-1.699 1.615-3.342 2.774-4.901z" fill="#4671c6"/><path d="m206.715 128.837h-39.856c-.889-1.578-1.558-3.219-1.983-4.901h43.821c-.424 1.681-1.093 3.323-1.982 4.901z" fill="#4671c6"/><path d="m164.332 111.682h44.911v4.901h-44.911z" fill="#f9a7a7"/><path d="m208.698 104.33h-43.821c.425-1.682 1.094-3.323 1.983-4.901h39.856c.888 1.577 1.557 3.219 1.982 4.901z" fill="#4671c6"/><path d="m205.121 67.57h-36.668c-1.159-1.56-2.091-3.203-2.774-4.901h42.216c-.683 1.698-1.615 3.341-2.774 4.901z" fill="#f9a7a7"/><path d="m164.402 172.949h22.385v4.901h-22.385z" fill="#4671c6"/><path d="m186.787 165.597h-21.108c.683-1.699 1.615-3.342 2.774-4.901h18.334z" fill="#f9a7a7"/><path d="m186.787 128.837h-19.928c-.889-1.578-1.558-3.219-1.983-4.901h21.91v4.901z" fill="#f9a7a7"/><path d="m164.332 111.682h22.456v4.901h-22.456z" fill="#4671c6"/><path d="m186.787 104.33h-21.911c.425-1.682 1.094-3.323 1.983-4.901h19.928z" fill="#f9a7a7"/><path d="m186.787 67.57h-18.334c-1.159-1.56-2.091-3.203-2.774-4.901h21.108z" fill="#4671c6"/><path d="m164.402 50.415h22.385v4.901h-22.385z" fill="#f9a7a7"/><path d="m111.587 171.853h-8.615c-.019-.001-.037-.004-.056-.004l-.003.004h-56.671c-14.972 0-27.109 12.137-27.109 27.109v13.599 3.861 7.152h119.563v-7.152-3.861-13.599c0-14.972-12.137-27.109-27.109-27.109z" fill="#6bdddd"/><path d="m63.056 192.646-12.999-20.792h-3.815c-14.972 0-27.109 12.137-27.109 27.108v13.599 3.861 7.151h45.887v-29.585c-.77-.15-1.493-.588-1.964-1.342z" fill="#e0ebfc"/><path d="m63.056 192.646-12.999-20.792h-3.815c-2.777 0-5.456.419-7.979 1.195l14.969 50.524h11.788v-29.585c-.77-.15-1.493-.588-1.964-1.342z" fill="#e0ebfc"/><path d="m65.02 225.573h-45.887c-1.104 0-2-.896-2-2v-24.611c0-16.051 13.058-29.108 29.108-29.108h3.815c.689 0 1.33.355 1.696.939l12.999 20.792v.001c.147.235.365.383.648.438.94.182 1.619 1.005 1.619 1.963v29.586c.002 1.105-.894 2-1.998 2zm-43.887-4h41.887v-26.236c-.668-.397-1.234-.951-1.66-1.631l-12.411-19.853h-2.707c-13.845 0-25.108 11.264-25.108 25.108v22.612z" fill="#3762cc"/><path d="m65.02 225.573h-11.789c-.886 0-1.666-.583-1.918-1.432l-14.969-50.524c-.312-1.052.282-2.157 1.33-2.479 2.768-.853 5.649-1.284 8.566-1.284h3.815c.689 0 1.33.355 1.696.939l12.999 20.792v.001c.147.235.365.383.648.438.94.182 1.619 1.005 1.619 1.963v29.586c.003 1.105-.893 2-1.997 2zm-10.295-4h8.295v-26.236c-.668-.397-1.234-.951-1.66-1.631l-12.411-19.853h-2.707c-1.852 0-3.687.201-5.477.6z" fill="#3762cc"/><path d="m94.773 192.644 12.999-20.792h3.815c14.972 0 27.109 12.137 27.109 27.108v13.599 3.861 7.151h-45.887v-29.585c.77-.15 1.493-.588 1.964-1.342z" fill="#e0ebfc"/><path d="m94.773 192.644 12.999-20.792h3.815c2.777 0 5.456.419 7.979 1.195l-14.969 50.524h-11.788v-29.585c.77-.15 1.493-.588 1.964-1.342z" fill="#e0ebfc"/><g fill="#3762cc"><path d="m138.696 225.571h-45.887c-1.104 0-2-.896-2-2v-29.586c0-.958.679-1.781 1.619-1.964.284-.055.502-.202.649-.438v-.001l12.999-20.792c.366-.584 1.007-.939 1.696-.939h3.815c16.051 0 29.108 13.058 29.108 29.108v24.611c.001 1.106-.894 2.001-1.999 2.001zm-43.887-4h41.888v-22.611c0-13.845-11.264-25.108-25.108-25.108h-2.707l-12.412 19.852c-.426.681-.993 1.233-1.661 1.631z"/><path d="m104.597 225.571h-11.788c-1.104 0-2-.896-2-2v-29.586c0-.958.679-1.781 1.619-1.964.284-.055.502-.202.649-.438v-.001l12.999-20.792c.366-.584 1.007-.939 1.696-.939h3.815c2.917 0 5.799.432 8.566 1.284 1.048.322 1.642 1.428 1.33 2.479l-14.97 50.524c-.25.85-1.031 1.433-1.916 1.433zm-9.788-4h8.295l13.961-47.12c-1.79-.398-3.625-.6-5.477-.6h-2.707l-12.411 19.853c-.426.681-.993 1.233-1.661 1.631z"/><path d="m138.696 225.573h-119.563c-1.104 0-2-.896-2-2v-24.611c0-16.051 13.058-29.109 29.108-29.109h56.552c.074-.005.148-.005.247 0h8.548c16.051 0 29.108 13.059 29.108 29.109v24.611c0 1.105-.895 2-2 2zm-117.563-4h115.563v-22.611c0-13.846-11.264-25.109-25.108-25.109h-8.615c-.02 0-.039 0-.059 0h-56.673c-13.845 0-25.108 11.264-25.108 25.109z"/></g><path d="m130.877 95.384-8.687-6.254c-6.697-4.821-10.969-12.081-12.146-19.974l-.086-.013-.45-1.692c-14.969 16.395-39.624 19.549-39.624 19.549s-4.655.62-7.03.802c-15.409 1.183-26.765-1.864-35.048-6.374-.531 2.953-.824 5.987-.824 9.091v4.864c-.11-.002-.218-.016-.328-.016-8.753 0-15.848 7.031-15.848 15.706 0 8.674 7.096 15.705 15.848 15.705.575 0 1.141-.034 1.7-.093 5.361 22.774 25.961 39.745 50.575 39.745s45.215-16.97 50.575-39.745c.559.059 1.125.093 1.7.093 8.753 0 15.848-7.031 15.848-15.705.001-8.851-7.366-15.897-16.175-15.689z" fill="#f9cfcf"/><path d="m78.923 144.355c-1.498 0-2.812-.178-4.013-.542-1.993-.607-3.744-1.631-5.064-2.962-1.685-1.698-2.612-3.841-2.612-6.032 0-1.104.896-2 2-2s2 .896 2 2c0 1.146.502 2.258 1.452 3.216.855.862 2.027 1.537 3.388 1.951.818.248 1.751.369 2.85.369 1.1 0 2.032-.121 2.85-.369 1.361-.415 2.533-1.09 3.389-1.951.95-.958 1.452-2.07 1.452-3.216 0-1.104.896-2 2-2s2 .896 2 2c0 2.191-.928 4.334-2.612 6.032-1.32 1.331-3.071 2.354-5.064 2.961-1.204.366-2.516.543-4.016.543z" fill="#3762cc"/><path d="m53.232 123.646c-3.458 0-6.271-2.813-6.271-6.27v-10.451c0-3.458 2.813-6.271 6.271-6.271 3.457 0 6.27 2.813 6.27 6.271v10.451c.001 3.457-2.813 6.27-6.27 6.27z" fill="#3762cc"/><path d="m104.615 123.646c-3.458 0-6.271-2.813-6.271-6.27v-10.451c0-3.458 2.813-6.271 6.271-6.271 3.457 0 6.27 2.813 6.27 6.271v10.451c0 3.457-2.813 6.27-6.27 6.27z" fill="#3762cc"/><path d="m192.302 239.517h-57.842v-88.069h57.842c1.165 0 2.109.944 2.109 2.109v83.851c0 1.165-.944 2.109-2.109 2.109z" fill="#6bdddd"/><path d="m134.46 239.517h-9.992v-85.433c0-1.456 1.18-2.636 2.636-2.636h7.355v88.069z" fill="#4671c6"/><path d="m184.072 179.662h-39.273c-1.165 0-2.109-.944-2.109-2.109v-12.477c0-1.165.944-2.109 2.109-2.109h39.273c1.165 0 2.109.944 2.109 2.109v12.477c0 1.165-.944 2.109-2.109 2.109z" fill="#f9cfcf"/><path d="m192.302 241.518h-57.842c-1.104 0-2-.896-2-2v-88.069c0-1.104.896-2 2-2h57.842c2.266 0 4.109 1.844 4.109 4.109v83.851c0 2.265-1.844 4.109-4.109 4.109zm-55.842-4h55.842c.061 0 .109-.049.109-.109v-83.851c0-.061-.049-.109-.109-.109h-55.842z" fill="#3762cc"/><path d="m134.46 241.518h-9.992c-1.104 0-2-.896-2-2v-85.434c0-2.557 2.08-4.636 4.637-4.636h7.355c1.104 0 2 .896 2 2v88.069c0 1.105-.896 2.001-2 2.001zm-7.992-4h5.992v-84.069h-5.355c-.352 0-.637.285-.637.636z" fill="#3762cc"/><path d="m184.072 181.662h-39.273c-2.266 0-4.109-1.844-4.109-4.109v-12.478c0-2.266 1.844-4.108 4.109-4.108h39.273c2.266 0 4.109 1.843 4.109 4.108v12.478c.001 2.265-1.843 4.109-4.109 4.109zm-39.273-16.695c-.061 0-.109.049-.109.108v12.478c0 .061.049.109.109.109h39.273c.061 0 .109-.049.109-.109v-12.478c0-.06-.049-.108-.109-.108z" fill="#3762cc"/><path d="m16.653 72.992c-1.002 5.295-1.176 10.761-.434 16.203l1.241 9.102c2.594-1.837 5.763-2.93 9.195-2.93.111 0 .218.014.328.017v-4.865c0-3.103.297-6.136.829-9.087-4.625-2.517-8.288-5.487-11.159-8.44z" fill="#4671c6"/><path d="m17.459 100.297c-.271 0-.541-.055-.797-.165-.641-.279-1.091-.872-1.185-1.565l-1.24-9.103c-.761-5.575-.609-11.242.451-16.844.139-.733.674-1.328 1.389-1.543.713-.217 1.49-.015 2.01.521 3.102 3.19 6.695 5.908 10.681 8.077.757.412 1.165 1.264 1.013 2.111-.529 2.936-.798 5.873-.798 8.733v4.864c0 .54-.218 1.057-.604 1.433s-.921.599-1.448.566c-.078-.002-.155-.007-.232-.012-.006 0-.012 0-.018 0-2.929 0-5.702.886-8.065 2.559-.345.243-.75.368-1.157.368zm.602-23.219c-.44 3.956-.395 7.927.14 11.846l.837 6.144c1.871-.883 3.876-1.431 5.945-1.623v-2.925c0-2.639.21-5.334.625-8.033-2.7-1.573-5.225-3.383-7.547-5.409z" fill="#3762cc"/><path d="m129.901 51.58c-2.14-2.789-5.784-3.961-9.148-2.942l-2.654.804c-.172 5.237-2.013 10.127-5.148 13.768-1.069 1.51-2.227 2.917-3.442 4.247l.449 1.685.083-.005c1.173 7.9 5.447 15.167 12.149 19.992l8.687 6.254c.11-.003.218-.017.328-.017 2.745 0 5.326.693 7.578 1.91l1.102-8.082c1.822-13.368-1.772-26.91-9.984-37.614z" fill="#4671c6"/><path d="m138.783 99.276c-.327 0-.654-.08-.951-.24-2.021-1.092-4.312-1.669-6.627-1.669-.12.009-.197.014-.275.016-.43.029-.866-.12-1.222-.376l-8.688-6.254c-6.813-4.906-11.481-12.447-12.869-20.758-.053-.107-.096-.221-.127-.339l-.448-1.686c-.175-.658-.003-1.359.456-1.862 1.246-1.364 2.32-2.69 3.285-4.054.037-.052.076-.102.117-.15 2.852-3.311 4.509-7.76 4.665-12.527.028-.856.599-1.6 1.419-1.849l2.654-.805c4.137-1.251 8.685.208 11.315 3.64 8.477 11.049 12.26 25.301 10.378 39.102l-1.102 8.082c-.089.65-.49 1.216-1.076 1.513-.283.144-.593.216-.904.216zm-7.281-5.906c1.932.031 3.847.376 5.657 1.01l.744-5.456c1.738-12.75-1.757-25.918-9.589-36.126 0-.001 0-.001 0-.001-1.623-2.116-4.43-3.019-6.982-2.245l-1.321.401c-.448 5.098-2.368 9.84-5.482 13.489-.851 1.196-1.775 2.363-2.81 3.544l.04.149c.132.213.223.451.261.708 1.109 7.471 5.242 14.273 11.339 18.663z" fill="#3762cc"/><path d="m78.93 168.43c-24.634 0-45.823-16.221-52.11-39.652-.055.001-.11.001-.165.001-9.842 0-17.849-7.943-17.849-17.706 0-9.204 7.115-16.79 16.177-17.628v-2.925c0-3.11.288-6.288.855-9.445.114-.632.524-1.171 1.104-1.449.58-.277 1.258-.26 1.821.047 9.334 5.085 20.75 7.147 33.937 6.137 2.293-.176 6.874-.785 6.921-.791.248-.032 24.13-3.273 38.408-18.916.493-.54 1.239-.77 1.953-.594.71.174 1.27.722 1.457 1.429l.327 1.23c.129.211.219.445.256.693 1.112 7.464 5.244 14.261 11.336 18.646l8.159 5.874c4.594.063 8.907 1.854 12.214 5.083 3.432 3.352 5.322 7.83 5.322 12.608 0 9.763-8.007 17.706-17.849 17.706-.055 0-.109 0-.165-.001-6.286 23.432-27.476 39.653-52.109 39.653zm-50.574-43.745c.917 0 1.73.631 1.945 1.542 5.294 22.493 25.29 38.203 48.628 38.203s43.334-15.71 48.628-38.203c.231-.981 1.176-1.64 2.159-1.53.521.055 1.008.082 1.488.082 7.636 0 13.849-6.148 13.849-13.706 0-3.692-1.462-7.154-4.117-9.747-2.694-2.631-6.234-4.017-10.013-3.942-.418.034-.862-.122-1.216-.376l-8.688-6.254c-6.426-4.627-10.943-11.597-12.6-19.347-15.313 14.487-37.3 17.451-38.28 17.576-.183.024-4.728.629-7.132.813-12.821.984-24.12-.809-33.642-5.331-.254 2.031-.383 4.059-.383 6.054v4.864c0 .54-.218 1.057-.604 1.433s-.921.599-1.448.566c-.078-.002-.155-.007-.232-.012-.002 0-.005 0-.007 0-7.677 0-13.885 6.146-13.885 13.701 0 7.558 6.213 13.706 13.849 13.706.48 0 .967-.027 1.488-.082.072-.007.142-.01.213-.01z" fill="#3762cc"/><path d="m55.207 164.963 23.704 9.293 23.704-9.293c.134-.052.27-.082.406-.112v-4.299c-7.203 3.749-15.398 5.878-24.1 5.878-8.713 0-16.917-2.135-24.126-5.892v4.312c.138.029.276.059.412.113z" fill="#f9cfcf"/><path d="m51.704 166.636-1.648 5.217 12.999 20.793c1.195 1.912 3.993 1.871 5.133-.074l10.726-18.315-23.708-9.294c-1.431-.561-3.039.206-3.502 1.673z" fill="#6bdddd"/><path d="m106.118 166.636 1.648 5.217-12.999 20.793c-1.195 1.912-3.993 1.871-5.133-.074l-10.726-18.315 23.708-9.294c1.431-.561 3.039.206 3.502 1.673z" fill="#6bdddd"/><path d="m65.597 196.056c-1.735 0-3.314-.875-4.237-2.35l-13-20.793c-.31-.497-.387-1.104-.211-1.663l1.647-5.217c.387-1.225 1.273-2.245 2.434-2.799 1.158-.553 2.511-.601 3.707-.134l23.706 9.294c.545.214.969.654 1.16 1.207s.132 1.161-.164 1.666l-10.726 18.314c-.892 1.523-2.479 2.447-4.243 2.473-.024.001-.049.002-.073.002zm-13.355-24.481 12.51 20.01c.269.431.685.508.861.47.17-.002.592-.055.85-.494l9.543-16.296-21.528-8.439c-.231-.093-.428-.027-.523.019s-.269.158-.343.395zm-.538-4.939h.01z" fill="#3762cc"/><path d="m92.226 196.056c-.025 0-.05-.001-.074-.001-1.765-.025-3.352-.949-4.243-2.473l-10.726-18.314c-.296-.505-.355-1.113-.164-1.666s.615-.993 1.16-1.207l23.707-9.294c1.195-.467 2.547-.419 3.706.134 1.16.554 2.047 1.574 2.434 2.799l1.647 5.217c.176.559.099 1.166-.211 1.663l-12.999 20.793c-.923 1.474-2.502 2.349-4.237 2.349zm-10.41-20.791 9.543 16.296c.258.439.68.492.85.494.162.045.593-.04.861-.47l12.51-20.01-1.369-4.337c-.074-.236-.247-.349-.343-.395-.097-.046-.293-.111-.522-.019z" fill="#3762cc"/><path d="m78.911 176.255c-.248 0-.495-.046-.729-.138l-23.813-9.314c-.917-.201-1.574-1.015-1.574-1.954v-4.312c0-.699.365-1.348.963-1.71.599-.363 1.34-.387 1.962-.063 7.11 3.707 15.134 5.666 23.201 5.666 8.172 0 15.97-1.901 23.178-5.652.618-.321 1.362-.297 1.961.064.597.363.962 1.011.962 1.71v4.299c0 .937-.65 1.748-1.564 1.952l-.143.033-23.674 9.281c-.235.092-.482.138-.73.138zm-14.226-9.725 14.227 5.576 14.182-5.559c-9.236 2.492-19.179 2.484-28.409-.017z" fill="#3762cc"/><path d="m110.966 31.537c-5.952-5.464-11.962-9.23-17.931-11.63h.003c-15.733-6.47-36.773-3.865-50.891 4.692l.021-.002c-16.908 9.546-28.697 25.565-32.576 31.329-.271.33-1.246 1.702-1.389 2.146-.326 1.016-.269 2.178.213 3.198 3.577 7.571 17.198 29.392 54.438 26.532 2.375-.182 7.03-.802 7.03-.802s28.828-3.67 43.066-23.79c3.471-4.032 5.377-9.591 5.162-15.462-.229-6.255-2.805-12.226-7.146-16.211z" fill="#4671c6"/><path d="m56.365 90.058c-33.793 0-46.537-21.117-49.758-27.933-.683-1.447-.796-3.146-.309-4.664.271-.845 1.363-2.305 1.666-2.699 4.313-6.4 16.078-22.163 33.037-31.804.035-.024.071-.048.108-.07 15.337-9.295 37.003-11.282 52.688-4.831.016.007.032.014.048.021 6.416 2.591 12.631 6.623 18.473 11.986 4.699 4.313 7.539 10.732 7.792 17.611.229 6.232-1.805 12.338-5.582 16.767-14.594 20.535-43.179 24.388-44.39 24.542-.182.023-4.727.628-7.131.813-2.299.177-4.513.261-6.642.261zm-46.277-31.311c-.157.546-.108 1.15.137 1.669 2.958 6.259 14.699 25.637 46.182 25.64 2.018 0 4.111-.079 6.294-.247 2.294-.177 6.874-.785 6.921-.791.29-.037 28.147-3.817 41.697-22.963.037-.052.076-.102.117-.149 3.167-3.68 4.872-8.813 4.678-14.084-.213-5.817-2.582-11.216-6.499-14.811-5.506-5.055-11.335-8.84-17.325-11.249-.025-.01-.05-.021-.074-.031-14.521-5.942-34.565-4.104-48.852 4.47-.067.05-.137.096-.211.137-16.357 9.235-27.759 24.55-31.901 30.705-.034.052-.071.101-.11.148-.239.29-.885 1.228-1.054 1.556z" fill="#3762cc"/></svg>