<svg id="Layer_1" enable-background="new 0 0 256 256" height="512" viewBox="0 0 256 256" width="512" xmlns="http://www.w3.org/2000/svg"><path d="m120.964 168.281h-108.235c-2.599 0-4.706-2.107-4.706-4.706v-139.528c0-2.599 2.107-4.706 4.706-4.706h99.823c4.645 0 8.411 3.766 8.411 8.411v140.529z" fill="#4671c6"/><path d="m120.964 168.281h108.234c2.599 0 4.706-2.107 4.706-4.706v-139.528c0-2.599-2.107-4.706-4.706-4.706h-99.823c-4.645 0-8.411 3.766-8.411 8.411z" fill="#4671c6"/><path d="m120.964 170.281h-108.235c-3.697 0-6.706-3.008-6.706-6.706v-139.528c0-3.698 3.009-6.706 6.706-6.706h99.823c5.74 0 10.411 4.67 10.411 10.411v140.529c.001 1.104-.895 2-1.999 2zm-108.235-148.94c-1.492 0-2.706 1.214-2.706 2.706v139.528c0 1.492 1.214 2.706 2.706 2.706h106.234v-138.529c0-3.535-2.876-6.411-6.411-6.411z" fill="#3762cc"/><path d="m229.198 170.281h-108.234c-1.104 0-2-.896-2-2v-140.529c0-5.741 4.671-10.411 10.411-10.411h99.823c3.697 0 6.706 3.008 6.706 6.706v139.528c0 3.697-3.008 6.706-6.706 6.706zm-106.234-4h106.234c1.492 0 2.706-1.214 2.706-2.706v-139.528c0-1.492-1.214-2.706-2.706-2.706h-99.823c-3.535 0-6.411 2.876-6.411 6.411z" fill="#3762cc"/><path d="m215.08 11.576v7.765h-94.117-94.116v-7.765c-7.216.784-7.631 7.765-7.631 7.765v141.175h101.748 101.748v-141.175s-.416-6.98-7.632-7.765z" fill="#a4c9ff"/><path d="m222.712 162.516h-203.496c-1.104 0-2-.896-2-2v-141.175c0-.04.001-.079.004-.119.178-2.998 2.374-8.869 9.411-9.634.555-.063 1.128.12 1.552.5.423.379.664.921.664 1.489v5.765h184.233v-5.765c0-.568.241-1.109.664-1.489s.988-.563 1.552-.5c7.037.765 9.233 6.636 9.412 9.634.003.04.004.08.004.119v141.175c0 1.105-.896 2-2 2zm-201.496-4h199.496v-139.1c-.052-.59-.478-3.877-3.632-5.277v5.202c0 1.104-.896 2-2 2h-188.233c-1.104 0-2-.896-2-2v-5.201c-3.204 1.424-3.592 4.799-3.631 5.271z" fill="#3762cc"/><path d="m120.964 160.516h-94.117v-148.94h86.383c4.271 0 7.734 3.462 7.734 7.734z" fill="#e0ebfc"/><path d="m120.964 160.516h94.117v-148.94h-86.383c-4.271 0-7.734 3.462-7.734 7.734z" fill="#e0ebfc"/><g fill="#b9befc"><path d="m202.688 39.208h-66.823c-1.819 0-3.294-1.475-3.294-3.294 0-1.819 1.475-3.294 3.294-3.294h66.823c1.819 0 3.294 1.475 3.294 3.294.001 1.819-1.474 3.294-3.294 3.294z"/><path d="m202.688 58.032h-66.823c-1.819 0-3.294-1.475-3.294-3.294 0-1.819 1.475-3.294 3.294-3.294h66.823c1.819 0 3.294 1.475 3.294 3.294.001 1.819-1.474 3.294-3.294 3.294z"/><path d="m202.688 76.855h-66.823c-1.819 0-3.294-1.475-3.294-3.294 0-1.819 1.475-3.294 3.294-3.294h66.823c1.819 0 3.294 1.475 3.294 3.294.001 1.819-1.474 3.294-3.294 3.294z"/><path d="m202.688 95.678h-66.823c-1.819 0-3.294-1.475-3.294-3.294 0-1.819 1.475-3.294 3.294-3.294h66.823c1.819 0 3.294 1.475 3.294 3.294.001 1.819-1.474 3.294-3.294 3.294z"/><path d="m202.688 114.502h-66.823c-1.819 0-3.294-1.475-3.294-3.294 0-1.819 1.475-3.294 3.294-3.294h66.823c1.819 0 3.294 1.475 3.294 3.294.001 1.819-1.474 3.294-3.294 3.294z"/><path d="m202.688 133.325h-66.823c-1.819 0-3.294-1.475-3.294-3.294 0-1.819 1.475-3.294 3.294-3.294h66.823c1.819 0 3.294 1.475 3.294 3.294.001 1.819-1.474 3.294-3.294 3.294z"/><path d="m107.317 39.208h-66.823c-1.819 0-3.294-1.475-3.294-3.294 0-1.819 1.475-3.294 3.294-3.294h66.823c1.819 0 3.294 1.475 3.294 3.294 0 1.819-1.475 3.294-3.294 3.294z"/><path d="m107.317 58.032h-66.823c-1.819 0-3.294-1.475-3.294-3.294 0-1.819 1.475-3.294 3.294-3.294h66.823c1.819 0 3.294 1.475 3.294 3.294 0 1.819-1.475 3.294-3.294 3.294z"/><path d="m107.317 76.855h-66.823c-1.819 0-3.294-1.475-3.294-3.294 0-1.819 1.475-3.294 3.294-3.294h66.823c1.819 0 3.294 1.475 3.294 3.294 0 1.819-1.475 3.294-3.294 3.294z"/><path d="m107.317 95.678h-66.823c-1.819 0-3.294-1.475-3.294-3.294 0-1.819 1.475-3.294 3.294-3.294h66.823c1.819 0 3.294 1.475 3.294 3.294 0 1.819-1.475 3.294-3.294 3.294z"/><path d="m108.729 133.325h-69.647c-1.04 0-1.882-.843-1.882-1.882v-21.647c0-1.04.843-1.882 1.882-1.882h69.646c1.04 0 1.882.843 1.882 1.882v21.647c.001 1.039-.842 1.882-1.881 1.882z"/></g><path d="m120.964 162.516h-94.117c-1.104 0-2-.896-2-2v-148.94c0-1.104.896-2 2-2h86.384c5.367 0 9.733 4.367 9.733 9.734v141.206c0 1.105-.896 2-2 2zm-92.117-4h90.117v-139.206c0-3.162-2.572-5.734-5.733-5.734h-84.384z" fill="#3762cc"/><path d="m215.08 162.516h-94.116c-1.104 0-2-.896-2-2v-141.206c0-5.367 4.366-9.734 9.733-9.734h86.383c1.104 0 2 .896 2 2v148.94c0 1.105-.895 2-2 2zm-92.116-4h90.116v-144.94h-84.383c-3.161 0-5.733 2.572-5.733 5.734z" fill="#3762cc"/><path d="m113.333 152.752h-86.486c-7.216.784-7.631 7.765-7.631 7.765h7.631 94.117c0-.001-.416-6.981-7.631-7.765z" fill="#a4c9ff"/><path d="m215.08 152.752h-86.486c-7.216.784-7.631 7.765-7.631 7.765h94.117 7.631c.001-.001-.415-6.981-7.631-7.765z" fill="#a4c9ff"/><path d="m120.964 162.516h-101.748c-.551 0-1.078-.228-1.456-.628-.377-.401-.573-.94-.54-1.49.178-2.998 2.374-8.87 9.411-9.634.071-.008.144-.012.216-.012h86.486c.072 0 .145.004.216.012 7.036.765 9.232 6.636 9.411 9.634.033.55-.162 1.089-.54 1.491-.378.4-.905.627-1.456.627zm-99.212-4h96.676c-.651-1.536-2.082-3.389-5.209-3.765h-86.258c-3.126.376-4.556 2.227-5.209 3.765z" fill="#3762cc"/><path d="m222.712 162.516h-101.748c-.551 0-1.078-.228-1.456-.628-.377-.401-.573-.94-.54-1.49.178-2.998 2.374-8.87 9.411-9.634.071-.008.144-.012.216-.012h86.485c.072 0 .145.004.216.012 7.037.765 9.233 6.636 9.412 9.634.033.55-.162 1.089-.54 1.491-.378.4-.905.627-1.456.627zm-99.212-4h96.676c-.652-1.536-2.082-3.389-5.21-3.765h-86.257c-3.126.376-4.556 2.227-5.209 3.765z" fill="#3762cc"/><path d="m245.68 244.424h-112.783c-2.718 0-4.921-2.203-4.921-4.921v-9.933c0-2.718 2.203-4.921 4.921-4.921h115.079v17.478c0 1.268-1.028 2.297-2.296 2.297z" fill="#4671c6"/><path d="m245.68 246.424h-112.783c-3.816 0-6.921-3.104-6.921-6.921v-9.933c0-3.816 3.104-6.921 6.921-6.921h115.079c1.104 0 2 .896 2 2v17.479c.001 2.369-1.927 4.296-4.296 4.296zm-112.783-19.775c-1.61 0-2.921 1.311-2.921 2.921v9.933c0 1.61 1.311 2.921 2.921 2.921h112.783c.164 0 .297-.133.297-.296v-15.479z" fill="#3762cc"/><path d="m135.295 238.292h107.538v-10.286h-107.538c-1.202 0-2.176.974-2.176 2.176v5.934c0 1.201.975 2.176 2.176 2.176z" fill="#e0ebfc"/><path d="m242.834 240.292h-107.538c-2.303 0-4.177-1.874-4.177-4.176v-5.934c0-2.303 1.874-4.176 4.177-4.176h107.538c1.104 0 2 .896 2 2v10.286c0 1.104-.896 2-2 2zm-107.538-10.286c-.098 0-.177.079-.177.176v5.934c0 .097.079.176.177.176h105.538v-6.286z" fill="#3762cc"/><path d="m244.548 231.326h-99.429v-135.643h99.429c1.894 0 3.429 1.535 3.429 3.429v128.786c-.001 1.893-1.536 3.428-3.429 3.428z" fill="#6bdddd"/><path d="m145.119 231.326h-17.143v-131.357c0-2.367 1.919-4.286 4.286-4.286h12.857z" fill="#4671c6"/><path d="m230.428 139.138h-67.761c-1.894 0-3.429-1.535-3.429-3.429v-18.857c0-1.894 1.535-3.429 3.429-3.429h67.761c1.894 0 3.429 1.535 3.429 3.429v18.857c0 1.894-1.535 3.429-3.429 3.429z" fill="#f9cfcf"/><path d="m244.548 233.326h-99.429c-1.104 0-2-.896-2-2v-135.643c0-1.104.896-2 2-2h99.429c2.993 0 5.429 2.435 5.429 5.429v128.786c0 2.993-2.436 5.428-5.429 5.428zm-97.429-4h97.429c.788 0 1.429-.641 1.429-1.429v-128.785c0-.788-.641-1.429-1.429-1.429h-97.429z" fill="#3762cc"/><path d="m145.119 233.326h-17.143c-1.104 0-2-.896-2-2v-131.357c0-3.466 2.819-6.286 6.285-6.286h12.857c1.104 0 2 .896 2 2v135.643c.001 1.105-.894 2-1.999 2zm-15.142-4h13.143v-131.643h-10.857c-1.26 0-2.285 1.025-2.285 2.286v129.357z" fill="#3762cc"/><path d="m230.428 141.138h-67.76c-2.993 0-5.429-2.435-5.429-5.428v-18.857c0-2.993 2.436-5.428 5.429-5.428h67.76c2.993 0 5.429 2.435 5.429 5.428v18.857c-.001 2.993-2.436 5.428-5.429 5.428zm-67.76-25.714c-.788 0-1.429.641-1.429 1.428v18.857c0 .788.641 1.428 1.429 1.428h67.76c.788 0 1.429-.641 1.429-1.428v-18.857c0-.788-.641-1.428-1.429-1.428z" fill="#3762cc"/></svg>