<svg id="Layer_1" enable-background="new 0 0 256 256" height="512" viewBox="0 0 256 256" width="512" xmlns="http://www.w3.org/2000/svg"><path d="m209.057 235.13h-75.374c-8.326 0-15.075-6.749-15.075-15.075v-106.78c0-1.041.844-1.884 1.884-1.884h101.755c1.041 0 1.884.844 1.884 1.884v106.78c.001 8.325-6.749 15.075-15.074 15.075z" fill="#a4c9ff"/><path d="m231.041 142.888h-6.909v11.307h6.909c3.117 0 5.653 2.536 5.653 5.653v26.066c0 3.117-2.536 5.653-5.653 5.653h-6.909v11.307h6.909c9.366 0 16.959-7.593 16.959-16.959v-26.067c0-9.367-7.593-16.96-16.959-16.96z" fill="#a4c9ff"/><path d="m209.057 237.13h-75.374c-9.416 0-17.075-7.66-17.075-17.075v-106.78c0-2.142 1.743-3.884 3.885-3.884h101.755c2.142 0 3.885 1.742 3.885 3.884v106.78c-.001 9.415-7.661 17.075-17.076 17.075zm-88.45-123.739v106.664c0 7.21 5.866 13.075 13.075 13.075h75.374c7.21 0 13.075-5.865 13.075-13.075v-106.664z" fill="#3762cc"/><path d="m231.041 204.874h-6.909c-1.104 0-2-.896-2-2v-11.307c0-1.104.896-2 2-2h6.909c2.014 0 3.652-1.639 3.652-3.653v-26.066c0-2.015-1.639-3.653-3.652-3.653h-6.909c-1.104 0-2-.896-2-2v-11.307c0-1.104.896-2 2-2h6.909c10.454 0 18.959 8.506 18.959 18.96v26.066c0 10.454-8.505 18.96-18.959 18.96zm-4.909-4h4.909c8.248 0 14.959-6.711 14.959-14.96v-26.066c0-8.249-6.711-14.96-14.959-14.96h-4.909v7.307h4.909c4.22 0 7.652 3.434 7.652 7.653v26.066c0 4.22-3.433 7.653-7.652 7.653h-4.909z" fill="#3762cc"/><path d="m158.385 104.42c-1.681 0-3.043-1.362-3.043-3.043 0-5.653 2.686-8.62 4.845-11.003 1.898-2.096 3.27-3.61 3.27-6.918 0-7.216-8.114-7.695-8.114-17.92 0-5.653 2.686-8.619 4.845-11.002 1.899-2.096 3.27-3.61 3.27-6.916 0-1.681 1.362-3.043 3.043-3.043s3.043 1.362 3.043 3.043c0 5.652-2.686 8.618-4.845 11.001-1.898 2.096-3.27 3.61-3.27 6.917 0 7.172 8.114 7.728 8.114 17.92 0 5.653-2.686 8.62-4.845 11.003-1.898 2.096-3.27 3.61-3.27 6.918 0 1.681-1.362 3.043-3.043 3.043z" fill="#e0ebfc"/><path d="m175.628 101.377c0-5.653 2.686-8.62 4.845-11.003 1.898-2.096 3.27-3.61 3.27-6.918 0-3.306-1.372-4.821-3.27-6.917-2.158-2.383-4.845-5.35-4.845-11.003 0-10.202 8.114-10.738 8.114-17.918 0-1.681 1.362-3.043 3.043-3.043s3.043 1.362 3.043 3.043c0 5.652-2.686 8.618-4.845 11.001-1.898 2.096-3.27 3.61-3.27 6.917s1.372 4.822 3.27 6.918c2.158 2.383 4.845 5.349 4.845 11.002s-2.686 8.62-4.845 11.003c-1.898 2.096-3.27 3.61-3.27 6.918.001 4.021-6.085 4.026-6.085 0z" fill="#e0ebfc"/><path d="m168.597 235.108h-151.13c-5.228 0-9.467-4.238-9.467-9.467h170.063c0 5.228-4.238 9.467-9.466 9.467z" fill="#e0ebfc"/><path d="m161.496 225.641h-136.929c-3.361 0-6.086-2.725-6.086-6.086v-6.762c0-3.361 2.725-6.086 6.086-6.086h136.93c3.361 0 6.086 2.725 6.086 6.086v6.762c-.001 3.361-2.725 6.086-6.087 6.086z" fill="#eaa97d"/><path d="m161.496 206.707h-136.929c-3.361 0-6.086-2.725-6.086-6.086v-6.762c0-3.361 2.725-6.086 6.086-6.086h136.93c3.361 0 6.086 2.725 6.086 6.086v6.762c-.001 3.362-2.725 6.086-6.087 6.086z" fill="#eaa97d"/><path d="m161.496 187.774h-136.929c-3.361 0-6.086-2.725-6.086-6.086v-6.762c0-3.361 2.725-6.086 6.086-6.086h136.93c3.361 0 6.086 2.725 6.086 6.086v6.762c-.001 3.361-2.725 6.086-6.087 6.086z" fill="#eaa97d"/><g fill="#3762cc"><path d="m168.597 237.107h-151.13c-6.323 0-11.467-5.143-11.467-11.466 0-1.104.896-2 2-2h170.063c1.104 0 2 .896 2 2 0 6.323-5.143 11.466-11.466 11.466zm-158.325-9.466c.876 3.149 3.77 5.467 7.195 5.467h151.13c3.425 0 6.318-2.317 7.194-5.467z"/><path d="m161.496 227.641h-136.929c-4.458 0-8.086-3.627-8.086-8.086v-6.762c0-4.459 3.627-8.086 8.086-8.086h136.929c4.459 0 8.086 3.627 8.086 8.086v6.762c0 4.459-3.627 8.086-8.086 8.086zm-136.929-18.934c-2.253 0-4.086 1.833-4.086 4.086v6.762c0 2.253 1.833 4.086 4.086 4.086h136.929c2.253 0 4.086-1.833 4.086-4.086v-6.762c0-2.253-1.833-4.086-4.086-4.086z"/><path d="m161.496 208.707h-136.929c-4.458 0-8.086-3.627-8.086-8.085v-6.763c0-4.458 3.627-8.085 8.086-8.085h136.929c4.459 0 8.086 3.627 8.086 8.085v6.763c0 4.458-3.627 8.085-8.086 8.085zm-136.929-18.933c-2.253 0-4.086 1.832-4.086 4.085v6.763c0 2.253 1.833 4.085 4.086 4.085h136.929c2.253 0 4.086-1.832 4.086-4.085v-6.763c0-2.253-1.833-4.085-4.086-4.085z"/><path d="m161.496 189.774h-136.929c-4.458 0-8.086-3.627-8.086-8.086v-6.763c0-4.458 3.627-8.085 8.086-8.085h136.929c4.459 0 8.086 3.627 8.086 8.085v6.763c0 4.459-3.627 8.086-8.086 8.086zm-136.929-18.933c-2.253 0-4.086 1.832-4.086 4.085v6.763c0 2.253 1.833 4.086 4.086 4.086h136.929c2.253 0 4.086-1.833 4.086-4.086v-6.763c0-2.253-1.833-4.085-4.086-4.085z"/></g><path d="m165.892 160.827h-145.72c-2.801 0-5.071 2.271-5.071 5.071v6.413c0 1.681 1.362 3.043 3.043 3.043h112.925v7.977c0 4.258 3.281 7.971 7.537 8.099 4.404.132 8.016-3.399 8.016-7.772v-3.908c0-2.427 1.968-4.395 4.395-4.395 2.427 0 4.395 1.968 4.395 4.395v12.531c0 4.258 3.281 7.971 7.537 8.099 4.404.132 8.016-3.399 8.016-7.772v-17.252-9.456c-.002-2.803-2.272-5.073-5.073-5.073z" fill="#ffea92"/><path d="m111.289 160.827h-36.515v-7.162c0-1.889 1.531-3.42 3.42-3.42h29.675c1.889 0 3.42 1.531 3.42 3.42z" fill="#ffea92"/><path d="m163.191 202.383c-.101 0-.202-.002-.305-.005-5.226-.157-9.477-4.687-9.477-10.098v-12.531c0-1.32-1.074-2.395-2.395-2.395s-2.396 1.074-2.396 2.395v3.909c0 2.667-1.054 5.158-2.968 7.016s-4.469 2.851-7.107 2.756c-5.227-.157-9.478-4.688-9.478-10.099v-5.977h-110.922c-2.781 0-5.043-2.263-5.043-5.043v-6.413c0-3.899 3.172-7.071 7.071-7.071h145.72c3.899 0 7.071 3.172 7.071 7.071v26.708c0 2.667-1.055 5.159-2.969 7.017-1.84 1.786-4.245 2.76-6.802 2.76zm-12.175-29.029c3.526 0 6.395 2.868 6.395 6.395v12.531c0 3.271 2.511 6.007 5.598 6.1 1.57.061 3.07-.53 4.2-1.627 1.132-1.098 1.755-2.57 1.755-4.146v-26.708c0-1.693-1.378-3.071-3.071-3.071h-145.722c-1.693 0-3.071 1.378-3.071 3.071v6.413c0 .575.468 1.043 1.043 1.043h112.924c1.104 0 2 .896 2 2v7.977c0 3.271 2.511 6.008 5.598 6.101 1.566.035 3.07-.53 4.201-1.628s1.754-2.57 1.754-4.146v-3.909c0-3.527 2.869-6.396 6.396-6.396z" fill="#3762cc"/><path d="m111.289 162.827h-36.515c-1.104 0-2-.896-2-2v-7.162c0-2.988 2.431-5.42 5.42-5.42h29.675c2.989 0 5.42 2.432 5.42 5.42v7.162c0 1.105-.895 2-2 2zm-34.515-4h32.515v-5.162c0-.783-.637-1.42-1.42-1.42h-29.675c-.783 0-1.42.637-1.42 1.42z" fill="#3762cc"/><circle cx="63.521" cy="69.291" fill="#6bdddd" r="48.421"/><circle cx="63.521" cy="69.291" fill="#e0ebfc" r="35.451"/><path d="m63.596 73.155c-1.486 0-2.69-1.204-2.69-2.69v-26.053c0-1.486 1.204-2.69 2.69-2.69s2.69 1.204 2.69 2.69v26.053c0 1.486-1.205 2.69-2.69 2.69z" fill="#4671c6"/><path d="m43.271 87.24 18.422-18.422c1.05-1.05 2.754-1.051 3.804 0 1.051 1.051 1.05 2.754 0 3.804l-18.421 18.423c-1.05 1.05-2.754 1.051-3.804 0-1.051-1.051-1.051-2.754-.001-3.805z" fill="#f9a7a7"/><path d="m63.521 119.711c-27.802 0-50.42-22.618-50.42-50.42s22.618-50.421 50.42-50.421 50.42 22.619 50.42 50.421-22.619 50.42-50.42 50.42zm0-96.841c-25.596 0-46.42 20.824-46.42 46.421 0 25.596 20.824 46.42 46.42 46.42s46.42-20.824 46.42-46.42c0-25.597-20.824-46.421-46.42-46.421z" fill="#3762cc"/><path d="m63.521 106.741c-20.65 0-37.451-16.8-37.451-37.45s16.8-37.451 37.451-37.451 37.451 16.801 37.451 37.451-16.801 37.45-37.451 37.45zm0-70.901c-18.445 0-33.451 15.006-33.451 33.451 0 18.444 15.006 33.45 33.451 33.45s33.451-15.006 33.451-33.45c-.001-18.445-15.007-33.451-33.451-33.451z" fill="#3762cc"/></svg>