<svg id="Layer_1" enable-background="new 0 0 256 256" height="512" viewBox="0 0 256 256" width="512" xmlns="http://www.w3.org/2000/svg"><path d="m242.18 131.274-110.781 19.106c-2.249.388-4.549.388-6.798 0l-110.781-19.106c-.914-.158-1.705-.624-2.289-1.274v84.45c0 4.787 3.881 8.667 8.667 8.667h215.602c4.787 0 8.667-3.881 8.667-8.667v-84.45c-.582.65-1.373 1.116-2.287 1.274z" fill="#a4c9ff"/><path d="m235.801 225.118h-215.602c-5.882 0-10.667-4.786-10.667-10.667v-84.451c0-.829.511-1.571 1.285-1.868s1.649-.085 2.204.532c.214.239.586.543 1.14.639l110.781 19.106c2.029.35 4.088.35 6.118 0l110.781-19.105c.554-.096.926-.4 1.14-.639.554-.617 1.43-.829 2.204-.532.774.296 1.285 1.039 1.285 1.868v84.45c-.002 5.881-4.787 10.667-10.669 10.667zm-222.269-91.864v81.196c0 3.676 2.991 6.667 6.667 6.667h215.602c3.676 0 6.667-2.991 6.667-6.667v-81.196l-110.729 19.097c-2.48.428-4.996.428-7.478 0z" fill="#3762cc"/><path d="m17.5 67.813c-3.866 0-7 3.134-7 7v52.519c0 1.947 1.402 3.611 3.32 3.942l110.781 19.106c2.249.388 4.549.388 6.798 0l110.781-19.106c1.919-.331 3.32-1.995 3.32-3.942v-52.519c0-3.866-3.134-7-7-7-5.286 0-224.706 0-221 0z" fill="#4671c6"/><path d="m79.529 67.813 3.353-19.931h90.541l3.354 19.931h15.763l-6.005-28.576c-.773-3.682-4.066-6.355-7.829-6.355h-101.106c-3.763 0-7.055 2.673-7.829 6.355l-6.005 28.576z" fill="#e0ebfc"/><path d="m128 152.671c-1.249 0-2.498-.107-3.739-.32l-110.781-19.106c-2.886-.498-4.98-2.984-4.98-5.913v-52.52c0-4.933 3.99-8.952 8.912-9h.042 221.046c4.962 0 9 4.038 9 9v52.52c0 2.928-2.094 5.415-4.98 5.913l-110.781 19.105c-1.24.214-2.49.321-3.739.321zm-110.5-82.858c-2.757 0-5 2.243-5 5v52.52c0 .976.698 1.805 1.66 1.971l110.781 19.105c2.029.35 4.088.35 6.118 0l110.781-19.105c.962-.166 1.66-.995 1.66-1.971v-52.52c0-2.757-2.243-5-5-5z" fill="#3762cc"/><path d="m192.54 69.813h-15.763c-.977 0-1.81-.705-1.972-1.668l-3.073-18.263h-87.159l-3.072 18.263c-.162.963-.996 1.668-1.972 1.668h-15.763c-.603 0-1.173-.271-1.553-.74-.38-.468-.528-1.082-.404-1.671l6.005-28.576c.967-4.603 5.082-7.943 9.786-7.943h101.106c4.704 0 8.819 3.341 9.786 7.944l6.004 28.576c.124.589-.024 1.204-.404 1.671-.38.468-.95.739-1.552.739zm-14.072-4h11.607l-5.498-26.165c-.58-2.762-3.049-4.766-5.872-4.766h-101.105c-2.822 0-5.292 2.004-5.871 4.766l-5.499 26.165h11.607l3.072-18.263c.162-.963.996-1.668 1.972-1.668h90.542c.977 0 1.81.705 1.972 1.668z" fill="#3762cc"/><path d="m49.017 172.075h-8.667c-3.59 0-6.501-2.91-6.501-6.501v-45.504c0-1.197.97-2.167 2.167-2.167h17.335c1.197 0 2.167.97 2.167 2.167v45.504c0 3.591-2.911 6.501-6.501 6.501z" fill="#f9cfcf"/><path d="m215.65 172.075h-8.667c-3.59 0-6.501-2.91-6.501-6.501v-45.504c0-1.197.97-2.167 2.167-2.167h17.335c1.197 0 2.167.97 2.167 2.167v45.504c0 3.591-2.911 6.501-6.501 6.501z" fill="#f9cfcf"/><path d="m49.017 174.075h-8.667c-4.687 0-8.5-3.813-8.5-8.5v-45.504c0-2.298 1.869-4.167 4.167-4.167h17.335c2.297 0 4.167 1.869 4.167 4.167v45.504c-.001 4.687-3.815 8.5-8.502 8.5zm-13.001-54.171c-.092 0-.167.075-.167.167v45.504c0 2.481 2.019 4.5 4.5 4.5h8.667c2.481 0 4.5-2.019 4.5-4.5v-45.504c0-.092-.075-.167-.167-.167z" fill="#3762cc"/><path d="m215.65 174.075h-8.667c-4.687 0-8.5-3.813-8.5-8.5v-45.504c0-2.298 1.869-4.167 4.167-4.167h17.335c2.298 0 4.167 1.869 4.167 4.167v45.504c-.001 4.687-3.815 8.5-8.502 8.5zm-13.001-54.171c-.092 0-.167.075-.167.167v45.504c0 2.481 2.019 4.5 4.5 4.5h8.667c2.481 0 4.5-2.019 4.5-4.5v-45.504c0-.092-.075-.167-.167-.167z" fill="#3762cc"/><path d="m58.003 146.798h-26.854c-1.56 0-2.825-1.265-2.825-2.825v-12.351c0-1.56 1.265-2.825 2.825-2.825h26.854c1.56 0 2.825 1.265 2.825 2.825v12.351c0 1.56-1.265 2.825-2.825 2.825z" fill="#e0ebfc"/><path d="m224.851 146.798h-26.854c-1.56 0-2.825-1.265-2.825-2.825v-12.351c0-1.56 1.265-2.825 2.825-2.825h26.854c1.56 0 2.825 1.265 2.825 2.825v12.351c-.001 1.56-1.265 2.825-2.825 2.825z" fill="#e0ebfc"/><g fill="#3762cc"><path d="m58.003 148.798h-26.854c-2.66 0-4.825-2.164-4.825-4.824v-12.351c0-2.66 2.165-4.825 4.825-4.825h26.854c2.66 0 4.825 2.165 4.825 4.825v12.351c0 2.66-2.165 4.824-4.825 4.824zm-26.854-18c-.455 0-.825.37-.825.825v12.351c0 .455.37.824.825.824h26.854c.455 0 .825-.37.825-.824v-12.351c0-.455-.37-.825-.825-.825z"/><path d="m224.851 148.798h-26.854c-2.66 0-4.825-2.164-4.825-4.824v-12.351c0-2.66 2.165-4.825 4.825-4.825h26.854c2.66 0 4.825 2.165 4.825 4.825v12.351c-.001 2.66-2.165 4.824-4.825 4.824zm-26.854-18c-.455 0-.825.37-.825.825v12.351c0 .455.37.824.825.824h26.854c.455 0 .825-.37.825-.824v-12.351c0-.455-.37-.825-.825-.825z"/></g></svg>