<svg id="Layer_1" enable-background="new 0 0 256 256" height="512" viewBox="0 0 256 256" width="512" xmlns="http://www.w3.org/2000/svg"><path d="m75.702 33.842c.104-3.242-.028-6.495-.546-9.698-.26-1.606-.594-3.181-1.002-4.709-1.84-6.874-5.792-11.279-10.148-11.33-4.355.05-8.308 4.456-10.148 11.33-.409 1.528-.743 3.103-1.002 4.709-.518 3.202-.65 6.455-.546 9.698l4.281 133.941c.1-.007.196-.03.298-.03h7.117 7.117c.102 0 .198.023.298.03z" fill="#eaa97d"/><path d="m206.362 147.138h-96c-4.418 0-8-3.582-8-8v-21.64c0-1.105.895-2 2-2h108c1.105 0 2 .895 2 2v21.64c0 4.418-3.581 8-8 8z" fill="#eaa97d"/><path d="m209.759 47.805h-102.793c-1.201 0-2.175.974-2.175 2.175v65.519h107.143v-65.52c0-1.201-.974-2.174-2.175-2.174z" fill="#e0ebfc"/><path d="m174.312 222.715-4.425-75.578h-23.048l-4.425 75.578c-1.111 5.323-.471 10.863 1.824 15.794 2.557 5.493 8.066 9.006 14.126 9.006 6.059 0 11.569-3.513 14.126-9.006 2.293-4.93 2.932-10.47 1.822-15.794z" fill="#eaa97d"/><path d="m206.362 149.138h-96c-5.514 0-10-4.486-10-10v-21.639c0-2.206 1.794-4 4-4h108c2.206 0 4 1.794 4 4v21.639c0 5.514-4.485 10-10 10zm-102-31.639v21.639c0 3.309 2.691 6 6 6h96c3.309 0 6-2.691 6-6v-21.639z" fill="#3762cc"/><path d="m211.934 117.499h-107.143c-1.104 0-2-.896-2-2v-65.52c0-2.302 1.873-4.175 4.175-4.175h102.793c2.302 0 4.175 1.873 4.175 4.175v65.519c0 1.105-.896 2.001-2 2.001zm-105.143-4h103.143v-63.52c0-.096-.079-.175-.175-.175h-102.793c-.096 0-.175.079-.175.175z" fill="#3762cc"/><path d="m158.362 249.515c-6.809 0-13.065-3.989-15.939-10.162-2.439-5.241-3.146-11.236-1.999-16.899l4.417-75.433c.062-1.058.938-1.883 1.997-1.883h23.048c1.059 0 1.935.826 1.997 1.883l4.417 75.433c1.148 5.664.44 11.659-1.999 16.899-2.873 6.173-9.13 10.162-15.939 10.162zm-9.637-100.377-4.315 73.694c-.006.098-.019.196-.039.292-1.016 4.868-.42 10.032 1.679 14.542 2.22 4.769 7.053 7.85 12.313 7.85s10.093-3.081 12.312-7.85c2.099-4.509 2.695-9.673 1.679-14.542-.02-.096-.033-.194-.039-.292l-4.315-73.694z" fill="#3762cc"/><path d="m82.731 213.087c2.209-3.445 3.495-7.538 3.495-11.934 0-12.231-9.915-22.146-22.146-22.146-27.455 0-35.472 44.361 10.48 65.86 1.895.886 3.942-.922 3.294-2.91-5.538-16.98 4.377-27.87 4.877-28.87z" fill="#4671c6"/><g fill="#3762cc"><path d="m158.362 90.975c-1.381 0-2.5-1.119-2.5-2.5v-40.67c0-1.381 1.119-2.5 2.5-2.5s2.5 1.119 2.5 2.5v40.67c0 1.381-1.119 2.5-2.5 2.5z"/><path d="m139.612 90.975c-1.381 0-2.5-1.119-2.5-2.5v-40.67c0-1.381 1.119-2.5 2.5-2.5s2.5 1.119 2.5 2.5v40.67c0 1.381-1.119 2.5-2.5 2.5z"/><path d="m120.862 90.975c-1.381 0-2.5-1.119-2.5-2.5v-40.67c0-1.381 1.119-2.5 2.5-2.5s2.5 1.119 2.5 2.5v40.67c0 1.381-1.119 2.5-2.5 2.5z"/><path d="m177.112 90.975c-1.381 0-2.5-1.119-2.5-2.5v-40.67c0-1.381 1.119-2.5 2.5-2.5s2.5 1.119 2.5 2.5v40.67c0 1.381-1.119 2.5-2.5 2.5z"/><path d="m195.862 90.975c-1.381 0-2.5-1.119-2.5-2.5v-40.67c0-1.381 1.119-2.5 2.5-2.5s2.5 1.119 2.5 2.5v40.67c0 1.381-1.119 2.5-2.5 2.5z"/></g><path d="m209.362 38.015h-102c-3.309 0-6 2.692-6 6v17.924c0 2.206 1.794 4 4 4h76.874c1.471 0 2.667 1.196 2.667 2.667v10.394c0 4.06 3.181 7.458 7.091 7.576l.224.003c4.034 0 7.315-3.281 7.315-7.315v-12.726c0-.331.269-.6.6-.6s.6.269.6.6v24.147c0 4.06 3.181 7.458 7.091 7.576l.224.003c1.954 0 3.791-.761 5.172-2.142 1.382-1.382 2.143-3.219 2.143-5.172v-46.935c-.001-3.309-2.692-6-6.001-6z" fill="#f9a7a7"/><path d="m75.59 247.103c-.631 0-1.27-.139-1.877-.423-27.764-12.99-36.681-34.589-33.203-50.232 2.626-11.81 11.878-19.44 23.57-19.44 13.314 0 24.146 10.832 24.146 24.146 0 4.602-1.305 9.079-3.773 12.954-.116.205-.271.418-.518.758-5.866 8.081-7.272 16.987-4.179 26.472.551 1.689.065 3.471-1.268 4.65-.831.735-1.855 1.115-2.898 1.115zm-11.509-66.096c-9.893 0-17.429 6.249-19.666 16.309-3.132 14.084 5.237 33.69 30.993 45.741.057.027.232.109.429-.065.194-.172.135-.354.115-.414-2.416-7.406-3.553-18.633 4.745-30.063.125-.173.223-.304.282-.395.021-.038.044-.076.067-.113 2.08-3.243 3.179-6.997 3.179-10.854.001-11.108-9.036-20.146-20.144-20.146zm18.601 32.165h.01z" fill="#3762cc"/><path d="m73.469 182.537h-18.776c-1.105 0-2-.895-2-2v-8.589c0-2.317 1.878-4.196 4.196-4.196h14.385c2.317 0 4.196 1.878 4.196 4.196v8.589c-.001 1.105-.897 2-2.001 2z" fill="#eaa97d"/><path d="m73.469 184.537h-18.777c-2.206 0-4-1.794-4-4v-8.589c0-3.417 2.779-6.196 6.196-6.196h14.385c3.417 0 6.196 2.779 6.196 6.196v8.589c0 2.206-1.795 4-4 4zm-16.581-14.785c-1.211 0-2.196.985-2.196 2.196v8.589h18.779l-.002-8.589c0-1.211-.985-2.196-2.196-2.196z" fill="#3762cc"/><path d="m81.464 222.98c1.049-3.232.944-4.536.944-4.536-.541-4.42-.861-13.028-9.545-14.545l-11.489-2.006c-1.518-.265-2.846-1.177-3.639-2.498-1.707-2.845-4.782-4.586-8.1-4.586h-5.819c-2.086 0-3.792 1.576-3.969 3.665-.322 3.838-.206 5.927-.09 7.273v22.801c0 2.443 1.721 4.641 4.138 4.996 2.772.407 5.193-1.539 5.558-4.136.074.094.147.187.221.281v12.703c0 2.543 1.854 4.818 4.385 5.065 2.904.283 5.359-2.001 5.359-4.848v-3.259c6.407 5.089 16.333 10.544 18.303 10.544 2.357 0 4.243-2.325 3.449-4.76-1.845-5.656-2.976-13.635.307-22.148z" fill="#6bdddd"/><path d="m75.702 33.842c.104-3.242-.028-6.495-.546-9.698-.26-1.606-.594-3.181-1.002-4.709-1.84-6.874-5.792-11.279-10.148-11.33-4.355.05-8.308 4.456-10.148 11.33-.409 1.528-.743 3.103-1.002 4.709-.518 3.202-.65 6.455-.546 9.698l4.281 133.941c.1-.007.196-.03.298-.03h7.117 7.117c.102 0 .198.023.298.03z" fill="#eaa97d"/><path d="m71.421 169.783c-.048 0-.097-.002-.146-.005-.077-.005-.153-.015-.229-.025h-14.081c-.087.012-.158.02-.229.025-.545.04-1.08-.144-1.484-.508-.405-.364-.644-.878-.661-1.422l-4.281-133.942c-.118-3.679.069-6.976.571-10.081.272-1.684.624-3.334 1.044-4.907 2.099-7.841 6.718-12.75 12.057-12.813 5.384.062 10.003 4.971 12.103 12.813.421 1.572.772 3.223 1.044 4.907.502 3.104.689 6.402.571 10.081l-4.28 133.941c-.018.544-.256 1.058-.661 1.422-.368.332-.845.514-1.338.514zm-12.895-4.031h10.959l4.218-131.975c.11-3.419-.061-6.466-.521-9.314-.251-1.551-.574-3.069-.96-4.511-1.59-5.942-4.824-9.808-8.238-9.847-3.369.039-6.603 3.904-8.193 9.847-.386 1.442-.709 2.96-.96 4.511-.46 2.848-.631 5.895-.521 9.314z" fill="#3762cc"/></svg>