<svg id="Layer_1" enable-background="new 0 0 256 256" height="512" viewBox="0 0 256 256" width="512" xmlns="http://www.w3.org/2000/svg"><path d="m217.5 248h-179c-4.418 0-8-3.582-8-8v-224c0-4.418 3.582-8 8-8h179c4.418 0 8 3.582 8 8v224c0 4.418-3.582 8-8 8z" fill="#6bdddd"/><path d="m47 74.136v-46c0-2.209 1.791-4 4-4h154c2.209 0 4 1.791 4 4v46c0 2.209-1.791 4-4 4h-154c-2.209 0-4-1.791-4-4z" fill="#4671c6"/><path d="m165 205.729v22c0 2.209-1.791 4-4 4h-22c-2.209 0-4-1.791-4-4v-22c0-2.209 1.791-4 4-4h22c2.209 0 4 1.791 4 4z" fill="#f9cfcf"/><path d="m121 205.729v22c0 2.209-1.791 4-4 4h-22c-2.209 0-4-1.791-4-4v-22c0-2.209 1.791-4 4-4h22c2.209 0 4 1.791 4 4z" fill="#f9cfcf"/><path d="m77 205.729v22c0 2.209-1.791 4-4 4h-22c-2.209 0-4-1.791-4-4v-22c0-2.209 1.791-4 4-4h22c2.209 0 4 1.791 4 4z" fill="#f9cfcf"/><path d="m165 165.729v22c0 2.209-1.791 4-4 4h-22c-2.209 0-4-1.791-4-4v-22c0-2.209 1.791-4 4-4h22c2.209 0 4 1.791 4 4z" fill="#f9cfcf"/><path d="m121 165.729v22c0 2.209-1.791 4-4 4h-22c-2.209 0-4-1.791-4-4v-22c0-2.209 1.791-4 4-4h22c2.209 0 4 1.791 4 4z" fill="#f9cfcf"/><path d="m77 165.729v22c0 2.209-1.791 4-4 4h-22c-2.209 0-4-1.791-4-4v-22c0-2.209 1.791-4 4-4h22c2.209 0 4 1.791 4 4z" fill="#f9cfcf"/><path d="m165 125.729v22c0 2.209-1.791 4-4 4h-22c-2.209 0-4-1.791-4-4v-22c0-2.209 1.791-4 4-4h22c2.209 0 4 1.791 4 4z" fill="#f9cfcf"/><path d="m121 125.729v22c0 2.209-1.791 4-4 4h-22c-2.209 0-4-1.791-4-4v-22c0-2.209 1.791-4 4-4h22c2.209 0 4 1.791 4 4z" fill="#f9cfcf"/><path d="m77 125.729v22c0 2.209-1.791 4-4 4h-22c-2.209 0-4-1.791-4-4v-22c0-2.209 1.791-4 4-4h22c2.209 0 4 1.791 4 4z" fill="#f9cfcf"/><path d="m165 97.739v12c0 1.105-.895 2-2 2h-26c-1.105 0-2-.895-2-2v-12c0-1.105.895-2 2-2h26c1.105 0 2 .896 2 2z" fill="#f9a7a7"/><path d="m121 97.739v12c0 1.105-.895 2-2 2h-26c-1.105 0-2-.895-2-2v-12c0-1.105.895-2 2-2h26c1.105 0 2 .896 2 2z" fill="#f9a7a7"/><path d="m77 97.739v12c0 1.105-.895 2-2 2h-26c-1.105 0-2-.895-2-2v-12c0-1.105.895-2 2-2h26c1.105 0 2 .896 2 2z" fill="#f9a7a7"/><path d="m165 97.739v12c0 1.105-.895 2-2 2h-26c-1.105 0-2-.895-2-2v-12c0-1.105.895-2 2-2h26c1.105 0 2 .896 2 2z" fill="#f9a7a7"/><path d="m209 97.739v12c0 1.105-.895 2-2 2h-26c-1.105 0-2-.895-2-2v-12c0-1.105.895-2 2-2h26c1.105 0 2 .896 2 2z" fill="#f9a7a7"/><path d="m209 123.739v12c0 1.105-.895 2-2 2h-26c-1.105 0-2-.895-2-2v-12c0-1.105.895-2 2-2h26c1.105 0 2 .896 2 2z" fill="#f9a7a7"/><path d="m209 149.76v79.969c0 1.105-.895 2-2 2h-26c-1.105 0-2-.895-2-2v-79.969c0-1.105.895-2 2-2h26c1.105 0 2 .895 2 2z" fill="#f9a7a7"/><path d="m198.808 57.666c-1.957 11.54-12.825 14.378-19.539 9.584-8.854-6.317-6.244-24.209-4.497-28.675 3.826-9.342 14.875-9.239 19.847-4.19 5.237 5.321 5.314 16.638 4.189 23.281zm-8.969-19.924c-1.922-2.198-6.705-2.477-8.392 1.883-1.694 4.373-2.306 18.975 1.14 23.05 1.803 2.134 7.723 3.469 9.174-4.753.616-3.491 1.444-16.327-1.922-20.18z" fill="#e0ebfc"/><path d="m166.408 57.666c-1.957 11.54-12.825 14.378-19.539 9.584-6.637-4.736-6.841-15.311-5.778-23.345.273-2.067.7-3.844 1.281-5.33 3.827-9.343 14.879-9.234 19.847-4.19 1.085 1.102 2.003 2.464 2.754 4.087 2.427 5.272 2.196 14.699 1.435 19.194zm-7.073-15.414c-.651-3.444-2.084-6.035-5.586-6.035-2.255 0-3.823 1.136-4.702 3.408-.88 2.272-1.32 5.775-1.32 10.506 0 7.543.815 14.12 6.073 14.12 1.571 0 2.802-.547 3.69-1.64 3.185-3.92 2.603-16.343 1.845-20.359z" fill="#e0ebfc"/><g fill="#3762cc"><path d="m217.5 250h-179c-5.514 0-10-4.486-10-10v-224c0-5.514 4.486-10 10-10h179c5.514 0 10 4.486 10 10v224c0 5.514-4.486 10-10 10zm-179-240c-3.309 0-6 2.691-6 6v224c0 3.309 2.691 6 6 6h179c3.309 0 6-2.691 6-6v-224c0-3.309-2.691-6-6-6z"/><path d="m205 80.136h-154c-3.309 0-6-2.691-6-6v-46c0-3.309 2.691-6 6-6h154c3.309 0 6 2.691 6 6v46c0 3.308-2.691 6-6 6zm-154-54c-1.103 0-2 .897-2 2v46c0 1.103.897 2 2 2h154c1.103 0 2-.897 2-2v-46c0-1.103-.897-2-2-2z"/><path d="m161 233.729h-22c-3.309 0-6-2.691-6-6v-22c0-3.309 2.691-6 6-6h22c3.309 0 6 2.691 6 6v22c0 3.309-2.691 6-6 6zm-22-30c-1.103 0-2 .897-2 2v22c0 1.103.897 2 2 2h22c1.103 0 2-.897 2-2v-22c0-1.103-.897-2-2-2z"/><path d="m117 233.729h-22c-3.309 0-6-2.691-6-6v-22c0-3.309 2.691-6 6-6h22c3.309 0 6 2.691 6 6v22c0 3.309-2.691 6-6 6zm-22-30c-1.103 0-2 .897-2 2v22c0 1.103.897 2 2 2h22c1.103 0 2-.897 2-2v-22c0-1.103-.897-2-2-2z"/><path d="m73 233.729h-22c-3.309 0-6-2.691-6-6v-22c0-3.309 2.691-6 6-6h22c3.309 0 6 2.691 6 6v22c0 3.309-2.691 6-6 6zm-22-30c-1.103 0-2 .897-2 2v22c0 1.103.897 2 2 2h22c1.103 0 2-.897 2-2v-22c0-1.103-.897-2-2-2z"/><path d="m161 193.729h-22c-3.309 0-6-2.691-6-6v-22c0-3.309 2.691-6 6-6h22c3.309 0 6 2.691 6 6v22c0 3.309-2.691 6-6 6zm-22-30c-1.103 0-2 .897-2 2v22c0 1.103.897 2 2 2h22c1.103 0 2-.897 2-2v-22c0-1.103-.897-2-2-2z"/><path d="m117 193.729h-22c-3.309 0-6-2.691-6-6v-22c0-3.309 2.691-6 6-6h22c3.309 0 6 2.691 6 6v22c0 3.309-2.691 6-6 6zm-22-30c-1.103 0-2 .897-2 2v22c0 1.103.897 2 2 2h22c1.103 0 2-.897 2-2v-22c0-1.103-.897-2-2-2z"/><path d="m73 193.729h-22c-3.309 0-6-2.691-6-6v-22c0-3.309 2.691-6 6-6h22c3.309 0 6 2.691 6 6v22c0 3.309-2.691 6-6 6zm-22-30c-1.103 0-2 .897-2 2v22c0 1.103.897 2 2 2h22c1.103 0 2-.897 2-2v-22c0-1.103-.897-2-2-2z"/><path d="m161 153.729h-22c-3.309 0-6-2.691-6-6v-22c0-3.309 2.691-6 6-6h22c3.309 0 6 2.691 6 6v22c0 3.309-2.691 6-6 6zm-22-30c-1.103 0-2 .897-2 2v22c0 1.103.897 2 2 2h22c1.103 0 2-.897 2-2v-22c0-1.103-.897-2-2-2z"/><path d="m117 153.729h-22c-3.309 0-6-2.691-6-6v-22c0-3.309 2.691-6 6-6h22c3.309 0 6 2.691 6 6v22c0 3.309-2.691 6-6 6zm-22-30c-1.103 0-2 .897-2 2v22c0 1.103.897 2 2 2h22c1.103 0 2-.897 2-2v-22c0-1.103-.897-2-2-2z"/><path d="m73 153.729h-22c-3.309 0-6-2.691-6-6v-22c0-3.309 2.691-6 6-6h22c3.309 0 6 2.691 6 6v22c0 3.309-2.691 6-6 6zm-22-30c-1.103 0-2 .897-2 2v22c0 1.103.897 2 2 2h22c1.103 0 2-.897 2-2v-22c0-1.103-.897-2-2-2z"/><path d="m163 113.739h-26c-2.206 0-4-1.794-4-4v-12c0-2.206 1.794-4 4-4h26c2.206 0 4 1.794 4 4v12c0 2.206-1.794 4-4 4zm0-16.002-26 .002v12h26z"/><path d="m119 113.739h-26c-2.206 0-4-1.794-4-4v-12c0-2.206 1.794-4 4-4h26c2.206 0 4 1.794 4 4v12c0 2.206-1.794 4-4 4zm0-16.002-26 .002v12h26z"/><path d="m75 113.739h-26c-2.206 0-4-1.794-4-4v-12c0-2.206 1.794-4 4-4h26c2.206 0 4 1.794 4 4v12c0 2.206-1.794 4-4 4zm0-16.002-26 .002v12h26z"/><path d="m163 113.739h-26c-2.206 0-4-1.794-4-4v-12c0-2.206 1.794-4 4-4h26c2.206 0 4 1.794 4 4v12c0 2.206-1.794 4-4 4zm0-16.002-26 .002v12h26z"/><path d="m207 113.739h-26c-2.206 0-4-1.794-4-4v-12c0-2.206 1.794-4 4-4h26c2.206 0 4 1.794 4 4v12c0 2.206-1.794 4-4 4zm0-16.002-26 .002v12h26z"/><path d="m207 139.739h-26c-2.206 0-4-1.794-4-4v-12c0-2.206 1.794-4 4-4h26c2.206 0 4 1.794 4 4v12c0 2.206-1.794 4-4 4zm0-16.002-26 .002v12h26z"/><path d="m207 233.729h-26c-2.206 0-4-1.794-4-4v-79.969c0-2.206 1.794-4 4-4h26c2.206 0 4 1.794 4 4v79.969c0 2.206-1.794 4-4 4zm0-83.972-26 .002v79.969h26z"/></g></svg>