<svg id="Layer_1" enable-background="new 0 0 256 256" height="512" viewBox="0 0 256 256" width="512" xmlns="http://www.w3.org/2000/svg"><path d="m59.369 162.238h-14.355c-2.761 0-5-2.239-5-5v-85.526c0-2.761 2.239-5 5-5h14.355c2.761 0 5 2.239 5 5v85.526c0 2.761-2.239 5-5 5z" fill="#e0ebfc"/><path d="m59.368 164.237h-14.354c-3.859 0-7-3.141-7-7v-85.525c0-3.859 3.141-7 7-7h14.354c3.859 0 7 3.141 7 7v85.525c0 3.86-3.14 7-7 7zm-14.354-95.525c-1.654 0-3 1.346-3 3v85.525c0 1.654 1.346 3 3 3h14.354c1.654 0 3-1.346 3-3v-85.525c0-1.654-1.346-3-3-3z" fill="#3762cc"/><path d="m83.723 162.238h-14.354c-2.761 0-5-2.239-5-5v-85.526c0-2.761 2.239-5 5-5h14.355c2.761 0 5 2.239 5 5v85.526c-.001 2.761-2.239 5-5.001 5z" fill="#e0ebfc"/><path d="m83.724 164.237h-14.356c-3.859 0-7-3.141-7-7v-85.525c0-3.859 3.141-7 7-7h14.355c3.859 0 7 3.141 7 7v85.525c.001 3.86-3.14 7-6.999 7zm-14.356-95.525c-1.654 0-3 1.346-3 3v85.525c0 1.654 1.346 3 3 3h14.355c1.654 0 3-1.346 3-3v-85.525c0-1.654-1.346-3-3-3z" fill="#3762cc"/><path d="m108.078 162.238h-14.355c-2.761 0-5-2.239-5-5v-85.526c0-2.761 2.239-5 5-5h14.355c2.761 0 5 2.239 5 5v85.526c0 2.761-2.238 5-5 5z" fill="#e0ebfc"/><path d="m108.078 164.237h-14.354c-3.859 0-7-3.141-7-7v-85.525c0-3.859 3.141-7 7-7h14.354c3.859 0 7 3.141 7 7v85.525c0 3.86-3.14 7-7 7zm-14.354-95.525c-1.654 0-3 1.346-3 3v85.525c0 1.654 1.346 3 3 3h14.354c1.654 0 3-1.346 3-3v-85.525c0-1.654-1.346-3-3-3z" fill="#3762cc"/><path d="m132.433 138.238h-14.355c-2.761 0-5-2.239-5-5v-85.526c0-2.761 2.239-5 5-5h14.355c2.761 0 5 2.239 5 5v85.526c0 2.761-2.239 5-5 5z" fill="#e0ebfc"/><path d="m132.433 140.237h-14.354c-3.859 0-7-3.141-7-7v-85.525c0-3.859 3.141-7 7-7h14.354c3.859 0 7 3.141 7 7v85.525c0 3.86-3.141 7-7 7zm-14.355-95.525c-1.654 0-3 1.346-3 3v85.525c0 1.654 1.346 3 3 3h14.354c1.654 0 3-1.346 3-3v-85.525c0-1.654-1.346-3-3-3z" fill="#3762cc"/><path d="m156.788 118.238h-14.355c-2.761 0-5-2.239-5-5v-85.526c0-2.761 2.239-5 5-5h14.355c2.761 0 5 2.239 5 5v85.526c0 2.761-2.239 5-5 5z" fill="#e0ebfc"/><path d="m156.788 120.237h-14.355c-3.859 0-7-3.141-7-7v-85.525c0-3.859 3.141-7 7-7h14.355c3.859 0 7 3.141 7 7v85.525c0 3.86-3.141 7-7 7zm-14.355-95.525c-1.654 0-3 1.346-3 3v85.525c0 1.654 1.346 3 3 3h14.355c1.654 0 3-1.346 3-3v-85.525c0-1.654-1.346-3-3-3z" fill="#3762cc"/><path d="m181.143 138.238h-14.355c-2.761 0-5-2.239-5-5v-85.526c0-2.761 2.239-5 5-5h14.355c2.761 0 5 2.239 5 5v85.526c0 2.761-2.239 5-5 5z" fill="#e0ebfc"/><path d="m181.143 140.237h-14.354c-3.859 0-7-3.141-7-7v-85.525c0-3.859 3.141-7 7-7h14.354c3.859 0 7 3.141 7 7v85.525c0 3.86-3.141 7-7 7zm-14.355-95.525c-1.654 0-3 1.346-3 3v85.525c0 1.654 1.346 3 3 3h14.354c1.654 0 3-1.346 3-3v-85.525c0-1.654-1.346-3-3-3z" fill="#3762cc"/><path d="m205.498 178.238h-14.355c-2.761 0-5-2.239-5-5v-85.526c0-2.761 2.239-5 5-5h14.355c2.761 0 5 2.239 5 5v85.526c0 2.761-2.239 5-5 5z" fill="#e0ebfc"/><path d="m205.497 180.237h-14.354c-3.859 0-7-3.141-7-7v-85.525c0-3.859 3.141-7 7-7h14.354c3.859 0 7 3.141 7 7v85.525c0 3.86-3.141 7-7 7zm-14.354-95.525c-1.654 0-3 1.346-3 3v85.525c0 1.654 1.346 3 3 3h14.354c1.654 0 3-1.346 3-3v-85.525c0-1.654-1.346-3-3-3z" fill="#3762cc"/><path d="m208.65 223.388h-166.788c-2.915 0-5.278-2.363-5.278-5.278v-102.145c0-2.761 2.239-5 5-5h168.344c2.209 0 4 1.791 4 4v103.145c0 2.915-2.363 5.278-5.278 5.278z" fill="#6bdddd"/><path d="m36.584 114.965-25.214 73.218c-1.093 3.175 1.265 6.481 4.623 6.481 2.053 0 3.887-1.282 4.592-3.21l16-43.765v-32.724z" fill="#6bdddd"/><path d="m213.928 114.965 25.214 73.218c1.093 3.175-1.265 6.481-4.623 6.481-2.053 0-3.887-1.282-4.592-3.21l-16-43.765v-32.724z" fill="#6bdddd"/><path d="m36.584 142.946h177.344v46.183h-177.344z" fill="#ffea92"/><g fill="#3762cc"><path d="m15.992 196.664c-2.222 0-4.318-1.08-5.608-2.889s-1.629-4.143-.905-6.243l25.215-73.219c.317-.924 1.255-1.481 2.221-1.321.964.161 1.67.995 1.67 1.973v32.725c0 .234-.041.467-.122.687l-16 43.765c-.99 2.705-3.59 4.522-6.471 4.522zm18.592-69.749-21.324 61.92c-.308.894-.169 1.848.38 2.617.55.771 1.407 1.212 2.353 1.212 1.208 0 2.299-.763 2.714-1.896l15.878-43.433v-20.42z"/><path d="m234.52 196.664c-2.881 0-5.48-1.817-6.47-4.523l-16-43.765c-.081-.22-.122-.452-.122-.687v-32.725c0-.978.706-1.812 1.67-1.973.965-.161 1.902.397 2.221 1.321l25.214 73.219c.724 2.1.386 4.434-.904 6.242-1.291 1.811-3.388 2.891-5.609 2.891zm-18.592-49.329 15.878 43.433c.415 1.134 1.506 1.896 2.714 1.896.945 0 1.803-.441 2.353-1.212.549-.77.687-1.724.379-2.617l-21.323-61.92v20.42z"/><path d="m208.649 225.389h-166.788c-4.013 0-7.277-3.265-7.277-7.278v-102.146c0-3.859 3.141-7 7-7h168.344c3.309 0 6 2.691 6 6v103.145c0 4.014-3.265 7.279-7.279 7.279zm-167.065-112.424c-1.654 0-3 1.346-3 3v102.145c0 1.808 1.471 3.278 3.277 3.278h166.788c1.808 0 3.278-1.471 3.278-3.278v-103.145c0-1.103-.897-2-2-2z"/></g><path d="m123.217 215.035.429 14.4c.064 2.161 2.241 3.868 4.915 3.853l108.874-.592c4.185-.023 7.563-2.839 7.462-6.222l-.468-15.706c-.101-3.383-3.641-5.993-7.82-5.767l-108.716 5.895c-2.668.145-4.74 1.978-4.676 4.139z" fill="#e0ebfc"/><path d="m128.526 235.288c-3.765 0-6.782-2.537-6.879-5.794l-.429-14.399c-.098-3.269 2.787-5.99 6.567-6.196l108.716-5.895c2.834-.139 5.557.765 7.467 2.52 1.529 1.406 2.403 3.248 2.461 5.186l.468 15.705c.059 1.938-.704 3.828-2.147 5.323-1.801 1.865-4.463 2.943-7.303 2.959l-108.875.592c-.014-.001-.03-.001-.046-.001zm108.578-28.301c-.129 0-.257.004-.386.011l-108.716 5.895c-1.541.084-2.817 1.038-2.786 2.083l.429 14.399c.031 1.04 1.349 1.913 2.883 1.913h.022l108.875-.592c1.743-.01 3.405-.659 4.446-1.737.486-.504 1.06-1.335 1.027-2.426l-.468-15.705c-.032-1.091-.654-1.886-1.171-2.36-1.02-.94-2.552-1.481-4.155-1.481z" fill="#3762cc"/><path d="m187 179.5h-123c-3.314 0-6-2.686-6-6v-15c0-3.314 2.686-6 6-6h123c3.314 0 6 2.686 6 6v15c0 3.314-2.686 6-6 6z" fill="#a4c9ff"/></svg>