<svg id="Layer_1" enable-background="new 0 0 256 256" height="512" viewBox="0 0 256 256" width="512" xmlns="http://www.w3.org/2000/svg"><path d="m242.002 200.746h-228c-3.314 0-6-2.686-6-6v-158c0-3.314 2.686-6 6-6h228c3.314 0 6 2.686 6 6v158c0 3.313-2.687 6-6 6z" fill="#e0ebfc"/><path d="m20.002 185.746v-140c0-1.657 1.343-3 3-3h210c1.657 0 3 1.343 3 3v140c0 1.657-1.343 3-3 3h-210c-1.657 0-3-1.343-3-3z" fill="#a4c9ff"/><path d="m242.002 202.745h-228c-4.411 0-8-3.589-8-8v-158c0-4.411 3.589-8 8-8h228c4.411 0 8 3.589 8 8v158c0 4.411-3.589 8-8 8zm-228.001-170c-2.206 0-4 1.794-4 4v158c0 2.206 1.794 4 4 4h228c2.206 0 4-1.794 4-4v-158c0-2.206-1.794-4-4-4z" fill="#3762cc"/><path d="m233.002 190.746h-210c-2.757 0-5-2.243-5-5v-140c0-2.757 2.243-5 5-5h210c2.757 0 5 2.243 5 5v140c0 2.757-2.243 5-5 5zm-210.001-146c-.551 0-1 .448-1 1v140c0 .552.449 1 1 1h210c.552 0 1-.448 1-1v-140c0-.552-.448-1-1-1z" fill="#3762cc"/><path d="m216.227 73.207c.362.704.287 1.586-.258 2.226l-8.452 9.918c-.721.846-1.991.947-2.837.226s-.947-1.991-.226-2.837l8.452-9.918c.721-.846 1.991-.947 2.837-.226.206.176.368.385.484.611z" fill="#ffea92"/><circle cx="219.126" cy="68.639" fill="#f9a7a7" r="8.3"/><path d="m182.405 95.975-14.888.004c-1.111 0-2.012-.9-2.013-2.012s.9-2.012 2.012-2.013l14.888-.004c1.111 0 2.012.9 2.013 2.012s-.9 2.013-2.012 2.013z" fill="#ffea92"/><path d="m205.908 121.433c-.791 0-1.542-.469-1.862-1.247l-4.958-12.05c-.423-1.027.068-2.204 1.095-2.626s2.204.067 2.627 1.095l4.958 12.05c.423 1.027-.068 2.204-1.095 2.626-.251.103-.51.152-.765.152z" fill="#ffea92"/><circle cx="196.695" cy="93.972" fill="#4671c6" r="16.347"/><circle cx="159.919" cy="92.493" fill="#f9a7a7" r="8.3"/><circle cx="209.795" cy="127.245" fill="#f9a7a7" r="8.3"/><path d="m111.587 171.166h-8.615c-.019-.001-.037-.004-.056-.004l-.003.004h-56.671c-14.972 0-27.109 12.137-27.109 27.109v24.612h119.563c0-9.166 0-15.498 0-24.612 0-14.972-12.137-27.109-27.109-27.109z" fill="#eaa97d"/><path d="m138.696 224.886h-119.563c-1.104 0-2-.896-2-2v-24.611c0-16.051 13.058-29.108 29.109-29.108h56.551c.076-.005.151-.005.247 0h8.547c16.051 0 29.109 13.058 29.109 29.108v24.611c0 1.104-.895 2-2 2zm-117.563-4h115.563v-22.611c0-13.845-11.264-25.108-25.109-25.108h-8.615c-.02 0-.039 0-.059 0h-56.671c-13.845 0-25.109 11.264-25.109 25.108z" fill="#3762cc"/><path d="m138.78 96.588c-.034-.018-.07-.034-.104-.052-2.375-1.26-5.1-1.911-7.799-1.839l-8.687-6.254c-6.853-4.934-11.177-12.419-12.233-20.526 0-.001.001-.001.001-.002l-.276-1.336c-18.041 19.984-57.646 27.355-81.876 14.163-.964 5.359-.824 8.631-.824 13.955-.11-.002-.218-.016-.328-.016-8.753 0-15.848 7.031-15.848 15.706 0 8.674 7.096 15.706 15.848 15.706.575 0 1.141-.034 1.7-.093 5.361 22.774 25.961 39.745 50.575 39.745s45.215-16.97 50.575-39.745c.559.059 1.126.093 1.7.093 8.753 0 15.848-7.032 15.848-15.706.001-5.956-3.344-11.136-8.272-13.799z" fill="#f9cfcf"/><path d="m16.653 72.305c-1.002 5.295-1.176 10.761-.435 16.203l1.241 9.102c2.595-1.837 5.763-2.929 9.195-2.929.111 0 .218.014.328.017 0-5.335-.141-8.572.829-13.952-4.624-2.519-8.287-5.489-11.158-8.441z" fill="#4671c6"/><path d="m78.939 143.684c-3.561 0-6.876-1.282-9.094-3.52-1.685-1.699-2.612-3.841-2.612-6.032 0-1.104.896-2 2-2s2 .896 2 2c0 1.146.502 2.258 1.453 3.216 1.451 1.463 3.789 2.336 6.253 2.336 2.481 0 4.749-.852 6.222-2.336.95-.958 1.452-2.07 1.452-3.216 0-1.104.896-2 2-2s2 .896 2 2c0 2.191-.928 4.334-2.612 6.032-2.219 2.237-5.522 3.52-9.062 3.52z" fill="#3762cc"/><path d="m53.232 122.958c-3.458 0-6.271-2.813-6.271-6.27v-10.451c0-3.458 2.813-6.271 6.271-6.271 3.457 0 6.27 2.813 6.27 6.271v10.451c.001 3.458-2.813 6.27-6.27 6.27z" fill="#3762cc"/><path d="m104.615 122.958c-3.458 0-6.271-2.813-6.271-6.27v-10.451c0-3.458 2.813-6.271 6.271-6.271 3.457 0 6.27 2.813 6.27 6.271v10.451c0 3.458-2.813 6.27-6.27 6.27z" fill="#3762cc"/><path d="m106.118 165.949 1.648 5.217-12.999 20.793c-1.195 1.912-3.993 1.871-5.133-.074l-10.726-18.315 23.708-9.294c1.431-.562 3.039.206 3.502 1.673z" fill="#e0ebfc"/><path d="m92.225 195.368c-.025 0-.05 0-.075-.001-1.765-.025-3.351-.949-4.243-2.473l-10.725-18.314c-.296-.505-.355-1.113-.164-1.666s.615-.993 1.16-1.207l23.708-9.294c1.194-.468 2.546-.421 3.706.134 1.16.554 2.047 1.574 2.434 2.799l1.648 5.218c.176.559.099 1.166-.211 1.663l-13 20.792c-.923 1.474-2.503 2.349-4.238 2.349zm-10.409-20.791 9.543 16.296c.257.439.679.492.849.495.16.012.591-.039.862-.47l12.511-20.01-1.37-4.338c-.075-.236-.247-.349-.343-.395-.097-.046-.293-.11-.522-.019z" fill="#3762cc"/><path d="m51.704 165.949-1.648 5.217 12.999 20.793c1.195 1.912 3.993 1.871 5.133-.074l10.726-18.315-23.708-9.294c-1.431-.562-3.039.206-3.502 1.673z" fill="#e0ebfc"/><path d="m65.597 195.368c-1.735 0-3.315-.874-4.237-2.35l-12.999-20.792c-.311-.497-.388-1.104-.211-1.663l1.647-5.218c.387-1.226 1.274-2.245 2.434-2.799s2.51-.601 3.706-.134l23.708 9.294c.544.214.968.654 1.16 1.207s.132 1.161-.164 1.666l-10.726 18.314c-.892 1.522-2.478 2.447-4.242 2.473-.026.002-.051.002-.076.002zm-13.355-24.479 12.51 20.009c.271.433.704.49.863.471.169-.003.591-.056.848-.495l9.544-16.296-21.529-8.439c-.231-.092-.426-.027-.522.019s-.269.158-.343.395z" fill="#3762cc"/><path d="m69.437 127.33h-32.411c-2.206 0-4-1.794-4-4v-16c0-2.206 1.794-4 4-4h32.411c2.206 0 4 1.794 4 4v16c0 2.206-1.794 4-4 4zm-32.411-20v16h32.413l-.002-16z" fill="#3762cc"/><path d="m120.819 127.33h-32.41c-2.206 0-4-1.794-4-4v-16c0-2.206 1.794-4 4-4h32.411c2.206 0 4 1.794 4 4v16c-.001 2.206-1.795 4-4.001 4zm-32.41-20v16h32.413l-.002-16z" fill="#3762cc"/><path d="m206.21 218.604-26.243-58.298c-.346-.769-.525-1.603-.525-2.447v-21.839c0-.263.213-.476.476-.476h2.51c1.314 0 2.379-1.065 2.379-2.379v-4.779c0-1.314-1.065-2.379-2.379-2.379h-36.967c-1.314 0-2.379 1.065-2.379 2.379v4.779c0 1.314 1.065 2.379 2.379 2.379h2.51c.263 0 .476.213.476.476v21.839c0 .844-.179 1.678-.525 2.447l-26.243 58.298c-1.87 4.154-2.837 8.657-2.837 13.212v.043c0 4.609 3.736 8.345 8.345 8.345h36.758 36.758c4.609 0 8.345-3.736 8.345-8.345v-.043c-.001-4.555-.968-9.058-2.838-13.212z" fill="#e0ebfc"/><path d="m198.559 219.908-9.678-21.499h-49.875c-10.406 23.117-11.903 24.974-11.9 31.9.001 2.068 1.687 3.743 3.755 3.743h66.164c2.07 0 3.755-1.685 3.755-3.794.002-3.592-.746-7.075-2.221-10.35z" fill="#6bdddd"/><path d="m200.702 242.205h-73.515c-5.705 0-10.345-4.641-10.345-10.346 0-4.914 1.014-9.636 3.013-14.076l26.242-58.298c.232-.514.35-1.062.35-1.626v-20.314h-.985c-2.414 0-4.379-1.965-4.379-4.379v-4.779c0-2.414 1.965-4.379 4.379-4.379h36.967c2.414 0 4.379 1.965 4.379 4.379v4.779c0 2.414-1.965 4.379-4.379 4.379h-.985v20.314c0 .564.117 1.112.349 1.626l26.243 58.298c1.999 4.44 3.013 9.162 3.013 14.033-.002 5.748-4.643 10.389-10.347 10.389zm-55.241-114.197c-.209 0-.379.17-.379.379v4.779c0 .209.17.379.379.379h2.51c1.365 0 2.476 1.11 2.476 2.476v21.839c0 1.135-.236 2.235-.702 3.269l-26.242 58.298c-1.766 3.921-2.661 8.09-2.661 12.391 0 3.542 2.847 6.389 6.345 6.389h73.515c3.498 0 6.345-2.847 6.345-6.346 0-4.344-.896-8.513-2.66-12.434 0 0 0 0-.001 0l-26.242-58.298c-.465-1.033-.701-2.134-.701-3.269v-21.839c0-1.365 1.11-2.476 2.476-2.476h2.51c.209 0 .379-.17.379-.379v-4.779c0-.209-.17-.379-.379-.379z" fill="#3762cc"/><path d="m129.901 50.892c-2.14-2.789-5.784-3.961-9.148-2.942l-2.654.804c-.244 7.423-3.392 12.263-8.416 17.826l.276 1.333c0 .001-.001.001-.001.002 1.055 8.107 5.379 15.593 12.233 20.526l8.687 6.254c2.848-.069 5.528.607 7.906 1.893l1.102-8.082c1.821-13.367-1.773-26.909-9.985-37.614z" fill="#4671c6"/><g fill="#3762cc"><path d="m17.459 99.609c-.27 0-.541-.055-.796-.165-.642-.279-1.091-.872-1.185-1.564l-1.241-9.102c-.76-5.576-.608-11.243.451-16.846.139-.733.674-1.328 1.389-1.543.714-.217 1.49-.014 2.01.521 3.103 3.191 6.696 5.909 10.68 8.077.757.412 1.165 1.263 1.012 2.111-.824 4.573-.815 7.448-.801 11.8l.004 1.798c0 .54-.218 1.057-.604 1.433-.387.376-.9.599-1.449.566-.078-.002-.155-.007-.231-.012-.006 0-.012 0-.018 0-2.929 0-5.702.886-8.065 2.559-.344.242-.749.367-1.156.367zm.602-23.218c-.441 3.957-.395 7.928.139 11.847l.837 6.143c1.87-.882 3.873-1.431 5.941-1.623-.012-3.896-.013-6.852.627-10.959-2.698-1.572-5.222-3.381-7.544-5.408z"/><path d="m138.783 98.59c-.327 0-.655-.08-.951-.241-2.14-1.157-4.47-1.708-6.906-1.653-.443.021-.864-.121-1.218-.376l-8.687-6.254c-7.138-5.14-11.89-13.099-13.042-21.844l-.255-1.237c-.129-.624.047-1.271.474-1.745 4.836-5.354 7.679-9.778 7.901-16.55.028-.856.599-1.6 1.419-1.849l2.654-.805c4.138-1.253 8.684.21 11.315 3.639 8.477 11.05 12.26 25.302 10.378 39.104l-1.102 8.082c-.089.65-.49 1.216-1.076 1.513-.283.144-.593.216-.904.216zm-7.265-5.898c1.949.025 3.838.358 5.643.994l.743-5.449c1.738-12.751-1.757-25.919-9.589-36.127-1.624-2.116-4.43-3.021-6.982-2.246l-1.318.399c-.571 6.838-3.561 11.669-8.169 16.897l.072.348c.016.075.027.151.034.229 1.017 7.641 5.172 14.592 11.408 19.082z"/><path d="m78.93 167.742c-24.633 0-45.823-16.221-52.111-39.652-.055.001-.11.001-.165.001-9.841 0-17.848-7.942-17.848-17.705 0-9.202 7.114-16.788 16.172-17.629-.014-4.34-.013-7.516.86-12.37.114-.632.524-1.171 1.104-1.449.579-.276 1.257-.261 1.821.047 23.097 12.578 61.702 5.896 79.436-13.746.505-.561 1.282-.79 2.009-.59.727.197 1.282.787 1.434 1.525l.276 1.335c.016.075.027.152.034.229 1.018 7.641 5.172 14.593 11.408 19.082l8.158 5.873c2.811.037 5.596.749 8.097 2.076l.118.06c5.75 3.107 9.322 9.068 9.322 15.558 0 9.763-8.007 17.705-17.849 17.705-.055 0-.109 0-.165-.001-6.289 23.43-27.478 39.651-52.111 39.651zm-50.574-43.744c.918 0 1.731.631 1.945 1.542 5.294 22.493 25.291 38.202 48.628 38.202s43.333-15.709 48.628-38.202c.23-.98 1.155-1.62 2.156-1.531.524.056 1.013.082 1.491.082 7.636 0 13.849-6.148 13.849-13.705 0-5.012-2.761-9.619-7.208-12.029-.035-.018-.104-.053-.124-.063-2.081-1.104-4.433-1.651-6.792-1.598-.433.038-.866-.12-1.222-.376l-8.687-6.254c-6.45-4.644-10.951-11.591-12.609-19.339-19.129 17.999-55.51 24.081-79.048 13.042-.404 3.2-.396 5.801-.385 9.135l.004 1.793c0 .536-.216 1.051-.598 1.427s-.903.575-1.437.573c-.088-.002-.174-.007-.261-.014-.002 0-.004 0-.006 0-7.666 0-13.875 6.147-13.875 13.703 0 7.557 6.212 13.705 13.848 13.705.479 0 .966-.026 1.492-.082.071-.007.142-.011.211-.011z"/><path d="m88.43 115.395h-19c-1.104 0-2-.896-2-2s.896-2 2-2h19c1.104 0 2 .896 2 2s-.896 2-2 2z"/></g><path d="m55.207 164.276 23.704 9.292 23.704-9.292c.134-.052.27-.082.406-.112v-4.3c-15.07 7.844-33.148 7.845-48.227-.014v4.312c.139.03.277.06.413.114z" fill="#f9cfcf"/><path d="m78.911 175.568c-.248 0-.495-.046-.73-.138l-23.685-9.285c-.039-.012-.078-.019-.117-.027-.924-.195-1.585-1.012-1.585-1.956v-4.313c0-.699.365-1.348.963-1.71.597-.364 1.342-.387 1.961-.063 14.518 7.567 31.855 7.573 46.379.014.62-.32 1.365-.297 1.961.064.598.362.962 1.011.962 1.71v4.3c0 .942-.659 1.757-1.58 1.955l-.127.029-23.672 9.282c-.235.092-.482.138-.73.138zm-14.123-9.685 14.124 5.537 14.078-5.519c-9.233 2.478-18.973 2.473-28.202-.018zm-10.284.264h.01z" fill="#3762cc"/><path d="m102.244 24.043h.002c-20.159-12.689-43.946-9.79-58.155-1.188h.005c-17.941 9.375-30.479 26.402-34.504 32.384-.27.33-.524.642-.747.92-.291.363-.499.782-.642 1.227-.326 1.016-.269 2.178.213 3.198 3.577 7.571 17.198 29.392 54.438 26.532 27.992-2.149 56.01-19.569 55.258-40.055-.401-10.934-6.775-17.108-15.868-23.018z" fill="#4671c6"/><path d="m56.365 89.37c-33.796 0-46.537-21.117-49.756-27.933-.683-1.445-.796-3.145-.31-4.663.226-.704.558-1.332.986-1.866.211-.264.449-.556.702-.865 4.601-6.82 17.109-23.479 35.088-32.91 14.805-8.952 39.166-12.045 60.238 1.218.029.019.058.037.086.057 9.725 6.332 16.286 12.943 16.713 24.58.379 10.313-5.912 20.479-17.712 28.623-10.853 7.49-25.21 12.41-39.392 13.499-2.3.176-4.514.26-6.643.26zm-11.145-64.86c-.063.042-.128.081-.197.117-17.289 9.035-29.377 25.198-33.771 31.728-.035.053-.072.103-.112.151-.266.324-.516.632-.734.904-.121.15-.221.349-.297.586-.18.562-.137 1.193.117 1.732 2.958 6.259 14.696 25.638 46.181 25.64 2.018 0 4.112-.079 6.295-.247 25.851-1.984 54.144-18.073 53.413-37.987-.366-9.973-5.996-15.588-14.959-21.414-.012-.008-.023-.015-.035-.022-19.476-12.223-42.596-9.194-55.901-1.188z" fill="#3762cc"/></svg>