<svg id="Layer_1" enable-background="new 0 0 256 256" height="512" viewBox="0 0 256 256" width="512" xmlns="http://www.w3.org/2000/svg"><path d="m207 107.704v-34.267l-12.208-18.95c-.418-.649-1.5-.649-1.918 0l-12.208 18.95v34.267z" fill="#f9cfcf"/><path d="m200.008 62.584-5.216-8.097c-.418-.649-1.5-.649-1.918 0l-5.216 8.097z" fill="#eaa97d"/><path d="m200.008 64.584h-12.35c-.732 0-1.405-.4-1.756-1.042s-.322-1.425.074-2.041l5.216-8.097c.566-.879 1.554-1.404 2.641-1.404s2.074.525 2.641 1.404l5.216 8.097c.396.615.425 1.398.074 2.041s-1.024 1.042-1.756 1.042zm-8.683-4h5.016l-2.508-3.893z" fill="#3762cc"/><path d="m207 109.704h-26.334c-1.104 0-2-.896-2-2v-34.267c0-.384.11-.76.318-1.083l12.208-18.95c.566-.879 1.554-1.404 2.641-1.404s2.074.525 2.641 1.404l12.208 18.951c.208.323.318.699.318 1.083v34.267c0 1.104-.896 1.999-2 1.999zm-24.334-4h22.334v-31.678l-11.167-17.334-11.167 17.334z" fill="#3762cc"/><path d="m207 107.704v-34.22c-.61-.095-1.275.048-1.72.429l-3.697 3.169c-.356.305-.854.458-1.351.458v30.164z" fill="#eaa97d"/><path d="m207 109.704h-6.768c-1.104 0-2-.896-2-2v-30.164c0-1.104.896-2 2-2 .058 0 .096-.011.105-.015l3.64-3.13c.869-.745 2.111-1.076 3.329-.888.975.151 1.693.99 1.693 1.977v34.221c.001 1.104-.895 1.999-1.999 1.999zm-4.768-4h2.768v-28.922l-2.115 1.819c-.2.171-.419.321-.652.447v26.656z" fill="#3762cc"/><path d="m200.232 107.704v-30.164c-.497 0-.995-.153-1.351-.458l-3.697-3.169c-.712-.61-1.99-.61-2.702 0l-3.697 3.169c-.356.305-.854.458-1.351.458v30.164z" fill="#eaa97d"/><path d="m200.232 109.704h-12.798c-1.104 0-2-.896-2-2v-30.164c0-1.104.896-2 2-2 .057 0 .097-.011.106-.015l3.64-3.13c1.463-1.253 3.842-1.253 5.305 0l3.68 3.155c-.014-.015.02-.009.067-.009.53 0 1.039.211 1.414.586s.586.884.586 1.414v30.164c0 1.104-.895 1.999-2 1.999zm-10.797-4h8.798v-26.655c-.233-.126-.452-.276-.652-.447l-3.697-3.17c.008.019-.106.019-.155.04l-3.641 3.13c-.2.171-.419.321-.652.447v26.655z" fill="#3762cc"/><path d="m187.434 107.704v-30.164c-.498 0-.995-.153-1.351-.458l-3.697-3.169c-.445-.381-1.11-.524-1.72-.429v34.22z" fill="#eaa97d"/><path d="m187.435 109.704h-6.769c-1.104 0-2-.896-2-2v-34.221c0-.986.719-1.825 1.693-1.977 1.217-.187 2.46.144 3.328.887l3.68 3.155c-.014-.015.02-.009.067-.009 1.104 0 2 .896 2 2v30.164c.001 1.106-.895 2.001-1.999 2.001zm-4.769-4h2.769v-26.655c-.233-.126-.452-.276-.652-.447l-2.116-1.814v28.916z" fill="#3762cc"/><path d="m180.667 107.704v-52.267l-12.208-18.95c-.418-.649-1.5-.649-1.918 0l-12.208 18.95v52.267z" fill="#f9cfcf"/><path d="m173.675 44.584-5.216-8.097c-.418-.649-1.5-.649-1.918 0l-5.216 8.097z" fill="#b9befc"/><path d="m173.675 46.584h-12.351c-.732 0-1.405-.4-1.756-1.042s-.322-1.425.074-2.041l5.217-8.097c.567-.879 1.554-1.404 2.641-1.404s2.074.525 2.641 1.404l5.216 8.097c.396.615.425 1.398.074 2.041s-1.024 1.042-1.756 1.042zm-8.683-4h5.016l-2.508-3.893z" fill="#3762cc"/><path d="m180.666 109.704h-26.333c-1.104 0-2-.896-2-2v-52.267c0-.384.11-.76.318-1.083l12.208-18.95c.567-.879 1.554-1.404 2.641-1.404s2.074.525 2.641 1.404l12.207 18.951c.208.323.318.699.318 1.083v52.267c0 1.104-.895 1.999-2 1.999zm-24.333-4h22.333v-49.678l-11.166-17.335-11.167 17.334z" fill="#3762cc"/><path d="m161.101 107.704v-48.164c-.498 0-.995-.153-1.351-.458l-3.697-3.169c-.445-.381-1.11-.524-1.72-.429v52.22z" fill="#b9befc"/><path d="m161.102 109.704h-6.769c-1.104 0-2-.896-2-2v-52.221c0-.986.719-1.825 1.693-1.977 1.214-.187 2.46.143 3.329.889l3.679 3.153c-.014-.015.02-.009.067-.009 1.104 0 2 .896 2 2v48.164c.001 1.106-.895 2.001-1.999 2.001zm-4.769-4h2.769v-44.655c-.233-.126-.452-.276-.652-.447l-2.116-1.814v46.916z" fill="#3762cc"/><path d="m173.899 107.704v-48.164c-.497 0-.995-.153-1.351-.458l-3.697-3.169c-.712-.61-1.99-.61-2.702 0l-3.697 3.169c-.356.305-.854.458-1.351.458v48.164z" fill="#b9befc"/><path d="m173.898 109.704h-12.797c-1.104 0-2-.896-2-2v-48.164c0-1.104.896-2 2-2 .058 0 .096-.011.105-.015l3.64-3.13c1.463-1.254 3.843-1.252 5.306-.001l3.68 3.155c-.014-.015.019-.009.066-.009 1.104 0 2 .896 2 2v48.164c0 1.105-.895 2-2 2zm-10.796-4h8.797v-44.656c-.233-.126-.451-.275-.651-.447l-3.697-3.17c.008.019-.107.019-.156.04l-3.64 3.13c-.2.171-.419.321-.652.447v44.656z" fill="#3762cc"/><path d="m180.667 107.704v-52.22c-.61-.095-1.275.048-1.72.429l-3.697 3.169c-.356.305-.854.458-1.351.458v48.164z" fill="#b9befc"/><path d="m180.666 109.704h-6.768c-1.104 0-2-.896-2-2v-48.164c0-1.104.896-2 2-2 .058 0 .097-.011.107-.015l3.639-3.13c.87-.745 2.108-1.077 3.329-.888.974.151 1.692.99 1.692 1.976v52.221c.001 1.105-.894 2-1.999 2zm-4.768-4h2.768v-46.921l-2.114 1.818c-.2.172-.419.321-.653.448v44.655z" fill="#3762cc"/><path d="m128 107.704v-62.267l-12.208-18.95c-.418-.649-1.5-.649-1.918 0l-12.208 18.95v62.267z" fill="#f9cfcf"/><path d="m121.008 34.584-5.216-8.097c-.418-.649-1.5-.649-1.918 0l-5.216 8.097z" fill="#6bdddd"/><path d="m121.009 36.584h-12.351c-.732 0-1.405-.4-1.756-1.042s-.322-1.425.074-2.041l5.216-8.097c.566-.879 1.554-1.404 2.641-1.404s2.074.525 2.641 1.404l5.217 8.097c.396.615.425 1.398.074 2.041s-1.024 1.042-1.756 1.042zm-8.684-4h5.016l-2.508-3.893z" fill="#3762cc"/><path d="m128 109.704h-26.333c-1.104 0-2-.896-2-2v-62.267c0-.384.11-.76.318-1.083l12.207-18.95c.568-.88 1.555-1.404 2.641-1.404h.002c1.086 0 2.072.525 2.639 1.404l12.208 18.951c.208.323.318.699.318 1.083v62.267c0 1.104-.896 1.999-2 1.999zm-24.333-4h22.333v-59.678l-11.167-17.334-11.166 17.334z" fill="#3762cc"/><path d="m108.435 107.704v-58.164c-.498 0-.995-.153-1.351-.458l-3.697-3.169c-.445-.381-1.11-.524-1.72-.429v62.22z" fill="#6bdddd"/><path d="m128 107.704v-62.22c-.61-.095-1.275.048-1.72.429l-3.697 3.169c-.356.305-.854.458-1.351.458v58.164z" fill="#6bdddd"/><path d="m121.232 107.704v-58.164c-.497 0-.995-.153-1.351-.458l-3.697-3.169c-.712-.61-1.99-.61-2.702 0l-3.697 3.169c-.356.305-.854.458-1.351.458v58.164z" fill="#6bdddd"/><path d="m108.435 109.704h-6.768c-1.104 0-2-.896-2-2v-62.221c0-.986.719-1.825 1.693-1.977 1.215-.188 2.46.144 3.329.889l3.677 3.152c-.011-.015.021-.008.068-.008 1.104 0 2 .896 2 2v58.164c.001 1.106-.895 2.001-1.999 2.001zm-4.768-4h2.768v-54.656c-.234-.126-.453-.276-.653-.448l-2.114-1.813v56.917z" fill="#3762cc"/><path d="m121.232 109.704h-12.798c-1.104 0-2-.896-2-2v-58.164c0-1.104.896-2 2-2 .057 0 .097-.011.106-.015l3.64-3.13c1.463-1.255 3.843-1.254 5.306 0l3.679 3.154c-.015-.015.02-.009.067-.009 1.104 0 2 .896 2 2v58.164c0 1.105-.895 2-2 2zm-10.797-4h8.798v-54.655c-.233-.126-.452-.276-.652-.447l-3.697-3.17c.009.019-.107.019-.155.04l-3.641 3.13c-.2.171-.419.321-.652.447v54.655z" fill="#3762cc"/><path d="m128 109.704h-6.768c-1.104 0-2-.896-2-2v-58.164c0-1.104.896-2 2-2 .057 0 .097-.011.106-.015l3.64-3.13c.868-.744 2.115-1.076 3.328-.888.975.151 1.693.99 1.693 1.977v62.221c.001 1.104-.895 1.999-1.999 1.999zm-4.768-4h2.768v-56.922l-2.115 1.819c-.2.171-.419.321-.652.447v54.656z" fill="#3762cc"/><path d="m101.667 107.704v-34.267l-12.208-18.95c-.418-.649-1.5-.649-1.918 0l-12.208 18.95v34.267z" fill="#f9cfcf"/><path d="m94.675 62.584-5.216-8.097c-.418-.649-1.5-.649-1.918 0l-5.216 8.097z" fill="#ffea92"/><path d="m94.675 64.584h-12.351c-.732 0-1.405-.4-1.756-1.042s-.322-1.425.074-2.041l5.217-8.097c.567-.879 1.554-1.404 2.641-1.404s2.074.525 2.641 1.404l5.216 8.097c.396.615.425 1.398.074 2.041s-1.024 1.042-1.756 1.042zm-8.683-4h5.016l-2.508-3.893z" fill="#3762cc"/><path d="m209 250h-162c-3.309 0-6-2.691-6-6v-132.296c0-3.309 2.691-6 6-6h162c3.309 0 6 2.691 6 6v132.296c0 3.309-2.691 6-6 6zm-162-140.296c-1.103 0-2 .897-2 2v132.296c0 1.103.897 2 2 2h162c1.103 0 2-.897 2-2v-132.296c0-1.103-.897-2-2-2z" fill="#3762cc"/><path d="m101.666 109.704h-26.333c-1.104 0-2-.896-2-2v-34.267c0-.384.11-.76.318-1.083l12.208-18.95c.567-.879 1.554-1.404 2.641-1.404s2.074.525 2.641 1.404l12.207 18.951c.208.323.318.699.318 1.083v34.267c0 1.104-.895 1.999-2 1.999zm-24.333-4h22.333v-31.678l-11.166-17.335-11.167 17.334z" fill="#3762cc"/><path d="m101.667 107.704v-34.22c-.61-.095-1.275.048-1.72.429l-3.697 3.169c-.356.305-.854.458-1.351.458v30.164z" fill="#ffea92"/><path d="m101.666 109.704h-6.768c-1.104 0-2-.896-2-2v-30.164c0-1.104.896-2 2-2 .058 0 .097-.011.107-.015l3.639-3.13c.87-.745 2.109-1.077 3.329-.888.974.151 1.692.99 1.692 1.976v34.221c.001 1.105-.894 2-1.999 2zm-4.768-4h2.768v-28.921l-2.114 1.818c-.2.172-.419.321-.653.448v26.655z" fill="#3762cc"/><path d="m94.899 107.704v-30.164c-.497 0-.995-.153-1.351-.458l-3.697-3.169c-.712-.61-1.99-.61-2.702 0l-3.697 3.169c-.356.305-.854.458-1.351.458v30.164z" fill="#ffea92"/><path d="m94.898 109.704h-12.796c-1.104 0-2-.896-2-2v-30.164c0-1.104.896-2 2-2 .058 0 .096-.011.105-.015l3.64-3.13c1.464-1.255 3.844-1.252 5.306-.001l3.68 3.155c-.015-.015.019-.009.066-.009 1.104 0 2 .896 2 2v30.164c-.001 1.105-.896 2-2.001 2zm-10.796-4h8.797v-26.656c-.233-.126-.451-.275-.651-.447l-3.697-3.17c.008.019-.107.019-.156.04l-3.64 3.13c-.2.171-.419.321-.652.447v26.656z" fill="#3762cc"/><path d="m82.101 107.704v-30.164c-.498 0-.995-.153-1.351-.458l-3.697-3.169c-.445-.381-1.11-.524-1.72-.429v34.22z" fill="#ffea92"/><path d="m82.102 109.704h-6.769c-1.104 0-2-.896-2-2v-34.221c0-.986.719-1.825 1.693-1.977 1.213-.186 2.461.143 3.329.889l3.679 3.153c-.015-.015.02-.009.067-.009 1.104 0 2 .896 2 2v30.164c.001 1.106-.895 2.001-1.999 2.001zm-4.769-4h2.769v-26.655c-.233-.126-.452-.276-.652-.447l-2.116-1.814v28.916z" fill="#3762cc"/><path d="m75.333 107.704v-34.267l-12.208-18.95c-.418-.649-1.5-.649-1.918 0l-12.207 18.95v34.267z" fill="#f9cfcf"/><path d="m55.768 107.704v-30.164c-.498 0-.995-.153-1.351-.458l-3.697-3.169c-.445-.381-1.11-.524-1.72-.429v34.22z" fill="#f9a7a7"/><path d="m68.342 62.584-5.216-8.097c-.418-.649-1.5-.649-1.918 0l-5.216 8.097z" fill="#f9a7a7"/><g fill="#3762cc"><path d="m68.342 64.584h-12.351c-.732 0-1.405-.4-1.756-1.042s-.322-1.425.074-2.041l5.217-8.097c.567-.879 1.553-1.404 2.639-1.404h.002c1.086 0 2.072.524 2.64 1.402l5.217 8.099c.396.615.425 1.398.074 2.041s-1.024 1.042-1.756 1.042zm-8.683-4h5.016l-2.508-3.893z"/><path d="m209 250h-162c-3.309 0-6-2.691-6-6v-132.296c0-3.309 2.691-6 6-6h162c3.309 0 6 2.691 6 6v132.296c0 3.309-2.691 6-6 6zm-162-140.296c-1.103 0-2 .897-2 2v132.296c0 1.103.897 2 2 2h162c1.103 0 2-.897 2-2v-132.296c0-1.103-.897-2-2-2z"/><path d="m55.768 109.704h-6.768c-1.104 0-2-.896-2-2v-34.221c0-.986.719-1.825 1.693-1.977 1.213-.186 2.46.143 3.329.889l3.679 3.153c-.015-.015.019-.009.066-.009 1.104 0 2 .896 2 2v30.164c.001 1.106-.895 2.001-1.999 2.001zm-4.768-4h2.768v-26.656c-.233-.126-.451-.275-.651-.447l-2.117-1.813z"/><path d="m209 250h-162c-3.309 0-6-2.691-6-6v-132.296c0-3.309 2.691-6 6-6h162c3.309 0 6 2.691 6 6v132.296c0 3.309-2.691 6-6 6zm-162-140.296c-1.103 0-2 .897-2 2v132.296c0 1.103.897 2 2 2h162c1.103 0 2-.897 2-2v-132.296c0-1.103-.897-2-2-2z"/><path d="m209 250h-162c-3.309 0-6-2.691-6-6v-132.296c0-3.309 2.691-6 6-6h162c3.309 0 6 2.691 6 6v132.296c0 3.309-2.691 6-6 6zm-162-140.296c-1.103 0-2 .897-2 2v132.296c0 1.103.897 2 2 2h162c1.103 0 2-.897 2-2v-132.296c0-1.103-.897-2-2-2z"/><path d="m209 250h-162c-3.309 0-6-2.691-6-6v-132.296c0-3.309 2.691-6 6-6h162c3.309 0 6 2.691 6 6v132.296c0 3.309-2.691 6-6 6zm-162-140.296c-1.103 0-2 .897-2 2v132.296c0 1.103.897 2 2 2h162c1.103 0 2-.897 2-2v-132.296c0-1.103-.897-2-2-2z"/></g><path d="m75.333 107.704v-34.22c-.61-.095-1.275.048-1.72.429l-3.697 3.169c-.356.305-.854.458-1.351.458v30.164z" fill="#f9a7a7"/><path d="m75.333 109.704h-6.768c-1.104 0-2-.896-2-2v-30.164c0-1.104.896-2 2-2 .058 0 .098-.012.107-.016l3.639-3.129c.869-.745 2.111-1.077 3.328-.888.975.151 1.693.99 1.693 1.977v34.221c.001 1.104-.894 1.999-1.999 1.999zm-4.768-4h2.768v-28.921l-2.114 1.818c-.2.172-.419.321-.653.448v26.655z" fill="#3762cc"/><path d="m75.333 109.704h-26.333c-1.104 0-2-.896-2-2v-34.267c0-.384.11-.76.318-1.083l12.208-18.95c.567-.879 1.553-1.404 2.639-1.404h.002c1.086 0 2.072.524 2.64 1.402l12.208 18.953c.208.323.318.699.318 1.083v34.267c0 1.104-.895 1.999-2 1.999zm-24.333-4h22.333v-31.678l-11.166-17.335-11.167 17.334z" fill="#3762cc"/><path d="m68.566 107.704v-30.164c-.498 0-.995-.153-1.351-.458l-3.697-3.169c-.712-.61-1.99-.61-2.702 0l-3.697 3.169c-.356.305-.854.458-1.351.458v30.164z" fill="#f9a7a7"/><path d="m68.565 109.704h-12.797c-1.104 0-2-.896-2-2v-30.164c0-1.104.896-2 2-2 .058 0 .097-.011.107-.015l3.639-3.13c1.463-1.254 3.843-1.255 5.306 0l3.678 3.153c-.011-.015.021-.008.068-.008 1.104 0 2 .896 2 2v30.164c-.001 1.105-.896 2-2.001 2zm-10.797-4h8.798v-26.656c-.234-.126-.453-.276-.653-.448l-3.696-3.168c.009.019-.107.019-.155.039l-3.64 3.13c-.2.172-.419.321-.653.448v26.655z" fill="#3762cc"/><path d="m209 248h-162c-2.209 0-4-1.791-4-4v-132.296c0-2.209 1.791-4 4-4h162c2.209 0 4 1.791 4 4v132.296c0 2.209-1.791 4-4 4z" fill="#4671c6"/><path d="m177.333 228.321h-98.666c-2.761 0-5-2.239-5-5v-64.617c0-2.761 2.239-5 5-5h98.667c2.761 0 5 2.239 5 5v64.617c-.001 2.762-2.239 5-5.001 5z" fill="#e0ebfc"/><path d="m43 122.092h170v12.956h-170z" fill="#f9a7a7"/><path d="m209 250h-162c-3.309 0-6-2.691-6-6v-132.296c0-3.309 2.691-6 6-6h162c3.309 0 6 2.691 6 6v132.296c0 3.309-2.691 6-6 6zm-162-140.296c-1.103 0-2 .897-2 2v132.296c0 1.103.897 2 2 2h162c1.103 0 2-.897 2-2v-132.296c0-1.103-.897-2-2-2z" fill="#3762cc"/><path d="m177.333 230.321h-98.666c-3.859 0-7-3.14-7-7v-64.617c0-3.86 3.141-7 7-7h98.666c3.859 0 7 3.14 7 7v64.617c0 3.86-3.141 7-7 7zm-98.666-74.617c-1.654 0-3 1.346-3 3v64.617c0 1.654 1.346 3 3 3h98.666c1.654 0 3-1.346 3-3v-64.617c0-1.654-1.346-3-3-3z" fill="#3762cc"/><path d="m167 185.513h-78c-2.209 0-4-1.791-4-4v-9c0-2.209 1.791-4 4-4h78c2.209 0 4 1.791 4 4v9c0 2.209-1.791 4-4 4z" fill="#a4c9ff"/><path d="m167 213.513h-78c-2.209 0-4-1.791-4-4v-9c0-2.209 1.791-4 4-4h78c2.209 0 4 1.791 4 4v9c0 2.209-1.791 4-4 4z" fill="#a4c9ff"/><path d="m154.333 107.704v-80.267l-12.208-18.95c-.418-.649-1.5-.649-1.918 0l-12.207 18.95v80.267z" fill="#f9cfcf"/><path d="m147.342 16.584-5.216-8.097c-.418-.649-1.5-.649-1.918 0l-5.216 8.097z" fill="#a4c9ff"/><path d="m154.333 109.704h-26.333c-1.104 0-2-.896-2-2v-80.267c0-.384.11-.76.318-1.083l12.207-18.95c.569-.88 1.555-1.404 2.641-1.404h.002c1.086 0 2.072.525 2.639 1.404l12.208 18.951c.208.323.318.699.318 1.083v80.267c0 1.104-.895 1.999-2 1.999zm-24.333-4h22.333v-77.678l-11.167-17.334-11.166 17.333z" fill="#3762cc"/><path d="m154.333 107.704v-80.22c-.61-.095-1.275.048-1.72.429l-3.697 3.169c-.356.305-.854.458-1.351.458v76.164z" fill="#a4c9ff"/><path d="m154.333 109.704h-6.768c-1.104 0-2-.896-2-2v-76.164c0-1.104.896-2 2-2 .057 0 .097-.011.106-.015l3.64-3.13c.868-.744 2.115-1.074 3.328-.888.975.151 1.693.99 1.693 1.977v80.221c.001 1.104-.894 1.999-1.999 1.999zm-4.768-4h2.768v-74.922l-2.115 1.819c-.2.171-.419.321-.652.447v72.656z" fill="#3762cc"/><path d="m147.565 107.704v-76.164c-.497 0-.995-.153-1.351-.458l-3.697-3.169c-.712-.61-1.99-.61-2.702 0l-3.697 3.169c-.356.305-.854.458-1.351.458v76.164z" fill="#a4c9ff"/><path d="m147.565 109.704h-12.798c-1.104 0-2-.896-2-2v-76.164c0-1.104.896-2 2-2 .058 0 .097-.011.107-.015l3.639-3.13c1.462-1.254 3.842-1.255 5.306 0l3.678 3.153c-.011-.015.022-.008.068-.008 1.104 0 2 .896 2 2v76.164c0 1.105-.895 2-2 2zm-10.797-4h8.798v-72.656c-.234-.126-.453-.276-.653-.448l-3.696-3.168c.009.019-.107.019-.155.039l-3.64 3.13c-.2.172-.419.321-.653.448v72.655z" fill="#3762cc"/><path d="m134.768 107.704v-76.164c-.498 0-.995-.153-1.351-.458l-3.697-3.169c-.445-.381-1.11-.524-1.72-.429v80.22z" fill="#a4c9ff"/><path d="m134.768 109.704h-6.768c-1.104 0-2-.896-2-2v-80.221c0-.986.719-1.825 1.693-1.977 1.215-.186 2.46.143 3.329.889l3.677 3.152c-.012-.015.021-.008.068-.008 1.104 0 2 .896 2 2v76.164c.001 1.106-.895 2.001-1.999 2.001zm-4.768-4h2.768v-72.656c-.234-.126-.453-.276-.653-.448l-2.115-1.812z" fill="#3762cc"/><path d="m147.342 18.584h-12.351c-.732 0-1.405-.4-1.756-1.042s-.322-1.425.074-2.041l5.217-8.097c.567-.879 1.553-1.404 2.639-1.404h.002c1.086 0 2.072.524 2.64 1.402l5.217 8.099c.396.615.425 1.398.074 2.041s-1.024 1.042-1.756 1.042zm-8.683-4h5.016l-2.508-3.893z" fill="#3762cc"/></svg>