<svg id="Layer_1" enable-background="new 0 0 256 256" height="512" viewBox="0 0 256 256" width="512" xmlns="http://www.w3.org/2000/svg"><path d="m208.5 137.698h-161c-6.627 0-12-5.373-12-12v-104.167c0-6.627 5.373-12 12-12h161c6.627 0 12 5.373 12 12v104.167c0 6.627-5.373 12-12 12z" fill="#6bdddd"/><path d="m169.5 180.531h-83c-3.314 0-6-2.686-6-6 0-3.314 2.686-6 6-6h83c3.314 0 6 2.686 6 6 0 3.314-2.686 6-6 6z" fill="#e0ebfc"/><path d="m100.989 137.698-10.322 30.833h34.333 6 34.333l-10.322-30.833z" fill="#a4c9ff"/><path d="m220.5 125.698v-13.833h-185v13.833c0 6.627 5.373 12 12 12h161c6.627 0 12-5.373 12-12z" fill="#e0ebfc"/><circle cx="128" cy="124.782" fill="#f9cfcf" r="6.942"/><path d="m177.304 239.565h-149.666c-3.314 0-6-2.686-6-6v-37.667c0-3.314 2.686-6 6-6h149.667c3.314 0 6 2.686 6 6v37.667c-.001 3.313-2.687 6-6.001 6z" fill="#e0ebfc"/><path d="m42.771 210.065h-4.6c-1.657 0-3-1.343-3-3v-4.6c0-1.657 1.343-3 3-3h4.6c1.657 0 3 1.343 3 3v4.6c0 1.656-1.343 3-3 3z" fill="#a4c9ff"/><path d="m62.771 210.065h-4.6c-1.657 0-3-1.343-3-3v-4.6c0-1.657 1.343-3 3-3h4.6c1.657 0 3 1.343 3 3v4.6c0 1.656-1.343 3-3 3z" fill="#a4c9ff"/><path d="m82.771 210.065h-4.6c-1.657 0-3-1.343-3-3v-4.6c0-1.657 1.343-3 3-3h4.6c1.657 0 3 1.343 3 3v4.6c0 1.656-1.343 3-3 3z" fill="#a4c9ff"/><path d="m102.771 210.065h-4.6c-1.657 0-3-1.343-3-3v-4.6c0-1.657 1.343-3 3-3h4.6c1.657 0 3 1.343 3 3v4.6c0 1.656-1.343 3-3 3z" fill="#a4c9ff"/><path d="m122.771 210.065h-4.6c-1.657 0-3-1.343-3-3v-4.6c0-1.657 1.343-3 3-3h4.6c1.657 0 3 1.343 3 3v4.6c0 1.656-1.343 3-3 3z" fill="#a4c9ff"/><path d="m122.771 230.065h-4.6c-1.657 0-3-1.343-3-3v-4.6c0-1.657 1.343-3 3-3h4.6c1.657 0 3 1.343 3 3v4.6c0 1.656-1.343 3-3 3z" fill="#a4c9ff"/><path d="m102.771 230.065h-44.717c-1.657 0-3-1.343-3-3v-4.6c0-1.657 1.343-3 3-3h44.717c1.657 0 3 1.343 3 3v4.6c0 1.656-1.343 3-3 3z" fill="#a4c9ff"/><path d="m42.771 230.065h-4.6c-1.657 0-3-1.343-3-3v-4.6c0-1.657 1.343-3 3-3h4.6c1.657 0 3 1.343 3 3v4.6c0 1.656-1.343 3-3 3z" fill="#a4c9ff"/><path d="m166.771 210.065h-4.6c-1.657 0-3-1.343-3-3v-4.6c0-1.657 1.343-3 3-3h4.6c1.657 0 3 1.343 3 3v4.6c0 1.656-1.343 3-3 3z" fill="#a4c9ff"/><path d="m166.771 230.065h-4.6c-1.657 0-3-1.343-3-3v-4.6c0-1.657 1.343-3 3-3h4.6c1.657 0 3 1.343 3 3v4.6c0 1.656-1.343 3-3 3z" fill="#a4c9ff"/><path d="m146.131 210.065h-6.637c-1.657 0-3-1.343-3-3v-4.6c0-1.657 1.343-3 3-3h6.637c1.657 0 3 1.343 3 3v4.6c0 1.656-1.343 3-3 3z" fill="#a4c9ff"/><path d="m146.131 230.065h-6.637c-1.657 0-3-1.343-3-3v-4.6c0-1.657 1.343-3 3-3h6.637c1.657 0 3 1.343 3 3v4.6c0 1.656-1.343 3-3 3z" fill="#a4c9ff"/><path d="m215.576 246.469h-3.914c-10.375 0-18.786-8.411-18.786-18.786v-23.945c0-11.456 9.287-20.743 20.743-20.743 11.456 0 20.743 9.287 20.743 20.743v23.945c0 10.375-8.41 18.786-18.786 18.786z" fill="#e0ebfc"/><path d="m192.876 203.737v5.601h41.487v-5.601c0-11.456-9.287-20.743-20.743-20.743-11.457 0-20.744 9.287-20.744 20.743z" fill="#e0ebfc"/><path d="m215.576 248.469h-3.914c-11.462 0-20.786-9.324-20.786-20.786v-23.945c0-12.541 10.202-22.743 22.743-22.743s22.743 10.202 22.743 22.743v23.945c0 11.462-9.324 20.786-20.786 20.786zm-1.957-63.475c-10.335 0-18.743 8.408-18.743 18.743v23.945c0 9.256 7.53 16.786 16.786 16.786h3.914c9.256 0 16.786-7.53 16.786-16.786v-23.945c0-10.335-8.408-18.743-18.743-18.743z" fill="#3762cc"/><path d="m234.362 211.338h-41.486c-1.104 0-2-.896-2-2v-5.601c0-12.541 10.202-22.743 22.743-22.743s22.743 10.202 22.743 22.743v5.601c0 1.104-.895 2-2 2zm-39.486-4h37.486v-3.601c0-10.335-8.408-18.743-18.743-18.743s-18.743 8.408-18.743 18.743z" fill="#3762cc"/><path d="m213.619 211.338c-1.104 0-2-.896-2-2v-26.344c0-1.104.896-2 2-2s2 .896 2 2v26.344c0 1.104-.895 2-2 2z" fill="#3762cc"/><path d="m213.515 202.389c-1.375 0-2.489-1.114-2.489-2.489v-7.468c0-1.375 1.114-2.489 2.489-2.489 1.375 0 2.489 1.114 2.489 2.489v7.468c.001 1.375-1.114 2.489-2.489 2.489z" fill="#a4c9ff"/><path d="m213.516 204.389c-2.476 0-4.489-2.014-4.489-4.489v-7.467c0-2.476 2.014-4.489 4.489-4.489s4.489 2.014 4.489 4.489v7.467c0 2.475-2.014 4.489-4.489 4.489zm0-12.446c-.27 0-.489.22-.489.489v7.467c0 .27.22.489.489.489s.489-.22.489-.489v-7.467c0-.269-.22-.489-.489-.489z" fill="#3762cc"/><path d="m171.152 99.407h-86.304c-3.245 0-5.876-2.631-5.876-5.876v-65.37c0-3.245 2.631-5.876 5.876-5.876h86.303c3.245 0 5.876 2.631 5.876 5.876v65.37c.001 3.245-2.63 5.876-5.875 5.876z" fill="#e0ebfc"/><path d="m78.972 28.161v8.079h98.055v-8.079c0-3.245-2.631-5.876-5.876-5.876h-86.303c-3.245 0-5.876 2.631-5.876 5.876z" fill="#4671c6"/><path d="m121.555 72.598h-32.483c-1.369 0-2.479-1.11-2.479-2.479v-23.504c0-1.369 1.11-2.479 2.479-2.479h32.484c1.369 0 2.479 1.11 2.479 2.479v23.504c-.001 1.369-1.11 2.479-2.48 2.479z" fill="#b9befc"/><path d="m166.378 54.97h-34.644c-1.369 0-2.479-1.11-2.479-2.479 0-1.369 1.11-2.479 2.479-2.479h34.644c1.369 0 2.479 1.11 2.479 2.479-.001 1.369-1.11 2.479-2.479 2.479z" fill="#b9befc"/><path d="m166.378 66.722h-34.644c-1.369 0-2.479-1.11-2.479-2.479 0-1.369 1.11-2.479 2.479-2.479h34.644c1.369 0 2.479 1.11 2.479 2.479-.001 1.369-1.11 2.479-2.479 2.479z" fill="#b9befc"/><path d="m166.378 85.819h-77.306c-1.369 0-2.479-1.11-2.479-2.479 0-1.369 1.11-2.479 2.479-2.479h77.306c1.369 0 2.479 1.11 2.479 2.479-.001 1.369-1.11 2.479-2.479 2.479z" fill="#b9befc"/><path d="m148.26 31.221h-2.877c-.406 0-.734-.329-.734-.734v-2.877c0-.406.329-.734.734-.734h2.877c.406 0 .734.329.734.734v2.877c0 .405-.328.734-.734.734z" fill="#f9a7a7"/><path d="m158.543 31.221h-2.877c-.406 0-.734-.329-.734-.734v-2.877c0-.406.329-.734.734-.734h2.877c.406 0 .734.329.734.734v2.877c0 .405-.329.734-.734.734z" fill="#f9a7a7"/><path d="m168.826 31.221h-2.877c-.406 0-.734-.329-.734-.734v-2.877c0-.406.329-.734.734-.734h2.877c.406 0 .734.329.734.734v2.877c0 .405-.329.734-.734.734z" fill="#f9a7a7"/><path d="m153.34 75.598 6.834-6.834c.393-.393.224-1.064-.309-1.223l-9.742-2.909c-.56-.167-1.081.354-.914.914l2.909 9.742c.158.533.829.703 1.222.31z" fill="#f9a7a7"/><g fill="#3762cc"><path d="m171.151 101.407h-86.302c-4.343 0-7.876-3.533-7.876-7.876v-65.37c0-4.343 3.533-7.876 7.876-7.876h86.303c4.343 0 7.876 3.533 7.876 7.876v65.37c-.001 4.343-3.534 7.876-7.877 7.876zm-86.302-77.122c-2.138 0-3.876 1.738-3.876 3.876v65.37c0 2.138 1.738 3.876 3.876 3.876h86.303c2.138 0 3.876-1.738 3.876-3.876v-65.37c0-2.138-1.738-3.876-3.876-3.876z"/><path d="m177.027 38.24h-98.054c-1.104 0-2-.896-2-2v-8.079c0-4.343 3.533-7.876 7.876-7.876h86.303c4.343 0 7.876 3.533 7.876 7.876v8.079c-.001 1.105-.896 2-2.001 2zm-96.054-4h94.055v-6.079c0-2.138-1.738-3.876-3.876-3.876h-86.303c-2.138 0-3.876 1.738-3.876 3.876z"/><path d="m208.5 139.698h-161c-7.72 0-14-6.28-14-14v-104.167c0-7.72 6.28-14 14-14h161c7.72 0 14 6.28 14 14v104.167c0 7.72-6.28 14-14 14zm-161-128.167c-5.514 0-10 4.486-10 10v104.167c0 5.514 4.486 10 10 10h161c5.514 0 10-4.486 10-10v-104.167c0-5.514-4.486-10-10-10z"/><path d="m208.5 139.698h-161c-7.72 0-14-6.28-14-14v-13.833c0-1.104.896-2 2-2h185c1.104 0 2 .896 2 2v13.833c0 7.72-6.28 14-14 14zm-171-25.833v11.833c0 5.514 4.486 10 10 10h161c5.514 0 10-4.486 10-10v-11.833z"/><path d="m169.5 182.531h-83c-4.411 0-8-3.589-8-8s3.589-8 8-8h83c4.411 0 8 3.589 8 8s-3.589 8-8 8zm-83-12c-2.206 0-4 1.794-4 4s1.794 4 4 4h83c2.206 0 4-1.794 4-4s-1.794-4-4-4z"/><path d="m165.333 170.531h-74.666c-.644 0-1.247-.31-1.623-.832-.376-.521-.478-1.192-.273-1.803l10.321-30.833c.272-.815 1.036-1.365 1.896-1.365h54.023c.86 0 1.624.55 1.896 1.365l10.321 30.833c.204.61.103 1.281-.273 1.803-.375.523-.978.832-1.622.832zm-71.888-4h69.109l-8.982-26.833h-51.145z"/><path d="m177.304 241.564h-149.666c-4.411 0-8-3.589-8-8v-37.666c0-4.411 3.589-8 8-8h149.666c4.411 0 8 3.589 8 8v37.666c0 4.412-3.589 8-8 8zm-149.666-49.666c-2.206 0-4 1.794-4 4v37.666c0 2.206 1.794 4 4 4h149.666c2.206 0 4-1.794 4-4v-37.666c0-2.206-1.794-4-4-4z"/><path d="m42.771 212.064h-4.6c-2.757 0-5-2.243-5-5v-4.6c0-2.757 2.243-5 5-5h4.6c2.757 0 5 2.243 5 5v4.6c0 2.757-2.244 5-5 5zm-4.6-10.599c-.552 0-1 .448-1 1v4.6c0 .552.448 1 1 1h4.6c.552 0 1-.448 1-1v-4.6c0-.552-.448-1-1-1z"/><path d="m62.771 212.064h-4.6c-2.757 0-5-2.243-5-5v-4.6c0-2.757 2.243-5 5-5h4.6c2.757 0 5 2.243 5 5v4.6c0 2.757-2.244 5-5 5zm-4.6-10.599c-.552 0-1 .448-1 1v4.6c0 .552.448 1 1 1h4.6c.552 0 1-.448 1-1v-4.6c0-.552-.448-1-1-1z"/><path d="m82.771 212.064h-4.6c-2.757 0-5-2.243-5-5v-4.6c0-2.757 2.243-5 5-5h4.6c2.757 0 5 2.243 5 5v4.6c0 2.757-2.244 5-5 5zm-4.6-10.599c-.552 0-1 .448-1 1v4.6c0 .552.448 1 1 1h4.6c.552 0 1-.448 1-1v-4.6c0-.552-.448-1-1-1z"/><path d="m102.771 212.064h-4.6c-2.757 0-5-2.243-5-5v-4.6c0-2.757 2.243-5 5-5h4.6c2.757 0 5 2.243 5 5v4.6c0 2.757-2.244 5-5 5zm-4.6-10.599c-.552 0-1 .448-1 1v4.6c0 .552.448 1 1 1h4.6c.552 0 1-.448 1-1v-4.6c0-.552-.448-1-1-1z"/><path d="m122.771 212.064h-4.6c-2.757 0-5-2.243-5-5v-4.6c0-2.757 2.243-5 5-5h4.6c2.757 0 5 2.243 5 5v4.6c0 2.757-2.244 5-5 5zm-4.6-10.599c-.552 0-1 .448-1 1v4.6c0 .552.448 1 1 1h4.6c.552 0 1-.448 1-1v-4.6c0-.552-.448-1-1-1z"/><path d="m122.771 232.064h-4.6c-2.757 0-5-2.243-5-5v-4.6c0-2.757 2.243-5 5-5h4.6c2.757 0 5 2.243 5 5v4.6c0 2.757-2.244 5-5 5zm-4.6-10.599c-.552 0-1 .448-1 1v4.6c0 .552.448 1 1 1h4.6c.552 0 1-.448 1-1v-4.6c0-.552-.448-1-1-1z"/><path d="m102.771 232.064h-44.717c-2.757 0-5-2.243-5-5v-4.6c0-2.757 2.243-5 5-5h44.717c2.757 0 5 2.243 5 5v4.6c0 2.757-2.244 5-5 5zm-44.717-10.599c-.552 0-1 .448-1 1v4.6c0 .552.448 1 1 1h44.717c.552 0 1-.448 1-1v-4.6c0-.552-.448-1-1-1z"/><path d="m42.771 232.064h-4.6c-2.757 0-5-2.243-5-5v-4.6c0-2.757 2.243-5 5-5h4.6c2.757 0 5 2.243 5 5v4.6c0 2.757-2.244 5-5 5zm-4.6-10.599c-.552 0-1 .448-1 1v4.6c0 .552.448 1 1 1h4.6c.552 0 1-.448 1-1v-4.6c0-.552-.448-1-1-1z"/><path d="m166.771 212.064h-4.6c-2.757 0-5-2.243-5-5v-4.6c0-2.757 2.243-5 5-5h4.6c2.757 0 5 2.243 5 5v4.6c0 2.757-2.244 5-5 5zm-4.6-10.599c-.552 0-1 .448-1 1v4.6c0 .552.448 1 1 1h4.6c.552 0 1-.448 1-1v-4.6c0-.552-.448-1-1-1z"/><path d="m166.771 232.064h-4.6c-2.757 0-5-2.243-5-5v-4.6c0-2.757 2.243-5 5-5h4.6c2.757 0 5 2.243 5 5v4.6c0 2.757-2.244 5-5 5zm-4.6-10.599c-.552 0-1 .448-1 1v4.6c0 .552.448 1 1 1h4.6c.552 0 1-.448 1-1v-4.6c0-.552-.448-1-1-1z"/><path d="m146.131 212.064h-6.637c-2.757 0-5-2.243-5-5v-4.6c0-2.757 2.243-5 5-5h6.637c2.757 0 5 2.243 5 5v4.6c0 2.757-2.243 5-5 5zm-6.637-10.599c-.552 0-1 .448-1 1v4.6c0 .552.448 1 1 1h6.637c.552 0 1-.448 1-1v-4.6c0-.552-.448-1-1-1z"/><path d="m146.131 232.064h-6.637c-2.757 0-5-2.243-5-5v-4.6c0-2.757 2.243-5 5-5h6.637c2.757 0 5 2.243 5 5v4.6c0 2.757-2.243 5-5 5zm-6.637-10.599c-.552 0-1 .448-1 1v4.6c0 .552.448 1 1 1h6.637c.552 0 1-.448 1-1v-4.6c0-.552-.448-1-1-1z"/><path d="m128 133.724c-4.931 0-8.941-4.012-8.941-8.942s4.011-8.941 8.941-8.941 8.941 4.011 8.941 8.941-4.01 8.942-8.941 8.942zm0-13.884c-2.725 0-4.941 2.217-4.941 4.941 0 2.726 2.217 4.942 4.941 4.942s4.941-2.217 4.941-4.942c0-2.724-2.216-4.941-4.941-4.941z"/></g></svg>