<svg id="Layer_1" enable-background="new 0 0 256 256" height="512" viewBox="0 0 256 256" width="512" xmlns="http://www.w3.org/2000/svg"><path d="m163.95 221.07-2.65-13.862c-2.682 0-4.736 0-7.422 0l-2.65 13.862z" fill="#4671c6"/><path d="m208.88 234.931.034-.228h-56.77c-1.969 0-3.564 1.343-3.564 3v4c0 1.657 1.596 3 3.564 3h66.508z" fill="#e0ebfc"/><path d="m108.985 81.663h-50.119c-1.203 0-2.179.976-2.179 2.179v26.875h54.477v-26.875c0-1.203-.975-2.179-2.179-2.179z" fill="#a4c9ff"/><path d="m111.165 112.718h-54.477c-1.104 0-2-.896-2-2v-26.876c0-2.304 1.875-4.179 4.179-4.179h50.119c2.304 0 4.179 1.875 4.179 4.179v26.875c0 1.105-.896 2.001-2 2.001zm-52.477-4h50.477v-24.876c0-.099-.081-.179-.179-.179h-50.12c-.099 0-.179.08-.179.179v24.876z" fill="#3762cc"/><path d="m123.966 248h-80.081c-3.61 0-6.537-2.927-6.537-6.537v-113.04c0-9.778 7.927-17.705 17.705-17.705h57.746c9.778 0 17.705 7.927 17.705 17.705v113.04c0 3.61-2.927 6.537-6.538 6.537z" fill="#e0ebfc"/><path d="m111.528 100.186h-55.204c-2.206 0-3.995-1.789-3.995-3.995 0-2.206 1.789-3.995 3.995-3.995h55.203c2.206 0 3.995 1.789 3.995 3.995.001 2.206-1.788 3.995-3.994 3.995z" fill="#e0ebfc"/><path d="m37.348 156.859h93.156v45h-93.156z" fill="#4671c6"/><path d="m182.682 13.742c-.107-3.202-2.734-5.742-5.938-5.742-.979 0-39.36 0-38.31 0-3.204 0-5.83 2.54-5.937 5.742l-2.038 61.071c-.045 1.343 1.031 2.456 2.375 2.456 1.134 0 50.225 0 49.512 0 1.343 0 2.42-1.113 2.375-2.456z" fill="#4671c6"/><g fill="#a4c9ff"><path d="m153.878 77.269h7.422v129.939h-7.422z"/><path d="m157.562 67.709c-1.381 0-2.5-1.119-2.5-2.5v-45.149c0-1.381 1.119-2.5 2.5-2.5s2.5 1.119 2.5 2.5v45.149c0 1.38-1.119 2.5-2.5 2.5z"/><path d="m172.391 67.709c-1.334 0-2.441-1.054-2.496-2.399l-1.829-45.149c-.056-1.38 1.017-2.543 2.397-2.599 1.362-.059 2.543 1.017 2.599 2.397l1.829 45.149c.056 1.38-1.017 2.543-2.397 2.599-.035.001-.069.002-.103.002z"/><path d="m142.692 67.709c-.034 0-.069-.001-.103-.002-1.38-.056-2.453-1.22-2.397-2.599l1.829-45.149c.056-1.38 1.23-2.455 2.599-2.397 1.38.056 2.453 1.22 2.397 2.599l-1.829 45.149c-.055 1.345-1.162 2.399-2.496 2.399z"/></g><path d="m182.353 79.269h-49.52c-1.197 0-2.314-.474-3.146-1.334s-1.268-1.993-1.228-3.188l2.038-61.071c.144-4.29 3.607-7.653 7.895-7.675h.021 38.331c4.307 0 7.792 3.372 7.937 7.675l2.039 61.071c.04 1.197-.397 2.329-1.229 3.189-.826.854-1.934 1.327-3.121 1.333-.006 0-.012 0-.017 0zm-43.919-69.269c-2.137 0-3.867 1.673-3.938 3.809l-2.038 61.071c-.004.132.055.222.105.274s.139.115.271.115h49.512c.132 0 .22-.063.27-.115.051-.052.11-.143.106-.275l-2.039-61.07c-.071-2.136-1.801-3.809-3.938-3.809h-38.311z" fill="#3762cc"/><path d="m161.3 209.208h-7.422c-1.104 0-2-.896-2-2v-129.939c0-1.104.896-2 2-2h7.422c1.104 0 2 .896 2 2v129.939c0 1.105-.895 2-2 2zm-5.422-4h3.422v-125.939h-3.422z" fill="#3762cc"/><path d="m166.129 237.62c1.175-.307 1.973-1.481 1.733-2.74l-2.64-13.811h-15.265l-2.64 13.811c-.28 1.465.843 2.822 2.334 2.822 11.812.001 8.002.021 16.478-.082z" fill="#e0ebfc"/><path d="m156.588 239.704c-.588 0-1.276 0-2.103 0l-4.835-.001c-1.309 0-2.538-.579-3.372-1.587-.834-1.009-1.172-2.325-.926-3.61l2.64-13.812c.18-.943 1.004-1.625 1.964-1.625h15.265c.96 0 1.784.682 1.964 1.625l2.64 13.811c.431 2.252-.971 4.471-3.192 5.05-.157.041-.318.063-.48.065l-3.195.04c-2.968.038-3.469.044-6.37.044zm9.541-2.084h.01zm-14.518-14.551-2.33 12.187c-.027.144.028.248.08.311.052.062.144.136.29.136l4.836.001c4.871.004 4.871.002 8.419-.043l2.842-.036c.106-.078.178-.212.148-.369l-2.329-12.187z" fill="#3762cc"/><path d="m123.966 250h-80.081c-4.708 0-8.537-3.83-8.537-8.537v-113.04c0-10.865 8.84-19.705 19.705-19.705h57.746c10.865 0 19.705 8.84 19.705 19.705v113.04c0 4.707-3.83 8.537-8.538 8.537zm-68.913-137.282c-8.66 0-15.705 7.045-15.705 15.705v113.04c0 2.502 2.035 4.537 4.537 4.537h80.081c2.502 0 4.538-2.035 4.538-4.537v-113.04c0-8.66-7.045-15.705-15.705-15.705z" fill="#3762cc"/><path d="m111.527 102.186h-55.203c-3.306 0-5.995-2.689-5.995-5.995s2.689-5.995 5.995-5.995h55.203c3.306 0 5.995 2.689 5.995 5.995s-2.689 5.995-5.995 5.995zm-55.203-7.99c-1.1 0-1.995.895-1.995 1.995s.895 1.995 1.995 1.995h55.203c1.1 0 1.995-.895 1.995-1.995s-.895-1.995-1.995-1.995z" fill="#3762cc"/><path d="m130.504 203.859h-93.156c-1.104 0-2-.896-2-2v-45c0-1.104.896-2 2-2h93.156c1.104 0 2 .896 2 2v45c0 1.104-.896 2-2 2zm-91.156-4h89.156v-41h-89.156z" fill="#3762cc"/><path d="m104.015 188.809h-40.178c-5.219 0-9.45-4.231-9.45-9.45 0-5.219 4.231-9.45 9.45-9.45h40.178c5.219 0 9.45 4.231 9.45 9.45 0 5.219-4.231 9.45-9.45 9.45z" fill="#a4c9ff"/><path d="m163.95 223.069h-12.721c-.596 0-1.161-.266-1.541-.726-.38-.459-.535-1.064-.423-1.65l2.649-13.861c.18-.943 1.004-1.625 1.964-1.625h7.421c.96 0 1.784.682 1.964 1.625l2.65 13.861c.112.585-.043 1.19-.423 1.65-.379.46-.944.726-1.54.726zm-10.303-4h7.884l-1.885-9.861h-4.114z" fill="#3762cc"/></svg>