<svg id="Layer_1" enable-background="new 0 0 256 256" height="512" viewBox="0 0 256 256" width="512" xmlns="http://www.w3.org/2000/svg"><path d="m121.762 237.744h-83.655c-1.121 0-2.03-.909-2.03-2.03v-6.089c0-1.121.909-2.03 2.03-2.03h83.655c1.121 0 2.03.909 2.03 2.03v6.089c-.001 1.122-.909 2.03-2.03 2.03z" fill="#4671c6"/><path d="m37.092 237.744h-27.969c-.56 0-1.015-.454-1.015-1.015v-8.118c0-.56.454-1.015 1.015-1.015h27.969c2.802 0 5.074 2.272 5.074 5.074 0 2.803-2.272 5.074-5.074 5.074z" fill="#e0ebfc"/><path d="m42.982 219.308-7.123 7.123c-1.065 1.065-1.065 2.793 0 3.858s2.793 1.065 3.858 0l7.123-7.123z" fill="#e0ebfc"/><path d="m37.789 233.085c-1.211 0-2.421-.461-3.343-1.383-1.844-1.843-1.844-4.843 0-6.686l7.123-7.123c.78-.781 2.047-.781 2.828 0l3.858 3.858c.375.375.586.884.586 1.414s-.211 1.039-.586 1.414l-7.123 7.123c-.922.922-2.133 1.383-3.343 1.383zm5.193-10.949-5.708 5.708c-.284.284-.284.746 0 1.03.284.283.746.284 1.03 0l5.708-5.708z" fill="#3762cc"/><path d="m106.938 209.069-49.859-49.859c-1.311-1.311-1.311-3.437 0-4.748l133.255-133.256c3.934-3.934 10.312-3.934 14.245 0l40.362 40.362c3.934 3.934 3.934 10.312 0 14.245l-133.254 133.256c-1.311 1.311-3.437 1.311-4.749 0z" fill="#4671c6"/><path d="m89.56 150.471 101.533-101.533c3.515-3.515 9.213-3.515 12.728 0l13.389 13.389c3.515 3.515 3.515 9.213 0 12.728l-101.533 101.533c-3.515 3.515-9.213 3.515-12.728 0l-13.389-13.389c-3.515-3.515-3.515-9.213 0-12.728z" fill="#a4c9ff"/><path d="m104.267 206.398-44.517-44.518-10.981 10.981c-1.639 1.639-1.639 4.297 0 5.936l38.582 38.582c1.639 1.639 4.297 1.639 5.936 0z" fill="#e0ebfc"/><path d="m64.944 194.971-22.555 22.555c-.328.328-.328.859 0 1.187l5.045 5.045c.328.328.859.328 1.187 0l22.555-22.555z" fill="#a4c9ff"/><g fill="#3762cc"><path d="m109.313 212.052c-1.431 0-2.776-.557-3.788-1.569l-49.859-49.859c-2.089-2.089-2.089-5.488 0-7.577l133.254-133.255c4.707-4.708 12.366-4.706 17.073 0l40.362 40.362c4.707 4.707 4.707 12.366 0 17.074l-133.254 133.254c-1.012 1.013-2.357 1.57-3.788 1.57zm88.143-191.792c-2.066 0-4.134.787-5.708 2.36l-133.255 133.255c-.529.529-.529 1.391 0 1.92l49.859 49.859c.513.513 1.407.513 1.92 0l133.255-133.254c3.147-3.148 3.147-8.27 0-11.417l-40.362-40.363c-1.574-1.574-3.642-2.36-5.709-2.36z"/><path d="m109.313 181.219c-2.817 0-5.633-1.072-7.778-3.217l-13.389-13.389c-4.289-4.289-4.289-11.268 0-15.556l101.533-101.533c4.288-4.29 11.268-4.29 15.556 0l13.389 13.389c4.289 4.289 4.289 11.268 0 15.556l-101.533 101.533c-2.144 2.144-4.962 3.217-7.778 3.217zm-19.753-30.748 1.414 1.414c-2.729 2.729-2.729 7.17 0 9.9l13.389 13.389c2.73 2.729 7.17 2.73 9.9 0l101.532-101.533c2.729-2.729 2.729-7.17 0-9.9l-13.389-13.389c-2.73-2.728-7.171-2.729-9.899 0l-101.533 101.533z"/><path d="m90.318 220.605c-1.587 0-3.174-.604-4.382-1.813l-38.582-38.582c-2.416-2.416-2.416-6.348 0-8.764l10.981-10.981c.78-.781 2.048-.781 2.828 0l44.517 44.517c.781.781.781 2.047 0 2.828l-10.98 10.981c-1.207 1.21-2.794 1.814-4.382 1.814zm-30.568-55.896-9.567 9.566c-.856.856-.856 2.251 0 3.107l38.581 38.582c.858.857 2.251.856 3.108 0l9.566-9.567z"/><path d="m48.027 226.003c-.727 0-1.453-.276-2.006-.829l-5.046-5.046c-.536-.535-.832-1.249-.832-2.008s.296-1.472.833-2.008l22.554-22.554c.78-.781 2.048-.781 2.828 0l6.232 6.232c.781.781.781 2.047 0 2.828l-22.555 22.555c-.554.554-1.281.83-2.008.83zm-3.403-7.882 3.404 3.404 20.32-20.32-3.404-3.404zm-.822-.822.001.001c0-.001-.001-.001-.001-.001z"/></g></svg>