<svg id="Layer_1" enable-background="new 0 0 256 256" height="512" viewBox="0 0 256 256" width="512" xmlns="http://www.w3.org/2000/svg"><path d="m152.211 44.664c-59.027 30.113-83.8 93.344-107.754 147.93l12.064 25.872c5.72-2.667 154.826-72.196 160.55-74.866 24.582-11.463 36.441-39.785 27.282-64.814l.185-.086c-26.279-71.94-92.327-34.036-92.327-34.036z" fill="#6bdddd"/><g fill="#e0ebfc"><path d="m101.404 178.759-52.076 24.283 3.248 6.965 69.138-32.24c-6.642 3.099-13.902 3.248-20.31.992z"/><path d="m153.431 120.829c-.502-.897-.985-1.81-1.427-2.757-4.637-9.944-4.963-20.787-1.764-30.439l-17.883 50.258c.895 1.276 1.697 2.641 2.378 4.103 2.856 6.124 3.202 12.771 1.473 18.793z"/><path d="m41.917 221.315h-31.355c-1.105 0-2-.895-2-2v-7.306c0-1.105.895-2 2-2h31.355c1.105 0 2 .895 2 2v7.306c0 1.104-.895 2-2 2z"/></g><circle cx="189.437" cy="100.617" fill="#a4c9ff" r="41.303"/><circle cx="110.338" cy="153.37" fill="#a4c9ff" r="26.92"/><path d="m45.848 195.58-7.749 10.854c-.419.587-.49 1.354-.185 2.007l5.158 11.061c.467 1.001 1.657 1.434 2.658.967l9.631-4.491z" fill="#4671c6"/><path d="m226.87 83.161c-9.64-20.674-34.214-29.618-54.888-19.978s-29.618 34.214-19.978 54.888 34.215 29.618 54.888 19.978c20.674-9.64 29.618-34.214 19.978-54.888zm-26.964 39.905c-12.379 5.772-27.146.397-32.918-11.981s-.398-27.146 11.981-32.918 27.146-.397 32.918 11.982c5.772 12.378.397 27.145-11.981 32.917z" fill="#a4c9ff"/><path d="m189.503 143.917c-16.318 0-31.973-9.261-39.312-25-10.091-21.64-.694-47.455 20.944-57.546s47.456-.696 57.547 20.945c10.091 21.64.694 47.455-20.944 57.545-5.901 2.753-12.116 4.056-18.235 4.056zm-.127-82.601c-5.555 0-11.191 1.182-16.549 3.68-19.641 9.159-28.169 32.59-19.011 52.23 9.16 19.642 32.591 28.168 52.23 19.01 19.641-9.159 28.169-32.589 19.011-52.23-6.661-14.283-20.87-22.69-35.681-22.69z" fill="#3762cc"/><path d="m189.465 136.615c-13.941 0-26.755-8.16-32.646-20.789-8.385-17.986-.576-39.44 17.407-47.826 4.813-2.244 9.922-3.382 15.183-3.382 13.941 0 26.755 8.16 32.646 20.789 8.386 17.985.576 39.44-17.407 47.826-4.814 2.245-9.922 3.382-15.183 3.382zm-29.486-52.974c-6.065 10.524-6.054 23.484.028 33.999s17.311 16.985 29.458 16.975 23.365-6.499 29.43-17.024c6.065-10.524 6.054-23.484-.028-33.999s-17.311-16.985-29.458-16.975-23.365 6.5-29.43 17.024z" fill="#e0ebfc"/><path d="m189.465 130.495c-11.572 0-22.209-6.773-27.099-17.256-6.959-14.927-.478-32.733 14.447-39.693 3.997-1.864 8.234-2.808 12.596-2.808 11.572 0 22.21 6.773 27.099 17.256 6.96 14.927.479 32.733-14.447 39.693-3.998 1.864-8.235 2.808-12.596 2.808zm25.23-41.656c-4.563-9.781-14.487-16.101-25.286-16.101-4.066 0-8.021.882-11.75 2.621-13.926 6.494-19.974 23.108-13.48 37.035 4.563 9.781 14.487 16.101 25.286 16.101 4.066 0 8.021-.882 11.75-2.621 13.927-6.494 19.973-23.108 13.48-37.035z" fill="#e0ebfc"/><path d="m110.382 182.289c-10.897 0-21.353-6.185-26.254-16.696-6.739-14.453-.465-31.694 13.987-38.433 14.454-6.74 31.692-.464 38.434 13.988 6.739 14.452.464 31.693-13.988 38.433-3.942 1.838-8.092 2.708-12.179 2.708zm-.082-53.837c-3.522 0-7.097.749-10.493 2.333-12.454 5.807-17.86 20.664-12.054 33.117 5.808 12.454 20.667 17.86 33.116 12.054 12.454-5.808 17.861-20.664 12.055-33.117-4.224-9.056-13.235-14.387-22.624-14.387z" fill="#3762cc"/><path d="m56.521 220.466c-.231 0-.463-.04-.684-.121-.499-.181-.905-.553-1.129-1.034l-12.064-25.872c-.243-.521-.25-1.122-.019-1.649 1.367-3.116 2.737-6.261 4.116-9.426 22.619-51.905 48.253-110.733 104.519-139.46 1.755-.999 30.6-17.002 58.189-6.938 16.542 6.034 28.979 20.182 36.967 42.049.109.3.143.611.108.91 8.925 25.718-3.516 54.787-28.608 66.488l-160.55 74.866c-.267.124-.556.187-.845.187zm-9.87-27.897 10.837 23.24 158.736-74.021c23.497-10.957 35.027-38.328 26.25-62.313-.107-.293-.142-.596-.112-.889-7.57-20.251-19.102-33.323-34.283-38.862-26.135-9.533-54.588 6.512-54.873 6.675-.028.016-.057.032-.086.047-55.017 28.067-80.356 86.215-102.712 137.517-1.258 2.888-2.509 5.758-3.757 8.606zm105.56-147.905h.01z" fill="#3762cc"/><path d="m44.887 222.659c-.461 0-.924-.081-1.37-.243-1.004-.366-1.806-1.1-2.257-2.068l-5.158-11.061c-.608-1.305-.466-2.843.37-4.015l7.749-10.854c.414-.579 1.102-.889 1.812-.83.708.065 1.328.502 1.629 1.146l9.512 20.399c.225.481.248 1.031.066 1.529-.181.499-.553.904-1.034 1.128l-9.631 4.491c-.538.252-1.112.378-1.688.378zm.597-23.127-5.757 8.064 5.157 11.061 7.817-3.646z" fill="#3762cc"/><path d="m110.354 174.251c-8.086 0-15.519-4.733-18.935-12.058-2.353-5.046-2.597-10.713-.688-15.958s5.739-9.429 10.785-11.782c2.792-1.302 5.754-1.962 8.805-1.962 8.087 0 15.521 4.733 18.937 12.059 2.356 5.053 2.604 10.721.696 15.961-1.907 5.239-5.741 9.422-10.794 11.779-2.792 1.301-5.755 1.961-8.806 1.961zm-.033-39.761c-2.756 0-5.435.597-7.959 1.775-4.562 2.127-8.024 5.91-9.751 10.654-1.727 4.743-1.506 9.867.621 14.429 3.09 6.624 9.811 10.904 17.122 10.904 2.757 0 5.436-.597 7.96-1.775 4.569-2.131 8.036-5.913 9.761-10.651 1.724-4.737 1.5-9.863-.63-14.431-3.09-6.625-9.81-10.905-17.124-10.905z" fill="#e0ebfc"/><path d="m110.353 168.814c-5.998 0-11.508-3.504-14.037-8.927-3.603-7.728-.247-16.945 7.479-20.548 2.061-.961 4.251-1.448 6.512-1.448 5.998 0 11.508 3.504 14.036 8.927 1.743 3.737 1.924 7.935.51 11.821-1.414 3.885-4.251 6.985-7.988 8.728-2.061.96-4.252 1.447-6.512 1.447z" fill="#4671c6"/><path d="m121.009 150.462-3.704 1.727c-.948.442-2.075.032-2.517-.916s-.032-2.075.916-2.517l3.704-1.727c-2.66-3.823-7.474-5.575-11.969-4.356l1.727 3.704c.442.948.032 2.075-.916 2.517s-2.075.032-2.517-.916l-1.727-3.704c-3.823 2.661-5.574 7.474-4.356 11.969l3.704-1.727c.948-.442 2.075-.032 2.517.916s.032 2.075-.916 2.517l-3.704 1.727c2.66 3.823 7.474 5.575 11.969 4.356l-1.727-3.704c-.442-.948-.032-2.075.916-2.517s2.075-.032 2.517.916l1.727 3.704c3.822-2.66 5.574-7.473 4.356-11.969z" fill="#ffea92"/><path d="m211.886 90.148c-5.772-12.379-20.54-17.754-32.918-11.982-12.379 5.772-17.753 20.54-11.981 32.918s20.54 17.754 32.918 11.981c12.378-5.771 17.753-20.538 11.981-32.917zm-11.911 25.6-2.879-6.174c-.737-1.58-2.615-2.264-4.195-1.527s-2.264 2.615-1.527 4.195l2.879 6.174c-7.492 2.03-15.514-.89-19.948-7.261l6.173-2.879c1.58-.737 2.264-2.615 1.527-4.195s-2.615-2.263-4.195-1.527l-6.173 2.879c-2.03-7.492.889-15.514 7.26-19.948l2.879 6.174c.737 1.58 2.615 2.264 4.195 1.527s2.264-2.615 1.527-4.195l-2.879-6.174c7.492-2.031 15.514.89 19.948 7.261l-6.174 2.879c-1.58.737-2.264 2.615-1.527 4.195s2.615 2.264 4.195 1.527l6.174-2.879c2.031 7.492-.889 15.514-7.26 19.948z" fill="#4671c6"/><path d="m201.063 98.678c-1.58.737-3.458.053-4.195-1.527s-.053-3.458 1.527-4.195l6.174-2.879c-4.434-6.371-12.456-9.292-19.948-7.261l2.879 6.174c.737 1.58.053 3.458-1.527 4.195s-3.458.053-4.195-1.527l-2.879-6.174c-6.371 4.434-9.29 12.456-7.26 19.948l6.173-2.879c1.58-.737 3.458-.053 4.195 1.527s.053 3.458-1.527 4.195l-6.173 2.879c4.434 6.371 12.456 9.291 19.948 7.261l-2.879-6.174c-.737-1.58-.053-3.458 1.527-4.195s3.458-.053 4.195 1.527l2.879 6.174c6.371-4.434 9.291-12.457 7.261-19.948z" fill="#ffea92"/></svg>