<svg id="Layer_1" enable-background="new 0 0 256 256" height="512" viewBox="0 0 256 256" width="512" xmlns="http://www.w3.org/2000/svg"><path d="m94.135 209.117v-55.197l-7.967 8.204c-1.956 2.015-3.05 4.711-3.05 7.519v19.801c0 2.146.639 4.242 1.836 6.021z" fill="#f9cfcf"/><path d="m165.237 153.031h-1.928l9.67-47.403c1.16-5.688-2.51-11.238-8.197-12.398l-.696-.143c-5.687-1.16-11.238 2.51-12.398 8.197l-10.556 51.747h-2.207v-69.521c0-5.805-4.705-10.51-10.51-10.51h-.711c-5.804 0-10.51 4.705-10.51 10.51v69.521h-1.391l-11.372-55.747c-1.16-5.688-6.711-9.357-12.398-8.197l-.696.143c-5.687 1.16-9.357 6.711-8.197 12.398l10.996 53.9v53.589l13.741 25.047h.258v13.836h58.108v-16.263l6.784-12.365c3.689-6.725 5.626-14.299 5.626-22.003v-30.923c0-7.409-6.007-13.415-13.416-13.415z" fill="#f9cfcf"/><path d="m128.84 8h-1.561c-14.117 0-25.561 11.444-25.561 25.561v.001c0 12.025 8.307 22.106 19.495 24.83l5.294 10.007c.659 1.246 2.445 1.246 3.104 0l5.294-10.007c11.188-2.724 19.495-12.805 19.495-24.83v-.001c.001-14.117-11.443-25.561-25.56-25.561z" fill="#f9cfcf"/><path d="m192.018 26.461-1.461-.549c-13.216-4.962-27.952 1.731-32.914 14.947-4.226 11.259.008 23.616 9.525 30.099l1.44 11.229c.179 1.398 1.851 2.026 2.906 1.09l8.473-7.508c11.431 1.382 22.751-5.136 26.978-16.395 4.962-13.216-1.731-27.952-14.947-32.913z" fill="#a4c9ff"/><path d="m98.057 40.126c-5.359-13.06-20.291-19.303-33.351-13.943l-1.444.593c-13.06 5.359-19.303 20.292-13.943 33.352 4.566 11.126 16.078 17.297 27.462 15.57l8.697 7.248c1.083.903 2.735.226 2.872-1.178l1.099-11.268c9.315-6.769 13.173-19.248 8.608-30.374z" fill="#f9a7a7"/><path d="m75.551 34.497c-1.137 0-1.177.161-2.636 2.194-3.162 4.403-6.527 4.833-8.372 6.216-1.341 1.006-.393 3.58 1.443 3.58 1.129 0 3.323-1.251 6.582-3.753v17.513c0 1.026.237 1.803.712 2.329.475.525 1.104.789 1.886.789 1.758 0 2.637-1.29 2.637-3.868v-22.036c0-1.577-.698-2.964-2.252-2.964z" fill="#e0ebfc"/><path d="m124.807 42.145c3.761-5.713 15.607-9.941 12.076-18.734-3.286-8.191-18.62-6.23-18.62 2.896 0 2.612 2.889 2.904 3.897 1.675.378-.462.718-1.123 1.02-1.982 3.051-8.703 15.861-.891 4.224 7.332-1.001.676-9.218 7.437-9.218 10.682 0 1.356 1.038 2.675 3.06 2.675 13.804 0 16.685.799 16.685-2.252.001-2.954-3.429-2.292-13.124-2.292z" fill="#f9a7a7"/><path d="m187.433 47.569c2.611-2.191 3.233-3.961 3.233-5.985 0-8.346-13.321-9.174-16.907-2.627-2.337 4.267 2.408 5.403 3.3 3.531.528-1.208.958-2.252 1.559-2.982 1.785-2.175 6.909-1.534 6.909 2.425 0 2.715-2.101 4.021-4.33 4.021-.992 0-2.078-.064-2.848.568-1.175.962-1.015 3.493 1.521 3.493 1.118 0 3.848-.753 5.658 1.125 2.63 2.735 1.014 8.535-3.618 8.535-2.58 0-3.917-1.39-5.369-5.272-.71-2.031-5.859-1.332-3.608 3.599 2.222 4.863 8.182 6.628 13.086 4.744 6.423-2.472 8.981-11.1 1.414-15.175z" fill="#ffea92"/><g fill="#3762cc"><path d="m94.135 211.117c-.653 0-1.281-.321-1.66-.884l-9.18-13.652c-1.424-2.117-2.177-4.586-2.177-7.138v-19.801c0-3.346 1.284-6.51 3.615-8.911l7.696-7.926c.517-.532 1.286-.731 1.997-.526.711.209 1.25.794 1.397 1.521l.271 1.329c.027.131.041.266.041.399v53.589c0 .88-.575 1.656-1.417 1.913-.192.059-.388.087-.583.087zm-2-52.266-4.532 4.667c-1.602 1.65-2.484 3.826-2.484 6.125v19.801c0 1.754.517 3.45 1.496 4.905l5.521 8.21v-43.708z"/><path d="m166.243 250h-58.108c-1.104 0-2-.896-2-2v-12.853c-.004-.007-.008-.015-.012-.021l-13.741-25.047c-.162-.295-.247-.626-.247-.962v-53.387l-10.955-53.703c-1.379-6.759 2.998-13.379 9.756-14.758l.695-.142c3.276-.668 6.614-.021 9.401 1.821 2.787 1.843 4.69 4.661 5.358 7.936l8.804 43.153v-56.527c0-6.897 5.612-12.51 12.51-12.51h.71c6.898 0 12.51 5.612 12.51 12.51v60.53l8.804-43.155c1.379-6.76 8.001-11.13 14.758-9.758l.698.144c6.757 1.378 11.134 7.998 9.755 14.757l-9.182 45.013c8.261.274 14.896 7.08 14.896 15.406v30.923c0 8.021-2.031 15.962-5.873 22.965l-6.537 11.916v15.749c0 1.104-.895 2-2 2zm-56.108-4h54.108v-14.263c0-.336.085-.667.247-.962l6.784-12.365c3.519-6.415 5.379-13.691 5.379-21.041v-30.923c0-6.294-5.121-11.415-11.416-11.415h-1.928c-.601 0-1.169-.27-1.549-.735-.379-.465-.53-1.076-.41-1.664l9.67-47.403c.454-2.228.014-4.499-1.239-6.395s-3.17-3.19-5.398-3.645l-.698-.144c-2.224-.451-4.496-.014-6.393 1.24-1.896 1.254-3.19 3.171-3.645 5.397l-10.556 51.747c-.19.932-1.009 1.601-1.959 1.601h-2.207c-1.104 0-2-.896-2-2v-69.52c0-4.692-3.817-8.51-8.51-8.51h-.71c-4.692 0-8.51 3.817-8.51 8.51v69.521c0 1.104-.896 2-2 2h-1.391c-.951 0-1.77-.669-1.959-1.601l-11.373-55.747c-.455-2.227-1.749-4.144-3.645-5.397s-4.167-1.694-6.394-1.239l-.695.142c-4.599.938-7.576 5.442-6.639 10.04l10.996 53.9c.027.131.041.266.041.399v53.076l13.109 23.896c.537.358.89.97.89 1.664z"/><path d="m128.06 71.333c-.001 0-.001 0 0 0-1.396 0-2.668-.767-3.32-1.999l-4.883-9.229c-11.903-3.312-20.139-14.099-20.139-26.543 0-15.198 12.364-27.562 27.561-27.562h1.561c15.197 0 27.561 12.363 27.561 27.561 0 12.445-8.236 23.232-20.139 26.544l-4.882 9.229c-.653 1.233-1.925 1.999-3.32 1.999zm-.781-61.333c-12.992 0-23.561 10.569-23.561 23.561 0 10.9 7.389 20.313 17.968 22.888.556.136 1.027.502 1.294 1.008l5.079 9.6 5.078-9.6c.268-.506.739-.872 1.295-1.008 10.58-2.575 17.968-11.986 17.968-22.887.001-12.993-10.568-23.562-23.56-23.562z"/><path d="m170.352 85.721c-.444 0-.892-.079-1.323-.241-1.306-.49-2.228-1.654-2.405-3.038l-1.328-10.356c-9.979-7.284-13.899-20.277-9.526-31.929 5.341-14.226 21.261-21.461 35.489-16.116l1.462.549c6.892 2.587 12.364 7.703 15.408 14.406s3.296 14.19.708 21.083c-4.374 11.649-15.877 18.861-28.183 17.771l-7.815 6.925c-.698.62-1.586.946-2.487.946zm11.247-59.441c-9.54 0-18.538 5.837-22.083 15.282-3.83 10.205-.22 21.613 8.779 27.742.473.322.785.831.858 1.399l1.381 10.771 8.128-7.202c.428-.379.995-.558 1.566-.488 10.807 1.294 21.035-4.907 24.865-15.112 2.212-5.892 1.997-12.293-.605-18.022-2.602-5.73-7.28-10.104-13.172-12.316l-1.462-.549c-2.718-1.02-5.51-1.505-8.255-1.505z"/><path d="m86.599 85.354c-.863 0-1.715-.299-2.403-.873l-8.021-6.684c-12.272 1.449-23.983-5.397-28.708-16.911-2.795-6.81-2.771-14.302.069-21.094s8.155-12.072 14.965-14.867l1.444-.593c6.81-2.796 14.302-2.771 21.094.069s12.072 8.154 14.867 14.966c4.725 11.513 1.2 24.618-8.554 32.201l-1.012 10.393c-.135 1.389-1.021 2.58-2.313 3.109-.462.191-.946.284-1.428.284zm-9.819-11.657c.465 0 .918.162 1.28.464l8.343 6.952 1.054-10.809c.056-.569.353-1.088.815-1.424 8.809-6.399 12.072-17.912 7.934-27.996-2.389-5.822-6.903-10.365-12.709-12.793s-12.21-2.447-18.033-.059l-1.444.593c-5.822 2.389-10.365 6.902-12.793 12.709-2.427 5.807-2.448 12.211-.059 18.032 4.137 10.084 14.545 15.98 25.312 14.353.1-.014.2-.022.3-.022z"/></g></svg>