<svg id="Layer_1" enable-background="new 0 0 256 256" height="512" viewBox="0 0 256 256" width="512" xmlns="http://www.w3.org/2000/svg"><path d="m242 191.434h-228c-3.314 0-6-2.686-6-6v-148c0-3.314 2.686-6 6-6h228c3.314 0 6 2.686 6 6v148c0 3.313-2.686 6-6 6z" fill="#f9a7a7"/><path d="m242 193.434h-228c-4.411 0-8-3.589-8-8v-148c0-4.411 3.589-8 8-8h228c4.411 0 8 3.589 8 8v148c0 4.411-3.589 8-8 8zm-228-160c-2.206 0-4 1.794-4 4v148c0 2.206 1.794 4 4 4h228c2.206 0 4-1.794 4-4v-148c0-2.206-1.794-4-4-4z" fill="#3762cc"/><path d="m230.934 61.09c-7.542 0-13.656-6.114-13.656-13.656h-179.622c0 7.542-6.114 13.656-13.656 13.656v100.688c7.542 0 13.656 6.114 13.656 13.656h179.621c0-7.542 6.114-13.656 13.656-13.656.36 0 .713.026 1.066.054v-100.796c-.352.027-.705.054-1.065.054z" fill="#e0ebfc"/><path d="m217.277 177.434h-179.621c-1.104 0-2-.896-2-2 0-6.428-5.229-11.656-11.656-11.656-1.104 0-2-.896-2-2v-100.688c0-1.104.896-2 2-2 6.427 0 11.656-5.229 11.656-11.656 0-1.104.896-2 2-2h179.621c1.104 0 2 .896 2 2 0 6.428 5.229 11.656 11.656 11.656.309 0 .61-.024.912-.048.554-.041 1.104.147 1.513.526s.642.911.642 1.468v100.795c0 .558-.232 1.089-.642 1.468-.409.38-.959.571-1.513.526-.302-.023-.604-.048-.912-.048-6.428 0-11.656 5.229-11.656 11.656 0 1.105-.895 2.001-2 2.001zm-177.748-4h175.875c.946-7.389 7.063-13.184 14.596-13.629v-96.742c-7.532-.445-13.649-6.24-14.596-13.629h-175.875c-.901 7.036-6.492 12.628-13.529 13.529v96.941c7.037.902 12.628 6.493 13.529 13.53z" fill="#3762cc"/><g fill="#a4c9ff"><path d="m188.5 77.884h-121c-1.105 0-2-.895-2-2v-12c0-1.105.895-2 2-2h121c1.105 0 2 .895 2 2v12c0 1.105-.895 2-2 2z"/><path d="m208 104.983h-160c-2.761 0-5-2.239-5-5 0-2.761 2.239-5 5-5h160c2.761 0 5 2.239 5 5 0 2.761-2.239 5-5 5z"/><path d="m208 124.983h-160c-2.761 0-5-2.239-5-5 0-2.761 2.239-5 5-5h160c2.761 0 5 2.239 5 5 0 2.761-2.239 5-5 5z"/><path d="m165.5 144.983h-75c-2.761 0-5-2.239-5-5 0-2.761 2.239-5 5-5h75c2.761 0 5 2.239 5 5 0 2.761-2.239 5-5 5z"/></g><circle cx="201.25" cy="161.898" fill="#ffea92" r="30.75"/><circle cx="201.25" cy="161.898" fill="#a4c9ff" r="19.856"/><path d="m201.25 194.647c-18.059 0-32.75-14.691-32.75-32.75s14.691-32.75 32.75-32.75 32.75 14.692 32.75 32.75-14.691 32.75-32.75 32.75zm0-61.5c-15.853 0-28.75 12.897-28.75 28.75s12.897 28.75 28.75 28.75 28.75-12.897 28.75-28.75-12.897-28.75-28.75-28.75z" fill="#3762cc"/><path d="m201.25 183.753c-12.051 0-21.855-9.805-21.855-21.855s9.805-21.855 21.855-21.855 21.855 9.805 21.855 21.855-9.804 21.855-21.855 21.855zm0-39.711c-9.846 0-17.855 8.01-17.855 17.855s8.01 17.855 17.855 17.855 17.855-8.01 17.855-17.855-8.009-17.855-17.855-17.855z" fill="#3762cc"/><path d="m201.25 192.648c-6.474 0-12.476-2.005-17.431-5.421v36.249c0 .936 1.102 1.436 1.807.82l14.907-13.043c.411-.359 1.024-.359 1.435 0l14.907 13.043c.704.616 1.807.116 1.807-.82v-36.249c-4.956 3.416-10.958 5.421-17.432 5.421z" fill="#ffea92"/><path d="m217.581 226.57c-.729 0-1.444-.263-2.024-.771l-14.307-12.52-14.307 12.52c-.926.81-2.193.996-3.313.488-1.117-.508-1.812-1.586-1.812-2.813v-36.248c0-.743.412-1.425 1.07-1.771.657-.346 1.452-.298 2.065.124 4.808 3.315 10.442 5.067 16.295 5.067s11.487-1.752 16.295-5.067c.613-.422 1.407-.47 2.065-.124s1.07 1.027 1.07 1.771v36.248c0 1.229-.694 2.307-1.813 2.813-.414.191-.851.283-1.284.283zm-16.331-17.585c.728 0 1.454.253 2.034.76l13.396 11.723v-30.681c-4.729 2.534-9.997 3.86-15.431 3.86s-10.701-1.326-15.431-3.86v30.681l13.396-11.722c.582-.508 1.309-.761 2.036-.761z" fill="#3762cc"/></svg>