<svg id="Layer_1" enable-background="new 0 0 256 256" height="512" viewBox="0 0 256 256" width="512" xmlns="http://www.w3.org/2000/svg"><path d="m204.498 7.948h-184.278c-4.715 0-8.537 3.822-8.537 8.537v223.029c0 4.715 3.822 8.537 8.537 8.537h215.56c4.715 0 8.537-3.822 8.537-8.537v-191.747c0-2.264-.899-4.436-2.5-6.037l-31.281-31.281c-1.602-1.601-3.774-2.501-6.038-2.501z" fill="#4671c6"/><path d="m190.96 94.386h-125.92c-3.536 0-6.403-2.867-6.403-6.403v-80.035h138.726v80.034c0 3.537-2.866 6.404-6.403 6.404z" fill="#e0ebfc"/><path d="m221.164 227.243h-186.328c-3.536 0-6.403-2.867-6.403-6.403v-98.176c0-3.536 2.867-6.403 6.403-6.403h186.328c3.536 0 6.403 2.867 6.403 6.403v98.176c0 3.536-2.867 6.403-6.403 6.403z" fill="#a4c9ff"/><path d="m58.637 7.948v80.034c0 3.536 2.867 6.403 6.403 6.403h34.682v-86.437z" fill="#f9cfcf"/><path d="m177.356 75.444h-12.275c-2.209 0-4-1.791-4-4v-40.554c0-2.209 1.791-4 4-4h12.275c2.209 0 4 1.791 4 4v40.554c0 2.209-1.791 4-4 4z" fill="#6bdddd"/><path d="m201.631 178.155h-147.263c-3.536 0-6.403-2.867-6.403-6.403 0-3.536 2.867-6.403 6.403-6.403h147.263c3.536 0 6.403 2.867 6.403 6.403 0 3.536-2.866 6.403-6.403 6.403z" fill="#ffea92"/><path d="m201.632 149.343h-147.263c-3.536 0-6.403-2.867-6.403-6.403 0-3.536 2.867-6.403 6.403-6.403h147.263c3.536 0 6.403 2.867 6.403 6.403 0 3.536-2.867 6.403-6.403 6.403z" fill="#ffea92"/><path d="m201.632 206.967h-147.263c-3.536 0-6.403-2.867-6.403-6.403 0-3.536 2.867-6.403 6.403-6.403h147.263c3.536 0 6.403 2.867 6.403 6.403 0 3.537-2.867 6.403-6.403 6.403z" fill="#ffea92"/><g fill="#3762cc"><path d="m235.78 250.052h-215.56c-5.81 0-10.537-4.727-10.537-10.537v-223.03c0-5.811 4.727-10.537 10.537-10.537h184.278c2.815 0 5.461 1.097 7.451 3.087l31.281 31.281c1.99 1.99 3.086 4.636 3.086 7.45v191.748c.001 5.811-4.726 10.538-10.536 10.538zm-215.56-240.104c-3.604 0-6.537 2.933-6.537 6.537v223.029c0 3.604 2.933 6.537 6.537 6.537h215.56c3.604 0 6.537-2.933 6.537-6.537v-191.747c0-1.721-.698-3.405-1.915-4.622l-31.282-31.281c-1.235-1.235-2.876-1.915-4.623-1.915h-184.277z"/><path d="m190.96 96.386h-125.92c-4.633 0-8.403-3.77-8.403-8.403v-80.035c0-1.104.896-2 2-2h138.727c1.104 0 2 .896 2 2v80.034c-.001 4.634-3.77 8.404-8.404 8.404zm-130.323-86.438v78.034c0 2.428 1.975 4.403 4.403 4.403h125.92c2.428 0 4.403-1.976 4.403-4.403v-78.034z"/><path d="m221.164 229.242h-186.328c-4.633 0-8.403-3.77-8.403-8.402v-98.176c0-4.633 3.77-8.402 8.403-8.402h186.327c4.633 0 8.403 3.77 8.403 8.402v98.176c0 4.633-3.769 8.402-8.402 8.402zm-186.328-110.98c-2.428 0-4.403 1.975-4.403 4.402v98.176c0 2.428 1.975 4.402 4.403 4.402h186.327c2.428 0 4.403-1.975 4.403-4.402v-98.176c0-2.428-1.975-4.402-4.403-4.402z"/><path d="m99.721 96.386h-34.681c-4.633 0-8.403-3.77-8.403-8.403v-80.035c0-1.104.896-2 2-2h41.084c1.104 0 2 .896 2 2v86.438c0 1.104-.895 2-2 2zm-39.084-86.438v78.034c0 2.428 1.975 4.403 4.403 4.403h32.682v-82.437z"/><path d="m177.356 77.444h-12.275c-3.309 0-6-2.691-6-6v-40.554c0-3.309 2.691-6 6-6h12.275c3.309 0 6 2.691 6 6v40.555c0 3.308-2.691 5.999-6 5.999zm-12.275-48.554c-1.103 0-2 .897-2 2v40.555c0 1.103.897 2 2 2h12.275c1.103 0 2-.897 2-2v-40.555c0-1.103-.897-2-2-2z"/><path d="m201.631 180.155h-147.263c-4.633 0-8.403-3.77-8.403-8.403s3.77-8.402 8.403-8.402h147.263c4.633 0 8.403 3.77 8.403 8.402 0 4.634-3.769 8.403-8.403 8.403zm-147.263-12.805c-2.428 0-4.403 1.975-4.403 4.402s1.975 4.403 4.403 4.403h147.263c2.428 0 4.403-1.976 4.403-4.403s-1.975-4.402-4.403-4.402z"/><path d="m201.632 151.343h-147.263c-4.633 0-8.403-3.77-8.403-8.403s3.77-8.402 8.403-8.402h147.263c4.633 0 8.403 3.77 8.403 8.402 0 4.633-3.77 8.403-8.403 8.403zm-147.263-12.806c-2.428 0-4.403 1.975-4.403 4.402s1.975 4.403 4.403 4.403h147.263c2.428 0 4.403-1.976 4.403-4.403s-1.975-4.402-4.403-4.402z"/><path d="m201.632 208.967h-147.263c-4.633 0-8.403-3.77-8.403-8.402s3.77-8.402 8.403-8.402h147.263c4.633 0 8.403 3.77 8.403 8.402s-3.77 8.402-8.403 8.402zm-147.263-12.805c-2.428 0-4.403 1.975-4.403 4.402s1.975 4.402 4.403 4.402h147.263c2.428 0 4.403-1.975 4.403-4.402s-1.975-4.402-4.403-4.402z"/></g></svg>