<svg id="Layer_1" enable-background="new 0 0 256 256" height="512" viewBox="0 0 256 256" width="512" xmlns="http://www.w3.org/2000/svg"><path d="m52.011 234.686c-2.4 0-4.345-1.945-4.345-4.345v-209.027h-4.623-4.345c-2.4 0-4.345 1.945-4.345 4.345v179.05 38.945c0 2.4 1.945 4.346 4.345 4.346h4.345 160.947c2.4 0 4.345-1.945 4.345-4.346v-8.968z" fill="#4671c6"/><path d="m217.303 234.686c2.4 0 4.345-1.946 4.345-4.345v-179.05l-43.29-43.291h-126.347c-2.4 0-4.345 1.946-4.345 4.345v217.995c0 2.4 1.946 4.345 4.345 4.345h165.292z" fill="#e0ebfc"/><path d="m178.358 8v38.945c0 2.4 1.946 4.345 4.345 4.345h38.945z" fill="#a4c9ff"/><path d="m217.303 236.687h-165.292c-3.499 0-6.345-2.847-6.345-6.346v-217.995c0-3.499 2.846-6.346 6.345-6.346h126.347c.53 0 1.039.211 1.414.586l43.291 43.291c.375.375.586.884.586 1.414v179.05c-.001 3.499-2.847 6.346-6.346 6.346zm-165.292-226.687c-1.293 0-2.345 1.053-2.345 2.346v217.995c0 1.293 1.052 2.346 2.345 2.346h165.292c1.293 0 2.346-1.053 2.346-2.346v-178.222l-42.12-42.119z" fill="#3762cc"/><path d="m221.648 53.291h-38.945c-3.499 0-6.346-2.847-6.346-6.346v-38.945c0-.809.487-1.538 1.235-1.848.747-.311 1.608-.139 2.179.434l43.291 43.291c.572.572.743 1.432.434 2.18-.309.747-1.038 1.234-1.848 1.234zm-41.291-40.463v34.117c0 1.293 1.052 2.346 2.346 2.346h34.117z" fill="#3762cc"/><path d="m221.648 53.291h-38.945c-3.499 0-6.346-2.847-6.346-6.346v-38.945c0-.809.487-1.538 1.235-1.848.747-.311 1.608-.139 2.179.434l43.291 43.291c.572.572.743 1.432.434 2.18-.309.747-1.038 1.234-1.848 1.234zm-41.291-40.463v34.117c0 1.293 1.052 2.346 2.346 2.346h34.117z" fill="#3762cc"/><g fill="#a4c9ff"><circle cx="64.904" cy="25.359" r="3.404"/><circle cx="87.7" cy="25.359" r="3.404"/><circle cx="110.495" cy="25.359" r="3.404"/><circle cx="133.291" cy="25.359" r="3.404"/><circle cx="158.495" cy="25.359" r="3.404"/><circle cx="64.904" cy="48.154" r="3.404"/><circle cx="87.7" cy="48.154" r="3.404"/><circle cx="110.495" cy="49.539" r="3.583"/><circle cx="134.495" cy="49.539" r="3.583"/><circle cx="158.495" cy="49.539" r="3.583"/><circle cx="64.904" cy="73.539" r="3.583"/><circle cx="89.077" cy="73.539" r="3.583"/><circle cx="110.495" cy="73.51" r="3.583"/><circle cx="134.522" cy="73.512" r="3.583"/><circle cx="158.495" cy="73.539" r="3.583"/><circle cx="182.495" cy="73.539" r="3.583"/><circle cx="206.495" cy="73.539" r="3.583"/><circle cx="64.904" cy="97.539" r="3.583"/><circle cx="89.077" cy="97.539" r="3.583"/><circle cx="110.495" cy="97.51" r="3.583"/><circle cx="134.522" cy="97.512" r="3.583"/><circle cx="158.495" cy="97.539" r="3.583"/><circle cx="182.495" cy="97.539" r="3.583"/><circle cx="206.495" cy="97.539" r="3.583"/><circle cx="64.904" cy="121.539" r="3.583"/><circle cx="89.077" cy="121.539" r="3.583"/><circle cx="110.495" cy="121.51" r="3.583"/><circle cx="134.522" cy="121.512" r="3.583"/><circle cx="158.495" cy="121.539" r="3.583"/><circle cx="182.495" cy="121.539" r="3.583"/><circle cx="206.495" cy="121.539" r="3.583"/><circle cx="64.904" cy="145.539" r="3.583"/><circle cx="89.077" cy="145.539" r="3.583"/><circle cx="110.495" cy="145.51" r="3.583"/><circle cx="134.522" cy="145.512" r="3.583"/><circle cx="158.495" cy="145.539" r="3.583"/><circle cx="182.495" cy="145.539" r="3.583"/><circle cx="206.495" cy="145.539" r="3.583"/><circle cx="64.904" cy="169.539" r="3.583"/><circle cx="89.077" cy="169.539" r="3.583"/><circle cx="110.495" cy="169.51" r="3.583"/><circle cx="134.522" cy="169.512" r="3.583"/><circle cx="158.495" cy="169.539" r="3.583"/><circle cx="182.495" cy="169.539" r="3.583"/><circle cx="206.495" cy="169.539" r="3.583"/><circle cx="64.904" cy="193.539" r="3.583"/><circle cx="89.077" cy="193.539" r="3.583"/><circle cx="110.495" cy="193.51" r="3.583"/><circle cx="134.522" cy="193.512" r="3.583"/><circle cx="158.495" cy="193.539" r="3.583"/><circle cx="182.495" cy="193.539" r="3.583"/><circle cx="206.495" cy="193.539" r="3.583"/><circle cx="64.904" cy="217.539" r="3.583"/><circle cx="89.077" cy="217.539" r="3.583"/><circle cx="110.495" cy="217.51" r="3.583"/><circle cx="134.522" cy="217.512" r="3.583"/><circle cx="158.495" cy="217.539" r="3.583"/><circle cx="182.495" cy="217.539" r="3.583"/><circle cx="206.495" cy="217.539" r="3.583"/></g></svg>