<svg id="Layer_1" enable-background="new 0 0 256 256" height="512" viewBox="0 0 256 256" width="512" xmlns="http://www.w3.org/2000/svg"><path d="m243 223.542h-218c-2.761 0-5-2.239-5-5v-140c0-2.761 2.239-5 5-5h218c2.761 0 5 2.239 5 5v140c0 2.761-2.239 5-5 5z" fill="#e0ebfc"/><path d="m243 225.542h-218c-3.86 0-7-3.14-7-7v-140c0-3.86 3.14-7 7-7h218c3.86 0 7 3.14 7 7v140c0 3.859-3.14 7-7 7zm-218-150c-1.654 0-3 1.346-3 3v140c0 1.654 1.346 3 3 3h218c1.654 0 3-1.346 3-3v-140c0-1.654-1.346-3-3-3z" fill="#3762cc"/><path d="m26 106.542h-12c-3.314 0-6-2.686-6-6 0-3.314 2.686-6 6-6h12c3.314 0 6 2.686 6 6 0 3.313-2.686 6-6 6z" fill="#a4c9ff"/><path d="m26 138.542h-12c-3.314 0-6-2.686-6-6 0-3.314 2.686-6 6-6h12c3.314 0 6 2.686 6 6 0 3.313-2.686 6-6 6z" fill="#a4c9ff"/><path d="m26 170.542h-12c-3.314 0-6-2.686-6-6 0-3.314 2.686-6 6-6h12c3.314 0 6 2.686 6 6 0 3.313-2.686 6-6 6z" fill="#a4c9ff"/><path d="m26 202.542h-12c-3.314 0-6-2.686-6-6 0-3.314 2.686-6 6-6h12c3.314 0 6 2.686 6 6 0 3.313-2.686 6-6 6z" fill="#a4c9ff"/><path d="m24.579 46.986 18.201 12.556h158.03v-27.083h-158.03l-18.201 12.555c-.624.43-.624 1.542 0 1.972z" fill="#f9cfcf"/><path d="m200.809 32.458h-157.985c-.091.628.046 1.312.412 1.769l3.044 3.802c.293.366.44.878.44 1.39h154.089z" fill="#a4c9ff"/><path d="m46.72 52.581c0 .512-.147 1.023-.44 1.39l-3.044 3.802c-.366.457-.504 1.141-.412 1.769h157.985v-6.961z" fill="#a4c9ff"/><path d="m28.72 42.157-4.141 2.857c-.624.43-.624 1.542 0 1.973l4.141 2.857z" fill="#4671c6"/><path d="m195.01 43.419h27.083v5.161h-27.083z" fill="#e0ebfc" transform="matrix(0 1 -1 0 254.552 -162.552)"/><path d="m231.889 53.758v-15.516c0-3.194-2.59-5.784-5.784-5.784h-14.973v27.083h14.973c3.194.001 5.784-2.589 5.784-5.783z" fill="#f9a7a7"/><path d="m200.809 39.419h-154.089c0 .512-.147 1.023-.44 1.39l-3.044 3.802c-.586.733-.586 2.047 0 2.779l3.044 3.802c.293.366.44.878.44 1.39h154.089z" fill="#4671c6"/><path d="m189.848 43.419h27.083v5.161h-27.083z" fill="#e0ebfc" transform="matrix(0 1 -1 0 249.39 -157.39)"/><g fill="#3762cc"><path d="m200.81 61.542h-158.03c-.406 0-.802-.124-1.136-.354l-18.201-12.555c-.834-.576-1.332-1.56-1.332-2.633s.498-2.057 1.332-2.633l18.201-12.555c.334-.23.73-.354 1.136-.354h158.03c1.104 0 2 .896 2 2v27.083c0 1.105-.896 2.001-2 2.001zm-157.407-4h155.407v-23.084h-155.407l-16.732 11.542z"/><path d="m200.81 41.419h-154.089c-1.104 0-2-.896-2-2 0-.098-.021-.164-.028-.18l-3.017-3.762c-.694-.866-1.004-2.102-.831-3.305.143-.983.986-1.713 1.979-1.713h157.986c1.104 0 2 .896 2 2v6.96c0 1.104-.896 2-2 2zm-152.556-4h150.556v-2.96h-152.829l1.861 2.321c.158.196.295.41.412.639z"/><path d="m200.81 61.542h-157.986c-.994 0-1.837-.73-1.979-1.713-.174-1.203.137-2.439.832-3.306l3.043-3.802c-.017.021.001-.041.001-.14 0-1.104.896-2 2-2h154.089c1.104 0 2 .896 2 2v6.96c0 1.105-.896 2.001-2 2.001zm-154.826-4h152.826v-2.96h-150.556c-.117.228-.255.442-.412.639z"/><path d="m28.72 51.843c-.398 0-.795-.119-1.136-.354l-4.141-2.856c-.834-.576-1.332-1.56-1.332-2.633s.498-2.057 1.332-2.633l4.141-2.856c.612-.421 1.408-.47 2.065-.125.658.346 1.07 1.028 1.07 1.771v7.686c0 .743-.412 1.425-1.07 1.771-.292.153-.611.229-.929.229zm-2.049-5.843.048.033v-.066z"/><path d="m211.132 61.542h-5.162c-1.104 0-2-.896-2-2v-27.084c0-1.104.896-2 2-2h5.162c1.104 0 2 .896 2 2v27.083c0 1.105-.895 2.001-2 2.001zm-3.161-4h1.162v-23.084h-1.162z"/><path d="m226.105 61.542h-14.973c-1.104 0-2-.896-2-2v-27.084c0-1.104.896-2 2-2h14.973c4.292 0 7.784 3.492 7.784 7.784v15.516c0 4.292-3.492 7.784-7.784 7.784zm-12.973-4h12.973c2.086 0 3.784-1.697 3.784-3.784v-15.516c0-2.086-1.697-3.784-3.784-3.784h-12.973z"/><path d="m200.81 54.581h-154.089c-1.104 0-2-.896-2-2 0-.098-.021-.164-.028-.18l-3.017-3.762c-1.166-1.456-1.166-3.824 0-5.279l3.044-3.802c-.02.022 0-.041.001-.14 0-1.104.896-2 2-2h154.089c1.104 0 2 .896 2 2v13.162c0 1.106-.896 2.001-2 2.001zm-152.556-4h150.556v-9.162h-150.556c-.117.228-.255.442-.412.639l-3.044 3.802c-.01.039-.01.241.027.319l3.017 3.762c.158.197.295.412.412.64z"/><path d="m205.971 61.542h-5.161c-1.104 0-2-.896-2-2v-27.084c0-1.104.896-2 2-2h5.161c1.104 0 2 .896 2 2v27.083c0 1.105-.896 2.001-2 2.001zm-3.161-4h1.161v-23.084h-1.161z"/><path d="m130.541 190.406h-60.194c-1.555 0-2.947-.804-3.724-2.15s-.777-2.953 0-4.299l30.097-52.129c.777-1.346 2.169-2.15 3.724-2.15s2.947.804 3.724 2.15l30.097 52.129c.777 1.346.777 2.954 0 4.3s-2.17 2.149-3.724 2.149zm-30.097-56.729c-.173 0-.238.113-.26.15l-30.097 52.129c-.021.037-.086.15 0 .299.087.15.217.15.26.15h60.193c.043 0 .174 0 .26-.15s.021-.263 0-.3l-30.097-52.129c-.021-.036-.086-.149-.259-.149zm-1.992-.85h.01z"/><path d="m169.581 190.792c-17.483 0-31.707-14.224-31.707-31.707s14.224-31.708 31.707-31.708 31.708 14.224 31.708 31.708-14.225 31.707-31.708 31.707zm0-59.415c-15.278 0-27.707 12.43-27.707 27.708s12.429 27.707 27.707 27.707 27.708-12.429 27.708-27.707-12.431-27.708-27.708-27.708z"/><path d="m140.152 165.108h-20.234c-.714 0-1.375-.381-1.732-1l-8.739-15.137c-.176-.304-.268-.649-.268-1v-37.379c0-2.371 1.929-4.3 4.3-4.3h50.217c2.371 0 4.3 1.929 4.3 4.3v19.008c0 1.012-.756 1.865-1.761 1.986-13.888 1.672-24.361 13.494-24.361 27.499 0 1.217.088 2.48.261 3.755.078.572-.096 1.15-.476 1.585-.38.434-.93.683-1.507.683zm-19.079-4h16.868c-.045-.683-.068-1.359-.068-2.024 0-15.43 11.11-28.544 26.122-31.208v-17.284c0-.166-.134-.3-.3-.3h-50.217c-.166 0-.3.135-.3.3v36.844zm44.923-31.508h.01z"/><path d="m26 108.542h-12c-4.411 0-8-3.589-8-8s3.589-8 8-8h12c4.411 0 8 3.589 8 8s-3.589 8-8 8zm-12-12c-2.206 0-4 1.794-4 4s1.794 4 4 4h12c2.206 0 4-1.794 4-4s-1.794-4-4-4z"/><path d="m26 140.542h-12c-4.411 0-8-3.589-8-8s3.589-8 8-8h12c4.411 0 8 3.589 8 8s-3.589 8-8 8zm-12-12c-2.206 0-4 1.794-4 4s1.794 4 4 4h12c2.206 0 4-1.794 4-4s-1.794-4-4-4z"/><path d="m26 172.542h-12c-4.411 0-8-3.589-8-8s3.589-8 8-8h12c4.411 0 8 3.589 8 8s-3.589 8-8 8zm-12-12c-2.206 0-4 1.794-4 4s1.794 4 4 4h12c2.206 0 4-1.794 4-4s-1.794-4-4-4z"/><path d="m26 204.542h-12c-4.411 0-8-3.589-8-8s3.589-8 8-8h12c4.411 0 8 3.589 8 8s-3.589 8-8 8zm-12-12c-2.206 0-4 1.794-4 4s1.794 4 4 4h12c2.206 0 4-1.794 4-4s-1.794-4-4-4z"/></g></svg>