<svg id="Layer_1" enable-background="new 0 0 256 256" height="512" viewBox="0 0 256 256" width="512" xmlns="http://www.w3.org/2000/svg"><g fill="#4671c6"><path d="m193.513 180.39h-2.615v-23.887c0-7.011-5.703-12.714-12.714-12.714h-75.478c-2.6 0-4.715-2.115-4.715-4.714v-37.127c-.007 0-.013.002-.02.002h-7.959c-.007 0-.014-.002-.021-.002v37.128c0 7.01 5.704 12.714 12.715 12.714h75.478c2.6 0 4.714 2.115 4.714 4.714v23.887h-111.551c-5.209 0-9.446 4.238-9.446 9.446v10.893c0 5.208 4.237 9.446 9.446 9.446h106.837c7.011 0 12.714-5.704 12.714-12.714v-9.071h2.615c3.801 0 6.893 3.092 6.893 6.893v32.315c0 3.801-3.092 6.893-6.893 6.893h-57.978c.002.065.01.129.01.196v7.608c0 .066-.008.13-.01.196h57.978c8.212 0 14.893-6.681 14.893-14.893v-32.315c-.001-8.214-6.681-14.894-14.893-14.894zm-10.616 17.071c0 2.599-2.114 4.714-4.714 4.714h-106.836c-.798 0-1.446-.649-1.446-1.446v-10.893c0-.797.648-1.446 1.446-1.446h111.551v9.071z"/><path d="m164.708 143.788v-41.84h-7.214c-.276 0-.537-.054-.786-.137v41.977z"/><circle cx="93.992" cy="36.091" r="28.091"/></g><path d="m93.991 66.182c-16.592 0-30.091-13.499-30.091-30.091s13.499-30.091 30.091-30.091c16.593 0 30.092 13.499 30.092 30.091s-13.499 30.091-30.092 30.091zm0-56.182c-14.387 0-26.091 11.704-26.091 26.091s11.704 26.091 26.091 26.091 26.092-11.704 26.092-26.091-11.705-26.091-26.092-26.091z" fill="#3762cc"/><path d="m167.419 31.097h-9.526c-3.311 0-5.951 2.766-5.797 6.073l2.904 62.398c.062 1.332 1.16 2.381 2.494 2.381h7.428c1.379 0 2.497-1.118 2.497-2.497z" fill="#6bdddd"/><path d="m101.709 98.445 3.836-59.374c.279-4.318-3.148-7.974-7.475-7.974h-8.156c-4.327 0-7.754 3.656-7.475 7.974l3.836 59.374c.127 1.971 1.763 3.504 3.738 3.504h7.959c1.974 0 3.61-1.534 3.737-3.504z" fill="#6bdddd"/><path d="m68.971 246.098v-15.217c0-1.05.852-1.902 1.902-1.902h58.965c3.151 0 5.706 2.555 5.706 5.706v7.608c0 3.151-2.555 5.706-5.706 5.706h-58.965c-1.05.001-1.902-.851-1.902-1.901z" fill="#6bdddd"/><path d="m164.922 103.949h-7.428c-2.408 0-4.381-1.884-4.492-4.289l-2.904-62.397c-.101-2.15.663-4.193 2.15-5.75 1.486-1.558 3.491-2.416 5.645-2.416h9.526c1.104 0 2 .896 2 2v68.354c0 2.48-2.018 4.498-4.497 4.498zm-7.029-70.852c-1.05 0-2.026.418-2.751 1.177s-1.097 1.755-1.048 2.803l2.904 62.398c.012.266.23.474.496.474h7.428c.274 0 .497-.223.497-.497v-66.355z" fill="#3762cc"/><path d="m97.972 103.949h-7.96c-3.021 0-5.539-2.361-5.733-5.375l-3.837-59.374c-.168-2.607.76-5.196 2.547-7.103s4.311-3 6.924-3h8.157c2.613 0 5.137 1.093 6.924 3 1.787 1.906 2.715 4.495 2.547 7.103l-3.836 59.374c-.194 3.014-2.713 5.375-5.733 5.375zm-8.059-70.852c-1.534 0-2.956.616-4.006 1.735-1.049 1.119-1.572 2.579-1.473 4.109l3.836 59.374c.059.916.823 1.633 1.741 1.633h7.96c.918 0 1.683-.717 1.741-1.632l3.836-59.374c.1-1.531-.424-2.99-1.473-4.109-1.05-1.119-2.472-1.735-4.006-1.735h-8.156z" fill="#3762cc"/><path d="m68.971 233.497h-22.66c-2.758 0-4.993 2.235-4.993 4.993s2.235 4.993 4.993 4.993h22.66z" fill="#e0ebfc"/><path d="m129.838 250h-58.965c-2.151 0-3.902-1.75-3.902-3.902v-15.217c0-2.152 1.751-3.902 3.902-3.902h58.965c4.249 0 7.706 3.457 7.706 7.707v7.608c0 4.249-3.457 7.706-7.706 7.706zm-58.867-4h58.867c2.044 0 3.706-1.663 3.706-3.706v-7.608c0-2.044-1.662-3.707-3.706-3.707h-58.867z" fill="#3762cc"/><path d="m68.971 245.482h-22.66c-3.855 0-6.992-3.137-6.992-6.993s3.137-6.993 6.992-6.993h22.66c1.104 0 2 .896 2 2v9.986c0 1.105-.896 2-2 2zm-22.66-9.985c-1.649 0-2.992 1.343-2.992 2.993s1.343 2.993 2.992 2.993h20.66v-5.986z" fill="#3762cc"/><path d="m193.172 64.182h-5.173v-56.182h5.173c6.204 0 11.233 5.029 11.233 11.233v33.715c0 6.204-5.029 11.234-11.233 11.234z" fill="#a4c9ff"/><path d="m187.999 64.182h-7.237c-11.075 0-20.054-8.978-20.054-20.054v-16.074c0-11.076 8.979-20.054 20.054-20.054h7.237z" fill="#4671c6"/><path d="m193.172 66.182h-5.173c-1.104 0-2-.896-2-2v-56.182c0-1.104.896-2 2-2h5.173c7.297 0 13.233 5.937 13.233 13.233v33.715c0 7.297-5.936 13.234-13.233 13.234zm-3.173-4h3.173c5.092 0 9.233-4.142 9.233-9.233v-33.716c0-5.091-4.142-9.233-9.233-9.233h-3.173z" fill="#3762cc"/><path d="m187.999 66.182h-7.237c-12.16 0-22.054-9.893-22.054-22.054v-16.074c0-12.161 9.894-22.054 22.054-22.054h7.237c1.104 0 2 .896 2 2v56.182c0 1.104-.895 2-2 2zm-7.237-56.182c-9.955 0-18.054 8.099-18.054 18.054v16.074c0 9.955 8.099 18.054 18.054 18.054h5.237v-52.182z" fill="#3762cc"/></svg>