<svg id="Layer_1" enable-background="new 0 0 256 256" height="512" viewBox="0 0 256 256" width="512" xmlns="http://www.w3.org/2000/svg"><path d="m160.317 11.601-148.716 148.716c-4.148 4.148-4.148 10.874 0 15.022l69.06 69.06c4.148 4.148 10.874 4.148 15.022 0l148.716-148.716c4.148-4.148 4.148-10.874 0-15.022l-69.06-69.06c-4.148-4.148-10.873-4.148-15.022 0z" fill="#e0ebfc"/><path d="m244.399 95.683-60.088 60.088-84.081-84.083 60.088-60.088c4.148-4.148 10.874-4.148 15.022 0l69.06 69.06c4.147 4.149 4.147 10.874-.001 15.023z" fill="#4671c6"/><g fill="#3762cc"><path d="m88.172 249.51c-3.372 0-6.541-1.313-8.925-3.697l-69.061-69.06c-2.384-2.384-3.697-5.554-3.697-8.925s1.313-6.541 3.697-8.925l148.717-148.716c2.384-2.384 5.554-3.697 8.925-3.697 3.372 0 6.541 1.313 8.925 3.697l69.061 69.06c2.384 2.384 3.697 5.554 3.697 8.925s-1.313 6.541-3.697 8.925l-148.717 148.716c-2.384 2.385-5.554 3.697-8.925 3.697zm73.559-236.495-148.716 148.716c-1.629 1.628-2.525 3.794-2.525 6.097s.896 4.468 2.525 6.097l69.061 69.06c1.628 1.628 3.793 2.525 6.097 2.525 2.303 0 4.468-.896 6.097-2.525l148.715-148.716c1.629-1.628 2.525-3.794 2.525-6.097s-.896-4.468-2.525-6.097l-69.061-69.06c-1.628-1.628-3.793-2.525-6.097-2.525-2.302 0-4.467.896-6.096 2.525z"/><path d="m184.312 157.77c-.512 0-1.023-.195-1.414-.586l-84.083-84.081c-.375-.375-.586-.884-.586-1.414s.211-1.039.586-1.414l60.088-60.088c2.384-2.384 5.554-3.697 8.925-3.697 3.372 0 6.541 1.313 8.925 3.697l69.061 69.06c4.921 4.921 4.921 12.929 0 17.85l-60.088 60.087c-.391.391-.903.586-1.414.586zm-81.254-86.082 81.254 81.253 58.674-58.673c3.361-3.362 3.361-8.832 0-12.194l-69.061-69.06c-1.628-1.628-3.793-2.525-6.097-2.525-2.303 0-4.468.896-6.097 2.525zm141.341 23.995h.01z"/></g></svg>