<svg id="Layer_1" enable-background="new 0 0 256 256" height="512" viewBox="0 0 256 256" width="512" xmlns="http://www.w3.org/2000/svg"><path d="m29.974 235.784c-2.4 0-4.345-1.945-4.345-4.345 0-10.218 0-175.398 0-211.222-4.761 0-7.541 0-7.407 0-2.4 0-4.345 1.945-4.345 4.345 0 4.401 0 219.501 0 217.995 0 2.4 1.946 4.346 4.345 4.346h165.292c2.4 0 4.345-1.946 4.345-4.346v-6.773c-32.621 0-153.385 0-157.885 0z" fill="#4671c6"/><path d="m195.266 9.098c-39.504 0-130.884 0-165.292 0-2.4 0-4.345 1.946-4.345 4.346v217.995c0 2.4 1.945 4.345 4.345 4.345h165.292c2.4 0 4.345-1.945 4.345-4.345 0-2.647 0-212.964 0-217.995 0-2.4-1.945-4.346-4.345-4.346z" fill="#e0ebfc"/><g fill="#b9befc"><path d="m175.12 105.191h-125c-2.761 0-5-2.239-5-5 0-2.761 2.239-5 5-5h125c2.761 0 5 2.239 5 5 0 2.761-2.239 5-5 5z"/><path d="m52.62 151.691c-5.238 0-9.5-4.262-9.5-9.5s4.262-9.5 9.5-9.5 9.5 4.262 9.5 9.5-4.262 9.5-9.5 9.5zm0-15c-3.032 0-5.5 2.468-5.5 5.5s2.468 5.5 5.5 5.5 5.5-2.468 5.5-5.5-2.468-5.5-5.5-5.5z"/><path d="m107.62 125.191h-57.5c-2.761 0-5-2.239-5-5 0-2.761 2.239-5 5-5h57.5c2.761 0 5 2.239 5 5 0 2.761-2.239 5-5 5z"/><path d="m112.62 151.691c-5.238 0-9.5-4.262-9.5-9.5s4.262-9.5 9.5-9.5 9.5 4.262 9.5 9.5-4.262 9.5-9.5 9.5zm0-15c-3.032 0-5.5 2.468-5.5 5.5s2.468 5.5 5.5 5.5 5.5-2.468 5.5-5.5-2.468-5.5-5.5-5.5z"/><path d="m172.62 151.691c-5.238 0-9.5-4.262-9.5-9.5s4.262-9.5 9.5-9.5 9.5 4.262 9.5 9.5-4.262 9.5-9.5 9.5zm0-15c-3.032 0-5.5 2.468-5.5 5.5s2.468 5.5 5.5 5.5 5.5-2.468 5.5-5.5-2.468-5.5-5.5-5.5z"/><path d="m175.12 36.191h-125c-2.761 0-5-2.239-5-5 0-2.761 2.239-5 5-5h125c2.761 0 5 2.239 5 5 0 2.761-2.239 5-5 5z"/><path d="m52.62 82.691c-5.238 0-9.5-4.262-9.5-9.5s4.262-9.5 9.5-9.5 9.5 4.262 9.5 9.5-4.262 9.5-9.5 9.5zm0-15c-3.032 0-5.5 2.468-5.5 5.5s2.468 5.5 5.5 5.5 5.5-2.468 5.5-5.5-2.468-5.5-5.5-5.5z"/><path d="m107.62 56.191h-57.5c-2.761 0-5-2.239-5-5 0-2.761 2.239-5 5-5h57.5c2.761 0 5 2.239 5 5 0 2.761-2.239 5-5 5z"/><path d="m112.62 82.691c-5.238 0-9.5-4.262-9.5-9.5s4.262-9.5 9.5-9.5 9.5 4.262 9.5 9.5-4.262 9.5-9.5 9.5zm0-15c-3.032 0-5.5 2.468-5.5 5.5s2.468 5.5 5.5 5.5 5.5-2.468 5.5-5.5-2.468-5.5-5.5-5.5z"/><path d="m172.62 82.691c-5.238 0-9.5-4.262-9.5-9.5s4.262-9.5 9.5-9.5 9.5 4.262 9.5 9.5-4.262 9.5-9.5 9.5zm0-15c-3.032 0-5.5 2.468-5.5 5.5s2.468 5.5 5.5 5.5 5.5-2.468 5.5-5.5-2.468-5.5-5.5-5.5z"/><path d="m175.12 174.191h-125c-2.761 0-5-2.239-5-5 0-2.761 2.239-5 5-5h125c2.761 0 5 2.239 5 5 0 2.761-2.239 5-5 5z"/><path d="m52.62 220.691c-5.238 0-9.5-4.262-9.5-9.5s4.262-9.5 9.5-9.5 9.5 4.262 9.5 9.5-4.262 9.5-9.5 9.5zm0-15c-3.032 0-5.5 2.468-5.5 5.5s2.468 5.5 5.5 5.5 5.5-2.468 5.5-5.5-2.468-5.5-5.5-5.5z"/><path d="m107.62 194.191h-57.5c-2.761 0-5-2.239-5-5 0-2.761 2.239-5 5-5h57.5c2.761 0 5 2.239 5 5 0 2.761-2.239 5-5 5z"/><path d="m112.62 220.691c-5.238 0-9.5-4.262-9.5-9.5s4.262-9.5 9.5-9.5 9.5 4.262 9.5 9.5-4.262 9.5-9.5 9.5zm0-15c-3.032 0-5.5 2.468-5.5 5.5s2.468 5.5 5.5 5.5 5.5-2.468 5.5-5.5-2.468-5.5-5.5-5.5z"/><path d="m172.62 220.691c-5.238 0-9.5-4.262-9.5-9.5s4.262-9.5 9.5-9.5 9.5 4.262 9.5 9.5-4.262 9.5-9.5 9.5zm0-15c-3.032 0-5.5 2.468-5.5 5.5s2.468 5.5 5.5 5.5 5.5-2.468 5.5-5.5-2.468-5.5-5.5-5.5z"/></g><path d="m111.359 76.441c-.083 0-.166-.003-.249-.011-.889-.073-1.697-.539-2.209-1.27l-6.239-8.915c-.95-1.357-.619-3.228.738-4.178 1.357-.949 3.228-.619 4.178.738l4.171 5.959 16.637-16.927c1.161-1.184 3.061-1.198 4.242-.037s1.198 3.061.037 4.242l-19.166 19.5c-.566.578-1.339.899-2.14.899z" fill="#f9a7a7"/><path d="m171.359 145.441c-.083 0-.166-.003-.249-.011-.889-.073-1.697-.539-2.209-1.27l-6.239-8.915c-.95-1.357-.619-3.228.738-4.178 1.358-.95 3.227-.619 4.178.738l4.171 5.959 16.637-16.927c1.161-1.183 3.061-1.198 4.242-.037s1.198 3.061.037 4.242l-19.166 19.5c-.566.578-1.339.899-2.14.899z" fill="#f9a7a7"/><path d="m51.359 214.441c-.083 0-.166-.003-.249-.011-.889-.073-1.697-.539-2.209-1.27l-6.239-8.915c-.95-1.357-.619-3.228.738-4.178 1.358-.95 3.228-.619 4.178.738l4.171 5.959 16.637-16.927c1.161-1.184 3.061-1.199 4.242-.037 1.182 1.161 1.198 3.061.037 4.242l-19.166 19.5c-.566.578-1.339.899-2.14.899z" fill="#f9a7a7"/><path d="m212.687 65.347h18.549v80.49h-18.549z" fill="#6bdddd"/><path d="m229.924 205.475h-15.925c-.892 0-1.616-.723-1.616-1.616v-56.407c0-.892.723-1.616 1.616-1.616h15.925c.892 0 1.616.723 1.616 1.616v56.407c0 .893-.724 1.616-1.616 1.616z" fill="#4671c6"/><path d="m214.074 205.475h15.776l-7.313 16.139c-.251.553-.899.553-1.149 0z" fill="#e0ebfc"/><path d="m232.446 65.347h-20.162c-.445 0-.806-.361-.806-.806v-10.552c0-.445.361-.806.806-.806h20.162z" fill="#4671c6"/><path d="m229.186 53.182h-14.516v-12.567c0-2.672 2.166-4.839 4.839-4.839h4.839c2.672 0 4.839 2.166 4.839 4.839v12.567z" fill="#6bdddd"/><path d="m219.723 217.942 1.664 3.672c.251.553.898.553 1.149 0l1.664-3.672z" fill="#e0ebfc"/><path d="m231.236 147.837h-18.55c-1.104 0-2-.896-2-2v-80.49c0-1.104.896-2 2-2h18.55c1.104 0 2 .896 2 2v80.49c0 1.104-.895 2-2 2zm-16.549-4h14.55v-76.49h-14.55z" fill="#3762cc"/><path d="m221.962 224.029c-1.033 0-1.951-.608-2.396-1.588l-7.313-16.142c-.281-.619-.228-1.338.141-1.909s1.001-.916 1.681-.916h15.776c.68 0 1.313.345 1.681.916s.422 1.29.141 1.909l-7.313 16.14c-.448.982-1.366 1.59-2.398 1.59zm-4.787-16.554 4.786 10.563 4.787-10.563z" fill="#3762cc"/><path d="m221.962 224.028c-1.033 0-1.951-.607-2.396-1.587l-1.664-3.674c-.281-.618-.228-1.338.141-1.909s1.001-.916 1.681-.916h4.478c.68 0 1.313.345 1.681.916s.422 1.291.141 1.909l-1.664 3.672c-.448.982-1.366 1.589-2.398 1.589z" fill="#3762cc"/><path d="m229.924 207.475h-15.925c-1.993 0-3.615-1.622-3.615-3.615v-56.407c0-1.993 1.622-3.615 3.615-3.615h15.925c1.994 0 3.616 1.622 3.616 3.615v56.407c0 1.993-1.622 3.615-3.616 3.615zm-15.54-4h15.156v-55.638h-15.156z" fill="#3762cc"/><path d="m242.124 113.881v-54.247c0-3.563-2.889-6.452-6.452-6.452h-4.839 1.613v12.165c1.838 0 2.743 1.033 2.81 2.291l2.456 46.36c.062 1.172 1.031 2.091 2.205 2.091 1.218 0 2.207-.988 2.207-2.208z" fill="#4671c6"/><path d="m232.446 67.347h-20.163c-1.547 0-2.806-1.259-2.806-2.806v-10.552c0-1.548 1.259-2.807 2.806-2.807h20.163c1.104 0 2 .896 2 2v12.164c0 1.105-.895 2.001-2 2.001zm-18.968-4h16.969v-8.164h-16.969z" fill="#3762cc"/><path d="m239.916 118.089c-2.236 0-4.082-1.75-4.201-3.984l-2.456-46.36c-.008-.139-.021-.397-.813-.397-1.104 0-2-.896-2-2v-10.202c-.92-.181-1.613-.99-1.613-1.963 0-1.104.896-2 2-2h4.839c4.66 0 8.452 3.792 8.452 8.452v54.246c0 2.32-1.888 4.208-4.208 4.208zm-5.47-54.408c1.819.674 2.724 2.269 2.807 3.853l2.456 46.359c.012.223.415.213.415-.012v-54.246c0-2.455-1.997-4.452-4.452-4.452h-1.226z" fill="#3762cc"/><path d="m229.187 55.183h-14.517c-1.104 0-2-.896-2-2v-12.569c0-3.771 3.068-6.839 6.839-6.839h4.839c3.771 0 6.839 3.068 6.839 6.839v12.568c0 1.105-.896 2.001-2 2.001zm-12.517-4h10.517v-10.569c0-1.565-1.273-2.839-2.839-2.839h-4.839c-1.565 0-2.839 1.273-2.839 2.839z" fill="#3762cc"/><path d="m195.266 237.784h-165.292c-3.499 0-6.345-2.847-6.345-6.346v-217.995c0-3.499 2.847-6.346 6.345-6.346h165.292c3.499 0 6.346 2.847 6.346 6.346v217.995c-.001 3.5-2.847 6.346-6.346 6.346zm-165.292-226.686c-1.293 0-2.345 1.053-2.345 2.346v217.995c0 1.293 1.052 2.346 2.345 2.346h165.292c1.293 0 2.346-1.053 2.346-2.346v-217.996c0-1.293-1.053-2.346-2.346-2.346h-165.292z" fill="#3762cc"/></svg>