<svg id="Layer_1" enable-background="new 0 0 256 256" height="512" viewBox="0 0 256 256" width="512" xmlns="http://www.w3.org/2000/svg"><path d="m228.9 23v74.839c.489-.063.983-.106 1.489-.106h6.022c.506 0 1 .043 1.489.106v-74.839c0-10.752-8.748-19.5-19.5-19.5h-12.454c-10.752 0-19.5 8.748-19.5 19.5v210c0 5.79-4.71 10.5-10.5 10.5h-30.744c-5.79 0-10.5-4.71-10.5-10.5v-22.328h-9v22.328c0 10.752 8.748 19.5 19.5 19.5h30.744c10.752 0 19.5-8.748 19.5-19.5v-210c0-5.79 4.71-10.5 10.5-10.5h12.454c5.789 0 10.5 4.71 10.5 10.5z" fill="#4671c6"/><path d="m154.945 8h-139c-4.418 0-8 3.582-8 8v152c0-2.761 2.239-5 5-5h145c2.761 0 5 2.239 5 5v-152c0-4.418-3.581-8-8-8z" fill="#4671c6"/><path d="m31.302 85.355h18.604c0-12.992-.346-14.418 1.175-16.108 1.957-2.174 7.445-2.18 7.445 3.918 0 36.041.439 35.694-1.219 37.47-.813.871-1.858 1.306-3.135 1.306-2.903 0-4.266-2.158-4.266-5.253v-14.309h-18.604v14.309c0 3.67-1.941 5.253-4.354 5.253-2.903 0-4.266-2.158-4.266-5.253v-33.523c0-6.187 5.454-6.036 7.416-3.933 1.558 1.672 1.204 3.14 1.204 16.123z" fill="#e0ebfc"/><path d="m73.125 68.667c11.702 0 14.821-.206 18.749.813 6.386 1.656 12.335 8.175 12.335 20.346 0 10.543-4.316 19.383-14.41 21.013-1.558.252-3.314.377-5.268.377-14.006 0-16.689 1.256-16.689-6.066v-31.201c.001-3.67 1.538-5.282 5.283-5.282zm3.338 6.82v28.879c7.855 0 11.89.454 14.686-2.003 2.883-2.438 4.325-6.637 4.325-12.596-.001-15.687-8.953-14.28-19.011-14.28z" fill="#e0ebfc"/><path d="m117.125 68.667c11.702 0 14.821-.206 18.749.813 16.527 4.285 17.498 38.198-2.075 41.359-1.558.252-3.314.377-5.268.377-13.899 0-16.689 1.317-16.689-6.066 0-33.264-.46-33.527 1.248-35.235.833-.832 2.177-1.248 4.035-1.248zm3.338 6.82v28.879c6.994 0 11.744.583 14.686-2.003 6.068-5.131 6.426-23.349-2.264-26.02-3.415-1.049-6.685-.856-12.422-.856z" fill="#e0ebfc"/><path d="m157.945 191h-145c-2.761 0-5-2.239-5-5v-18c0-2.761 2.239-5 5-5h145c2.761 0 5 2.239 5 5v18c0 2.761-2.238 5-5 5z" fill="#a4c9ff"/><path d="m33.497 183h-6c-.552 0-1-.448-1-1v-10c0-.552.448-1 1-1h6c.552 0 1 .448 1 1v10c0 .552-.448 1-1 1z" fill="#f9a7a7"/><path d="m157.945 193h-145c-3.86 0-7-3.141-7-7v-18c0-3.859 3.14-7 7-7h145c3.859 0 7 3.141 7 7v18c0 3.859-3.14 7-7 7zm-145-28c-1.654 0-3 1.346-3 3v18c0 1.654 1.346 3 3 3h145c1.654 0 3-1.346 3-3v-18c0-1.654-1.346-3-3-3z" fill="#3762cc"/><path d="m135.216 210.672h-10.028c-5.325 0-9.641-4.316-9.641-9.641v-26.41c0-.648.525-1.172 1.172-1.172h26.965c.648 0 1.172.525 1.172 1.172v26.41c.001 5.325-4.315 9.641-9.64 9.641z" fill="#6bdddd"/><path d="m135.216 212.672h-10.028c-6.419 0-11.641-5.222-11.641-11.641v-26.41c0-1.75 1.423-3.173 3.172-3.173h26.965c1.75 0 3.173 1.423 3.173 3.173v26.41c0 6.419-5.222 11.641-11.641 11.641zm-17.669-37.224v25.583c0 4.213 3.428 7.641 7.641 7.641h10.028c4.214 0 7.642-3.428 7.642-7.641v-25.583z" fill="#3762cc"/><path d="m230.389 97.734h6.022c6.431 0 11.644 5.213 11.644 11.644v23.576c0 1.106-.897 2.003-2.003 2.003h-25.303c-1.106 0-2.003-.897-2.003-2.003v-23.576c-.001-6.431 5.212-11.644 11.643-11.644z" fill="#6bdddd"/><path d="m242.237 151.469h-17.676c-1.27 0-2.3-1.03-2.3-2.3v-14.211h22.276v14.211c0 1.27-1.029 2.3-2.3 2.3z" fill="#e0ebfc"/><path d="m225.801 140.522v5.365c0 2.87 4.352 2.872 4.352 0v-5.365c0-2.869-4.352-2.87-4.352 0z" fill="#4671c6"/><path d="m236.646 140.522v5.365c0 2.87 4.352 2.871 4.352 0v-5.365c-.001-2.87-4.352-2.87-4.352 0z" fill="#4671c6"/><g fill="#3762cc"><path d="m246.051 136.957h-25.303c-2.208 0-4.004-1.796-4.004-4.003v-23.576c0-7.523 6.121-13.645 13.645-13.645h6.021c7.523 0 13.645 6.121 13.645 13.645v23.576c0 2.207-1.796 4.003-4.004 4.003zm-15.662-37.224c-5.318 0-9.645 4.326-9.645 9.645v23.576l25.307.003.004-23.579c0-5.318-4.326-9.645-9.645-9.645z"/><path d="m242.237 153.469h-17.676c-2.371 0-4.3-1.929-4.3-4.3v-14.212c0-1.104.896-2 2-2h22.275c1.104 0 2 .896 2 2v14.212c.001 2.371-1.928 4.3-4.299 4.3zm-17.975-16.512v12.212c0 .165.135.3.3.3h17.676c.165 0 .3-.135.3-.3v-12.212z"/><path d="m33.497 185h-6c-1.654 0-3-1.346-3-3v-10c0-1.654 1.346-3 3-3h6c1.654 0 3 1.346 3 3v10c0 1.654-1.346 3-3 3zm-5-4h4v-8h-4z"/><path d="m162.945 170c-1.104 0-2-.896-2-2 0-1.654-1.346-3-3-3h-145c-1.654 0-3 1.346-3 3 0 1.104-.896 2-2 2s-2-.896-2-2v-152c0-5.514 4.486-10 10-10h139c5.514 0 10 4.486 10 10v152c0 1.104-.895 2-2 2zm-150-9h145c1.073 0 2.09.243 3 .676v-145.676c0-3.309-2.691-6-6-6h-139c-3.309 0-6 2.691-6 6v145.676c.91-.433 1.928-.676 3-.676z"/></g></svg>