<svg id="Layer_1" enable-background="new 0 0 256 256" height="512" viewBox="0 0 256 256" width="512" xmlns="http://www.w3.org/2000/svg"><path d="m193.44 117.943c-2.362-6.724-7.085-20.171-9.447-26.895l-.002.023c-1.651-4.068-3.837-7.937-6.557-11.482-3.803-4.957-9.109-2.835-11.505-2.109 6.032 19.845-28.041 34.354-47.261 36.792l.034-.104c-18.041 3.144-40.107 1.32-53.532-11.501-6.519 13.708-26.754 61.932 2.04 79.221 4.967 2.982 10.684 4.39 16.44 4.39h42.488.014 42.488c5.756 0 11.473-1.408 16.44-4.39 21.761-13.066 15.521-43.793 8.36-63.945z" fill="#4671c6"/><path d="m168.642 188.277h-84.992c-6.335 0-12.376-1.617-17.47-4.676-30.072-18.056-9.792-67.1-2.86-81.7.275-.581.814-.994 1.447-1.11.636-.115 1.282.081 1.746.526 12.919 12.433 35.254 13.774 51.845 10.88.239-.04.478-.037.709.004 13.007-1.819 35.154-9.844 42.909-21.814 2.612-4.033 3.299-8.18 2.039-12.325-.154-.508-.1-1.056.15-1.523.25-.469.676-.818 1.184-.972l.498-.155c2.626-.829 8.773-2.772 13.174 2.961 2.735 3.566 5.001 7.514 6.735 11.734.048.089.089.182.123.279l9.447 26.895c11.479 32.308 8.206 55.86-9.217 66.321-5.092 3.058-11.133 4.675-17.467 4.675zm-102.835-82.231c-7.333 16.175-23.331 58.657 2.433 74.126 4.473 2.686 9.802 4.105 15.411 4.105h84.991c5.608 0 10.938-1.42 15.41-4.105 20.013-12.016 15.127-40.108 7.504-61.559-.001-.003-.001-.005-.002-.007l-9.376-26.689c-.014-.03-.027-.062-.04-.093-1.61-3.969-3.728-7.676-6.29-11.018-2.157-2.812-4.767-2.699-7.521-1.959.893 4.66-.11 9.265-2.992 13.714-8.67 13.384-32.361 21.913-46.414 23.695-.182.023-.364.021-.54-.005-16.651 2.766-38.581 1.396-52.574-10.205z" fill="#3762cc"/><path d="m168.642 188.277h-84.992c-6.335 0-12.376-1.617-17.47-4.676-30.072-18.056-9.792-67.1-2.86-81.7.275-.581.814-.994 1.447-1.11.636-.115 1.282.081 1.746.526 12.919 12.433 35.254 13.774 51.845 10.88.239-.04.478-.037.709.004 13.007-1.819 35.154-9.844 42.909-21.814 2.612-4.033 3.299-8.18 2.039-12.325-.154-.508-.1-1.056.15-1.523.25-.469.676-.818 1.184-.972l.498-.155c2.626-.829 8.773-2.772 13.174 2.961 2.735 3.566 5.001 7.514 6.735 11.734.048.089.089.182.123.279l9.447 26.895c11.479 32.308 8.206 55.86-9.217 66.321-5.092 3.058-11.133 4.675-17.467 4.675zm-102.835-82.231c-7.333 16.175-23.331 58.657 2.433 74.126 4.473 2.686 9.802 4.105 15.411 4.105h84.991c5.608 0 10.938-1.42 15.41-4.105 20.013-12.016 15.127-40.108 7.504-61.559-.001-.003-.001-.005-.002-.007l-9.376-26.689c-.014-.03-.027-.062-.04-.093-1.61-3.969-3.728-7.676-6.29-11.018-2.157-2.812-4.767-2.699-7.521-1.959.893 4.66-.11 9.265-2.992 13.714-8.67 13.384-32.361 21.913-46.414 23.695-.182.023-.364.021-.54-.005-16.651 2.766-38.581 1.396-52.574-10.205z" fill="#3762cc"/><path d="m186.129 124.333c-.034-.019-.07-.034-.104-.052-2.316-1.229-4.925-1.865-7.635-1.8l-8.506-6.124c-6.303-4.538-10.42-11.281-11.753-18.661-10.311 9.042-27.747 15.09-39.463 16.576l.034-.105c-13.423 2.342-29.068 1.762-41.525-3.591-.334 2.334-.517 4.716-.517 7.142v4.763c-.108-.002-.213-.016-.321-.016-8.57 0-15.518 6.885-15.518 15.378s6.948 15.378 15.518 15.378c.563 0 1.117-.034 1.665-.091 5.249 22.3 25.42 38.917 49.521 38.917s44.273-16.617 49.521-38.917c.547.058 1.102.091 1.665.091 8.57 0 15.518-6.885 15.518-15.378.001-5.83-3.274-10.902-8.1-13.51z" fill="#f9cfcf"/><path d="m127.542 168.542c-.001 0 0 0 0 0-3.553 0-6.866-1.286-9.091-3.529-1.684-1.695-2.61-3.836-2.61-6.026 0-1.104.896-2 2-2s2 .896 2 2c0 1.144.501 2.254 1.449 3.209 1.458 1.47 3.795 2.347 6.252 2.347 2.464 0 4.726-.855 6.204-2.346.949-.956 1.45-2.066 1.45-3.21 0-1.104.896-2 2-2s2 .896 2 2c0 2.19-.927 4.331-2.611 6.027-2.224 2.242-5.521 3.528-9.043 3.528z" fill="#3762cc"/><path d="m160.037 69.123c-14.1-10.466-28.785-12.611-42.468-10.452-29.334 1.42-51.425 25.46-57.061 32.198-.272.269-1.256 1.385-1.405 1.743-.341.817-.312 1.743.135 2.544 10.598 19.005 37.901 22.774 59.463 19.012l-.034.105c17.639-2.237 48.268-14.808 47.978-32.388-.081-4.981-2.46-9.684-6.608-12.762z" fill="#4671c6"/><path d="m160.785 129.453h-3.761c-1.113-1.118-2.651-1.812-4.349-1.812-3.386 0-6.141 2.754-6.141 6.14v10.233c0 3.386 2.755 6.14 6.141 6.14 3.385 0 6.14-2.754 6.14-6.14v-10.233c0-.111-.011-.219-.017-.329h1.987c1.104 0 2-.896 2-2s-.895-1.999-2-1.999z" fill="#3762cc"/><path d="m102.363 127.641c-1.698 0-3.237.693-4.35 1.812h-3.778c-1.104 0-2 .896-2 2s.896 2 2 2h2.004c-.006.109-.017.218-.017.329v10.233c0 3.386 2.755 6.14 6.141 6.14 3.385 0 6.14-2.754 6.14-6.14v-10.233c0-3.386-2.755-6.141-6.14-6.141z" fill="#3762cc"/><path d="m159.503 197.357h-8.436c-.018-.001-.036-.004-.054-.004l-.003.004h-55.492c-14.66 0-26.544 11.884-26.544 26.544v24.099h117.072c0-8.986 0-15.118 0-24.099 0-14.66-11.884-26.544-26.543-26.544z" fill="#e0ebfc"/><path d="m186.046 250h-117.071c-1.104 0-2-.896-2-2v-24.099c0-15.739 12.805-28.544 28.543-28.544h6.375v-9.08c0-.699.365-1.348.963-1.71.598-.364 1.341-.387 1.962-.063 7.057 3.678 14.693 5.543 22.699 5.543 7.884 0 15.725-1.912 22.674-5.53.62-.321 1.364-.297 1.961.064.598.362.963 1.011.963 1.71v9.066h6.389c15.738 0 28.543 12.805 28.543 28.544v24.099c-.001 1.104-.897 2-2.001 2zm-115.071-4h113.071v-22.099c0-13.533-11.01-24.544-24.543-24.544h-8.389c-1.104 0-2-.896-2-2v-7.885c-6.759 3-14.161 4.574-21.598 4.574-7.445 0-14.857-1.578-21.624-4.586v7.896c0 1.104-.896 2-2 2h-8.375c-13.533 0-24.543 11.011-24.543 24.544v22.1z" fill="#3762cc"/><path d="m100.867 192.249-1.613 5.108 15.301 24.475 12.955-22.121-23.214-9.1c-1.401-.55-2.976.202-3.429 1.638z" fill="#e0ebfc"/><path d="m154.147 192.249 1.613 5.108-15.301 24.475-12.955-22.121 23.214-9.1c1.401-.55 2.975.202 3.429 1.638z" fill="#e0ebfc"/><path d="m140.459 223.832c-.01 0-.02 0-.029 0-.699-.011-1.343-.386-1.696-.989l-12.955-22.121c-.296-.505-.355-1.113-.164-1.666s.615-.993 1.16-1.207l23.214-9.101c1.182-.464 2.516-.415 3.662.133s2.021 1.556 2.403 2.767l1.613 5.107c.176.559.099 1.166-.211 1.663l-15.301 24.475c-.366.585-1.008.939-1.696.939zm-10.047-23.113 10.103 17.251 13.06-20.89-1.335-4.229s0 0 0-.001c-.068-.216-.226-.318-.313-.36s-.267-.099-.479-.018z" fill="#3762cc"/><path d="m127.504 197.357v.01l.012-.01z" fill="#4671c6"/><path d="m103.415 117.489c-17.977 0-37.059-5.464-45.923-21.36-.735-1.318-.821-2.881-.234-4.287.319-.767 1.442-1.976 1.759-2.307 6.203-7.404 28.523-31.357 58.348-32.856 16.036-2.506 30.799 1.142 43.865 10.838 4.618 3.428 7.322 8.652 7.417 14.335.322 19.572-32.773 32.255-49.727 34.405-.182.023-.364.021-.54-.005-4.717.785-9.795 1.237-14.965 1.237zm-42.496-24.024c-.054.171-.089.438.067.716 9.838 17.644 35.906 21.765 57.372 18.017.237-.04.479-.037.709.004 16.846-2.345 45.845-14.21 45.579-30.283-.073-4.43-2.188-8.508-5.801-11.188h-.001c-12.198-9.056-25.979-12.447-40.964-10.083-.071.011-.143.019-.215.022-28.322 1.37-49.735 24.443-55.623 31.482-.04.047-.081.093-.125.136-.211.21-.799.892-.998 1.177z" fill="#3762cc"/><path d="m218.718 118.82h-13.335c-.849 0-1.538-.688-1.538-1.538v-13.431c0-4.523 3.667-8.19 8.19-8.19h.031c4.523 0 8.19 3.667 8.19 8.19v13.431c0 .849-.689 1.538-1.538 1.538z" fill="#6bdddd"/><path d="m212.035 95.662h.031c1.455 0 2.819.383 4.003 1.049v-50.423c0-2.224-1.799-4.027-4.018-4.027s-4.018 1.803-4.018 4.027v50.423c1.184-.666 2.547-1.049 4.002-1.049z" fill="#6bdddd"/><path d="m218.718 120.819h-13.334c-1.951 0-3.538-1.587-3.538-3.537v-13.431c0-5.618 4.571-10.189 10.189-10.189 5.649 0 10.221 4.571 10.221 10.189v13.431c0 1.95-1.587 3.537-3.538 3.537zm-12.872-4h12.41v-12.968c0-3.413-2.776-6.189-6.189-6.189-3.444 0-6.221 2.776-6.221 6.189z" fill="#3762cc"/><path d="m216.069 98.711c-.337 0-.675-.085-.979-.256-.924-.519-1.969-.793-3.023-.793h-.031c-1.055 0-2.1.274-3.023.793-.622.348-1.378.339-1.99-.019s-.989-1.016-.989-1.726v-50.422c0-3.323 2.7-6.027 6.019-6.027s6.019 2.704 6.019 6.027v50.423c0 .71-.377 1.367-.989 1.726-.315.182-.664.274-1.014.274zm-4.034-5.049h.031c.674 0 1.345.067 2.003.2v-47.574c0-1.118-.905-2.027-2.019-2.027s-2.019.909-2.019 2.027v47.574c.659-.133 1.33-.2 2.004-.2z" fill="#3762cc"/><path d="m122.47 8.675-83.761 33.601c-4.008 1.608-3.934 7.424.115 8.924l83.881 31.083c2.103.779 4.408.779 6.512 0l83.906-31.092c4.04-1.497 4.114-7.3.114-8.905l-83.787-33.611c-2.243-.9-4.737-.9-6.98 0z" fill="#4671c6"/><path d="m125.96 84.866c-1.339 0-2.677-.235-3.95-.708l-83.882-31.084c-2.625-.973-4.345-3.433-4.383-6.268-.038-2.837 1.618-5.344 4.219-6.388l83.762-33.601c2.73-1.094 5.739-1.096 8.468 0l83.786 33.613c2.597 1.042 4.25 3.545 4.213 6.378-.038 2.83-1.756 5.287-4.377 6.258l-83.905 31.093c-1.274.472-2.612.707-3.951.707zm-2.745-74.335-83.762 33.601c-1.609.646-1.715 2.17-1.708 2.622.006.451.151 1.969 1.773 2.57l83.881 31.084c1.651.611 3.471.61 5.122 0l83.904-31.093c1.616-.6 1.762-2.111 1.768-2.561s-.099-1.97-1.702-2.612l-83.787-33.611c-1.769-.711-3.719-.711-5.489 0z" fill="#3762cc"/><path d="m177.378 54.032c-12.405-2.245-58.865-9.375-105.216-.02-1.839.371-3.033 1.3-3.033 2.314v.048 23.128.002c0 1.053 1.271 1.989 3.207 2.34 12.405 2.245 58.866 9.375 105.216.02 1.318-.266 3.033-1.017 3.033-2.362v-23.128-.002c0-1.053-1.272-1.99-3.207-2.34z" fill="#4671c6"/><path d="m127.167 88.565c-25.95 0-47.021-3.276-55.188-4.754-2.946-.533-4.851-2.225-4.851-4.308v-23.13c0-2.075 1.82-3.753 4.638-4.322 46.452-9.376 92.853-2.362 105.968.013 2.946.532 4.851 2.223 4.851 4.308v23.13c0 2.089-1.777 3.745-4.638 4.322-17.527 3.537-35.051 4.741-50.78 4.741zm-56.038-9.288c.18.147.661.435 1.563.599 12.939 2.341 58.712 9.261 104.464.026.73-.146 1.238-.414 1.429-.573v-22.73c-.179-.147-.66-.436-1.563-.599 0 0 0 0-.001 0-12.938-2.341-58.708-9.264-104.464-.026-.819.165-1.261.437-1.429.577v22.726zm107.53-22.606h.011z" fill="#3762cc"/><path d="m127.507 199.71c.396-.155 23.192-9.118 23.608-9.208v-4.21c-7.053 3.671-15.077 5.756-23.598 5.756-8.531 0-16.565-2.09-23.624-5.769v4.222c.419.089 23.215 9.052 23.614 9.209z" fill="#f9cfcf"/><path d="m127.507 201.71c-.249 0-.497-.046-.732-.139-2.612-1.028-22.175-8.713-23.45-9.154-.844-.249-1.432-1.026-1.432-1.917v-4.223c0-.699.365-1.348.963-1.71.598-.364 1.341-.387 1.962-.063 7.057 3.678 14.693 5.543 22.699 5.543 7.884 0 15.725-1.912 22.675-5.53.62-.321 1.364-.299 1.961.064.598.362.963 1.011.963 1.71v4.21c0 .891-.587 1.667-1.43 1.917-.802.278-9.365 3.62-22.974 8.968l-.476.187c-.234.091-.482.137-.729.137zm-13.202-9.33c4.322 1.689 9.277 3.636 13.203 5.181 5.687-2.233 9.965-3.911 13.186-5.172-8.598 2.192-17.794 2.189-26.389-.009z" fill="#3762cc"/><path d="m127.525 194.047c-24.129 0-44.887-15.881-51.057-38.826-.044.001-.087.001-.13.001-9.66 0-17.519-7.796-17.519-17.378 0-9.021 6.964-16.459 15.84-17.3v-2.825c0-2.434.181-4.933.538-7.426.088-.616.458-1.156 1.001-1.461.543-.304 1.197-.338 1.769-.094 11.05 4.749 25.771 6.01 40.391 3.459.239-.04.479-.038.71.005 11.614-1.613 28.099-7.552 37.744-16.01.542-.475 1.301-.62 1.978-.384.681.237 1.181.823 1.309 1.532 1.273 7.048 5.163 13.225 10.954 17.394l7.979 5.745c2.765.042 5.493.74 7.932 2.035.034.016.081.04.129.066 5.637 3.051 9.138 8.898 9.138 15.263 0 9.582-7.858 17.378-17.519 17.378-.043 0-.086 0-.129-.001-6.172 22.946-26.93 38.827-51.058 38.827zm-49.519-42.916c.918 0 1.73.631 1.945 1.542 5.179 22.005 24.742 37.374 47.574 37.374 22.831 0 42.395-15.369 47.574-37.374.231-.979 1.171-1.625 2.153-1.531.521.054.998.08 1.458.08 7.454 0 13.519-6.001 13.519-13.378 0-4.897-2.701-9.399-7.051-11.75-.028-.014-.076-.038-.089-.045-2.039-1.082-4.34-1.611-6.652-1.568-.432.034-.863-.122-1.217-.376l-8.506-6.124c-5.74-4.133-9.852-9.987-11.8-16.719-10.611 8.035-26.692 13.562-37.995 14.995-.184.023-.362.021-.539-.005-14.094 2.349-28.289 1.311-39.521-2.851-.132 1.453-.199 2.897-.199 4.317v4.762c0 .537-.216 1.051-.599 1.427-.383.377-.904.562-1.438.573-.084-.002-.168-.007-.25-.013-.002 0-.005 0-.007 0-7.486 0-13.547 6.001-13.547 13.376 0 7.377 6.064 13.378 13.519 13.378.46 0 .938-.026 1.459-.08.071-.007.14-.01.209-.01z" fill="#3762cc"/><path d="m133.06 221.14c-4.143 0-6.929 0-11.1 0l-2.82 7.995 7.354 11.753c.222.355.611.571 1.029.571.383 0 .736-.186.965-.488l7.396-11.827z" fill="#6bdddd"/><path d="m99.254 197.357h-2.58c-19.068 0-34.526 15.458-34.526 34.526v16.117h130.726v-16.116c0-19.068-15.458-34.526-34.526-34.526h-2.58l-13.225 21.142h.021l-14.008 22.388c-.019.031-.046.054-.068.083-.229.302-.581.489-.965.488-.419 0-.807-.216-1.029-.571l-1.494-2.388z" fill="#4671c6"/><path d="m192.873 250h-130.726c-1.104 0-2-.896-2-2v-16.116c0-20.141 16.386-36.526 36.526-36.526h2.58c.689 0 1.33.354 1.695.939l26.575 42.469 13.199-21.097c.036-.078.077-.155.124-.229l13.224-21.143c.365-.584 1.006-.939 1.695-.939h2.58c20.141 0 36.526 16.386 36.526 36.526v16.116c.002 1.104-.893 2-1.998 2zm-128.726-4h126.726v-14.116c0-17.936-14.591-32.526-32.526-32.526h-1.472l-12.492 19.973c-.036.079-.077.156-.124.23l-14.008 22.389c-.052.084-.138.197-.21.283-.609.77-1.544 1.227-2.515 1.227-.003 0-.005 0-.008 0-1.11 0-2.129-.564-2.72-1.51l-26.652-42.592h-1.473c-17.936 0-32.526 14.591-32.526 32.526zm62.723-6.187c-.007.011-.014.021-.02.031zm1.319.014h.01z" fill="#3762cc"/><path d="m126.494 240.888-28.462-45.491c-.487-.779-1.442-1.125-2.315-.84l-16.911 5.514c-1.376.449-1.835 2.166-.865 3.241l40.289 44.688h18.59l40.291-44.688c.969-1.075.511-2.792-.865-3.241l-16.911-5.514c-.873-.285-1.828.062-2.316.841l-28.462 45.491c-.223.356-.613.572-1.033.571-.419-.001-.808-.217-1.03-.572z" fill="#f9a7a7"/><path d="m136.819 250h-18.589c-.566 0-1.106-.24-1.485-.661l-40.291-44.689c-.91-1.009-1.244-2.396-.895-3.709.351-1.313 1.332-2.351 2.624-2.772l16.912-5.514c1.75-.575 3.652.119 4.631 1.68l27.799 44.431 27.798-44.429c.977-1.562 2.882-2.251 4.632-1.682l16.91 5.514c1.293.422 2.274 1.459 2.625 2.772s.016 2.7-.895 3.71l-40.291 44.688c-.378.421-.918.661-1.485.661zm-17.699-4h16.81l39.695-44.027-16.911-5.515-28.463 45.491c-.593.946-1.61 1.51-2.725 1.51-.003 0-.005 0-.008 0-1.11 0-2.129-.564-2.72-1.51l-28.463-45.492-16.911 5.515zm9.068-6.176.002.004c-.001-.001-.002-.002-.002-.004z" fill="#3762cc"/><path d="m114.555 223.832c-.688 0-1.33-.354-1.696-.939l-15.301-24.475c-.31-.497-.387-1.104-.211-1.663l1.613-5.107c.382-1.211 1.258-2.219 2.402-2.766 1.146-.549 2.481-.599 3.663-.134l23.215 9.101c.544.214.968.654 1.159 1.207s.132 1.161-.164 1.666l-12.955 22.121c-.354.604-.997.979-1.696.989-.01 0-.02 0-.029 0zm-13.116-26.752 13.06 20.89 10.103-17.251-21.035-8.246c-.211-.083-.392-.023-.479.018-.088.042-.245.145-.313.36v.001zm-.572-4.831h.01z" fill="#3762cc"/><path d="m127.51 199.711-8.751 15.027 3.201 6.402h11.1l3.208-6.39z" fill="#6bdddd"/><g fill="#3762cc"><path d="m127.526 243.459c-.003 0-.005 0-.008 0-1.11 0-2.129-.564-2.72-1.51l-7.354-11.754c-.323-.516-.394-1.151-.19-1.726l2.82-7.995c.282-.8 1.038-1.335 1.886-1.335h11.101c.848 0 1.604.535 1.886 1.335l2.823 8.005c.203.574.133 1.209-.19 1.726l-7.396 11.827c-.031.051-.065.1-.101.146-.608.802-1.563 1.281-2.557 1.281zm-6.179-14.568 6.17 9.861 6.16-9.851-2.031-5.762h-8.271z"/><path d="m133.061 223.14h-11.101c-.758 0-1.45-.428-1.789-1.105l-3.2-6.401c-.302-.604-.278-1.318.061-1.901l8.75-15.027c.358-.614 1.017-.993 1.729-.993s1.37.378 1.729.993l8.758 15.039c.34.584.362 1.3.059 1.904l-3.207 6.39c-.341.674-1.033 1.101-1.789 1.101zm-9.865-4h8.63l2.168-4.319-6.484-11.135-6.478 11.125z"/></g></svg>