<svg id="Layer_1" enable-background="new 0 0 256 256" height="512" viewBox="0 0 256 256" width="512" xmlns="http://www.w3.org/2000/svg"><path d="m244.102 132.483h-156c-2.761 0-5-2.239-5-5v-110c0-2.761 2.239-5 5-5h156c2.761 0 5 2.239 5 5v110c0 2.761-2.238 5-5 5z" fill="#a4c9ff"/><path d="m93.102 120.483v-96c0-1.105.895-2 2-2h142c1.105 0 2 .895 2 2v96c0 1.105-.895 2-2 2h-142c-1.104 0-2-.896-2-2z" fill="#e0ebfc"/><path d="m217.416 44.111c.331.777.185 1.71-.444 2.349l-9.75 9.91c-.831.845-2.191.856-3.036.025s-.856-2.19-.025-3.036l9.75-9.91c.831-.845 2.191-.856 3.036-.025.206.203.362.437.469.687z" fill="#a4c9ff"/><circle cx="220.849" cy="39.47" fill="#4671c6" r="8.855"/><path d="m179.691 65.763-15.843-1.13c-1.183-.084-2.073-1.111-1.989-2.294s1.111-2.073 2.294-1.989l15.843 1.13c1.183.084 2.073 1.111 1.989 2.294s-1.111 2.073-2.294 1.989z" fill="#a4c9ff"/><path d="m202.761 94.643c-.842-.06-1.605-.617-1.887-1.469l-4.358-13.201c-.372-1.125.24-2.34 1.366-2.711 1.126-.372 2.34.239 2.712 1.366l4.358 13.201c.372 1.126-.24 2.34-1.366 2.711-.274.09-.553.122-.825.103z" fill="#a4c9ff"/><circle cx="195.05" cy="64.719" fill="#f9a7a7" r="17.44"/><circle cx="156.028" cy="60.344" fill="#4671c6" r="8.855"/><circle cx="206.455" cy="101.124" fill="#4671c6" r="8.855"/><path d="m181.309 99.599h-30.811c-2.209 0-4-1.791-4-4 0-2.209 1.791-4 4-4h30.811c2.209 0 4 1.791 4 4 0 2.209-1.791 4-4 4z" fill="#b9befc"/><path d="m181.309 39.938h-54.561c-2.209 0-4-1.791-4-4 0-2.209 1.791-4 4-4h54.561c2.209 0 4 1.791 4 4 0 2.209-1.791 4-4 4z" fill="#b9befc"/><path d="m244.103 134.482h-156c-3.859 0-7-3.141-7-7v-110c0-3.859 3.141-7 7-7h156c3.859 0 7 3.141 7 7v110c0 3.86-3.141 7-7 7zm-156-120c-1.654 0-3 1.346-3 3v110c0 1.654 1.346 3 3 3h156c1.654 0 3-1.346 3-3v-110c0-1.654-1.346-3-3-3z" fill="#3762cc"/><path d="m237.103 124.482h-142c-2.206 0-4-1.794-4-4v-96c0-2.206 1.794-4 4-4h142c2.206 0 4 1.794 4 4v96c0 2.206-1.794 4-4 4zm-142-100v96.003l142-.003v-96z" fill="#3762cc"/><path d="m148.168 95.438-8.03-22.86c-.384-1.241-.811-2.467-1.291-3.676l-.126-.358-.002.023c-1.651-4.068-3.837-7.937-6.557-11.482-2.632-3.431-5.984-3.469-8.593-2.928-.276 19.372-25.86 36.927-44.856 41.794l.017-.135c-21.385 6.774-46.021 4.526-60.929-11.05-7.728 17.707-22.012 58.916 4.137 74.616 4.967 2.982 10.684 4.39 16.44 4.39h42.489.014 42.488c5.756 0 11.473-1.408 16.44-4.39 21.759-13.066 15.52-43.793 8.359-63.944z" fill="#4671c6"/><path d="m123.368 165.771h-84.991c-6.335 0-12.376-1.616-17.469-4.675-27.606-16.575-12.651-59.462-4.94-77.131.268-.613.824-1.052 1.482-1.169.665-.12 1.334.104 1.795.586 13.02 13.602 36.129 17.733 58.882 10.526.262-.085.536-.111.801-.084 17.521-4.76 42.38-21.35 42.642-39.697.014-.938.676-1.739 1.594-1.93 4.452-.924 8.01.312 10.586 3.668 2.735 3.567 5 7.514 6.735 11.733.048.09.089.184.124.282l.126.359c.45 1.128.902 2.415 1.314 3.746l8.005 22.784c8.121 22.857 13.113 52.918-9.216 66.325-5.093 3.061-11.134 4.677-17.47 4.677zm-104.875-77.527c-7.477 18.005-19.169 55.228 4.474 69.423 4.472 2.686 9.801 4.104 15.41 4.104h84.991c5.61 0 10.939-1.419 15.411-4.104 20.011-12.016 15.126-40.108 7.504-61.56-.001-.003-.001-.005-.002-.007l-8.03-22.859c-.405-1.304-.821-2.49-1.263-3.6l-.08-.225c-.015-.032-.029-.064-.043-.099-1.61-3.968-3.728-7.675-6.29-11.018-1.333-1.737-2.941-2.517-5.091-2.39-1.693 20.1-27.563 37.183-46.274 41.977-.198.051-.399.071-.6.06-18.396 5.634-43.24 5.81-60.117-9.702z" fill="#3762cc"/><path d="m140.856 101.828c-.034-.019-.07-.034-.104-.052-2.24-1.189-4.805-1.816-7.313-1.816-.027 0-.054.003-.08.004-.08.004-.16.011-.241.013l-8.506-6.124c-6.084-4.38-10.123-10.816-11.596-17.895-9.251 9.647-22.952 17.085-34.302 19.993l.017-.135c-15.736 4.985-33.235 5.087-47.323-1.41-.004.27-.021.537-.021.808v4.763c-.108-.002-.213-.016-.321-.016-8.57 0-15.518 6.885-15.518 15.378s6.948 15.378 15.518 15.378c.563 0 1.117-.034 1.665-.091 5.249 22.3 25.42 38.917 49.521 38.917s44.273-16.617 49.521-38.917c.547.058 1.102.091 1.665.091 8.57 0 15.518-6.885 15.518-15.378.001-5.832-3.274-10.903-8.1-13.511z" fill="#f9cfcf"/><path d="m114.896 176.818h-8.615c-.019-.001-.037-.004-.056-.004l-.003.004h-56.672c-14.972 0-27.109 12.137-27.109 27.109v24.612h119.563c0-9.177 0-15.439 0-24.612 0-14.972-12.137-27.109-27.108-27.109z" fill="#e0ebfc"/><path d="m142.004 230.538h-119.564c-1.104 0-2-.896-2-2v-24.611c0-16.051 13.059-29.108 29.109-29.108h56.551c.074-.005.149-.005.247 0h8.548c16.051 0 29.108 13.058 29.108 29.108v24.611c.001 1.105-.895 2-1.999 2zm-117.564-4h115.563v-22.611c0-13.845-11.264-25.108-25.108-25.108h-8.615c-.02 0-.039 0-.059 0h-56.671c-13.846 0-25.109 11.264-25.109 25.108v22.611z" fill="#3762cc"/><path d="m82.216 224.216c-.001 0-.001 0-.002 0-.988-.001-1.891-.502-2.414-1.341l-28.131-44.996c-.385-.617-.405-1.394-.053-2.03.353-.636 1.021-1.03 1.749-1.03h28.851.014 28.851c.728 0 1.397.395 1.749 1.03.353.637.332 1.414-.054 2.03l-28.145 44.998c-.525.839-1.427 1.339-2.415 1.339zm.977-3.459s0 .001 0 0zm-26.218-41.939 25.242 40.376 25.253-40.376h-25.143c-.072.004-.146.004-.218 0z" fill="#3762cc"/><path d="m87.891 201.107c-4.231 0-7.077 0-11.336 0l-2.887 8.185 7.83 12.525c.332.531 1.106.532 1.439 0l7.839-12.535z" fill="#6bdddd"/><path d="m82.222 179.222-8.937 15.347 3.269 6.538h11.35l3.263-6.525z" fill="#6bdddd"/><path d="m82.217 224.215c-.989 0-1.892-.5-2.416-1.339l-7.83-12.523c-.322-.517-.393-1.151-.189-1.726l2.888-8.186c.282-.8 1.038-1.335 1.886-1.335h11.336c.848 0 1.604.535 1.886 1.335l2.884 8.176c.203.574.133 1.209-.19 1.726l-7.839 12.534c-.524.837-1.427 1.338-2.416 1.338zm-.977-3.459c-.001.001-.001.001-.002.002zm-5.366-11.707 6.343 10.146 6.351-10.155-2.092-5.933h-8.506z" fill="#3762cc"/><path d="m87.903 203.107h-11.348c-.758 0-1.45-.428-1.789-1.105l-3.27-6.538c-.302-.604-.278-1.318.061-1.901l8.938-15.348c.358-.615 1.017-.993 1.729-.993s1.37.378 1.729.993l8.944 15.359c.339.583.362 1.298.061 1.901l-3.264 6.526c-.34.679-1.033 1.106-1.791 1.106zm-10.112-4h8.876l2.228-4.454-6.672-11.457-6.665 11.445z" fill="#3762cc"/><path d="m55.012 171.601-1.648 5.217 15.627 24.996 13.231-22.592-23.708-9.294c-1.431-.561-3.039.207-3.502 1.673z" fill="#e0ebfc"/><path d="m109.426 171.601 1.648 5.217-15.627 24.996-13.231-22.592 23.708-9.294c1.431-.561 3.039.207 3.502 1.673z" fill="#e0ebfc"/><g fill="#3762cc"><path d="m68.991 203.814c-.688 0-1.33-.354-1.696-.939l-15.627-24.996c-.31-.497-.388-1.104-.211-1.663l1.648-5.217c.387-1.225 1.273-2.245 2.432-2.799 1.16-.554 2.511-.602 3.707-.135l23.708 9.294c.545.214.969.654 1.16 1.207s.132 1.161-.164 1.666l-13.231 22.593c-.354.604-.997.979-1.696.989-.01 0-.02 0-.03 0zm-13.441-27.273 13.386 21.411 10.379-17.723-21.529-8.439c-.232-.09-.426-.026-.522.019-.096.046-.269.158-.343.395v.001zm-.537-4.939h.01z"/><path d="m95.446 203.814c-.01 0-.02 0-.029 0-.699-.011-1.343-.386-1.696-.989l-13.23-22.593c-.296-.505-.355-1.113-.164-1.666s.615-.993 1.16-1.207l23.708-9.294c1.195-.467 2.548-.419 3.707.135 1.158.554 2.045 1.574 2.432 2.799l1.647 5.217c.177.559.099 1.166-.211 1.663l-15.627 24.996c-.367.585-1.008.939-1.697.939zm-10.322-23.585 10.378 17.723 13.386-21.411-1.369-4.337v-.001c-.074-.236-.247-.349-.343-.395s-.293-.109-.522-.019z"/><path d="m82.216 230.538c-.367 0-.733-.101-1.057-.302l-27.121-16.877c-.468-.291-.794-.762-.903-1.302-.109-.539.009-1.1.326-1.55l2.813-3.986-6.567-1.926c-.536-.157-.982-.531-1.23-1.032l-11.657-23.554c-.241-.488-.273-1.056-.087-1.568.186-.513.573-.928 1.072-1.147 3.717-1.643 7.669-2.475 11.744-2.475h3.814c.689 0 1.33.355 1.696.939l27.873 44.584c.26.098.498.25.699.448.382.377.596.891.595 1.427l-.012 6.325c-.001.726-.396 1.394-1.03 1.745-.3.168-.634.251-.968.251zm-24.265-19.455 22.271 13.859.003-1.536c-.16-.157-.304-.336-.426-.532l-27.544-44.056h-2.705c-2.812 0-5.554.459-8.179 1.367l10.302 20.818 8.41 2.467c.62.182 1.113.65 1.326 1.261.212.609.117 1.284-.255 1.812zm25.243 9.676h.01zm-.992-.546c-.001 0-.002 0-.002 0s.001 0 .002 0z"/><path d="m82.228 230.538c-.334 0-.668-.083-.97-.251-.635-.352-1.029-1.02-1.03-1.745l-.012-6.325c-.001-.536.213-1.05.595-1.427.201-.198.439-.351.699-.448l27.871-44.583c.365-.583 1.004-.938 1.692-.939l3.82-.001c4.075 0 8.026.832 11.743 2.475.499.22.887.635 1.072 1.147.187.513.154 1.08-.087 1.568l-11.655 23.555c-.248.501-.694.875-1.23 1.032l-6.567 1.926 2.813 3.986c.317.45.436 1.011.326 1.55-.109.54-.436 1.011-.903 1.302l-27.12 16.877c-.324.201-.69.301-1.057.301zm1.99-7.133.003 1.537 22.271-13.859-3.203-4.54c-.372-.527-.467-1.202-.255-1.812.213-.61.706-1.079 1.326-1.261l8.41-2.467 10.302-20.818c-2.625-.908-5.367-1.367-8.178-1.367h-2.707l-27.544 44.059c-.001 0-.001.001-.002.002-.122.194-.264.37-.423.526zm-1.272-1.589h.01zm-1.693-1.064c0 .001-.001.002-.001.002zm.989-.539h.002c-.001 0-.002 0-.002 0z"/><path d="m133.733 230.538h-23.83c-1.104 0-2-.896-2-2v-9.872c0-1.104.896-2 2-2h23.83c1.104 0 2 .896 2 2v9.872c0 1.105-.895 2-2 2zm-21.83-4h19.83v-5.872h-19.83z"/></g><path d="m119.562 228.539h-4.254v-11.745c0-1.175.952-2.127 2.127-2.127 1.175 0 2.127.952 2.127 2.127z" fill="#a4c9ff"/><path d="m82.263 146.023c-3.558 0-6.868-1.281-9.085-3.516-1.683-1.696-2.609-3.837-2.609-6.026 0-1.104.896-2 2-2s2 .896 2 2c0 1.144.501 2.254 1.449 3.21 1.449 1.46 3.784 2.332 6.246 2.332 2.477 0 4.74-.851 6.21-2.332.948-.956 1.449-2.066 1.449-3.21 0-1.104.896-2 2-2s2 .896 2 2c0 2.189-.927 4.33-2.609 6.026-2.216 2.235-5.514 3.516-9.051 3.516z" fill="#3762cc"/><path d="m115.513 106.947h-3.761c-1.113-1.118-2.651-1.812-4.349-1.812-3.386 0-6.141 2.754-6.141 6.14v10.233c0 3.386 2.755 6.14 6.141 6.14 3.385 0 6.14-2.754 6.14-6.14v-10.233c0-.111-.011-.219-.017-.329h1.987c1.104 0 2-.896 2-2s-.896-1.999-2-1.999z" fill="#3762cc"/><path d="m57.09 105.136c-1.698 0-3.237.693-4.35 1.812h-3.778c-1.104 0-2 .896-2 2s.896 2 2 2h2.004c-.006.109-.017.218-.017.329v10.233c0 3.386 2.755 6.14 6.141 6.14 3.385 0 6.14-2.754 6.14-6.14v-10.233c0-3.387-2.754-6.141-6.14-6.141z" fill="#3762cc"/><path d="m246.102 243.517h-234c-1.657 0-3-1.343-3-3v-8.979c0-1.657 1.343-3 3-3h234c1.657 0 3 1.343 3 3v8.979c0 1.657-1.343 3-3 3z" fill="#4671c6"/><path d="m246.103 245.518h-234c-2.757 0-5-2.243-5-5v-8.979c0-2.757 2.243-5 5-5h234c2.757 0 5 2.243 5 5v8.979c0 2.756-2.244 5-5 5zm-234-14.98c-.552 0-1 .448-1 1v8.979c0 .552.448 1 1 1h234c.552 0 1-.448 1-1v-8.979c0-.552-.448-1-1-1z" fill="#3762cc"/><path d="m196.053 212.342-19.677-43.712c-.26-.577-.394-1.202-.394-1.835v-16.375c0-.197.16-.357.357-.357h1.882c.985 0 1.784-.799 1.784-1.784v-3.583c0-.985-.799-1.784-1.784-1.784h-27.718c-.985 0-1.784.799-1.784 1.784v3.583c0 .985.799 1.784 1.784 1.784h1.882c.197 0 .357.16.357.357v16.375c0 .633-.134 1.258-.394 1.835l-19.677 43.712c-1.402 3.115-2.127 6.491-2.127 9.907v.033c0 3.456 2.801 6.257 6.257 6.257h27.561 27.561c3.456 0 6.257-2.801 6.257-6.257v-.033c0-3.416-.725-6.792-2.127-9.907z" fill="#e0ebfc"/><path d="m191.923 230.538h-55.123c-4.553 0-8.257-3.704-8.257-8.257 0-3.756.775-7.365 2.303-10.761l19.677-43.712c.146-.321.219-.663.219-1.014v-14.731h-.239c-2.086 0-3.783-1.697-3.783-3.784v-3.583c0-2.087 1.697-3.784 3.783-3.784h27.719c2.086 0 3.783 1.697 3.783 3.784v3.583c0 2.087-1.697 3.784-3.783 3.784h-.239v14.731c0 .351.073.692.219 1.014l19.677 43.712c1.527 3.396 2.303 7.005 2.303 10.729-.002 4.585-3.706 8.289-8.259 8.289zm-41.204-82.475h1.665c1.3 0 2.357 1.057 2.357 2.356v16.375c0 .921-.192 1.814-.57 2.656l-19.677 43.712c-1.295 2.875-1.951 5.933-1.951 9.086 0 2.38 1.909 4.289 4.257 4.289h55.123c2.348 0 4.257-1.909 4.257-4.257 0-3.186-.656-6.243-1.95-9.118-.001 0-.001 0-.001 0l-19.677-43.712c-.378-.842-.57-1.735-.57-2.656v-16.374c0-1.3 1.058-2.356 2.357-2.356h1.665v-3.151h-27.285z" fill="#3762cc"/><path d="m190.316 213.32-7.256-16.12h-37.397l-7.256 16.12c-1.107 2.459-1.667 5.073-1.666 7.799.001 1.551 1.265 2.807 2.816 2.807h49.61c1.552 0 2.816-1.263 2.816-2.845-.001-2.694-.561-5.305-1.667-7.761z" fill="#6bdddd"/><path d="m242.774 223.172v-55.397c0-.791-.641-1.433-1.433-1.433h-5.253c-.791 0-1.433.641-1.433 1.433v50.144c0 1.385-1.123 2.507-2.507 2.507h-58.951c-1.385 0-2.507-1.123-2.507-2.507v-50.144c0-.791-.641-1.433-1.433-1.433h-5.253c-.791 0-1.433.641-1.433 1.433v55.397c0 2.719 2.046 5.373 5.701 5.373 1.367 0 71.537 0 69.129 0 2.968-.001 5.373-2.406 5.373-5.373z" fill="#a4c9ff"/><path d="m189.109 170.216h-12.989c-.512 0-.928-.415-.928-.928v-5.362c0-.512.415-.928.928-.928h12.989c.512 0 .928.415.928.928v5.362c0 .513-.416.928-.928.928z" fill="#4671c6"/><path d="m176.841 170.216v39.868c0 3.188 2.585 5.773 5.773 5.773s5.773-2.585 5.773-5.773v-39.868z" fill="#e0ebfc"/><path d="m182.388 213.376c-1.751-.117-3.073-1.653-3.073-3.408v-36.491c0-.434.352-.786.786-.786h5.025c.434 0 .786.352.786.786v36.607c.001 1.894-1.603 3.42-3.524 3.292z" fill="#f9a7a7"/><path d="m176.841 186.813h11.546v9.691h-11.546z" fill="#f9cfcf"/><path d="m182.614 217.857c-4.286 0-7.773-3.487-7.773-7.773v-39.868c0-1.104.896-2 2-2h11.547c1.104 0 2 .896 2 2v39.868c0 4.286-3.488 7.773-7.774 7.773zm-3.773-45.641v37.868c0 2.081 1.692 3.773 3.773 3.773s3.773-1.692 3.773-3.773v-37.868z" fill="#3762cc"/><path d="m188.388 198.503h-11.547c-1.104 0-2-.896-2-2v-9.69c0-1.104.896-2 2-2h11.547c1.104 0 2 .896 2 2v9.69c0 1.104-.896 2-2 2zm-9.547-4h7.547v-5.69h-7.547z" fill="#3762cc"/><path d="m189.109 172.217h-12.99c-1.614 0-2.928-1.313-2.928-2.929v-5.361c0-1.615 1.313-2.929 2.928-2.929h12.99c1.614 0 2.928 1.313 2.928 2.929v5.361c0 1.615-1.313 2.929-2.928 2.929zm-11.918-4h10.846v-3.219h-10.846z" fill="#3762cc"/><path d="m209.167 170.216h-12.989c-.512 0-.928-.415-.928-.928v-5.362c0-.512.415-.928.928-.928h12.989c.512 0 .928.415.928.928v5.362c0 .513-.415.928-.928.928z" fill="#4671c6"/><path d="m196.899 170.216v39.868c0 3.188 2.585 5.773 5.773 5.773s5.773-2.585 5.773-5.773v-39.868z" fill="#e0ebfc"/><path d="m202.447 213.376c-1.751-.117-3.073-1.653-3.073-3.408v-36.491c0-.434.352-.786.786-.786h5.025c.434 0 .786.352.786.786v36.607c0 1.894-1.604 3.42-3.524 3.292z" fill="#ffea92"/><path d="m196.899 186.813h11.546v9.691h-11.546z" fill="#f9cfcf"/><path d="m202.673 217.857c-4.286 0-7.773-3.487-7.773-7.773v-39.868c0-1.104.896-2 2-2h11.546c1.104 0 2 .896 2 2v39.868c-.001 4.286-3.487 7.773-7.773 7.773zm-3.774-45.641v37.868c0 2.081 1.692 3.773 3.773 3.773 2.08 0 3.772-1.692 3.772-3.773v-37.868z" fill="#3762cc"/><path d="m208.445 198.503h-11.546c-1.104 0-2-.896-2-2v-9.69c0-1.104.896-2 2-2h11.546c1.104 0 2 .896 2 2v9.69c0 1.104-.895 2-2 2zm-9.546-4h7.546v-5.69h-7.546z" fill="#3762cc"/><path d="m209.167 172.217h-12.989c-1.614 0-2.928-1.313-2.928-2.929v-5.361c0-1.615 1.313-2.929 2.928-2.929h12.989c1.614 0 2.928 1.313 2.928 2.929v5.361c0 1.615-1.314 2.929-2.928 2.929zm-11.917-4h10.845v-3.219h-10.845z" fill="#3762cc"/><path d="m229.226 170.216h-12.989c-.512 0-.928-.415-.928-.928v-5.362c0-.512.415-.928.928-.928h12.989c.512 0 .928.415.928.928v5.362c-.001.513-.416.928-.928.928z" fill="#4671c6"/><path d="m216.958 170.216v39.868c0 3.188 2.585 5.773 5.773 5.773s5.773-2.585 5.773-5.773v-39.868z" fill="#e0ebfc"/><path d="m222.505 213.376c-1.751-.117-3.073-1.653-3.073-3.408v-36.491c0-.434.352-.786.786-.786h5.025c.434 0 .786.352.786.786v36.607c.001 1.894-1.603 3.42-3.524 3.292z" fill="#6bdddd"/><path d="m216.958 186.813h11.546v9.691h-11.546z" fill="#f9cfcf"/><path d="m222.73 217.857c-4.286 0-7.772-3.487-7.772-7.773v-39.868c0-1.104.896-2 2-2h11.546c1.104 0 2 .896 2 2v39.868c0 4.286-3.487 7.773-7.774 7.773zm-3.772-45.641v37.868c0 2.081 1.692 3.773 3.772 3.773 2.081 0 3.773-1.692 3.773-3.773v-37.868z" fill="#3762cc"/><path d="m228.504 198.503h-11.546c-1.104 0-2-.896-2-2v-9.69c0-1.104.896-2 2-2h11.546c1.104 0 2 .896 2 2v9.69c0 1.104-.896 2-2 2zm-9.546-4h7.546v-5.69h-7.546z" fill="#3762cc"/><path d="m229.226 172.217h-12.989c-1.614 0-2.928-1.313-2.928-2.929v-5.361c0-1.615 1.313-2.929 2.928-2.929h12.989c1.614 0 2.928 1.313 2.928 2.929v5.361c-.001 1.615-1.314 2.929-2.928 2.929zm-11.917-4h10.845v-3.219h-10.845z" fill="#3762cc"/><path d="m237.462 230.544h-69.189c-5.002 0-7.701-3.798-7.701-7.372v-55.397c0-1.893 1.54-3.433 3.433-3.433h5.253c1.893 0 3.433 1.54 3.433 3.433v50.144c0 .28.228.508.508.508h58.951c.279 0 .507-.228.507-.508v-50.144c0-1.893 1.54-3.433 3.433-3.433h5.254c1.893 0 3.433 1.54 3.433 3.433v55.397c0 4.022-3.239 7.304-7.246 7.371-.025.001-.047.001-.069.001zm-72.891-62.202v54.83c0 1.624 1.158 3.372 3.701 3.372h69.129c1.86 0 3.373-1.513 3.373-3.372v-54.83h-4.119v49.576c0 2.485-2.021 4.508-4.507 4.508h-58.951c-2.485 0-4.508-2.022-4.508-4.508v-49.576z" fill="#3762cc"/><path d="m200.882 147.267h3.582v63.697h-3.582z" fill="#a4c9ff" transform="matrix(0 1 -1 0 381.788 -23.558)"/><path d="m234.521 182.906h-63.697c-1.104 0-2-.896-2-2v-3.582c0-1.104.896-2 2-2h63.697c1.104 0 2 .896 2 2v3.582c0 1.105-.895 2-2 2z" fill="#3762cc"/><path d="m58.515 169.928 23.704 9.292 23.704-9.292c.134-.052.27-.082.406-.112v-6.284c-7.167 3.828-15.362 6.01-24.077 6.01-8.66 0-16.807-2.155-23.942-5.938-.068-.035-.139-.065-.208-.101v6.312c.139.029.277.06.413.113z" fill="#f9cfcf"/><path d="m82.219 181.221c-.248 0-.495-.046-.73-.138l-23.682-9.285c-.043-.012-.087-.02-.13-.029-.917-.201-1.574-1.015-1.574-1.954v-6.312c0-.697.363-1.344.958-1.707.596-.365 1.336-.392 1.957-.071l.217.105c7.053 3.739 15.008 5.712 23.018 5.712 8.063 0 16.063-1.996 23.135-5.773.62-.332 1.369-.314 1.971.049.603.361.972 1.012.972 1.715v6.284c0 .942-.657 1.756-1.578 1.955-.043.009-.086.017-.128.029l-23.675 9.282c-.236.092-.483.138-.731.138zm-22.116-12.819 22.116 8.67 22.11-8.668v-1.653c-6.893 3.142-14.459 4.791-22.077 4.791-7.642 0-15.237-1.661-22.149-4.825zm-2.288 3.399h.01z" fill="#3762cc"/><path d="m82.252 171.541c-24.128 0-44.886-15.88-51.057-38.825-.043.001-.087.001-.13.001-9.659 0-17.518-7.796-17.518-17.379 0-9.021 6.965-16.459 15.84-17.3v-2.825c0-.184.006-.365.012-.548l.009-.296c.013-.676.365-1.299.938-1.658s1.287-.405 1.9-.122c12.949 5.974 29.672 6.453 45.881 1.32.262-.085.538-.111.802-.084 11.659-3.153 24.397-10.654 32.644-19.253.515-.536 1.286-.744 1.995-.537.714.204 1.255.788 1.406 1.515 1.404 6.751 5.242 12.674 10.806 16.679l7.962 5.733c2.768.048 5.51.753 7.948 2.047l.118.06c5.644 3.05 9.149 8.9 9.149 15.27 0 9.583-7.858 17.379-17.519 17.379-.043 0-.087 0-.13-.001-6.17 22.944-26.928 38.824-51.056 38.824zm-49.52-42.916c.918 0 1.73.631 1.945 1.542 5.18 22.005 24.742 37.374 47.574 37.374s42.395-15.369 47.574-37.374c.23-.981 1.171-1.631 2.156-1.531.518.055.993.081 1.456.081 7.454 0 13.519-6.002 13.519-13.379 0-4.892-2.695-9.389-7.035-11.741-.036-.019-.104-.053-.124-.063-1.895-1.005-4.141-1.566-6.314-1.574-.002 0-.004 0-.006 0-.139.01-.226.015-.313.017-.432.027-.863-.121-1.217-.376l-8.506-6.125c-5.418-3.899-9.407-9.385-11.472-15.688-8.858 8.225-21.355 15.178-32.761 18.101-.198.051-.396.071-.599.06-15.781 4.839-32.035 4.627-45.224-.528v2.557c0 .537-.216 1.051-.599 1.427-.382.376-.908.578-1.438.573-.087-.002-.174-.007-.26-.014-.002 0-.004 0-.006 0-7.478 0-13.538 6.001-13.538 13.376 0 7.377 6.064 13.379 13.518 13.379.464 0 .939-.026 1.455-.081.075-.009.145-.013.215-.013z" fill="#3762cc"/><path d="m123.301 50.377c-.997-6.225-4.36-11.86-9.289-15.277-9.242-6.408-18.208-9.624-26.743-10.529v-.002c-.017-.001-.032-.002-.049-.003-14.867-1.562-33.748 4.209-43.925 12.197l.016.001c-16.474 11.76-26.791 29.659-30.098 36.005-.237.365-1.069 1.865-1.16 2.329-.21 1.059-.01 2.214.608 3.17 13.797 21.382 41.999 25.173 66.07 17.548l-.017.135c20.224-5.183 47.921-24.746 44.587-45.574z" fill="#4671c6"/><path d="m55.984 101.362c-17.458.001-34.847-6.268-45.005-22.011-.88-1.363-1.203-3.056-.889-4.643.175-.882 1.115-2.485 1.375-2.916 3.698-7.087 14.004-24.676 30.505-36.529.029-.025.059-.05.09-.074 11.132-8.738 30.64-14.155 45.37-12.613.019.002.036.004.055.007 9.389.996 18.697 4.654 27.667 10.873 5.338 3.701 9.027 9.753 10.124 16.604 3.567 22.28-24.973 42.422-46.065 47.827-.198.051-.399.071-.6.06-7.139 2.184-14.891 3.415-22.627 3.415zm-41.981-25.81c-.094.561.028 1.151.338 1.632 13.667 21.182 41.884 23.662 63.786 16.726.262-.085.538-.111.802-.084 19.973-5.403 45.437-24.151 42.397-43.132-.926-5.782-4.007-10.866-8.454-13.95-8.413-5.832-17.098-9.259-25.813-10.183-.018-.002-.034-.004-.052-.007-13.511-1.41-32.038 3.693-42.309 11.65-.069.067-.145.13-.225.188-15.941 11.379-25.931 28.478-29.487 35.3-.028.056-.06.108-.093.16-.208.324-.758 1.35-.89 1.7zm.012-.066c0 .001 0 .002-.001.003.001-.001.001-.002.001-.003z" fill="#3762cc"/></svg>