<svg id="Layer_1" enable-background="new 0 0 256 256" height="512" viewBox="0 0 256 256" width="512" xmlns="http://www.w3.org/2000/svg"><path d="m240.763 194.167h-228c-3.314 0-6-2.686-6-6v-158c0-3.314 2.686-6 6-6h228c3.314 0 6 2.686 6 6v158c0 3.313-2.687 6-6 6z" fill="#6bdddd"/><path d="m240.763 196.167h-228c-4.411 0-8-3.589-8-8v-158c0-4.411 3.589-8 8-8h228c4.411 0 8 3.589 8 8v158c0 4.411-3.589 8-8 8zm-228-170c-2.206 0-4 1.794-4 4v158c0 2.206 1.794 4 4 4h228c2.206 0 4-1.794 4-4v-158c0-2.206-1.794-4-4-4z" fill="#3762cc"/><path d="m16.763 181.167v-144c0-1.657 1.343-3 3-3h214c1.657 0 3 1.343 3 3v144c0 1.657-1.343 3-3 3h-214c-1.657 0-3-1.344-3-3z" fill="#4671c6"/><path d="m233.763 186.167h-214c-2.757 0-5-2.243-5-5v-144c0-2.757 2.243-5 5-5h214c2.757 0 5 2.243 5 5v144c0 2.757-2.243 5-5 5zm-214-150c-.551 0-1 .448-1 1v144c0 .552.449 1 1 1h214c.551 0 1-.448 1-1v-144c0-.552-.449-1-1-1z" fill="#3762cc"/><path d="m214.317 188.281h-7.255c-.016-.001-.031-.003-.047-.003l-.003.003h-47.722c-12.607 0-22.827 10.22-22.827 22.827v20.725h100.68c0-7.728 0-13.001 0-20.725.001-12.606-10.219-22.827-22.826-22.827z" fill="#e0ebfc"/><path d="m214.317 188.281h-7.255c-.016-.001-.031-.003-.047-.003l-.003.003h-47.722c-12.607 0-22.827 10.22-22.827 22.827v20.725h100.681c0-7.728 0-13.001 0-20.725 0-12.607-10.22-22.827-22.827-22.827z" fill="#e0ebfc"/><path d="m237.144 233.833h-100.681c-1.104 0-2-.896-2-2v-20.725c0-13.689 11.138-24.827 24.828-24.827h47.617c.065-.003.129-.005.213 0h7.195c13.69 0 24.827 11.138 24.827 24.827v20.725c.001 1.105-.894 2-1.999 2zm-98.681-4h96.681v-18.725c0-11.484-9.343-20.827-20.827-20.827h-7.255c-.016.001-.032.001-.049 0h-47.722c-11.484 0-20.828 9.343-20.828 20.827z" fill="#3762cc"/><path d="m247.737 134.978c-2.475-19.01-6.751-32.292-10.612-41.061-1.636-4.317-3.901-8.443-6.782-12.25-.945-1.302-1.517-1.915-1.517-1.915-.781-.936-1.748-1.683-2.825-2.228 2.057 6.547.867 12.97-2.305 17.642-11.002 20.059-37.577 27.08-37.577 27.08l.015-.123c-2.133.692-4.303 1.281-6.507 1.75-26.383 5.623-41.526-3.562-49.097-11.07-6.752 16.131-17.146 49.23 4.41 62.174 4.271 2.565 9.188 3.775 14.138 3.775h36.539.012 36.54c4.95 0 9.867-1.21 14.138-3.775 13.828-8.303 14.504-24.904 11.43-39.999z" fill="#a4c9ff"/><path d="m222.169 180.753h-73.091c-5.498 0-10.743-1.404-15.167-4.061-22.451-13.48-12.91-46.298-5.225-64.661.257-.613.802-1.059 1.454-1.189.652-.126 1.326.074 1.799.542 7.804 7.738 22.339 15.848 47.272 10.533 2.079-.443 4.201-1.014 6.307-1.696.239-.078.485-.109.73-.095 4.049-1.219 26.174-8.563 35.695-25.923.03-.056.063-.109.099-.162 3.021-4.447 3.793-10.396 2.067-15.912-.24-.769.003-1.605.618-2.125s1.482-.622 2.198-.255c1.331.677 2.476 1.58 3.406 2.684.167.184.752.848 1.632 2.059 2.925 3.864 5.292 8.137 7.015 12.668 5.02 11.418 8.631 25.377 10.734 41.489 4.093 20.187-.186 34.725-12.375 42.044-4.425 2.656-9.67 4.06-15.168 4.06zm-90.876-64.513c-5.926 15.064-14.71 45.383 4.676 57.022 3.803 2.283 8.335 3.49 13.108 3.49h73.091c4.773 0 9.306-1.207 13.108-3.49 10.77-6.467 14.302-19.213 10.5-37.886-.009-.047-.017-.094-.023-.142-2.055-15.787-5.574-29.418-10.459-40.513-.014-.032-.027-.064-.04-.097-1.536-4.053-3.632-7.882-6.234-11.39.174 4.648-1.058 9.167-3.617 12.973-11.311 20.512-37.657 27.675-38.775 27.97-.187.05-.378.074-.566.065-2.012.629-4.033 1.162-6.02 1.585-24.552 5.238-39.839-1.851-48.749-9.587z" fill="#3762cc"/><path d="m230.829 123.875c-.093 0-.184.012-.276.014v-.129c-9.067-3.576-15.547-8.519-20.177-13.635-11.497 8.744-24.256 12.12-24.256 12.12l.015-.123c-2.133.692-4.303 1.281-6.507 1.75-16.089 3.429-27.997 1.349-36.561-2.498v2.514c-.093-.002-.183-.014-.276-.014-7.37 0-13.345 5.921-13.345 13.225s5.975 13.225 13.345 13.225c.484 0 .961-.029 1.432-.079 4.514 19.177 21.861 33.468 42.588 33.468s38.074-14.291 42.588-33.468c.471.05.948.079 1.432.079 7.37 0 13.345-5.921 13.345-13.225s-5.977-13.224-13.347-13.224z" fill="#f9cfcf"/><path d="m85.059 139.91c-.966 0-1.928-.397-2.619-1.178l-18.014-20.312c-.305-.344-.749-.522-1.2-.503l-16.176.834c-3.818.199-7.267-2.171-8.484-5.751l-12.117-35.599c-.623-1.83.355-3.818 2.186-4.441 1.83-.621 3.818.355 4.441 2.186l12.116 35.6c.215.633.84 1.032 1.496 1.016l16.177-.834c2.597-.131 5.073.905 6.798 2.849l18.013 20.313c1.283 1.446 1.15 3.658-.296 4.94-.666.589-1.495.88-2.321.88z" fill="#e0ebfc"/><g fill="#3762cc"><path d="m186.824 167.514c-.001 0 0 0 0 0-3.133 0-6.053-1.132-8.011-3.106-1.5-1.512-2.326-3.423-2.326-5.38 0-1.104.896-2 2-2s2 .896 2 2c0 .908.403 1.795 1.166 2.563 1.194 1.204 3.127 1.923 5.171 1.923 2.056 0 3.931-.701 5.143-1.923.763-.769 1.166-1.655 1.166-2.563 0-1.104.896-2 2-2s2 .896 2 2c0 1.957-.826 3.868-2.326 5.38-1.959 1.974-4.869 3.106-7.983 3.106z"/><path d="m165.183 131.65c-1.46 0-2.783.597-3.74 1.558h-2.97c-.95 0-1.72.77-1.72 1.72s.77 1.72 1.72 1.72h1.458c-.005.095-.029.186-.029.282v8.801c0 2.912 2.369 5.28 5.281 5.28 2.911 0 5.28-2.369 5.28-5.28v-8.801c0-2.911-2.369-5.28-5.28-5.28z"/><path d="m215.145 133.208h-2.955c-.957-.961-2.28-1.558-3.74-1.558-2.912 0-5.281 2.369-5.281 5.28v8.801c0 2.912 2.369 5.28 5.281 5.28 2.911 0 5.28-2.369 5.28-5.28v-8.801c0-.097-.023-.187-.029-.282h1.443c.95 0 1.72-.771 1.72-1.72s-.769-1.72-1.719-1.72z"/><path d="m160.886 157.119c-5.242 0-9.031-1.087-11.311-3.254-.027-.025-.054-.053-.081-.081-2.13-2.27-3.571-5.071-4.167-8.104-.299-1.523-.383-3.08-.248-4.626 0 0 0 0 0-.001l1.042-11.901c.092-1.058.592-2.017 1.405-2.699.814-.683 1.848-1.011 2.903-.914l29.353 2.567c2.965.26 5.166 2.883 4.906 5.848l-.607 6.937c-.575 6.575-5.071 13.869-13.818 15.342-3.515.591-6.644.886-9.377.886zm-8.515-6.116c2.463 2.284 8.576 2.74 17.229 1.284 6.639-1.117 10.056-6.704 10.498-11.746l.607-6.937c.067-.767-.503-1.446-1.271-1.514l-29.354-2.567-1.016 11.88v-.001c-.102 1.172-.039 2.353.188 3.507.448 2.275 1.526 4.381 3.119 6.094z"/><path d="m212.775 157.127c-2.744 0-5.906-.304-9.503-.909-7.574-1.274-13.126-7.439-13.818-15.341l-.607-6.938c-.126-1.436.315-2.835 1.242-3.939s2.228-1.781 3.665-1.906l29.354-2.568c1.056-.097 2.089.232 2.902.915.814.683 1.313 1.642 1.406 2.7l1.041 11.899v.001c.135 1.547.052 3.103-.248 4.626-.596 3.031-2.037 5.834-4.167 8.104-.026.028-.053.056-.081.082-2.303 2.186-5.996 3.274-11.186 3.274zm10.655-27.639-29.329 2.589c-.372.032-.709.208-.948.493-.24.286-.354.648-.322 1.02l.607 6.938c.53 6.058 4.749 10.777 10.498 11.744 11.064 1.863 15.478.342 17.229-1.283 1.593-1.715 2.671-3.821 3.119-6.095.227-1.154.29-2.334.188-3.506z"/></g><path d="m192.673 140.854h-11.841c-1.226 0-2.22-.994-2.22-2.22 0-1.226.994-2.22 2.22-2.22h11.841c1.226 0 2.22.994 2.22 2.22 0 1.226-.994 2.22-2.22 2.22z" fill="#a4c9ff"/><path d="m192.673 142.854h-11.841c-2.327 0-4.22-1.893-4.22-4.22s1.893-4.221 4.22-4.221h11.841c2.327 0 4.22 1.894 4.22 4.221s-1.893 4.22-4.22 4.22zm-11.841-4.441c-.122 0-.22.099-.22.221 0 .121.099.22.22.22h11.841c.122 0 .22-.099.22-.22 0-.122-.099-.221-.22-.221z" fill="#3762cc"/><path d="m115.27 180.284-19.181 6.617c-2.414.833-5.045-.449-5.878-2.863l-6.959-20.172c-.833-2.414.449-5.045 2.863-5.878l19.181-6.617c2.414-.833 5.045.449 5.878 2.863l6.959 20.172c.833 2.414-.449 5.045-2.863 5.878z" fill="#f9cfcf"/><path d="m94.577 189.157c-.991 0-1.977-.225-2.895-.672-1.59-.774-2.784-2.122-3.361-3.794l-6.959-20.172c-.577-1.673-.468-3.47.306-5.061.775-1.591 2.123-2.784 3.795-3.36l19.18-6.618c3.45-1.191 7.23.649 8.421 4.102l6.959 20.172c1.191 3.452-.648 7.229-4.101 8.421l-19.181 6.617c-.707.244-1.437.365-2.164.365zm12.223-36.039c-.283 0-.571.047-.853.144l-19.18 6.618c-.663.229-1.196.701-1.503 1.331s-.35 1.342-.121 2.004l6.959 20.172c.229.662.701 1.196 1.331 1.503s1.342.35 2.004.121l19.181-6.617c1.367-.472 2.096-1.968 1.624-3.335l-6.959-20.172c-.374-1.085-1.394-1.769-2.483-1.769zm8.471 27.166h.01z" fill="#3762cc"/><path d="m117.068 179.119c-.489.506-1.087.92-1.798 1.166l-17.238 5.947 3.321 9.626 19.204-6.625z" fill="#f9cfcf"/><path d="m101.353 197.857c-.301 0-.6-.067-.875-.202-.477-.232-.842-.645-1.015-1.146l-3.321-9.626c-.36-1.044.194-2.183 1.238-2.543l17.238-5.947c.368-.127.708-.351 1.012-.665.483-.5 1.19-.715 1.871-.562.679.15 1.23.643 1.458 1.3l3.489 10.112c.173.501.14 1.051-.092 1.528s-.645.842-1.146 1.015l-19.204 6.626c-.213.074-.433.11-.653.11zm-.778-10.387 2.016 5.845 15.423-5.321-2.017-5.845c-.025.009-.05.018-.075.026z" fill="#3762cc"/><path d="m186.809 188.281h-.011v.009z" fill="#f9a7a7"/><path d="m214.317 188.285c-1.284 0-2.342 0-3.215 0l-23.698 37.889c-.28.448-.932.447-1.211 0l-23.687-37.888h-3.215c-4.857 0-9.356 1.521-13.056 4.107l2.695 17.666v21.776h39.055 39.054v-21.776l2.442-16.003c-4.033-3.589-9.343-5.771-15.164-5.771z" fill="#f9a7a7"/><path d="m186.798 228.509h-.001c-.941-.001-1.801-.478-2.3-1.275l-23.689-37.892c-.385-.617-.406-1.394-.054-2.03.353-.636 1.022-1.03 1.75-1.03h24.295c.004.001.007.001.011 0h24.294c.727 0 1.397.395 1.75 1.03.353.637.332 1.414-.054 2.03l-23.7 37.892c-.501.798-1.361 1.275-2.302 1.275zm1.088-3.4.002.003c-.001-.001-.001-.002-.002-.003zm-21.774-34.828 20.687 33.089 20.695-33.089h-20.587c-.071.004-.143.004-.214 0z" fill="#3762cc"/><path d="m227.039 233.833h-78.109c-1.104 0-2-.896-2-2v-21.624l-2.672-17.516c-.115-.753.208-1.505.832-1.941 4.183-2.923 9.093-4.468 14.202-4.468h3.215c.689 0 1.331.355 1.696.939l22.597 36.146 22.607-36.146c.366-.584 1.006-.939 1.696-.939h3.215c6.086 0 11.944 2.229 16.493 6.275.506.45.75 1.126.648 1.796l-2.419 15.854v21.624c-.001 1.105-.897 2-2.001 2zm-76.109-4h74.109v-19.775c0-.101.008-.202.023-.302l2.273-14.897c-3.688-2.957-8.27-4.574-13.018-4.574h-2.107l-23.11 36.949c-.501.799-1.361 1.274-2.302 1.275h-.001c-.941-.001-1.801-.478-2.3-1.275l-23.099-36.949h-2.106c-3.875 0-7.612 1.059-10.886 3.074l2.502 16.397c.015.1.023.201.023.302v19.775z" fill="#3762cc"/><path d="m209.711 183.888 1.387 4.393-9.655 15.444c-1.594 2.549-5.324 2.495-6.843-.099l-7.801-13.321 19.963-7.826c1.205-.473 2.559.174 2.949 1.409z" fill="#e0ebfc"/><path d="m198.054 207.605c-.03 0-.06-.001-.09-.001-2.118-.031-4.021-1.141-5.091-2.968l-7.801-13.32c-.296-.505-.355-1.113-.164-1.666s.615-.993 1.16-1.207l19.963-7.826c1.088-.427 2.318-.382 3.373.122s1.862 1.432 2.213 2.547l1.388 4.393c.176.559.099 1.166-.211 1.663l-9.656 15.444c-1.106 1.77-3.001 2.819-5.084 2.819zm-8.347-16.292 6.619 11.302c.515.879 1.358.984 1.697.989.346-.008 1.186-.077 1.725-.939l9.167-14.661-1.11-3.514s0 0 0-.001c-.021-.064-.062-.111-.123-.141-.063-.031-.126-.032-.189-.007z" fill="#3762cc"/><path d="m163.891 183.888-1.387 4.393 9.655 15.444c1.594 2.549 5.324 2.495 6.843-.099l7.801-13.321-19.963-7.826c-1.205-.473-2.559.174-2.949 1.409z" fill="#e0ebfc"/><path d="m175.547 207.605c-2.082 0-3.978-1.05-5.084-2.819l-9.655-15.444c-.311-.497-.388-1.104-.211-1.663l1.388-4.393c.352-1.115 1.159-2.043 2.213-2.547s2.285-.549 3.373-.122l19.963 7.826c.544.214.968.654 1.16 1.207s.132 1.161-.164 1.666l-7.801 13.32c-1.07 1.827-2.973 2.937-5.09 2.968-.032 0-.062.001-.092.001zm-10.859-19.601 9.166 14.661c.54.862 1.398.938 1.725.939.339-.005 1.183-.111 1.697-.989l6.619-11.302-17.785-6.972c-.064-.025-.126-.024-.189.007-.061.029-.103.076-.123.141v.001zm-.797-4.116h.01z" fill="#3762cc"/><path d="m142.255 231.833 2.461-.849-14.825-42.969c-.341-.989-1.419-1.514-2.408-1.173l-30.653 10.575c-.989.341-1.514 1.419-1.173 2.408l11.043 32.008z" fill="#e0ebfc"/><path d="m142.255 233.833h-35.554c-.853 0-1.612-.541-1.891-1.348l-11.043-32.008c-.7-2.031.382-4.252 2.412-4.951l30.653-10.575c2.031-.702 4.251.382 4.951 2.411l14.825 42.97c.173.502.14 1.051-.093 1.528-.232.477-.645.842-1.146 1.015l-2.461.849c-.211.072-.431.109-.653.109zm-34.129-4h33.793l.253-.087-14.138-40.979-30.453 10.506z" fill="#3762cc"/><path d="m186.81 185.715c-20.804 0-38.713-13.647-44.123-33.39-8.415-.055-15.243-6.863-15.243-15.225 0-7.817 5.969-14.277 13.622-15.13v-.596c0-.679.344-1.311.914-1.679.569-.37 1.286-.426 1.906-.146 9.915 4.452 21.798 5.25 35.324 2.366 2.079-.443 4.201-1.014 6.307-1.696.239-.077.487-.104.731-.095 2.688-.807 13.327-4.3 22.916-11.593.828-.629 1.997-.521 2.694.25 5.083 5.616 11.604 10.022 19.38 13.097 8.273.217 14.936 6.961 14.936 15.221 0 8.361-6.828 15.17-15.243 15.225-5.409 19.743-23.317 33.391-44.121 33.391zm-42.587-37.468c.918 0 1.731.631 1.945 1.542 4.425 18.797 21.137 31.926 40.641 31.926s36.216-13.129 40.641-31.926c.231-.979 1.151-1.62 2.157-1.531.426.046.826.067 1.222.067 6.256 0 11.345-5.035 11.345-11.225 0-6.184-5.078-11.215-11.325-11.226-.11.008-.182.012-.255.014-.509.003-.997-.171-1.373-.508-7.501-3.044-13.912-7.273-19.087-12.591-11.258 8.087-22.989 11.252-23.503 11.389-.187.051-.374.078-.567.065-2.012.629-4.033 1.162-6.02 1.585-13.155 2.805-24.921 2.301-35.029-1.49-.085.369-.274.709-.549.979-.385.376-.901.569-1.441.571-.075-.002-.149-.007-.223-.012-.001 0-.003 0-.004 0-6.266 0-11.354 5.035-11.354 11.224s5.09 11.225 11.346 11.225c.396 0 .795-.021 1.221-.067.072-.007.142-.011.212-.011z" fill="#3762cc"/><path d="m186.752 211.305c-3.744 0-6.789-3.046-6.789-6.789v-5.945c0-.355.095-.704.274-1.011l4.837-8.26c.358-.612 1.016-.989 1.726-.989s1.367.377 1.726.989l4.741 8.094c.18.307.274.655.274 1.011v6.111c.001 3.743-3.045 6.789-6.789 6.789zm-2.789-12.192v5.402c0 1.538 1.251 2.789 2.789 2.789s2.789-1.251 2.789-2.789v-5.568l-2.741-4.68z" fill="#3762cc"/><path d="m166.84 182.479 19.961 7.825 19.961-7.825c.113-.044.227-.069.342-.094v-3.621c-6.065 3.157-12.966 4.95-20.294 4.95-7.337 0-14.246-1.798-20.316-4.962v3.631c.115.026.232.051.346.096z" fill="#f9cfcf"/><path d="m186.801 192.305c-.248 0-.496-.046-.73-.138l-19.922-7.812c-.912-.206-1.655-1.037-1.655-1.973v-3.63c0-.699.365-1.348.963-1.71.598-.363 1.342-.387 1.961-.063 5.943 3.098 12.649 4.735 19.392 4.735 6.829 0 13.346-1.59 19.371-4.725.62-.322 1.364-.297 1.961.064.598.363.962 1.011.962 1.71v3.62c0 .938-.652 1.75-1.568 1.953l-.104.023-19.901 7.806c-.235.094-.483.14-.73.14zm-8.04-7.301 8.04 3.152 8.027-3.146c-5.295.935-10.774.933-16.067-.006zm-12.598-.646h.01z" fill="#3762cc"/><path d="m221.911 70.094.018-.014c-2.989-2.957-6.454-5.407-10.103-7.352h.003c-6.338-3.533-16.006-6.241-23.836-5.494l.001.002c-7.252.211-13.268 1.394-16.597 2.547l.008.001c-11.853 3.563-19.243 10.021-19.243 10.021s.006.001.006.001c-14.291 10.803-23.214 26.379-26.127 32.002-.215.334-.97 1.702-1.052 2.124-.187.963.001 2.009.571 2.871 4.229 6.404 19.519 24.435 54.067 17.071 2.204-.47 4.373-1.059 6.507-1.75l-.015.123s26.575-7.021 37.577-27.08c5.252-7.736 4.005-18.335-1.785-25.073z" fill="#a4c9ff"/><path d="m164.175 127.598c-25.027.001-36.876-14.535-40.284-19.693-.84-1.272-1.156-2.859-.865-4.354.161-.828 1.017-2.297 1.266-2.713 3.214-6.194 12.172-21.622 26.557-32.541.355-.31 7.844-6.757 19.877-10.396.005-.002.01-.004.016-.006 4.232-1.467 10.617-2.457 17.096-2.653 8.666-.822 18.779 2.294 24.964 5.741.003.002.005.003.008.005 3.997 2.136 7.538 4.718 10.525 7.672.116.114.215.24.299.376 6.455 7.729 7.206 19.089 1.77 27.175-11.311 20.512-37.657 27.675-38.775 27.97-.187.05-.378.074-.566.065-2.012.629-4.033 1.162-6.02 1.585-5.794 1.233-11.073 1.767-15.868 1.767zm-37.235-23.211c-.069.454.035.928.289 1.313 3.708 5.613 18.415 23.375 51.981 16.218 2.079-.443 4.201-1.014 6.307-1.696.239-.078.485-.109.73-.095 4.049-1.219 26.174-8.563 35.695-25.923.03-.056.063-.109.099-.162 4.556-6.708 3.863-16.231-1.647-22.643-.029-.034-.058-.069-.084-.104-2.678-2.606-5.847-4.894-9.425-6.802-.025-.014-.05-.027-.074-.041-5.455-3.029-14.804-5.947-22.542-5.234-.072.011-.145.017-.218.019-7.135.208-12.867 1.37-15.898 2.402-.056.022-.114.043-.173.061-10.579 3.18-17.554 8.819-18.415 9.538-.06.059-.124.113-.191.165-13.838 10.46-22.483 25.392-25.557 31.326-.029.056-.061.11-.095.164-.173.268-.655 1.17-.782 1.494z" fill="#3762cc"/><path d="m96.869 154.279 8.427-2.907c1.49-.514 3.06-.218 4.241.647l-10.092-6.807c-1.279-.863-3.016-.525-3.879.754-1.825 2.705-1.218 6.323 1.303 8.313z" fill="#f9cfcf"/><path d="m96.869 156.279c-.443 0-.881-.147-1.239-.431-3.345-2.641-4.102-7.474-1.722-11.001 1.48-2.193 4.465-2.77 6.656-1.294l9.76 6.584c.135.084.267.174.396.269.878.645 1.08 1.873.453 2.764s-1.852 1.117-2.754.508l-.266-.18c-.665-.399-1.47-.488-2.205-.236l-8.426 2.908c-.214.073-.434.109-.653.109zm1.014-9.545c-.255 0-.507.123-.66.351-1.021 1.514-.91 3.501.167 4.898l5.634-1.944-4.699-3.169c-.135-.092-.289-.136-.442-.136z" fill="#3762cc"/><path d="m95.988 154.583-6.16-17.856c-.479-1.389-1.995-2.127-3.384-1.648l-3.861 1.332c-1.39.479-2.127 1.994-1.648 3.384l6.16 17.856z" fill="#e0ebfc"/><path d="m87.095 159.651c-.83 0-1.605-.521-1.891-1.349l-6.161-17.855c-.838-2.431.457-5.09 2.887-5.928l3.86-1.332c1.176-.406 2.442-.33 3.562.216 1.12.545 1.959 1.494 2.366 2.671l6.161 17.855c.173.501.14 1.051-.092 1.528s-.645.842-1.146 1.015l-8.893 3.068c-.216.075-.436.111-.653.111zm.216-22.718c-.065 0-.138.01-.215.036l-3.86 1.332c-.345.119-.529.497-.41.842l5.508 15.965 5.112-1.764-5.508-15.965c-.078-.226-.244-.335-.336-.38-.062-.029-.164-.066-.291-.066z" fill="#3762cc"/></svg>