<svg id="Layer_1" enable-background="new 0 0 256 256" height="512" viewBox="0 0 256 256" width="512" xmlns="http://www.w3.org/2000/svg"><path d="m240.763 194.167h-228c-3.314 0-6-2.686-6-6v-158c0-3.314 2.686-6 6-6h228c3.314 0 6 2.686 6 6v158c0 3.313-2.687 6-6 6z" fill="#6bdddd"/><path d="m240.763 196.167h-228c-4.411 0-8-3.589-8-8v-158c0-4.411 3.589-8 8-8h228c4.411 0 8 3.589 8 8v158c0 4.411-3.589 8-8 8zm-228-170c-2.206 0-4 1.794-4 4v158c0 2.206 1.794 4 4 4h228c2.206 0 4-1.794 4-4v-158c0-2.206-1.794-4-4-4z" fill="#3762cc"/><path d="m16.763 181.167v-144c0-1.657 1.343-3 3-3h214c1.657 0 3 1.343 3 3v144c0 1.657-1.343 3-3 3h-214c-1.657 0-3-1.344-3-3z" fill="#e0ebfc"/><path d="m233.763 186.167h-214c-2.757 0-5-2.243-5-5v-144c0-2.757 2.243-5 5-5h214c2.757 0 5 2.243 5 5v144c0 2.757-2.243 5-5 5zm-214-150c-.551 0-1 .448-1 1v144c0 .552.449 1 1 1h214c.552 0 1-.448 1-1v-144c0-.552-.448-1-1-1z" fill="#3762cc"/><path d="m247.737 134.978c-2.475-19.01-6.751-32.292-10.612-41.061-1.636-4.317-3.901-8.443-6.782-12.25-.945-1.302-1.517-1.915-1.517-1.915-.781-.936-1.748-1.683-2.825-2.228.304.968.566 1.954.735 2.966 3.153 18.902-22.174 36.883-40.617 41.755l.015-.123c-18.843 6.111-41.081 5.082-55.604-9.319-6.752 16.131-17.146 49.23 4.41 62.174 4.271 2.565 9.188 3.775 14.138 3.775h36.539.012 36.54c4.95 0 9.867-1.21 14.138-3.775 13.828-8.303 14.504-24.904 11.43-39.999z" fill="#4671c6"/><path d="m222.169 180.753h-73.091c-5.498 0-10.743-1.404-15.168-4.061-22.432-13.47-12.919-46.255-5.251-64.6.257-.616.805-1.063 1.46-1.191.653-.125 1.33.078 1.802.552 14.511 14.574 37.199 14.086 53.596 8.768.25-.081.507-.113.766-.092 18.197-5.074 41.331-22.224 38.481-39.31-.136-.812-.349-1.669-.671-2.697-.241-.768.002-1.604.615-2.125.614-.521 1.48-.62 2.197-.258 1.338.678 2.489 1.584 3.425 2.693.166.183.752.847 1.632 2.059 2.925 3.864 5.293 8.138 7.015 12.668 5.019 11.413 8.631 25.373 10.734 41.489 4.094 20.188-.186 34.725-12.375 42.044-4.425 2.657-9.669 4.061-15.167 4.061zm-90.906-64.446c-6.917 17.492-14.152 45.633 4.706 56.956 3.804 2.283 8.336 3.49 13.109 3.49h73.091c4.772 0 9.305-1.207 13.108-3.49 10.769-6.466 14.302-19.213 10.5-37.886-.01-.047-.018-.094-.023-.142-2.057-15.791-5.575-29.422-10.459-40.513-.015-.032-.027-.064-.04-.097-1.539-4.063-3.643-7.901-6.254-11.418.482 19.082-23.997 36.117-42.371 40.971-.187.049-.378.073-.564.065-20.941 6.586-41.57 3.54-54.803-7.936z" fill="#3762cc"/><path d="m230.829 123.875c-.093 0-.184.012-.276.014v-.129c-9.087-3.584-15.578-8.542-20.21-13.669-7.549 5.756-16.49 10.111-24.224 12.154l.015-.123c-14.324 4.646-30.207 4.902-43.067-.736v2.503c-.093-.002-.183-.014-.276-.014-7.37 0-13.345 5.921-13.345 13.225s5.975 13.225 13.345 13.225c.484 0 .961-.029 1.432-.079 4.514 19.177 21.861 33.468 42.588 33.468s38.074-14.291 42.588-33.468c.471.05.948.079 1.432.079 7.37 0 13.345-5.921 13.345-13.225s-5.977-13.225-13.347-13.225z" fill="#f9cfcf"/><path d="m76.015 143.5c-.841 0-1.663-.424-2.134-1.193l-17.29-28.215c-.32-.523-.596-.688-.667-.705.017.005-.077.049-.212.176l-9.377 8.822c-1.429 1.345-3.246 1.836-4.983 1.35-2.188-.613-3.905-2.639-4.71-5.557l-12.289-44.553c-.367-1.331.415-2.708 1.746-3.075 1.33-.368 2.708.414 3.075 1.745l12.289 44.553c.401 1.454 1.05 2.028 1.241 2.072-.022-.006.071-.05.207-.178l9.378-8.822c1.24-1.166 2.771-1.695 4.305-1.488 1.683.225 3.196 1.308 4.263 3.047l17.29 28.215c.721 1.178.352 2.717-.826 3.438-.409.249-.861.368-1.306.368z" fill="#4671c6"/><path d="m214.317 188.281h-7.255c-.016-.001-.031-.003-.047-.003l-.003.003h-47.722c-12.607 0-22.827 10.22-22.827 22.827v20.725h100.68c0-7.728 0-13.001 0-20.725.001-12.606-10.219-22.827-22.826-22.827z" fill="#e0ebfc"/><path d="m214.317 188.281h-7.255c-.016-.001-.031-.003-.047-.003l-.003.003h-47.722c-12.607 0-22.827 10.22-22.827 22.827v20.725h100.681c0-7.728 0-13.001 0-20.725 0-12.607-10.22-22.827-22.827-22.827z" fill="#e0ebfc"/><path d="m207.015 188.278-.003.003h.049c-.014-.001-.03-.003-.046-.003z" fill="#4671c6"/><path d="m186.809 188.281h-.011v.009z" fill="#4671c6"/><path d="m214.317 188.281h-3.213l-23.7 37.892c-.28.447-.932.447-1.211 0l-23.689-37.892h-3.213c-12.607 0-22.827 10.22-22.827 22.828v20.725h100.681c0-7.728 0-13.001 0-20.725-.001-12.608-10.221-22.828-22.828-22.828z" fill="#4671c6"/><g fill="#3762cc"><path d="m186.799 228.509c-.941 0-1.802-.477-2.301-1.274-.001 0-.001-.001-.002-.001l-23.688-37.892c-.385-.617-.405-1.394-.053-2.03.353-.636 1.021-1.03 1.749-1.03h24.294.012 24.294c.728 0 1.397.395 1.749 1.03.353.637.332 1.414-.054 2.03l-23.699 37.891c-.5.799-1.361 1.276-2.301 1.276zm-20.686-38.228 20.686 33.089 20.694-33.089h-20.588c-.07.004-.141.004-.211 0z"/><path d="m186.823 167.514c-3.133 0-6.053-1.133-8.011-3.106-1.499-1.511-2.325-3.422-2.325-5.38 0-1.104.896-2 2-2s2 .896 2 2c0 .909.402 1.795 1.165 2.563 1.194 1.205 3.127 1.924 5.171 1.924 2.057 0 3.931-.701 5.144-1.923.762-.769 1.165-1.655 1.165-2.563 0-1.104.896-2 2-2s2 .896 2 2c0 1.957-.825 3.867-2.325 5.38-1.959 1.973-4.869 3.105-7.984 3.105z"/><path d="m165.183 131.65c-1.46 0-2.783.597-3.74 1.558h-2.97c-.95 0-1.72.77-1.72 1.72s.77 1.72 1.72 1.72h1.458c-.005.095-.029.186-.029.282v8.801c0 2.912 2.369 5.28 5.281 5.28 2.911 0 5.28-2.369 5.28-5.28v-8.801c0-2.911-2.369-5.28-5.28-5.28z"/><path d="m215.145 133.208h-2.955c-.957-.961-2.28-1.558-3.74-1.558-2.912 0-5.281 2.369-5.281 5.28v8.801c0 2.912 2.369 5.28 5.281 5.28 2.911 0 5.28-2.369 5.28-5.28v-8.801c0-.097-.023-.187-.029-.282h1.443c.95 0 1.72-.771 1.72-1.72s-.769-1.72-1.719-1.72z"/></g><path d="m209.711 183.888 1.387 4.393-9.655 15.444c-1.594 2.549-5.324 2.495-6.843-.099l-7.801-13.321 19.963-7.826c1.205-.473 2.559.174 2.949 1.409z" fill="#e0ebfc"/><path d="m163.891 183.888-1.387 4.393 9.655 15.444c1.594 2.549 5.324 2.495 6.843-.099l7.801-13.321-19.963-7.826c-1.205-.473-2.559.174-2.949 1.409z" fill="#e0ebfc"/><path d="m119.543 179.119c-.489.506-1.087.92-1.798 1.166l-17.238 5.947 3.321 9.626 19.204-6.625z" fill="#f9cfcf"/><path d="m103.828 197.857c-.301 0-.6-.067-.875-.202-.477-.232-.842-.645-1.015-1.146l-3.321-9.626c-.36-1.044.194-2.183 1.238-2.543l17.238-5.947c.368-.127.708-.351 1.012-.665.483-.5 1.189-.715 1.871-.562.679.15 1.23.643 1.458 1.3l3.489 10.112c.173.501.14 1.051-.092 1.528s-.645.842-1.146 1.015l-19.204 6.626c-.213.074-.433.11-.653.11zm-.778-10.387 2.016 5.845 15.423-5.321-2.017-5.845c-.025.009-.05.018-.075.026z" fill="#3762cc"/><path d="m117.745 180.284-19.181 6.617c-2.414.833-5.045-.449-5.878-2.863l-6.959-20.172c-.833-2.414.449-5.045 2.863-5.878l19.181-6.617c2.414-.833 5.045.449 5.878 2.863l6.959 20.172c.832 2.414-.45 5.045-2.863 5.878z" fill="#f9cfcf"/><path d="m97.063 189.154c-2.748 0-5.321-1.724-6.267-4.463l-6.959-20.172c-.577-1.673-.468-3.47.306-5.061.775-1.591 2.123-2.784 3.795-3.36l19.18-6.618c3.452-1.191 7.23.649 8.421 4.102l6.959 20.172c1.191 3.452-.649 7.229-4.101 8.421l-19.18 6.617c-.713.246-1.44.362-2.154.362zm12.212-36.036c-.283 0-.571.047-.853.144l-19.18 6.618c-.663.229-1.196.701-1.503 1.331s-.35 1.342-.121 2.004l6.959 20.172c.472 1.367 1.968 2.096 3.335 1.624l19.18-6.617c1.367-.472 2.096-1.968 1.625-3.335l-6.959-20.172c-.375-1.085-1.395-1.769-2.483-1.769zm8.47 27.166h.01z" fill="#3762cc"/><path d="m82.662 137.614-4.227 8.658 49.638 24.237c1.275.623 2.813.094 3.436-1.181l1.973-4.04c.623-1.275.094-2.813-1.181-3.436z" fill="#4671c6"/><path d="m82.662 137.614-4.227 8.658-5.183-7.263c-.296-.415-.014-.993.496-1.015z" fill="#a4c9ff"/><path d="m129.192 172.77c-.672 0-1.354-.149-1.998-.464l-49.637-24.237c-.993-.484-1.404-1.682-.92-2.675l4.227-8.657c.233-.477.646-.841 1.147-1.014.502-.172 1.051-.139 1.528.095l49.638 24.237c1.096.534 1.919 1.465 2.316 2.619.396 1.155.32 2.395-.216 3.492l-1.973 4.039c-.79 1.621-2.419 2.565-4.112 2.565zm-48.082-27.418 47.84 23.36c.282.139.625.021.762-.263l1.973-4.039c.085-.176.062-.333.026-.435-.034-.103-.113-.241-.288-.326l-47.841-23.36z" fill="#3762cc"/><path d="m78.435 148.271c-.643 0-1.25-.31-1.627-.838l-5.183-7.263c-.564-.79-.65-1.822-.224-2.694s1.292-1.439 2.262-1.48l8.914-.38c.698-.027 1.372.313 1.758.902.386.59.433 1.34.124 1.974l-4.227 8.657c-.31.633-.929 1.057-1.632 1.115-.055.006-.11.007-.165.007zm-2.1-8.385 1.777 2.489 1.279-2.619z" fill="#3762cc"/><path d="m106.756 170.727-10.751-9.845c-2.886-2.643-3.083-7.126-.44-10.012 1.057-1.155 2.85-1.233 4.005-.176l13.887 12.717z" fill="#f9cfcf"/><path d="m106.755 172.727c-.482 0-.966-.174-1.35-.525l-10.751-9.845c-3.695-3.384-3.948-9.143-.565-12.838 1.802-1.967 4.866-2.1 6.831-.3l13.887 12.717c.815.745.871 2.011.125 2.825-.746.813-2.011.87-2.826.124l-13.887-12.717c-.34-.311-.868-.287-1.18.053-1.894 2.067-1.751 5.292.317 7.187l10.75 9.845c.815.745.871 2.011.125 2.825-.395.43-.934.649-1.476.649z" fill="#3762cc"/><path d="m186.81 185.715c-20.805 0-38.713-13.647-44.122-33.39-8.415-.055-15.243-6.863-15.243-15.225 0-7.817 5.969-14.277 13.622-15.13v-.584c0-.675.341-1.305.906-1.674.564-.37 1.278-.429 1.896-.158 11.808 5.178 26.986 5.42 41.647.666.25-.081.505-.112.766-.092 7.628-2.129 15.916-6.342 22.848-11.628.828-.631 2-.521 2.697.249 5.087 5.632 11.617 10.049 19.411 13.13 8.273.217 14.936 6.961 14.936 15.221 0 8.361-6.827 15.17-15.242 15.225-5.411 19.742-23.319 33.39-44.122 33.39zm-42.586-37.468c.917 0 1.73.631 1.945 1.542 4.424 18.797 21.136 31.926 40.641 31.926 19.504 0 36.216-13.129 40.641-31.926.23-.981 1.155-1.631 2.158-1.531.426.046.825.067 1.221.067 6.256 0 11.345-5.035 11.345-11.225 0-6.184-5.078-11.215-11.325-11.226-.108.008-.181.012-.254.014-.517.003-.996-.172-1.373-.508-7.518-3.05-13.938-7.289-19.118-12.621-7.236 5.239-15.698 9.365-23.474 11.419-.187.049-.367.073-.565.065-14.262 4.476-29.002 4.483-41.046.08-.084.374-.274.721-.553.993-.384.375-.915.585-1.441.571-.075-.002-.148-.007-.223-.012-.001 0-.003 0-.004 0-6.267 0-11.354 5.035-11.354 11.224s5.09 11.225 11.346 11.225c.396 0 .795-.021 1.222-.067.069-.006.14-.01.211-.01z" fill="#3762cc"/><path d="m166.84 182.479 19.961 7.825 19.961-7.825c.113-.044.227-.069.342-.094v-3.621c-6.065 3.157-12.966 4.95-20.294 4.95-7.337 0-14.246-1.798-20.316-4.962v3.631c.115.026.232.051.346.096z" fill="#f9cfcf"/><path d="m237.145 233.833h-100.681c-1.104 0-2-.896-2-2v-20.725c0-13.689 11.138-24.827 24.827-24.827h3.213c.689 0 1.33.355 1.696.939l22.599 36.149 22.609-36.149c.365-.584 1.006-.939 1.695-.939h3.213c13.69 0 24.828 11.138 24.828 24.827v20.725c.001 1.105-.895 2-1.999 2zm-98.681-4h96.681v-18.725c0-11.484-9.344-20.827-20.828-20.827h-2.104l-23.113 36.952c-.5.799-1.36 1.274-2.301 1.274s-1.802-.476-2.301-1.273l-23.103-36.953h-2.104c-11.484 0-20.827 9.343-20.827 20.827z" fill="#3762cc"/><path d="m144.729 231.833 2.461-.849-14.825-42.969c-.341-.989-1.419-1.514-2.408-1.173l-30.653 10.575c-.989.341-1.514 1.419-1.173 2.408l11.043 32.008z" fill="#e0ebfc"/><path d="m144.729 233.833h-35.554c-.853 0-1.612-.541-1.891-1.348l-11.043-32.008c-.7-2.031.382-4.252 2.412-4.951l30.652-10.575c2.025-.702 4.25.381 4.951 2.411l14.824 42.97c.173.502.14 1.051-.093 1.528-.232.477-.645.842-1.146 1.015l-2.461.849c-.208.072-.429.109-.651.109zm-34.128-4h33.793l.253-.087-14.138-40.979-30.452 10.507z" fill="#3762cc"/><path d="m198.055 207.605c-.03 0-.06-.001-.09-.001-2.118-.031-4.021-1.141-5.091-2.968l-7.802-13.32c-.296-.505-.355-1.113-.164-1.666s.615-.993 1.16-1.207l19.964-7.826c1.087-.427 2.318-.382 3.372.122 1.056.504 1.862 1.432 2.214 2.547l1.388 4.393c.177.559.099 1.166-.211 1.663l-9.655 15.444c-1.108 1.77-3.003 2.819-5.085 2.819zm-8.349-16.292 6.619 11.302c.515.878 1.358.984 1.697.989.342.004 1.185-.075 1.726-.939l9.165-14.661-1.109-3.514s0 0 0-.001c-.021-.064-.062-.111-.123-.141-.063-.031-.128-.032-.188-.007z" fill="#3762cc"/><path d="m175.548 207.605c-2.082 0-3.978-1.05-5.084-2.819l-9.656-15.444c-.31-.497-.387-1.104-.211-1.662l1.387-4.394c0-.001 0-.001 0-.002.354-1.114 1.16-2.042 2.216-2.546 1.055-.505 2.284-.547 3.371-.121l19.963 7.826c.545.214.969.654 1.16 1.207s.132 1.161-.164 1.666l-7.802 13.32c-1.069 1.827-2.972 2.937-5.089 2.968-.031 0-.061.001-.091.001zm-10.86-19.602 9.167 14.662c.54.864 1.407.942 1.725.939.339-.005 1.182-.111 1.695-.988l6.62-11.303-17.785-6.972c-.063-.025-.127-.024-.188.007-.062.029-.104.077-.124.143z" fill="#3762cc"/><path d="m186.801 192.305c-.248 0-.495-.046-.73-.138l-19.923-7.812c-.912-.207-1.654-1.038-1.654-1.973v-3.63c0-.699.365-1.348.963-1.71.598-.363 1.339-.388 1.962-.063 5.943 3.098 12.648 4.735 19.392 4.735 6.733 0 13.432-1.634 19.371-4.725.618-.322 1.362-.297 1.961.064.597.363.962 1.011.962 1.71v3.62c0 .938-.651 1.749-1.566 1.952l-.105.024-19.9 7.806c-.238.094-.485.14-.733.14zm-8.04-7.301 8.04 3.152 8.027-3.146c-5.296.935-10.774.933-16.067-.006z" fill="#3762cc"/><path d="m226.736 80.49c-.941-5.639-4.046-10.721-8.574-13.777-6.301-4.252-12.451-6.891-18.401-8.285l.003-.02c-10.356-2.284-20.794-1.041-30.56 2.417-5.51 1.722-11.052 4.632-15.159 7.595l.007.001c-15.393 10.813-24.97 27.518-28.009 33.385-.215.334-.97 1.702-1.052 2.124-.187.963.001 2.009.571 2.871 12.701 19.23 38.493 22.483 60.573 15.321l-.015.123c18.438-4.871 43.77-22.851 40.616-41.755z" fill="#4671c6"/><path d="m164.679 127.551c-15.812 0-31.507-5.595-40.787-19.646-.841-1.273-1.156-2.86-.865-4.355.161-.828 1.017-2.297 1.266-2.713 3.439-6.628 13.036-23.062 28.49-33.966.029-.024.06-.048.091-.07 4.608-3.325 10.343-6.199 15.732-7.883 10.86-3.846 21.512-4.684 31.587-2.462.104.022.203.054.299.091 6.37 1.531 12.69 4.394 18.789 8.509 4.946 3.338 8.383 8.844 9.428 15.106 3.385 20.291-22.732 38.907-42.079 44.018-.188.051-.383.078-.565.065-6.738 2.109-14.076 3.306-21.386 3.306zm-37.739-23.163c-.069.453.035.927.289 1.312 12.559 19.018 38.325 20.998 58.288 14.521.25-.081.507-.113.766-.092 18.197-5.074 41.331-22.224 38.481-39.31-.865-5.185-3.68-9.722-7.721-12.448-5.782-3.902-11.75-6.593-17.738-7.996-.082-.02-.161-.043-.238-.071-9.258-1.987-19.078-1.176-29.195 2.407-4.948 1.548-10.348 4.245-14.543 7.251-.041.034-.084.066-.128.098-14.84 10.424-24.093 26.318-27.382 32.668-.029.056-.061.11-.095.164-.175.269-.657 1.171-.784 1.496z" fill="#3762cc"/></svg>