<svg id="Layer_1" enable-background="new 0 0 256 256" height="512" viewBox="0 0 256 256" width="512" xmlns="http://www.w3.org/2000/svg"><path d="m89.695 95.701 12.916 18.396c1.498 2.133 3.941 3.403 6.547 3.403h118.175.167c1.832 0 3.359 1.239 3.833 2.919v-22.419c0-2.209-1.791-4-4-4h-140.912c1.303 0 2.525.635 3.274 1.701z" fill="#a4c9ff"/><path d="m231.331 122.418c-.883 0-1.678-.586-1.923-1.457-.243-.86-1.027-1.461-1.908-1.461h-118.342c-3.255 0-6.314-1.59-8.184-4.254l-12.916-18.395c-.374-.533-.986-.851-1.637-.851-1.104 0-2-.896-2-2s.896-2 2-2h140.912c3.309 0 6 2.691 6 6v22.418c0 .999-.736 1.844-1.726 1.981-.092.014-.184.019-.276.019zm-138.983-26.418 11.899 16.948c1.122 1.598 2.958 2.552 4.911 2.552h118.342c.634 0 1.251.102 1.833.292v-17.792c0-1.103-.897-2-2-2z" fill="#3762cc"/><path d="m201.5 218h-147c-2.209 0-4-1.791-4-4v-202c0-2.209 1.791-4 4-4h147c2.209 0 4 1.791 4 4v202c0 2.209-1.791 4-4 4z" fill="#e0ebfc"/><g fill="#b9befc"><path d="m185.5 38h-115c-2.761 0-5-2.239-5-5 0-2.761 2.239-5 5-5h115c2.761 0 5 2.239 5 5 0 2.761-2.239 5-5 5z"/><path d="m185.5 64h-115c-2.761 0-5-2.239-5-5 0-2.761 2.239-5 5-5h115c2.761 0 5 2.239 5 5 0 2.761-2.239 5-5 5z"/><path d="m185.5 88h-115c-2.761 0-5-2.239-5-5 0-2.761 2.239-5 5-5h115c2.761 0 5 2.239 5 5 0 2.761-2.239 5-5 5z"/><path d="m185.5 110h-115c-2.761 0-5-2.239-5-5 0-2.761 2.239-5 5-5h115c2.761 0 5 2.239 5 5 0 2.761-2.239 5-5 5z"/></g><path d="m201.5 220h-147c-3.309 0-6-2.691-6-6v-202c0-3.309 2.691-6 6-6h147c3.309 0 6 2.691 6 6v202c0 3.309-2.691 6-6 6zm-147-210c-1.103 0-2 .897-2 2v202c0 1.103.897 2 2 2h147c1.103 0 2-.897 2-2v-202c0-1.103-.897-2-2-2z" fill="#3762cc"/><path d="m102.611 114.097-12.916-18.396c-.749-1.066-1.971-1.701-3.274-1.701h-57.921c-2.209 0-4 1.791-4 4v142c0 4.418 3.582 8 8 8h191c4.418 0 8-3.582 8-8v-118.5c0-2.209-1.791-4-4-4h-118.342c-2.606 0-5.05-1.27-6.547-3.403z" fill="#4671c6"/><path d="m209.958 232h-75.75c-3.314 0-6-2.686-6-6v-16c0-3.314 2.686-6 6-6h75.75c3.314 0 6 2.686 6 6v16c0 3.314-2.686 6-6 6z" fill="#f9cfcf"/><path d="m209.958 234h-75.75c-4.411 0-8-3.589-8-8v-16c0-4.411 3.588-8 8-8h75.75c4.411 0 8 3.589 8 8v16c0 4.411-3.589 8-8 8zm-75.75-28c-2.205 0-4 1.794-4 4v16c0 2.206 1.795 4 4 4h75.75c2.206 0 4-1.794 4-4v-16c0-2.206-1.794-4-4-4z" fill="#3762cc"/><path d="m223.5 250h-191c-5.514 0-10-4.486-10-10v-142c0-3.309 2.691-6 6-6h57.921c1.953 0 3.789.954 4.911 2.552l12.916 18.396c1.122 1.598 2.958 2.552 4.911 2.552h118.341c3.309 0 6 2.691 6 6v118.5c0 5.514-4.486 10-10 10zm-195-154c-1.103 0-2 .897-2 2v142c0 3.309 2.691 6 6 6h191c3.309 0 6-2.691 6-6v-118.5c0-1.103-.897-2-2-2h-118.342c-3.254 0-6.314-1.59-8.184-4.253l-12.916-18.396c-.374-.533-.986-.851-1.637-.851z" fill="#3762cc"/></svg>