<svg id="Layer_1" enable-background="new 0 0 256 256" height="512" viewBox="0 0 256 256" width="512" xmlns="http://www.w3.org/2000/svg"><path d="m116.263 238.925h-97.171v-78.767c0-4.42 3.583-8.002 8.002-8.002h81.166c4.42 0 8.002 3.583 8.002 8.002v78.767z" fill="#4671c6"/><path d="m116.263 240.925h-97.171c-1.104 0-2-.896-2-2v-78.767c0-5.516 4.487-10.003 10.002-10.003h81.166c5.515 0 10.002 4.487 10.002 10.003v78.767c.001 1.104-.894 2-1.999 2zm-95.171-4h93.171v-76.767c0-3.31-2.693-6.003-6.002-6.003h-81.166c-3.31 0-6.002 2.693-6.002 6.003v76.767z" fill="#3762cc"/><path d="m96.555 162.155h-7.613c-.016-.001-.033-.003-.049-.003l-.003.003h-50.077c-13.23 0-23.954 10.724-23.954 23.953v52.817h105.651c0-76.509 0-20.078 0-52.817-.001-13.229-10.726-23.953-23.955-23.953z" fill="#f9a7a7"/><path d="m67.697 157.362c-7.691 0-14.934-1.882-21.299-5.196-.009-.004-.019-.007-.028-.011v10c.002 10.952 8.88 19.83 19.833 19.83h2.949c10.952 0 19.831-8.878 19.833-19.83v-9.983c-6.362 3.311-13.602 5.19-21.288 5.19z" fill="#f9cfcf"/><path d="m96.097 162.155v30.376 6.603l84.181-6.603v-30.376z" fill="#f9a7a7"/><path d="m120.509 240.925h-105.651c-1.104 0-2-.896-2-2v-52.816c0-14.311 11.643-25.953 25.954-25.953h5.558v-8c0-.67.335-1.296.894-1.666.559-.371 1.266-.438 1.882-.177.05.021.127.056.175.08 6.245 3.251 13.291 4.97 20.376 4.97 7.081 0 14.123-1.717 20.365-4.965.621-.321 1.364-.297 1.961.064.598.363.962 1.011.962 1.71v7.983h89.292c1.104 0 2 .896 2 2v30.376c0 1.044-.803 1.912-1.844 1.994l-57.925 4.544v39.855c.001 1.105-.894 2.001-1.999 2.001zm-103.651-4h101.651v-39.705c0-1.044.803-1.912 1.844-1.994l57.925-4.544v-26.526h-89.293c-1.104 0-2-.896-2-2v-6.813c-6.048 2.638-12.654 4.021-19.288 4.021-6.649 0-13.268-1.389-19.327-4.037v6.83c0 1.104-.896 2-2 2h-7.558c-12.105 0-21.954 9.848-21.954 21.953z" fill="#3762cc"/><path d="m236.587 238.925h-97.171v-78.767c0-4.42 3.583-8.002 8.002-8.002h81.166c4.42 0 8.002 3.583 8.002 8.002v78.767z" fill="#4671c6"/><path d="m236.587 240.925h-97.17c-1.104 0-2-.896-2-2v-78.767c0-5.516 4.487-10.003 10.002-10.003h81.167c5.515 0 10.002 4.487 10.002 10.003v78.767c-.001 1.104-.897 2-2.001 2zm-95.17-4h93.17v-76.767c0-3.31-2.692-6.003-6.002-6.003h-81.167c-3.31 0-6.002 2.693-6.002 6.003v76.767z" fill="#3762cc"/><path d="m217.233 164.125h-7.595c-.016-.001-.033-.003-.049-.003l-.003.003h-49.963c-13.199 0-23.899 10.701-23.899 23.9v50.9h105.408c0-39.8 0-28.892 0-50.9 0-13.199-10.7-23.9-23.899-23.9z" fill="#a4c9ff"/><path d="m183.192 188.168-15.031-24.043h3.327 16.935v.007l.009-.007h16.935 3.327l-15.038 24.044c-2.417 3.866-8.047 3.865-10.464-.001z" fill="#e0ebfc"/><path d="m188.425 193.068c-.001 0-.001 0 0 0-2.836-.001-5.426-1.436-6.929-3.84l-15.031-24.042c-.385-.617-.406-1.394-.054-2.03.353-.636 1.022-1.03 1.75-1.03h20.263c.003-.001.006-.001.009 0h20.262c.727 0 1.397.395 1.75 1.03.353.637.332 1.414-.054 2.03l-15.038 24.043c-1.504 2.404-4.094 3.839-6.928 3.839zm-16.655-26.942 13.118 20.981c.779 1.246 2.068 1.961 3.537 1.961 1.468 0 2.757-.715 3.536-1.96l13.124-20.982h-16.568c-.062.002-.123.002-.184 0z" fill="#3762cc"/><path d="m120.509 200.125c-1.104 0-2-.896-2-2v-7.057c0-1.104.896-2 2-2s2 .896 2 2v7.057c0 1.104-.895 2-2 2z" fill="#3762cc"/><path d="m135.724 188.025c0-4.68 1.365-9.032 3.69-12.717l.003-.04-18.907 28.932v34.724l15.215-11.724c-.001-15.795-.001-23.171-.001-39.175z" fill="#a4c9ff"/><path d="m135.724 229.2c-1.104 0-2-.896-2-2v-17.478c0-1.104.896-2 2-2s2 .896 2 2v17.478c0 1.105-.895 2-2 2z" fill="#3762cc"/><path d="m164.439 159.526-1.453 4.599 11.46 18.331c1.054 1.685 3.52 1.65 4.525-.065l9.456-16.146-20.901-8.194c-1.261-.495-2.679.183-3.087 1.475z" fill="#e0ebfc"/><path d="m212.411 159.526 1.453 4.599-11.46 18.331c-1.054 1.685-3.52 1.65-4.525-.065l-9.456-16.146 20.901-8.194c1.261-.495 2.679.183 3.087 1.475z" fill="#e0ebfc"/><path d="m176.687 185.7c-1.612 0-3.08-.813-3.936-2.183l-11.46-18.331c-.311-.497-.388-1.104-.211-1.663l1.452-4.6c.361-1.143 1.188-2.094 2.27-2.61s2.341-.562 3.456-.124l20.9 8.193c.544.214.968.654 1.16 1.207s.132 1.161-.164 1.666l-9.456 16.146c-.828 1.415-2.302 2.273-3.941 2.297-.024.001-.047.002-.07.002zm-11.515-21.851 10.971 17.548c.164.262.408.304.546.304.003 0 .006 0 .01-.001.136-.002.387-.046.547-.318l8.273-14.128-18.723-7.339c-.116-.045-.211-.021-.272.009s-.142.089-.179.206z" fill="#3762cc"/><path d="m200.163 185.7c-.023 0-.046-.001-.069-.001-1.639-.023-3.113-.882-3.941-2.297l-9.456-16.146c-.296-.505-.355-1.113-.164-1.666s.615-.993 1.16-1.207l20.901-8.193c1.115-.438 2.374-.392 3.456.124 1.081.517 1.908 1.468 2.269 2.61l1.453 4.6c.176.559.099 1.166-.211 1.663l-11.46 18.331c-.858 1.37-2.326 2.181-3.938 2.182zm-8.832-18.447 8.273 14.128c.16.272.412.316.547.318.003.001.007.001.01.001.138 0 .383-.042.546-.304l10.971-17.548-1.175-3.72c-.037-.117-.117-.177-.178-.206-.062-.029-.158-.054-.271-.009z" fill="#3762cc"/><path d="m39.297 238.925h-15.718v-76.151c0-1.894 1.535-3.43 3.43-3.43h8.86c1.894 0 3.43 1.535 3.43 3.43v76.151z" fill="#4671c6"/><path d="m111.815 238.924h-15.718v-76.151c0-1.894 1.535-3.43 3.43-3.43h8.86c1.894 0 3.43 1.535 3.43 3.43v76.151z" fill="#4671c6"/><path d="m39.297 240.925h-15.718c-1.104 0-2-.896-2-2v-76.15c0-2.994 2.436-5.43 5.43-5.43h8.859c2.994 0 5.43 2.436 5.43 5.43v76.15c-.001 1.104-.896 2-2.001 2zm-13.718-4h11.719v-74.15c0-.788-.642-1.43-1.43-1.43h-8.859c-.788 0-1.43.642-1.43 1.43z" fill="#3762cc"/><path d="m111.815 240.925h-15.718c-1.104 0-2-.896-2-2v-76.151c0-2.994 2.436-5.43 5.429-5.43h8.86c2.994 0 5.43 2.436 5.43 5.43v76.151c-.001 1.104-.896 2-2.001 2zm-13.718-4h11.719v-74.151c0-.788-.642-1.43-1.43-1.43h-8.86c-.788 0-1.429.642-1.429 1.43z" fill="#3762cc"/><path d="m12.143 78.574c-.358 3.48-.34 7.016.14 10.541l1.096 8.043c2.293-1.623 5.092-2.589 8.125-2.589.098 0 .193.013.29.015 0-5.059-.194-9.402 1.477-15.772-10.459-.001-10.128.096-11.128-.238z" fill="#4671c6"/><path d="m13.379 99.157c-.27 0-.541-.055-.796-.165-.642-.279-1.091-.872-1.185-1.564l-1.096-8.043c-.485-3.556-.535-7.263-.148-11.017.062-.604.396-1.147.906-1.476.511-.329 1.144-.408 1.719-.216l.011.004c.434.146.45.152 4.9.139 1.402-.004 3.216-.009 5.582-.009.62 0 1.205.287 1.583.778s.508 1.13.351 1.729c-1.445 5.511-1.431 9.366-1.415 13.83l.003 1.435c0 .537-.216 1.052-.6 1.429-.384.375-.885.575-1.44.571-.079-.002-.158-.007-.236-.013-.003 0-.008 0-.011 0-2.517 0-4.923.769-6.972 2.219-.343.244-.748.369-1.156.369zm.59-18.344c-.157 2.738-.059 5.432.296 8.03l.698 5.117c1.529-.686 3.153-1.124 4.827-1.302-.012-3.708.016-7.296.958-11.847-1.188.002-2.193.005-3.046.007-1.773.005-2.931.009-3.733-.005z" fill="#3762cc"/><path d="m97.438 78.811c1.881 4.005 4.751 7.558 8.486 10.246l7.676 5.526c.097-.002.192-.015.29-.015 2.426 0 4.707.612 6.696 1.688l.974-7.142c.47-3.445.503-6.898.174-10.304h-24.296z" fill="#4671c6"/><path d="m120.586 98.256c-.327 0-.654-.08-.951-.24-1.751-.947-3.738-1.447-5.745-1.447-.092.008-.171.013-.25.015-.433-.01-.858-.124-1.208-.377l-7.676-5.526c-3.907-2.813-7.063-6.622-9.127-11.02-.291-.619-.245-1.345.123-1.922.367-.578 1.003-.928 1.688-.928h24.296c1.03 0 1.892.782 1.991 1.808.353 3.66.292 7.283-.184 10.767l-.974 7.142c-.088.65-.491 1.216-1.076 1.513-.286.143-.597.215-.907.215zm-6.357-5.684c1.611.034 3.208.311 4.729.813l.619-4.541c.355-2.604.456-5.299.303-8.033h-19.058c1.659 2.582 3.788 4.838 6.268 6.623z" fill="#3762cc"/><path d="m23.27 78.811c-1.672 6.376-1.475 10.754-1.475 15.772-.097-.002-.192-.015-.29-.015-7.734 0-14.004 6.213-14.004 13.878s6.27 13.878 14.004 13.878c.508 0 1.008-.03 1.503-.083 4.737 20.125 22.94 35.12 44.69 35.12s39.953-14.996 44.69-35.12c.494.052.995.083 1.503.083 7.734 0 14.004-6.213 14.004-13.878 0-5.261-2.954-9.837-7.308-12.191-2.004-1.089-4.394-1.725-6.986-1.673l-7.676-5.526c-3.735-2.688-6.605-6.241-8.486-10.246h-74.169z" fill="#f9cfcf"/><path d="m67.712 137.615c-3.072 0-5.935-1.108-7.853-3.042-1.438-1.451-2.23-3.278-2.23-5.144 0-.828.671-1.5 1.5-1.5s1.5.672 1.5 1.5c0 1.085.471 2.133 1.361 3.031 1.358 1.369 3.444 2.154 5.723 2.154 2.251 0 4.322-.786 5.681-2.155.89-.897 1.36-1.945 1.36-3.03 0-.828.671-1.5 1.5-1.5s1.5.672 1.5 1.5c0 1.865-.792 3.692-2.23 5.143-1.919 1.934-4.766 3.043-7.812 3.043z" fill="#3762cc"/><path d="m44.99 117.525c-2.445 0-4.433-1.988-4.433-4.433v-7.388c0-2.444 1.989-4.433 4.433-4.433s4.433 1.989 4.433 4.433v7.388c-.001 2.445-1.989 4.433-4.433 4.433z" fill="#3762cc"/><path d="m90.393 117.525c-2.445 0-4.433-1.988-4.433-4.433v-7.388c0-2.444 1.989-4.433 4.433-4.433s4.433 1.989 4.433 4.433v7.388c0 2.445-1.989 4.433-4.433 4.433z" fill="#3762cc"/><path d="m67.697 159.362c-21.813 0-40.585-14.322-46.225-35.037-8.81-.018-15.972-7.134-15.972-15.878 0-8.181 6.268-14.937 14.289-15.788-.015-4.363.026-8.56 1.546-14.356.28-1.067 1.375-1.709 2.442-1.427 1.068.28 1.708 1.373 1.427 2.442-1.445 5.512-1.431 9.365-1.414 13.827l.003 1.438c0 .537-.216 1.052-.6 1.429-.384.375-.885.575-1.44.571-.079-.002-.158-.007-.236-.013-.001 0-.003 0-.004 0-6.632 0-12.014 5.328-12.014 11.877 0 6.55 5.385 11.878 12.004 11.878.416 0 .838-.023 1.29-.071 1.012-.11 1.929.549 2.159 1.53 4.653 19.771 22.23 33.578 42.744 33.578 20.513 0 38.09-13.808 42.743-33.578.231-.981 1.158-1.63 2.159-1.53.452.048.874.071 1.29.071 6.619 0 12.004-5.328 12.004-11.878 0-4.348-2.398-8.345-6.259-10.432-1.804-.98-3.899-1.486-5.995-1.433-.433-.01-.857-.124-1.208-.377l-7.676-5.526c-3.907-2.813-7.063-6.622-9.127-11.02-.469-.999-.04-2.19.96-2.66s2.191-.039 2.661.961c1.775 3.781 4.488 7.057 7.843 9.473l7.154 5.15c2.573.056 5.082.712 7.295 1.915 5.151 2.784 8.353 8.13 8.353 13.948 0 8.744-7.162 15.86-15.972 15.878-5.639 20.716-24.411 35.038-46.224 35.038z" fill="#3762cc"/><path d="m143.386 84.293c-4.038-2.209-7.286-4.791-9.827-7.338-.063.169-.172.917-.214 1.117l.006.008c-1.296 7.925-.239 12.859.898 21.197 2.287-1.619 5.081-2.583 8.106-2.583.098 0 .192.012.289.015v-4.289c0-2.738.262-5.415.732-8.02-.001-.001-.003-.002-.004-.002l.014-.105c.001.001 0 0 0 0z" fill="#4671c6"/><path d="m234.238 96.71c-8.406-6.052-15.624-10.054-18.068-21.479h-.006l-.641-2.77c-.223.247-.446.49-.667.718l.006.004c-5.237 5.132-13.55 9.76-18.812 11.858l.001-.002c-16.283 6.731-37.145 7.739-52.657-.742-.001 0-.002-.001-.003-.001l-.019.103.006.003c-.002-.001-.004-.002-.006-.003-.469 2.605-.728 5.283-.728 8.021v4.289c-.097-.002-.192-.015-.289-.015-7.716 0-13.972 6.199-13.972 13.846s6.256 13.846 13.972 13.846c.507 0 1.006-.03 1.499-.082 4.726 20.078 22.888 35.039 44.588 35.039s39.862-14.961 44.588-35.039c.493.052.992.082 1.499.082 7.716 0 13.972-6.199 13.972-13.846-.001-7.662-6.321-13.99-14.263-13.83z" fill="#f9cfcf"/><path d="m233.378 58.092c-3.388-4.418-8.084-2.588-10.403-1.885-.012.302-.044.601-.07.901l.012.005c-.25 7.917-7.394 15.349-7.394 15.349l.641 2.77h.006c2.465 11.519 10.018 15.683 18.068 21.479 2.509-.063 4.879.539 6.97 1.669l.971-7.125c1.608-11.787-1.561-23.726-8.801-33.163z" fill="#4671c6"/><g fill="#3762cc"><path d="m241.209 100.379c-.328 0-.655-.08-.951-.241-1.853-1.001-3.869-1.478-5.969-1.429-.452.013-.866-.121-1.219-.376-.839-.604-1.673-1.19-2.497-1.77-7.161-5.036-13.927-9.795-16.326-20.763-.012-.038-.022-.078-.031-.118l-.642-2.77c-.153-.658.038-1.35.506-1.837.064-.067 6.495-6.864 6.83-13.833-.007-.102-.006-.204.002-.308l.02-.217c.018-.197.037-.395.044-.593.035-.851.604-1.586 1.418-1.833l.436-.135c2.424-.761 8.104-2.541 12.135 2.717 7.511 9.792 10.863 22.421 9.196 34.649l-.971 7.125c-.088.65-.491 1.216-1.076 1.513-.284.147-.595.219-.905.219zm-6.331-5.671c1.602.029 3.189.301 4.704.8l.617-4.524c1.523-11.178-1.541-22.723-8.407-31.675-1.945-2.534-4.281-2.339-6.902-1.594-.452 6.868-5.292 13.113-7.184 15.31l.373 1.61c.019.058.034.117.047.178 2.042 9.543 7.931 13.684 14.749 18.479.662.465 1.331.936 2.003 1.416z"/><path d="m134.249 101.277c-.27 0-.541-.055-.796-.165-.642-.279-1.091-.872-1.185-1.564-.145-1.058-.287-2.061-.424-3.021-.948-6.655-1.636-11.479-.492-18.606.006-.089.019-.178.038-.266l.045-.261c.1-.59.153-.875.251-1.138.238-.639.784-1.112 1.45-1.256.664-.15 1.359.059 1.84.542 2.722 2.729 5.875 5.083 9.371 6.995.716.392 1.121 1.179 1.026 1.987-.005.077-.014.154-.028.23-.465 2.577-.7 5.156-.7 7.665v4.289c0 .541-.219 1.059-.607 1.436-.388.376-.918.578-1.453.563l-.203-.011c-2.509-.047-4.93.764-6.977 2.212-.344.244-.749.369-1.156.369zm.728-20.309c-.561 5.265.014 9.293.826 14.995.006.041.012.082.018.123 1.528-.684 3.151-1.122 4.824-1.3v-2.365c0-2.322.184-4.696.547-7.073-2.212-1.298-4.29-2.763-6.215-4.38z"/><path d="m188.441 161.345c-21.763 0-40.493-14.29-46.123-34.957-8.791-.02-15.937-7.12-15.937-15.847 0-8.164 6.256-14.906 14.262-15.756v-2.364c0-2.759.255-5.577.76-8.376 0-.001 0-.001 0-.002v-.001c0-.001 0-.003.001-.004 0 0 0 0 0-.001l.019-.104c.116-.631.529-1.167 1.108-1.442.58-.276 1.258-.255 1.82.052 13.731 7.508 33.725 7.762 50.934.648.031-.013.062-.024.093-.035 5.391-2.162 13.237-6.705 17.964-11.285.023-.027.047-.054.072-.079.207-.215.416-.442.625-.674.5-.551 1.267-.776 1.985-.592.72.188 1.277.759 1.445 1.484l.608 2.623c.019.059.034.118.047.179 2.035 9.507 7.651 13.468 14.761 18.484.656.462 1.322.932 1.996 1.414 4.105.085 7.942 1.688 10.868 4.556 3.063 3.001 4.75 7.006 4.75 11.274 0 8.727-7.146 15.827-15.937 15.847-5.628 20.668-24.357 34.958-46.121 34.958zm-44.586-39.039c.918 0 1.731.631 1.945 1.542 4.643 19.723 22.177 33.497 42.641 33.497 20.463 0 37.998-13.774 42.641-33.497.23-.98 1.149-1.623 2.156-1.531.455.048.877.071 1.29.071 6.602 0 11.972-5.314 11.972-11.847 0-3.186-1.261-6.175-3.55-8.418-2.313-2.268-5.401-3.458-8.671-3.413-.432-.001-.858-.124-1.209-.377-.843-.606-1.674-1.193-2.489-1.768-7.356-5.189-13.73-9.686-16.211-20.225-5.31 4.549-12.576 8.564-17.579 10.559-.016.007-.032.013-.048.019-17.25 7.109-37.213 7.202-51.788.408-.206 1.71-.31 3.415-.31 5.095v4.289c0 .537-.216 1.052-.6 1.429-.384.375-.906.553-1.44.571-.079-.002-.157-.007-.235-.013-.001 0-.003 0-.004 0-6.614 0-11.982 5.313-11.982 11.844 0 6.532 5.371 11.847 11.972 11.847.413 0 .835-.023 1.29-.071.069-.007.14-.011.209-.011z"/><path d="m188.436 141.632c-2.724 0-5.448-.858-7.333-2.574-1.397-1.273-2.167-2.893-2.167-4.56 0-.828.671-1.5 1.5-1.5s1.5.672 1.5 1.5c0 .824.411 1.634 1.188 2.341 2.631 2.396 7.993 2.397 10.625 0 .777-.707 1.188-1.517 1.188-2.341 0-.828.671-1.5 1.5-1.5s1.5.672 1.5 1.5c0 1.667-.77 3.286-2.168 4.56-1.886 1.715-4.61 2.574-7.333 2.574z"/><path d="m165.786 121.119c-2.896 0-5.252-2.356-5.252-5.252v-8.753c0-2.896 2.356-5.252 5.252-5.252s5.252 2.356 5.252 5.252v8.753c0 2.896-2.356 5.252-5.252 5.252z"/><path d="m165.786 132.301c-11.475 0-20.811-9.336-20.811-20.811s9.336-20.811 20.811-20.811 20.811 9.336 20.811 20.811-9.336 20.811-20.811 20.811zm0-37.621c-9.27 0-16.811 7.541-16.811 16.811s7.542 16.811 16.811 16.811 16.811-7.541 16.811-16.811-7.541-16.811-16.811-16.811z"/><path d="m211.085 132.495c-11.475 0-20.811-9.336-20.811-20.811s9.335-20.811 20.811-20.811 20.811 9.336 20.811 20.811-9.336 20.811-20.811 20.811zm0-37.621c-9.27 0-16.811 7.541-16.811 16.811s7.541 16.811 16.811 16.811 16.811-7.541 16.811-16.811-7.542-16.811-16.811-16.811z"/><path d="m195.281 112.793h-13.718c-1.104 0-2-.896-2-2s.896-2 2-2h13.718c1.104 0 2 .896 2 2s-.895 2-2 2z"/><path d="m211.085 121.119c-2.896 0-5.252-2.356-5.252-5.252v-8.753c0-2.896 2.356-5.252 5.252-5.252 2.895 0 5.252 2.356 5.252 5.252v8.753c0 2.896-2.356 5.252-5.252 5.252z"/><path d="m120.509 240.925c-.3 0-.602-.067-.882-.205-.684-.337-1.117-1.032-1.117-1.795v-34.725c0-.389.113-.769.326-1.094l18.907-28.932c.048-.074.1-.144.156-.208 4.808-7.422 12.904-11.842 21.725-11.842h3.364c.689 0 1.331.355 1.696.939l11.46 18.332c.167.269.402.345.556.303.136-.002.387-.046.547-.318l9.453-16.142c.358-.612 1.016-.989 1.726-.989s1.367.377 1.726.989l9.454 16.142c.16.272.412.316.547.318.158.037.389-.034.556-.303l11.46-18.331c.365-.584 1.006-.939 1.695-.939l3.37-.001c14.281 0 25.899 11.619 25.899 25.9v50.899c0 1.104-.896 2-2 2h-105.409c-1.104 0-2-.896-2-2v-7.658l-11.994 9.242c-.356.277-.787.418-1.221.418zm17.215-4h101.409v-48.899c0-12.076-9.824-21.9-21.899-21.9h-2.261l-10.873 17.393c-.856 1.37-2.324 2.182-3.936 2.183-.023 0-.046-.001-.069-.001-1.639-.023-3.113-.882-3.941-2.297l-7.728-13.194-7.728 13.194c-.828 1.415-2.302 2.273-3.941 2.297-.023 0-.046.001-.069.001-1.612 0-3.08-.813-3.936-2.183l-10.873-17.392-2.256-.001c-7.547 0-14.47 3.832-18.517 10.25-.057.091-.12.175-.188.253l-18.408 28.168v30.063l11.994-9.242c.603-.467 1.418-.549 2.104-.211.684.337 1.117 1.032 1.117 1.795v9.723z"/></g><path d="m167.527 158.051 20.898 8.193 20.898-8.193c.118-.046.238-.072.358-.099v-3.79c-6.35 3.305-13.575 5.182-21.247 5.182-7.681 0-14.915-1.882-21.27-5.195v3.801c.121.027.243.054.363.101z" fill="#f9cfcf"/><path d="m188.425 168.244c-.248 0-.495-.046-.73-.138l-20.953-8.2c-.92-.199-1.578-1.014-1.578-1.955v-3.802c0-.699.365-1.348.963-1.71.598-.364 1.342-.387 1.962-.063 6.235 3.251 13.27 4.969 20.345 4.969 7.166 0 14.004-1.668 20.324-4.957.621-.322 1.364-.297 1.961.064.598.363.962 1.011.962 1.71v3.79c0 .938-.655 1.752-1.571 1.953l-.104.024-20.851 8.177c-.235.092-.483.138-.73.138zm-9.382-7.826 9.382 3.678 9.365-3.671c-6.161 1.22-12.587 1.219-18.747-.007zm-12.197-.488h.01z" fill="#3762cc"/><path d="m159.602 238.925h-15.719v-76.151c0-1.894 1.535-3.43 3.43-3.43h8.86c1.894 0 3.43 1.535 3.43 3.43v76.151z" fill="#4671c6"/><path d="m232.12 238.924h-15.719v-76.151c0-1.894 1.535-3.43 3.43-3.43h8.86c1.894 0 3.43 1.535 3.43 3.43v76.151z" fill="#4671c6"/><path d="m159.602 240.925h-15.719c-1.104 0-2-.896-2-2v-76.15c0-2.994 2.436-5.43 5.43-5.43h8.859c2.994 0 5.43 2.436 5.43 5.43v76.15c0 1.104-.895 2-2 2zm-13.719-4h11.719v-74.15c0-.788-.642-1.43-1.43-1.43h-8.859c-.788 0-1.43.642-1.43 1.43z" fill="#3762cc"/><path d="m232.12 240.925h-15.719c-1.104 0-2-.896-2-2v-76.151c0-2.994 2.436-5.43 5.43-5.43h8.859c2.994 0 5.43 2.436 5.43 5.43v76.151c0 1.104-.895 2-2 2zm-13.719-4h11.719v-74.151c0-.788-.642-1.43-1.43-1.43h-8.859c-.788 0-1.43.642-1.43 1.43z" fill="#3762cc"/><path d="m216.685 40.421c-4.431-4.068-8.899-7.048-13.35-9.157l.033-.004c-19.078-8.457-41.112-3.598-54.118 7.442h.006c-8.311 6.116-14.739 13.521-18.69 18.7v-.001c-.026.035-4.169 5.708-4.143 5.674l.009.005c-.424.709-.577 1.502-.508 2.259.227 2.486 9.116 20.585 33.607 24.295 12.889 1.963 25.765-.128 36.522-4.597l-.003.005c4.691-1.87 13.249-6.406 18.812-11.858l-.006-.004c.22-.229.443-.472.667-.718 0 0 7.145-7.433 7.394-15.349l-.015-.006c.577-5.598-1.512-12.367-6.217-16.686z" fill="#4671c6"/><path d="m169.319 92.363c-3.402 0-6.781-.249-10.09-.753-26.329-3.988-35.07-23.593-35.298-26.091-.111-1.225.159-2.423.783-3.467l.038.022c.205-.387.47-.75.698-1.062l1.418-1.942c1.035-1.418 2.073-2.839 2.086-2.856 4.011-5.257 10.541-12.793 19.015-19.05 12.18-10.33 34.959-17.153 56.209-7.733.101.044.196.097.285.155 4.714 2.271 9.28 5.419 13.574 9.36 4.791 4.399 7.474 11.479 6.878 18.104.001.041.001.083 0 .125-.271 8.587-7.638 16.346-7.952 16.672-.163.181-.352.388-.545.591-.048.061-.101.118-.157.174-6.157 6.033-15.429 10.676-19.472 12.287-.033.014-.065.025-.098.036-8.659 3.579-18.102 5.428-27.372 5.428zm-41.162-28.273c-.003.005-.006.01-.009.016-.236.394-.257.789-.233 1.051.33 2.127 8.943 19.02 31.915 22.499 11.658 1.777 24.249.189 35.456-4.466.048-.021.098-.039.147-.055 3.82-1.542 12.268-5.79 17.911-11.264.023-.027.048-.054.073-.079.207-.215.416-.442.625-.674.103-.108 6.517-6.888 6.868-13.847-.01-.121-.01-.245.003-.37.557-5.401-1.686-11.432-5.58-15.007-4.081-3.747-8.406-6.716-12.854-8.823-.062-.029-.122-.063-.18-.098-19.552-8.528-40.431-2.295-51.659 7.172-.062.06-.128.115-.198.167-8.144 5.991-14.438 13.26-18.285 18.302-.084.114-3.342 4.574-4 5.476z" fill="#3762cc"/><path d="m116.054 41.982c-8.651-15.293-25.974-24.907-44.883-24.907-4.937 0-6.254 0-11.192 0-18.909 0-36.232 9.614-44.883 24.907-3.675 6.497-5.592 13.698-5.592 21.004v12.195c0 2.004 1.787 3.63 3.991 3.63h108.151v-15.825c0-7.306-1.917-14.507-5.592-21.004z" fill="#6bdddd"/><path d="m81.123 17.987-7.951 19.339c-1.899 4.619-2.869 9.482-2.869 14.381v27.103h51.342v-15.824-.001c.001-20.281-14.853-39.823-40.522-44.998z" fill="#4671c6"/><path d="m121.646 80.811h-108.151c-3.303 0-5.991-2.525-5.991-5.63v-12.196c0-7.617 2.023-15.221 5.852-21.988 9.044-15.989 26.91-25.922 46.624-25.922h11.19c19.714 0 37.58 9.933 46.624 25.922 3.828 6.768 5.851 14.371 5.851 21.988v15.825c.001 1.105-.895 2.001-1.999 2.001zm-61.667-61.736c-18.275 0-34.806 9.154-43.142 23.891-3.489 6.169-5.333 13.091-5.333 20.02v12.195c0 .898.893 1.63 1.991 1.63h106.151v-13.826c0-6.929-1.844-13.852-5.333-20.02-8.336-14.736-24.867-23.891-43.143-23.891h-11.191z" fill="#3762cc"/><path d="m70.303 78.811c0-3.746 3.103-6.833 7.058-7.032l66.114-3.321c3.12-.157 5.748 2.177 5.774 5.129.026 2.878-2.437 5.224-5.483 5.224z" fill="#e0ebfc"/><path d="m143.767 80.811h-73.464c-1.104 0-2-.896-2-2 0-4.811 3.935-8.777 8.958-9.028l66.114-3.321c2.08-.118 4.144.642 5.637 2.049 1.425 1.344 2.22 3.14 2.238 5.059.017 1.875-.715 3.653-2.06 5.01-1.406 1.417-3.382 2.231-5.423 2.231zm-71.017-4h71.017c.981 0 1.923-.382 2.583-1.048.588-.593.908-1.359.9-2.158-.007-.818-.356-1.595-.981-2.185-.703-.663-1.686-1.004-2.693-.965l-66.114 3.321c-2.127.108-3.915 1.33-4.712 3.035z" fill="#3762cc"/></svg>