<svg id="Layer_1" enable-background="new 0 0 256 256" height="512" viewBox="0 0 256 256" width="512" xmlns="http://www.w3.org/2000/svg"><path d="m242.002 201.575h-228c-3.314 0-6-2.686-6-6v-158c0-3.314 2.686-6 6-6h228c3.314 0 6 2.686 6 6v158c0 3.314-2.687 6-6 6z" fill="#e0ebfc"/><path d="m20.002 186.576v-140c0-1.657 1.343-3 3-3h210c1.657 0 3 1.343 3 3v140c0 1.657-1.343 3-3 3h-210c-1.657 0-3-1.344-3-3z" fill="#a4c9ff"/><path d="m242.002 203.575h-228c-4.411 0-8-3.589-8-8v-158c0-4.411 3.589-8 8-8h228c4.411 0 8 3.589 8 8v158c0 4.411-3.589 8-8 8zm-228.001-170c-2.206 0-4 1.794-4 4v158c0 2.206 1.794 4 4 4h228c2.206 0 4-1.794 4-4v-158c0-2.206-1.794-4-4-4z" fill="#3762cc"/><path d="m233.002 191.575h-210c-2.757 0-5-2.243-5-5v-140c0-2.757 2.243-5 5-5h210c2.757 0 5 2.243 5 5v140c0 2.757-2.243 5-5 5zm-210.001-146c-.551 0-1 .448-1 1v140c0 .552.449 1 1 1h210c.552 0 1-.448 1-1v-140c0-.552-.448-1-1-1z" fill="#3762cc"/><circle cx="182.895" cy="112.292" fill="#e0ebfc" r="47.37"/><path d="m175.719 90.139c2.196 2.496 2.658 2.777 2.658 3.777 0 5.115.088 5.252-.158 5.835l-.637 1.506c-.451 1.066-1.708 1.53-2.744 1.012l-3.18-1.59c-.961-.48-1.372-1.632-.934-2.613 1.407-3.146 1.759-3.581 1.683-4.397l-.189-2.02c-.11-1.176.815-2.193 1.997-2.193.575.002 1.123.25 1.504.683z" fill="#6bdddd"/><path d="m150.379 78.959c7.794 1.827 7.961 1.701 8.508 2.281.294.311 2.108 2.174 2.281 2.519l1.131 2.262c.291.582.858.81.71.73.807.434 1.117 1.435.698 2.25l-1.045 2.032c-.46.895-1.599 1.188-2.434.626-1.69-1.137-3.029-2.462-4.248-1.141-1.031 1.117-2.159 1.986-1.355 3.284 2.8 4.524 2.901 5.131 4.113 5.131 5.502 0 6.333-.291 6.912.99l1.477 3.269c.26.575.307 2.214-.245 2.872-4.842 5.765-4.917 6.292-6.209 6.033-6.993-1.404-7.117-1.299-7.649-1.762-.367-.32-3.416-3.05-3.836-3.218-1.86-.74-2.855-1.425-3.855-.546l-3.539 3.11c-.363.319-.572.78-.572 1.263v3.399c0 .627.349 1.203.906 1.492.403.21 6.322 3.351 6.77 3.42l9.221 1.419c1.93.297 5.226-.668 6.083.891.22.4 3.007 5.735 3.333 6.007 2.278 1.899 3.357 1.409.174 8.885-.182.429-.533.759-.971.918-3.371 1.226-4.144 1.276-4.4 2.427-.107.482-.412 1.619-.352 2.061l.68 5.031c.013.099.018.199.014.299l-.227 5.156c-.055 1.257-1.415 1.998-2.515 1.387-14.559-8.082-24.412-23.612-24.412-41.445 0-12.767 5.052-24.354 13.265-32.873.407-.423 1.015-.593 1.588-.459z" fill="#6bdddd"/><path d="m193.419 158.487.924-2.772 1.974-2.542 2.587-2.774c1.487-1.595-.69-5.415 2.265-6.158l1.988-.5c1.319-.332 3.996.545 5.255-.714l1.832-1.832c1.24-1.24.414-3.961 1.93-5.138 1-.776 2.347-2.074 3.871-.721.817.725 2.017.736 2.844.079 1.303-1.035 1.796-1.297 2.121-1.95 1.565-3.141 2.334-4.038 1.435-5.381-1.263-1.886-1.554-2.66-2.546-3.008-3.164-1.111-2.301-.243-5.029-5.48l-2.089-3.203c-1.232-1.888 1.7-7.739.194-9.748l-1.411-1.882c-1.425-1.901-3.175-.168-4.42-.168-4.1 0-5.115.28-5.957-.984-2.419-3.629-2.897-4.014-2.897-5.014 0-3.948-.314-5.099.566-6.08 3.393-3.778 3.537-4.123 4.27-4.421l3.559-1.448c4.355-1.772 1.096-6.062 3.317-7.783 1.746-1.353 3.262-2.991 4.904-1.485 9.44 8.659 15.359 21.094 15.359 34.913 0 22.544-15.75 41.408-36.846 46.194z" fill="#6bdddd"/><path d="m212.896 125.591-5.707 1.2c-.395.083-.75.297-1.008.607l-1.309 1.575c-1.116 1.343-4.554.336-5.808 1.473-2.444 2.216-2.946 2.455-2.946 3.463 0 1.093.968 1.927 2.045 1.771l5.854-.851c.32-.047.621-.179.872-.383 2.881-2.348 3.373-2.553 3.631-3.308.345-1.011.593-2.405 2.1-2.405h1.472c.988 0 1.788-.801 1.788-1.788v-1.353h-.984z" fill="#6bdddd"/><path d="m182.895 161.662c-27.223 0-49.37-22.147-49.37-49.37 0-27.224 22.147-49.371 49.37-49.371 27.224 0 49.371 22.147 49.371 49.371 0 27.223-22.148 49.37-49.371 49.37zm0-94.741c-25.018 0-45.37 20.354-45.37 45.371s20.353 45.37 45.37 45.37 45.371-20.353 45.371-45.37-20.354-45.371-45.371-45.371z" fill="#3762cc"/><path d="m111.587 171.995h-8.615c-.019-.001-.037-.004-.056-.004l-.003.004h-56.671c-14.972 0-27.109 12.137-27.109 27.109v24.612h119.563c0-9.177 0-15.439 0-24.612 0-14.972-12.137-27.109-27.109-27.109z" fill="#4671c6"/><path d="m138.696 225.716h-119.563c-1.104 0-2-.896-2-2v-24.612c0-16.051 13.058-29.108 29.109-29.108h56.551c.076-.006.151-.004.247 0h8.547c16.051 0 29.109 13.058 29.109 29.108v24.612c0 1.104-.895 2-2 2zm-117.563-4h115.563v-22.612c0-13.845-11.264-25.108-25.109-25.108h-8.615c-.02 0-.039 0-.059 0h-56.671c-13.845 0-25.109 11.264-25.109 25.108z" fill="#3762cc"/><path d="m137.244 96.696c-2.089-.855-4.216-1.218-6.367-1.17l-8.687-6.254c-6.853-4.934-11.177-12.419-12.233-20.526l-.37-1.091c-9.912 10.563-26.579 17.818-39.703 19.488 0 0-4.655.62-7.03.802-15.409 1.183-26.765-1.864-35.048-6.374-.531 2.952-.824 5.986-.824 9.09v4.864c-.11-.002-.218-.017-.328-.017-8.753 0-15.848 7.031-15.848 15.706 0 8.674 7.096 15.706 15.848 15.706.575 0 1.141-.034 1.7-.093 5.361 22.774 25.961 39.745 50.575 39.745s45.215-16.971 50.575-39.745c.559.059 1.126.093 1.7.093 8.753 0 15.848-7.032 15.848-15.706.001-6.531-4.033-12.168-9.808-14.518z" fill="#f9cfcf"/><path d="m72.975 199.266-17.049-27.271h3.774 19.209v.008l.01-.008h19.209 3.774l-17.058 27.272c-2.741 4.385-9.127 4.385-11.869-.001z" fill="#e0ebfc"/><path d="m78.911 204.556c-.001 0-.001 0 0 0-3.124 0-5.976-1.581-7.631-4.229l-17.05-27.271c-.385-.617-.406-1.394-.054-2.03.353-.636 1.022-1.03 1.75-1.03h22.983.011 22.983c.727 0 1.397.395 1.75 1.03.353.637.332 1.414-.054 2.03l-17.058 27.272c-1.656 2.648-4.508 4.228-7.63 4.228zm-19.376-30.561 15.136 24.211c.919 1.472 2.504 2.35 4.239 2.35 1.734 0 3.319-.878 4.239-2.349l15.144-24.212h-19.284c-.065.004-.131.004-.196 0z" fill="#3762cc"/><path d="m78.94 144.514c-3.561 0-6.876-1.282-9.095-3.52-1.685-1.699-2.612-3.842-2.612-6.033 0-1.104.896-2 2-2s2 .896 2 2c0 1.146.502 2.259 1.453 3.217 1.451 1.463 3.79 2.336 6.255 2.336 2.48 0 4.748-.852 6.22-2.336.95-.958 1.452-2.07 1.452-3.217 0-1.104.896-2 2-2s2 .896 2 2c0 2.192-.928 4.335-2.612 6.033-2.219 2.236-5.521 3.52-9.061 3.52z" fill="#3762cc"/><path d="m53.232 123.788c-3.458 0-6.271-2.813-6.271-6.27v-10.451c0-3.458 2.813-6.271 6.271-6.271 3.457 0 6.27 2.813 6.27 6.271v10.451c.001 3.457-2.813 6.27-6.27 6.27z" fill="#3762cc"/><path d="m104.615 123.788c-3.458 0-6.271-2.813-6.271-6.27v-10.451c0-3.458 2.813-6.271 6.271-6.271 3.457 0 6.27 2.813 6.27 6.271v10.451c0 3.457-2.813 6.27-6.27 6.27z" fill="#3762cc"/><path d="m51.701 167.023-1.648 5.217 12.999 20.793c1.195 1.912 3.993 1.871 5.133-.074l10.726-18.315-23.708-9.294c-1.431-.561-3.039.207-3.502 1.673z" fill="#e0ebfc"/><path d="m106.115 167.023 1.648 5.217-12.999 20.793c-1.195 1.912-3.993 1.871-5.133-.074l-10.726-18.315 23.708-9.294c1.431-.561 3.039.207 3.502 1.673z" fill="#e0ebfc"/><path d="m65.594 196.442c-1.735 0-3.315-.874-4.237-2.349l-13-20.793c-.311-.497-.388-1.104-.211-1.663l1.648-5.217c.387-1.225 1.273-2.245 2.432-2.799 1.161-.554 2.512-.602 3.707-.135l23.708 9.294c.544.214.968.654 1.16 1.207s.132 1.161-.164 1.666l-10.726 18.317c-.892 1.522-2.478 2.446-4.242 2.473-.025-.001-.05-.001-.075-.001zm-13.356-24.479 12.51 20.01c.269.431.683.477.862.47.169-.002.591-.056.848-.494l9.544-16.297-21.529-8.439c-.229-.09-.426-.027-.522.02-.096.046-.268.157-.343.394v.001zm-.537-4.94h.01z" fill="#3762cc"/><path d="m92.222 196.442c-.025 0-.05 0-.075 0-1.764-.026-3.35-.95-4.242-2.473l-10.726-18.315c-.296-.505-.355-1.113-.164-1.666s.615-.993 1.16-1.207l23.708-9.294c1.198-.467 2.547-.419 3.707.135 1.159.554 2.045 1.574 2.433 2.799l1.647 5.217c.176.559.099 1.166-.211 1.663l-12.999 20.793c-.923 1.474-2.503 2.348-4.238 2.348zm-10.409-20.791 9.543 16.297c.257.438.679.492.849.494.168.021.593-.038.863-.47l12.51-20.01-1.37-4.337c-.075-.236-.247-.35-.343-.396-.096-.044-.29-.108-.523-.019z" fill="#3762cc"/><path d="m129.901 51.722c-2.14-2.79-5.784-3.961-9.148-2.942l-2.653.804c-.266 6.677-3.535 12.8-8.505 18.091l.363 1.068c0 .001-.001.001-.001.002 1.055 8.107 5.379 15.593 12.233 20.526l8.687 6.254c2.858-.067 5.528.607 7.906 1.893l1.102-8.082c1.822-13.368-1.772-26.909-9.984-37.614z" fill="#4671c6"/><path d="m192.302 239.66h-57.842v-88.07h57.842c1.165 0 2.109.944 2.109 2.109v83.851c0 1.165-.944 2.11-2.109 2.11z" fill="#4671c6"/><path d="m134.46 239.66h-9.992v-85.433c0-1.456 1.18-2.636 2.636-2.636h7.355v88.069z" fill="#6bdddd"/><path d="m184.072 179.804h-39.273c-1.165 0-2.109-.944-2.109-2.109v-12.477c0-1.165.944-2.109 2.109-2.109h39.273c1.165 0 2.109.944 2.109 2.109v12.477c0 1.165-.944 2.109-2.109 2.109z" fill="#f9cfcf"/><g fill="#3762cc"><path d="m192.302 241.659h-57.842c-1.104 0-2-.896-2-2v-88.069c0-1.104.896-2 2-2h57.842c2.266 0 4.109 1.844 4.109 4.109v83.852c0 2.265-1.844 4.108-4.109 4.108zm-55.842-4h55.842c.061 0 .109-.049.109-.108v-83.852c0-.061-.049-.109-.109-.109h-55.842z"/><path d="m134.46 241.659h-9.992c-1.104 0-2-.896-2-2v-85.433c0-2.557 2.08-4.637 4.637-4.637h7.355c1.104 0 2 .896 2 2v88.069c0 1.106-.896 2.001-2 2.001zm-7.992-4h5.992v-84.069h-5.355c-.351 0-.637.285-.637.637z"/><path d="m184.072 181.805h-39.273c-2.266 0-4.109-1.844-4.109-4.109v-12.478c0-2.266 1.844-4.109 4.109-4.109h39.273c2.266 0 4.109 1.844 4.109 4.109v12.478c.001 2.265-1.843 4.109-4.109 4.109zm-39.273-16.697c-.061 0-.109.049-.109.109v12.478c0 .061.049.109.109.109h39.273c.061 0 .109-.049.109-.109v-12.478c0-.061-.049-.109-.109-.109z"/><path d="m138.783 99.419c-.327 0-.654-.08-.951-.24-2.136-1.155-4.479-1.695-6.908-1.653-.427.032-.862-.122-1.216-.376l-8.687-6.255c-7.099-5.11-11.837-13.011-13.021-21.699l-.298-.877c-.238-.7-.07-1.475.436-2.013 5.055-5.382 7.734-11.034 7.964-16.801.034-.852.604-1.588 1.418-1.835l2.652-.804c4.14-1.252 8.686.21 11.315 3.64 8.477 11.049 12.26 25.301 10.378 39.102l-1.102 8.082c-.089.65-.49 1.216-1.076 1.513-.283.144-.593.216-.904.216zm-7.265-5.896c1.951.025 3.839.358 5.643.993l.743-5.45c1.738-12.75-1.757-25.918-9.589-36.126 0 0 0 0 0-.001-1.623-2.115-4.432-3.021-6.982-2.245l-1.333.405c-.583 5.919-3.313 11.645-8.131 17.054.033.109.057.222.072.335.999 7.673 5.16 14.656 11.417 19.161z"/><path d="m78.93 168.572c-24.633 0-45.823-16.221-52.11-39.652-.055.001-.11.001-.166.001-9.841 0-17.848-7.943-17.848-17.706 0-9.204 7.116-16.79 16.177-17.628v-2.925c0-3.113.288-6.291.855-9.445.114-.632.524-1.171 1.104-1.449.579-.277 1.257-.26 1.821.047 9.337 5.084 20.758 7.151 33.938 6.137 2.293-.177 6.873-.785 6.919-.791 13.911-1.771 29.741-9.531 38.508-18.874.48-.514 1.193-.734 1.881-.587.687.148 1.245.646 1.471 1.312l.371 1.091c.042.125.073.254.09.386.999 7.673 5.16 14.656 11.417 19.161l8.161 5.876c2.241.033 4.419.477 6.481 1.321 6.715 2.732 11.053 9.157 11.053 16.369 0 9.763-8.007 17.706-17.849 17.706-.055 0-.109 0-.165-.001-6.287 23.431-27.476 39.651-52.109 39.651zm-50.574-43.745c.918 0 1.731.631 1.945 1.542 5.294 22.493 25.291 38.203 48.628 38.203s43.333-15.71 48.628-38.203c.23-.982 1.168-1.646 2.159-1.53.521.055 1.008.082 1.488.082 7.636 0 13.849-6.148 13.849-13.706 0-5.578-3.361-10.55-8.564-12.666-.001 0-.002-.001-.004-.002-1.761-.721-3.634-1.056-5.563-1.021-.46.025-.861-.122-1.214-.376l-8.687-6.255c-6.434-4.632-10.929-11.555-12.596-19.28-10.985 10.107-26.779 16.047-38.288 17.512-.181.023-4.726.628-7.129.813-12.821.984-24.12-.81-33.642-5.331-.254 2.03-.383 4.057-.383 6.054v4.864c0 .54-.218 1.057-.604 1.433-.387.376-.9.58-1.449.566-.078-.002-.155-.007-.231-.012-.002 0-.005 0-.007 0-7.677 0-13.885 6.146-13.885 13.701 0 7.558 6.212 13.706 13.848 13.706.481 0 .968-.027 1.489-.082.07-.008.142-.012.212-.012z"/></g><path d="m16.653 73.134c-1.002 5.295-1.176 10.761-.435 16.203l1.241 9.102c2.595-1.836 5.763-2.929 9.195-2.929.111 0 .218.014.328.017v-4.864c0-3.104.297-6.136.829-9.088-4.624-2.518-8.287-5.488-11.158-8.441z" fill="#4671c6"/><path d="m17.459 100.438c-.27 0-.541-.055-.797-.165-.641-.279-1.09-.872-1.185-1.564l-1.241-9.102c-.76-5.576-.608-11.243.451-16.845.139-.733.674-1.328 1.389-1.543.714-.218 1.49-.014 2.01.521 3.103 3.19 6.696 5.908 10.681 8.077.757.412 1.165 1.264 1.012 2.111-.529 2.935-.797 5.873-.797 8.733v4.864c0 .54-.218 1.057-.604 1.433-.387.376-.9.58-1.449.566-.078-.002-.155-.007-.231-.012-.006 0-.012 0-.018 0-2.929 0-5.702.885-8.065 2.558-.344.244-.748.368-1.156.368zm.602-23.217c-.441 3.956-.395 7.927.139 11.846l.838 6.143c1.871-.882 3.875-1.43 5.945-1.622v-2.925c0-2.639.21-5.334.625-8.033-2.7-1.573-5.225-3.383-7.547-5.409z" fill="#3762cc"/><path d="m55.203 165.35 23.082 9.049h1.244l23.082-9.049c.135-.053.272-.083.409-.113v-4.544c-7.203 3.749-15.398 5.878-24.1 5.878-8.713 0-16.917-2.135-24.127-5.892v4.558c.138.03.276.061.41.113z" fill="#f9cfcf"/><path d="m79.53 176.399h-1.244c-.25 0-.498-.047-.73-.138l-23.064-9.042c-.042-.012-.085-.02-.128-.029-.916-.202-1.569-1.015-1.569-1.953v-4.558c0-.699.365-1.348.963-1.71.597-.363 1.342-.387 1.961-.063 7.111 3.707 15.134 5.666 23.202 5.666 8.057 0 16.072-1.955 23.177-5.653.62-.321 1.365-.299 1.961.064.598.362.962 1.011.962 1.71v4.544c0 .938-.654 1.75-1.569 1.953-.045.01-.091.019-.137.032l-23.055 9.039c-.233.092-.48.138-.73.138zm-.866-4h.488l16.484-6.462c-10.809 3.486-22.781 3.468-33.578-.048zm-24.163-5.176h.01z" fill="#3762cc"/><path d="m110.966 31.679c-5.617-5.157-11.285-8.799-16.922-11.21h.005c-15.525-6.785-36.145-4.844-49.882 3.176l.009-.001c-17.983 9.367-30.553 26.434-34.584 32.424-.27.33-1.246 1.702-1.389 2.146-.326 1.016-.269 2.178.213 3.198 3.577 7.571 17.198 29.392 54.438 26.532 2.376-.183 7.03-.802 7.03-.802 20.248-2.578 48.993-18.416 48.228-39.252-.229-6.255-2.805-12.226-7.146-16.211z" fill="#4671c6"/><path d="m56.365 90.2c-33.796 0-46.537-21.117-49.756-27.933-.683-1.445-.796-3.145-.31-4.663.268-.834 1.355-2.293 1.665-2.697 4.59-6.813 17.13-23.536 35.177-32.979.006-.004.013-.008.02-.012 14.92-8.712 36.175-10.063 51.69-3.281.023.011.045.021.068.031 6.031 2.593 11.885 6.475 17.401 11.538 4.7 4.314 7.54 10.734 7.792 17.612.823 22.396-29.027 38.642-49.974 41.31-.181.023-4.726.628-7.129.813-2.301.177-4.515.261-6.644.261zm-46.277-31.311c-.158.546-.109 1.151.136 1.67 2.958 6.259 14.696 25.638 46.181 25.64 2.018 0 4.112-.079 6.295-.247 2.292-.176 6.874-.785 6.919-.791 19.898-2.533 47.202-17.908 46.494-37.196-.213-5.817-2.583-11.216-6.5-14.812-5.208-4.781-10.711-8.431-16.356-10.845-.031-.014-.063-.027-.093-.043-14.371-6.242-34.021-4.994-47.876 3.042-.06.04-.123.077-.188.11-17.819 9.281-30.414 26.662-33.85 31.768-.035.053-.072.103-.112.151-.235.288-.88 1.224-1.05 1.553z" fill="#3762cc"/></svg>