<svg id="Layer_1" enable-background="new 0 0 256 256" height="512" viewBox="0 0 256 256" width="512" xmlns="http://www.w3.org/2000/svg"><path d="m25.703 168.632c-.931.931-.931 2.44 0 3.371l22.546 22.546c.931.931 2.44.931 3.371 0l141.588-141.588c.931-.931.931-2.44 0-3.371l-22.546-22.546c-.931-.931-2.44-.931-3.371 0l-8.217 8.217c-34.56-34.56-90.594-34.56-125.154 0s-34.56 90.594 0 125.154zm37.715-37.714c-18.24-18.24-18.24-47.919 0-66.159s47.919-18.24 66.159 0z" fill="#a4c9ff"/><g fill="#3762cc"><path d="m181.409 66.761c-.512 0-1.023-.195-1.414-.586l-7.557-7.557c-.781-.781-.781-2.047 0-2.828s2.047-.781 2.828 0l7.557 7.557c.781.781.781 2.047 0 2.828-.39.39-.902.586-1.414.586z"/><path d="m164.554 83.616c-.512 0-1.023-.195-1.414-.586l-9.693-9.694c-.781-.781-.781-2.047 0-2.828s2.047-.781 2.828 0l9.693 9.694c.781.781.781 2.047 0 2.828-.391.391-.903.586-1.414.586z"/><path d="m164.554 83.616c-.512 0-1.023-.195-1.414-.586l-7.557-7.557c-.781-.781-.781-2.047 0-2.828s2.047-.781 2.828 0l7.557 7.557c.781.781.781 2.047 0 2.828-.391.391-.903.586-1.414.586z"/><path d="m147.698 100.472c-.512 0-1.023-.195-1.414-.586l-14.751-14.75c-.781-.781-.781-2.047 0-2.828s2.047-.781 2.828 0l14.751 14.75c.781.781.781 2.047 0 2.828-.39.391-.902.586-1.414.586z"/><path d="m130.842 117.328c-.512 0-1.023-.195-1.414-.586l-7.557-7.557c-.781-.781-.781-2.047 0-2.828s2.047-.781 2.828 0l7.557 7.557c.781.781.781 2.047 0 2.828-.391.39-.902.586-1.414.586z"/><path d="m113.986 134.184c-.512 0-1.023-.195-1.414-.586l-7.557-7.557c-.781-.781-.781-2.047 0-2.828s2.047-.781 2.828 0l7.557 7.557c.781.781.781 2.047 0 2.828-.39.39-.902.586-1.414.586z"/><path d="m97.131 151.039c-.512 0-1.023-.195-1.414-.586l-14.75-14.75c-.781-.781-.781-2.047 0-2.828s2.047-.781 2.828 0l14.75 14.75c.781.781.781 2.047 0 2.828-.391.391-.902.586-1.414.586z"/><path d="m80.275 167.895c-.512 0-1.023-.195-1.414-.586l-7.558-7.557c-.781-.781-.781-2.047 0-2.828s2.047-.781 2.828 0l7.558 7.557c.781.781.781 2.047 0 2.828-.39.391-.902.586-1.414.586z"/><path d="m63.419 184.75c-.512 0-1.023-.195-1.414-.586l-7.557-7.557c-.781-.781-.781-2.047 0-2.828s2.047-.781 2.828 0l7.557 7.557c.781.781.781 2.047 0 2.828-.391.391-.902.586-1.414.586z"/><path d="m49.935 197.246c-1.123 0-2.245-.427-3.1-1.282l-22.546-22.546c-1.709-1.708-1.709-4.49-.001-6.199h.001l6.818-6.818c-33.881-35.39-33.414-91.74 1.399-126.554 34.813-34.813 91.163-35.281 126.553-1.399l6.818-6.818c1.709-1.71 4.49-1.71 6.199 0l22.547 22.546c1.709 1.709 1.709 4.491 0 6.199l-141.589 141.589c-.854.855-1.976 1.282-3.099 1.282zm-22.817-27.2c-.15.149-.15.393-.001.543l22.546 22.546c.15.149.393.149.543 0l141.589-141.588c.149-.15.149-.394-.001-.543l-22.546-22.546c-.15-.149-.393-.149-.543 0l-8.217 8.217c-.75.75-2.078.75-2.828 0-33.727-33.725-88.6-33.725-122.326 0-33.725 33.726-33.725 88.601 0 122.326.781.781.781 2.047 0 2.828zm36.3-37.129c-.512 0-1.023-.195-1.414-.586-9.199-9.199-14.266-21.449-14.266-34.493s5.066-25.294 14.266-34.494c19.02-19.018 49.967-19.02 68.986 0 .375.375.586.884.586 1.414s-.211 1.039-.586 1.414l-66.158 66.159c-.391.391-.902.586-1.414.586zm33.079-79.839c-11.468 0-22.935 4.365-31.665 13.095-8.444 8.444-13.094 19.689-13.094 31.666 0 11.305 4.144 21.959 11.711 30.22l63.268-63.268c-8.529-7.808-19.375-11.713-30.22-11.713z"/></g><path d="m41.335 246.659h196.193c5.784 0 10.472-4.688 10.472-10.472v-196.193c0-4.665-5.64-7.001-8.939-3.703l-201.428 201.429c-3.299 3.299-.963 8.939 3.702 8.939zm91.902-45.303 69.46-69.46c1.26-1.26 3.414-.368 3.414 1.414v67.46c0 2.209-1.791 4-4 4h-67.46c-1.782 0-2.674-2.154-1.414-3.414z" fill="#6bdddd"/><path d="m62.279 248.659c-1.104 0-2-.896-2-2v-12.641c0-1.104.896-2 2-2s2 .896 2 2v12.641c0 1.104-.895 2-2 2z" fill="#3762cc"/><path d="m83.224 248.659c-1.104 0-2-.896-2-2v-18.786c0-1.104.896-2 2-2s2 .896 2 2v18.786c0 1.104-.896 2-2 2z" fill="#3762cc"/><path d="m104.169 248.659c-1.104 0-2-.896-2-2v-12.641c0-1.104.896-2 2-2s2 .896 2 2v12.641c0 1.104-.896 2-2 2z" fill="#3762cc"/><path d="m125.113 248.659c-1.104 0-2-.896-2-2v-12.641c0-1.104.896-2 2-2s2 .896 2 2v12.641c0 1.104-.895 2-2 2z" fill="#3762cc"/><path d="m146.058 248.659c-1.104 0-2-.896-2-2v-18.786c0-1.104.896-2 2-2s2 .896 2 2v18.786c0 1.104-.896 2-2 2z" fill="#3762cc"/><path d="m167.002 248.659c-1.104 0-2-.896-2-2v-12.641c0-1.104.896-2 2-2s2 .896 2 2v12.641c0 1.104-.896 2-2 2z" fill="#3762cc"/><path d="m187.946 248.659c-1.104 0-2-.896-2-2v-12.641c0-1.104.896-2 2-2s2 .896 2 2v12.641c0 1.104-.895 2-2 2z" fill="#3762cc"/><path d="m208.891 248.659c-1.104 0-2-.896-2-2v-18.786c0-1.104.896-2 2-2s2 .896 2 2v18.786c0 1.104-.896 2-2 2z" fill="#3762cc"/><path d="m229.835 248.659c-1.104 0-2-.896-2-2v-12.641c0-1.104.896-2 2-2s2 .896 2 2v12.641c0 1.104-.896 2-2 2z" fill="#3762cc"/><path d="m237.527 248.659h-196.192c-2.982 0-5.544-1.712-6.686-4.467-1.141-2.755-.54-5.777 1.569-7.886l201.429-201.429c2.11-2.109 5.135-2.709 7.886-1.568 2.755 1.141 4.467 3.703 4.467 6.685v196.192c0 6.877-5.595 12.473-12.473 12.473zm5.2-211.916c-.825 0-1.617.329-2.251.963l-201.429 201.428c-.957.958-1.22 2.276-.702 3.527.519 1.251 1.637 1.998 2.99 1.998h196.192c4.672 0 8.473-3.801 8.473-8.472v-196.193c0-1.354-.747-2.472-1.997-2.99-.424-.175-.855-.261-1.276-.261zm-40.616 170.027h-67.46c-1.624 0-3.075-.969-3.696-2.47-.621-1.5-.281-3.21.867-4.358l69.461-69.46c1.146-1.147 2.858-1.489 4.359-.867 1.5.621 2.469 2.072 2.469 3.695v67.46c0 3.309-2.691 6-6 6zm-67.461-4c-.009.009-.013.014-.013.014l67.474-.014c1.103 0 2-.897 2-2v-67.46z" fill="#3762cc"/></svg>