<svg id="Layer_1" enable-background="new 0 0 256 256" height="512" viewBox="0 0 256 256" width="512" xmlns="http://www.w3.org/2000/svg"><path d="m107.751 135.44h-77.71c-5.282 0-9.564 4.373-9.564 9.768v11.725 25.872c0 11.281 8.954 20.426 20 20.426h46.841c16.569 0 30-13.717 30-30.638 0-14.506 0-9.995 0-26.183v-1.2c-.001-5.396-4.284-9.77-9.567-9.77z" fill="#e0ebfc"/><path d="m225.981 135.44h-77.711c-5.282 0-9.564 4.373-9.564 9.768v1.201c0 .321 0 26.477 0 26.183 0 16.921 13.431 30.638 30 30.638h46.84c11.046 0 20-9.145 20-20.426v-14.252-11.62-11.724c0-5.394-4.283-9.768-9.565-9.768z" fill="#e0ebfc"/><path d="m87.316 205.23h-46.84c-12.131 0-22-10.061-22-22.426v-37.597c0-6.488 5.188-11.768 11.564-11.768h77.71c6.377 0 11.565 5.279 11.565 11.769v27.383c.001 17.998-14.354 32.639-31.999 32.639zm-57.275-67.79c-4.171 0-7.564 3.484-7.564 7.768v37.597c0 10.16 8.075 18.426 18 18.426h46.84c15.439 0 28-12.848 28-28.639v-27.383c0-4.283-3.394-7.769-7.565-7.769z" fill="#3762cc"/><path d="m215.546 205.23h-46.84c-17.644 0-31.998-14.64-32-32.636v-27.387c0-6.488 5.188-11.768 11.563-11.768h77.711c6.377 0 11.565 5.279 11.565 11.769v37.596c.001 12.366-9.868 22.426-21.999 22.426zm-74.84-32.638c0 15.791 12.561 28.639 28 28.639h46.84c9.925 0 18-8.266 18-18.426v-37.596c0-4.283-3.394-7.769-7.565-7.769h-77.711c-4.171 0-7.563 3.484-7.563 7.768v27.384z" fill="#3762cc"/><g fill="#a4c9ff"><path d="m42.141 187.753c-3.68 0-5.582-4.483-2.948-7.117l28.497-28.497c1.629-1.628 4.267-1.628 5.895 0 1.629 1.628 1.629 4.268 0 5.896-30.772 30.772-29.053 29.718-31.444 29.718z"/><path d="m64.207 186.532c-1.629-1.628-1.629-4.268 0-5.896l28.497-28.497c1.629-1.628 4.267-1.628 5.895 0 1.629 1.628 1.629 4.268 0 5.896l-28.497 28.497c-1.628 1.628-4.267 1.628-5.895 0z"/><path d="m160.37 187.753c-3.68 0-5.582-4.483-2.948-7.117l28.497-28.497c1.629-1.628 4.267-1.628 5.895 0 1.629 1.628 1.629 4.268 0 5.896-30.772 30.772-29.052 29.718-31.444 29.718z"/><path d="m185.384 187.753c-3.68 0-5.582-4.483-2.948-7.117l28.497-28.497c1.629-1.628 4.267-1.628 5.895 0 1.629 1.628 1.629 4.268 0 5.896-30.772 30.772-29.052 29.718-31.444 29.718z"/></g><path d="m229.877 123.162-.003.004c-1.16-.258 4.261-.174-79.235-.174-4.865 0-9.042 2.971-10.909 7.23-7.663 1.201-15.535 1.242-23.459 0-1.867-4.26-6.045-7.23-10.909-7.23-83.496 0-78.075-.084-79.235.174l-.003-.004s-.309.073-.753.226l-.002-.003c-2.765 1.098-2.305.909-14.553 5.44-1.579.421-2.681 1.878-2.681 3.545v12.024c0 2.022 1.606 3.663 3.587 3.663h8.756v-2.85c0-5.395 4.282-9.768 9.564-9.768h77.711c5.283 0 9.565 4.374 9.565 9.77v1.199c7.102-1.013 14.264-1.013 21.366 0v-1.199c0-5.396 4.283-9.77 9.565-9.77h77.711c5.282 0 9.564 4.373 9.564 9.768v2.85h8.756c1.981 0 3.587-1.641 3.587-3.663v-12.024c0-1.667-1.102-3.124-2.681-3.545-11.797-4.364-11.87-4.375-14.553-5.44z" fill="#4671c6"/><path d="m25.368 123.384.002.003c.444-.153.753-.226.753-.226l.003.004c.825-.184-1.667-.194 26.847-.185l31.725-50.33c2.526-4.007 6.601-1.108 19.8-1.108 3.302 0 5.978-2.733 5.978-6.105v-6.513c0-3.372-2.676-6.104-5.978-6.104-6.435 0-10.49 0-16.898 0-3.197 0 1.639-3.946-76.785 76.004 12.249-4.53 11.789-4.342 14.553-5.44z" fill="#a4c9ff"/><path d="m151.502 71.543c3.243 0 .518.153 15.626-1.013 1.667-.129 3.269.686 4.174 2.121l31.725 50.33c28.514-.009 26.021.001 26.847.185l.003-.004.755.223c2.683 1.066 2.757 1.076 14.552 5.44-79.131-80.672-73.595-76.004-76.784-76.004-6.408 0-10.463 0-16.898 0-3.302 0-5.978 2.732-5.978 6.104v6.513c0 3.371 2.676 6.105 5.978 6.105z" fill="#a4c9ff"/><path d="m244.279 150.058h-8.756c-1.104 0-2-.896-2-2v-2.85c0-4.283-3.394-7.768-7.564-7.768h-77.71c-4.172 0-7.565 3.485-7.565 7.77v1.199c0 .58-.252 1.131-.689 1.511-.438.379-1.021.545-1.593.47-6.902-.984-13.9-.984-20.803 0-.571.075-1.154-.091-1.593-.47-.438-.38-.689-.931-.689-1.511v-1.199c0-4.284-3.394-7.77-7.565-7.77h-77.71c-4.171 0-7.564 3.484-7.564 7.768v2.85c0 1.104-.896 2-2 2h-8.756c-3.081 0-5.587-2.54-5.587-5.663v-12.025c0-2.536 1.667-4.762 4.066-5.45l5.775-2.135c6.333-2.341 6.454-2.386 8.654-3.259.069-.027.139-.051.209-.07.494-.165.828-.241.828-.241.022-.005.046-.01.068-.015.754-.228 1.324-.228 32.253-.217 11.245.004 26.542.009 47.373.009 5.122 0 9.814 2.873 12.245 7.408 6.903.982 13.886.982 20.787 0 2.431-4.535 7.123-7.408 12.245-7.408 20.831 0 36.128-.005 47.373-.009 31.016-.008 31.502-.011 32.257.218.058.012.116.025.174.043l.755.223c.059.017.116.037.173.06 2.182.866 2.579 1.013 9.226 3.47l5.204 1.924c2.399.688 4.066 2.914 4.066 5.45v12.024c0 3.123-2.506 5.663-5.587 5.663zm-6.756-4h6.756c.875 0 1.587-.746 1.587-1.663v-12.025c0-.762-.492-1.425-1.196-1.612-.061-.017-.12-.035-.18-.057l-5.281-1.953c-6.603-2.44-7.077-2.616-9.23-3.471l-.54-.159c-.107-.024-.187-.046-.256-.066-.824-.079-6.396-.079-31.17-.068-11.245.004-26.542.009-47.374.009-3.908 0-7.471 2.368-9.077 6.033-.274.625-.848 1.067-1.522 1.173-7.988 1.252-16.09 1.252-24.078 0-.675-.105-1.248-.548-1.522-1.173-1.606-3.665-5.169-6.033-9.077-6.033-20.832 0-36.129-.005-47.374-.009-24.773-.009-30.347-.01-31.17.068-.076.022-.153.044-.258.066-.022.005-.045.01-.067.014-.097.026-.264.075-.47.146-.009.003-.017.006-.025.009-2.142.85-2.363.932-8.635 3.25l-5.853 2.164c-.06.021-.119.04-.18.057-.704.188-1.196.851-1.196 1.612v12.024c0 .917.712 1.663 1.587 1.663h6.756v-.85c0-6.488 5.188-11.768 11.564-11.768h77.71c6.024 0 10.987 4.711 11.519 10.703 5.803-.656 11.658-.656 17.461 0 .531-5.992 5.494-10.703 11.519-10.703h77.71c6.377 0 11.564 5.279 11.564 11.768v.851z" fill="#3762cc"/><path d="m10.816 130.824c-.662 0-1.302-.33-1.679-.913-.509-.785-.404-1.819.251-2.487 18.409-18.768 32.229-32.912 42.644-43.569 32.48-33.239 32.475-33.245 35.289-33.047.085.006.176.013.279.013h16.897c4.399 0 7.979 3.636 7.979 8.104v6.513c0 4.47-3.579 8.105-7.979 8.105-4.927 0-8.664-.401-11.393-.693-4.904-.528-5.849-.512-6.715.868l-31.726 50.33c-.367.581-1.006.934-1.692.934 0 0 0 0-.001 0-19.828-.007-25.354-.007-26.154.07-.076.022-.153.043-.257.066-.022.005-.046.01-.068.014-.097.026-.264.075-.47.146-.008.003-.017.006-.024.009-2.143.851-2.363.932-8.637 3.25l-5.851 2.163c-.226.084-.46.124-.693.124zm76.068-76.036c-.008 0-.015 0-.021 0-1.281.456-8.396 7.737-31.969 31.862-9.203 9.418-21.064 21.558-36.403 37.205 3.904-1.444 4.278-1.59 6.14-2.329.069-.027.139-.051.209-.07.494-.165.828-.241.828-.241.022-.005.046-.01.068-.015.742-.226 1.229-.235 26.134-.219l31.137-49.396c2.27-3.598 5.555-3.245 10.526-2.713 2.786.299 6.253.671 10.966.671 2.193 0 3.979-1.842 3.979-4.105v-6.513c0-2.264-1.785-4.104-3.979-4.104h-16.898c-.202 0-.38-.011-.546-.021-.06-.005-.116-.012-.171-.012z" fill="#3762cc"/><path d="m245.183 130.824c-.231 0-.466-.04-.693-.124l-5.414-2.002c-6.361-2.352-6.956-2.571-9.097-3.421l-.539-.159c-.107-.024-.187-.046-.257-.066-.802-.076-6.331-.079-26.154-.07-.001 0-.001 0-.001 0-.687 0-1.325-.353-1.692-.934l-31.726-50.33c-.508-.807-1.397-1.272-2.327-1.193l-6.848.532c-6.432.502-6.434.506-8 .49l-.933-.004c-4.399 0-7.979-3.636-7.979-8.105v-6.513c0-4.469 3.579-8.104 7.979-8.104h16.897c.104 0 .193-.011.276-.019 2.735-.267 2.734-.263 35.094 32.853 10.441 10.685 24.323 24.89 42.842 43.77.655.668.76 1.702.251 2.487-.377.582-1.016.912-1.679.912zm-14.915-9.623c.059.011.117.025.175.043l.755.223c.059.017.116.037.173.06 1.78.707 2.361.931 6.139 2.328-15.442-15.754-27.366-27.955-36.6-37.405-23.054-23.591-30.26-30.965-31.771-31.674-.026.002-.053.005-.08.008-.196.019-.408.037-.658.037h-16.897c-2.193 0-3.979 1.841-3.979 4.104v6.513c0 2.264 1.785 4.105 3.979 4.105l.962.004c1.406.019 1.403.011 7.659-.479l6.851-.532c2.4-.185 4.717.981 6.02 3.049l31.138 49.396c24.988-.013 25.39-.006 26.134.22z" fill="#3762cc"/></svg>