<svg id="Layer_1" enable-background="new 0 0 256 256" height="512" viewBox="0 0 256 256" width="512" xmlns="http://www.w3.org/2000/svg"><path d="m178 248h-100c-8.284 0-15-6.716-15-15v-115c0-8.284 6.716-15 15-15h100c8.284 0 15 6.716 15 15v115c0 8.284-6.716 15-15 15z" fill="#4671c6"/><path d="m163.365 79.492c-1.046-1.946-3.076-3.159-5.285-3.159-1.953 0-61.387 0-60.16 0-2.209 0-4.239 1.214-5.285 3.159l-12.635 23.508h96z" fill="#ffea92"/><path d="m135.96 9.651c-.169-.955-1-1.651-1.97-1.651-.236 0-12.185 0-11.98 0-.97 0-1.8.696-1.969 1.651l-11.803 66.682h39.526z" fill="#e0ebfc"/><path d="m172.5 210.5h-89c-4.418 0-8-3.582-8-8v-54c0-4.418 3.582-8 8-8h89c4.418 0 8 3.582 8 8v54c0 4.418-3.581 8-8 8z" fill="#6bdddd"/><g fill="#e0ebfc"><path d="m97.007 173.391c-.883 0-1.608.25-2.155.745-.565.51-.864 1.189-.864 1.963 0 1.217.609 1.83 1.118 2.129 1.098.648 2.323.529 5.407.529v2.527c-3.332 1.671-7.693 2.205-10.094-.609-2.764-3.244-3.022-13.641 4.637-13.641 2.929 0 3.773 1.245 5.215 3.493 1.815 2.437 5.673 1.136 5.673-1.79 0-9.121-23.908-12.03-23.908 6.114 0 17.847 22.485 14.486 24.423 8.587.328-1 .223-2.145.223-6.341 0-4.524-3.588-3.706-9.675-3.706z"/><path d="m116.092 182.015c0-17.91.301-18.143-.91-19.441-.62-.665-1.429-1.003-2.404-1.003-.97 0-1.771.343-2.383 1.022-1.176 1.308-.882 1.267-.882 21.293 0 1.277.317 2.246.943 2.879.627.636 1.601.959 2.896.959 12.677 0 13.005.241 14.138-.761 1.199-1.053 1.247-3.021.003-4.152-1.135-1.03-1.644-.796-11.401-.796z"/><path d="m143.595 165.377v11.918c0 1.851-.336 3.221-1 4.074-.613.787-1.742 1.186-3.357 1.186-1.203 0-2.127-.205-2.748-.608-2.106-1.367-1.66-3.771-1.66-16.57 0-5.128-6.579-5.12-6.579 0 0 13.105-2.09 22.757 11.331 22.757 6.874 0 10.593-3.54 10.593-11.2 0-12.387.274-13.091-.91-14.36-1.652-1.774-5.67-1.448-5.67 2.803z"/><path d="m173.103 182.902c-1.095-1.001-1.629-.756-12.796-.756v-5.127c10.022 0 10.487.223 11.507-.753 1.075-1.027 1.09-2.891-.024-3.908-1.033-.938-1.464-.721-11.482-.721v-4.191c10.776 0 11.351.232 12.418-.74 1.113-1.018 1.15-2.933-.001-3.986-1.078-.981-1.342-.739-15.158-.739-2.514 0-3.839 1.205-3.839 3.839 0 19.305-.32 19.666.944 20.945.627.636 1.601.959 2.896.959h13.23c2.148 0 3.167-1.301 3.167-2.773-.001-.825-.299-1.533-.862-2.049z"/></g><path d="m178 250h-100c-9.374 0-17-7.626-17-17v-115c0-9.374 7.626-17 17-17h100c9.374 0 17 7.626 17 17v115c0 9.374-7.626 17-17 17zm-100-145c-7.168 0-13 5.832-13 13v115c0 7.168 5.832 13 13 13h100c7.168 0 13-5.832 13-13v-115c0-7.168-5.832-13-13-13z" fill="#3762cc"/><path d="m176 105h-96c-.704 0-1.355-.37-1.717-.974-.361-.604-.378-1.354-.045-1.974l12.635-23.508c1.391-2.587 4.074-4.198 7.009-4.212h.02 60.179c2.949 0 5.649 1.614 7.047 4.212l12.635 23.508c.333.62.316 1.369-.045 1.974-.363.604-1.014.974-1.718.974zm-92.654-4h89.309l-11.051-20.561c-.698-1.3-2.049-2.106-3.523-2.106h-60.161c-1.475 0-2.825.807-3.523 2.106z" fill="#3762cc"/><path d="m147.763 78.333h-39.525c-.592 0-1.152-.262-1.532-.715s-.54-1.052-.438-1.634l11.804-66.682c.338-1.91 1.99-3.298 3.93-3.303h.007 11.982c1.944 0 3.601 1.389 3.939 3.303l11.803 66.682c.103.582-.058 1.181-.438 1.634s-.941.715-1.532.715zm-37.141-4h34.756l-11.388-64.333v-.001l-11.979.001z" fill="#3762cc"/><path d="m172.5 212.5h-89c-5.514 0-10-4.486-10-10v-54c0-5.514 4.486-10 10-10h89c5.514 0 10 4.486 10 10v54c0 5.514-4.486 10-10 10zm-89-70c-3.309 0-6 2.691-6 6v54c0 3.309 2.691 6 6 6h89c3.309 0 6-2.691 6-6v-54c0-3.309-2.691-6-6-6z" fill="#3762cc"/></svg>