<svg id="Layer_1" enable-background="new 0 0 256 256" height="512" viewBox="0 0 256 256" width="512" xmlns="http://www.w3.org/2000/svg"><g fill="#ffea94"><path d="m246 200.073h-17.345c-1.105 0-2-.895-2-2v-17.47c0-5.883 4.769-10.652 10.652-10.652h.04c5.883 0 10.652 4.769 10.652 10.652v17.47c.001 1.105-.894 2-1.999 2z"/><path d="m246 200.073h-17.345c-1.105 0-2-.895-2-2v-17.47c0-5.883 4.769-10.652 10.652-10.652h.04c5.883 0 10.652 4.769 10.652 10.652v17.47c.001 1.105-.894 2-1.999 2z"/><path d="m237.307 169.951h.04c1.893 0 3.666.499 5.207 1.364v-65.587c0-2.893-2.34-5.239-5.227-5.239s-5.227 2.345-5.227 5.239v65.587c1.541-.865 3.315-1.364 5.207-1.364z"/></g><path d="m120.807 56.804-108.951 43.706c-5.214 2.091-5.117 9.656.149 11.607l109.106 40.431c2.736 1.014 5.734 1.014 8.47 0l109.139-40.443c5.254-1.947 5.351-9.496.149-11.583l-108.983-43.718c-2.918-1.17-6.161-1.17-9.079 0z" fill="#4671c6"/><path d="m125.346 155.308c-1.67 0-3.34-.294-4.93-.883l-109.106-40.432c-3.18-1.178-5.264-4.16-5.309-7.597-.046-3.439 1.96-6.479 5.11-7.742l108.951-43.706c3.407-1.367 7.16-1.367 10.568 0l108.982 43.718c3.146 1.262 5.148 4.296 5.103 7.73-.046 3.431-2.126 6.408-5.3 7.584l-109.14 40.443c-1.588.59-3.259.885-4.929.885zm0-97.384c-1.285 0-2.571.245-3.794.736l-108.951 43.707c-1.946.78-2.619 2.565-2.6 3.976.019 1.409.738 3.173 2.699 3.899l109.106 40.431c2.282.846 4.797.846 7.08 0l109.139-40.443c1.955-.724 2.672-2.482 2.69-3.887.019-1.406-.652-3.186-2.592-3.964l-108.981-43.718c-1.225-.492-2.51-.737-3.796-.737zm-4.539-1.12h.01z" fill="#3762cc"/><path d="m192.228 115.802c-16.136-2.92-76.568-12.195-136.857-.026-2.392.483-3.945 1.691-3.945 3.009v.062 30.083.003c0 1.369 1.653 2.588 4.171 3.043 16.136 2.92 76.568 12.195 136.857.026 2.392-.483 3.945-1.691 3.945-3.009v-.062-30.083-.003c0-1.369-1.654-2.587-4.171-3.043z" fill="#4671c6"/><path d="m126.913 160.121c-33.705 0-61.067-4.256-71.673-6.175-3.532-.64-5.814-2.606-5.814-5.011v-30.086c0-2.402 2.178-4.353 5.549-5.032 60.309-12.173 120.574-3.064 137.609.018 3.532.64 5.814 2.606 5.814 5.012v30.086c0 2.401-2.179 4.352-5.55 5.032-22.757 4.592-45.511 6.156-65.935 6.156zm-5.996-48.466c-20.193 0-42.668 1.544-65.151 6.082-1.687.34-2.293.991-2.354 1.134l.013 30.06c.051.069.706.749 2.527 1.078 16.856 3.05 76.487 12.067 136.105.033 1.687-.34 2.294-.992 2.354-1.134l-.013-30.06c-.051-.069-.706-.749-2.527-1.078-10.499-1.9-37.604-6.115-70.954-6.115z" fill="#3762cc"/><path d="m235.328 200.073v-16.74c0-1.104-.896-2-2-2s-2 .896-2 2v16.74z" fill="#eaa97d"/><path d="m243.328 200.073v-9.448c0-1.104-.896-2-2-2s-2 .896-2 2v9.448z" fill="#eaa97d"/></svg>