<svg id="Layer_1" enable-background="new 0 0 256 256" height="512" viewBox="0 0 256 256" width="512" xmlns="http://www.w3.org/2000/svg"><path d="m52.011 234.686c-2.4 0-4.345-1.945-4.345-4.345v-209.027c-2.503 0-4.128 0-4.623 0h-4.345c-2.4 0-4.345 1.945-4.345 4.345v217.995c0 2.4 1.945 4.345 4.345 4.345h165.292c2.4 0 4.345-1.946 4.345-4.345v-8.969h-156.324z" fill="#4671c6"/><path d="m217.303 234.686c2.4 0 4.345-1.946 4.345-4.345v-179.05l-43.29-43.291h-126.347c-2.4 0-4.345 1.946-4.345 4.345v217.995c0 2.4 1.946 4.345 4.345 4.345h165.292z" fill="#e0ebfc"/><g fill="#a4c9ff"><path d="m209.167 160.326h-74.51c-.745 0-1.35-.604-1.35-1.35v-74.51c0-.745.604-1.35 1.35-1.35h74.51c.745 0 1.35.604 1.35 1.35v74.51c0 .746-.605 1.35-1.35 1.35zm-73.16-2.699h71.811v-71.811h-71.811z"/><path d="m159.494 160.326h-24.837c-.745 0-1.35-.604-1.35-1.35v-74.51c0-.745.604-1.35 1.35-1.35h24.837c.745 0 1.35.604 1.35 1.35v74.51c0 .746-.605 1.35-1.35 1.35zm-23.487-2.699h22.138v-71.811h-22.138z"/><path d="m184.33 160.326h-24.836c-.745 0-1.35-.604-1.35-1.35v-74.51c0-.745.604-1.35 1.35-1.35h24.836c.745 0 1.35.604 1.35 1.35v74.51c0 .746-.605 1.35-1.35 1.35zm-23.486-2.699h22.137v-71.811h-22.137z"/><path d="m209.167 160.326h-24.837c-.745 0-1.35-.604-1.35-1.35v-74.51c0-.745.604-1.35 1.35-1.35h24.837c.745 0 1.35.604 1.35 1.35v74.51c0 .746-.605 1.35-1.35 1.35zm-23.487-2.699h22.138v-71.811h-22.138z"/><path d="m209.167 110.652h-74.51c-.745 0-1.35-.604-1.35-1.35v-24.835c0-.745.604-1.35 1.35-1.35h74.51c.745 0 1.35.604 1.35 1.35v24.836c0 .745-.605 1.349-1.35 1.349zm-73.16-2.699h71.811v-22.137h-71.811z"/><path d="m209.167 135.489h-74.51c-.745 0-1.35-.604-1.35-1.35v-24.837c0-.745.604-1.35 1.35-1.35h74.51c.745 0 1.35.604 1.35 1.35v24.837c0 .746-.605 1.35-1.35 1.35zm-73.16-2.699h71.811v-22.138h-71.811z"/><path d="m209.167 160.326h-74.51c-.745 0-1.35-.604-1.35-1.35v-24.836c0-.745.604-1.35 1.35-1.35h74.51c.745 0 1.35.604 1.35 1.35v24.837c0 .745-.605 1.349-1.35 1.349zm-73.16-2.699h71.811v-22.138h-71.811z"/><path d="m159.494 224.59h-24.837c-.745 0-1.35-.604-1.35-1.35v-64.264c0-.745.604-1.35 1.35-1.35h24.837c.745 0 1.35.604 1.35 1.35v64.264c0 .745-.605 1.35-1.35 1.35zm-23.487-2.699h22.138v-61.564h-22.138z"/><path d="m209.167 185.164h-74.51c-.745 0-1.35-.604-1.35-1.35v-24.837c0-.745.604-1.35 1.35-1.35h74.51c.745 0 1.35.604 1.35 1.35v24.837c0 .746-.605 1.35-1.35 1.35zm-73.16-2.699h71.811v-22.138h-71.811z"/><path d="m209.167 210h-74.51c-.745 0-1.35-.604-1.35-1.35v-24.836c0-.745.604-1.35 1.35-1.35h74.51c.745 0 1.35.604 1.35 1.35v24.836c0 .746-.605 1.35-1.35 1.35zm-73.16-2.699h71.811v-22.137h-71.811z"/><path d="m209.167 224.59h-24.837c-.745 0-1.35-.604-1.35-1.35v-64.264c0-.745.604-1.35 1.35-1.35h24.837c.745 0 1.35.604 1.35 1.35v64.264c0 .745-.605 1.35-1.35 1.35zm-23.487-2.699h22.138v-61.564h-22.138z"/><path d="m184.33 224.59h-24.836c-.745 0-1.35-.604-1.35-1.35v-64.264c0-.745.604-1.35 1.35-1.35h24.836c.745 0 1.35.604 1.35 1.35v64.264c0 .745-.605 1.35-1.35 1.35zm-23.486-2.699h22.137v-61.564h-22.137z"/><path d="m209.167 224.59h-74.51c-.745 0-1.35-.604-1.35-1.35v-14.59c0-.745.604-1.35 1.35-1.35h74.51c.745 0 1.35.604 1.35 1.35v14.59c0 .745-.605 1.35-1.35 1.35zm-73.16-2.699h71.811v-11.891h-71.811z"/><path d="m134.657 160.326h-74.511c-.745 0-1.35-.604-1.35-1.35v-74.51c0-.745.604-1.35 1.35-1.35h74.511c.745 0 1.35.604 1.35 1.35v74.51c0 .746-.605 1.35-1.35 1.35zm-73.161-2.699h71.812v-71.811h-71.812z"/><path d="m84.983 160.326h-24.837c-.745 0-1.35-.604-1.35-1.35v-74.51c0-.745.604-1.35 1.35-1.35h24.837c.745 0 1.35.604 1.35 1.35v74.51c0 .746-.604 1.35-1.35 1.35zm-23.487-2.699h22.138v-71.811h-22.138z"/><path d="m109.82 160.326h-24.837c-.745 0-1.35-.604-1.35-1.35v-74.51c0-.745.604-1.35 1.35-1.35h24.837c.745 0 1.35.604 1.35 1.35v74.51c0 .746-.605 1.35-1.35 1.35zm-23.487-2.699h22.138v-71.811h-22.138z"/><path d="m134.657 160.326h-24.837c-.745 0-1.35-.604-1.35-1.35v-74.51c0-.745.604-1.35 1.35-1.35h24.837c.745 0 1.35.604 1.35 1.35v74.51c0 .746-.605 1.35-1.35 1.35zm-23.487-2.699h22.138v-71.811h-22.138z"/><path d="m134.657 110.652h-74.511c-.745 0-1.35-.604-1.35-1.35v-24.835c0-.745.604-1.35 1.35-1.35h74.511c.745 0 1.35.604 1.35 1.35v24.836c0 .745-.605 1.349-1.35 1.349zm-73.161-2.699h71.812v-22.137h-71.812z"/><path d="m134.657 135.489h-74.511c-.745 0-1.35-.604-1.35-1.35v-24.837c0-.745.604-1.35 1.35-1.35h74.511c.745 0 1.35.604 1.35 1.35v24.837c0 .746-.605 1.35-1.35 1.35zm-73.161-2.699h71.812v-22.138h-71.812z"/><path d="m134.657 160.326h-74.511c-.745 0-1.35-.604-1.35-1.35v-24.836c0-.745.604-1.35 1.35-1.35h74.511c.745 0 1.35.604 1.35 1.35v24.837c0 .745-.605 1.349-1.35 1.349zm-73.161-2.699h71.812v-22.138h-71.812z"/><path d="m134.657 85.815h-74.511c-.745 0-1.35-.604-1.35-1.35v-24.836c0-.745.604-1.35 1.35-1.35h74.511c.745 0 1.35.604 1.35 1.35v24.837c0 .745-.605 1.349-1.35 1.349zm-73.161-2.699h71.812v-22.137h-71.812z"/><path d="m134.657 60.979h-74.511c-.745 0-1.35-.604-1.35-1.35v-24.837c0-.745.604-1.35 1.35-1.35h74.511c.745 0 1.35.604 1.35 1.35v24.837c0 .745-.605 1.35-1.35 1.35zm-73.161-2.7h71.812v-22.137h-71.812z"/><path d="m109.82 85.815h-24.837c-.745 0-1.35-.604-1.35-1.35v-64.262c0-.745.604-1.35 1.35-1.35h24.837c.745 0 1.35.604 1.35 1.35v64.263c0 .745-.605 1.349-1.35 1.349zm-23.487-2.699h22.138v-61.563h-22.138z"/><path d="m134.657 36.142h-74.511c-.745 0-1.35-.604-1.35-1.35v-14.589c0-.745.604-1.35 1.35-1.35h74.511c.745 0 1.35.604 1.35 1.35v14.589c0 .745-.605 1.35-1.35 1.35zm-73.161-2.7h71.812v-11.89h-71.812z"/><path d="m209.167 85.815h-74.51c-.745 0-1.35-.604-1.35-1.35v-24.836c0-.745.604-1.35 1.35-1.35h74.51c.745 0 1.35.604 1.35 1.35v24.837c0 .745-.605 1.349-1.35 1.349zm-73.16-2.699h71.811v-22.137h-71.811z"/><path d="m209.167 85.815h-24.837c-.745 0-1.35-.604-1.35-1.35v-33.174c0-.745.604-1.35 1.35-1.35h24.837c.745 0 1.35.604 1.35 1.35v33.175c0 .745-.605 1.349-1.35 1.349zm-23.487-2.699h22.138v-30.475h-22.138z"/><path d="m184.33 85.815h-24.836c-.745 0-1.35-.604-1.35-1.35v-64.262c0-.745.604-1.35 1.35-1.35h18.863c.745 0 1.35.604 1.35 1.35v26.742c0 1.651 1.345 2.996 2.996 2.996h1.627c.745 0 1.35.604 1.35 1.35v33.175c0 .745-.605 1.349-1.35 1.349zm-23.486-2.699h22.137v-30.475h-.277c-3.141 0-5.695-2.555-5.695-5.695v-25.393h-16.164v61.563z"/><path d="m178.357 36.142h-43.7c-.745 0-1.35-.604-1.35-1.35v-14.589c0-.745.604-1.35 1.35-1.35h43.7c.745 0 1.35.604 1.35 1.35v14.589c0 .745-.604 1.35-1.35 1.35zm-42.35-2.7h41.001v-11.89h-41.001z"/><path d="m209.167 60.979h-74.51c-.745 0-1.35-.604-1.35-1.35v-24.837c0-.745.604-1.35 1.35-1.35h43.7c.745 0 1.35.604 1.35 1.35v12.153c0 1.651 1.345 2.996 2.996 2.996h26.464c.745 0 1.35.604 1.35 1.35v8.338c0 .745-.605 1.35-1.35 1.35zm-73.16-2.7h71.811v-5.639h-25.114c-3.141 0-5.695-2.555-5.695-5.695v-10.803h-41.001v22.137z"/><path d="m84.983 224.59h-24.837c-.745 0-1.35-.604-1.35-1.35v-64.264c0-.745.604-1.35 1.35-1.35h24.837c.745 0 1.35.604 1.35 1.35v64.264c0 .745-.604 1.35-1.35 1.35zm-23.487-2.699h22.138v-61.564h-22.138z"/><path d="m134.657 185.164h-74.511c-.745 0-1.35-.604-1.35-1.35v-24.837c0-.745.604-1.35 1.35-1.35h74.511c.745 0 1.35.604 1.35 1.35v24.837c0 .746-.605 1.35-1.35 1.35zm-73.161-2.699h71.812v-22.138h-71.812z"/><path d="m134.657 210h-74.511c-.745 0-1.35-.604-1.35-1.35v-24.836c0-.745.604-1.35 1.35-1.35h74.511c.745 0 1.35.604 1.35 1.35v24.836c0 .746-.605 1.35-1.35 1.35zm-73.161-2.699h71.812v-22.137h-71.812z"/><path d="m134.657 224.59h-24.837c-.745 0-1.35-.604-1.35-1.35v-64.264c0-.745.604-1.35 1.35-1.35h24.837c.745 0 1.35.604 1.35 1.35v64.264c0 .745-.605 1.35-1.35 1.35zm-23.487-2.699h22.138v-61.564h-22.138z"/><path d="m109.82 224.59h-24.837c-.745 0-1.35-.604-1.35-1.35v-64.264c0-.745.604-1.35 1.35-1.35h24.837c.745 0 1.35.604 1.35 1.35v64.264c0 .745-.605 1.35-1.35 1.35zm-23.487-2.699h22.138v-61.564h-22.138z"/><path d="m134.657 224.59h-74.511c-.745 0-1.35-.604-1.35-1.35v-14.59c0-.745.604-1.35 1.35-1.35h74.511c.745 0 1.35.604 1.35 1.35v14.59c0 .745-.605 1.35-1.35 1.35zm-73.161-2.699h71.812v-11.891h-71.812z"/><path d="m178.358 8v38.945c0 2.4 1.946 4.345 4.345 4.345h38.945z"/></g><path d="m217.303 236.686h-165.292c-3.499 0-6.345-2.847-6.345-6.345v-217.996c0-3.498 2.846-6.345 6.345-6.345h126.347c.53 0 1.039.211 1.414.586l43.291 43.291c.375.375.586.884.586 1.414v179.05c-.001 3.498-2.847 6.345-6.346 6.345zm-165.292-226.686c-1.293 0-2.345 1.052-2.345 2.345v217.996c0 1.293 1.052 2.345 2.345 2.345h165.292c1.293 0 2.346-1.052 2.346-2.345v-178.222l-42.12-42.119z" fill="#3762cc"/><path d="m221.648 53.291h-38.945c-3.499 0-6.346-2.847-6.346-6.345v-38.946c0-.809.487-1.538 1.235-1.848.747-.309 1.607-.139 2.179.434l43.291 43.291c.572.572.743 1.432.434 2.179s-1.038 1.235-1.848 1.235zm-41.291-40.462v34.117c0 1.293 1.052 2.345 2.346 2.345h34.117z" fill="#3762cc"/><path d="m209.167 160.977h-74.51c-1.104 0-2-.896-2-2v-74.51c0-1.104.896-2 2-2h74.51c1.104 0 2 .896 2 2v74.51c0 1.104-.896 2-2 2zm-72.51-4h70.51v-70.51h-70.51z" fill="#6bdddd"/><path d="m134.657 86.466h-74.511c-1.104 0-2-.896-2-2v-64.263c0-1.104.896-2 2-2h74.511c1.104 0 2 .896 2 2v64.263c0 1.104-.895 2-2 2zm-72.511-4h70.511v-60.263h-70.511z" fill="#6bdddd"/><path d="m134.657 225.239h-74.511c-1.104 0-2-.896-2-2v-64.263c0-1.104.896-2 2-2h74.511c1.104 0 2 .896 2 2v64.263c0 1.105-.895 2-2 2zm-72.511-4h70.511v-60.263h-70.511z" fill="#6bdddd"/><path d="m209.167 86.466h-74.51c-1.104 0-2-.896-2-2v-64.263c0-1.104.896-2 2-2h43.7c1.104 0 2 .896 2 2v26.742c0 1.293 1.053 2.346 2.346 2.346h26.464c1.104 0 2 .896 2 2v33.175c0 1.104-.896 2-2 2zm-72.51-4h70.51v-29.175h-24.464c-3.499 0-6.346-2.847-6.346-6.346v-24.742h-39.7z" fill="#6bdddd"/><path d="m209.167 225.239h-74.51c-1.104 0-2-.896-2-2v-64.263c0-1.104.896-2 2-2h74.51c1.104 0 2 .896 2 2v64.263c0 1.105-.896 2-2 2zm-72.51-4h70.51v-60.263h-70.51z" fill="#6bdddd"/><path d="m134.657 160.977h-74.511c-1.104 0-2-.896-2-2v-74.51c0-1.104.896-2 2-2h74.511c1.104 0 2 .896 2 2v74.51c0 1.104-.895 2-2 2zm-72.511-4h70.511v-70.51h-70.511z" fill="#6bdddd"/><path d="m221.648 53.291h-38.945c-3.499 0-6.346-2.847-6.346-6.345v-38.946c0-.809.487-1.538 1.235-1.848.747-.309 1.607-.139 2.179.434l43.291 43.291c.572.572.743 1.432.434 2.179s-1.038 1.235-1.848 1.235zm-41.291-40.462v34.117c0 1.293 1.052 2.345 2.346 2.345h34.117z" fill="#3762cc"/><path d="m184.331 187.814h-99.348c-2.209 0-4-1.791-4-4v-124.452c0-2.209 1.791-4 4-4s4 1.791 4 4v120.452h95.347c2.209 0 4 1.791 4 4s-1.79 4-3.999 4z" fill="#f9a7a7"/><path d="m158.145 160.127c-.617 0-1.234-.228-1.715-.681l-23.487-22.138-26.192-24.842c-.348-.33-.594-.753-.708-1.218l-9.471-38.605c-.329-1.341.492-2.695 1.833-3.024 1.34-.328 2.695.492 3.024 1.833l9.295 37.892 25.654 24.332 21.828 20.573 24.477-21.471c1.037-.91 2.618-.807 3.528.231.911 1.038.807 2.617-.231 3.528l-26.186 22.97c-.473.414-1.062.62-1.649.62z" fill="#f9a7a7"/></svg>