<svg id="Layer_1" enable-background="new 0 0 256 256" height="512" viewBox="0 0 256 256" width="512" xmlns="http://www.w3.org/2000/svg"><path d="m52.011 234.686c-2.4 0-4.345-1.945-4.345-4.345v-209.027c-3.236 0-5.666 0-8.969 0-2.4 0-4.345 1.945-4.345 4.345v217.995c0 2.4 1.946 4.345 4.345 4.345h165.292c2.4 0 4.345-1.946 4.345-4.345v-8.969h-156.323z" fill="#4671c6"/><path d="m217.303 234.686c2.4 0 4.345-1.946 4.345-4.345v-179.05l-43.29-43.291h-126.347c-2.4 0-4.345 1.946-4.345 4.345v217.995c0 2.4 1.946 4.345 4.345 4.345h165.292z" fill="#e0ebfc"/><g fill="#3762cc"><path d="m89.784 224.483h-29.915c-1.104 0-2-.896-2-2v-202.279c0-1.104.896-2 2-2h29.915c1.104 0 2 .896 2 2v202.279c0 1.104-.895 2-2 2zm-27.915-4h25.915v-198.279h-25.915z"/><path d="m119.7 224.483h-29.916c-1.104 0-2-.896-2-2v-202.279c0-1.104.896-2 2-2h29.916c1.104 0 2 .896 2 2v202.279c0 1.104-.895 2-2 2zm-27.916-4h25.916v-198.279h-25.916z"/><path d="m149.615 224.483h-29.915c-1.104 0-2-.896-2-2v-202.279c0-1.104.896-2 2-2h29.915c1.104 0 2 .896 2 2v202.279c0 1.104-.895 2-2 2zm-27.915-4h25.915v-198.279h-25.915z"/><path d="m209.445 104.822h-149.576c-1.104 0-2-.896-2-2v-29.915c0-1.104.896-2 2-2h149.576c1.104 0 2 .896 2 2v29.916c0 1.104-.895 1.999-2 1.999zm-147.576-4h145.576v-25.915h-145.576z"/><path d="m209.445 134.737h-149.576c-1.104 0-2-.896-2-2v-29.915c0-1.104.896-2 2-2h149.576c1.104 0 2 .896 2 2v29.915c0 1.105-.895 2-2 2zm-147.576-4h145.576v-25.915h-145.576z"/><path d="m209.445 164.652h-149.576c-1.104 0-2-.896-2-2v-29.915c0-1.104.896-2 2-2h149.576c1.104 0 2 .896 2 2v29.915c0 1.105-.895 2-2 2zm-147.576-4h145.576v-25.915h-145.576z"/><path d="m209.445 194.568h-149.576c-1.104 0-2-.896-2-2v-29.916c0-1.104.896-2 2-2h149.576c1.104 0 2 .896 2 2v29.916c0 1.104-.895 2-2 2zm-147.576-4h145.576v-25.916h-145.576z"/><path d="m209.445 224.483h-149.576c-1.104 0-2-.896-2-2v-29.915c0-1.104.896-2 2-2h149.576c1.104 0 2 .896 2 2v29.915c0 1.104-.895 2-2 2zm-147.576-4h145.576v-25.915h-145.576z"/></g><path d="m78.527 62.29h-7.526c-1.512 4.062-1.601 4.736-2.967 4.736-.472 0-.888-.173-1.25-.518-.934-.89-.484-1.882 0-3.081 5.551-14.092 5.439-15.544 7.968-15.544 2.405 0 2.073.572 8.094 15.443.378.91.568 1.57.568 1.983 0 .815-.763 1.718-1.831 1.718-1.368-.001-1.563-.813-3.056-4.737zm-6.541-2.815h5.531l-2.791-7.64z" fill="#f9a7a7"/><path d="m104.983 97.219c-5.926 0-7.93.684-7.93-2.298 0-13.41-.34-14.801.536-15.677.358-.358.936-.537 1.736-.537 5.648 0 12.237-.997 12.237 4.647 0 1.852-.926 3.207-2.779 4.066 2.433.775 3.649 2.281 3.649 4.521 0 4.19-3.474 5.278-7.449 5.278zm-4.181-15.697v4.786c3.636 0 7.084.519 7.084-2.462.001-2.579-2.41-2.324-7.084-2.324zm0 7.476v5.404c3.965 0 7.83.571 7.83-2.74 0-3.281-4.005-2.664-7.83-2.664z" fill="#f9a7a7"/><path d="m142.869 123.102c-2.794 6.604-16.069 6.191-16.069-5.298 0-13.223 16.454-10.914 16.454-3.99 0 1.405-1.702 2.17-2.633 1.288-.24-.228-.508-.619-.802-1.175-2.394-4.501-9.218-3.782-9.218 4.003 0 7.931 7.599 8.058 9.344 3.283.468-1.43.998-1.654 1.73-1.654.446 0 .83.156 1.149.467.782.762.468 2.076.045 3.076z" fill="#f9a7a7"/><path d="m209.445 74.907c-1.104 0-2-.896-2-2v-29.915c0-1.104.896-2 2-2s2 .896 2 2v29.915c0 1.104-.895 2-2 2z" fill="#3762cc"/><path d="m182.576 22.204h-9.273c-1.104 0-2-.896-2-2s.896-2 2-2h9.273c1.104 0 2 .896 2 2s-.895 2-2 2z" fill="#3762cc"/><path d="m181.39 22.204h-31.774c-1.104 0-2-.896-2-2s.896-2 2-2h31.774c1.104 0 2 .896 2 2s-.896 2-2 2z" fill="#3762cc"/><path d="m204.44 44.992h-142.028c-1.104 0-2-.896-2-2s.896-2 2-2h142.028c1.104 0 2 .896 2 2s-.895 2-2 2z" fill="#3762cc"/><path d="m179.53 224.483h-29.915c-1.104 0-2-.896-2-2v-202.279c0-1.104.896-2 2-2h29.915c1.104 0 2 .896 2 2v202.279c0 1.104-.895 2-2 2zm-27.915-4h25.915v-198.279h-25.915z" fill="#3762cc"/><path d="m178.358 8v38.945c0 2.4 1.946 4.345 4.345 4.345h38.945z" fill="#a4c9ff"/><path d="m217.303 236.686h-165.292c-3.498 0-6.345-2.847-6.345-6.345v-217.996c0-3.498 2.847-6.345 6.345-6.345h126.347c.53 0 1.039.211 1.414.586l43.291 43.291c.375.375.586.884.586 1.414v179.05c-.001 3.498-2.847 6.345-6.346 6.345zm-165.292-226.686c-1.293 0-2.345 1.052-2.345 2.345v217.996c0 1.293 1.052 2.345 2.345 2.345h165.292c1.293 0 2.346-1.052 2.346-2.345v-178.222l-42.12-42.119z" fill="#3762cc"/><path d="m221.648 53.291h-38.945c-3.499 0-6.346-2.847-6.346-6.345v-38.946c0-.809.487-1.538 1.234-1.848.748-.31 1.606-.139 2.18.434l43.291 43.291c.572.572.743 1.432.434 2.179s-1.039 1.235-1.848 1.235zm-41.291-40.462v34.117c0 1.293 1.053 2.345 2.346 2.345h34.117z" fill="#3762cc"/></svg>