<svg id="Layer_1" enable-background="new 0 0 256 256" height="512" viewBox="0 0 256 256" width="512" xmlns="http://www.w3.org/2000/svg"><path d="m213.263 49.712c-.13.259-.281.511-.458.75l-11.493 15.592c-.66.896-1.596 1.537-2.64 1.857 11.368 14.924 18.129 33.537 18.129 53.702v36.187c0 2.833 2.306 5.139 5.14 5.139h12.834c2.833 0 5.139-2.305 5.139-5.139v-34.986c-.002-27.813-10.045-53.353-26.651-73.102z" fill="#4671c6"/><path d="m56.09 67.485c-.019-.013-.037-.028-.056-.042-.182-.13-.355-.273-.52-.427-.043-.04-.087-.08-.129-.122-.178-.178-.348-.365-.499-.571l-11.878-16.114c-.18-.244-.335-.5-.466-.765-16.493 19.499-26.454 44.691-26.454 72.17v36.186c0 2.833 2.306 5.139 5.139 5.139h12.834c2.834 0 5.14-2.305 5.14-5.139v-35.015c0-20.475 6.852-39.421 18.349-54.597-.522-.158-1.014-.393-1.46-.703z" fill="#4671c6"/><path d="m59.028 68.415c-1.628 0-3.177-.782-4.143-2.092l-11.877-16.114c-1.461-1.982-1.314-4.73.349-6.534 44.893-48.722 122.665-50.479 169.113.267 1.651 1.804 1.792 4.546.335 6.521l-11.493 15.592c-.966 1.31-2.515 2.092-4.143 2.092h-.001c-1.504 0-2.924-.657-3.896-1.802-34.15-40.275-95.876-40.667-130.334.254-.974 1.155-2.398 1.816-3.91 1.816z" fill="#6bdddd"/><path d="m59.028 70.416c-2.261 0-4.411-1.086-5.752-2.905l-11.878-16.115c-2.028-2.752-1.823-6.569.488-9.076 22.148-24.037 53.538-37.813 86.14-37.813h.192c32.853.055 63.297 13.581 85.726 38.086 2.295 2.507 2.492 6.317.469 9.059l-11.493 15.591c-1.341 1.82-3.492 2.906-5.752 2.906-2.093 0-4.069-.915-5.422-2.508-15.963-18.827-39.134-29.616-63.588-29.616-.048 0-.095 0-.143 0-24.44.042-47.603 10.927-63.549 29.864-1.354 1.606-3.336 2.527-5.438 2.527zm68.998-61.91c-31.489 0-61.804 13.306-83.199 36.525-1.015 1.101-1.103 2.779-.209 3.992l11.878 16.115c.59.8 1.537 1.278 2.533 1.278.92 0 1.788-.403 2.38-1.105 16.705-19.839 40.98-31.243 66.601-31.287h.149c25.634 0 49.913 11.303 66.639 31.028.591.696 1.455 1.096 2.37 1.096.996 0 1.943-.478 2.534-1.279l11.493-15.592c.892-1.208.807-2.883-.2-3.984-21.664-23.669-51.063-36.733-82.782-36.787-.062 0-.125 0-.187 0z" fill="#3762cc"/><path d="m34.061 164.938h-12.834c-3.937 0-7.139-3.202-7.139-7.139v-36.186c0-26.843 9.563-52.933 26.927-73.462.435-.514 1.098-.778 1.768-.694.668.081 1.251.493 1.551 1.096.083.167.178.324.284.467l11.878 16.116c.394.534.973.937 1.631 1.136.627.189 1.122.673 1.324 1.295s.088 1.305-.308 1.827c-11.738 15.497-17.943 33.958-17.943 53.391v35.015c0 3.936-3.202 7.138-7.139 7.138zm8.34-112.182c-15.698 19.485-24.313 43.832-24.313 68.858v36.186c0 1.73 1.408 3.139 3.139 3.139h12.834c1.731 0 3.14-1.408 3.14-3.139v-35.015c0-19.536 5.999-38.132 17.374-53.935-.49-.388-.928-.838-1.298-1.34z" fill="#3762cc"/><path d="m234.773 164.938h-12.834c-3.937 0-7.14-3.203-7.14-7.139v-36.186c0-19.121-6.127-37.272-17.72-52.49-.396-.52-.513-1.201-.313-1.824s.692-1.108 1.317-1.3c.653-.201 1.228-.603 1.618-1.132l11.493-15.592c.102-.139.196-.293.28-.461.302-.602.886-1.011 1.554-1.089.674-.079 1.332.185 1.764.699 17.488 20.797 27.119 47.215 27.119 74.388v34.988c.001 3.936-3.201 7.138-7.138 7.138zm-33.128-96.374c11.232 15.53 17.155 33.82 17.155 53.05v36.186c0 1.73 1.408 3.139 3.14 3.139h12.834c1.73 0 3.139-1.408 3.139-3.139v-34.986c0-25.356-8.687-50.032-24.514-69.785l-10.477 14.213c-.364.493-.795.938-1.277 1.322z" fill="#3762cc"/><path d="m189.319 249.494h9.158c16.354 0 29.612-13.258 29.612-29.612v-20.989c0-16.354-13.258-29.612-29.612-29.612h-9.158z" fill="#6bdddd"/><path d="m66.637 249.494h-9.158c-16.354 0-29.612-13.258-29.612-29.612v-20.989c0-16.354 13.258-29.612 29.612-29.612h9.158z" fill="#6bdddd"/><path d="m179.96 169.281c-4.43 0-8.021 3.591-8.021 8.021v64.171c0 4.43 3.591 8.021 8.021 8.021h9.358v-80.213z" fill="#a4c9ff"/><path d="m75.995 169.281h-9.358v80.213h9.358c4.43 0 8.021-3.591 8.021-8.021v-64.171c0-4.43-3.591-8.021-8.021-8.021z" fill="#a4c9ff"/><g fill="#3762cc"><path d="m198.476 251.494h-9.158c-1.104 0-2-.896-2-2v-80.213c0-1.104.896-2 2-2h9.158c17.431 0 31.612 14.181 31.612 31.612v20.989c0 17.431-14.181 31.612-31.612 31.612zm-7.158-4h7.158c15.226 0 27.612-12.387 27.612-27.612v-20.989c0-15.225-12.387-27.612-27.612-27.612h-7.158z"/><path d="m66.637 251.494h-9.158c-17.431 0-31.612-14.181-31.612-31.612v-20.989c0-17.431 14.181-31.612 31.612-31.612h9.158c1.104 0 2 .896 2 2v80.213c0 1.105-.896 2-2 2zm-9.158-80.213c-15.226 0-27.612 12.387-27.612 27.612v20.989c0 15.226 12.387 27.612 27.612 27.612h7.158v-76.213z"/><path d="m189.318 251.494h-9.358c-5.525 0-10.021-4.496-10.021-10.021v-64.171c0-5.525 4.496-10.021 10.021-10.021h9.358c1.104 0 2 .896 2 2v80.213c0 1.105-.895 2-2 2zm-9.358-80.213c-3.32 0-6.021 2.701-6.021 6.021v64.171c0 3.32 2.701 6.021 6.021 6.021h7.358v-76.213z"/><path d="m75.995 251.494h-9.358c-1.104 0-2-.896-2-2v-80.213c0-1.104.896-2 2-2h9.358c5.525 0 10.021 4.496 10.021 10.021v64.171c0 5.526-4.495 10.021-10.021 10.021zm-7.358-4h7.358c3.32 0 6.021-2.701 6.021-6.021v-64.171c0-3.32-2.701-6.021-6.021-6.021h-7.358z"/></g><path d="m222.607 162.938v18.802c3.447 4.841 5.481 10.757 5.481 17.153v10.495h.668c2.953 0 5.348-2.394 5.348-5.348v-41.101h-11.497z" fill="#e0ebfc"/><path d="m228.757 211.387h-.668c-1.104 0-2-.896-2-2v-10.495c0-5.768-1.767-11.298-5.11-15.992-.241-.339-.371-.744-.371-1.16v-18.802c0-1.104.896-2 2-2h11.498c1.104 0 2 .896 2 2v41.101c-.002 4.052-3.298 7.348-7.349 7.348zm-4.15-30.275c3.588 5.259 5.481 11.393 5.481 17.78v8.218c1.185-.516 2.016-1.698 2.016-3.071v-39.101h-7.498v16.174z" fill="#3762cc"/><path d="m27.867 198.893c0-6.395 2.034-12.312 5.481-17.153v-18.802h-11.497v41.101c0 2.953 2.394 5.348 5.348 5.348h.668z" fill="#e0ebfc"/><path d="m27.867 211.387h-.668c-4.051 0-7.348-3.296-7.348-7.348v-41.101c0-1.104.896-2 2-2h11.498c1.104 0 2 .896 2 2v18.802c0 .416-.13.821-.371 1.16-3.343 4.694-5.11 10.225-5.11 15.992v10.495c-.001 1.105-.897 2-2.001 2zm-4.016-46.449v39.101c0 1.373.831 2.556 2.016 3.071v-8.218c0-6.388 1.893-12.521 5.481-17.78v-16.174z" fill="#3762cc"/></svg>