<svg id="Layer_1" enable-background="new 0 0 256 256" height="512" viewBox="0 0 256 256" width="512" xmlns="http://www.w3.org/2000/svg"><path d="m159.543 188.541-72.395-28.695 56.844-143.412c2.717-6.854 10.476-10.208 17.33-7.491l47.574 18.857c6.854 2.717 10.208 10.476 7.491 17.33z" fill="#ffea92"/><path d="m117.261 144.258 42.906-108.248c.679-1.714 2.619-2.552 4.332-1.873l24.821 9.838c1.714.679 2.552 2.619 1.873 4.332l-42.906 108.248c-.679 1.714-2.619 2.552-4.332 1.873l-24.821-9.838c-1.714-.679-2.552-2.619-1.873-4.332z" fill="#a4c9ff"/><path d="m151.599 202.545-68.258-27.055c-1.142-.453-1.701-1.746-1.249-2.888l5.056-12.755 72.395 28.695-5.056 12.755c-.452 1.142-1.745 1.701-2.888 1.248z" fill="#4671c6"/><path d="m83.341 175.49s15.57 24.122 11.144 40.318c7.734 3.066 13.639 5.406 21.374 8.472 7.873-14.83 35.74-21.735 35.74-21.735-10.035-3.977-58.11-23.033-68.258-27.055z" fill="#4671c6"/><path d="m111.545 232.144-19.305-7.652c-.571-.226-.851-.873-.624-1.444l2.87-7.24 21.374 8.472-2.87 7.24c-.227.571-.874.85-1.445.624z" fill="#4671c6"/><path d="m103.638 229.01-9.631-3.818-6.777 17.098c-.289.729.247 1.52 1.031 1.522l15.84.04c.457.001.869-.278 1.037-.703l4.64-11.706-15.772-6.251z" fill="#ffea92"/><path d="m39.782 248h67.31c.991 0 1.487-1.198.787-1.899l-8.39-8.39c-.209-.209-.492-.326-.787-.326h-58.92c-.614 0-1.112.498-1.112 1.113v8.39c0 .614.498 1.112 1.112 1.112z" fill="#ffea92"/><g fill="#3762cc"><path d="m104.105 245.852c-.004 0-.007 0-.011 0l-15.839-.04c-1.03-.002-1.991-.513-2.569-1.367-.577-.853-.696-1.935-.316-2.893l6.776-17.096c.001 0 .001-.001.001-.002.19-.481.548-.848.979-1.059.001 0 .001 0 .002-.001.027-.014.057-.027.085-.04.026-.011.053-.022.079-.032.002-.001.002-.001.002-.001.439-.168.94-.183 1.416-.004.012.004.022.009.034.013l15.771 6.251c1.026.407 1.529 1.569 1.122 2.596l-4.64 11.707c-.475 1.199-1.609 1.968-2.892 1.968zm-14.536-4.037 13.933.035 3.681-9.285-4.245-1.683c-.013-.005-.024-.009-.037-.014l-7.771-3.081z"/><path d="m159.542 190.542c-.245 0-.494-.045-.736-.141l-72.395-28.695c-1.026-.407-1.529-1.569-1.122-2.596l56.844-143.412c1.511-3.812 4.416-6.807 8.179-8.434 3.765-1.628 7.937-1.691 11.748-.18l47.574 18.857c7.868 3.119 11.731 12.058 8.613 19.926l-56.845 143.412c-.311.784-1.063 1.263-1.86 1.263zm-69.797-31.818 68.676 27.221 56.107-141.552c2.306-5.818-.551-12.428-6.369-14.734l-47.574-18.857c-5.818-2.306-12.429.551-14.733 6.369z"/><path d="m145.187 160.667c-.665 0-1.331-.126-1.969-.378l-24.821-9.838c-2.735-1.084-4.079-4.192-2.995-6.928l42.906-108.249c1.085-2.735 4.188-4.08 6.93-2.995l24.821 9.838c1.325.525 2.366 1.536 2.932 2.844s.588 2.759.063 4.085l-42.906 108.248c-.524 1.325-1.535 2.367-2.844 2.933-.681.292-1.399.44-2.117.44zm-26.067-15.673c-.271.686.065 1.465.751 1.737l24.821 9.838c.33.132.693.126 1.023-.016.327-.142.58-.402.712-.734l42.906-108.249c.132-.333.126-.696-.016-1.024s-.402-.581-.734-.712l-24.821-9.838c-.683-.271-1.465.064-1.736.75z"/><path d="m152.414 204.702c-.518 0-1.042-.096-1.552-.297l-68.259-27.056c-2.165-.858-3.229-3.318-2.371-5.484l5.057-12.756c.407-1.027 1.566-1.529 2.597-1.123l72.395 28.695c1.026.407 1.529 1.569 1.122 2.596l-5.056 12.755c-.658 1.658-2.251 2.67-3.933 2.67zm-64.143-42.26-4.319 10.896c-.046.115.011.246.126.292l68.26 27.056c.111.045.245-.011.291-.127l4.318-10.895z"/><path d="m115.857 226.28c-.245 0-.495-.046-.736-.141l-21.373-8.472c-.947-.375-1.461-1.403-1.192-2.386 4.137-15.14-10.745-38.474-10.896-38.708-.471-.73-.416-1.682.136-2.354.551-.671 1.473-.91 2.282-.59l68.259 27.056c.808.32 1.316 1.126 1.258 1.993s-.67 1.598-1.514 1.808c-.271.067-27.097 6.869-34.456 20.731-.356.672-1.047 1.063-1.768 1.063zm-19.039-11.698 18.181 7.206c6.646-10.429 22.096-16.735 30.487-19.514l-57.507-22.794c4.21 7.773 11.143 22.951 8.839 35.102z"/><path d="m111.95 234.222c-.38 0-.767-.07-1.142-.218 0 0 0 0-.001 0l-19.305-7.652c-.772-.306-1.38-.895-1.71-1.659s-.344-1.61-.037-2.382l2.87-7.239c.407-1.026 1.566-1.529 2.597-1.122l21.373 8.472c1.026.407 1.529 1.569 1.122 2.596l-2.869 7.24c-.484 1.219-1.659 1.964-2.898 1.964zm-18.148-11.263 17.655 6.998 1.806-4.555-17.655-6.998z"/></g></svg>