<svg id="Layer_1" enable-background="new 0 0 256 256" height="512" viewBox="0 0 256 256" width="512" xmlns="http://www.w3.org/2000/svg"><path d="m219.251 226.148h-201.502c-4.28 0-7.749-3.469-7.749-7.749v-140.944c0-4.28 3.469-7.749 7.749-7.749h201.502c4.28 0 7.749 3.469 7.749 7.749v140.943c0 4.281-3.469 7.75-7.749 7.75z" fill="#e0ebfc"/><path d="m25.14 202.934v-110.014c0-4.459 3.615-8.074 8.074-8.074h170.572c4.459 0 8.074 3.615 8.074 8.074v110.014c0 4.459-3.615 8.074-8.074 8.074h-170.572c-4.459.001-8.074-3.614-8.074-8.074z" fill="#4671c6"/><path d="m219.251 228.148h-201.502c-5.376 0-9.749-4.374-9.749-9.749v-140.943c0-5.376 4.373-9.75 9.749-9.75h201.502c5.376 0 9.749 4.374 9.749 9.75v140.943c0 5.375-4.373 9.749-9.749 9.749zm-201.502-156.442c-3.17 0-5.749 2.579-5.749 5.75v140.943c0 3.17 2.579 5.749 5.749 5.749h201.502c3.17 0 5.749-2.579 5.749-5.749v-140.943c0-3.17-2.579-5.75-5.749-5.75z" fill="#3762cc"/><path d="m203.786 213.009h-170.572c-5.555 0-10.074-4.52-10.074-10.075v-110.014c0-5.555 4.52-10.074 10.074-10.074h170.572c5.555 0 10.074 4.519 10.074 10.074v110.014c0 5.555-4.519 10.075-10.074 10.075zm-170.572-126.163c-3.35 0-6.074 2.725-6.074 6.074v110.014c0 3.35 2.725 6.075 6.074 6.075h170.572c3.35 0 6.074-2.725 6.074-6.075v-110.014c0-3.349-2.725-6.074-6.074-6.074z" fill="#3762cc"/><path d="m205.151 117.303c0 1.43-1.159 2.589-2.589 2.589-.246 0-25.528 0-25.315 0-1.43 0-2.589-1.159-2.589-2.589v-6.12c0-1.43 1.159-2.589 2.589-2.589h25.315c1.43 0 2.589 1.159 2.589 2.589z" fill="#eaa97d"/><path d="m179.837 119.892-14.671 8.63h49.479l-14.671-8.63z" fill="#eaa97d"/><path d="m244.274 148.658h-108.738c-.953 0-1.726-.773-1.726-1.726v-9.781c0-4.766 3.864-8.63 8.63-8.63h94.93c4.766 0 8.63 3.864 8.63 8.63v9.781c0 .954-.773 1.726-1.726 1.726z" fill="#eaa97d"/><path d="m239.096 163.905h-98.382c-2.383 0-4.315-1.932-4.315-4.315v-10.931h107.012v10.931c0 2.383-1.932 4.315-4.315 4.315z" fill="#a4c9ff"/><path d="m206.472 40.414c-2.999-6.443-9.46-10.562-16.567-10.562-7.106 0-13.568 4.12-16.567 10.562-2.691 5.782-3.442 12.279-2.139 18.523l10.361 49.656h16.689l10.361-49.656c1.303-6.243.553-12.74-2.138-18.523z" fill="#eaa97d"/><g fill="#3762cc"><path d="m202.563 121.892h-25.315c-2.53 0-4.589-2.059-4.589-4.589v-6.12c0-2.53 2.059-4.589 4.59-4.589h25.314c2.53 0 4.589 2.059 4.589 4.589v6.12c-.001 2.53-2.059 4.589-4.589 4.589zm-25.315-11.298c-.325 0-.59.264-.59.589v6.12c0 .325.265.589.59.589h25.314c.324 0 .589-.264.589-.589v-6.12c0-.325-.265-.589-.589-.589z"/><path d="m214.645 130.521h-49.479c-.902 0-1.692-.604-1.93-1.475s.138-1.792.916-2.249l14.671-8.63c.307-.181.657-.276 1.014-.276h20.137c.356 0 .707.095 1.014.276l14.671 8.63c.778.457 1.153 1.378.916 2.249s-1.028 1.475-1.93 1.475zm-42.134-4h34.789l-7.871-4.63h-19.047z"/><path d="m244.274 150.658h-108.738c-2.055 0-3.727-1.671-3.727-3.726v-9.781c0-5.862 4.769-10.63 10.63-10.63h94.931c5.861 0 10.63 4.769 10.63 10.63v9.781c0 2.055-1.671 3.726-3.726 3.726zm-108.464-4h108.19v-9.506c0-3.656-2.975-6.63-6.63-6.63h-94.931c-3.655 0-6.63 2.975-6.63 6.63v9.506z"/><path d="m239.096 165.905h-98.382c-3.482 0-6.315-2.833-6.315-6.315v-10.932c0-1.104.896-2 2-2h107.013c1.104 0 2 .896 2 2v10.932c-.001 3.482-2.834 6.315-6.316 6.315zm-100.698-15.247v8.932c0 1.276 1.039 2.315 2.315 2.315h98.382c1.276 0 2.315-1.039 2.315-2.315v-8.932z"/><path d="m198.249 110.594h-16.688c-.947 0-1.765-.665-1.958-1.591l-10.361-49.656c-1.381-6.621-.57-13.645 2.283-19.775 3.313-7.119 10.528-11.719 18.381-11.719 7.852 0 15.066 4.6 18.38 11.718 2.854 6.131 3.664 13.154 2.283 19.775l-10.361 49.656c-.194.927-1.012 1.592-1.959 1.592zm-15.062-4h13.437l10.029-48.065c1.207-5.782.498-11.916-1.994-17.271-2.659-5.714-8.45-9.406-14.753-9.406s-12.095 3.692-14.754 9.407c-2.492 5.354-3.201 11.488-1.994 17.27z"/></g></svg>