<svg id="Layer_1" enable-background="new 0 0 256 256" height="512" viewBox="0 0 256 256" width="512" xmlns="http://www.w3.org/2000/svg"><path d="m172.633 122.471h.003l-.018-.013s-18.091-13.293-18.097-13.298c-13.769-11.531-13.443-11.086-14.533-12.67h-75.803c-3.385 4.917-30.53 24.42-32.648 25.981h.003c-4.077 3.4-6.674 8.514-6.674 14.237v81.29c0 6.824 5.532 12.355 12.355 12.355h129.729c6.824 0 12.355-5.531 12.355-12.355v-81.29c.002-5.723-2.595-10.837-6.672-14.237z" fill="#a4c9ff"/><path d="m24.867 149.554h154.44v49.421h-154.44z" fill="#4671c6"/><path d="m179.307 200.975h-154.44c-1.104 0-2-.896-2-2v-49.421c0-1.104.896-2 2-2h154.439c1.104 0 2 .896 2 2v49.421c.001 1.104-.895 2-1.999 2zm-152.44-4h150.439v-45.421h-150.439z" fill="#3762cc"/><path d="m135.034 212.421h-65.894c-9.667 0-17.503-7.836-17.503-17.503v-41.307c0-9.667 7.836-17.503 17.503-17.503h65.894c9.667 0 17.503 7.836 17.503 17.503v41.307c0 9.666-7.836 17.503-17.503 17.503z" fill="#6bdddd"/><g fill="#4671c6"><path d="m66.025 155.577c-2.407 0-4.358 1.667-4.358 5.136v27.225c0 3.467 1.979 5.16 4.358 5.16 2.437 0 4.429-1.625 4.429-5.16v-27.225c0-3.509-1.971-5.136-4.429-5.136z"/><path d="m103.151 155.577c-2.277 0-4.075 1.533-4.075 4.901v17.582l-11.811-17.87c-1.587-2.512-2.636-4.612-5.682-4.612-.974 0-1.891.274-2.725.815-1.875 1.214-2.27 2.93-2.27 5.146v26.659c0 3.314 1.869 4.901 4.169 4.901 2.275 0 4.17-1.605 4.17-4.901v-17.242l11.498 17.63c1.666 2.433 2.964 4.514 6.205 4.514 1.743 0 4.666-.707 4.666-5.443v-27.178c.002-3.351-1.797-4.902-4.145-4.902z"/><path d="m142.21 184.15-9.366-13.417 7.954-7.535c1.23-1.175 1.854-2.416 1.854-3.687 0-1.099-.406-2.042-1.209-2.806-1.536-1.455-4.117-1.399-5.423-.468-.516.367-1.108.904-1.812 1.641l-12.204 12.727v-9.893c0-3.503-1.967-5.136-4.429-5.136-2.47 0-4.358 1.627-4.358 5.136v25.693c0 2.657-.098 4.792 2.195 6.104 1.72.982 3.953.749 5.359-.741.819-.868 1.234-2.156 1.234-3.831v-6.761l4.675-4.481 7.662 11.788c1.461 2.501 2.503 4.615 5.84 4.615 1.266 0 2.3-.366 3.072-1.089 2.363-2.207.805-5.251-1.044-7.859z"/></g><path d="m153.587 96.49h-103c-4.418 0-8-3.582-8-8v-35.358c0-4.418 3.582-8 8-8h103c4.418 0 8 3.582 8 8v35.358c0 4.418-3.582 8-8 8z" fill="#f9a7a7"/><path d="m153.587 98.49h-103c-5.514 0-10-4.486-10-10v-35.358c0-5.514 4.486-10 10-10h103c5.514 0 10 4.486 10 10v35.358c0 5.514-4.486 10-10 10zm-103-51.358c-3.309 0-6 2.691-6 6v35.358c0 3.309 2.691 6 6 6h103c3.309 0 6-2.691 6-6v-35.358c0-3.309-2.691-6-6-6z" fill="#3762cc"/><path d="m135.034 214.421h-65.894c-10.754 0-19.503-8.749-19.503-19.503v-41.308c0-10.754 8.749-19.503 19.503-19.503h65.895c10.754 0 19.503 8.749 19.503 19.503v41.307c-.001 10.755-8.75 19.504-19.504 19.504zm-65.894-76.314c-8.549 0-15.503 6.955-15.503 15.503v41.307c0 8.549 6.954 15.503 15.503 15.503h65.895c8.549 0 15.503-6.955 15.503-15.503v-41.307c0-8.548-6.954-15.503-15.503-15.503z" fill="#3762cc"/><path d="m166.951 232.353h-129.728c-7.916 0-14.355-6.439-14.355-14.355v-81.29c0-6.075 2.667-11.796 7.32-15.712.052-.047.106-.092.164-.134l1.085-.791c24.539-17.84 30.019-23.142 31.102-24.715.373-.542.989-.866 1.647-.866h75.803c.658 0 1.273.324 1.647.865.712 1.035.712 1.035 7.366 6.586 1.758 1.467 3.967 3.31 6.756 5.646.378.277 2.751 2.021 18.045 13.259.049.036.096.074.141.114 4.68 3.917 7.363 9.655 7.363 15.748v81.29c0 7.916-6.44 14.355-14.356 14.355zm-134.158-108.321c-3.767 3.154-5.926 7.772-5.926 12.676v81.29c0 5.71 4.646 10.355 10.355 10.355h129.729c5.71 0 10.355-4.645 10.355-10.355v-81.29c0-4.909-2.164-9.533-5.938-12.688-1.507-1.106-17.914-13.163-18.029-13.248-.034-.025-.068-.052-.102-.08-2.809-2.353-5.031-4.207-6.798-5.681-5.489-4.58-6.72-5.606-7.469-6.522h-73.826c-3.271 3.719-13.8 12.053-31.355 24.816z" fill="#3762cc"/><path d="m188.506 28.01-29.839 54.204c-8.76 15.913-5.248 35.78 8.436 47.726 14.552 12.703 36.251 12.703 50.803 0 13.684-11.946 17.196-31.813 8.436-47.726l-29.838-54.204c-1.735-3.151-6.263-3.151-7.998 0z" fill="#4671c6"/><path d="m192.505 141.419c-9.552 0-19.101-3.323-26.717-9.972-14.287-12.472-18.019-33.583-8.873-50.197l29.839-54.205c1.172-2.128 3.322-3.398 5.751-3.398h.001c2.43 0 4.579 1.271 5.75 3.399l29.839 54.205c9.146 16.614 5.414 37.725-8.872 50.197-7.616 6.646-17.168 9.971-26.718 9.971zm-2.247-112.444-29.839 54.205c-8.245 14.979-4.881 34.011 8 45.254 13.73 11.987 34.441 11.987 48.172 0 12.881-11.244 16.245-30.276 8-45.254l-29.839-54.205c-.458-.831-1.298-1.328-2.246-1.328h-.001c-.949 0-1.789.497-2.247 1.328z" fill="#3762cc"/><path d="m186.953 130c-.229 0-.46-.026-.691-.081-18.354-4.329-21.034-20.241-21.139-20.916-.255-1.637.865-3.171 2.503-3.426 1.632-.254 3.163.86 3.423 2.49.092.546 2.279 12.637 16.59 16.012 1.612.38 2.611 1.996 2.231 3.608-.326 1.382-1.557 2.313-2.917 2.313z" fill="#a4c9ff"/></svg>