<svg id="Layer_1" enable-background="new 0 0 256 256" height="512" viewBox="0 0 256 256" width="512" xmlns="http://www.w3.org/2000/svg"><path d="m179.013 117.989-73.69 105.24 4.639 3.249 75.965-108.489z" fill="#f9cfcf"/><path d="m102.998 117.989 75.965 108.488 4.639-3.248-73.69-105.24z" fill="#f9cfcf"/><path d="m109.962 228.478c-.407 0-.809-.125-1.147-.361l-4.64-3.249c-.904-.634-1.124-1.881-.491-2.786l73.69-105.24c.375-.534.986-.853 1.639-.853h6.914c.746 0 1.43.415 1.774 1.076.344.662.292 1.46-.136 2.071l-75.965 108.489c-.305.435-.769.73-1.291.822-.116.021-.232.031-.347.031zm-1.855-5.741 1.363.955 72.614-103.704h-2.031z" fill="#3762cc"/><path d="m178.963 228.478c-.115 0-.231-.01-.347-.03-.522-.092-.987-.388-1.292-.822l-75.965-108.489c-.428-.611-.479-1.409-.136-2.071.345-.661 1.028-1.076 1.774-1.076h6.914c.652 0 1.264.318 1.639.853l73.689 105.24c.633.905.413 2.152-.491 2.785l-4.639 3.249c-.338.236-.739.361-1.146.361zm-72.123-108.49 72.614 103.703 1.362-.954-71.945-102.749z" fill="#3762cc"/><path d="m194.521 237.838-5.219 3.655c-.961.673-2.285.439-2.958-.522l-8.02-11.454c-.673-.961-.439-2.285.522-2.958l5.219-3.655c.961-.673 2.285-.439 2.958.522l8.02 11.454c.672.961.439 2.285-.522 2.958z" fill="#f9a7a7"/><path d="m94.404 237.838 5.219 3.655c.961.673 2.285.439 2.958-.522l8.02-11.454c.673-.961.439-2.285-.522-2.958l-5.219-3.655c-.961-.673-2.285-.439-2.958.522l-8.02 11.454c-.673.961-.439 2.285.522 2.958z" fill="#f9a7a7"/><circle cx="144.463" cy="172.416" fill="#6bdddd" r="8.084"/><path d="m238.62 91.086c-177.695 0-186.957-2.434-225.023 8.329l-1.277.361c-2.254.637-4.028 2.521-4.285 4.849-.375 3.404 2.28 6.284 5.608 6.284h224.976c5.181 0 9.38-4.2 9.38-9.38v-1.062c.001-5.181-4.199-9.381-9.379-9.381z" fill="#a4c9ff"/><path d="m225.34 117.989h-158.23c-1.759 0-3.186-1.426-3.186-3.186v-3.894h164.602v3.894c0 1.759-1.426 3.186-3.186 3.186z" fill="#e0ebfc"/><path d="m238.619 112.909h-224.975c-2.17 0-4.246-.928-5.694-2.545-1.448-1.616-2.142-3.788-1.902-5.958.336-3.047 2.639-5.682 5.729-6.556l1.275-.361c31.44-8.889 44.305-8.852 144.417-8.55 21.815.065 48.966.146 81.15.146 6.275 0 11.381 5.105 11.381 11.38v1.063c0 6.276-5.105 11.381-11.381 11.381zm-123.472-20.06c-63.396 0-75.05 1.151-101.007 8.49l-1.275.361c-1.541.436-2.683 1.699-2.842 3.144-.117 1.058.205 2.07.904 2.852.691.771 1.682 1.214 2.716 1.214h224.976c4.07 0 7.381-3.312 7.381-7.381v-1.063c0-4.069-3.311-7.38-7.381-7.38-32.19 0-59.344-.081-81.162-.146-16.281-.049-30.237-.091-42.31-.091z" fill="#3762cc"/><path d="m225.34 119.988h-158.23c-2.86 0-5.187-2.326-5.187-5.186v-3.894c0-1.104.896-2 2-2h164.603c1.104 0 2 .896 2 2v3.894c0 2.86-2.326 5.186-5.186 5.186zm-159.416-7.079v1.894c0 .653.532 1.186 1.187 1.186h158.229c.654 0 1.187-.532 1.187-1.186v-1.894z" fill="#3762cc"/><path d="m139.272 90.775h-58.053c-2.932 0-5.31-2.377-5.31-5.31 0-2.932 2.377-5.31 5.31-5.31h58.053c2.932 0 5.31 2.377 5.31 5.31 0 2.932-2.377 5.31-5.31 5.31z" fill="#f9a7a7"/><path d="m139.272 80.155h-58.053c-2.932 0-5.31-2.377-5.31-5.31 0-2.932 2.377-5.31 5.31-5.31h58.053c2.932 0 5.31 2.377 5.31 5.31 0 2.933-2.377 5.31-5.31 5.31z" fill="#f9cfcf"/><path d="m139.272 69.536h-58.053c-2.932 0-5.31-2.377-5.31-5.31 0-2.932 2.377-5.31 5.31-5.31h58.053c2.932 0 5.31 2.377 5.31 5.31 0 2.933-2.377 5.31-5.31 5.31z" fill="#b9befc"/><path d="m139.272 58.916h-58.053c-2.932 0-5.31-2.377-5.31-5.31 0-2.932 2.377-5.31 5.31-5.31h58.053c2.932 0 5.31 2.377 5.31 5.31 0 2.933-2.377 5.31-5.31 5.31z" fill="#6bdddd"/><path d="m173.697 17.872v70.917c0 1.186.962 2.147 2.148 2.147h31.864c1.647 0 2.983-1.442 2.983-3.221v-6.129c-1.531-55.481-36.995-63.714-36.995-63.714zm28.964 64.474h-13.553c-.824 0-1.491-.721-1.491-1.611v-41.471c0-.918 1.001-1.416 1.645-.817 2.748 2.56 4.861 5.583 6.246 7.876 5.352 8.855 8.619 21.001 9.144 33.772.049 1.225-.856 2.251-1.991 2.251z" fill="#4671c6"/><path d="m167.948 14.147c-.345-.105-.694.153-.694.513 0 1.764 0 68.695 0 67.686 0 1.186.962 2.148 2.148 2.148h4.295v-67.796c0-.472-.308-.889-.76-1.027z" fill="#e0ebfc"/><path d="m187.616 70.848v-16.444h4.029c1.548 0 2.804 1.255 2.804 2.804v10.836c0 1.548-1.255 2.804-2.804 2.804z" fill="#f9a7a7"/><path d="m199.258 38.497 2.735-1.992c.747-.544.911-1.591.367-2.338l-2.801-3.846c-.544-.747-1.591-.911-2.338-.367l-2.773 2.02c1.645 1.915 3.266 4.079 4.81 6.523z" fill="#a4c9ff"/><g fill="#3762cc"><path d="m207.708 92.937h-31.863c-2.287 0-4.148-1.86-4.148-4.147v-70.918c0-.61.278-1.187.756-1.566s1.103-.521 1.696-.382c.385.089 9.527 2.293 18.881 11.58 8.522 8.463 18.853 24.706 19.66 54.027l.001 6.184c-.001 2.879-2.236 5.222-4.983 5.222zm-32.012-72.289v68.141c0 .081.066.147.148.147h31.863c.532 0 .982-.56.982-1.222v-6.129c-1.233-44.743-25.166-57.844-32.993-60.937zm26.965 63.698h-13.554c-1.925 0-3.491-1.619-3.491-3.61v-41.472c0-1.237.718-2.35 1.828-2.832 1.087-.474 2.305-.263 3.18.553 2.98 2.775 5.231 6.047 6.595 8.304 5.537 9.162 8.887 21.494 9.43 34.725.048 1.158-.376 2.294-1.163 3.115-.755.784-1.757 1.217-2.825 1.217zm-13.045-4h12.993c.02-.027.046-.083.043-.168-.509-12.388-3.737-24.351-8.857-32.821-.949-1.57-2.368-3.681-4.179-5.692z"/><path d="m173.697 86.494h-4.296c-2.274 0-4.127-1.84-4.147-4.11 0-.009 0-.018 0-.025v-67.699c0-.801.385-1.563 1.028-2.04s1.486-.62 2.25-.386l4.988 1.523c1.302.396 2.177 1.578 2.177 2.94v67.796c0 1.106-.895 2.001-2 2.001zm-4.443-4.147c0 .081.066.147.147.147h2.296v-65.11l-2.443-.747zm3.1-64.763h.011zm-4.992-1.525c.001.001.002.001.004.002z"/><path d="m191.646 72.848h-4.029c-1.104 0-2-.896-2-2v-16.444c0-1.104.896-2 2-2h4.029c2.648 0 4.803 2.155 4.803 4.804v10.836c-.001 2.648-2.155 4.804-4.803 4.804zm-2.03-4h2.029c.442 0 .803-.36.803-.804v-10.836c0-.443-.36-.804-.803-.804h-2.029z"/><path d="m199.258 40.497c-.125 0-.251-.012-.375-.035-.544-.104-1.021-.429-1.315-.896-1.413-2.235-2.973-4.352-4.637-6.29-.363-.424-.533-.979-.469-1.534s.357-1.057.809-1.386l2.773-2.02c.794-.577 1.761-.813 2.733-.659.97.152 1.821.673 2.399 1.467l2.801 3.845c.578.794.813 1.765.659 2.734-.152.969-.673 1.82-1.467 2.398l-2.734 1.992c-.344.251-.757.384-1.177.384zm-1.915-8.158c.843 1.063 1.655 2.168 2.434 3.306l.775-.565-2.416-3.317z"/><path d="m139.272 92.774h-58.053c-4.03 0-7.31-3.279-7.31-7.31s3.279-7.31 7.31-7.31h58.054c4.03 0 7.31 3.279 7.31 7.31s-3.28 7.31-7.311 7.31zm-58.053-10.619c-1.825 0-3.31 1.484-3.31 3.31s1.484 3.31 3.31 3.31h58.054c1.825 0 3.31-1.484 3.31-3.31s-1.484-3.31-3.31-3.31z"/><path d="m139.272 82.155h-58.053c-4.03 0-7.31-3.279-7.31-7.31s3.279-7.31 7.31-7.31h58.054c4.03 0 7.31 3.279 7.31 7.31s-3.28 7.31-7.311 7.31zm-58.053-10.619c-1.825 0-3.31 1.484-3.31 3.31s1.484 3.31 3.31 3.31h58.054c1.825 0 3.31-1.484 3.31-3.31s-1.484-3.31-3.31-3.31z"/><path d="m139.272 71.536h-58.053c-4.03 0-7.31-3.279-7.31-7.311 0-4.03 3.279-7.31 7.31-7.31h58.054c4.03 0 7.31 3.279 7.31 7.31-.001 4.032-3.28 7.311-7.311 7.311zm-58.053-10.62c-1.825 0-3.31 1.484-3.31 3.31s1.484 3.311 3.31 3.311h58.054c1.825 0 3.31-1.485 3.31-3.311s-1.484-3.31-3.31-3.31z"/><path d="m139.272 60.916h-58.053c-4.03 0-7.31-3.279-7.31-7.31s3.279-7.31 7.31-7.31h58.054c4.03 0 7.31 3.279 7.31 7.31s-3.28 7.31-7.311 7.31zm-58.053-10.619c-1.825 0-3.31 1.484-3.31 3.31s1.484 3.31 3.31 3.31h58.054c1.825 0 3.31-1.484 3.31-3.31s-1.484-3.31-3.31-3.31z"/><path d="m188.089 243.875c-1.301 0-2.582-.612-3.384-1.757l-8.021-11.453c-1.303-1.864-.848-4.44 1.014-5.744l5.219-3.654c1.863-1.304 4.438-.85 5.744 1.013l8.021 11.453c.632.903.874 1.997.683 3.083-.192 1.084-.794 2.029-1.696 2.661l-5.219 3.654c-.72.503-1.544.744-2.361.744zm-2.815-19.35c-.023 0-.046.005-.063.018l-5.219 3.654c-.057.04-.07.118-.031.174l8.021 11.452c.038.056.116.07.172.03l5.219-3.654c.048-.033.065-.124.031-.172l-8.021-11.453c-.021-.031-.066-.049-.109-.049z"/><path d="m100.836 243.876c-.817 0-1.642-.241-2.36-.744l-5.22-3.655c-.902-.632-1.504-1.577-1.695-2.662s.051-2.18.683-3.082l8.021-11.453c1.306-1.861 3.883-2.314 5.744-1.013l5.219 3.654c.902.632 1.504 1.577 1.695 2.662s-.051 2.18-.683 3.082l-8.02 11.454c-.802 1.144-2.083 1.757-3.384 1.757zm2.807-19.355c-.039 0-.078.019-.102.053l-8.021 11.453c-.04.056-.026.133.03.172l5.22 3.655c.055.041.134.025.172-.03l8.02-11.454c.034-.048.018-.139-.03-.172l-5.219-3.654c-.022-.016-.046-.023-.07-.023z"/><path d="m144.463 182.5c-5.561 0-10.085-4.523-10.085-10.084s4.524-10.085 10.085-10.085 10.084 4.524 10.084 10.085-4.524 10.084-10.084 10.084zm0-16.169c-3.355 0-6.085 2.729-6.085 6.085 0 3.354 2.729 6.084 6.085 6.084 3.354 0 6.084-2.729 6.084-6.084s-2.73-6.085-6.084-6.085z"/></g></svg>