<svg id="Layer_1" enable-background="new 0 0 256 256" height="512" viewBox="0 0 256 256" width="512" xmlns="http://www.w3.org/2000/svg"><path d="m237 64.861h-8.343c.001.034.01.066.01.1v7.9h8.333c2.206 0 4 1.794 4 4v96.59c0 7.72-6.28 14-14 14h-114.234c.031.399.061.798.061 1.205v5.59c0 .407-.03.806-.061 1.205h114.234c12.131 0 22-9.869 22-22v-96.59c0-6.616-5.383-12-12-12z" fill="#f9a7a7"/><path d="m199.418 46.51h-16.025c-145.064 4-166.59 96.726-166.59 96.726h181.038c5.523 0 10-4.477 10-10v-21.938-56.99c0-4.306-3.771-7.798-8.423-7.798zm-14.039 56.433c0 2.154-1.886 3.899-4.212 3.899h-108.433c-2.4 0-3.703-2.617-2.135-4.3 25.183-27.035 71.745-38.712 108.893-40.239 3.204-.132 5.886 2.233 5.886 5.202v35.438z" fill="#6bdddd"/><path d="m7.062 158.269c-.276.902.399 1.814 1.343 1.814 4.672 0 179.733 0 176.975 0 3.101 0 5.615-2.514 5.615-5.615v-11.231h-177.262c-1.235 0-2.324.807-2.685 1.987z" fill="#e0ebfc"/><path d="m155.316 106.843h-42.994v-5.969c0-3.314 2.686-6 6-6h30.994c3.314 0 6 2.686 6 6z" fill="#f9a7a7"/><path d="m185.439 131.887h-7.019c-1.551 0-2.808-1.257-2.808-2.808v-3.741c0-1.551 1.257-2.808 2.808-2.808h7.019c1.551 0 2.808 1.257 2.808 2.808v3.741c0 1.551-1.257 2.808-2.808 2.808z" fill="#f9a7a7"/><path d="m215.681 83.478h-7.84v-28.077h7.84c2.326 0 4.212 1.886 4.212 4.212v19.654c0 2.326-1.886 4.211-4.212 4.211z" fill="#a4c9ff"/><path d="m112.827 188.656v5.59c0 8.419-6.825 15.243-15.243 15.243h-18.834c-1.105 0-2-.895-2-2v-32.077c0-1.105.895-2 2-2h18.833c8.419.001 15.244 6.826 15.244 15.244z" fill="#a4c9ff"/><path d="m53.671 88.978c5.012-4.3 10.67-8.537 17.058-12.574l-5.21-7.152c-1.423-1.953-4.159-2.383-6.113-.96l-10.056 7.325c-1.953 1.423-2.383 4.159-.961 6.113z" fill="#f9cfcf"/><g fill="#3762cc"><path d="m197.841 145.236h-181.038c-.61 0-1.187-.278-1.566-.756s-.52-1.103-.382-1.696c.225-.97 5.782-24.009 29.425-47.82 21.712-21.865 63.461-48.368 139.059-50.452l16.08-.001c5.747 0 10.423 4.396 10.423 9.799v78.927c-.001 6.617-5.384 11.999-12.001 11.999zm-178.374-4h178.374c4.411 0 8-3.589 8-8v-78.926c0-3.197-2.881-5.799-6.423-5.799h-16.025c-74.065 2.043-114.895 27.823-136.094 49.09-18.557 18.615-25.736 37.12-27.832 43.635zm161.701-32.393h-108.434c-1.949 0-3.694-1.114-4.444-2.84-.717-1.646-.392-3.494.846-4.823 25.952-27.862 73.981-39.383 110.275-40.874 2.146-.099 4.263.693 5.778 2.147 1.412 1.354 2.189 3.149 2.189 5.053v35.438c.001 3.252-2.785 5.899-6.21 5.899zm-1.423-44.544c-.057 0-.113.001-.17.003-35.5 1.459-82.386 12.629-107.512 39.604-.104.11-.208.267-.105.501.044.102.231.436.776.436h108.434c1.219 0 2.211-.853 2.211-1.899v-35.438c0-.804-.341-1.573-.96-2.167-.693-.666-1.66-1.04-2.674-1.04z"/><path d="m185.412 162.083h-177.007c-1.075 0-2.099-.516-2.737-1.38-.639-.863-.832-1.992-.519-3.019l3.985-13.045c.623-2.036 2.471-3.403 4.599-3.403h177.262c1.104 0 2 .896 2 2v11.231c0 4.177-3.38 7.579-7.549 7.615-.011.001-.022.001-.034.001zm-176.436-3.229c-.001 0-.001 0 0 0zm-1.913-.585h.01zm2.147-.186h176.17c1.993 0 3.615-1.622 3.615-3.615v-9.231h-175.262c-.357 0-.668.23-.773.572z"/><path d="m155.315 108.843h-42.993c-1.104 0-2-.896-2-2v-5.969c0-4.411 3.589-8 8-8h30.993c4.411 0 8 3.589 8 8v5.969c0 1.104-.895 2-2 2zm-40.993-4h38.993v-3.969c0-2.206-1.794-4-4-4h-30.993c-2.206 0-4 1.794-4 4z"/><path d="m185.438 133.887h-7.019c-2.651 0-4.808-2.156-4.808-4.808v-3.741c0-2.651 2.156-4.808 4.808-4.808h7.019c2.651 0 4.809 2.156 4.809 4.808v3.741c0 2.651-2.157 4.808-4.809 4.808zm-7.018-9.357c-.445 0-.808.362-.808.808v3.741c0 .445.362.808.808.808h7.019c.446 0 .809-.362.809-.808v-3.741c0-.445-.362-.808-.809-.808z"/><path d="m53.671 90.978c-.077 0-.154-.005-.231-.014-.555-.064-1.057-.357-1.385-.809l-5.28-7.25c-1.003-1.377-1.41-3.061-1.146-4.743s1.168-3.161 2.544-4.163l10.057-7.324c1.377-1.003 3.063-1.409 4.743-1.146 1.682.264 3.161 1.168 4.163 2.544l5.21 7.152c.326.447.452 1.01.349 1.553-.104.544-.429 1.02-.896 1.315-5.973 3.775-11.634 7.948-16.824 12.401-.367.315-.829.484-1.304.484zm8.308-21.527c-.499 0-.982.157-1.394.456l-10.057 7.324c-1.059.771-1.292 2.26-.521 3.318l4.016 5.513c4.345-3.612 8.986-7.032 13.842-10.196l-3.961-5.438c-.374-.513-.925-.85-1.552-.948-.124-.019-.249-.029-.373-.029z"/><path d="m215.681 85.479h-7.84c-1.104 0-2-.896-2-2v-28.078c0-1.104.896-2 2-2h7.84c3.425 0 6.212 2.787 6.212 6.212v19.653c0 3.425-2.788 6.213-6.212 6.213zm-5.84-4h5.84c1.22 0 2.212-.992 2.212-2.212v-19.654c0-1.22-.992-2.212-2.212-2.212h-5.84z"/></g><path d="m226.126 76.459h-6.233v-14.038h6.233c1.403 0 2.541 1.138 2.541 2.541v8.956c0 1.403-1.138 2.541-2.541 2.541z" fill="#e0ebfc"/><path d="m226.126 78.459h-6.233c-1.104 0-2-.896-2-2v-14.038c0-1.104.896-2 2-2h6.233c2.504 0 4.541 2.037 4.541 4.541v8.956c0 2.504-2.037 4.541-4.541 4.541zm-4.233-4h4.233c.298 0 .541-.243.541-.541v-8.956c0-.298-.243-.541-.541-.541h-4.233z" fill="#3762cc"/><path d="m76.75 195.451h-12.5c-2.209 0-4 1.791-4 4s1.791 4 4 4h12.5z" fill="#e0ebfc"/><path d="m76.75 179.451h-12.5c-2.209 0-4 1.791-4 4s1.791 4 4 4h12.5z" fill="#e0ebfc"/><path d="m97.583 211.489h-18.833c-2.206 0-4-1.794-4-4v-32.076c0-2.206 1.794-4 4-4h18.833c9.509 0 17.244 7.735 17.244 17.243v5.59c0 9.508-7.735 17.243-17.244 17.243zm-18.833-36.076v32.076h18.833c7.303 0 13.244-5.94 13.244-13.243v-5.59c0-7.303-5.941-13.243-13.244-13.243z" fill="#3762cc"/><path d="m76.75 205.451h-12.5c-3.309 0-6-2.691-6-6s2.691-6 6-6h12.5c1.104 0 2 .896 2 2v8c0 1.105-.896 2-2 2zm-12.5-8c-1.103 0-2 .897-2 2s.897 2 2 2h10.5v-4z" fill="#3762cc"/><path d="m76.75 189.451h-12.5c-3.309 0-6-2.691-6-6s2.691-6 6-6h12.5c1.104 0 2 .896 2 2v8c0 1.105-.896 2-2 2zm-12.5-8c-1.103 0-2 .897-2 2s.897 2 2 2h10.5v-4z" fill="#3762cc"/></svg>