<svg id="Layer_1" enable-background="new 0 0 256 256" height="512" viewBox="0 0 256 256" width="512" xmlns="http://www.w3.org/2000/svg"><path d="m240 207.175h-224c-4.418 0-8-3.582-8-8v-7c0-1.105.895-2 2-2h236c1.105 0 2 .895 2 2v7c0 4.418-3.582 8-8 8z" fill="#a4c9ff"/><path d="m238.175 190.175h-220.35v-131.35c0-5.523 4.477-10 10-10h200.349c5.523 0 10 4.477 10 10v131.35z" fill="#e0ebfc"/><path d="m27.619 180.218v-115.724c0-1.082.877-1.959 1.959-1.959h196.845c1.082 0 1.959.877 1.959 1.959v115.724c0 1.082-.877 1.959-1.959 1.959h-196.846c-1.081 0-1.958-.877-1.958-1.959z" fill="#6bdddd"/><circle cx="128" cy="55.354" fill="#4671c6" r="3.607"/><path d="m185.536 174.342h-115.072c-4.327 0-7.835-3.508-7.835-7.835v-87.16c0-4.327 3.508-7.835 7.835-7.835h115.071c4.327 0 7.835 3.508 7.835 7.835v87.16c0 4.328-3.507 7.835-7.834 7.835z" fill="#e0ebfc"/><path d="m62.63 79.347v10.773h130.74v-10.773c0-4.327-3.508-7.835-7.835-7.835h-115.071c-4.327.001-7.834 3.509-7.834 7.835z" fill="#4671c6"/><path d="m119.407 138.597h-43.312c-1.825 0-3.305-1.48-3.305-3.305v-31.339c0-1.825 1.48-3.305 3.305-3.305h43.312c1.825 0 3.305 1.48 3.305 3.305v31.339c.001 1.825-1.479 3.305-3.305 3.305z" fill="#b9befc"/><path d="m179.17 115.093h-46.192c-1.825 0-3.305-1.48-3.305-3.305 0-1.825 1.48-3.305 3.305-3.305h46.192c1.825 0 3.305 1.48 3.305 3.305 0 1.825-1.48 3.305-3.305 3.305z" fill="#b9befc"/><path d="m179.17 130.762h-46.192c-1.825 0-3.305-1.48-3.305-3.305 0-1.825 1.48-3.305 3.305-3.305h46.192c1.825 0 3.305 1.48 3.305 3.305 0 1.825-1.48 3.305-3.305 3.305z" fill="#b9befc"/><path d="m179.17 156.225h-103.075c-1.825 0-3.305-1.48-3.305-3.305 0-1.825 1.48-3.305 3.305-3.305h103.075c1.825 0 3.305 1.48 3.305 3.305 0 1.825-1.48 3.305-3.305 3.305z" fill="#b9befc"/><path d="m155.013 83.428h-3.836c-.541 0-.979-.438-.979-.979v-3.836c0-.541.438-.979.979-.979h3.836c.541 0 .979.438.979.979v3.836c0 .541-.438.979-.979.979z" fill="#f9a7a7"/><path d="m168.724 83.428h-3.836c-.541 0-.979-.438-.979-.979v-3.836c0-.541.438-.979.979-.979h3.836c.541 0 .979.438.979.979v3.836c0 .541-.438.979-.979.979z" fill="#f9a7a7"/><path d="m182.434 83.428h-3.836c-.541 0-.979-.438-.979-.979v-3.836c0-.541.438-.979.979-.979h3.836c.541 0 .979.438.979.979v3.836c.001.541-.438.979-.979.979z" fill="#f9a7a7"/><path d="m161.786 142.597 9.111-9.111c.524-.524.298-1.419-.412-1.631l-12.99-3.879c-.746-.223-1.441.472-1.219 1.219l3.879 12.99c.213.71 1.107.936 1.631.412z" fill="#f9a7a7"/><g fill="#3762cc"><path d="m240 209.175h-224c-5.514 0-10-4.486-10-10v-7c0-2.206 1.794-4 4-4h236c2.206 0 4 1.794 4 4v7c0 5.514-4.486 10-10 10zm-230-17v7c0 3.309 2.691 6 6 6h224c3.309 0 6-2.691 6-6v-7z"/><path d="m238.175 192.175h-220.35c-1.104 0-2-.896-2-2v-131.35c0-6.617 5.383-12 12-12h200.35c6.617 0 12 5.383 12 12v131.35c0 1.104-.896 2-2 2zm-218.35-4h216.35v-129.35c0-4.411-3.589-8-8-8h-200.35c-4.411 0-8 3.589-8 8z"/><path d="m226.423 184.177h-196.846c-2.183 0-3.958-1.776-3.958-3.959v-115.723c0-2.183 1.776-3.959 3.958-3.959h196.846c2.183 0 3.959 1.776 3.959 3.959v115.724c0 2.182-1.777 3.958-3.959 3.958zm-198.804-3.959h2zm2 0h.01zm0-.041h196.804l-.041-115.683-196.805.042z"/><path d="m185.536 176.342h-115.072c-5.423 0-9.834-4.412-9.834-9.834v-87.16c0-5.423 4.412-9.835 9.834-9.835h115.072c5.423 0 9.834 4.412 9.834 9.835v87.16c0 5.423-4.411 9.834-9.834 9.834zm-115.072-102.829c-3.217 0-5.834 2.618-5.834 5.835v87.16c0 3.217 2.617 5.834 5.834 5.834h115.072c3.217 0 5.834-2.617 5.834-5.834v-87.16c0-3.217-2.617-5.835-5.834-5.835z"/><path d="m193.37 92.12h-130.74c-1.104 0-2-.896-2-2v-10.772c0-5.423 4.412-9.835 9.834-9.835h115.072c5.423 0 9.834 4.412 9.834 9.835v10.772c0 1.105-.895 2-2 2zm-128.74-4h126.74v-8.772c0-3.217-2.617-5.835-5.834-5.835h-115.072c-3.217 0-5.834 2.618-5.834 5.835z"/></g></svg>