<svg id="Layer_1" enable-background="new 0 0 256 256" height="512" viewBox="0 0 256 256" width="512" xmlns="http://www.w3.org/2000/svg"><path d="m52.011 234.686c-2.4 0-4.345-1.945-4.345-4.345v-209.027c-3.236 0-5.666 0-8.969 0-2.4 0-4.345 1.945-4.345 4.345v217.995c0 2.4 1.945 4.345 4.345 4.345h165.292c2.4 0 4.345-1.946 4.345-4.345v-8.969h-156.323z" fill="#4671c6"/><path d="m217.303 234.686c2.4 0 4.345-1.946 4.345-4.345v-179.05l-43.29-43.291h-126.347c-2.4 0-4.345 1.946-4.345 4.345v217.995c0 2.4 1.946 4.345 4.345 4.345h165.292z" fill="#e0ebfc"/><g fill="#a4c9ff"><path d="m208.386 71h-147.458c-2.687 0-2.691-4.068 0-4.068h147.458c1.123 0 2.034.911 2.034 2.034s-.911 2.034-2.034 2.034z"/><path d="m208.386 95.407h-147.458c-1.123 0-2.034-.911-2.034-2.034s.911-2.034 2.034-2.034h147.458c1.123 0 2.034.911 2.034 2.034s-.911 2.034-2.034 2.034z"/><path d="m208.386 119.814h-147.458c-1.123 0-2.034-.911-2.034-2.034s.911-2.034 2.034-2.034h147.458c1.123 0 2.034.911 2.034 2.034s-.911 2.034-2.034 2.034z"/><path d="m208.386 144.22h-147.458c-1.123 0-2.034-.911-2.034-2.034s.911-2.034 2.034-2.034h147.458c1.123 0 2.034.911 2.034 2.034s-.911 2.034-2.034 2.034z"/><path d="m208.386 168.627h-147.458c-1.123 0-2.034-.911-2.034-2.034s.911-2.034 2.034-2.034h147.458c1.123 0 2.034.911 2.034 2.034s-.911 2.034-2.034 2.034z"/><path d="m208.386 193.034h-147.458c-1.123 0-2.034-.911-2.034-2.034s.911-2.034 2.034-2.034h147.458c1.123 0 2.034.911 2.034 2.034s-.911 2.034-2.034 2.034z"/><path d="m178.358 42.526h-117.43c-1.123 0-2.034.911-2.034 2.034s.911 2.034 2.034 2.034h117.43z"/></g><path d="m79.824 63.445c-5.534-13.668-5.258-13.632-6.398-14.277-.655-.37-1.777-.381-2.452 0-1 .565-1.307 1.706-1.827 3.041-5.201 13.205-5.556 13.195-4.463 14.235.769.734 1.902.57 2.309.03.49-.65 1.086-2.45 1.666-4.005h7.094c.862 2.269 1.288 3.876 2.166 4.315 1.076.538 2.439-.355 2.439-1.47.001-.389-.177-1.012-.534-1.869zm-10.236-3.63 2.583-7.201 2.63 7.201z" fill="#f9a7a7"/><path d="m98.937 57.709c3.643-1.689 3.209-5.878.547-7.463-1.518-.923-3.06-.75-9.462-.75-1.546 0-2.142.673-2.142 2.166 0 13.894-.773 15.282 2.142 15.282 6.715 0 9.834.429 11.605-2.339 1.159-1.813 1.513-5.559-2.69-6.896zm-7.521-5.559c3.005 0 4.605-.089 5.737.434 1.056.489 1.166 1.994.643 2.874-.782 1.439-2.306 1.203-6.38 1.203zm0 12.14v-5.094c3.721 0 7.379-.546 7.379 2.511 0 3.169-3.791 2.583-7.379 2.583z" fill="#f9a7a7"/><path d="m122.112 61.148c-1.291 3.535-4.919 3.393-6.617 2.309-3.385-2.151-3.26-11.759 2.571-11.759 3.301 0 3.683 2.744 4.683 3.69.437.415 1.447.514 2.053-.143 1.507-1.634-1.222-6.356-6.761-6.356-8.357 0-10.604 10.235-6.164 15.508 3.274 3.832 10.93 3.411 12.99-1.47 1.488-3.509-1.848-4.538-2.755-1.779z" fill="#f9a7a7"/><path d="m178.358 8v38.945c0 2.4 1.946 4.345 4.345 4.345h38.945z" fill="#a4c9ff"/><path d="m217.303 236.686h-165.292c-3.499 0-6.346-2.847-6.346-6.345v-217.996c0-3.498 2.847-6.345 6.346-6.345h126.347c.53 0 1.039.211 1.414.586l43.291 43.291c.375.375.586.884.586 1.414v179.05c-.001 3.498-2.847 6.345-6.346 6.345zm-165.292-226.686c-1.293 0-2.346 1.052-2.346 2.345v217.996c0 1.293 1.053 2.345 2.346 2.345h165.292c1.293 0 2.346-1.052 2.346-2.345v-178.222l-42.12-42.119z" fill="#3762cc"/><path d="m221.648 53.291h-38.945c-3.499 0-6.346-2.847-6.346-6.345v-38.946c0-.809.487-1.538 1.234-1.848.748-.31 1.607-.139 2.18.434l43.291 43.291c.572.572.743 1.432.434 2.179s-1.039 1.235-1.848 1.235zm-41.291-40.462v34.117c0 1.293 1.053 2.345 2.346 2.345h34.117z" fill="#3762cc"/></svg>