<svg id="Layer_1" enable-background="new 0 0 256 256" height="512" viewBox="0 0 256 256" width="512" xmlns="http://www.w3.org/2000/svg"><path d="m243.553 230.461h-96.717c-2.456 0-4.447-1.991-4.447-4.447v-157.489h105.611v157.49c0 2.455-1.991 4.446-4.447 4.446z" fill="#a4c9ff"/><path d="m243.553 232.461h-96.717c-3.555 0-6.447-2.893-6.447-6.447v-157.49c0-1.104.896-2 2-2h105.611c1.104 0 2 .896 2 2v157.489c0 3.555-2.892 6.448-6.447 6.448zm-99.163-161.937v155.489c0 1.35 1.098 2.447 2.447 2.447h96.717c1.349 0 2.447-1.098 2.447-2.447v-155.489z" fill="#3762cc"/><path d="m238.221 40.37h-43.026-43.027l-9.779 28.155h52.806 52.805z" fill="#a4c9ff"/><path d="m232.622 25.539h-74.895c-3.07 0-5.558 2.489-5.558 5.558v9.272h86.012v-9.272c-.001-3.069-2.49-5.558-5.559-5.558z" fill="#e0ebfc"/><path d="m142.389 205.642 105.611-60.975v-52.202l-105.611 60.974z" fill="#4671c6"/><path d="m248 70.524h-105.61c-.647 0-1.254-.313-1.63-.841-.375-.527-.472-1.204-.259-1.815l9.778-28.154c.279-.805 1.038-1.344 1.889-1.344h86.053c.852 0 1.61.539 1.889 1.344l9.779 28.154c.212.611.116 1.288-.259 1.815-.376.528-.983.841-1.63.841zm-102.798-4h99.986l-8.389-24.154h-83.209z" fill="#3762cc"/><path d="m238.18 42.37h-86.012c-1.104 0-2-.896-2-2v-9.272c0-4.168 3.391-7.559 7.559-7.559h74.895c4.168 0 7.559 3.391 7.559 7.559v9.272c-.001 1.105-.896 2-2.001 2zm-84.012-4h82.012v-7.272c0-1.962-1.596-3.559-3.559-3.559h-74.895c-1.962 0-3.559 1.597-3.559 3.559v7.272z" fill="#3762cc"/><path d="m184.204 173.735h-171.595v16.788c0 13.709 4.551 27.03 12.939 37.874 1.007 1.302 2.56 2.064 4.206 2.064h68.652 68.652c1.646 0 3.199-.762 4.206-2.064 8.388-10.843 12.939-24.165 12.939-37.874z" fill="#6bdddd"/><path d="m178.238 138.369c-5.405-6.987-13.741-11.078-22.575-11.078h-57.256-57.257c-8.834 0-17.17 4.09-22.575 11.078-3.868 5-5.966 11.142-5.966 17.463v17.903h171.595v-17.903c0-6.321-2.099-12.464-5.966-17.463z" fill="#6bdddd"/><path d="m167.059 232.461h-137.305c-2.249 0-4.412-1.062-5.788-2.841-8.614-11.134-13.357-25.02-13.357-39.097v-16.788c0-1.104.896-2 2-2h171.595c1.104 0 2 .896 2 2v16.788c0 14.077-4.744 27.962-13.357 39.097-1.376 1.779-3.54 2.841-5.788 2.841zm-152.45-56.726v14.788c0 13.196 4.447 26.212 12.521 36.649.624.807 1.605 1.288 2.624 1.288h137.304c1.02 0 2-.481 2.625-1.288 8.074-10.438 12.521-23.453 12.521-36.649v-14.788z" fill="#3762cc"/><path d="m184.204 175.735h-171.595c-1.104 0-2-.896-2-2v-17.903c0-6.729 2.268-13.365 6.384-18.687 5.742-7.423 14.773-11.854 24.157-11.854h114.512c9.384 0 18.415 4.431 24.157 11.854v.001c4.117 5.321 6.384 11.958 6.384 18.687v17.903c.001 1.104-.894 1.999-1.999 1.999zm-169.595-4h167.595v-15.903c0-5.848-1.97-11.614-5.548-16.239-4.99-6.45-12.838-10.302-20.993-10.302h-114.513c-8.155 0-16.003 3.852-20.993 10.302-3.578 4.625-5.548 10.392-5.548 16.239z" fill="#3762cc"/><path d="m98.47 58.351c-1.398 0-2.554-1.132-2.64-2.585l-1.171-19.89c-.093-1.584 1.115-2.921 2.64-2.921h2.342c1.524 0 2.733 1.338 2.64 2.921l-1.171 19.89c-.086 1.453-1.243 2.585-2.64 2.585z" fill="#eaa97d"/><path d="m98.47 60.351c-2.452 0-4.489-1.962-4.636-4.467l-1.171-19.891c-.078-1.324.394-2.632 1.294-3.587.883-.937 2.07-1.452 3.342-1.452h2.342c1.272 0 2.458.516 3.341 1.451.9.955 1.373 2.263 1.295 3.588l-1.171 19.891c-.148 2.505-2.184 4.467-4.636 4.467zm-1.171-25.397c-.204 0-.347.106-.432.196-.087.092-.23.294-.211.608l1.171 19.891c.023.393.306.701.643.701s.62-.309.643-.701l1.171-19.891c.019-.314-.125-.517-.212-.608-.084-.09-.228-.196-.431-.196z" fill="#3762cc"/><path d="m122.045 49.85c-8.315-1.788-16.728.819-23.638 6.486-6.911-5.667-15.324-8.275-23.638-6.486-16.779 3.609-26.8 23.745-22.382 44.976s21.602 35.516 38.381 31.907c2.738-.589 5.294-1.62 7.639-3.022 2.345 1.402 4.901 2.433 7.639 3.022 16.779 3.609 33.963-10.677 38.381-31.907 4.418-21.231-5.603-41.367-22.382-44.976z" fill="#f9a7a7"/><path d="m111.228 129.281c-1.884 0-3.759-.196-5.603-.593-2.514-.54-4.937-1.439-7.219-2.676-2.283 1.236-4.706 2.136-7.219 2.676-7.343 1.578-15.182-.022-22.075-4.509-9.307-6.057-16.117-16.606-18.685-28.946-4.635-22.27 6.096-43.505 23.919-47.338 8.172-1.76 16.658.335 24.059 5.898 7.401-5.563 15.886-7.657 24.059-5.898 17.824 3.833 28.554 25.068 23.92 47.338-2.568 12.34-9.378 22.891-18.686 28.946-5.161 3.36-10.854 5.102-16.47 5.102zm-31.209-77.989c-1.618 0-3.232.17-4.83.514-15.682 3.373-25.033 22.488-20.845 42.613 2.352 11.304 8.53 20.929 16.951 26.408 6.081 3.958 12.669 5.321 19.052 3.951 2.465-.53 4.831-1.467 7.033-2.784.632-.377 1.42-.377 2.053 0 2.201 1.317 4.567 2.254 7.033 2.784 6.385 1.368 12.971.006 19.052-3.951 8.42-5.479 14.599-15.104 16.951-26.408 4.188-20.125-5.163-39.24-20.845-42.613-7.425-1.598-15.221.561-21.949 6.078-.737.604-1.799.604-2.536 0-5.281-4.33-11.219-6.592-17.12-6.592z" fill="#3762cc"/><path d="m102.47 48.006c12.849 12.968 22.195-3.48 24.823-8.99.444-.93.058-2.039-.849-2.447-5.481-2.464-23.269-8.989-24.741 9.299-.065.799.217 1.584.767 2.138z" fill="#6bdddd"/><path d="m112.054 54.873c-3.715 0-7.408-1.83-11.004-5.46-.963-.971-1.452-2.322-1.34-3.707.483-6.004 2.67-10.197 6.499-12.461 6.908-4.083 17.027-.311 21.056 1.5.922.414 1.625 1.171 1.978 2.131.356.969.304 2.063-.143 3.001-1.915 4.015-7.221 13.494-15.126 14.834-.641.108-1.281.162-1.92.162zm1.613-19.467c-1.958 0-3.849.351-5.424 1.282-2.645 1.563-4.174 4.706-4.547 9.339-.018.217.055.43.193.569 0 .001.001.001.001.002 3.244 3.274 6.41 4.686 9.413 4.168 6.119-1.036 10.737-9.613 12.114-12.465-2.067-.912-7.098-2.895-11.75-2.895z" fill="#3762cc"/><path d="m185.622 180.117h-174.431c-1.762 0-3.191-1.429-3.191-3.191 0-1.762 1.429-3.191 3.191-3.191h174.431c1.762 0 3.191 1.429 3.191 3.191 0 1.762-1.428 3.191-3.191 3.191z" fill="#e0ebfc"/><path d="m185.622 182.116h-174.431c-2.862 0-5.191-2.328-5.191-5.19s2.329-5.19 5.191-5.19h174.431c2.862 0 5.191 2.328 5.191 5.19s-2.329 5.19-5.191 5.19zm-174.431-6.381c-.657 0-1.191.534-1.191 1.19s.534 1.19 1.191 1.19h174.431c.657 0 1.191-.534 1.191-1.19s-.534-1.19-1.191-1.19z" fill="#3762cc"/><path d="m114.183 189.689h-31.553c-2.35 0-4.254-1.905-4.254-4.254v-11.7h40.063v11.7c-.001 2.349-1.906 4.254-4.256 4.254z" fill="#4671c6"/><path d="m114.184 191.689h-31.554c-3.449 0-6.254-2.806-6.254-6.255v-11.699c0-1.104.896-2 2-2h40.063c1.104 0 2 .896 2 2v11.699c-.001 3.45-2.807 6.255-6.255 6.255zm-33.809-15.954v9.699c0 1.243 1.011 2.255 2.254 2.255h31.554c1.243 0 2.254-1.012 2.254-2.255v-9.699z" fill="#3762cc"/><path d="m238.22 222h-23.94c-1.259 0-2.28-1.021-2.28-2.28v-7.224c0-1.259 1.021-2.28 2.28-2.28h23.94c1.259 0 2.28 1.021 2.28 2.28v7.224c0 1.259-1.021 2.28-2.28 2.28z" fill="#e0ebfc"/></svg>