<svg id="Layer_1" enable-background="new 0 0 256 256" height="512" viewBox="0 0 256 256" width="512" xmlns="http://www.w3.org/2000/svg"><path d="m196.666 248h-132.413v-63.905c0-6.627 5.373-12 12-12h108.413c6.627 0 12 5.373 12 12z" fill="#4671c6"/><path d="m196.666 250h-132.413c-1.104 0-2-.896-2-2v-63.905c0-7.72 6.28-14 14-14h108.413c7.72 0 14 6.28 14 14v63.905c0 1.104-.895 2-2 2zm-130.413-4h128.413v-61.905c0-5.514-4.486-10-10-10h-108.413c-5.514 0-10 4.486-10 10z" fill="#3762cc"/><path d="m168.995 185.425c-10.853 0-10.491-.005-10.491-.005l-.004.005h-68.566c-18.114 0-32.798 14.684-32.798 32.798v29.777h144.657c0-11.104 0-18.68 0-29.777 0-18.114-14.684-32.798-32.798-32.798z" fill="#e0ebfc"/><path d="m129.473 185.425h-.016v.012z" fill="#a4c9ff"/><path d="m164.376 185.429-34.049 54.438c-.402.643-1.339.643-1.741 0l-34.032-54.437c-5.385 0-13.993-.657-23.378 5.901l3.873 25.382v31.287h112.226v-31.288l3.508-22.993c-10.096-8.98-20.564-8.288-26.407-8.29z" fill="#a4c9ff"/><path d="m129.457 242.35c-1.05 0-2.01-.531-2.566-1.422l-34.036-54.442c-.386-.617-.406-1.394-.054-2.03.353-.636 1.022-1.03 1.75-1.03h34.907.016 34.906c.727 0 1.397.395 1.75 1.03.353.637.332 1.414-.054 2.03l-34.052 54.442c-.557.889-1.516 1.422-2.567 1.422zm.823-3.546.002.003c0-.001-.001-.002-.002-.003zm-32.121-51.379 31.298 50.063 31.312-50.063h-31.188c-.081.006-.162.006-.244 0z" fill="#3762cc"/><path d="m136.323 214.811c-5.119 0-8.562 0-13.716 0l-3.493 9.902 9.473 15.154c.402.643 1.339.643 1.741 0l9.485-15.166z" fill="#6bdddd"/><path d="m129.465 188.333-10.813 18.568 3.955 7.91h13.732l3.948-7.895z" fill="#6bdddd"/><path d="m129.457 242.35c-1.05 0-2.01-.531-2.566-1.422l-9.473-15.153c-.323-.517-.393-1.151-.19-1.726l3.493-9.903c.282-.8 1.038-1.335 1.886-1.335h13.716c.848 0 1.604.535 1.886 1.335l3.489 9.892c.203.574.132 1.209-.19 1.726l-9.485 15.165c-.556.888-1.515 1.421-2.566 1.421zm-8.137-17.879 8.137 13.016 8.148-13.027-2.698-7.648h-10.885z" fill="#3762cc"/><path d="m136.338 216.811h-13.731c-.757 0-1.45-.428-1.789-1.105l-3.955-7.909c-.302-.604-.279-1.318.06-1.901l10.813-18.568c.358-.615 1.017-.993 1.729-.993s1.37.378 1.729.993l10.821 18.583c.339.583.362 1.298.06 1.901l-3.948 7.895c-.338.676-1.031 1.104-1.789 1.104zm-12.495-4h11.26l2.911-5.822-8.549-14.681-8.541 14.666z" fill="#3762cc"/><path d="m96.544 179.113-1.993 6.312 18.906 30.242 16.008-27.333-28.683-11.245c-1.733-.68-3.678.25-4.238 2.024z" fill="#e0ebfc"/><path d="m162.378 179.113 1.993 6.312-18.906 30.242-16.008-27.333 28.683-11.245c1.732-.68 3.677.25 4.238 2.024z" fill="#e0ebfc"/><path d="m113.457 217.666c-.689 0-1.33-.354-1.696-.939l-18.907-30.241c-.311-.497-.388-1.104-.211-1.663l1.994-6.313c.433-1.372 1.427-2.514 2.725-3.134 1.299-.621 2.812-.675 4.15-.148l28.683 11.243c.544.214.968.654 1.16 1.207s.132 1.161-.164 1.666l-16.008 27.333c-.354.604-.997.979-1.697.989-.01 0-.019 0-.029 0zm-16.722-32.519 16.666 26.656 13.155-22.463-26.505-10.39c-.427-.169-.789-.051-.966.034-.178.085-.497.292-.634.729zm-.191-6.035h.01z" fill="#3762cc"/><path d="m145.464 217.666c-.01 0-.019 0-.029 0-.7-.011-1.343-.386-1.697-.989l-16.008-27.333c-.296-.505-.355-1.113-.164-1.666s.615-.993 1.16-1.207l28.684-11.244c1.337-.525 2.85-.472 4.149.148s2.292 1.763 2.726 3.135l1.993 6.313c.176.559.099 1.166-.211 1.663l-18.907 30.241c-.366.585-1.007.939-1.696.939zm-13.099-28.325 13.155 22.463 16.666-26.656-1.715-5.433c-.138-.438-.457-.645-.635-.729-.178-.086-.539-.201-.965-.035z" fill="#3762cc"/><path d="m165.954 240.948c-.306-.049-.602-.15-.883-.28l-6.599-3.056c-.693-.321-1.137-1.016-1.137-1.78v-17.575c0-.542.439-.981.981-.981h16.431c.542 0 .981.439.981.981v17.575c0 .764-.444 1.459-1.137 1.78l-6.616 3.064c-.629.291-1.314.384-2.021.272z" fill="#f9cfcf"/><path d="m174.747 217.276h-16.431c-.542 0-.981.439-.981.981v10.878h18.392v-10.878c.001-.542-.439-.981-.98-.981z" fill="#e0ebfc"/><path d="m167.974 240.676 6.616-3.064c.693-.321 1.137-1.016 1.137-1.78v-17.575c0-.542-.439-.981-.981-.981h-8.215v23.715c.502 0 .988-.104 1.443-.315z" fill="#f9a7a7"/><path d="m201.793 250h-144.657c-1.104 0-2-.896-2-2v-29.777c0-19.188 15.61-34.798 34.798-34.798h4.616c.689 0 1.331.355 1.696.939l33.211 53.122 33.226-53.122c.366-.584 1.006-.939 1.696-.939h4.616c19.188 0 34.798 15.61 34.798 34.798v29.777c0 1.104-.895 2-2 2zm-142.657-4h140.657v-27.777c0-16.982-13.816-30.798-30.798-30.798h-3.508l-33.464 53.503c-.556.89-1.515 1.421-2.564 1.422h-.001c-1.05 0-2.009-.531-2.566-1.422l-33.449-53.503h-3.507c-16.982 0-30.798 13.815-30.798 30.798v27.777z" fill="#3762cc"/><path d="m100.781 177.088 28.679 11.243 28.679-11.243c.162-.063.327-.099.491-.135v-5.202c-8.714 4.536-18.63 7.112-29.158 7.112-10.541 0-20.468-2.583-29.19-7.129v5.217c.168.036.335.073.499.137z" fill="#f9cfcf"/><path d="m129.461 190.332c-.248 0-.496-.046-.73-.138l-28.674-11.242c-.065-.021-.131-.032-.197-.046-.92-.199-1.577-1.014-1.577-1.955v-5.217c0-.699.365-1.348.963-1.71.598-.364 1.342-.387 1.961-.063 8.664 4.516 18.438 6.902 28.266 6.902 9.816 0 19.58-2.381 28.235-6.887.621-.321 1.363-.299 1.961.064.598.362.962 1.011.962 1.71v5.202c0 .938-.653 1.751-1.57 1.953-.071.016-.139.026-.205.049l-28.665 11.239c-.234.093-.483.139-.73.139zm-27.178-14.804 27.178 10.655 27.17-10.652v-.578c-8.47 3.874-17.792 5.91-27.158 5.91-9.377 0-18.71-2.041-27.19-5.925z" fill="#3762cc"/><path d="m189.287 248v-61.588c0-1.701-1.379-3.079-3.079-3.079h-11.291c-1.701 0-3.079 1.379-3.079 3.079v61.588z" fill="#4671c6"/><path d="m189.287 250h-17.45c-1.104 0-2-.896-2-2v-61.588c0-2.801 2.279-5.079 5.08-5.079h11.291c2.801 0 5.079 2.278 5.079 5.079v61.588c0 1.104-.896 2-2 2zm-15.45-4h13.45v-59.588c0-.595-.484-1.079-1.079-1.079h-11.291c-.595 0-1.08.484-1.08 1.079z" fill="#3762cc"/><path d="m87.072 248v-61.588c0-1.701-1.379-3.079-3.079-3.079h-11.291c-1.701 0-3.079 1.379-3.079 3.079v61.588z" fill="#4671c6"/><path d="m87.072 250h-17.45c-1.104 0-2-.896-2-2v-61.588c0-2.801 2.278-5.079 5.079-5.079h11.291c2.801 0 5.08 2.278 5.08 5.079v61.588c0 1.104-.895 2-2 2zm-15.449-4h13.45v-59.588c0-.595-.484-1.079-1.08-1.079h-11.291c-.595 0-1.079.484-1.079 1.079z" fill="#3762cc"/><path d="m192.323 92.906-10.51-7.567c-7.18-5.169-12.06-12.655-14.07-20.938-9.072 7.64-21.981 12.491-34.184 15.124l.001.001c-1.281.244-9.552 2.17-19.249 2.243l.005-.012c-15.079.614-32.629-2.081-45.97-9.188-.001 0-.002-.001-.002-.001-1.113 4.64-1.72 9.476-1.72 14.454v5.885c-.133-.003-.263-.02-.397-.02-10.59 0-19.175 8.507-19.175 19.002 0 11.222 9.797 20.098 21.232 18.889 6.486 27.554 31.41 48.086 61.19 48.086s54.704-20.532 61.19-48.086c.676.072 1.362.113 2.057.113 10.59 0 19.175-8.507 19.175-19.002-.002-10.706-8.915-19.245-19.573-18.983z" fill="#f9cfcf"/><path d="m171.941 29.002c-11.175-11.492-23.359-17.458-35.628-19.725l.001-.001c-6.386-1.114-13.065-1.565-18.819-1.481-8.62-.393-20.194 2.429-26.839 4.839l.003.001c-14.939 5.302-27.453 14.143-35.648 20.991l-.001-.001s-.657.551-1.331 1.126v-.001c-.002.002-8.183 7.469-8.184 7.469v.001c-1.375 1.282-1.689 3.048-1.129 4.536 9.885 26.286 41.788 36.146 69.947 35l-.005.012c7.911-.017 14.136-1.269 19.249-2.243l-.001-.001c20.659-4.455 42.816-15.488 44.533-32.594.664-6.586-1.534-13.183-6.148-17.928z" fill="#4671c6"/><g fill="#3762cc"><path d="m129.485 149.332c-4.271 0-8.24-1.533-10.89-4.205-1.991-2.007-3.088-4.533-3.088-7.114 0-1.104.896-2 2-2s2 .896 2 2c0 1.54.667 3.026 1.928 4.297 1.905 1.921 4.839 3.022 8.05 3.022 3.186 0 6.105-1.102 8.01-3.021 1.261-1.271 1.928-2.758 1.928-4.298 0-1.104.896-2 2-2s2 .896 2 2c0 2.581-1.097 5.107-3.088 7.115-2.651 2.671-6.606 4.204-10.85 4.204z"/><path d="m98.382 127.1c-4.184 0-7.588-3.403-7.588-7.586v-12.645c0-4.183 3.404-7.587 7.588-7.587 4.183 0 7.586 3.404 7.586 7.587v12.645c.001 4.183-3.403 7.586-7.586 7.586z"/><path d="m160.549 127.1c-4.184 0-7.588-3.403-7.588-7.586v-12.645c0-4.183 3.404-7.587 7.588-7.587 4.183 0 7.586 3.404 7.586 7.587v12.645c0 4.183-3.404 7.586-7.586 7.586z"/></g><path d="m191.142 39.909c-4.827-6.292-11.736-3.357-14.146-2.627 2.277 6.697 1.49 14.888-3.606 21.223-1.569 2.104-3.484 4.063-5.65 5.888 2.009 8.286 6.89 15.776 14.073 20.947l10.51 7.567c3.5-.083 6.731.758 9.566 2.29 1.42-10.425 6.487-32.823-10.747-55.288z" fill="#4671c6"/><path d="m201.888 97.196c-.327 0-.654-.08-.951-.24-2.649-1.434-5.525-2.107-8.567-2.051-.431.031-.862-.122-1.216-.376l-10.51-7.566c-7.415-5.339-12.688-13.187-14.848-22.099-.179-.737.075-1.513.655-2.001 2.132-1.797 3.928-3.666 5.335-5.555 4.313-5.362 5.566-12.768 3.316-19.384-.174-.513-.133-1.075.115-1.558.248-.482.68-.843 1.199-1 .179-.054.383-.121.612-.196 2.842-.929 10.393-3.397 15.7 3.52 16.432 21.42 13.234 42.746 11.516 54.203-.139.924-.268 1.783-.375 2.573-.088.65-.491 1.216-1.076 1.513-.284.145-.595.217-.905.217zm-8.928-6.295c2.545.018 5 .476 7.333 1.366 1.631-10.877 4.644-31.09-10.739-51.142-3.103-4.045-7.278-3.356-10.089-2.529 1.839 7.376.181 15.321-4.518 21.161-1.332 1.789-3.007 3.592-4.959 5.332 2.099 7.501 6.679 14.081 12.992 18.627z" fill="#3762cc"/><path d="m110.135 83.841c-25.808 0-57.483-9.375-67.639-36.38-.889-2.364-.262-4.933 1.637-6.703l.047.051c.62-.661 1.803-1.74 4.059-3.8 4.138-3.776 4.138-3.776 4.191-3.819.631-.541 1.295-1.097 1.295-1.097 8.024-6.705 20.803-15.835 36.16-21.307.029-.012.058-.022.087-.033 7.314-2.652 19.049-5.338 27.551-4.96 6.25-.081 13.042.45 19.132 1.512.037.007.073.015.109.022 13.685 2.549 26.002 9.372 36.609 20.28 4.993 5.134 7.438 12.249 6.707 19.522-1.846 18.396-25.025 29.806-46.102 34.35l-.663.127c-4.999.956-11.22 2.145-19.003 2.162-.046.007-.099-.002-.148-.005-1.322.051-2.669.078-4.029.078zm-63.3-40.187.026.027c-.701.654-.933 1.541-.621 2.371 9.972 26.516 42.867 34.724 67.994 33.705.102-.003.202-.001.299.01 7.298-.039 13.238-1.173 18.021-2.087l.631-.12c18.75-4.044 41.282-14.554 42.916-30.831.612-6.095-1.427-12.048-5.594-16.333-10.041-10.326-21.667-16.771-34.557-19.152-.023-.004-.045-.009-.067-.014-5.848-1.015-12.37-1.532-18.358-1.437-.04-.001-.08 0-.12-.002-7.93-.361-18.99 2.169-25.966 4.685-.037.016-.073.029-.111.043-14.848 5.27-27.246 14.134-35.032 20.641-.01.009-.021.018-.031.025-.106.088-.674.565-1.261 1.067-.276.252-3.298 3.01-5.584 5.095-1.317 1.202-2.083 1.9-2.585 2.307z" fill="#3762cc"/><path d="m66.05 71.279c-4.154-2.403-7.952-5.245-11.264-8.541-3.14 12.932-1.366 21.363.315 33.692 3.139-2.222 6.972-3.544 11.124-3.544.134 0 .264.017.397.021 0-6.876-.234-12.231 1.713-20.342-.787-.421-1.545-.851-2.285-1.286z" fill="#4671c6"/><path d="m55.101 98.43c-.27 0-.541-.055-.797-.165-.641-.279-1.09-.872-1.185-1.564-.175-1.281-.351-2.52-.521-3.726-1.485-10.477-2.659-18.751.245-30.708.17-.702.706-1.258 1.401-1.453.694-.197 1.441-.003 1.954.508 3.098 3.083 6.75 5.852 10.854 8.227.004.003.008.005.012.008.717.422 1.45.838 2.212 1.244.804.429 1.216 1.346 1.004 2.231-1.699 7.077-1.682 12.081-1.662 17.875l.004 2c0 .538-.217 1.054-.602 1.43s-.918.555-1.442.57c-.095-.003-.188-.009-.282-.016-.008 0-.017 0-.026 0-3.647 0-7.085 1.099-10.015 3.172-.342.243-.747.367-1.154.367zm.899-31.836c-1.766 9.428-.769 16.46.558 25.819.035.247.07.496.105.746 2.48-1.255 5.171-2.005 7.955-2.214v-.025c-.02-5.645-.036-10.571 1.431-17.331-.34-.192-.676-.387-1.008-.582-3.295-1.908-6.324-4.058-9.041-6.413z" fill="#3762cc"/><path d="m129.473 180.863c-29.725 0-55.278-19.646-62.728-47.984-5.406.124-10.711-1.806-14.744-5.434-4.417-3.975-6.951-9.646-6.951-15.558 0-11.046 8.642-20.128 19.572-20.942v-3.924c0-4.991.597-10.012 1.775-14.921.196-.817.882-1.425 1.717-1.521.403-.048.799.032 1.143.209.009.005.018.01.027.014 11.777 6.274 28.586 9.617 44.948 8.955.099-.002.194 0 .289.009 8.468-.09 15.685-1.59 18.071-2.085l.591-.121c13.705-2.958 25.537-8.178 33.27-14.689.529-.445 1.251-.589 1.911-.37.658.215 1.158.756 1.321 1.429 1.937 7.981 6.659 15.009 13.295 19.787l9.979 7.184c5.491.039 10.656 2.161 14.61 6.02 4.078 3.979 6.324 9.295 6.324 14.968 0 11.58-9.499 21.002-21.175 21.002-.173 0-.347-.002-.521-.007-7.449 28.335-33.002 47.979-62.724 47.979zm-61.189-52.086c.918 0 1.731.631 1.945 1.542 6.451 27.404 30.813 46.544 59.243 46.544s52.792-19.14 59.243-46.544c.231-.98 1.154-1.624 2.156-1.531.646.068 1.251.102 1.848.102 9.47 0 17.175-7.627 17.175-17.002 0-4.586-1.817-8.886-5.117-12.105-3.341-3.26-7.754-4.968-12.405-4.877-.459.032-.864-.122-1.218-.376l-10.51-7.566c-6.582-4.738-11.476-11.456-14.003-19.14-10.242 7.632-23.239 11.624-32.661 13.656l-.562.115c-6.713 1.397-13.137 2.129-19.094 2.174-.052-.001-.106-.002-.159-.005-15.933.614-32.283-2.447-44.418-8.248-.747 3.807-1.124 7.666-1.124 11.506v5.885c0 .538-.217 1.054-.602 1.43s-.918.555-1.442.57c-.095-.003-.188-.009-.282-.016-.003 0-.007 0-.01 0-9.538 0-17.236 7.625-17.236 16.997 0 4.78 2.051 9.367 5.626 12.584 3.623 3.261 8.509 4.841 13.396 4.316.071-.007.141-.011.211-.011zm.059-56.21h.01z" fill="#3762cc"/></svg>