<svg id="Layer_1" enable-background="new 0 0 256 256" height="512" viewBox="0 0 256 256" width="512" xmlns="http://www.w3.org/2000/svg"><path d="m243 132.483h-156c-2.761 0-5-2.239-5-5v-110c0-2.761 2.239-5 5-5h156c2.761 0 5 2.239 5 5v110c0 2.761-2.239 5-5 5z" fill="#a4c9ff"/><path d="m92 120.483v-96c0-1.105.895-2 2-2h142c1.105 0 2 .895 2 2v96c0 1.105-.895 2-2 2h-142c-1.105 0-2-.896-2-2z" fill="#e0ebfc"/><path d="m216.314 44.111c.331.777.185 1.71-.444 2.349l-9.75 9.91c-.831.845-2.191.856-3.036.025s-.856-2.19-.025-3.036l9.75-9.91c.831-.845 2.191-.856 3.036-.025.206.203.362.437.469.687z" fill="#a4c9ff"/><circle cx="219.746" cy="39.47" fill="#4671c6" r="8.855"/><path d="m178.589 65.763-15.843-1.13c-1.183-.084-2.073-1.111-1.989-2.294s1.111-2.073 2.294-1.989l15.843 1.13c1.183.084 2.073 1.111 1.989 2.294s-1.111 2.073-2.294 1.989z" fill="#a4c9ff"/><path d="m201.659 94.643c-.842-.06-1.605-.617-1.887-1.469l-4.358-13.201c-.372-1.125.24-2.34 1.366-2.711s2.34.239 2.712 1.366l4.358 13.201c.372 1.126-.24 2.34-1.366 2.711-.274.09-.554.122-.825.103z" fill="#a4c9ff"/><circle cx="193.947" cy="64.719" fill="#f9a7a7" r="17.44"/><circle cx="154.926" cy="60.344" fill="#4671c6" r="8.855"/><circle cx="205.353" cy="101.124" fill="#4671c6" r="8.855"/><path d="m180.207 99.599h-30.811c-2.209 0-4-1.791-4-4 0-2.209 1.791-4 4-4h30.811c2.209 0 4 1.791 4 4 0 2.209-1.791 4-4 4z" fill="#b9befc"/><path d="m180.207 39.938h-54.561c-2.209 0-4-1.791-4-4 0-2.209 1.791-4 4-4h54.561c2.209 0 4 1.791 4 4 0 2.209-1.791 4-4 4z" fill="#b9befc"/><path d="m243 134.482h-156c-3.859 0-7-3.141-7-7v-110c0-3.859 3.141-7 7-7h156c3.859 0 7 3.141 7 7v110c0 3.86-3.141 7-7 7zm-156-120c-1.654 0-3 1.346-3 3v110c0 1.654 1.346 3 3 3h156c1.654 0 3-1.346 3-3v-110c0-1.654-1.346-3-3-3z" fill="#3762cc"/><path d="m236 124.482h-142c-2.206 0-4-1.794-4-4v-96c0-2.206 1.794-4 4-4h142c2.206 0 4 1.794 4 4v96c0 2.206-1.794 4-4 4zm-142-100v96.003l142-.003v-96z" fill="#3762cc"/><path d="m130.878 100.349-8.687-6.254c-6.853-4.934-11.177-12.42-12.233-20.527l-.271-1.193c-9.9 10.62-26.635 17.914-39.802 19.59 0 0-4.655.62-7.03.802-15.409 1.183-26.765-1.864-35.048-6.374-.531 2.952-.824 5.987-.824 9.09v4.864c-.11-.002-.218-.016-.328-.016-8.753 0-15.848 7.031-15.848 15.706 0 8.674 7.096 15.706 15.848 15.706.575 0 1.141-.034 1.7-.093 5.361 22.774 25.961 39.745 50.575 39.745s45.215-16.97 50.575-39.745c.559.059 1.125.093 1.7.093 8.753 0 15.848-7.032 15.848-15.706.002-8.85-7.365-15.898-16.175-15.688z" fill="#f9cfcf"/><path d="m78.942 147.334c-3.622 0-6.992-1.304-9.248-3.578-1.711-1.725-2.653-3.899-2.653-6.125 0-1.104.896-2 2-2s2 .896 2 2c0 1.18.517 2.323 1.493 3.309 1.487 1.499 3.883 2.395 6.408 2.395 2.54 0 4.863-.873 6.373-2.395.977-.984 1.492-2.128 1.492-3.309 0-1.104.896-2 2-2s2 .896 2 2c0 2.226-.942 4.401-2.652 6.125-2.256 2.274-5.613 3.578-9.213 3.578z" fill="#3762cc"/><path d="m53.234 128.611c-3.458 0-6.271-2.813-6.271-6.27v-10.451c0-3.458 2.813-6.271 6.271-6.271 3.457 0 6.27 2.813 6.27 6.271v10.451c0 3.457-2.813 6.27-6.27 6.27z" fill="#3762cc"/><path d="m104.616 128.611c-3.458 0-6.271-2.813-6.271-6.27v-10.451c0-3.458 2.813-6.271 6.271-6.271 3.457 0 6.27 2.813 6.27 6.271v10.451c.001 3.457-2.813 6.27-6.27 6.27z" fill="#3762cc"/><path d="m111.589 176.818h-8.615c-.019-.001-.037-.004-.056-.004l-.003.004h-56.672c-14.972 0-27.109 12.137-27.109 27.109v24.612h119.563v-7.152-3.861-13.599c.001-14.972-12.136-27.109-27.108-27.109z" fill="#e0ebfc"/><path d="m78.909 224.216c-.988 0-1.892-.501-2.416-1.341l-28.131-44.996c-.385-.617-.405-1.394-.053-2.03.353-.636 1.021-1.03 1.749-1.03h28.851.014 28.851c.728 0 1.397.395 1.749 1.03.353.637.332 1.414-.054 2.03l-28.145 44.998c-.522.838-1.426 1.339-2.415 1.339zm.978-3.459s0 .001 0 0zm-1.953-.001c-.001.001-.001.001-.002.002zm-24.266-41.938 25.242 40.376 25.253-40.376h-25.142c-.072.004-.146.004-.218 0z" fill="#3762cc"/><path d="m84.584 201.107c-4.231 0-7.077 0-11.336 0l-2.887 8.185 7.83 12.525c.332.531 1.106.532 1.439 0l7.839-12.535z" fill="#6bdddd"/><path d="m78.916 179.222-8.937 15.347 3.269 6.538h11.35l3.263-6.525z" fill="#6bdddd"/><path d="m78.91 224.215c-.989 0-1.892-.5-2.416-1.339l-7.83-12.523c-.322-.517-.393-1.151-.189-1.726l2.888-8.186c.282-.8 1.038-1.335 1.886-1.335h11.336c.848 0 1.604.535 1.886 1.335l2.885 8.176c.203.574.133 1.209-.19 1.726l-7.84 12.534c-.523.837-1.427 1.338-2.416 1.338zm-.976-3.459c-.001.001-.001.001-.002.002zm-5.367-11.707 6.343 10.146 6.352-10.155-2.093-5.933h-8.506z" fill="#3762cc"/><path d="m84.598 203.107h-11.35c-.758 0-1.45-.428-1.789-1.105l-3.269-6.538c-.302-.604-.278-1.318.061-1.901l8.937-15.348c.358-.614 1.017-.993 1.729-.993s1.37.378 1.729.993l8.944 15.359c.339.583.362 1.298.061 1.901l-3.263 6.526c-.34.679-1.033 1.106-1.79 1.106zm-10.114-4h8.877l2.227-4.454-6.672-11.457-6.664 11.445z" fill="#3762cc"/><path d="m51.706 171.601-1.648 5.217 15.627 24.996 13.231-22.592-23.708-9.294c-1.431-.561-3.039.207-3.502 1.673z" fill="#e0ebfc"/><path d="m106.12 171.601 1.648 5.217-15.628 24.996-13.231-22.592 23.708-9.294c1.432-.561 3.039.207 3.503 1.673z" fill="#e0ebfc"/><g fill="#3762cc"><path d="m65.686 203.814c-.688 0-1.33-.354-1.696-.939l-15.627-24.996c-.31-.497-.388-1.104-.211-1.663l1.647-5.217c.387-1.225 1.273-2.245 2.432-2.799 1.16-.554 2.511-.602 3.707-.135l23.708 9.294c.545.214.969.654 1.16 1.207s.132 1.161-.164 1.666l-13.23 22.593c-.354.604-.997.979-1.696.989-.011 0-.021 0-.03 0zm-13.442-27.273 13.386 21.411 10.378-17.723-21.529-8.439c-.233-.09-.427-.026-.522.019-.096.046-.269.158-.343.395v.001zm-.538-4.939h.01z"/><path d="m92.141 203.814c-.01 0-.02 0-.029 0-.699-.011-1.343-.386-1.696-.989l-13.231-22.593c-.296-.505-.355-1.113-.164-1.666s.615-.993 1.16-1.207l23.708-9.294c1.195-.467 2.548-.419 3.707.135 1.158.554 2.045 1.574 2.432 2.799l1.648 5.217c.177.559.099 1.166-.211 1.663l-15.627 24.996c-.367.585-1.009.939-1.697.939zm-10.324-23.585 10.379 17.723 13.386-21.411-1.37-4.337s0 0 0-.001c-.074-.236-.247-.349-.343-.395s-.293-.109-.522-.019z"/><path d="m78.909 230.538c-.367 0-.733-.101-1.057-.302l-27.12-16.877c-.468-.291-.794-.762-.903-1.301-.109-.54.009-1.101.326-1.551l2.813-3.986-6.567-1.926c-.536-.157-.982-.531-1.23-1.032l-11.655-23.555c-.241-.488-.273-1.056-.087-1.568.186-.513.573-.928 1.072-1.147 3.717-1.643 7.668-2.475 11.743-2.475h3.815c.689 0 1.33.355 1.696.939l27.872 44.584c.26.098.498.25.699.448.382.377.596.891.595 1.427l-.012 6.325c-.001.726-.396 1.394-1.03 1.745-.302.169-.636.252-.97.252zm-24.264-19.455 22.271 13.859.003-1.536c-.159-.157-.302-.334-.425-.529l-27.545-44.059h-2.706c-2.811 0-5.553.459-8.178 1.367l10.302 20.818 8.409 2.467c.62.182 1.113.65 1.326 1.261.212.609.117 1.284-.255 1.812zm25.243 9.676h.01zm-.993-.546s-.001 0-.002 0z"/><path d="m78.921 230.538c-.334 0-.668-.083-.97-.251-.635-.352-1.029-1.02-1.03-1.745l-.012-6.325c-.001-.536.213-1.05.595-1.427.201-.198.439-.351.699-.448l27.872-44.583c.365-.583 1.004-.938 1.692-.939l3.819-.001c4.074 0 8.025.832 11.744 2.474.499.221.887.636 1.072 1.148.187.513.154 1.08-.087 1.568l-11.656 23.555c-.248.501-.694.875-1.23 1.032l-6.567 1.926 2.813 3.986c.317.45.436 1.011.326 1.551-.109.539-.436 1.01-.903 1.301l-27.12 16.877c-.324.201-.69.301-1.057.301zm1.99-7.132.003 1.536 22.271-13.859-3.203-4.54c-.372-.527-.467-1.202-.255-1.812.213-.61.706-1.079 1.326-1.261l8.409-2.467 10.303-20.818c-2.626-.908-5.368-1.367-8.179-1.367h-2.707l-27.543 44.056c-.121.196-.265.375-.425.532zm-1.975-3.193h.002c-.001 0-.002 0-.002 0z"/><path d="m130.427 230.538h-23.829c-1.104 0-2-.896-2-2v-9.872c0-1.104.896-2 2-2h23.829c1.104 0 2 .896 2 2v9.872c0 1.105-.896 2-2 2zm-21.829-4h19.829v-5.872h-19.829z"/></g><path d="m16.655 77.958c-1.002 5.295-1.176 10.761-.435 16.203l1.241 9.102c2.595-1.837 5.763-2.929 9.195-2.929.111 0 .218.014.328.017v-4.865c0-3.103.297-6.136.829-9.087-4.624-2.519-8.288-5.489-11.158-8.441z" fill="#4671c6"/><path d="m17.461 105.262c-.271 0-.541-.055-.797-.165-.641-.279-1.09-.872-1.185-1.564l-1.241-9.102c-.76-5.576-.608-11.243.451-16.845.139-.733.674-1.329 1.389-1.544.714-.218 1.489-.014 2.01.521 3.103 3.19 6.695 5.908 10.681 8.078.757.412 1.165 1.263 1.013 2.111-.529 2.936-.797 5.874-.797 8.732v4.865c0 .54-.218 1.057-.604 1.433-.387.377-.913.591-1.448.566-.081-.002-.162-.007-.242-.013-.006 0-.012 0-.017 0-2.92 0-5.693.886-8.057 2.559-.344.243-.749.368-1.156.368zm.602-23.218c-.44 3.957-.395 7.927.139 11.847l.838 6.142c1.871-.883 3.876-1.431 5.945-1.623v-2.925c0-2.637.21-5.333.625-8.032-2.701-1.573-5.225-3.383-7.547-5.409z" fill="#3762cc"/><path d="m138.697 230.539h-119.562c-1.104 0-2-.896-2-2v-24.612c0-16.051 13.058-29.108 29.108-29.108h3.815c.689 0 1.33.355 1.696.939l13.875 22.194 11.558-19.735c.358-.612 1.016-.989 1.726-.989s1.367.377 1.726.989l11.558 19.735 13.875-22.194c.366-.584 1.007-.939 1.696-.939h3.821c16.051 0 29.108 13.058 29.108 29.108v24.612c0 1.105-.895 2-2 2zm-117.562-4h115.563v-22.612c0-13.845-11.264-25.108-25.108-25.108h-2.713l-15.039 24.057c-.372.594-1.025.948-1.726.939-.699-.011-1.343-.386-1.696-.989l-11.502-19.64-11.502 19.64c-.354.604-.997.979-1.696.989-.692.01-1.354-.346-1.726-.939l-15.04-24.058h-2.707c-13.845 0-25.108 11.264-25.108 25.108z" fill="#3762cc"/><path d="m55.208 169.928 23.704 9.292 23.704-9.292c.134-.052.27-.082.406-.112v-4.3c-7.203 3.749-15.398 5.878-24.1 5.878-8.713 0-16.917-2.135-24.127-5.892v4.312c.139.03.277.061.413.114z" fill="#f9cfcf"/><path d="m78.913 181.221c-.248 0-.495-.046-.729-.138l-23.685-9.285c-.043-.012-.087-.02-.13-.029-.918-.2-1.573-1.014-1.573-1.954v-4.312c0-.699.365-1.348.963-1.71.598-.363 1.341-.388 1.961-.063 7.112 3.706 15.136 5.665 23.203 5.665 8.059 0 16.073-1.954 23.176-5.652.62-.322 1.365-.299 1.961.064.598.362.963 1.011.963 1.71v4.3c0 .942-.657 1.756-1.578 1.955-.043.009-.086.017-.128.029l-23.673 9.282c-.236.092-.483.138-.731.138zm-14.227-9.726 14.228 5.577 14.182-5.56c-9.235 2.49-19.181 2.482-28.41-.017zm-10.178.306h.01z" fill="#3762cc"/><path d="m129.903 56.545c-2.14-2.79-5.784-3.961-9.148-2.942l-2.653.804c-.264 6.643-3.5 12.738-8.428 18.011l.369 1.719h.005c1.18 7.887 5.451 15.14 12.144 19.958l8.687 6.254c2.858-.067 5.528.607 7.906 1.893l1.102-8.082c1.822-13.368-1.772-26.91-9.984-37.615z" fill="#4671c6"/><path d="m78.932 173.395c-24.633 0-45.823-16.22-52.111-39.651-.055.001-.11.001-.165.001-9.841 0-17.848-7.943-17.848-17.706 0-9.204 7.116-16.791 16.177-17.629v-2.925c0-3.114.288-6.292.854-9.444.114-.632.524-1.171 1.104-1.449.58-.276 1.257-.26 1.82.047 9.338 5.084 20.758 7.147 33.938 6.136 2.293-.175 6.873-.784 6.92-.79 13.98-1.78 29.85-9.581 38.604-18.972.506-.543 1.269-.762 1.984-.567.715.193 1.266.766 1.429 1.488l.271 1.193c.014.061.025.122.033.185.999 7.673 5.16 14.657 11.418 19.161l8.158 5.875c4.592.062 8.904 1.851 12.211 5.078 3.434 3.354 5.325 7.833 5.325 12.613 0 9.763-8.007 17.706-17.848 17.706-.056 0-.11 0-.166-.001-6.286 23.431-27.476 39.651-52.108 39.651zm-50.575-43.745c.918 0 1.73.631 1.945 1.542 5.295 22.493 25.292 38.202 48.629 38.202s43.333-15.709 48.627-38.202c.231-.98 1.152-1.634 2.155-1.531.533.056 1.021.083 1.493.083 7.636 0 13.848-6.148 13.848-13.706 0-3.694-1.463-7.157-4.12-9.751-2.693-2.63-6.271-4.011-10.009-3.938-.424.034-.863-.122-1.217-.376l-8.687-6.255c-6.432-4.631-10.926-11.552-12.595-19.276-10.976 10.102-26.757 16.039-38.287 17.508-.181.023-4.727.628-7.131.812-12.814.985-24.118-.81-33.641-5.33-.255 2.029-.383 4.056-.383 6.053v4.864c0 .536-.216 1.051-.599 1.427-.382.376-.908.563-1.437.573-.088-.002-.174-.007-.261-.014-.002 0-.004 0-.006 0-7.667 0-13.875 6.147-13.875 13.703 0 7.558 6.212 13.706 13.848 13.706.473 0 .96-.027 1.491-.083.073-.007.142-.011.212-.011z" fill="#3762cc"/><path d="m138.785 104.242c-.327 0-.654-.08-.951-.24-2.135-1.155-4.477-1.697-6.909-1.653-.423.034-.862-.122-1.216-.376l-8.687-6.255c-6.919-4.98-11.626-12.681-12.932-21.144-.001-.006-.002-.012-.003-.018l-.369-1.719c-.138-.64.047-1.307.494-1.785 5.008-5.359 7.663-10.986 7.892-16.726.033-.851.603-1.587 1.418-1.834l2.652-.804c4.139-1.251 8.684.209 11.314 3.638 8.478 11.052 12.26 25.304 10.379 39.104l-1.102 8.082c-.089.65-.49 1.216-1.076 1.513-.283.145-.593.217-.904.217zm-7.266-5.895c1.952.025 3.84.358 5.644.993l.743-5.45c1.737-12.749-1.758-25.917-9.59-36.127-1.622-2.116-4.427-3.018-6.98-2.245l-1.333.404c-.585 5.929-3.322 11.665-8.156 17.084l.124.576c.024.084.043.17.056.259 1.116 7.458 5.247 14.249 11.334 18.631z" fill="#3762cc"/><path d="m110.968 36.502c-6.764-6.21-13.603-10.224-20.372-12.534l.001-.002c-.014-.004-.027-.007-.04-.011-5.537-1.884-11.025-2.625-16.388-2.486-16.12-.264-27.482 5.755-27.482 5.755l.012.003c-19.327 9.013-32.889 27.398-37.105 33.665-.27.33-1.246 1.702-1.389 2.146-.326 1.016-.269 2.178.213 3.198 3.577 7.571 17.198 29.392 54.438 26.532 2.376-.182 7.03-.802 7.03-.802 20.248-2.578 48.993-18.416 48.228-39.253-.23-6.254-2.805-12.226-7.146-16.211z" fill="#4671c6"/><path d="m56.364 95.022c-33.794 0-46.534-21.116-49.755-27.932-.683-1.447-.796-3.146-.309-4.664.268-.834 1.354-2.292 1.664-2.696 4.927-7.314 18.387-25.152 37.72-34.237.022-.013.044-.025.066-.037.482-.256 11.999-6.263 28.451-5.987 5.732-.143 11.463.714 16.952 2.576.046.014.092.029.137.047 7.342 2.514 14.416 6.866 21.029 12.937 4.7 4.315 7.54 10.734 7.793 17.611.821 22.397-29.028 38.643-49.975 41.311-.181.023-4.727.628-7.131.812-2.297.175-4.513.259-6.642.259zm-46.274-31.31c-.157.546-.108 1.151.137 1.67 3.146 6.66 16.233 28.184 52.476 25.392 2.294-.176 6.873-.784 6.92-.79 19.897-2.533 47.201-17.909 46.493-37.197-.213-5.815-2.582-11.214-6.5-14.811-6.218-5.708-12.834-9.784-19.665-12.115-.012-.004-.023-.008-.035-.012-.001-.001-.002-.001-.003-.001-5.054-1.72-10.338-2.512-15.69-2.38-.336-.005-.67-.008-1-.008-14.051 0-24.167 4.814-25.459 5.46-.069.044-.143.084-.218.119-19.076 8.896-32.601 27.484-36.292 32.969-.035.053-.072.103-.112.151-.237.288-.882 1.224-1.052 1.553z" fill="#3762cc"/><path d="m192.746 212.342-19.677-43.712c-.26-.577-.394-1.202-.394-1.835v-16.375c0-.197.16-.357.357-.357h1.882c.985 0 1.784-.799 1.784-1.784v-3.583c0-.985-.799-1.784-1.784-1.784h-27.718c-.985 0-1.784.799-1.784 1.784v3.583c0 .985.799 1.784 1.784 1.784h1.882c.197 0 .357.16.357.357v16.375c0 .633-.134 1.258-.394 1.835l-19.677 43.712c-1.402 3.115-2.127 6.491-2.127 9.907v.033c0 3.456 2.801 6.257 6.257 6.257h27.561 27.561c3.456 0 6.257-2.801 6.257-6.257v-.033c0-3.416-.725-6.792-2.127-9.907z" fill="#e0ebfc"/><path d="m188.616 230.538h-55.123c-4.553 0-8.257-3.704-8.257-8.257 0-3.754.774-7.363 2.303-10.76l19.679-43.713c.144-.32.217-.662.217-1.014v-14.731h-.238c-2.087 0-3.784-1.697-3.784-3.784v-3.583c0-2.087 1.697-3.784 3.784-3.784h27.718c2.086 0 3.783 1.697 3.783 3.784v3.583c0 2.087-1.697 3.784-3.783 3.784h-.238v14.731c0 .353.073.693.218 1.014l19.677 43.712c1.527 3.396 2.303 7.005 2.303 10.729-.002 4.585-3.706 8.289-8.259 8.289zm-41.204-82.475h1.666c1.3 0 2.356 1.057 2.356 2.356v16.375c0 .919-.191 1.812-.568 2.653l-19.68 43.715c-1.294 2.877-1.95 5.935-1.95 9.086 0 2.38 1.909 4.289 4.257 4.289h55.123c2.348 0 4.257-1.909 4.257-4.257 0-3.186-.656-6.243-1.95-9.118-.001 0-.001 0-.001 0l-19.677-43.712c-.378-.841-.569-1.734-.569-2.656v-16.374c0-1.3 1.057-2.356 2.356-2.356h1.665v-3.151h-27.285z" fill="#3762cc"/><path d="m187.01 213.32-7.256-16.12h-37.397l-7.256 16.12c-1.107 2.459-1.667 5.073-1.666 7.799.001 1.551 1.265 2.807 2.816 2.807h49.61c1.552 0 2.816-1.263 2.816-2.845-.001-2.694-.562-5.305-1.667-7.761z" fill="#6bdddd"/><path d="m116.255 228.539h-4.254v-11.745c0-1.175.952-2.127 2.127-2.127 1.175 0 2.127.952 2.127 2.127z" fill="#a4c9ff"/><path d="m241.672 223.172v-55.397c0-.791-.641-1.433-1.433-1.433h-5.253c-.791 0-1.433.641-1.433 1.433v50.144c0 1.385-1.123 2.507-2.507 2.507h-58.951c-1.385 0-2.507-1.123-2.507-2.507v-50.144c0-.791-.641-1.433-1.433-1.433h-5.253c-.791 0-1.433.641-1.433 1.433v55.397c0 2.967 2.405 5.373 5.373 5.373h.328 2.418c2.716 0 67.949 0 66.712 0 2.967-.001 5.372-2.406 5.372-5.373z" fill="#a4c9ff"/><path d="m188.007 170.216h-12.989c-.512 0-.928-.415-.928-.928v-5.362c0-.512.415-.928.928-.928h12.989c.512 0 .928.415.928.928v5.362c0 .513-.416.928-.928.928z" fill="#4671c6"/><path d="m175.739 170.216v39.868c0 3.188 2.585 5.773 5.773 5.773s5.773-2.585 5.773-5.773v-39.868z" fill="#e0ebfc"/><path d="m181.286 213.376c-1.751-.117-3.073-1.653-3.073-3.408v-36.491c0-.434.352-.786.786-.786h5.025c.434 0 .786.352.786.786v36.607c.001 1.894-1.603 3.42-3.524 3.292z" fill="#f9a7a7"/><path d="m175.739 186.813h11.546v9.691h-11.546z" fill="#f9cfcf"/><path d="m181.512 217.857c-4.286 0-7.772-3.487-7.772-7.773v-39.868c0-1.104.896-2 2-2h11.546c1.104 0 2 .896 2 2v39.868c-.001 4.286-3.488 7.773-7.774 7.773zm-3.773-45.641v37.868c0 2.081 1.692 3.773 3.772 3.773 2.081 0 3.773-1.692 3.773-3.773v-37.868z" fill="#3762cc"/><path d="m187.285 198.503h-11.546c-1.104 0-2-.896-2-2v-9.69c0-1.104.896-2 2-2h11.546c1.104 0 2 .896 2 2v9.69c0 1.104-.895 2-2 2zm-9.546-4h7.546v-5.69h-7.546z" fill="#3762cc"/><path d="m188.007 172.217h-12.989c-1.614 0-2.928-1.313-2.928-2.929v-5.361c0-1.615 1.313-2.929 2.928-2.929h12.989c1.614 0 2.928 1.313 2.928 2.929v5.361c0 1.615-1.314 2.929-2.928 2.929zm-11.917-4h10.845v-3.219h-10.845z" fill="#3762cc"/><path d="m208.065 170.216h-12.989c-.512 0-.928-.415-.928-.928v-5.362c0-.512.415-.928.928-.928h12.989c.512 0 .928.415.928.928v5.362c0 .513-.415.928-.928.928z" fill="#4671c6"/><path d="m195.797 170.216v39.868c0 3.188 2.585 5.773 5.773 5.773s5.773-2.585 5.773-5.773v-39.868z" fill="#e0ebfc"/><path d="m201.344 213.376c-1.751-.117-3.073-1.653-3.073-3.408v-36.491c0-.434.352-.786.786-.786h5.025c.434 0 .786.352.786.786v36.607c.001 1.894-1.603 3.42-3.524 3.292z" fill="#ffea92"/><path d="m195.797 186.813h11.546v9.691h-11.546z" fill="#f9cfcf"/><path d="m201.57 217.857c-4.286 0-7.773-3.487-7.773-7.773v-39.868c0-1.104.896-2 2-2h11.547c1.104 0 2 .896 2 2v39.868c0 4.286-3.488 7.773-7.774 7.773zm-3.773-45.641v37.868c0 2.081 1.692 3.773 3.773 3.773s3.773-1.692 3.773-3.773v-37.868z" fill="#3762cc"/><path d="m207.344 198.503h-11.547c-1.104 0-2-.896-2-2v-9.69c0-1.104.896-2 2-2h11.547c1.104 0 2 .896 2 2v9.69c0 1.104-.896 2-2 2zm-9.547-4h7.547v-5.69h-7.547z" fill="#3762cc"/><path d="m208.065 172.217h-12.99c-1.614 0-2.928-1.313-2.928-2.929v-5.361c0-1.615 1.313-2.929 2.928-2.929h12.99c1.614 0 2.928 1.313 2.928 2.929v5.361c0 1.615-1.313 2.929-2.928 2.929zm-11.918-4h10.846v-3.219h-10.846z" fill="#3762cc"/><path d="m228.123 170.216h-12.989c-.512 0-.928-.415-.928-.928v-5.362c0-.512.415-.928.928-.928h12.989c.512 0 .928.415.928.928v5.362c0 .513-.415.928-.928.928z" fill="#4671c6"/><path d="m215.856 170.216v39.868c0 3.188 2.585 5.773 5.773 5.773s5.773-2.585 5.773-5.773v-39.868z" fill="#e0ebfc"/><path d="m221.403 213.376c-1.751-.117-3.073-1.653-3.073-3.408v-36.491c0-.434.352-.786.786-.786h5.025c.434 0 .786.352.786.786v36.607c.001 1.894-1.604 3.42-3.524 3.292z" fill="#6bdddd"/><path d="m215.856 186.813h11.546v9.691h-11.546z" fill="#f9cfcf"/><path d="m221.629 217.857c-4.286 0-7.773-3.487-7.773-7.773v-39.868c0-1.104.896-2 2-2h11.546c1.104 0 2 .896 2 2v39.868c-.001 4.286-3.487 7.773-7.773 7.773zm-3.774-45.641v37.868c0 2.081 1.692 3.773 3.773 3.773 2.08 0 3.772-1.692 3.772-3.773v-37.868z" fill="#3762cc"/><path d="m227.401 198.503h-11.546c-1.104 0-2-.896-2-2v-9.69c0-1.104.896-2 2-2h11.546c1.104 0 2 .896 2 2v9.69c0 1.104-.895 2-2 2zm-9.546-4h7.546v-5.69h-7.546z" fill="#3762cc"/><path d="m228.123 172.217h-12.989c-1.614 0-2.928-1.313-2.928-2.929v-5.361c0-1.615 1.313-2.929 2.928-2.929h12.989c1.614 0 2.928 1.313 2.928 2.929v5.361c0 1.615-1.314 2.929-2.928 2.929zm-11.917-4h10.845v-3.219h-10.845z" fill="#3762cc"/><path d="m236.316 230.544h-69.475c-4.065 0-7.373-3.307-7.373-7.372v-55.397c0-1.893 1.54-3.433 3.433-3.433h5.254c1.893 0 3.433 1.54 3.433 3.433v50.144c0 .28.228.508.507.508h58.951c.279 0 .507-.228.507-.508v-50.144c0-1.893 1.54-3.433 3.434-3.433h5.253c1.893 0 3.433 1.54 3.433 3.433v55.397c0 4.053-3.288 7.353-7.337 7.372-.007 0-.014 0-.02 0zm-72.847-62.202v54.83c0 1.859 1.513 3.372 3.373 3.372h69.457c1.86 0 3.373-1.513 3.373-3.372v-54.83h-4.119v49.576c0 2.485-2.021 4.508-4.507 4.508h-58.951c-2.485 0-4.507-2.022-4.507-4.508v-49.576z" fill="#3762cc"/><path d="m199.779 147.267h3.582v63.697h-3.582z" fill="#a4c9ff" transform="matrix(0 1 -1 0 380.685 -22.455)"/><path d="m233.419 182.906h-63.697c-1.104 0-2-.896-2-2v-3.582c0-1.104.896-2 2-2h63.697c1.104 0 2 .896 2 2v3.582c0 1.105-.896 2-2 2z" fill="#3762cc"/><path d="m245 243.517h-234c-1.657 0-3-1.343-3-3v-8.979c0-1.657 1.343-3 3-3h234c1.657 0 3 1.343 3 3v8.979c0 1.657-1.343 3-3 3z" fill="#4671c6"/><path d="m245 245.518h-234c-2.757 0-5-2.243-5-5v-8.979c0-2.757 2.243-5 5-5h234c2.757 0 5 2.243 5 5v8.979c0 2.756-2.243 5-5 5zm-234-14.98c-.552 0-1 .448-1 1v8.979c0 .552.448 1 1 1h234c.552 0 1-.448 1-1v-8.979c0-.552-.448-1-1-1z" fill="#3762cc"/></svg>