<svg id="Layer_1" enable-background="new 0 0 256 256" height="512" viewBox="0 0 256 256" width="512" xmlns="http://www.w3.org/2000/svg"><path d="m242 194.167h-228c-3.314 0-6-2.686-6-6v-158c0-3.314 2.686-6 6-6h228c3.314 0 6 2.686 6 6v158c0 3.313-2.686 6-6 6z" fill="#6bdddd"/><path d="m242 196.167h-228c-4.411 0-8-3.589-8-8v-158c0-4.411 3.589-8 8-8h228c4.411 0 8 3.589 8 8v158c0 4.411-3.589 8-8 8zm-228-170c-2.206 0-4 1.794-4 4v158c0 2.206 1.794 4 4 4h228c2.206 0 4-1.794 4-4v-158c0-2.206-1.794-4-4-4z" fill="#3762cc"/><path d="m18 181.167v-144c0-1.657 1.343-3 3-3h214c1.657 0 3 1.343 3 3v144c0 1.657-1.343 3-3 3h-214c-1.657 0-3-1.344-3-3z" fill="#4671c6"/><path d="m235 186.167h-214c-2.757 0-5-2.243-5-5v-144c0-2.757 2.243-5 5-5h214c2.757 0 5 2.243 5 5v144c0 2.757-2.243 5-5 5zm-214-150c-.552 0-1 .448-1 1v144c0 .552.448 1 1 1h214c.552 0 1-.448 1-1v-144c0-.552-.448-1-1-1z" fill="#3762cc"/><path d="m215.22 69.273c-13.155-9.352-32.835-9.046-32.835-9.046l.009.008c-.003 0-.006 0-.009 0l.001-.008c-7.045-.588-16.326 1.042-22.574 3.205-3.699 1.23-12.901 3.683-25.041 2.619-1.022-.09-1.828.864-1.556 1.854.724 2.641 2.367 7.544 5.69 13.114.466.781.124 1.794-.721 2.133-3.242 1.297-6.944 2.508-11.073 3.447-1 .228-1.469 1.382-.91 2.242 4.881 7.508 26.409 35.294 72.353 25.188.819-.18 1.633-.405 2.432-.656 13.513-4.237 17.28-14.909 20.782-22.278 3.743-7.878.962-17.39-6.548-21.822z" fill="#a4c9ff"/><path d="m234.363 123.771-7.323-5.272c-5.777-4.159-9.422-10.469-10.312-17.304l-.037-.081c-3.135 4.993-7.714 9.751-15.706 12.258-.799.251-1.614.476-2.432.656-22.198 4.883-38.681.914-50.356-5.333-.922 3.506-1.416 7.184-1.416 10.976v4.1c-.093-.002-.183-.014-.277-.014-7.378 0-13.36 5.928-13.36 13.24s5.982 13.24 13.36 13.24c.485 0 .962-.029 1.433-.079 4.519 19.198 21.885 33.504 42.635 33.504s38.116-14.306 42.635-33.504c.471.05.949.079 1.433.079 7.378 0 13.36-5.928 13.36-13.24 0-7.478-6.225-13.402-13.637-13.226z" fill="#f9cfcf"/><path d="m86.296 139.91c-.966 0-1.928-.397-2.619-1.178l-18.014-20.312c-.305-.344-.749-.522-1.2-.503l-16.176.834c-3.818.199-7.267-2.171-8.484-5.751l-12.116-35.599c-.623-1.83.355-3.818 2.186-4.441 1.83-.621 3.818.355 4.441 2.186l12.116 35.6c.215.633.84 1.032 1.496 1.016l16.177-.834c2.597-.131 5.073.905 6.798 2.849l18.013 20.313c1.283 1.446 1.15 3.658-.296 4.94-.667.589-1.496.88-2.322.88z" fill="#e0ebfc"/><path d="m118.982 180.284-19.181 6.617c-2.414.833-5.045-.449-5.878-2.863l-6.959-20.172c-.833-2.414.449-5.045 2.863-5.878l19.181-6.617c2.414-.833 5.045.449 5.878 2.863l6.959 20.172c.832 2.414-.449 5.045-2.863 5.878z" fill="#f9cfcf"/><path d="m98.288 189.157c-.991 0-1.977-.225-2.895-.672-1.591-.774-2.784-2.122-3.36-3.794l-6.96-20.172c-1.19-3.453.649-7.23 4.101-8.421l19.181-6.618c3.455-1.187 7.231.649 8.421 4.103l6.96 20.171c.577 1.672.469 3.469-.307 5.06-.774 1.591-2.122 2.784-3.794 3.361l-19.181 6.617c-.708.244-1.438.365-2.166.365zm12.224-36.039c-.283 0-.571.047-.854.144l-19.18 6.618c-1.367.472-2.096 1.968-1.624 3.336l6.96 20.171c.229.662.701 1.196 1.331 1.503s1.341.35 2.004.121l19.181-6.617c1.367-.472 2.096-1.968 1.624-3.335l-6.96-20.172c-.374-1.085-1.393-1.769-2.482-1.769zm8.47 27.166h.01z" fill="#3762cc"/><path d="m120.78 179.119c-.489.506-1.087.92-1.798 1.166l-17.238 5.947 3.321 9.626 19.204-6.625z" fill="#f9cfcf"/><path d="m105.064 197.857c-.301 0-.601-.067-.876-.202-.477-.232-.842-.645-1.015-1.146l-3.32-9.626c-.36-1.044.194-2.183 1.238-2.543l17.238-5.947c.368-.127.708-.35 1.01-.663.483-.502 1.191-.715 1.871-.564s1.232.644 1.459 1.301l3.489 10.112c.173.501.14 1.051-.093 1.528-.231.477-.645.842-1.146 1.015l-19.204 6.626c-.21.073-.431.109-.651.109zm-.777-10.387 2.016 5.845 15.423-5.321-2.017-5.845c-.024.009-.05.018-.074.026z" fill="#3762cc"/><path d="m218.11 188.233c-7.562 0-7.309-.003-7.309-.003l-.003.003h-47.774c-12.621 0-22.852 10.231-22.852 22.852v20.747h100.791c0-7.737 0-13.015 0-20.747-.001-12.62-10.232-22.852-22.853-22.852z" fill="#e0ebfc"/><g fill="#3762cc"><path d="m190.581 165.122c-3.136 0-6.058-1.133-8.019-3.107-1.501-1.513-2.327-3.426-2.327-5.386 0-1.104.896-2 2-2s2 .896 2 2c0 .911.403 1.799 1.167 2.567 1.196 1.206 3.133 1.926 5.179 1.926h.001c2.059 0 3.935-.701 5.148-1.925.765-.771 1.168-1.658 1.168-2.568 0-1.104.896-2 2-2s2 .896 2 2c0 1.96-.827 3.872-2.328 5.386-1.959 1.975-4.871 3.107-7.987 3.107-.001 0-.001 0-.002 0z"/><path d="m168.91 147.595c-2.915 0-5.287-2.371-5.287-5.286v-8.81c0-2.915 2.372-5.286 5.287-5.286 2.914 0 5.286 2.372 5.286 5.286v8.81c-.001 2.915-2.372 5.286-5.286 5.286z"/><path d="m212.224 147.595c-2.915 0-5.287-2.371-5.287-5.286v-8.81c0-2.915 2.371-5.286 5.287-5.286 2.914 0 5.286 2.372 5.286 5.286v8.81c0 2.915-2.371 5.286-5.286 5.286z"/></g><path d="m138.753 126.226c2.187-1.548 4.858-2.47 7.751-2.47.093 0 .184.012.277.014v-4.101c0-3.788.493-7.462 1.413-10.965-3.654-1.955-6.837-4.133-9.574-6.335-1.321 5.238-1.657 10.726-.913 16.183z" fill="#a4c9ff"/><path d="m138.753 128.226c-.271 0-.541-.055-.797-.166-.642-.278-1.091-.871-1.185-1.563l-1.046-7.673c-.772-5.663-.451-11.363.955-16.942.167-.66.658-1.19 1.304-1.407.646-.216 1.357-.089 1.889.338 2.894 2.327 6.011 4.39 9.265 6.13.816.437 1.227 1.377.991 2.272-.895 3.4-1.348 6.919-1.348 10.456v4.101c0 .538-.217 1.053-.601 1.429-.384.375-.872.586-1.441.571-.075-.002-.149-.007-.224-.012-.003 0-.007 0-.01 0-2.381 0-4.657.727-6.598 2.1-.343.242-.747.366-1.154.366zm1.164-22.35c-.715 4.108-.793 8.269-.229 12.406l.649 4.761c1.411-.618 2.905-1.02 4.443-1.19v-2.183c0-3.355.372-6.696 1.107-9.952-2.053-1.165-4.049-2.45-5.97-3.842z" fill="#3762cc"/><path d="m164.583 153.141c-5.193 0-8.886-1.088-11.188-3.275-.027-.025-.055-.053-.08-.081-2.131-2.27-3.572-5.072-4.168-8.104-.3-1.523-.383-3.08-.248-4.625 0-.001 0-.001 0-.002l1.042-11.901c.092-1.057.591-2.016 1.405-2.699.813-.682 1.833-1.015 2.903-.914l29.353 2.567c2.965.26 5.165 2.883 4.906 5.847l-.607 6.938c-.574 6.575-5.069 13.869-13.817 15.342-3.596.603-6.758.907-9.501.907zm-8.393-6.138c1.751 1.625 6.162 3.147 17.229 1.284 6.64-1.117 10.057-6.704 10.497-11.745l.607-6.938c.066-.767-.503-1.446-1.271-1.514l-29.354-2.567-1.017 11.88c-.102 1.172-.038 2.352.188 3.507.451 2.273 1.529 4.379 3.121 6.093z" fill="#3762cc"/><path d="m216.584 153.233c-3.457 0-6.86-.573-9.493-1.016-7.573-1.274-13.126-7.439-13.817-15.341l-.607-6.938c-.126-1.438.315-2.836 1.242-3.94s2.228-1.781 3.664-1.906l29.354-2.568c1.068-.099 2.09.233 2.902.915.814.683 1.313 1.642 1.405 2.7l1.042 11.899v.002c.135 1.546.052 3.102-.247 4.624-1.854 9.418-8.748 11.569-15.445 11.569zm10.665-27.745-29.328 2.589c-.768.067-1.337.746-1.271 1.514l.607 6.937c.53 6.059 4.749 10.778 10.497 11.745 11.587 1.95 18.628 1.367 20.349-7.378.226-1.154.289-2.334.188-3.507z" fill="#3762cc"/><path d="m196.493 136.854h-11.841c-1.226 0-2.22-.994-2.22-2.22 0-1.226.994-2.22 2.22-2.22h11.841c1.226 0 2.22.994 2.22 2.22 0 1.226-.994 2.22-2.22 2.22z" fill="#a4c9ff"/><path d="m196.492 138.854h-11.841c-2.327 0-4.22-1.893-4.22-4.22s1.893-4.221 4.22-4.221h11.841c2.327 0 4.221 1.894 4.221 4.221s-1.894 4.22-4.221 4.22zm-11.841-4.441c-.121 0-.22.099-.22.221 0 .121.099.22.22.22h11.841c.122 0 .221-.099.221-.22 0-.122-.099-.221-.221-.221z" fill="#3762cc"/><path d="m215.667 188.234c-1.622 12.413-12.259 22.03-25.106 22.03s-23.484-9.618-25.105-22.03h-2.432c-5.217 0-10.024 1.752-13.87 4.695l2.522 16.529v22.376h80.263v-22.376l2.231-14.625c-5.657-5.59-11.554-6.599-18.503-6.599z" fill="#f9a7a7"/><path d="m190.561 212.264c-13.673 0-25.318-10.22-27.089-23.771-.074-.57.101-1.146.48-1.578s.928-.681 1.503-.681h45.278c.031-.001.063-.001.095-.001l.001-.002c.065.001.607.003 4.838.003.575 0 1.123.248 1.503.681s.555 1.008.48 1.578c-1.771 13.551-13.417 23.771-27.089 23.771zm-22.713-22.031c2.426 10.425 11.814 18.03 22.713 18.03s20.288-7.606 22.714-18.031h-1.812c-.146-.001-.285-.005-.418-.015-.082.011-.164.016-.247.016z" fill="#3762cc"/><path d="m170.502 178.836v9.249c1.517 9.728 9.906 17.179 20.059 17.179 10.153 0 18.542-7.451 20.059-17.179v-9.249c-12.627 6.463-27.59 6.413-40.118 0z" fill="#f9cfcf"/><path d="m240.962 233.833h-100.791c-1.104 0-2-.896-2-2v-20.747c0-13.704 11.148-24.853 24.853-24.853h5.479v-7.397c0-.696.362-1.343.957-1.706s1.337-.391 1.954-.074c11.99 6.137 26.306 6.138 38.296 0 .619-.317 1.36-.289 1.954.074.595.363.957 1.01.957 1.706v.244c.005 3.597.003 5.795-.003 7.152 1.07.001 2.775.001 5.492.001 13.704 0 24.853 11.148 24.853 24.853v20.747c-.001 1.105-.897 2-2.001 2zm-98.791-4h96.791v-18.747c0-11.498-9.354-20.853-20.853-20.853l-6.313-.001c-.213-.001-.463-.001-.727-.018-.09.013-.181.019-.271.019h-.208c-.587 0-1.144-.258-1.523-.705-.35-.41-.517-.941-.469-1.475.008-.19.026-1.164.025-6.075-11.512 4.904-24.611 4.905-36.121.001v5.912c.002.011.004.021.005.032.091.577-.076 1.165-.456 1.609s-.935.7-1.52.7h-7.508c-11.498 0-20.853 9.354-20.853 20.853v18.748z" fill="#3762cc"/><path d="m145.967 231.833 2.461-.849-14.825-42.969c-.341-.989-1.419-1.514-2.408-1.173l-30.653 10.575c-.989.341-1.514 1.419-1.173 2.408l11.043 32.008z" fill="#e0ebfc"/><path d="m145.967 233.833h-35.555c-.854 0-1.612-.541-1.891-1.348l-11.042-32.008c-.34-.982-.275-2.04.18-2.975.455-.936 1.247-1.638 2.23-1.977l30.653-10.575c2.027-.699 4.251.381 4.951 2.411l14.824 42.97c.173.502.14 1.051-.093 1.528-.232.477-.645.842-1.146 1.015l-2.461.849c-.208.073-.429.11-.65.11zm-34.129-4h33.794l.253-.087-14.138-40.979-30.452 10.506z" fill="#3762cc"/><path d="m231.938 233.833h-80.264c-1.104 0-2-.896-2-2v-22.225l-2.499-16.378c-.109-.722.183-1.446.762-1.89 4.367-3.342 9.583-5.107 15.086-5.107h2.432c1.005 0 1.854.745 1.983 1.741 1.511 11.566 11.451 20.289 23.122 20.289s21.611-8.723 23.123-20.289c.131-.996.979-1.741 1.983-1.741 7.59 0 13.88 1.221 19.908 7.176.456.45.668 1.092.572 1.725l-2.209 14.475v22.225c.001 1.104-.894 1.999-1.999 1.999zm-78.263-4h76.264v-20.376c0-.101.008-.202.022-.302l2.074-13.593c-4.418-4.023-9.003-5.139-14.675-5.306-2.507 12.665-13.728 22.007-26.8 22.007-13.082 0-24.307-9.354-26.804-22.03h-.733c-4.226 0-8.249 1.241-11.709 3.6l2.338 15.322c.015.1.022.201.022.302v20.376z" fill="#3762cc"/><path d="m170.502 184.167 20.059 21.097-11.23 11.237c-.926.927-2.478.728-3.14-.403l-16.198-27.658z" fill="#e0ebfc"/><path d="m210.62 184.167-20.059 21.097 11.23 11.237c.926.927 2.478.728 3.14-.403l16.198-27.658z" fill="#e0ebfc"/><path d="m177.927 219.088c-.173 0-.346-.011-.52-.033-1.239-.159-2.312-.868-2.942-1.946l-16.198-27.658c-.294-.501-.354-1.104-.168-1.654.187-.549.603-.99 1.141-1.209l10.51-4.272c.761-.311 1.635-.122 2.202.475l20.059 21.097c.748.786.732 2.024-.034 2.792l-11.229 11.237c-.761.757-1.767 1.171-2.821 1.171zm-15.041-29.666 15.03 25.665 9.852-9.858-17.775-18.695z" fill="#3762cc"/><path d="m203.195 219.088c-1.055 0-2.061-.413-2.819-1.173l-11.23-11.237c-.767-.768-.782-2.006-.034-2.792l20.06-21.097c.566-.597 1.441-.785 2.202-.475l10.509 4.272c.538.219.954.66 1.141 1.209.187.55.126 1.153-.168 1.654l-16.198 27.658c-.631 1.077-1.703 1.787-2.941 1.946-.176.024-.35.035-.522.035zm-9.841-13.859 9.852 9.858 15.03-25.665-7.105-2.889z" fill="#3762cc"/><path d="m233.541 86.844c-3.285-4.282-7.824-2.446-10.176-1.734-.161 2.026-.681 4.053-1.597 5.982-1.431 3.011-2.908 6.574-5.074 10.024l.035.077c.89 6.834 4.535 13.145 10.312 17.304l7.323 5.272c2.409-.056 4.66.512 6.665 1.596l.929-6.813c1.535-11.268-1.495-22.684-8.417-31.708z" fill="#a4c9ff"/><path d="m190.572 185.662c-20.827 0-38.755-13.66-44.169-33.426-8.423-.055-15.259-6.87-15.259-15.24 0-7.826 5.975-14.293 13.637-15.145v-2.182c0-3.885.499-7.749 1.481-11.485.156-.592.574-1.08 1.136-1.324.56-.244 1.203-.22 1.742.069 13.988 7.486 30.468 9.216 48.982 5.145.708-.155 1.448-.355 2.264-.611 6.326-1.983 10.969-5.61 14.61-11.413.392-.622 1.077-.982 1.825-.933.733.049 1.382.495 1.688 1.163.084.183.176.457.202.656.831 6.382 4.292 12.191 9.497 15.938l6.799 4.895c3.916.079 7.591 1.617 10.413 4.374 2.953 2.884 4.579 6.738 4.579 10.853 0 8.37-6.836 15.186-15.259 15.24-5.413 19.766-23.341 33.426-44.168 33.426zm-42.633-37.505c.917 0 1.73.631 1.945 1.542 4.43 18.819 21.161 31.963 40.688 31.963s36.258-13.144 40.688-31.963c.23-.981 1.17-1.629 2.157-1.531.433.046.833.068 1.223.068 6.264 0 11.36-5.042 11.36-11.24 0-3.028-1.198-5.866-3.374-7.991-2.21-2.159-5.115-3.318-8.216-3.235-.422.021-.862-.121-1.216-.376l-7.323-5.272c-4.86-3.499-8.423-8.532-10.162-14.217-3.733 4.53-8.31 7.552-14.125 9.375-.929.291-1.779.521-2.603.701-18.47 4.064-35.078 2.601-49.411-4.344-.524 2.638-.789 5.33-.789 8.033v4.101c0 .538-.217 1.053-.601 1.429-.384.375-.872.586-1.441.571-.079-.002-.157-.007-.235-.013 0 0-.002 0-.003 0-6.263 0-11.356 5.041-11.356 11.238 0 6.198 5.096 11.24 11.359 11.24.391 0 .791-.022 1.224-.068.07-.007.141-.011.211-.011z" fill="#3762cc"/><path d="m241.028 127.366c-.327 0-.654-.08-.951-.24-1.75-.946-3.636-1.395-5.668-1.356-.395.021-.861-.121-1.215-.376l-7.323-5.272c-6.067-4.368-10.112-11.127-11.111-18.558-.104-.514-.033-1.075.239-1.51 1.622-2.583 2.828-5.205 3.995-7.74.329-.716.649-1.411.967-2.079.789-1.662 1.264-3.439 1.41-5.282.065-.82.627-1.518 1.415-1.756l.505-.158c2.574-.812 7.93-2.503 11.837 2.588v.001c7.196 9.382 10.407 21.481 8.811 33.196l-.929 6.813c-.089.65-.49 1.216-1.076 1.513-.285.144-.595.216-.906.216zm-6.02-5.596c1.514.03 2.982.274 4.393.731l.575-4.219c1.453-10.664-1.47-21.68-8.021-30.222-1.867-2.433-4.165-2.184-6.753-1.423-.28 1.843-.825 3.624-1.627 5.313-.312.654-.624 1.335-.946 2.034-1.071 2.329-2.274 4.943-3.833 7.532.96 6.152 4.368 11.725 9.414 15.357z" fill="#3762cc"/><path d="m179.229 118.238c-33.328 0-49.912-20.934-54.706-28.309-.618-.95-.733-2.146-.308-3.197.426-1.053 1.341-1.832 2.448-2.085 3.478-.79 6.909-1.842 10.212-3.13-3.283-5.635-4.908-10.59-5.592-13.084-.3-1.093-.045-2.266.682-3.137.731-.875 1.854-1.335 2.979-1.238 11.887 1.044 20.909-1.418 24.234-2.524 6.049-2.094 15.597-3.928 23.276-3.309 1.752.011 20.674.045 33.855 9.369 8.236 4.913 11.428 15.594 7.264 24.356-.312.655-.626 1.338-.948 2.039-3.333 7.245-7.897 17.167-21.042 21.289-.929.291-1.779.521-2.603.701-7.149 1.575-13.724 2.259-19.751 2.259zm-50.937-29.862c5.917 8.776 26.723 33.18 69.831 23.698.708-.155 1.448-.355 2.264-.611 11.45-3.591 15.418-12.215 18.605-19.145.33-.717.65-1.414.969-2.084 3.297-6.938.768-15.388-5.758-19.238-.049-.029-.096-.06-.143-.093-11.813-8.398-29.528-8.674-31.473-8.678-.128.015-.263.012-.398-.001-.048-.004-.096-.011-.143-.019-7.06-.552-16.113 1.223-21.582 3.115-3.513 1.169-12.849 3.729-25.115 2.784.754 2.55 2.326 6.953 5.271 11.889.522.878.635 1.935.308 2.9s-1.058 1.735-2.003 2.114c-3.435 1.376-7.009 2.508-10.633 3.369z" fill="#3762cc"/><path d="m100.574 154.281 8.433-2.909c1.469-.507 3.013-.222 4.189.615l.004-.006-10.14-6.839c-1.279-.863-3.016-.525-3.879.754-1.846 2.737-1.203 6.411 1.393 8.385z" fill="#f9cfcf"/><path d="m100.574 156.281c-.432 0-.857-.14-1.21-.408-3.457-2.627-4.266-7.501-1.841-11.096 1.479-2.19 4.464-2.771 6.655-1.294l10.14 6.84c.912.615 1.156 1.853.546 2.768-.3.45-.772.763-1.305.86-.529.099-1.082-.021-1.524-.335-.704-.502-1.572-.633-2.377-.354l-8.432 2.909c-.212.074-.432.11-.652.11zm.926-9.617c-.256 0-.507.123-.66.351-1.05 1.555-.913 3.58.227 4.98l5.675-1.958-4.799-3.237c-.136-.092-.291-.136-.443-.136z" fill="#3762cc"/><path d="m99.7 154.583-6.16-17.856c-.479-1.389-1.995-2.127-3.384-1.648l-3.861 1.332c-1.39.479-2.127 1.994-1.648 3.384l6.16 17.856z" fill="#e0ebfc"/><path d="m90.807 159.65c-.301 0-.601-.067-.876-.202-.477-.232-.842-.645-1.015-1.146l-6.16-17.855c-.838-2.431.457-5.09 2.887-5.928l3.86-1.332c1.176-.405 2.441-.329 3.562.216 1.12.546 1.96 1.494 2.365 2.672l6.16 17.854c.36 1.044-.194 2.183-1.238 2.543l-8.893 3.068c-.212.074-.433.11-.652.11zm.215-22.717c-.065 0-.138.01-.215.036l-3.86 1.332c-.345.119-.529.497-.41.842l5.508 15.965 5.111-1.764-5.508-15.965c-.078-.226-.243-.335-.336-.38-.06-.029-.162-.066-.29-.066z" fill="#3762cc"/></svg>