<svg id="Layer_1" enable-background="new 0 0 256 256" height="512" viewBox="0 0 256 256" width="512" xmlns="http://www.w3.org/2000/svg"><path d="m241.1 194.2h-228c-3.3 0-6-2.7-6-6v-158c0-3.3 2.7-6 6-6h228c3.3 0 6 2.7 6 6v158c0 3.3-2.7 6-6 6z" fill="#6bdddd"/><path d="m241.1 196.2h-228c-4.4 0-8-3.6-8-8v-158c0-4.4 3.6-8 8-8h228c4.4 0 8 3.6 8 8v158c0 4.4-3.6 8-8 8zm-228-170c-2.2 0-4 1.8-4 4v158c0 2.2 1.8 4 4 4h228c2.2 0 4-1.8 4-4v-158c0-2.2-1.8-4-4-4z" fill="#3762cc"/><path d="m17.1 181.2v-144c0-1.7 1.3-3 3-3h214c1.7 0 3 1.3 3 3v144c0 1.7-1.3 3-3 3h-214c-1.7 0-3-1.4-3-3z" fill="#e0ebfc"/><path d="m234.1 186.2h-214c-2.8 0-5-2.2-5-5v-144c0-2.8 2.2-5 5-5h214c2.8 0 5 2.2 5 5v144c0 2.7-2.3 5-5 5zm-214-150c-.6 0-1 .4-1 1v144c0 .6.4 1 1 1h214c.6 0 1-.4 1-1v-144c0-.6-.4-1-1-1z" fill="#3762cc"/><path d="m235.3 123.8c-7.8-5.6-16-10.1-17.6-22.6v-.1c-3.1 5-7.7 9.8-15.7 12.3-13.9 4.4-35.4 4.6-52.8-4.7-.9 3.5-1.4 7.2-1.4 11v4.1c-.1 0-.2 0-.3 0-7.4 0-13.4 5.9-13.4 13.2s6 13.2 13.4 13.2c.5 0 1 0 1.4-.1 4.5 19.2 21.9 33.5 42.6 33.5s38.1-14.3 42.6-33.5c.5.1.9.1 1.4.1 7.4 0 13.4-5.9 13.4-13.2 0-7.6-6.3-13.4-13.6-13.2z" fill="#f9cfcf"/><path d="m219 188.2h-7.3-47.7c-12.6 0-22.9 10.2-22.9 22.9v20.7h100.8c0-7.7 0-13 0-20.7 0-12.6-10.2-22.9-22.9-22.9z" fill="#e0ebfc"/><g fill="#3762cc"><path d="m191.5 165.1c-3.1 0-6.1-1.1-8-3.1-1.5-1.5-2.3-3.4-2.3-5.4 0-1.1.9-2 2-2s2 .9 2 2c0 .9.4 1.8 1.2 2.6 1.2 1.2 3.1 1.9 5.2 1.9 2.1 0 3.9-.7 5.1-1.9.8-.8 1.2-1.7 1.2-2.6 0-1.1.9-2 2-2s2 .9 2 2c0 2-.8 3.9-2.3 5.4-2.1 2-5 3.1-8.1 3.1z"/><path d="m169.8 147.6c-2.9 0-5.3-2.4-5.3-5.3v-8.8c0-2.9 2.4-5.3 5.3-5.3s5.3 2.4 5.3 5.3v8.8c0 2.9-2.3 5.3-5.3 5.3z"/><path d="m213.2 147.6c-2.9 0-5.3-2.4-5.3-5.3v-8.8c0-2.9 2.4-5.3 5.3-5.3s5.3 2.4 5.3 5.3v8.8c-.1 2.9-2.4 5.3-5.3 5.3z"/></g><path d="m139.7 126.2c2.2-1.5 4.9-2.5 7.8-2.5h.3v-4.1c0-3.8.5-7.5 1.4-11-3.7-2-6.8-4.1-9.6-6.3-1.3 5.2-1.7 10.7-.9 16.2z" fill="#4671c6"/><path d="m139.7 128.2c-.3 0-.5-.1-.8-.2-.6-.3-1.1-.9-1.2-1.6l-1-7.7c-.8-5.7-.5-11.4 1-16.9.2-.7.7-1.2 1.3-1.4s1.4-.1 1.9.3c2.9 2.3 6 4.4 9.3 6.1.8.4 1.2 1.4 1 2.3-.9 3.4-1.3 6.9-1.3 10.5v4.1c0 .5-.2 1.1-.6 1.4-.4.4-.9.6-1.4.6-.1 0-.1 0-.2 0-2.4 0-4.7.7-6.6 2.1-.6.3-1 .4-1.4.4zm1.1-22.3c-.7 4.1-.8 8.3-.2 12.4l.6 4.8c1.4-.6 2.9-1 4.4-1.2v-2.2c0-3.4.4-6.7 1.1-10-1.9-1.1-3.9-2.4-5.9-3.8z" fill="#3762cc"/><path d="m165.8 153.1c-5.4 0-9.3-1.2-11.9-3.6-4.9-4.6-4.2-12.6-3.3-21 .1-1.1.2-2.2.3-3.3s.6-2 1.4-2.7 1.8-1 2.9-.9l29.4 2.6c3 .3 5.2 2.9 4.9 5.8l-.6 6.9c-.7 7.9-6.2 14.1-13.8 15.3-3.6.6-6.7.9-9.3.9zm-11-27.6c-.1 1.1-.2 2.2-.3 3.3-.8 7.7-1.4 14.4 2.1 17.7 2.9 2.7 8.7 3.2 17.7 1.7 5.7-1 10-5.7 10.5-11.7l.6-6.9c.1-.8-.5-1.4-1.3-1.5z" fill="#3762cc"/><path d="m217.5 153.2c-3.5 0-6.9-.6-9.5-1-7.6-1.3-13.1-7.4-13.8-15.3l-.6-6.9c-.1-1.4.3-2.8 1.2-3.9s2.2-1.8 3.7-1.9l29.4-2.6c1.1-.1 2.1.2 2.9.9s1.3 1.6 1.4 2.7c.2 2.3.4 4.3.5 5.9.7 7.3.7 8.2.3 10.6-1.9 9.4-8.8 11.5-15.5 11.5zm10.7-27.7-29.3 2.6c-.4 0-.7.2-.9.5s-.4.6-.3 1l.6 6.9c.5 6.1 4.7 10.8 10.5 11.7 11.6 2 18.6 1.4 20.3-7.4.4-1.9.3-2.4-.3-9.5-.2-1.5-.4-3.5-.6-5.8z" fill="#3762cc"/><path d="m197.4 136.9h-11.8c-1.2 0-2.2-1-2.2-2.2 0-1.2 1-2.2 2.2-2.2h11.8c1.2 0 2.2 1 2.2 2.2 0 1.2-1 2.2-2.2 2.2z" fill="#a4c9ff"/><path d="m197.4 138.9h-11.8c-2.3 0-4.2-1.9-4.2-4.2s1.9-4.2 4.2-4.2h11.8c2.3 0 4.2 1.9 4.2 4.2s-1.9 4.2-4.2 4.2zm-11.8-4.5c-.1 0-.2.1-.2.2s.1.2.2.2h11.8c.1 0 .2-.1.2-.2s-.1-.2-.2-.2z" fill="#3762cc"/><path d="m241.9 233.8h-100.8c-1.1 0-2-.9-2-2v-20.7c0-13.7 11.1-24.9 24.9-24.9h5.5v-7.4c0-.7.4-1.3 1-1.7s1.3-.4 2-.1c12 6.1 26.3 6.1 38.3 0 .6-.3 1.4-.3 2 .1s1 1 1 1.7v7.4h5.5c13.7 0 24.9 11.1 24.9 24.9v20.7c-.3 1.1-1.2 2-2.3 2zm-98.8-4h96.8v-18.7c0-11.5-9.4-20.9-20.9-20.9h-7.3-.2c-.6 0-1.1-.3-1.5-.7s-.5-1-.4-1.6v-5.9c-11.5 4.9-24.6 4.9-36.1 0v5.9c.1.6-.1 1.2-.5 1.6s-.9.7-1.5.7h-7.5c-11.5 0-20.9 9.4-20.9 20.9z" fill="#3762cc"/><path d="m234.5 86.8c-3.3-4.3-7.8-2.4-10.2-1.7-.1 1.6-.5 3.2-1.1 4.7-1.4 3.7-5.1 10.4-5.6 11.4 1.6 12.4 9.8 16.9 17.6 22.6 2.4-.1 4.7.5 6.7 1.6l.9-6.8c1.6-11.3-1.4-22.7-8.3-31.8z" fill="#4671c6"/><path d="m171.4 184.2 20.1 21.1-11.2 11.2c-.9.9-2.5.7-3.1-.4l-16.2-27.7z" fill="#e0ebfc"/><path d="m211.5 184.2-20.1 21.1 11.2 11.2c.9.9 2.5.7 3.1-.4l16.2-27.7z" fill="#e0ebfc"/><path d="m178.9 219.1c-.2 0-.3 0-.5 0-1.2-.2-2.3-.9-2.9-1.9l-16.2-27.7c-.3-.5-.4-1.1-.2-1.7.2-.5.6-1 1.1-1.2l10.5-4.3c.8-.3 1.6-.1 2.2.5l20.1 21.1c.7.8.7 2 0 2.8l-11.2 11.2c-.9.8-1.9 1.2-2.9 1.2zm-15.1-29.7 15 25.7 9.9-9.9-17.8-18.7z" fill="#3762cc"/><path d="m204.1 219.1c-1.1 0-2.1-.4-2.8-1.2l-11.2-11.2c-.8-.8-.8-2 0-2.8l20.1-21.1c.6-.6 1.4-.8 2.2-.5l10.5 4.3c.5.2 1 .7 1.1 1.2.2.6.1 1.2-.2 1.7l-16.2 27.7c-.6 1.1-1.7 1.8-2.9 1.9-.2 0-.4 0-.6 0zm-9.8-13.9 9.9 9.9 15-25.7-7.1-2.9z" fill="#3762cc"/><path d="m76.9 143.5c-.8 0-1.7-.4-2.1-1.2l-17.3-28.2c-.3-.5-.6-.7-.7-.7 0 0-.1 0-.2.2l-9.4 8.8c-1.4 1.3-3.2 1.8-5 1.3-2.2-.6-3.9-2.6-4.7-5.6l-12.2-44.5c-.4-1.3.4-2.7 1.7-3.1s2.7.4 3.1 1.7l12.3 44.6c.4 1.5 1 2 1.2 2.1 0 0 .1-.1.2-.2l9.4-8.8c1.2-1.2 2.8-1.7 4.3-1.5 1.7.2 3.2 1.3 4.3 3l17.3 28.2c.7 1.2.4 2.7-.8 3.4-.5.4-.9.5-1.4.5z" fill="#4671c6"/><path d="m120.5 179.1c-.5.5-1.1.9-1.8 1.2l-17.2 5.9 3.3 9.6 19.2-6.6z" fill="#f9cfcf"/><path d="m104.8 197.9c-.3 0-.6-.1-.9-.2-.5-.2-.8-.6-1-1.1l-3.3-9.6c-.4-1 .2-2.2 1.2-2.5l17.2-5.9c.4-.1.7-.4 1-.7.5-.5 1.2-.7 1.9-.6s1.2.6 1.5 1.3l3.5 10.1c.4 1-.2 2.2-1.2 2.5l-19.2 6.6c-.3 0-.5.1-.7.1zm-.8-10.4 2 5.8 15.4-5.3-2-5.8h-.1z" fill="#3762cc"/><path d="m118.7 180.3-19.2 6.6c-2.4.8-5-.4-5.9-2.9l-7-20.2c-.8-2.4.4-5 2.9-5.9l19.2-6.6c2.4-.8 5 .4 5.9 2.9l7 20.2c.8 2.4-.5 5.1-2.9 5.9z" fill="#f9cfcf"/><path d="m98 189.2c-1 0-2-.2-2.9-.7-1.6-.8-2.8-2.1-3.4-3.8l-7-20.2c-.6-1.7-.5-3.5.3-5.1s2.1-2.8 3.8-3.4l19.2-6.6c3.5-1.2 7.2.6 8.4 4.1l7 20.2c.6 1.7.5 3.5-.3 5.1s-2.1 2.8-3.8 3.4l-19.2 6.6c-.7.2-1.4.4-2.1.4zm12.2-36.1c-.3 0-.6 0-.9.1l-19.2 6.6c-.7.2-1.2.7-1.5 1.3s-.3 1.3-.1 2l7 20.2c.2.7.7 1.2 1.3 1.5s1.3.4 2 .1l19.2-6.6c.7-.2 1.2-.7 1.5-1.3s.3-1.3.1-2l-7-20.2c-.3-1-1.3-1.7-2.4-1.7z" fill="#3762cc"/><path d="m83.6 137.6-4.2 8.7 49.6 24.2c1.3.6 2.8.1 3.4-1.2l2-4c.6-1.3.1-2.8-1.2-3.4z" fill="#4671c6"/><path d="m83.6 137.6-4.2 8.7-5.2-7.3c-.3-.4 0-1 .5-1z" fill="#a4c9ff"/><path d="m130.1 172.8c-.7 0-1.4-.2-2-.5l-49.6-24.2c-.5-.2-.8-.6-1-1.1s-.1-1.1.1-1.5l4.2-8.7c.5-1 1.7-1.4 2.7-.9l49.6 24.2c1.1.5 1.9 1.5 2.3 2.6.4 1.2.3 2.4-.2 3.5l-2 4c-.5 1.1-1.5 1.9-2.6 2.3-.5.2-1 .3-1.5.3zm-48.1-27.4 47.8 23.4c.2.1.3.1.4 0 .1 0 .2-.1.3-.3l2-4c.1-.2.1-.3 0-.4 0-.1-.1-.2-.3-.3l-47.8-23.4z" fill="#3762cc"/><path d="m79.4 148.3c-.6 0-1.2-.3-1.6-.8l-5.2-7.3c-.6-.8-.6-1.8-.2-2.7s1.3-1.4 2.3-1.5l8.9-.4c.7 0 1.4.3 1.8.9s.4 1.3.1 2l-4.2 8.7c-.3.6-.9 1.1-1.6 1.1-.2 0-.3 0-.3 0zm-2.1-8.4 1.8 2.5 1.3-2.6z" fill="#3762cc"/><path d="m107.7 170.7-10.8-9.8c-2.9-2.6-3.1-7.1-.4-10 1.1-1.2 2.8-1.2 4-.2l13.9 12.7z" fill="#f9cfcf"/><path d="m107.7 172.7c-.5 0-1-.2-1.3-.5l-10.8-9.8c-3.7-3.4-3.9-9.1-.6-12.8.9-1 2.1-1.5 3.4-1.6s2.5.4 3.5 1.3l13.9 12.7c.8.7.9 2 .1 2.8-.7.8-2 .9-2.8.1l-13.9-12.7c-.2-.2-.5-.2-.6-.2s-.4 0-.6.3c-1.9 2.1-1.8 5.3.3 7.2l10.8 9.8c.8.7.9 2 .1 2.8-.4.4-1 .6-1.5.6z" fill="#3762cc"/><path d="m145.7 231.8 2.5-.8-14.8-43c-.3-1-1.4-1.5-2.4-1.2l-30.7 10.6c-1 .3-1.5 1.4-1.2 2.4l11 32z" fill="#e0ebfc"/><path d="m145.7 233.8h-35.6c-.9 0-1.6-.5-1.9-1.3l-11-32c-.3-1-.3-2 .2-3 .5-.9 1.2-1.6 2.2-2l30.7-10.6c2-.7 4.3.4 5 2.4l14.8 43c.2.5.1 1.1-.1 1.5-.2.5-.6.8-1.1 1l-2.5.8c-.3.2-.5.2-.7.2zm-34.2-4h33.8l.3-.1-14.1-41-30.5 10.6z" fill="#3762cc"/><path d="m242 127.4c-.3 0-.7-.1-1-.2-1.8-.9-3.6-1.4-5.7-1.4-.4 0-.9-.1-1.2-.4-.8-.5-1.5-1.1-2.3-1.6-7.2-5.1-14.6-10.3-16.2-22.3-.1-.4 0-.8.2-1.2.1-.2.3-.6.6-1.2 1.1-2.1 3.7-7 4.9-9.9v-.1c.5-1.3.8-2.7.9-4.1.1-.8.6-1.5 1.4-1.8l.5-.2c2.6-.8 7.9-2.5 11.8 2.6 7.2 9.4 10.4 21.5 8.8 33.2l-.9 6.8c-.1.7-.5 1.2-1.1 1.5-.1.2-.4.3-.7.3zm-6.1-5.6c1.5 0 3 .3 4.4.7l.6-4.2c1.5-10.7-1.5-21.7-8-30.2-1.9-2.4-4.2-2.2-6.8-1.4-.2 1.3-.5 2.5-1 3.8v.1c-1.2 3.1-3.8 8.1-5.1 10.5-.1.2-.2.4-.3.5 1.5 9.9 7.5 14.1 14.4 19 .6.3 1.2.7 1.8 1.2z" fill="#3762cc"/><path d="m191.5 205.3 20.1-21.1v-5.3c-12.6 6.5-27.6 6.4-40.1 0v5.3z" fill="#f9cfcf"/><path d="m191.5 207.3c-.5 0-1.1-.2-1.4-.6l-20.1-21.2c-.4-.4-.6-.9-.6-1.4v-5.3c0-.7.4-1.3 1-1.7s1.3-.4 2-.1c12 6.1 26.3 6.1 38.3 0 .6-.3 1.4-.3 2 .1s1 1 1 1.7v5.3c0 .5-.2 1-.6 1.4l-20.1 21.1c-.4.4-1 .7-1.5.7zm-18.1-23.9 18.1 19 18.1-19v-1.4c-11.5 4.9-24.6 4.9-36.1 0z" fill="#3762cc"/><path d="m191.5 185.7c-20.8 0-38.8-13.7-44.2-33.4-8.4-.1-15.3-6.9-15.3-15.2 0-7.8 6-14.3 13.6-15.1v-2.2c0-3.9.5-7.7 1.5-11.5.2-.6.6-1.1 1.1-1.3.6-.2 1.2-.2 1.7.1 16.8 9 37.8 8.7 51.2 4.5 6.3-2 11-5.6 14.6-11.5.5-.7 1.4-1.1 2.2-.9s1.4 1 1.5 1.9c1.4 10.3 7.7 14.7 14.5 19.5.6.4 1.2.9 1.8 1.3 3.9.1 7.6 1.7 10.4 4.4 2.9 2.9 4.6 6.7 4.6 10.8 0 8.4-6.8 15.2-15.3 15.2-5.1 19.7-23.1 33.4-43.9 33.4zm-42.6-37.5c.9 0 1.7.6 1.9 1.5 4.4 18.8 21.2 32 40.7 32s36.3-13.1 40.7-32c.2-1 1.2-1.6 2.2-1.5.4 0 .8.1 1.2.1 6.3 0 11.4-5 11.4-11.2 0-3-1.2-5.9-3.4-8s-5.2-3.3-8.2-3.2c-.4 0-.9-.1-1.2-.4-.8-.6-1.5-1.1-2.3-1.6-6.2-4.4-12.6-8.8-15.2-17.8-3.7 4.5-8.3 7.5-14.1 9.3-13.6 4.3-34.6 4.7-52-3.6-.5 2.6-.8 5.3-.8 8v4.1c0 .5-.2 1.1-.6 1.4-.4.4-.9.6-1.4.6-.1 0-.2 0-.2 0-6.3 0-11.4 5-11.4 11.2s5.1 11.2 11.4 11.2c.4 0 .8 0 1.2-.1-.1 0 0 0 .1 0z" fill="#3762cc"/><path d="m219.4 71.8c-7.9-7.4-23.4-11-32.7-11.7-8.7-.8-15.7.3-20.5 1.4-9.1 2.9-11.8 3.7-13.5 3.9-4.5.8-10.3 1.2-16.9.6-1-.1-1.8.9-1.6 1.9.7 2.6 2.4 7.5 5.7 13.1.5.8.1 1.8-.7 2.1-3.2 1.3-6.9 2.5-11.1 3.4-1 .2-1.5 1.4-.9 2.2 4.9 7.5 26.4 35.3 72.4 25.2 15.4-3.4 19.7-15.6 23.2-22.9 3-6.5 1.6-14.3-3.4-19.2z" fill="#4671c6"/><path d="m180.2 118.2c-33.3 0-49.9-20.9-54.7-28.3-.6-.9-.7-2.1-.3-3.2s1.3-1.8 2.4-2.1c3.5-.8 6.9-1.8 10.2-3.1-3.3-5.6-4.9-10.6-5.6-13.1-.3-1.1 0-2.3.7-3.1.7-.9 1.8-1.3 3-1.2 5.5.5 11.1.3 16.4-.6 1.7-.2 4.7-1.1 13.3-3.8h.1c4.6-1.1 11.9-2.3 21-1.5h.1c7.8.6 24.9 3.9 33.9 12.2.1.1.2.2.2.3 5.5 5.6 6.9 14.2 3.5 21.4-.3.6-.6 1.3-.9 1.9-3.4 7.5-8.6 18.8-23.7 22.1-7 1.5-13.6 2.1-19.6 2.1zm-51-29.8c5 7.4 20.5 25.8 51 25.9 5.7 0 12-.7 18.8-2.2 13.1-2.9 17.6-12.7 20.9-19.8.3-.7.6-1.4.9-2 2.7-5.7 1.6-12.6-2.9-17 0 0-.1-.1-.1-.1-7.6-6.9-22.7-10.3-31.2-11-.1 0-.1 0-.2 0-8.6-.8-15.5.3-19.8 1.4-9 2.9-11.9 3.7-13.8 3.9-5.4.9-11 1.2-16.6.7.8 2.6 2.3 7 5.3 11.9.5.9.6 1.9.3 2.9s-1.1 1.7-2 2.1c-3.4 1.3-7 2.4-10.6 3.3z" fill="#3762cc"/></svg>