<svg id="Layer_1" enable-background="new 0 0 256 256" height="512" viewBox="0 0 256 256" width="512" xmlns="http://www.w3.org/2000/svg"><path d="m121.433 220.992-27.648-13.111c-.916-.434-1.307-1.529-.872-2.446l77.466-163.355 30.966 14.685-77.466 163.355c-.435.916-1.53 1.307-2.446.872z" fill="#a4c9ff"/><path d="m213.413 18.462-21.013-9.965c-2.749-1.303-6.033-.132-7.337 2.617l-7.867 16.589 30.966 14.685 7.867-16.589c1.304-2.749.132-6.034-2.616-7.337z" fill="#ffea92"/><path d="m172.135 34.278h34.271v15.912h-34.271z" fill="#4671c6" transform="matrix(.904 .429 -.429 .904 36.351 -77.026)"/><path d="m208.163 42.387 5.247 5.945c2.43 2.753 2.985 6.69 1.412 10.008l-31.15 65.687c-.77 1.624-2.711 2.316-4.335 1.546-1.594-.756-2.296-2.645-1.581-4.259l27.011-60.947c.403-.91.008-1.976-.892-2.403l-2.53-1.2z" fill="#4671c6"/><path d="m111.045 226.472-14.93-7.08-10.234 21.582c-.276.583.012 1.211.556 1.212l16.612.027c.32.001.638-.225.801-.568z" fill="#ffea92"/><path d="m95.167 208.537-3.323 7.008c-.389.821-.039 1.803.782 2.192l21.909 10.39c.821.389 1.803.039 2.192-.782l3.323-7.008z" fill="#4671c6"/><path d="m40.551 248.035h67.31c.991 0 1.487-1.198.787-1.899l-8.39-8.39c-.209-.209-.492-.326-.787-.326h-58.92c-.614 0-1.112.498-1.112 1.112v8.39c-.001.615.497 1.113 1.112 1.113z" fill="#ffea92"/><g fill="#3762cc"><path d="m103.051 244.212c-.001 0-.003 0-.004 0l-16.612-.027c-.908-.001-1.741-.462-2.228-1.233-.528-.837-.578-1.897-.133-2.835l10.234-21.581c.473-.998 1.666-1.424 2.663-.95l14.93 7.08c.998.473 1.424 1.666.951 2.664l-7.194 15.172c-.495 1.04-1.518 1.71-2.607 1.71zm-14.584-4.024 13.85.022 6.064-12.789-11.315-5.366z"/><path d="m122.213 223.169c-.55 0-1.107-.119-1.637-.37 0 0 0 0-.001 0l-27.647-13.111c-.925-.438-1.625-1.212-1.969-2.177-.345-.965-.292-2.007.147-2.933l77.466-163.355c.227-.479.635-.849 1.135-1.027.501-.178 1.05-.151 1.529.077l30.966 14.685c.998.473 1.423 1.666.949 2.664l-77.466 163.356c-.655 1.381-2.035 2.191-3.472 2.191zm-27.422-17.025 27.351 12.971 76.539-161.401-27.352-12.971z"/><path d="m208.163 44.387c-.294 0-.587-.064-.857-.193l-30.966-14.684c-.998-.473-1.423-1.666-.949-2.664l7.866-16.589c1.773-3.74 6.261-5.341 10-3.567l21.014 9.965c1.812.859 3.181 2.373 3.854 4.262.674 1.889.571 3.927-.288 5.739l-7.865 16.589c-.228.479-.636.849-1.136 1.027-.219.077-.446.115-.673.115zm-28.302-17.635 27.352 12.971 7.01-14.782c.401-.847.449-1.799.134-2.682-.314-.882-.954-1.589-1.801-1.991l-21.013-9.965c-1.747-.829-3.844-.081-4.673 1.667z"/><path d="m201.344 58.765c-.287 0-.579-.062-.856-.193l-30.966-14.685c-.479-.228-.849-.636-1.026-1.135s-.15-1.05.077-1.529l6.818-14.377c.474-.999 1.664-1.423 2.664-.95l30.966 14.685c.479.228.849.636 1.026 1.135s.15 1.05-.077 1.529l-6.818 14.377c-.342.72-1.06 1.143-1.808 1.143zm-28.301-17.636 27.352 12.971 5.104-10.763-27.352-12.971z"/><path d="m180.727 127.89c-.768 0-1.532-.17-2.247-.509-2.594-1.23-3.716-4.251-2.552-6.876l26.945-60.802-2.386-1.131c-.998-.474-1.423-1.666-.949-2.664l6.818-14.377c.288-.607.861-1.03 1.527-1.124.67-.094 1.334.153 1.779.657l5.246 5.945c2.963 3.357 3.638 8.141 1.72 12.188l-31.151 65.688c-.601 1.268-1.659 2.226-2.981 2.697-.577.206-1.174.308-1.769.308zm23.282-72.076.724.343c1.896.898 2.714 3.104 1.862 5.021l-27.011 60.946c-.277.626-.01 1.347.61 1.641.303.145.644.16.958.048.315-.112.568-.341.711-.643l31.151-65.688c1.231-2.599.799-5.671-1.104-7.827l-3.239-3.671zm-.99 3.957h.01z"/><path d="m115.234 230.285c-.522 0-1.053-.113-1.556-.351l-21.91-10.39c-1.816-.862-2.594-3.041-1.731-4.857l3.322-7.008c.228-.479.636-.849 1.136-1.027.501-.178 1.051-.151 1.529.077l24.884 11.8c.479.228.849.636 1.026 1.135s.15 1.05-.077 1.529l-3.323 7.008c-.623 1.314-1.934 2.084-3.3 2.084zm-21.431-14.203 21.27 10.086 2.314-4.881-21.27-10.086z"/></g></svg>