<svg id="Layer_1" enable-background="new 0 0 256 256" height="512" viewBox="0 0 256 256" width="512" xmlns="http://www.w3.org/2000/svg"><circle cx="128" cy="180.33" fill="#ffea92" r="67.5"/><circle cx="128" cy="180.33" fill="#e0ebfc" r="52.5"/><path d="m196.388 8.17h46.642c1.801 0 2.685 2.23 1.385 3.497l-96.748 94.361h-39.333l86.571-97.19c.379-.425.917-.668 1.483-.668z" fill="#f9a7a7"/><path d="m147.667 108.028h-39.333c-.788 0-1.502-.463-1.825-1.182s-.193-1.561.331-2.148l86.571-97.189c.758-.851 1.843-1.339 2.977-1.339h46.642c1.629 0 3.082.981 3.7 2.501.625 1.536.265 3.274-.918 4.429l-96.748 94.36c-.375.364-.876.568-1.397.568zm-34.874-4h34.059l96.166-93.792-46.621-.066z" fill="#3762cc"/><g fill="#4671c6"><path d="m118.549 145.908c-12.932 8.573-18.017 6.356-18.017 11.838v.873c0 3.261 3.315 5.475 6.327 4.226l.088-.036c3.498-1.455 7.523-3.514 10.542-5.77v56.941c0 2.865 2.323 5.188 5.188 5.188 2.865 0 5.188-2.323 5.188-5.188v-68.365c0-1.834-1.486-3.32-3.32-3.32-1.786-.001-1.815.838-5.996 3.613z"/><path d="m135.577 146.447c-.404-.531.146-1.472 1.711-1.472 2.055 0 1.678 1.245 2.678 2.208 1.106 1.061 3.568-.208 2.37-2.645-1.818-3.697-10.316-3.284-10.316 1.754 0 4.603 6.046 4.009 7.349 5.336.389.398.421 1.21-.287 1.738-.776.579-2.185.571-2.828.238-.399-.206-.729-.465-1.146-1.504-.893-2.288-3.341-1.431-3.341.282 0 3.749 5.244 5.383 8.759 3.782 3.071-1.396 3.034-4.578 2.298-5.999-1.469-2.851-6.342-2.501-7.247-3.718z"/><path d="m145.101 142.342c-2.441 0-2.499 3.166 0 3.166h2.445v9.131c0 2.82 3.627 2.858 3.627 0v-9.131c1.819 0 4.294.43 4.294-1.578 0-2.055-1.689-1.588-10.366-1.588z"/></g><path d="m128 112.83c10.779 0 20.961 2.54 30 7.033v-16.026c0-4.418-3.582-8-8-8h-44c-4.418 0-8 3.582-8 8v16.026c9.039-4.493 19.221-7.033 30-7.033z" fill="#ffea92"/><path d="m128 249.83c-38.322 0-69.5-31.178-69.5-69.5s31.178-69.5 69.5-69.5 69.5 31.178 69.5 69.5-31.178 69.5-69.5 69.5zm0-135c-36.117 0-65.5 29.383-65.5 65.5s29.383 65.5 65.5 65.5 65.5-29.383 65.5-65.5-29.383-65.5-65.5-65.5z" fill="#3762cc"/><path d="m158 121.862c-.304 0-.609-.069-.89-.209-9.109-4.528-18.903-6.824-29.11-6.824s-20 2.296-29.11 6.824c-.62.308-1.355.274-1.943-.091-.589-.365-.947-1.008-.947-1.7v-16.025c0-5.514 4.486-10 10-10h44c5.514 0 10 4.486 10 10v16.025c0 .692-.358 1.335-.947 1.7-.321.2-.687.3-1.053.3zm-30-11.033c9.758 0 19.162 1.979 28 5.886v-12.878c0-3.309-2.691-6-6-6h-44c-3.309 0-6 2.691-6 6v12.878c8.838-3.907 18.242-5.886 28-5.886z" fill="#3762cc"/><path d="m59.612 8.17h-46.641c-1.801 0-2.685 2.23-1.385 3.497l96.167 93.795c.372.363.869.566 1.385.566h36.275c.867 0 1.323-1.044.742-1.697l-85.06-95.492c-.379-.426-.917-.669-1.483-.669z" fill="#f9a7a7"/><path d="m145.413 108.028h-36.275c-1.043 0-2.031-.403-2.782-1.135l-96.167-93.793c-1.183-1.154-1.544-2.893-.918-4.429.618-1.52 2.071-2.501 3.7-2.501h46.642c1.134 0 2.219.488 2.977 1.339l85.06 95.492c.791.889.987 2.165.5 3.252-.486 1.078-1.56 1.775-2.737 1.775zm-132.442-97.858 96.179 93.86 34.058-.002-83.606-93.859zm46.641 0h.01z" fill="#3762cc"/><path d="m128 235.83c-30.603 0-55.5-24.897-55.5-55.5s24.897-55.5 55.5-55.5 55.5 24.897 55.5 55.5-24.897 55.5-55.5 55.5zm0-105c-27.294 0-49.5 22.206-49.5 49.5s22.206 49.5 49.5 49.5 49.5-22.206 49.5-49.5-22.206-49.5-49.5-49.5z" fill="#a4c9ff"/></svg>