<svg id="Layer_1" enable-background="new 0 0 256 256" height="512" viewBox="0 0 256 256" width="512" xmlns="http://www.w3.org/2000/svg"><path d="m233 221.913h-210c-8.284 0-15-6.716-15-15v-157.826c0-8.284 6.716-15 15-15h210c8.284 0 15 6.716 15 15v157.826c0 8.284-6.716 15-15 15z" fill="#6bdddd"/><path d="m190.338 190.549h-7.714c-20.448 0-37.025-16.577-37.025-37.025v-47.192c0-22.578 18.303-40.882 40.882-40.882 22.578 0 40.882 18.303 40.882 40.882v47.192c.001 20.449-16.576 37.025-37.025 37.025z" fill="#4671c6"/><path d="m145.6 106.333v11.038h81.764v-11.038c0-22.579-18.303-40.882-40.882-40.882-22.579 0-40.882 18.303-40.882 40.882z" fill="#4671c6"/><g fill="#3762cc"><path d="m190.339 192.549h-7.714c-21.519 0-39.025-17.506-39.025-39.025v-47.192c0-23.645 19.236-42.882 42.882-42.882s42.882 19.237 42.882 42.882v47.192c-.001 21.519-17.507 39.025-39.025 39.025zm-3.858-125.098c-21.439 0-38.882 17.442-38.882 38.882v47.192c0 19.313 15.712 35.025 35.025 35.025h7.714c19.313 0 35.024-15.712 35.024-35.025v-47.192c.001-21.44-17.441-38.882-38.881-38.882z"/><path d="m227.363 119.371h-81.763c-1.104 0-2-.896-2-2v-11.038c0-23.645 19.236-42.882 42.882-42.882s42.882 19.237 42.882 42.882v11.038c-.001 1.104-.896 2-2.001 2zm-79.763-4h77.764v-9.038c0-21.439-17.442-38.882-38.882-38.882s-38.882 17.442-38.882 38.882z"/><path d="m186.481 119.371c-1.104 0-2-.896-2-2v-51.92c0-1.104.896-2 2-2s2 .896 2 2v51.92c0 1.104-.895 2-2 2z"/></g><path d="m186.277 103.675c-2.709 0-4.906-2.196-4.906-4.906v-14.717c0-2.709 2.196-4.906 4.906-4.906 2.709 0 4.906 2.196 4.906 4.906v14.718c0 2.709-2.196 4.905-4.906 4.905z" fill="#e0ebfc"/><path d="m186.277 105.675c-3.809 0-6.906-3.098-6.906-6.906v-14.717c0-3.808 3.098-6.906 6.906-6.906s6.905 3.098 6.905 6.906v14.718c.001 3.807-3.097 6.905-6.905 6.905zm0-24.529c-1.603 0-2.906 1.304-2.906 2.906v14.718c0 1.602 1.304 2.906 2.906 2.906s2.905-1.304 2.905-2.906v-14.718c.001-1.602-1.303-2.906-2.905-2.906z" fill="#3762cc"/><path d="m233 223.913h-210c-9.374 0-17-7.626-17-17v-157.826c0-9.374 7.626-17 17-17h210c9.374 0 17 7.626 17 17v157.826c0 9.374-7.626 17-17 17zm-210-187.826c-7.168 0-13 5.832-13 13v157.826c0 7.168 5.832 13 13 13h210c7.168 0 13-5.832 13-13v-157.826c0-7.168-5.832-13-13-13z" fill="#3762cc"/></svg>