<svg id="Layer_1" enable-background="new 0 0 256 256" height="512" viewBox="0 0 256 256" width="512" xmlns="http://www.w3.org/2000/svg"><path d="m174.452 6.25h-104.112c-10.201 0-18.5 8.299-18.5 18.5v7.5c0 10.201 8.299 18.5 18.5 18.5h60.91c4.136 0 7.5 3.364 7.5 7.5s-3.364 7.5-7.5 7.5h-16.989c-4.687 0-8.5 3.813-8.5 8.5v10.625c1.158-.074 2.323-.125 3.5-.125 1.177 0 2.341.051 3.5.125v-10.625c0-.827.673-1.5 1.5-1.5h16.989c7.995 0 14.5-6.505 14.5-14.5s-6.505-14.5-14.5-14.5h-60.91c-6.341 0-11.5-5.159-11.5-11.5v-7.5c0-6.341 5.159-11.5 11.5-11.5h104.112c6.341 0 11.5 5.159 11.5 11.5v53.393c.16-.006.317-.024.479-.024h6.043c.161 0 .318.018.478.024v-53.393c0-10.201-8.299-18.5-18.5-18.5z" fill="#6bdddd"/><path d="m114.348 249.75h-10.174c-26.971 0-48.835-21.864-48.835-48.835v-62.244c0-29.78 24.141-53.922 53.922-53.922 29.78 0 53.922 24.141 53.922 53.922v62.244c0 26.971-21.864 48.835-48.835 48.835z" fill="#4671c6"/><path d="m55.34 138.672v14.559h107.843v-14.559c0-29.78-24.141-53.922-53.921-53.922-29.781 0-53.922 24.141-53.922 53.922z" fill="#4671c6"/><path d="m186.431 78.119h6.043c6.454 0 11.686 5.232 11.686 11.686v23.661c0 1.11-.9 2.011-2.011 2.011h-25.395c-1.11 0-2.011-.9-2.011-2.011v-23.661c.002-6.454 5.234-11.686 11.688-11.686z" fill="#a4c9ff"/><path d="m198.322 132.048h-17.739c-1.275 0-2.308-1.033-2.308-2.308v-14.262h22.356v14.262c-.001 1.274-1.034 2.308-2.309 2.308z" fill="#e0ebfc"/><path d="m184.01 118.883c-1.204 0-2.183.978-2.183 2.18v5.384c0 1.202.979 2.18 2.183 2.18 1.205 0 2.184-.978 2.184-2.18v-5.384c0-1.203-.979-2.18-2.184-2.18z" fill="#4671c6"/><path d="m194.894 118.883c-1.205 0-2.184.978-2.184 2.18v5.384c0 1.202.979 2.18 2.184 2.18 1.204 0 2.183-.978 2.183-2.18v-5.384c.001-1.203-.979-2.18-2.183-2.18z" fill="#4671c6"/><g fill="#3762cc"><path d="m202.149 117.477h-25.395c-2.212 0-4.011-1.799-4.011-4.011v-23.661c0-7.546 6.14-13.686 13.687-13.686h6.043c7.547 0 13.687 6.14 13.687 13.686v23.661c0 2.212-1.799 4.011-4.011 4.011zm-15.718-37.358c-5.341 0-9.687 4.345-9.687 9.686v23.661l25.405.011.011-23.672c0-5.341-4.346-9.686-9.687-9.686z"/><path d="m198.322 134.048h-17.739c-2.376 0-4.309-1.933-4.309-4.309v-14.262c0-1.104.896-2 2-2h22.355c1.104 0 2 .896 2 2v14.262c.001 2.376-1.932 4.309-4.307 4.309zm-18.048-16.571v12.262c0 .17.139.309.309.309h17.739c.17 0 .308-.139.308-.309v-12.262z"/><path d="m114.349 251.75h-10.174c-28.03 0-50.835-22.804-50.835-50.834v-62.244c0-30.835 25.087-55.921 55.922-55.921s55.921 25.086 55.921 55.921v62.244c0 28.03-22.804 50.834-50.834 50.834zm-5.087-165c-28.63 0-51.922 23.292-51.922 51.921v62.244c0 25.825 21.01 46.834 46.835 46.834h10.174c25.824 0 46.834-21.01 46.834-46.834v-62.244c0-28.629-23.292-51.921-51.921-51.921z"/><path d="m163.183 155.23h-107.843c-1.104 0-2-.896-2-2v-14.559c0-30.835 25.087-55.921 55.922-55.921s55.921 25.086 55.921 55.921v14.559c0 1.105-.896 2-2 2zm-105.843-4h103.843v-12.559c0-28.629-23.292-51.921-51.921-51.921-28.63 0-51.922 23.292-51.922 51.921z"/><path d="m109.262 155.23c-1.104 0-2-.896-2-2v-68.48c0-1.104.896-2 2-2s2 .896 2 2v68.48c0 1.105-.896 2-2 2z"/></g><path d="m108.992 135.167c-3.574 0-6.471-2.897-6.471-6.471v-19.412c0-3.574 2.897-6.471 6.471-6.471 3.574 0 6.471 2.897 6.471 6.471v19.412c-.001 3.574-2.898 6.471-6.471 6.471z" fill="#e0ebfc"/><path d="m108.992 137.167c-4.671 0-8.471-3.8-8.471-8.47v-19.412c0-4.67 3.8-8.47 8.471-8.47s8.471 3.8 8.471 8.47v19.412c0 4.67-3.8 8.47-8.471 8.47zm0-32.353c-2.465 0-4.471 2.005-4.471 4.47v19.412c0 2.465 2.006 4.47 4.471 4.47s4.471-2.005 4.471-4.47v-19.412c0-2.465-2.006-4.47-4.471-4.47z" fill="#3762cc"/></svg>