<svg id="Layer_1" enable-background="new 0 0 256 256" height="512" viewBox="0 0 256 256" width="512" xmlns="http://www.w3.org/2000/svg"><path d="m242.002 201.458h-228c-3.314 0-6-2.686-6-6v-158c0-3.314 2.686-6 6-6h228c3.314 0 6 2.686 6 6v158c0 3.313-2.687 6-6 6z" fill="#e0ebfc"/><path d="m20.002 186.458v-140c0-1.657 1.343-3 3-3h210c1.657 0 3 1.343 3 3v140c0 1.657-1.343 3-3 3h-210c-1.657 0-3-1.343-3-3z" fill="#a4c9ff"/><path d="m242.001 203.458h-228c-4.411 0-8-3.589-8-8v-158c0-4.411 3.589-8 8-8h228c4.411 0 8 3.589 8 8v158c0 4.411-3.588 8-8 8zm-228-170c-2.206 0-4 1.794-4 4v158c0 2.206 1.794 4 4 4h228c2.206 0 4-1.794 4-4v-158c0-2.206-1.794-4-4-4z" fill="#3762cc"/><path d="m233.001 191.458h-210c-2.757 0-5-2.243-5-5v-140c0-2.757 2.243-5 5-5h210c2.757 0 5 2.243 5 5v140c0 2.757-2.243 5-5 5zm-210-146c-.551 0-1 .448-1 1v140c0 .552.449 1 1 1h210c.551 0 1-.448 1-1v-140c0-.552-.449-1-1-1z" fill="#3762cc"/><path d="m222.651 62.884c-.194 0-.39.021-.581.062l-32.133 6.947c-1.249.27-2.156 1.394-2.156 2.673v.746 6.788 19.914c-4.263-1.203-9.279.095-12.185 3.34-1.721 1.923-2.45 4.231-2.049 6.499 1.31 7.427 12.898 9.023 18.385 2.896 1.537-1.717 2.276-3.74 2.133-5.769.005-.074.022-.145.022-.221v-24.634l24.989-5.402v17.746c-7.416-2.093-15.37 3.398-14.234 9.839 1.309 7.425 12.897 9.024 18.385 2.896 2.971-3.318 2.156-3.807 2.156-34.049v-5.549-1.985c-.001-1.51-1.226-2.737-2.732-2.737z" fill="#f9a7a7"/><path d="m167.628 95.253c0-1.739-1.414-3.153-3.153-3.153s-3.153 1.414-3.153 3.153v26.702c-7.416-2.093-15.37 3.397-14.234 9.839 1.309 7.426 12.897 9.024 18.385 2.896 1.537-1.717 2.276-3.74 2.133-5.768.005-.074.022-.146.022-.221z" fill="#f9a7a7"/><path d="m111.587 171.878h-8.615c-.019-.001-.037-.004-.056-.004l-.003.004h-56.671c-14.972 0-27.109 12.137-27.109 27.109v24.612h119.563c0-9.177 0-15.439 0-24.612 0-14.972-12.137-27.109-27.109-27.109z" fill="#4671c6"/><path d="m138.696 225.598h-119.563c-1.104 0-2-.896-2-2v-24.611c0-16.051 13.058-29.108 29.109-29.108h56.551c.075-.005.15-.005.247 0h8.547c16.051 0 29.109 13.058 29.109 29.108v24.611c0 1.104-.895 2-2 2zm-117.563-4h115.563v-22.611c0-13.845-11.264-25.108-25.109-25.108h-8.615c-.02 0-.039 0-.059 0h-56.671c-13.845 0-25.109 11.264-25.109 25.108z" fill="#3762cc"/><path d="m130.877 95.409-8.687-6.254c-6.853-4.934-11.177-12.419-12.233-20.526l-.287-1.175c-9.902 10.61-26.626 17.897-39.786 19.573 0 0-4.655.62-7.03.802-15.409 1.183-26.765-1.864-35.048-6.374-.531 2.952-.824 5.986-.824 9.09v4.864c-.11-.002-.218-.017-.328-.017-8.753 0-15.848 7.031-15.848 15.706 0 8.674 7.096 15.706 15.848 15.706.575 0 1.141-.034 1.7-.093 5.361 22.774 25.961 39.745 50.575 39.745s45.215-16.971 50.575-39.745c.559.059 1.126.093 1.7.093 8.753 0 15.848-7.032 15.848-15.706.001-8.799-7.294-15.886-16.175-15.689z" fill="#f9cfcf"/><path d="m78.947 144.409c-3.557 0-6.875-1.287-9.102-3.533-1.685-1.697-2.612-3.84-2.612-6.032 0-1.104.896-2 2-2s2 .896 2 2c0 1.146.502 2.258 1.452 3.215 1.459 1.472 3.801 2.351 6.262 2.351 2.468 0 4.732-.856 6.213-2.35.95-.957 1.452-2.069 1.452-3.216 0-1.104.896-2 2-2s2 .896 2 2c0 2.193-.928 4.336-2.613 6.033-2.225 2.244-5.525 3.532-9.052 3.532z" fill="#3762cc"/><path d="m53.232 123.096c-3.285 0-5.958-2.672-5.958-5.957v-9.929c0-3.285 2.673-5.957 5.958-5.957 3.284 0 5.957 2.673 5.957 5.957v9.929c0 3.285-2.672 5.957-5.957 5.957z" fill="#3762cc"/><path d="m104.615 123.096c-3.285 0-5.958-2.672-5.958-5.957v-9.929c0-3.285 2.673-5.957 5.958-5.957 3.284 0 5.957 2.673 5.957 5.957v9.929c-.001 3.285-2.673 5.957-5.957 5.957z" fill="#3762cc"/><path d="m16.653 73.017c-1.002 5.295-1.176 10.761-.435 16.203l1.241 9.102c2.595-1.836 5.763-2.929 9.195-2.929.111 0 .218.014.328.017v-4.864c0-3.104.297-6.136.829-9.088-4.624-2.519-8.287-5.488-11.158-8.441z" fill="#4671c6"/><path d="m192.302 239.542h-57.842v-88.069h57.842c1.165 0 2.109.944 2.109 2.109v83.851c0 1.165-.944 2.109-2.109 2.109z" fill="#4671c6"/><path d="m134.46 239.542h-9.992v-85.433c0-1.456 1.18-2.636 2.636-2.636h7.355v88.069z" fill="#6bdddd"/><path d="m184.072 179.687h-39.273c-1.165 0-2.109-.944-2.109-2.109v-12.478c0-1.165.944-2.109 2.109-2.109h39.273c1.165 0 2.109.944 2.109 2.109v12.477c0 1.165-.944 2.11-2.109 2.11z" fill="#e0ebfc"/><path d="m192.302 241.542h-57.842c-1.104 0-2-.896-2-2v-88.069c0-1.104.896-2 2-2h57.842c2.266 0 4.109 1.844 4.109 4.109v83.851c0 2.265-1.843 4.109-4.109 4.109zm-55.842-4h55.842c.061 0 .109-.049.109-.109v-83.851c0-.061-.049-.109-.109-.109h-55.842z" fill="#3762cc"/><path d="m134.46 241.542h-9.992c-1.104 0-2-.896-2-2v-85.433c0-2.557 2.08-4.637 4.637-4.637h7.355c1.104 0 2 .896 2 2v88.069c0 1.105-.896 2.001-2 2.001zm-7.992-4h5.992v-84.069h-5.355c-.351 0-.637.285-.637.637z" fill="#3762cc"/><path d="m184.072 181.687h-39.273c-2.266 0-4.109-1.844-4.109-4.109v-12.477c0-2.266 1.843-4.109 4.109-4.109h39.273c2.266 0 4.109 1.844 4.109 4.109v12.477c0 2.265-1.843 4.109-4.109 4.109zm-39.273-16.696c-.061 0-.109.049-.109.109v12.477c0 .061.049.109.109.109h39.273c.06 0 .109-.049.109-.109v-12.477c0-.061-.049-.109-.109-.109z" fill="#3762cc"/><path d="m106.118 166.661 1.648 5.217-13 20.792c-1.195 1.912-3.993 1.871-5.133-.074l-10.726-18.315 23.708-9.294c1.432-.561 3.04.207 3.503 1.674z" fill="#e0ebfc"/><path d="m92.226 196.08c-.025 0-.05 0-.075 0-1.765-.026-3.351-.95-4.243-2.474l-10.726-18.314c-.296-.505-.355-1.113-.164-1.666s.615-.993 1.16-1.207l23.708-9.294c1.197-.467 2.547-.42 3.706.134 1.16.554 2.046 1.574 2.434 2.8l1.648 5.217c.176.559.099 1.166-.211 1.663l-13 20.793c-.923 1.474-2.503 2.348-4.237 2.348zm-10.41-20.791 9.543 16.296c.257.439.68.492.849.495.15-.017.592-.039.862-.47l12.51-20.01-1.37-4.337s0 0 0-.001c-.075-.236-.247-.349-.343-.395-.096-.047-.293-.11-.521-.019z" fill="#3762cc"/><path d="m51.704 166.661-1.648 5.217 12.999 20.793c1.195 1.912 3.993 1.871 5.133-.074l10.726-18.315-23.708-9.294c-1.431-.562-3.039.206-3.502 1.673z" fill="#e0ebfc"/><g fill="#3762cc"><path d="m65.597 196.08c-1.735 0-3.314-.874-4.237-2.349l-12.999-20.793c-.311-.497-.388-1.104-.211-1.663l1.647-5.217c.387-1.226 1.274-2.246 2.434-2.8 1.159-.554 2.51-.602 3.706-.134l23.708 9.294c.544.214.968.654 1.16 1.207s.132 1.161-.164 1.666l-10.726 18.314c-.892 1.522-2.477 2.447-4.242 2.474-.026.001-.051.001-.076.001zm-13.355-24.479 12.51 20.01c.27.431.688.451.862.47.169-.003.592-.056.849-.495l9.544-16.296-21.529-8.439c-.23-.092-.426-.028-.522.019-.096.046-.269.158-.344.396z"/><path d="m59.45 128.042h-12.436c-7.713 0-13.988-6.274-13.988-13.987v-4.766c0-7.713 6.275-13.987 13.988-13.987h12.436c7.712 0 13.987 6.274 13.987 13.987v4.766c0 7.713-6.275 13.987-13.987 13.987zm-12.436-28.74c-5.507 0-9.988 4.48-9.988 9.987v4.766c0 5.507 4.48 9.987 9.988 9.987h12.436c5.507 0 9.987-4.48 9.987-9.987v-4.766c0-5.507-4.48-9.987-9.987-9.987z"/><path d="m110.832 128.042h-12.436c-7.713 0-13.988-6.274-13.988-13.987v-4.766c0-7.713 6.275-13.987 13.988-13.987h12.436c7.712 0 13.987 6.274 13.987 13.987v4.766c0 7.713-6.275 13.987-13.987 13.987zm-12.436-28.74c-5.507 0-9.988 4.48-9.988 9.987v4.766c0 5.507 4.48 9.987 9.988 9.987h12.436c5.507 0 9.987-4.48 9.987-9.987v-4.766c0-5.507-4.48-9.987-9.987-9.987z"/><path d="m88.598 114.174h-19.38c-1.104 0-2-.896-2-2s.896-2 2-2h19.38c1.104 0 2 .896 2 2s-.896 2-2 2z"/></g><path d="m129.901 51.605c-2.14-2.79-5.784-3.961-9.148-2.942l-2.653.804c-.264 6.642-3.499 12.735-8.424 18.008l.282 1.151c0 .001-.001.001-.001.002 1.055 8.107 5.379 15.593 12.233 20.526l8.687 6.254c.11-.002.218-.017.328-.017 2.745 0 5.327.692 7.578 1.91l1.102-8.082c1.822-13.368-1.772-26.91-9.984-37.614z" fill="#4671c6"/><path d="m17.459 100.321c-.27 0-.541-.055-.796-.165-.642-.278-1.091-.872-1.185-1.564l-1.241-9.102c-.76-5.576-.608-11.243.451-16.846.139-.733.674-1.328 1.389-1.543.716-.217 1.49-.014 2.01.521 3.102 3.191 6.695 5.908 10.68 8.077.757.412 1.165 1.263 1.012 2.111-.529 2.936-.797 5.874-.797 8.733v4.864c0 .536-.216 1.051-.598 1.427-.383.376-.886.604-1.437.573-.088-.002-.174-.007-.261-.014-.005 0-.011 0-.016 0-2.919 0-5.692.886-8.055 2.559-.343.244-.748.369-1.156.369zm.602-23.218c-.441 3.957-.395 7.927.139 11.846l.838 6.143c1.871-.883 3.875-1.431 5.945-1.623v-2.925c0-2.638.21-5.334.625-8.033-2.7-1.572-5.225-3.381-7.547-5.408z" fill="#3762cc"/><path d="m138.783 99.302c-.328 0-.655-.08-.952-.241-2.019-1.092-4.311-1.669-6.626-1.669-.119.01-.206.015-.292.017-.429.02-.854-.125-1.204-.377l-8.687-6.254c-7.125-5.129-11.872-13.067-13.035-21.795l-.253-1.032c-.161-.656.02-1.349.481-1.842 5.005-5.357 7.659-10.984 7.887-16.722.034-.852.604-1.588 1.418-1.835l2.652-.804c4.139-1.253 8.685.21 11.315 3.639 8.477 11.051 12.26 25.303 10.378 39.104l-1.102 8.082c-.088.65-.491 1.216-1.076 1.513-.283.143-.594.216-.904.216zm-7.281-5.907c1.932.031 3.846.376 5.657 1.01l.744-5.455c1.738-12.75-1.757-25.918-9.589-36.127-1.624-2.116-4.429-3.021-6.981-2.246l-1.333.403c-.583 5.918-3.312 11.644-8.127 17.053l.028.115c.023.096.04.192.049.289 1.014 7.646 5.17 14.603 11.409 19.094z" fill="#3762cc"/><path d="m78.93 168.454c-24.633 0-45.823-16.221-52.111-39.652-.055.001-.11.001-.165.001-9.841 0-17.848-7.942-17.848-17.705 0-9.204 7.116-16.791 16.177-17.629v-2.925c0-3.112.288-6.29.855-9.444.114-.632.524-1.171 1.104-1.449.58-.276 1.256-.261 1.821.047 9.337 5.084 20.755 7.148 33.938 6.136 2.293-.177 6.874-.784 6.92-.79 13.968-1.779 29.831-9.573 38.587-18.955.501-.537 1.257-.753 1.968-.571.711.187 1.263.747 1.438 1.46l.288 1.176c.018.072.031.145.041.218.999 7.673 5.16 14.656 11.417 19.161l8.161 5.875c4.604.069 8.921 1.861 12.22 5.088 3.427 3.352 5.314 7.828 5.314 12.604 0 9.763-8.007 17.705-17.848 17.705-.055 0-.11 0-.165-.001-6.29 23.429-27.479 39.65-52.112 39.65zm-50.574-43.744c.918 0 1.731.631 1.945 1.542 5.294 22.493 25.291 38.202 48.628 38.202s43.333-15.709 48.628-38.202c.23-.98 1.155-1.622 2.155-1.531.525.056 1.013.082 1.492.082 7.636 0 13.848-6.148 13.848-13.705 0-3.69-1.46-7.151-4.111-9.744-2.687-2.628-6.251-4.001-10.021-3.946-.452.028-.86-.122-1.213-.376l-8.687-6.254c-6.433-4.631-10.927-11.553-12.596-19.277-10.977 10.102-26.76 16.041-38.287 17.509-.181.023-4.726.627-7.129.812-12.814.985-24.118-.809-33.642-5.33-.254 2.03-.383 4.057-.383 6.053v4.864c0 .536-.216 1.051-.598 1.427-.383.376-.886.604-1.437.573-.088-.002-.174-.007-.261-.014-.002 0-.004 0-.006 0-7.666 0-13.875 6.147-13.875 13.703 0 7.557 6.212 13.705 13.848 13.705.479 0 .966-.026 1.492-.082.07-.007.141-.011.21-.011z" fill="#3762cc"/><path d="m55.207 164.988 23.704 9.292 23.704-9.292c.134-.053.27-.082.406-.112v-4.3c-7.203 3.749-15.398 5.878-24.1 5.878-8.713 0-16.917-2.135-24.127-5.892v4.312c.139.03.277.06.413.114z" fill="#f9cfcf"/><path d="m78.911 176.28c-.248 0-.495-.046-.73-.138l-23.682-9.284c-.044-.013-.088-.021-.133-.03-.917-.201-1.572-1.015-1.572-1.954v-4.312c0-.699.365-1.348.963-1.71.598-.363 1.342-.387 1.961-.063 7.112 3.706 15.135 5.665 23.202 5.665 8.059 0 16.073-1.954 23.177-5.652.621-.321 1.364-.298 1.961.064.598.362.962 1.011.962 1.71v4.3c0 .942-.657 1.756-1.578 1.955l-.129.029-23.673 9.282c-.234.092-.481.138-.729.138zm-14.227-9.725 14.227 5.577 14.182-5.56c-9.233 2.491-19.177 2.483-28.409-.017zm-10.176.305h.01z" fill="#3762cc"/><path d="m110.966 31.561c-3.834-3.52-7.691-6.33-11.547-8.53h.005c-18.808-10.449-42.675-7.328-57.264 1.585h.015c-16.912 9.547-28.704 25.57-32.583 31.335-.27.33-1.246 1.702-1.389 2.146-.326 1.016-.269 2.178.213 3.198 3.577 7.571 17.198 29.392 54.438 26.532 2.376-.183 7.03-.802 7.03-.802 20.248-2.578 48.993-18.416 48.228-39.252-.229-6.255-2.805-12.227-7.146-16.212z" fill="#4671c6"/><path d="m56.365 90.082c-33.796 0-46.537-21.117-49.756-27.933-.684-1.445-.796-3.146-.31-4.662.268-.838 1.354-2.292 1.665-2.698 4.313-6.402 16.091-22.184 33.074-31.826.026-.019.053-.035.081-.053 14.268-8.718 38.904-12.945 59.278-1.627.038.021.075.043.11.065 4.052 2.323 8.025 5.263 11.813 8.739 4.7 4.313 7.54 10.732 7.792 17.611.823 22.397-29.027 38.643-49.974 41.311-.181.023-4.726.627-7.129.812-2.301.177-4.515.261-6.644.261zm-46.277-31.311c-.158.547-.109 1.151.136 1.67 2.958 6.259 14.696 25.638 46.181 25.64 2.018 0 4.112-.079 6.295-.247 2.292-.176 6.874-.784 6.92-.79 19.898-2.533 47.201-17.909 46.493-37.197-.213-5.817-2.583-11.216-6.5-14.811-3.597-3.303-7.36-6.084-11.186-8.267-.022-.013-.044-.026-.066-.04-18.883-10.438-41.696-6.554-55.007 1.503-.062.046-.127.088-.196.126-16.364 9.238-27.765 24.554-31.908 30.71-.036.054-.074.104-.114.153-.227.278-.88 1.224-1.048 1.55z" fill="#3762cc"/></svg>