<svg id="Layer_1" enable-background="new 0 0 256 256" height="512" viewBox="0 0 256 256" width="512" xmlns="http://www.w3.org/2000/svg"><path d="m200.928 234h-165.65c-3.314 0-6-2.686-6-6v-201c0-3.314 2.686-6 6-6h165.65c3.314 0 6 2.686 6 6v201c0 3.314-2.686 6-6 6z" fill="#e0ebfc"/><path d="m200.928 236h-165.651c-4.411 0-8-3.589-8-8v-201c0-4.411 3.589-8 8-8h165.65c4.411 0 8 3.589 8 8v201c.001 4.411-3.588 8-7.999 8zm-165.651-213c-2.206 0-4 1.794-4 4v201c0 2.206 1.794 4 4 4h165.65c2.206 0 4-1.794 4-4v-201c0-2.206-1.794-4-4-4z" fill="#3762cc"/><path d="m200.928 248h-165.65c-3.314 0-6-2.686-6-6v-207c0-3.314 2.686-6 6-6h165.65c3.314 0 6 2.686 6 6v207c0 3.314-2.686 6-6 6z" fill="#e0ebfc"/><path d="m183.103 75.75h-130c-2.209 0-4-1.791-4-4 0-2.209 1.791-4 4-4h130c2.209 0 4 1.791 4 4 0 2.209-1.791 4-4 4z" fill="#b9befc"/><path d="m183.103 213.75h-130c-2.209 0-4-1.791-4-4 0-2.209 1.791-4 4-4h130c2.209 0 4 1.791 4 4 0 2.209-1.791 4-4 4z" fill="#b9befc"/><path d="m200.928 250h-165.651c-4.411 0-8-3.589-8-8v-207c0-4.411 3.589-8 8-8h165.65c4.411 0 8 3.589 8 8v207c.001 4.411-3.588 8-7.999 8zm-165.651-219c-2.206 0-4 1.794-4 4v207c0 2.206 1.794 4 4 4h165.65c2.206 0 4-1.794 4-4v-207c0-2.206-1.794-4-4-4z" fill="#3762cc"/><path d="m58.103 48c-4.971 0-9-4.029-9-9v-22c0-4.971 4.029-9 9-9 4.971 0 9 4.029 9 9v22c0 4.971-4.03 9-9 9z" fill="#a4c9ff"/><path d="m98.103 48c-4.971 0-9-4.029-9-9v-22c0-4.971 4.029-9 9-9 4.971 0 9 4.029 9 9v22c0 4.971-4.03 9-9 9z" fill="#a4c9ff"/><path d="m138.103 48c-4.971 0-9-4.029-9-9v-22c0-4.971 4.029-9 9-9 4.971 0 9 4.029 9 9v22c0 4.971-4.03 9-9 9z" fill="#a4c9ff"/><path d="m178.103 48c-4.971 0-9-4.029-9-9v-22c0-4.971 4.029-9 9-9 4.971 0 9 4.029 9 9v22c0 4.971-4.03 9-9 9z" fill="#a4c9ff"/><g fill="#3762cc"><path d="m58.103 50c-6.065 0-11-4.935-11-11v-22c0-6.065 4.935-11 11-11s11 4.935 11 11v22c0 6.065-4.935 11-11 11zm0-40c-3.859 0-7 3.14-7 7v22c0 3.86 3.141 7 7 7s7-3.14 7-7v-22c0-3.86-3.141-7-7-7z"/><path d="m98.103 50c-6.065 0-11-4.935-11-11v-22c0-6.065 4.935-11 11-11s11 4.935 11 11v22c0 6.065-4.935 11-11 11zm0-40c-3.859 0-7 3.14-7 7v22c0 3.86 3.141 7 7 7s7-3.14 7-7v-22c0-3.86-3.141-7-7-7z"/><path d="m138.103 50c-6.065 0-11-4.935-11-11v-22c0-6.065 4.935-11 11-11s11 4.935 11 11v22c0 6.065-4.935 11-11 11zm0-40c-3.859 0-7 3.14-7 7v22c0 3.86 3.141 7 7 7s7-3.14 7-7v-22c0-3.86-3.141-7-7-7z"/><path d="m178.103 50c-6.065 0-11-4.935-11-11v-22c0-6.065 4.935-11 11-11s11 4.935 11 11v22c0 6.065-4.935 11-11 11zm0-40c-3.859 0-7 3.14-7 7v22c0 3.86 3.141 7 7 7s7-3.14 7-7v-22c0-3.86-3.141-7-7-7z"/></g><path d="m183.103 91.75h-130c-2.209 0-4-1.791-4-4 0-2.209 1.791-4 4-4h130c2.209 0 4 1.791 4 4 0 2.209-1.791 4-4 4z" fill="#b9befc"/><path d="m183.103 107.75h-130c-2.209 0-4-1.791-4-4 0-2.209 1.791-4 4-4h130c2.209 0 4 1.791 4 4 0 2.209-1.791 4-4 4z" fill="#b9befc"/><path d="m183.103 229.75h-130c-2.209 0-4-1.791-4-4 0-2.209 1.791-4 4-4h130c2.209 0 4 1.791 4 4 0 2.209-1.791 4-4 4z" fill="#b9befc"/><path d="m171.104 182.359c-.351.427-.921.275-1.011-.271l-.92-5.569-.464 1.794c-2.119 8.189-9.508 13.909-17.968 13.909-8.773 0-16.226-5.983-18.122-14.549l-7.688-34.732c-2.114-9.55-10.422-16.219-20.202-16.219-8.026 0-15.395 4.705-18.771 11.986l-4.87 10.501c-.868 1.873-2.632 1.953-3.161 1.936-.522-.02-2.282-.234-3.008-2.168l-9.678-25.809c-.581-1.553-2.311-2.336-3.862-1.756-1.551.582-2.337 2.311-1.755 3.862l9.678 25.809c1.347 3.592 4.565 5.913 8.398 6.057 3.837.149 7.217-1.927 8.831-5.407l4.87-10.501c2.397-5.17 7.629-8.511 13.328-8.511 6.944 0 12.843 4.736 14.345 11.516l7.688 34.732c2.509 11.335 12.37 19.252 23.979 19.252 11.194 0 20.972-7.569 23.776-18.406l.611-2.363z" fill="#b9befc"/><path d="m181.409 169.902-14.01-3.754c-.785-.21-1.251-1.017-1.04-1.802l13.297-49.625c.21-.785 1.017-1.251 1.802-1.04l14.01 3.754c.785.21 1.251 1.017 1.04 1.802l-13.297 49.625c-.211.784-1.017 1.25-1.802 1.04z" fill="#4671c6"/><path d="m167.464 166.165 13.879 3.719-10.239 12.474c-.351.427-.921.275-1.011-.271z" fill="#e0ebfc"/><path d="m216.66 47.217-17.738-4.753c-.392-.105-.624-.508-.519-.9l2.487-9.283c.105-.392.508-.624.9-.519l17.738 4.753z" fill="#4671c6"/><path d="m216.66 35.746-12.771-3.422 2.963-11.057c.63-2.351 3.047-3.746 5.398-3.116l4.257 1.141c2.351.63 3.746 3.047 3.116 5.398z" fill="#6bdddd"/><path d="m169.495 178.465.598 3.623c.09.545.66.698 1.011.271l2.33-2.838z" fill="#e0ebfc"/><path d="m170.639 184.606c-.218 0-.438-.028-.655-.087-.979-.262-1.692-1.07-1.863-2.107l-.599-3.621c-.11-.67.127-1.352.631-1.808.503-.457 1.203-.626 1.86-.45l3.938 1.056c.656.176 1.179.673 1.387 1.32s.073 1.355-.358 1.881l-2.329 2.838c-.519.631-1.253.978-2.012.978z" fill="#3762cc"/><path d="m213.733 92.197 12.788-47.724c.84-3.135-1.02-6.357-4.155-7.197l-4.257-1.141 1.419.38-2.868 10.702.346.093c1.132.303 1.828 1.439 1.585 2.586l-8.768 41.364c-.222 1.046.414 2.082 1.447 2.359 1.073.287 2.175-.35 2.463-1.422z" fill="#4671c6"/><path d="m216.66 49.217c-.174 0-.348-.022-.518-.068l-17.738-4.753c-.707-.189-1.297-.643-1.662-1.276-.364-.633-.461-1.37-.271-2.075l2.487-9.281c.392-1.457 1.896-2.325 3.349-1.933l17.738 4.752c1.067.286 1.7 1.382 1.414 2.449l-2.867 10.702c-.137.512-.473.949-.932 1.214-.306.178-.652.269-1 .269zm-15.998-8.358 14.584 3.908 1.832-6.838-14.584-3.907zm-.327 1.22-.001.003c0-.001.001-.002.001-.003z" fill="#3762cc"/><path d="m211.789 95.688c-.342 0-.689-.044-1.036-.137-2.061-.552-3.327-2.62-2.885-4.706l8.768-41.364c.021-.105-.043-.211-.147-.239l-.347-.093c-1.066-.286-1.699-1.383-1.413-2.449l2.368-8.839c-.758-.444-1.158-1.354-.92-2.243.285-1.066 1.378-1.703 2.449-1.414l4.257 1.141c4.195 1.124 6.693 5.451 5.569 9.646l-12.787 47.724v.001c-.48 1.788-2.105 2.972-3.876 2.972zm7.234-49.564c1.229.96 1.867 2.567 1.525 4.185l-8.769 41.365 1.953.523-1.932-.518 12.787-47.724c.553-2.065-.677-4.195-2.741-4.748l-.906-.243z" fill="#3762cc"/><path d="m216.659 37.747c-.174 0-.348-.022-.518-.068l-12.771-3.422c-1.067-.286-1.7-1.382-1.414-2.449l2.962-11.057c.914-3.413 4.435-5.443 7.848-4.531l4.257 1.141c1.653.442 3.035 1.503 3.891 2.985.855 1.482 1.083 3.208.64 4.862l-2.963 11.057c-.137.513-.473.949-.932 1.214-.306.177-.652.268-1 .268zm-10.321-6.837 8.907 2.387 2.445-9.125c.166-.621.081-1.27-.24-1.827s-.841-.955-1.462-1.121l-4.257-1.141c-1.277-.342-2.605.42-2.949 1.702z" fill="#3762cc"/><path d="m181.457 113.68 14.01 3.754c.477.128.833.477.994.906l19.134-71.409-16.319-4.373-19.134 71.409c.355-.29.838-.415 1.315-.287z" fill="#6bdddd"/><path d="m196.461 120.341c-.734 0-1.405-.403-1.754-1.04l-13.525-3.624c-.646.393-1.472.391-2.122-.027-.73-.471-1.074-1.36-.849-2.199l19.134-71.409c.286-1.066 1.378-1.703 2.449-1.414l16.319 4.372c.513.137.949.472 1.215.932.265.459.337 1.005.199 1.518l-19.134 71.409c-.225.839-.965 1.437-1.833 1.48-.033.001-.066.002-.099.002zm-13.709-8.384 12.456 3.337 17.938-66.948-12.456-3.337z" fill="#3762cc"/><path d="m170.639 184.606c-.218 0-.438-.029-.655-.087-.979-.262-1.692-1.069-1.863-2.106l-2.63-15.922c-.11-.67.127-1.351.631-1.808.503-.457 1.204-.627 1.86-.45l13.879 3.719c.656.176 1.179.673 1.387 1.32s.073 1.355-.358 1.881l-10.238 12.474c-.52.632-1.254.979-2.013.979zm-.697-15.706 1.612 9.758 6.274-7.645z" fill="#3762cc"/><path d="m181.787 171.952c-.296 0-.597-.038-.896-.118h-.001l-14.01-3.754c-1.849-.495-2.95-2.402-2.455-4.25l13.297-49.625c.496-1.851 2.403-2.953 4.252-2.455l14.01 3.754c1.849.495 2.95 2.402 2.455 4.25l-13.297 49.626c-.415 1.548-1.823 2.572-3.355 2.572zm-13.361-7.6 12.99 3.481 13.023-48.604-12.99-3.481z" fill="#3762cc"/></svg>