<svg id="Layer_1" enable-background="new 0 0 256 256" height="512" viewBox="0 0 256 256" width="512" xmlns="http://www.w3.org/2000/svg"><path d="m128 213.646h-115c-2.761 0-5-2.239-5-5v-148.25c0-2.761 2.239-5 5-5h106.063c4.936 0 8.937 4.001 8.937 8.937z" fill="#4671c6"/><path d="m128 213.646h115c2.761 0 5-2.239 5-5v-148.25c0-2.761-2.239-5-5-5h-106.063c-4.936 0-8.937 4.001-8.937 8.937z" fill="#4671c6"/><path d="m128 215.646h-115c-3.86 0-7-3.14-7-7v-148.25c0-3.86 3.14-7 7-7h106.063c6.03 0 10.937 4.906 10.937 10.937v149.313c0 1.104-.896 2-2 2zm-115-158.25c-1.654 0-3 1.346-3 3v148.25c0 1.654 1.346 3 3 3h113v-147.313c0-3.825-3.112-6.937-6.937-6.937z" fill="#3762cc"/><path d="m243 215.646h-115c-1.104 0-2-.896-2-2v-149.313c0-6.03 4.906-10.937 10.937-10.937h106.063c3.86 0 7 3.14 7 7v148.25c0 3.86-3.14 7-7 7zm-113-4h113c1.654 0 3-1.346 3-3v-148.25c0-1.654-1.346-3-3-3h-106.063c-3.825 0-6.937 3.112-6.937 6.937z" fill="#3762cc"/><path d="m228 47.146v8.25h-100-100v-8.25c-7.667.833-8.108 8.25-8.108 8.25v150h108.108 108.108v-150s-.441-7.417-8.108-8.25z" fill="#a4c9ff"/><path d="m236.108 207.396h-216.216c-1.104 0-2-.896-2-2v-150c0-.04.001-.079.003-.119.188-3.149 2.496-9.316 9.889-10.12.564-.061 1.129.121 1.551.5.423.38.665.921.665 1.489v6.25h196v-6.25c0-.568.242-1.109.665-1.489.422-.379.988-.561 1.551-.5 7.393.803 9.701 6.971 9.889 10.12.002.04.003.079.003.119v150c0 1.104-.896 2-2 2zm-214.216-4h212.216v-147.926c-.055-.643-.524-4.324-4.108-5.792v5.718c0 1.104-.896 2-2 2h-200c-1.104 0-2-.896-2-2v-5.717c-3.638 1.496-4.066 5.278-4.108 5.787z" fill="#3762cc"/><path d="m128 205.396h-100v-158.25h91.783c4.538 0 8.217 3.679 8.217 8.217z" fill="#e0ebfc"/><path d="m128 205.396h100v-158.25h-91.783c-4.538 0-8.217 3.679-8.217 8.217z" fill="#e0ebfc"/><g fill="#b9befc"><path d="m214.833 76.505h-71c-1.933 0-3.5-1.567-3.5-3.5 0-1.933 1.567-3.5 3.5-3.5h71c1.933 0 3.5 1.567 3.5 3.5 0 1.933-1.567 3.5-3.5 3.5z"/><path d="m214.833 96.505h-71c-1.933 0-3.5-1.567-3.5-3.5 0-1.933 1.567-3.5 3.5-3.5h71c1.933 0 3.5 1.567 3.5 3.5 0 1.933-1.567 3.5-3.5 3.5z"/><path d="m214.833 116.505h-71c-1.933 0-3.5-1.567-3.5-3.5 0-1.933 1.567-3.5 3.5-3.5h71c1.933 0 3.5 1.567 3.5 3.5 0 1.933-1.567 3.5-3.5 3.5z"/><path d="m214.833 136.505h-71c-1.933 0-3.5-1.567-3.5-3.5 0-1.933 1.567-3.5 3.5-3.5h71c1.933 0 3.5 1.567 3.5 3.5 0 1.933-1.567 3.5-3.5 3.5z"/><path d="m214.833 156.505h-71c-1.933 0-3.5-1.567-3.5-3.5 0-1.933 1.567-3.5 3.5-3.5h71c1.933 0 3.5 1.567 3.5 3.5 0 1.933-1.567 3.5-3.5 3.5z"/><path d="m214.833 176.505h-71c-1.933 0-3.5-1.567-3.5-3.5 0-1.933 1.567-3.5 3.5-3.5h71c1.933 0 3.5 1.567 3.5 3.5 0 1.933-1.567 3.5-3.5 3.5z"/><path d="m113.5 76.505h-71c-1.933 0-3.5-1.567-3.5-3.5 0-1.933 1.567-3.5 3.5-3.5h71c1.933 0 3.5 1.567 3.5 3.5 0 1.933-1.567 3.5-3.5 3.5z"/><path d="m113.5 96.505h-71c-1.933 0-3.5-1.567-3.5-3.5 0-1.933 1.567-3.5 3.5-3.5h71c1.933 0 3.5 1.567 3.5 3.5 0 1.933-1.567 3.5-3.5 3.5z"/><path d="m113.5 116.505h-71c-1.933 0-3.5-1.567-3.5-3.5 0-1.933 1.567-3.5 3.5-3.5h71c1.933 0 3.5 1.567 3.5 3.5 0 1.933-1.567 3.5-3.5 3.5z"/><path d="m113.5 136.505h-71c-1.933 0-3.5-1.567-3.5-3.5 0-1.933 1.567-3.5 3.5-3.5h71c1.933 0 3.5 1.567 3.5 3.5 0 1.933-1.567 3.5-3.5 3.5z"/><path d="m115 176.505h-74c-1.105 0-2-.895-2-2v-23c0-1.105.895-2 2-2h74c1.105 0 2 .895 2 2v23c0 1.105-.895 2-2 2z"/></g><path d="m128 207.396h-100c-1.104 0-2-.896-2-2v-158.25c0-1.104.896-2 2-2h91.783c5.634 0 10.217 4.583 10.217 10.217v150.033c0 1.104-.896 2-2 2zm-98-4h96v-148.033c0-3.428-2.789-6.217-6.217-6.217h-89.783z" fill="#3762cc"/><path d="m228 207.396h-100c-1.104 0-2-.896-2-2v-150.033c0-5.634 4.583-10.217 10.217-10.217h91.783c1.104 0 2 .896 2 2v158.25c0 1.104-.896 2-2 2zm-98-4h96v-154.25h-89.783c-3.428 0-6.217 2.789-6.217 6.217z" fill="#3762cc"/><path d="m119.892 197.146h-91.892c-7.667.833-8.108 8.25-8.108 8.25h8.108 100s-.441-7.417-8.108-8.25z" fill="#a4c9ff"/><path d="m228 197.146h-91.892c-7.667.833-8.108 8.25-8.108 8.25h100 8.108s-.441-7.417-8.108-8.25z" fill="#a4c9ff"/><path d="m128 207.396h-108.108c-.551 0-1.078-.228-1.456-.628s-.574-.94-.541-1.49c.188-3.149 2.495-9.316 9.889-10.12.071-.008.144-.012.216-.012h91.892c.072 0 .145.004.216.012 7.394.803 9.701 6.971 9.889 10.12.033.55-.163 1.089-.541 1.49s-.905.628-1.456.628zm-105.601-4h103.094c-.669-1.695-2.205-3.831-5.715-4.25h-91.665c-3.508.419-5.043 2.553-5.714 4.25z" fill="#3762cc"/><path d="m236.108 207.396h-108.108c-.551 0-1.078-.228-1.456-.628s-.574-.94-.541-1.49c.188-3.149 2.495-9.316 9.889-10.12.071-.008.144-.012.216-.012h91.892c.072 0 .145.004.216.012 7.394.803 9.701 6.971 9.889 10.12.033.55-.163 1.089-.541 1.49s-.905.628-1.456.628zm-105.601-4h103.094c-.669-1.695-2.205-3.831-5.715-4.25h-91.666c-3.507.419-5.042 2.553-5.713 4.25z" fill="#3762cc"/><path d="m134.667 44.354v55.226c0 .886 1.067 1.334 1.7.714l14.267-13.981c.389-.381 1.011-.381 1.4 0l14.267 13.982c.633.62 1.7.172 1.7-.714v-55.227c0-1.105-.895-2-2-2h-29.333c-1.106 0-2.001.896-2.001 2z" fill="#6bdddd"/><path d="m135.669 102.581c-.392 0-.788-.077-1.165-.235-1.116-.469-1.838-1.555-1.838-2.766v-55.226c0-2.206 1.794-4 4-4h29.334c2.206 0 4 1.794 4 4v55.226c0 1.211-.721 2.297-1.838 2.766-1.116.468-2.396.224-3.262-.623l-13.567-13.296-13.567 13.295c-.573.562-1.328.859-2.097.859zm.998-58.227v52.846l12.567-12.315c1.157-1.136 3.042-1.136 4.201 0l12.565 12.314v-52.845z" fill="#3762cc"/></svg>