<svg id="Layer_1" enable-background="new 0 0 256 256" height="512" viewBox="0 0 256 256" width="512" xmlns="http://www.w3.org/2000/svg"><path d="m94.104 141.867 19.986 19.987c.68.68.941 1.617.795 2.498l101.868-101.868-23.28-23.28-101.867 101.868c.882-.146 1.818.115 2.498.795z" fill="#6bdddd"/><path d="m19.258 216.714 19.986 19.986c1.12 1.12 2.935 1.12 4.055 0l70.792-70.792c1.12-1.12 1.12-2.935 0-4.055l-19.986-19.986c-1.12-1.12-2.935-1.12-4.055 0l-70.792 70.792c-1.12 1.119-1.12 2.935 0 4.055z" fill="#4671c6"/><path d="m39.15 236.607-19.799-19.799-11.076 29.433c-.379 1.008.434 1.821 1.442 1.442z" fill="#e0ebfc"/><path d="m191.955 37.686 25.304 25.304c.559.559 1.465.559 2.024 0l13.242-13.242c.559-.559.559-1.465 0-2.024l-25.303-25.304z" fill="#4671c6"/><path d="m211.313 26.511 18.219 18.219 15.773-15.773c3.354-3.354 3.354-8.792 0-12.146l-6.073-6.073c-3.354-3.354-8.792-3.354-12.146 0z" fill="#6bdddd"/><path d="m16.414 245.163-6.697 2.52c-1.008.379-1.822-.434-1.442-1.442l2.52-6.697z" fill="#e0ebfc"/><path d="m9.218 249.778c-.81 0-1.579-.304-2.157-.882-.862-.861-1.114-2.149-.659-3.359l11.076-29.434c.24-.636.786-1.107 1.45-1.25.663-.143 1.356.06 1.836.541l19.799 19.799c.48.48.685 1.172.541 1.836s-.615 1.21-1.25 1.45l-29.433 11.076c-.398.15-.805.223-1.203.223zm10.912-29.362-9.299 24.711 24.711-9.299z" fill="#3762cc"/><path d="m9.218 249.778c-.81 0-1.579-.304-2.157-.882-.862-.861-1.114-2.149-.659-3.359l2.52-6.697c.24-.636.786-1.107 1.45-1.25.662-.144 1.356.06 1.836.541l5.619 5.619c.48.48.685 1.172.541 1.836s-.615 1.21-1.25 1.45l-6.697 2.52c-.398.149-.805.222-1.203.222zm2.356-6.627-.743 1.975 1.975-.743z" fill="#3762cc"/><path d="m41.271 239.541c-1.3 0-2.522-.507-3.442-1.426l-19.986-19.986c-1.898-1.897-1.898-4.986 0-6.883l70.792-70.792c.919-.919 2.141-1.426 3.441-1.426s2.522.507 3.442 1.426l19.986 19.986c1.897 1.897 1.897 4.985 0 6.883l-70.792 70.792c-.918.919-2.14 1.426-3.441 1.426zm-20.6-24.241 19.987 19.986c.221.221.479.254.613.254s.393-.033.614-.254l70.792-70.792c.338-.338.338-.889 0-1.227l-19.987-19.986c-.221-.221-.479-.254-.614-.254-.134 0-.392.033-.613.254l-70.792 70.792c-.338.338-.338.888 0 1.227z" fill="#3762cc"/><path d="m118.898 86.452 68.081-68.081c4.472-4.472 11.723-4.472 16.195 0l6.073 6.073-2.024-2.024-15.267 15.267-.494-.494c-1.615-1.615-4.21-1.683-5.908-.156l-61.264 55.099c-1.549 1.393-3.917 1.33-5.391-.143-1.531-1.53-1.531-4.011-.001-5.541z" fill="#4671c6"/><g fill="#3762cc"><path d="m218.271 65.408c-.879 0-1.757-.334-2.426-1.003l-25.304-25.304c-.375-.375-.586-.884-.586-1.414s.211-1.039.586-1.414l15.267-15.267c.78-.781 2.047-.781 2.828 0l25.304 25.304c1.338 1.338 1.338 3.515 0 4.853l-13.242 13.242c-.669.668-1.548 1.003-2.427 1.003zm-23.487-27.721 23.488 23.487 12.438-12.438-23.487-23.487z"/><path d="m121.669 95.14c-1.518 0-3.033-.581-4.185-1.733-2.308-2.307-2.308-6.062 0-8.369l68.08-68.081c5.244-5.246 13.779-5.245 19.023 0l6.073 6.073c.781.781.781 2.047 0 2.828-.78.781-2.047.781-2.828 0l-.61-.61-13.853 13.853c-.375.375-.884.586-1.414.586-.531 0-1.04-.211-1.415-.586l-.494-.494c-.862-.862-2.249-.899-3.156-.083l-61.264 55.099c-1.128 1.014-2.543 1.517-3.957 1.517zm-1.356-7.274c-.748.748-.748 1.965 0 2.713.721.722 1.881.751 2.639.069l61.264-55.099c2.157-1.94 5.303-2.124 7.644-.596l12.534-12.534-2.634-2.634c-3.686-3.685-9.681-3.684-13.367 0zm-1.415-1.414h.01z"/><path d="m229.532 46.729c-.53 0-1.039-.211-1.414-.586l-18.219-18.219c-.781-.781-.781-2.047 0-2.828l15.772-15.773c4.128-4.128 10.846-4.129 14.974 0l6.073 6.073c4.128 4.128 4.128 10.846 0 14.974l-15.772 15.773c-.375.376-.884.586-1.414.586zm-15.39-20.218 15.39 15.39 14.358-14.358c2.569-2.569 2.569-6.749 0-9.318l-6.073-6.073c-2.569-2.568-6.748-2.568-9.318 0z"/><path d="m114.885 166.352c-.311 0-.624-.072-.914-.221-.773-.397-1.201-1.248-1.059-2.105.022-.135.044-.478-.236-.758l-19.986-19.987c-.279-.279-.622-.257-.757-.235-.854.144-1.708-.286-2.105-1.059s-.25-1.714.365-2.328l101.867-101.868c.75-.75 2.078-.75 2.828 0l23.279 23.28c.781.781.781 2.047 0 2.828l-101.867 101.867c-.384.384-.896.586-1.415.586zm-19.366-25.899 19.986 19.986c.078.078.153.158.225.24l98.195-98.195-20.451-20.451-98.195 98.195c.082.072.162.147.24.225z"/></g></svg>