<svg id="Layer_1" enable-background="new 0 0 256 256" height="512" viewBox="0 0 256 256" width="512" xmlns="http://www.w3.org/2000/svg"><path d="m136.143 138.446 14.01 3.754c.477.128.833.477.994.906l19.134-71.409-16.319-4.373-19.134 71.409c.355-.29.838-.415 1.315-.287z" fill="#6bdddd"/><path d="m136.094 194.668-14.01-3.754c-.785-.21-1.251-1.017-1.04-1.802l13.297-49.625c.21-.785 1.017-1.251 1.802-1.04l14.01 3.754c.785.21 1.251 1.017 1.04 1.802l-13.297 49.625c-.21.784-1.017 1.25-1.802 1.04z" fill="#4671c6"/><path d="m122.15 190.931 13.879 3.719-10.239 12.474c-.351.427-.921.275-1.011-.271z" fill="#e0ebfc"/><path d="m171.346 71.983-17.738-4.753c-.392-.105-.624-.508-.519-.9l2.487-9.283c.105-.392.508-.624.9-.519l17.738 4.753z" fill="#4671c6"/><path d="m171.345 60.513-12.771-3.422 2.963-11.057c.63-2.351 3.047-3.746 5.398-3.116l4.257 1.141c2.351.63 3.746 3.047 3.116 5.398z" fill="#6bdddd"/><path d="m124.181 203.231.598 3.623c.09.545.66.698 1.011.271l2.33-2.838z" fill="#e0ebfc"/><path d="m125.324 209.373c-.218 0-.438-.029-.655-.087-.978-.262-1.692-1.069-1.863-2.106l-2.63-15.922c-.111-.67.126-1.351.63-1.808s1.204-.626 1.861-.45l13.879 3.719c.657.176 1.179.673 1.387 1.32s.073 1.355-.358 1.881l-10.239 12.474c-.518.631-1.252.979-2.012.979zm-.696-15.707 1.611 9.758 6.275-7.645z" fill="#3762cc"/><path d="m125.324 209.373c-.217 0-.438-.028-.655-.087-.978-.262-1.692-1.07-1.863-2.107l-.598-3.622c-.111-.67.126-1.351.63-1.808.503-.457 1.205-.627 1.861-.45l3.938 1.056c.657.176 1.179.673 1.387 1.32s.073 1.355-.358 1.881l-2.33 2.838c-.519.631-1.252.979-2.012.979z" fill="#3762cc"/><path d="m136.474 196.718c-.296 0-.597-.038-.896-.118h-.001l-14.01-3.754c-.896-.24-1.645-.814-2.108-1.617-.464-.803-.587-1.739-.347-2.634l13.297-49.625c.24-.896.814-1.645 1.617-2.108.803-.464 1.74-.588 2.634-.347l14.01 3.754c.896.24 1.645.814 2.108 1.617.464.803.587 1.739.347 2.634l-13.297 49.625c-.415 1.549-1.822 2.573-3.354 2.573zm-13.362-7.599 12.989 3.48 13.023-48.604-12.989-3.48z" fill="#3762cc"/><path d="m168.419 116.963 12.788-47.724c.84-3.135-1.02-6.357-4.155-7.197l-4.257-1.141 1.419.38-2.868 10.702.346.093c1.132.303 1.828 1.439 1.585 2.586l-8.768 41.364c-.222 1.046.414 2.082 1.447 2.359 1.073.287 2.175-.349 2.463-1.422z" fill="#4671c6"/><path d="m171.346 73.983c-.173 0-.347-.022-.518-.068l-17.738-4.753c-1.457-.39-2.324-1.893-1.934-3.349l2.487-9.283c.189-.706.642-1.295 1.274-1.661.634-.366 1.372-.462 2.077-.272l17.736 4.752c1.067.286 1.7 1.382 1.414 2.449l-2.867 10.702c-.137.512-.472.949-.932 1.214-.306.178-.651.269-.999.269zm-15.999-8.358 14.584 3.908 1.832-6.838-14.584-3.907z" fill="#3762cc"/><path d="m166.475 120.454c-.342 0-.69-.044-1.036-.137-2.061-.553-3.328-2.62-2.886-4.706l8.768-41.364c.022-.106-.042-.211-.146-.239l-.346-.093c-1.067-.286-1.7-1.382-1.414-2.449l2.368-8.839c-.758-.444-1.158-1.354-.919-2.243.285-1.067 1.383-1.703 2.449-1.414l4.257 1.141c4.195 1.124 6.693 5.451 5.569 9.646l-12.788 47.725c-.48 1.788-2.105 2.972-3.876 2.972zm7.234-49.564c1.229.96 1.868 2.567 1.525 4.186l-8.768 41.364 1.953.523-1.932-.518 12.788-47.725c.268-1 .13-2.045-.388-2.941s-1.354-1.538-2.354-1.806l-.906-.243z" fill="#3762cc"/><path d="m171.345 62.513c-.173 0-.347-.022-.518-.068l-12.771-3.422c-1.067-.286-1.7-1.382-1.414-2.449l2.962-11.057c.443-1.653 1.503-3.035 2.985-3.891 1.483-.855 3.208-1.082 4.862-.64l4.257 1.141c1.653.442 3.035 1.503 3.891 2.985s1.083 3.209.641 4.862l-2.963 11.057c-.137.513-.472.949-.932 1.214-.306.177-.652.268-1 .268zm-10.322-6.837 8.908 2.387 2.445-9.125c.166-.621.081-1.27-.241-1.827-.321-.557-.841-.955-1.462-1.121l-4.257-1.141c-.622-.166-1.271-.081-1.827.241s-.955.84-1.122 1.461z" fill="#3762cc"/><path d="m136.474 196.718c-.296 0-.597-.038-.896-.118h-.001l-14.01-3.754c-.896-.24-1.645-.814-2.108-1.617-.464-.803-.587-1.739-.347-2.634l13.297-49.625c.24-.896.814-1.645 1.617-2.108.803-.464 1.74-.588 2.634-.347l14.01 3.754c.896.24 1.645.814 2.108 1.617.464.803.587 1.739.347 2.634l-13.297 49.625c-.415 1.549-1.822 2.573-3.354 2.573zm-13.362-7.599 12.989 3.48 13.023-48.604-12.989-3.48z" fill="#3762cc"/><path d="m151.147 145.106c-.735 0-1.406-.403-1.754-1.039l-13.526-3.625c-.646.394-1.472.392-2.123-.028-.73-.471-1.073-1.359-.848-2.199l19.134-71.409c.286-1.067 1.383-1.703 2.449-1.414l16.319 4.373c.512.137.949.472 1.214.932s.337 1.005.2 1.518l-19.134 71.409c-.225.839-.966 1.438-1.833 1.48-.032.001-.065.002-.098.002zm-1.512-.974h.01zm-12.197-7.409 12.456 3.337 17.938-66.948-12.455-3.337z" fill="#3762cc"/><path d="m119.547 35.468-9.891 14.338v124.489h21.335v-124.489l-9.891-14.338c-.338-.491-1.214-.491-1.553 0z" fill="#f9cfcf"/><path d="m130.991 174.295v-124.454c-.494-.072-1.033.037-1.393.325l-2.995 2.398c-.289.231-.692.346-1.095.346v121.385z" fill="#a4c9ff"/><path d="m115.139 52.91c-.403 0-.806-.115-1.095-.346l-2.995-2.398c-.36-.288-.899-.397-1.394-.325v124.454h5.483v-121.385z" fill="#a4c9ff"/><path d="m123.351 38.73-2.25-3.262c-.339-.491-1.215-.491-1.554 0l-2.25 3.262z" fill="#4671c6"/><path d="m109.656 178.361h21.335v4.066h-21.335z" fill="#e0ebfc" transform="matrix(-1 0 0 -1 240.647 360.787)"/><path d="m114.213 198.778h12.222c2.516 0 4.556-2.04 4.556-4.556v-11.795h-21.335v11.795c0 2.516 2.04 4.556 4.557 4.556z" fill="#f9a7a7"/><path d="m125.508 174.295v-121.385c-.403 0-.806-.115-1.095-.346l-2.995-2.398c-.577-.462-1.612-.462-2.189 0l-2.995 2.398c-.289.231-.692.346-1.095.346v121.385z" fill="#4671c6"/><path d="m109.656 174.295h21.335v4.066h-21.335z" fill="#e0ebfc" transform="matrix(-1 0 0 -1 240.647 352.655)"/><path d="m130.991 176.294h-21.335c-1.104 0-2-.896-2-2v-124.488c0-.406.124-.802.354-1.136l9.891-14.338c.533-.772 1.438-1.232 2.423-1.232s1.891.46 2.423 1.232l9.891 14.338c.23.334.354.73.354 1.136v124.489c-.001 1.104-.896 1.999-2.001 1.999zm-19.335-4h17.335v-121.865l-8.667-12.565-8.667 12.565v121.865z" fill="#3762cc"/><path d="m130.991 176.294h-5.483c-1.104 0-2-.896-2-2v-121.384c0-1.091.874-1.978 1.959-2l2.881-2.306c.774-.619 1.868-.896 2.931-.743.983.143 1.713.986 1.713 1.979v124.454c-.001 1.105-.896 2-2.001 2zm-3.483-4h1.483v-119.081l-1.139.912c-.109.087-.225.168-.345.242v117.927z" fill="#3762cc"/><path d="m115.14 176.294h-5.483c-1.104 0-2-.896-2-2v-124.453c0-.994.729-1.836 1.712-1.979 1.061-.158 2.155.123 2.93.742l2.881 2.307c1.081.027 1.96.913 1.96 2v121.384c0 1.104-.896 1.999-2 1.999zm-3.484-4h1.483v-117.928c-.12-.073-.235-.154-.344-.241l-1.139-.912z" fill="#3762cc"/><path d="m123.351 40.73h-6.055c-.743 0-1.425-.412-1.771-1.07-.345-.658-.297-1.454.125-2.065l2.25-3.262c.533-.772 1.438-1.232 2.423-1.232s1.891.46 2.423 1.232l2.25 3.262c.422.612.47 1.407.125 2.065s-1.027 1.07-1.77 1.07z" fill="#3762cc"/><path d="m130.991 184.426h-21.335c-1.104 0-2-.896-2-2v-4.066c0-1.104.896-2 2-2h21.335c1.104 0 2 .896 2 2v4.066c0 1.105-.895 2-2 2zm-19.335-4h17.335v-.066h-17.335z" fill="#3762cc"/><path d="m126.435 200.777h-12.223c-3.615 0-6.556-2.941-6.556-6.556v-11.795c0-1.104.896-2 2-2h21.335c1.104 0 2 .896 2 2v11.795c0 3.615-2.941 6.556-6.556 6.556zm-14.779-16.351v9.795c0 1.41 1.146 2.556 2.556 2.556h12.223c1.41 0 2.556-1.146 2.556-2.556v-9.795z" fill="#3762cc"/><path d="m125.508 176.294h-10.368c-1.104 0-2-.896-2-2v-121.384c0-1.091.873-1.978 1.958-2l2.881-2.306c1.316-1.053 3.375-1.052 4.689 0l2.88 2.306c1.081.027 1.959.913 1.959 2v121.384c.001 1.105-.895 2-1.999 2zm-8.368-4h6.368v-117.928c-.12-.074-.235-.154-.344-.241l-2.84-2.274-2.84 2.273c-.109.087-.224.168-.344.242z" fill="#3762cc"/><path d="m130.991 180.36h-21.335c-1.104 0-2-.896-2-2v-4.066c0-1.104.896-2 2-2h21.335c1.104 0 2 .896 2 2v4.066c0 1.105-.895 2-2 2zm-19.335-4h17.335v-.066h-17.335z" fill="#3762cc"/><path d="m243.907 87.283-128.396 128.396c-1.012 1.012-2.654 1.012-3.666 0l-21.539-21.539c-1.012-1.012-1.012-2.654 0-3.666l128.396-128.397c1.012-1.012 2.654-1.012 3.666 0l21.539 21.539c1.013 1.013 1.013 2.654 0 3.667z" fill="#e0ebfc"/><g fill="#3762cc"><path d="m100.074 194.451c-.512 0-1.024-.195-1.414-.586l-5.873-5.873c-.781-.781-.781-2.047 0-2.828.78-.781 2.048-.781 2.828 0l5.873 5.873c.781.781.781 2.047 0 2.828-.39.39-.902.586-1.414.586z"/><path d="m109.24 185.285c-.512 0-1.023-.195-1.414-.586l-5.874-5.873c-.781-.781-.781-2.047 0-2.828.78-.781 2.047-.781 2.828 0l5.874 5.873c.781.781.781 2.047 0 2.828-.39.391-.902.586-1.414.586z"/><path d="m122.321 180.035c-.512 0-1.024-.195-1.414-.586l-9.789-9.789c-.781-.781-.781-2.047 0-2.828.78-.781 2.048-.781 2.828 0l9.789 9.789c.781.781.781 2.047 0 2.828-.39.39-.902.586-1.414.586z"/><path d="m127.571 166.954c-.512 0-1.024-.195-1.414-.586l-5.873-5.873c-.781-.781-.781-2.047 0-2.828.78-.781 2.048-.781 2.828 0l5.873 5.873c.781.781.781 2.047 0 2.828-.39.39-.902.586-1.414.586z"/><path d="m136.737 157.788c-.512 0-1.023-.195-1.414-.586l-5.874-5.873c-.781-.781-.781-2.047 0-2.828.78-.781 2.047-.781 2.828 0l5.874 5.873c.781.781.781 2.047 0 2.828-.39.391-.902.586-1.414.586z"/><path d="m149.818 152.538c-.512 0-1.024-.195-1.414-.586l-9.789-9.789c-.781-.781-.781-2.047 0-2.828.78-.781 2.048-.781 2.828 0l9.789 9.789c.781.781.781 2.047 0 2.828-.39.39-.902.586-1.414.586z"/><path d="m155.068 139.457c-.512 0-1.024-.195-1.414-.586l-5.873-5.873c-.781-.781-.781-2.047 0-2.828.78-.781 2.048-.781 2.828 0l5.873 5.873c.781.781.781 2.047 0 2.828-.39.39-.902.586-1.414.586z"/><path d="m164.234 130.291c-.512 0-1.023-.195-1.414-.586l-5.874-5.873c-.781-.781-.781-2.047 0-2.828.78-.781 2.047-.781 2.828 0l5.874 5.873c.781.781.781 2.047 0 2.828-.39.391-.902.586-1.414.586z"/><path d="m177.315 125.041c-.512 0-1.024-.195-1.414-.586l-9.789-9.789c-.781-.781-.781-2.047 0-2.828.78-.781 2.048-.781 2.828 0l9.789 9.789c.781.781.781 2.047 0 2.828-.39.39-.902.586-1.414.586z"/><path d="m182.565 111.959c-.512 0-1.024-.195-1.414-.586l-5.873-5.873c-.781-.781-.781-2.047 0-2.828.78-.781 2.048-.781 2.828 0l5.873 5.873c.781.781.781 2.047 0 2.828-.39.391-.902.586-1.414.586z"/><path d="m191.731 102.794c-.512 0-1.023-.195-1.414-.586l-5.874-5.873c-.781-.781-.781-2.047 0-2.828.78-.781 2.047-.781 2.828 0l5.874 5.873c.781.781.781 2.047 0 2.828-.39.391-.902.586-1.414.586z"/><path d="m204.813 97.543c-.512 0-1.024-.195-1.414-.586l-9.789-9.789c-.781-.781-.781-2.047 0-2.828.78-.781 2.048-.781 2.828 0l9.789 9.789c.781.781.781 2.047 0 2.828-.391.391-.903.586-1.414.586z"/><path d="m208.911 83.311c-.512 0-1.024-.195-1.414-.586l-4.722-4.722c-.781-.781-.781-2.047 0-2.828.78-.781 2.048-.781 2.828 0l4.722 4.722c.781.781.781 2.047 0 2.828-.39.391-.902.586-1.414.586z"/><path d="m200.897 93.628c-.512 0-1.024-.195-1.414-.586l-5.873-5.873c-.781-.781-.781-2.047 0-2.828.78-.781 2.048-.781 2.828 0l5.873 5.873c.781.781.781 2.047 0 2.828-.39.391-.902.586-1.414.586z"/><path d="m210.063 84.462c-.512 0-1.024-.195-1.414-.586l-5.873-5.873c-.781-.781-.781-2.047 0-2.828.78-.781 2.048-.781 2.828 0l5.873 5.873c.781.781.781 2.047 0 2.828-.391.391-.903.586-1.414.586z"/><path d="m219.228 75.297c-.512 0-1.024-.195-1.414-.586l-5.873-5.873c-.781-.781-.781-2.047 0-2.828.78-.781 2.048-.781 2.828 0l5.873 5.873c.781.781.781 2.047 0 2.828-.39.391-.902.586-1.414.586z"/><path d="m113.678 218.436c-1.176 0-2.352-.448-3.247-1.343l-21.54-21.54c-1.791-1.791-1.791-4.704 0-6.494l128.397-128.396c1.791-1.791 4.705-1.791 6.495 0l21.539 21.539c1.791 1.791 1.791 4.704 0 6.495l-128.397 128.396c-.895.895-2.071 1.343-3.247 1.343zm106.857-155.118c-.151 0-.303.058-.419.173l-128.396 128.396c-.231.231-.231.607 0 .838l21.54 21.54c.231.23.606.23.838 0l128.395-128.396c.231-.231.231-.607 0-.838l-21.539-21.539c-.116-.116-.267-.174-.419-.174z"/></g><circle cx="232.524" cy="85.755" fill="#4671c6" r="2.952"/><path d="m232.524 90.707c-2.73 0-4.952-2.222-4.952-4.952s2.222-4.952 4.952-4.952 4.952 2.222 4.952 4.952-2.221 4.952-4.952 4.952zm0-5.904c-.525 0-.952.427-.952.952s.427.952.952.952.952-.427.952-.952-.427-.952-.952-.952z" fill="#3762cc"/><path d="m10.983 135.391 5.912 72.416c.604 7.397 6.784 13.093 14.206 13.093h186.161c7.394 0 13.561-5.655 14.2-13.021l6.288-72.488z" fill="#a4c9ff"/><path d="m6.729 129.845.289 3.539c.093 1.134 1.04 2.007 2.178 2.007h235.626c1.05 0 1.9-.851 1.9-1.9v-3.801c0-1.05-.851-1.9-1.9-1.9h-236.199c-1.11 0-1.984.948-1.894 2.055z" fill="#f9a7a7"/><path d="m199.294 201.426h-149.656c-3.149 0-5.701-2.552-5.701-5.701v-36.107c0-3.149 2.552-5.701 5.701-5.701h149.655c3.149 0 5.701 2.552 5.701 5.701v36.107c.001 3.148-2.552 5.701-5.7 5.701z" fill="#6bdddd"/><path d="m194.187 167.219h-139.441c-1.443 0-2.613-1.17-2.613-2.613 0-1.443 1.17-2.613 2.613-2.613h139.441c1.443 0 2.613 1.17 2.613 2.613 0 1.443-1.17 2.613-2.613 2.613z" fill="#e0ebfc"/><path d="m136.819 189.192h-24.705c-1.05 0-1.9-.851-1.9-1.9v-7.602c0-1.05.851-1.9 1.9-1.9h24.705c1.05 0 1.9.851 1.9 1.9v7.602c0 1.049-.851 1.9-1.9 1.9z" fill="#f9a7a7"/><path d="m244.822 137.392h-235.626c-2.163 0-3.995-1.688-4.171-3.844l-.289-3.54c-.088-1.083.283-2.162 1.02-2.961s1.782-1.257 2.868-1.257h236.199c2.151 0 3.9 1.75 3.9 3.9v3.801c0 2.151-1.75 3.901-3.901 3.901zm-236.091-7.602.28 3.432c.008.095.089.17.185.17h235.526v-3.602z" fill="#3762cc"/><path d="m199.294 203.426h-149.656c-4.247 0-7.701-3.455-7.701-7.701v-36.107c0-4.247 3.455-7.701 7.701-7.701h149.656c4.247 0 7.701 3.455 7.701 7.701v36.107c0 4.246-3.454 7.701-7.701 7.701zm-149.656-47.51c-2.041 0-3.701 1.66-3.701 3.701v36.107c0 2.041 1.66 3.701 3.701 3.701h149.656c2.041 0 3.701-1.66 3.701-3.701v-36.107c0-2.041-1.66-3.701-3.701-3.701z" fill="#3762cc"/><path d="m194.187 169.219h-139.441c-2.543 0-4.613-2.069-4.613-4.613s2.069-4.613 4.613-4.613h139.441c2.544 0 4.613 2.069 4.613 4.613 0 2.543-2.07 4.613-4.613 4.613zm-139.441-5.226c-.338 0-.613.275-.613.613s.275.613.613.613h139.441c.338 0 .613-.275.613-.613s-.275-.613-.613-.613z" fill="#3762cc"/><path d="m136.819 191.192h-24.705c-2.151 0-3.9-1.75-3.9-3.9v-7.602c0-2.151 1.75-3.9 3.9-3.9h24.705c2.151 0 3.9 1.75 3.9 3.9v7.602c0 2.15-1.749 3.9-3.9 3.9zm-24.606-4h24.506v-7.402h-24.506z" fill="#3762cc"/><path d="m188.733 167.365-1.626 10.733c-.174 1.15.716 2.185 1.879 2.185h5.913c1.163 0 2.053-1.035 1.879-2.185l-1.626-10.733c-.24-1.587-1.604-2.76-3.209-2.76-1.606.001-2.97 1.174-3.21 2.76z" fill="#4671c6"/><path d="m194.899 182.284h-5.914c-1.138 0-2.216-.495-2.958-1.357s-1.069-2.003-.899-3.127l1.626-10.734c.392-2.584 2.573-4.46 5.187-4.46s4.795 1.875 5.187 4.46l1.626 10.733c.17 1.125-.157 2.264-.899 3.127-.741.863-1.818 1.358-2.956 1.358zm-5.798-4h5.682l-1.609-10.619c-.093-.614-.611-1.059-1.232-1.059-.611 0-1.14.455-1.231 1.059zm-.368-10.919h.01z" fill="#3762cc"/><path d="m244.822 137.392h-235.626c-2.163 0-3.995-1.688-4.171-3.844l-.289-3.54c-.088-1.083.283-2.162 1.02-2.961s1.782-1.257 2.868-1.257h236.199c2.151 0 3.9 1.75 3.9 3.9v3.801c0 2.151-1.75 3.901-3.901 3.901zm-236.091-7.602.28 3.432c.008.095.089.17.185.17h235.526v-3.602z" fill="#3762cc"/><path d="m217.262 222.9h-186.161c-8.4 0-15.515-6.558-16.199-14.931l-5.912-72.415c-.046-.557.144-1.107.522-1.518.379-.411.912-.645 1.471-.645h226.767c.561 0 1.095.235 1.474.648s.567.966.519 1.524l-6.288 72.488c-.735 8.466-7.697 14.849-16.193 14.849zm-204.109-85.508 5.735 70.253c.516 6.312 5.88 11.256 12.212 11.256h186.161c6.406 0 11.653-4.813 12.207-11.194l6.1-70.315z" fill="#3762cc"/><path d="m244.822 137.392h-235.626c-2.163 0-3.995-1.688-4.171-3.844l-.289-3.54c-.088-1.083.283-2.162 1.02-2.961s1.782-1.257 2.868-1.257h236.199c2.151 0 3.9 1.75 3.9 3.9v3.801c0 2.151-1.75 3.901-3.901 3.901zm-236.091-7.602.28 3.432c.008.095.089.17.185.17h235.526v-3.602z" fill="#3762cc"/><path d="m240.197 129.674-1.831 12.082c-.196 1.294.806 2.46 2.115 2.46h6.656c1.309 0 2.311-1.165 2.115-2.46l-1.831-12.082c-.271-1.786-1.806-3.107-3.613-3.107-1.805 0-3.341 1.321-3.611 3.107z" fill="#4671c6"/><path d="m247.138 146.216h-6.657c-1.208 0-2.351-.525-3.138-1.44s-1.135-2.125-.954-3.319l1.831-12.082c.422-2.785 2.773-4.807 5.59-4.807s5.168 2.021 5.59 4.807l1.831 12.082c.181 1.194-.167 2.404-.954 3.319s-1.932 1.44-3.139 1.44zm-3.329-17.649c-.824 0-1.511.591-1.635 1.406l-1.831 12.082c-.003.018-.01.063.032.112.042.048.088.048.105.048h6.657c.018 0 .063 0 .105-.048s.035-.094.032-.112l-1.831-12.082c-.122-.814-.81-1.406-1.634-1.406zm-3.612 1.107h.01z" fill="#3762cc"/></svg>