<svg id="Layer_1" enable-background="new 0 0 256 256" height="512" viewBox="0 0 256 256" width="512" xmlns="http://www.w3.org/2000/svg"><path d="m8.241 245.596 6.191-33.726 173.288-173.289 29.698 29.699-173.288 173.289-33.726 6.191c-1.156.212-2.375-1.008-2.163-2.164z" fill="#f9cfcf"/><path d="m217.419 68.28-173.241 173.24c-.788-.588-1.387-1.489-1.487-2.392l-.831-7.507c-.08-.723-.48-1.445-1.041-2.006l168.967-168.968z" fill="#a4c9ff"/><path d="m26.385 215.182c-.561-.561-1.283-.961-2.006-1.041l-7.507-.831c-.903-.1-1.804-.699-2.392-1.487l173.24-173.24 7.633 7.633z" fill="#a4c9ff"/><path d="m18.077 246.351-7.673 1.408c-1.155.212-2.375-1.008-2.163-2.163l1.408-7.673z" fill="#4671c6"/><path d="m190.059 40.939h42v8.004h-42z" fill="#e0ebfc" transform="matrix(-.707 -.707 .707 -.707 328.522 225.96)"/><path d="m228.143 10.843 17.014 17.014c3.503 3.503 3.503 9.182 0 12.685l-16.419 16.418-29.698-29.698 16.418-16.418c3.503-3.503 9.182-3.503 12.685-.001z" fill="#f9a7a7"/><path d="m209.786 60.647-168.968 168.968c-.561-.561-1.283-.961-2.006-1.041l-7.507-.831c-1.446-.16-2.887-1.601-3.047-3.047l-.831-7.507c-.08-.723-.48-1.445-1.041-2.006l168.967-168.969z" fill="#4671c6"/><path d="m184.399 46.599h42v8.004h-42z" fill="#e0ebfc" transform="matrix(-.707 -.707 .707 -.707 314.859 231.62)"/><g fill="#3762cc"><path d="m10.138 249.783c-.991 0-1.982-.418-2.743-1.178-.921-.921-1.34-2.181-1.121-3.371l6.19-33.725c.073-.399.266-.767.553-1.053l173.289-173.29c.75-.75 2.078-.75 2.828 0l29.698 29.699c.781.781.781 2.047 0 2.828l-173.289 173.29c-.287.287-.654.48-1.053.553l-33.726 6.19c-.207.039-.416.057-.626.057zm.07-3.828v.002.001c0-.001 0-.002 0-.003zm6.078-33.111-6.041 32.911 32.911-6.041 171.434-171.434-26.87-26.87zm-8.045 32.752h.01z"/><path d="m44.178 243.52c-.418 0-.839-.131-1.196-.397-1.27-.948-2.122-2.359-2.279-3.774l-.831-7.507c-.02-.179-.154-.498-.468-.812-.781-.781-.781-2.047 0-2.828l168.968-168.969c.75-.75 2.078-.75 2.828 0l7.632 7.633c.781.781.781 2.047 0 2.828l-173.24 173.24c-.387.388-.899.586-1.414.586zm-.773-13.663c.233.499.384 1.02.442 1.544l.76 6.862 169.983-169.983-4.804-4.804z"/><path d="m26.385 217.182c-.53 0-1.039-.211-1.414-.586-.313-.313-.633-.447-.813-.467l-7.507-.832c-1.416-.157-2.826-1.009-3.774-2.279-.595-.796-.514-1.908.188-2.61l173.24-173.24c.78-.781 2.047-.781 2.828 0l7.633 7.632c.375.375.586.884.586 1.414s-.211 1.039-.586 1.414l-168.967 168.968c-.375.375-.883.586-1.414.586zm-8.648-5.789 6.862.76c.524.058 1.045.209 1.544.442l166.381-166.381-4.804-4.804z"/><path d="m10.138 249.783c-.992 0-1.983-.418-2.743-1.178-.921-.921-1.34-2.181-1.122-3.37l1.408-7.673c.134-.731.663-1.328 1.373-1.549.71-.22 1.483-.03 2.009.496l8.428 8.428c.526.525.716 1.299.496 2.009-.221.709-.817 1.238-1.549 1.373l-7.673 1.408c-.208.038-.418.056-.627.056zm.79-7.752-.683 3.724 3.724-.683z"/><path d="m223.079 64.62c-.512 0-1.024-.195-1.414-.586l-29.699-29.699c-.781-.781-.781-2.047 0-2.828l5.66-5.66c.78-.781 2.048-.781 2.828 0l29.699 29.699c.781.781.781 2.047 0 2.828l-5.66 5.66c-.39.391-.903.586-1.414.586zm-26.871-31.699 26.87 26.87 2.831-2.831-26.87-26.87z"/><path d="m228.738 58.96c-.512 0-1.024-.195-1.414-.586l-29.699-29.699c-.781-.781-.781-2.047 0-2.828l16.418-16.418c4.276-4.276 11.236-4.277 15.513 0l17.014 17.014c4.277 4.277 4.277 11.236 0 15.513l-16.419 16.418c-.389.391-.901.586-1.413.586zm-26.87-31.698 26.87 26.87 15.004-15.004c2.717-2.718 2.717-7.139 0-9.857l-17.013-17.014c-2.718-2.717-7.139-2.717-9.857 0z"/><path d="m40.818 231.615c-.53 0-1.039-.211-1.414-.586-.314-.313-.633-.448-.812-.468l-7.507-.832c-2.39-.265-4.55-2.425-4.815-4.815l-.831-7.507c-.02-.178-.154-.499-.468-.813-.375-.375-.586-.884-.586-1.414s.211-1.039.586-1.414l168.968-168.966c.78-.781 2.048-.781 2.828 0l14.433 14.433c.781.781.781 2.047 0 2.828l-168.968 168.968c-.375.375-.883.586-1.414.586zm-11.846-16.192c.233.499.384 1.02.442 1.543l.831 7.508c.057.517.763 1.223 1.28 1.28l7.507.832c.524.058 1.045.209 1.544.442l166.382-166.381-11.604-11.604z"/><path d="m217.418 70.28c-.512 0-1.023-.195-1.414-.586l-29.698-29.698c-.781-.781-.781-2.047 0-2.828l5.66-5.66c.75-.75 2.078-.75 2.828 0l29.699 29.699c.375.375.586.884.586 1.414s-.211 1.039-.586 1.414l-5.66 5.66c-.391.389-.903.585-1.415.585zm-26.87-31.698 26.87 26.87 2.832-2.832-26.87-26.87z"/></g></svg>