<svg id="Layer_1" enable-background="new 0 0 256 256" height="512" viewBox="0 0 256 256" width="512" xmlns="http://www.w3.org/2000/svg"><path d="m240.719 152.626v-26.418c0-5.625-4.522-10.215-10.122-10.324v-21.307c0-4.891-3.417-8.998-7.989-10.06v-4.787c0-4.037-1.732-7.888-4.754-10.567l-11.34-10.054c-.762-.676-1.709-.992-2.654-.991v3.984 5.345c11.804 10.465 10.748 8.067 10.748 16.803h-9.099c-5.693 0-10.326 4.632-10.326 10.326 0 5.693 4.632 10.326 10.326 10.326h6.772c5.532 0 10.061-4.372 10.315-9.841v20.82h-8.652c-13.78 0-13.796 21.917 0 21.917h6.326c5.694 0 10.326-4.632 10.326-10.326v-3.583c1.187.104 2.122 1.104 2.122 2.317v26.366h-8.441c-5.694 0-10.326 4.632-10.326 10.326v.949c0 5.694 4.632 10.326 10.326 10.326h6.115c5.694 0 10.326-4.632 10.326-10.326v-3.025c.758.384 1.278 1.17 1.278 2.076v29.944c0 4.771-3.881 8.652-8.652 8.652h-15.003c-.113 0-.219.024-.33.033.259 2.643.437 5.299.525 7.967h14.808c9.182 0 16.652-7.47 16.652-16.652v-29.944c.002-5.339-4.073-9.745-9.277-10.272zm-26.11-58.049c0 1.282-1.043 2.326-2.326 2.326h-6.772c-1.282 0-2.326-1.043-2.326-2.326s1.043-2.326 2.326-2.326h9.099v2.326zm-.664 35.222c-1.283 0-2.326-1.043-2.326-2.326v-1.265c0-1.283 1.043-2.326 2.326-2.326h8.652c.001 6.809.421 5.917-8.652 5.917zm10.333 36.375c-1.283 0-2.326-1.043-2.326-2.326v-.949c0-1.282 1.043-2.326 2.326-2.326h8.441c0 6.359.339 5.601-8.441 5.601z" fill="#4671c6"/><path d="m179.393 123.357c-9.37-8.738-21.705-13.597-34.517-13.597-7.523 0-57.522 0-65.141 0-12.812 0-25.147 4.859-34.517 13.597-26.467 24.683-40.757 59.746-39.083 95.898.294 6.342 5.521 11.333 11.87 11.333h188.602c6.349 0 11.576-4.991 11.87-11.333 1.673-36.152-12.617-71.215-39.084-95.898z" fill="#f9a7a7"/><path d="m93.643 109.76h-14.55v-21.509c0-2.795 2.266-5.061 5.061-5.061h4.428c2.795 0 5.061 2.266 5.061 5.061z" fill="#a4c9ff"/><path d="m145.518 109.76h-14.55v-21.509c0-2.795 2.266-5.061 5.061-5.061h4.428c2.795 0 5.061 2.266 5.061 5.061z" fill="#a4c9ff"/><circle cx="112.306" cy="170.912" fill="#f9cfcf" r="49.597"/><path d="m112.306 209.881c-21.487 0-38.969-17.481-38.969-38.969s17.482-38.969 38.969-38.969 38.969 17.482 38.969 38.969-17.482 38.969-38.969 38.969z" fill="#e0ebfc"/><path d="m68.444 83.19h-42.633c-2.795 0-5.061-2.266-5.061-5.061v-16.026h47.694z" fill="#f9cfcf"/><path d="m198.8 83.19h-37.573c-2.795 0-5.061-2.266-5.061-5.061v-16.026h47.694v16.026c.001 2.795-2.265 5.061-5.06 5.061z" fill="#f9cfcf"/><path d="m20.75 62.103v-5.061c0-17.469 14.162-31.631 31.631-31.631h119.85c17.469 0 31.631 14.162 31.631 31.631v5.061z" fill="#f9a7a7"/><circle cx="137.331" cy="170.912" fill="#a4c9ff" r="6.93"/><circle cx="87.281" cy="170.912" fill="#a4c9ff" r="6.93"/><circle cx="112.306" cy="195.937" fill="#a4c9ff" r="6.93"/><circle cx="112.306" cy="145.887" fill="#a4c9ff" r="6.93"/><circle cx="94.61" cy="188.608" fill="#a4c9ff" r="6.93"/><circle cx="130.001" cy="153.217" fill="#a4c9ff" r="6.93"/><circle cx="94.61" cy="153.217" fill="#a4c9ff" r="6.93"/><circle cx="130.001" cy="188.608" fill="#a4c9ff" r="6.93"/><g fill="#3762cc"><path d="m206.606 232.589h-188.602c-7.433 0-13.524-5.816-13.868-13.241-1.704-36.804 12.772-72.325 39.717-97.454 9.774-9.115 22.517-14.134 35.881-14.134h65.141c13.364 0 26.106 5.02 35.881 14.134 26.945 25.128 41.422 60.649 39.718 97.454-.344 7.425-6.435 13.241-13.868 13.241zm-126.871-120.829c-12.349 0-24.122 4.638-33.152 13.06-26.085 24.327-40.1 58.713-38.45 94.344.244 5.286 4.581 9.426 9.872 9.426h188.602c5.291 0 9.627-4.141 9.872-9.426 1.649-35.63-12.364-70.017-38.45-94.343-9.03-8.422-20.805-13.06-33.152-13.06h-65.142z"/><path d="m93.644 111.76h-14.55c-1.104 0-2-.896-2-2v-21.509c0-3.894 3.167-7.061 7.061-7.061h4.428c3.894 0 7.061 3.167 7.061 7.061v21.509c0 1.104-.896 2-2 2zm-12.551-4h10.55v-19.509c0-1.688-1.373-3.061-3.061-3.061h-4.428c-1.688 0-3.061 1.373-3.061 3.061z"/><path d="m145.518 111.76h-14.55c-1.104 0-2-.896-2-2v-21.509c0-3.894 3.167-7.061 7.061-7.061h4.429c3.894 0 7.061 3.167 7.061 7.061v21.509c-.001 1.104-.897 2-2.001 2zm-12.55-4h10.55v-19.509c0-1.688-1.373-3.061-3.061-3.061h-4.429c-1.688 0-3.061 1.373-3.061 3.061v19.509z"/><path d="m112.306 222.509c-28.451 0-51.597-23.146-51.597-51.597s23.146-51.597 51.597-51.597c28.45 0 51.597 23.146 51.597 51.597s-23.147 51.597-51.597 51.597zm0-99.194c-26.245 0-47.597 21.352-47.597 47.597s21.352 47.597 47.597 47.597 47.597-21.352 47.597-47.597-21.352-47.597-47.597-47.597z"/><path d="m112.306 211.881c-22.59 0-40.969-18.378-40.969-40.968s18.379-40.969 40.969-40.969 40.969 18.379 40.969 40.969c-.001 22.589-18.379 40.968-40.969 40.968zm0-77.938c-20.385 0-36.969 16.584-36.969 36.969 0 20.384 16.584 36.968 36.969 36.968s36.969-16.584 36.969-36.968c-.001-20.384-16.585-36.969-36.969-36.969z"/><path d="m68.444 85.19h-42.633c-3.894 0-7.061-3.167-7.061-7.061v-16.026c0-1.104.896-2 2-2h47.694c1.104 0 2 .896 2 2v21.087c0 1.104-.895 2-2 2zm-45.694-21.087v14.026c0 1.688 1.373 3.061 3.061 3.061h40.633v-17.087z"/><path d="m198.8 85.19h-37.572c-3.894 0-7.061-3.167-7.061-7.061v-16.026c0-1.104.896-2 2-2h47.694c1.104 0 2 .896 2 2v16.026c0 3.893-3.168 7.061-7.061 7.061zm-40.633-21.087v14.026c0 1.688 1.373 3.061 3.061 3.061h37.572c1.688 0 3.062-1.373 3.062-3.061v-14.026z"/><path d="m203.861 64.103h-183.111c-1.104 0-2-.896-2-2v-5.061c0-18.544 15.086-33.631 33.63-33.631h119.85c18.544 0 33.631 15.087 33.631 33.631v5.061c0 1.104-.895 2-2 2zm-181.111-4h179.111v-3.061c0-16.338-13.292-29.631-29.631-29.631h-119.85c-16.338 0-29.63 13.292-29.63 29.631z"/><path d="m137.331 179.842c-4.925 0-8.931-4.006-8.931-8.93s4.006-8.93 8.931-8.93c4.924 0 8.93 4.006 8.93 8.93s-4.006 8.93-8.93 8.93zm0-13.86c-2.719 0-4.931 2.211-4.931 4.93s2.212 4.93 4.931 4.93c2.718 0 4.93-2.211 4.93-4.93 0-2.718-2.212-4.93-4.93-4.93z"/><path d="m87.281 179.842c-4.924 0-8.93-4.006-8.93-8.93s4.006-8.93 8.93-8.93 8.93 4.006 8.93 8.93c-.001 4.924-4.006 8.93-8.93 8.93zm0-13.86c-2.719 0-4.93 2.211-4.93 4.93s2.211 4.93 4.93 4.93c2.718 0 4.93-2.211 4.93-4.93-.001-2.718-2.212-4.93-4.93-4.93z"/><path d="m112.306 204.867c-4.924 0-8.93-4.006-8.93-8.93s4.006-8.93 8.93-8.93 8.93 4.006 8.93 8.93c-.001 4.924-4.007 8.93-8.93 8.93zm0-13.86c-2.719 0-4.93 2.211-4.93 4.93 0 2.718 2.211 4.93 4.93 4.93 2.718 0 4.93-2.211 4.93-4.93-.001-2.718-2.212-4.93-4.93-4.93z"/><path d="m112.306 154.817c-4.924 0-8.93-4.006-8.93-8.93s4.006-8.93 8.93-8.93 8.93 4.006 8.93 8.93-4.007 8.93-8.93 8.93zm0-13.86c-2.719 0-4.93 2.211-4.93 4.93s2.211 4.93 4.93 4.93c2.718 0 4.93-2.211 4.93-4.93s-2.212-4.93-4.93-4.93z"/><path d="m94.61 197.538c-2.385 0-4.628-.929-6.314-2.616-1.687-1.686-2.616-3.929-2.616-6.314s.929-4.628 2.616-6.314c1.687-1.687 3.929-2.615 6.314-2.615s4.628.929 6.314 2.616c1.687 1.686 2.615 3.929 2.615 6.314 0 2.386-.929 4.628-2.616 6.315-1.685 1.685-3.927 2.614-6.313 2.614zm0-13.86c-1.317 0-2.555.513-3.486 1.444-.931.931-1.444 2.169-1.444 3.485 0 1.317.513 2.555 1.444 3.486.932.932 2.169 1.444 3.486 1.444s2.555-.513 3.485-1.444c.932-.931 1.444-2.169 1.444-3.486 0-1.316-.513-2.555-1.444-3.485-.93-.932-2.168-1.444-3.485-1.444zm-4.9.03h.01z"/><path d="m130.001 162.147c-2.385 0-4.628-.929-6.314-2.616-3.481-3.482-3.481-9.147 0-12.628 1.687-1.687 3.929-2.616 6.314-2.616 2.386 0 4.628.929 6.314 2.616 3.481 3.481 3.481 9.146 0 12.628-1.686 1.687-3.928 2.616-6.314 2.616zm0-13.86c-1.317 0-2.555.513-3.486 1.444-1.922 1.922-1.922 5.05 0 6.972.931.931 2.169 1.444 3.486 1.444s2.555-.513 3.486-1.444c1.922-1.922 1.922-5.05 0-6.972-.931-.931-2.169-1.444-3.486-1.444z"/><path d="m94.61 162.147c-2.385 0-4.628-.929-6.314-2.616-1.687-1.687-2.616-3.929-2.616-6.314s.929-4.628 2.616-6.314c1.687-1.687 3.929-2.615 6.314-2.615s4.627.929 6.314 2.615c1.687 1.687 2.615 3.929 2.615 6.314s-.929 4.628-2.616 6.314c-1.685 1.687-3.927 2.616-6.313 2.616zm0-13.86c-1.317 0-2.555.513-3.486 1.444s-1.444 2.169-1.444 3.486.513 2.555 1.444 3.486c.932.931 2.169 1.444 3.486 1.444s2.555-.513 3.485-1.444c.932-.932 1.444-2.169 1.444-3.486s-.513-2.555-1.444-3.485c-.93-.932-2.168-1.445-3.485-1.445z"/><path d="m130.001 197.538c-2.385 0-4.628-.929-6.314-2.616-3.482-3.481-3.482-9.147 0-12.628 1.687-1.687 3.929-2.616 6.314-2.616 2.386 0 4.628.929 6.314 2.616 3.481 3.481 3.481 9.147 0 12.628-1.686 1.687-3.928 2.616-6.314 2.616zm0-13.86c-1.317 0-2.555.513-3.486 1.444-1.922 1.922-1.922 5.05 0 6.972.932.931 2.169 1.444 3.486 1.444s2.555-.513 3.486-1.444c1.922-1.922 1.922-5.05 0-6.972-.931-.932-2.169-1.444-3.486-1.444z"/></g></svg>