<svg id="Layer_1" enable-background="new 0 0 256 256" height="512" viewBox="0 0 256 256" width="512" xmlns="http://www.w3.org/2000/svg"><path d="m18.405 71.987h113.791v83.577h-113.791z" fill="#6bdddd"/><path d="m138.513 71.987h-126.424c-3.84 0-5.609-4.777-2.695-7.278l60.517-51.932c3.1-2.661 7.678-2.661 10.779 0l60.517 51.932c2.915 2.501 1.146 7.278-2.694 7.278z" fill="#f9a7a7"/><circle cx="75.301" cy="113.776" fill="#f9a7a7" r="35.502"/><path d="m75.301 140.349c-14.653 0-26.574-11.921-26.574-26.574 0-14.652 11.921-26.573 26.574-26.573s26.574 11.921 26.574 26.573c0 14.653-11.921 26.574-26.574 26.574z" fill="#4671c6"/><path d="m132.196 157.564h-113.791c-1.104 0-2-.896-2-2v-83.577c0-1.104.896-2 2-2h113.791c1.104 0 2 .896 2 2v83.577c0 1.105-.895 2-2 2zm-111.791-4h109.791v-79.577h-109.791z" fill="#3762cc"/><path d="m138.513 73.987h-126.424c-2.596 0-4.855-1.573-5.756-4.007-.901-2.435-.21-5.1 1.759-6.789l60.517-51.931c3.877-3.328 9.506-3.328 13.383 0l60.517 51.932c1.97 1.689 2.66 4.354 1.759 6.789-.9 2.433-3.16 4.006-5.755 4.006zm-63.212-61.216c-1.452 0-2.903.508-4.087 1.523l-60.517 51.933c-1.048.899-.733 2.037-.612 2.365.121.327.624 1.396 2.005 1.396h126.423c1.381 0 1.884-1.068 2.005-1.396s.436-1.466-.613-2.365l-60.517-51.932c-1.184-1.016-2.636-1.524-4.087-1.524z" fill="#3762cc"/><path d="m75.301 151.277c-20.679 0-37.502-16.823-37.502-37.502s16.823-37.502 37.502-37.502c20.678 0 37.501 16.823 37.501 37.502s-16.823 37.502-37.501 37.502zm0-71.004c-18.473 0-33.502 15.029-33.502 33.502s15.029 33.502 33.502 33.502 33.501-15.029 33.501-33.502-15.028-33.502-33.501-33.502z" fill="#3762cc"/><path d="m75.301 142.35c-15.755 0-28.574-12.818-28.574-28.574 0-15.755 12.818-28.573 28.574-28.573s28.574 12.818 28.574 28.573-12.818 28.574-28.574 28.574zm0-53.148c-13.55 0-24.574 11.023-24.574 24.573s11.024 24.574 24.574 24.574 24.574-11.024 24.574-24.574-11.024-24.573-24.574-24.573z" fill="#3762cc"/><path d="m136.133 161.973h-121.663c-3.54 0-6.409-2.869-6.409-6.409 0-3.54 2.869-6.409 6.409-6.409h121.663c3.54 0 6.409 2.869 6.409 6.409-.001 3.539-2.87 6.409-6.409 6.409z" fill="#f9cfcf"/><path d="m27.766 245.218h-7.291c-1.143 0-2.069-.926-2.069-2.069v-81.176h11.429v81.176c0 1.142-.927 2.069-2.069 2.069z" fill="#f9a7a7"/><path d="m130.128 245.218h-7.291c-1.143 0-2.069-.926-2.069-2.069v-81.176h11.429v81.176c0 1.142-.927 2.069-2.069 2.069z" fill="#f9a7a7"/><path d="m136.133 163.973h-121.663c-4.637 0-8.409-3.771-8.409-8.408s3.772-8.409 8.409-8.409h121.663c4.637 0 8.408 3.772 8.408 8.409s-3.771 8.408-8.408 8.408zm-121.663-12.818c-2.431 0-4.409 1.978-4.409 4.409s1.978 4.408 4.409 4.408h121.663c2.431 0 4.408-1.978 4.408-4.408 0-2.432-1.978-4.409-4.408-4.409z" fill="#3762cc"/><path d="m54.612 245.218c-2.666 0-4.828-2.161-4.828-4.827v-99.654c0-2.666 2.161-4.827 4.828-4.827 2.666 0 4.828 2.161 4.828 4.827v99.654c-.001 2.665-2.162 4.827-4.828 4.827z" fill="#a4c9ff"/><path d="m95.99 245.218c-2.666 0-4.828-2.161-4.828-4.827v-99.654c0-2.666 2.161-4.827 4.828-4.827 2.666 0 4.827 2.161 4.827 4.827v99.654c.001 2.665-2.16 4.827-4.827 4.827z" fill="#a4c9ff"/><path d="m70.474 204.356h9.655v51.034h-9.655z" fill="#a4c9ff" transform="matrix(0 1 -1 0 305.174 154.572)"/><path d="m70.474 179.529h9.655v51.034h-9.655z" fill="#a4c9ff" transform="matrix(0 1 -1 0 280.347 129.745)"/><path d="m70.474 154.702h9.655v51.034h-9.655z" fill="#a4c9ff" transform="matrix(0 1 -1 0 255.52 104.918)"/><path d="m70.474 129.875h9.655v51.034h-9.655z" fill="#a4c9ff" transform="matrix(0 1 -1 0 230.693 80.091)"/><path d="m232.54 209.873h-7.487c-3.962 0-7.577-2.264-9.307-5.828l-37.549-77.377c-3.46-7.129-10.688-11.657-18.613-11.657h-27.387v34.143h5.678c4.122 0 7.885 2.347 9.699 6.048l41.266 84.221c1.737 3.546 5.341 5.794 9.29 5.794h46.824c1.714 0 3.103-1.39 3.103-3.103v-16.724c0-8.569-6.947-15.517-15.517-15.517z" fill="#a4c9ff"/><g fill="#3762cc"><path d="m54.612 247.218c-3.765 0-6.828-3.063-6.828-6.827v-99.654c0-3.765 3.063-6.827 6.828-6.827s6.828 3.063 6.828 6.827v99.654c-.001 3.764-3.064 6.827-6.828 6.827zm0-109.309c-1.559 0-2.828 1.269-2.828 2.827v99.654c0 1.559 1.269 2.827 2.828 2.827s2.828-1.269 2.828-2.827v-99.654c-.001-1.558-1.269-2.827-2.828-2.827z"/><path d="m95.99 247.218c-3.765 0-6.827-3.063-6.827-6.827v-99.654c0-3.765 3.063-6.827 6.827-6.827s6.828 3.063 6.828 6.827v99.654c0 3.764-3.063 6.827-6.828 6.827zm0-109.309c-1.559 0-2.827 1.269-2.827 2.827v99.654c0 1.559 1.268 2.827 2.827 2.827s2.828-1.269 2.828-2.827v-99.654c0-1.558-1.269-2.827-2.828-2.827z"/><path d="m91.162 236.7h-31.724c-1.104 0-2-.896-2-2v-9.654c0-1.104.896-2 2-2h31.723c1.104 0 2 .896 2 2v9.654c.001 1.105-.895 2-1.999 2zm-29.724-4h27.723v-5.654h-27.723z"/><path d="m91.162 211.873h-31.724c-1.104 0-2-.896-2-2v-9.654c0-1.104.896-2 2-2h31.723c1.104 0 2 .896 2 2v9.654c.001 1.105-.895 2-1.999 2zm-29.724-4h27.723v-5.654h-27.723z"/><path d="m91.162 187.046h-31.724c-1.104 0-2-.896-2-2v-9.654c0-1.104.896-2 2-2h31.723c1.104 0 2 .896 2 2v9.654c.001 1.104-.895 2-1.999 2zm-29.724-4h27.723v-5.654h-27.723z"/><path d="m91.162 162.219h-31.724c-1.104 0-2-.896-2-2v-9.654c0-1.104.896-2 2-2h31.723c1.104 0 2 .896 2 2v9.654c.001 1.104-.895 2-1.999 2zm-29.724-4h27.723v-5.654h-27.723z"/><path d="m27.766 247.218h-7.291c-2.244 0-4.069-1.825-4.069-4.069v-81.176c0-1.104.896-2 2-2h11.429c1.104 0 2 .896 2 2v81.176c-.001 2.244-1.826 4.069-4.069 4.069zm-7.361-83.245v79.176l7.36.069c.038 0 .069-.031.069-.069v-79.176z"/><path d="m130.128 247.218h-7.292c-2.244 0-4.069-1.825-4.069-4.069v-81.176c0-1.104.896-2 2-2h11.429c1.104 0 2 .896 2 2v81.176c0 2.244-1.825 4.069-4.068 4.069zm-7.36-83.245v79.176l7.36.069c.038 0 .068-.031.068-.069v-79.176z"/><path d="m244.953 247.218h-46.823c-4.677 0-9.028-2.714-11.086-6.913l-41.266-84.222c-1.468-2.993-4.57-4.928-7.903-4.928h-5.679c-1.104 0-2-.896-2-2v-34.144c0-1.104.896-2 2-2h27.388c8.632 0 16.644 5.018 20.413 12.784l37.549 77.377c1.386 2.855 4.333 4.7 7.507 4.7h7.487c9.658 0 17.517 7.858 17.517 17.518v16.724c0 2.815-2.289 5.104-5.104 5.104zm-110.757-100.063h3.679c4.849 0 9.36 2.813 11.495 7.168l41.266 84.222c1.391 2.839 4.332 4.673 7.494 4.673h46.823c.608 0 1.104-.495 1.104-1.104v-16.724c0-7.454-6.063-13.518-13.517-13.518h-7.487c-4.695 0-9.055-2.729-11.105-6.953l-37.55-77.378c-3.104-6.396-9.704-10.53-16.813-10.53h-25.388v30.144z"/></g></svg>