<svg id="Layer_1" enable-background="new 0 0 256 256" height="512" viewBox="0 0 256 256" width="512" xmlns="http://www.w3.org/2000/svg"><path d="m201.742 62.091h-20.05c-8.676 0-15.733 7.058-15.733 15.734v153.941c0 4.816-3.918 8.734-8.733 8.734h-30.967c-4.816 0-8.734-3.918-8.734-8.734v-20.938h-7v20.938c0 8.676 7.058 15.734 15.734 15.734h30.967c8.676 0 15.733-7.058 15.733-15.734v-153.941c0-4.816 3.918-8.734 8.733-8.734h20.05c4.816 0 8.734 3.918 8.734 8.734v25.997c0 .015.004.029.004.044.29-.025.581-.044.877-.044h5.236c.296 0 .588.02.878.044 0-.015.004-.029.004-.044v-25.997c.002-8.676-7.057-15.734-15.733-15.734z" fill="#4671c6"/><path d="m142.443 180.792h-113.163v-145.786c0-4.504 3.651-8.156 8.156-8.156h96.851c4.504 0 8.156 3.651 8.156 8.156z" fill="#a4c9ff"/><path d="m142.442 182.792h-113.162c-1.104 0-2-.896-2-2v-145.786c0-5.6 4.556-10.156 10.156-10.156h96.851c5.6 0 10.155 4.556 10.155 10.156v145.786c0 1.104-.895 2-2 2zm-111.162-4h109.162v-143.786c0-3.395-2.762-6.156-6.155-6.156h-96.85c-3.395 0-6.156 2.761-6.156 6.156v143.786z" fill="#3762cc"/><path d="m137.345 191.752h-102.967c-2.815 0-5.097-2.282-5.097-5.097v-10.195c0-2.815 2.282-5.097 5.097-5.097h102.968c2.815 0 5.097 2.282 5.097 5.097v10.195c0 2.814-2.283 5.097-5.098 5.097z" fill="#e0ebfc"/><circle cx="41.769" cy="181.557" fill="#6bdddd" r="4.333"/><circle cx="58.081" cy="181.557" fill="#6bdddd" r="4.333"/><circle cx="74.392" cy="181.557" fill="#6bdddd" r="4.333"/><path d="m211.358 103.821h5.236c5.592 0 10.125 4.533 10.125 10.125v20.501c0 .962-.78 1.742-1.742 1.742h-22.003c-.962 0-1.742-.78-1.742-1.742v-20.501c.001-5.591 4.534-10.125 10.126-10.125z" fill="#a4c9ff"/><path d="m221.661 150.548h-15.37c-1.105 0-2-.895-2-2v-12.358h19.37v12.358c0 1.104-.895 2-2 2z" fill="#e0ebfc"/><path d="m209.261 139.141c-1.043 0-1.892.847-1.892 1.888v4.665c0 1.042.849 1.889 1.892 1.889 1.044 0 1.893-.847 1.893-1.889v-4.665c-.001-1.041-.849-1.888-1.893-1.888z" fill="#4671c6"/><path d="m218.691 139.141c-1.044 0-1.893.847-1.893 1.888v4.665c0 1.042.849 1.889 1.893 1.889 1.043 0 1.892-.847 1.892-1.889v-4.665c0-1.041-.849-1.888-1.892-1.888z" fill="#4671c6"/><path d="m110.329 120.006h-48.935c-3.378 0-6.117-2.739-6.117-6.117v-99.272c0-3.378 2.739-6.117 6.117-6.117h48.935c3.378 0 6.117 2.739 6.117 6.117v99.272c0 3.378-2.739 6.117-6.117 6.117z" fill="#f9a7a7"/><path d="m78.055 100.308c-.62 0-1.25-.132-1.849-.41-2.204-1.023-3.162-3.639-2.139-5.843l13.203-28.458h-8.587c-1.925 0-3.68-.977-4.694-2.614s-1.107-3.643-.25-5.367l16.483-33.143c1.082-2.176 3.723-3.063 5.899-1.98 2.176 1.082 3.063 3.723 1.98 5.899l-14.125 28.405h8.429c1.894 0 3.634.953 4.654 2.55s1.153 3.576.355 5.295l-15.365 33.117c-.744 1.605-2.334 2.549-3.994 2.549z" fill="#ffea92"/><path d="m110.329 122.006h-48.935c-4.476 0-8.116-3.641-8.116-8.117v-99.272c0-4.476 3.641-8.117 8.116-8.117h48.936c4.476 0 8.117 3.641 8.117 8.117v99.272c-.001 4.476-3.642 8.117-8.118 8.117zm-48.935-111.506c-2.27 0-4.116 1.847-4.116 4.117v99.272c0 2.27 1.847 4.117 4.116 4.117h48.936c2.271 0 4.117-1.847 4.117-4.117v-99.272c0-2.27-1.847-4.117-4.117-4.117z" fill="#3762cc"/><path d="m137.346 193.751h-102.968c-3.914 0-7.098-3.184-7.098-7.097v-10.195c0-3.914 3.184-7.098 7.098-7.098h102.968c3.913 0 7.097 3.184 7.097 7.098v10.195c-.001 3.914-3.184 7.097-7.097 7.097zm-102.968-20.389c-1.708 0-3.098 1.39-3.098 3.098v10.195c0 1.708 1.39 3.097 3.098 3.097h102.968c1.707 0 3.097-1.389 3.097-3.097v-10.195c0-1.708-1.39-3.098-3.097-3.098z" fill="#3762cc"/><path d="m118.385 210.828h-8.72c-4.63 0-8.383-3.753-8.383-8.383v-22.966c0-.563.456-1.019 1.019-1.019h23.448c.563 0 1.019.456 1.019 1.019v22.966c0 4.63-3.753 8.383-8.383 8.383z" fill="#a4c9ff"/><g fill="#3762cc"><path d="m118.385 212.828h-8.721c-5.726 0-10.383-4.658-10.383-10.384v-22.965c0-1.665 1.354-3.02 3.02-3.02h23.448c1.665 0 3.02 1.354 3.02 3.02v22.965c0 5.726-4.659 10.384-10.384 10.384zm-15.104-32.369v21.985c0 3.52 2.863 6.384 6.383 6.384h8.721c3.521 0 6.384-2.864 6.384-6.384v-21.985z"/><path d="m224.978 138.19h-22.003c-2.063 0-3.742-1.679-3.742-3.742v-20.501c0-6.686 5.439-12.125 12.126-12.125h5.236c6.686 0 12.125 5.439 12.125 12.125v20.501c0 2.063-1.679 3.742-3.742 3.742zm-21.746-4h21.487v-20.243c0-4.48-3.645-8.125-8.125-8.125h-5.236c-4.48 0-8.126 3.645-8.126 8.125z"/><path d="m221.661 152.548h-15.37c-2.206 0-4-1.794-4-4v-12.358c0-1.104.896-2 2-2h19.37c1.104 0 2 .896 2 2v12.358c0 2.205-1.794 4-4 4zm-15.37-14.358v10.358h15.373l-.003-10.358z"/></g></svg>