<svg id="Layer_1" enable-background="new 0 0 256 256" height="512" viewBox="0 0 256 256" width="512" xmlns="http://www.w3.org/2000/svg"><path d="m244 36.595h-232c-2.209 0-4-1.791-4-4v-10.845c0-2.209 1.791-4 4-4h232c2.209 0 4 1.791 4 4v10.845c0 2.209-1.791 4-4 4z" fill="#4671c6"/><path d="m19 36.595h218v153.304h-218z" fill="#e0ebfc"/><path d="m237.5 189.899h-219c-1.657 0-3 1.343-3 3v4.851c0 1.657 1.343 3 3 3h219c1.657 0 3-1.343 3-3v-4.851c0-1.657-1.343-3-3-3z" fill="#a4c9ff"/><path d="m128 240.25c-4.955 0-8.986-4.031-8.986-8.986 0-4.956 4.031-8.987 8.986-8.987s8.986 4.031 8.986 8.987c0 4.955-4.031 8.986-8.986 8.986zm0-13.974c-2.749 0-4.986 2.237-4.986 4.987 0 2.749 2.237 4.986 4.986 4.986s4.986-2.237 4.986-4.986-2.237-4.987-4.986-4.987z" fill="#3762cc"/><path d="m128 226.276c-1.104 0-2-.896-2-2v-23.526c0-1.104.896-2 2-2s2 .896 2 2v23.526c0 1.105-.896 2-2 2z" fill="#3762cc"/><path d="m117.013 103.75h-79.013c-2.209 0-4-1.791-4-4v-47c0-2.209 1.791-4 4-4h79.013c2.209 0 4 1.791 4 4v47c0 2.209-1.791 4-4 4z" fill="#b9befc"/><path d="m152.828 175.91h57.368c2.25 0 3.699-2.384 2.663-4.381l-28.684-55.31c-1.119-2.159-4.207-2.159-5.326 0l-28.684 55.31c-1.036 1.997.413 4.381 2.663 4.381z" fill="#f9a7a7"/><g fill="#6bdddd"><path d="m222.493 62.25h-87c-2.209 0-4-1.791-4-4 0-2.209 1.791-4 4-4h87c2.209 0 4 1.791 4 4 0 2.209-1.79 4-4 4z"/><path d="m222.493 80.25h-87c-2.209 0-4-1.791-4-4 0-2.209 1.791-4 4-4h87c2.209 0 4 1.791 4 4 0 2.209-1.79 4-4 4z"/><path d="m125 130.669h-87c-2.209 0-4-1.791-4-4 0-2.209 1.791-4 4-4h87c2.209 0 4 1.791 4 4 0 2.209-1.791 4-4 4z"/><path d="m125 148.669h-87c-2.209 0-4-1.791-4-4 0-2.209 1.791-4 4-4h87c2.209 0 4 1.791 4 4 0 2.209-1.791 4-4 4z"/><path d="m125 166.669h-87c-2.209 0-4-1.791-4-4 0-2.209 1.791-4 4-4h87c2.209 0 4 1.791 4 4 0 2.209-1.791 4-4 4z"/><path d="m222.493 98.25h-87c-2.209 0-4-1.791-4-4 0-2.209 1.791-4 4-4h87c2.209 0 4 1.791 4 4 0 2.209-1.79 4-4 4z"/></g><path d="m244 38.595h-232c-3.309 0-6-2.691-6-6v-10.845c0-3.309 2.691-6 6-6h232c3.309 0 6 2.691 6 6v10.845c0 3.308-2.691 6-6 6zm-232-18.845c-1.103 0-2 .897-2 2v10.845c0 1.103.897 2 2 2h232c1.103 0 2-.897 2-2v-10.845c0-1.103-.897-2-2-2z" fill="#3762cc"/><path d="m237 191.898h-218c-1.104 0-2-.896-2-2v-153.303c0-1.104.896-2 2-2h218c1.104 0 2 .896 2 2v153.304c0 1.104-.896 1.999-2 1.999zm-216-4h214v-149.303h-214z" fill="#3762cc"/><path d="m237.5 202.75h-219c-2.757 0-5-2.243-5-5v-4.852c0-2.757 2.243-5 5-5h219c2.757 0 5 2.243 5 5v4.852c0 2.757-2.243 5-5 5zm-219-10.852c-.552 0-1 .448-1 1v4.852c0 .552.448 1 1 1h219c.552 0 1-.448 1-1v-4.852c0-.552-.448-1-1-1z" fill="#3762cc"/></svg>