<svg id="Layer_1" enable-background="new 0 0 256 256" height="512" viewBox="0 0 256 256" width="512" xmlns="http://www.w3.org/2000/svg"><path d="m244 207.125h-107v-158.25h107c2.209 0 4 1.791 4 4v150.25c0 2.209-1.791 4-4 4z" fill="#a4c9ff"/><path d="m244 209.125h-107c-1.104 0-2-.896-2-2v-158.25c0-1.104.896-2 2-2h107c3.309 0 6 2.691 6 6v150.25c0 3.309-2.691 6-6 6zm-105-4h105c1.103 0 2-.897 2-2v-150.25c0-1.103-.897-2-2-2h-105z" fill="#3762cc"/><path d="m238 192.571v-29.055h-14.75v33.609l13.137-2.592c.937-.185 1.613-1.007 1.613-1.962z" fill="#e0ebfc"/><path d="m223.25 199.125c-.459 0-.909-.158-1.27-.455-.463-.38-.73-.947-.73-1.545v-33.609c0-1.104.896-2 2-2h14.75c1.104 0 2 .896 2 2v29.055c0 1.905-1.356 3.556-3.226 3.924l-13.138 2.592c-.127.025-.257.038-.386.038zm2-33.609v29.176l10.75-2.121v-27.055z" fill="#3762cc"/><path d="m238 166.411v-29.055h-14.75v33.609l13.137-2.592c.937-.185 1.613-1.007 1.613-1.962z" fill="#4671c6"/><path d="m223.25 172.964c-.459 0-.909-.158-1.27-.455-.463-.38-.73-.947-.73-1.545v-33.609c0-1.104.896-2 2-2h14.75c1.104 0 2 .896 2 2v29.055c0 1.906-1.357 3.556-3.227 3.924l-13.137 2.592c-.127.026-.257.038-.386.038zm2-33.609v29.176l10.75-2.121v-27.055z" fill="#3762cc"/><path d="m238 140.25v-29.055h-14.75v33.609l13.137-2.592c.937-.184 1.613-1.006 1.613-1.962z" fill="#6bdddd"/><path d="m223.25 146.804c-.459 0-.909-.158-1.27-.455-.463-.38-.73-.947-.73-1.545v-33.609c0-1.104.896-2 2-2h14.75c1.104 0 2 .896 2 2v29.055c0 1.906-1.357 3.556-3.227 3.924l-13.137 2.592c-.127.026-.257.038-.386.038zm2-33.609v29.176l10.75-2.121v-27.055z" fill="#3762cc"/><path d="m149 197.125h72.25c1.105 0 2-.895 2-2v-134.25c0-1.105-.895-2-2-2h-72.25c-1.105 0-2 .895-2 2v134.25c0 1.104.895 2 2 2z" fill="#f9cfcf"/><g fill="#3762cc"><path d="m215.15 82.333h-57.258c-1.104 0-2-.896-2-2s.896-2 2-2h57.258c1.104 0 2 .896 2 2s-.895 2-2 2z"/><path d="m215.15 94.333h-57.258c-1.104 0-2-.896-2-2s.896-2 2-2h57.258c1.104 0 2 .896 2 2s-.895 2-2 2z"/><path d="m215.15 106.333h-57.258c-1.104 0-2-.896-2-2s.896-2 2-2h57.258c1.104 0 2 .896 2 2s-.895 2-2 2z"/><path d="m215.15 118.333h-57.258c-1.104 0-2-.896-2-2s.896-2 2-2h57.258c1.104 0 2 .896 2 2s-.895 2-2 2z"/><path d="m215.15 130.333h-57.258c-1.104 0-2-.896-2-2s.896-2 2-2h57.258c1.104 0 2 .896 2 2s-.895 2-2 2z"/><path d="m215.15 142.333h-57.258c-1.104 0-2-.896-2-2s.896-2 2-2h57.258c1.104 0 2 .896 2 2s-.895 2-2 2z"/><path d="m215.15 154.333h-57.258c-1.104 0-2-.896-2-2s.896-2 2-2h57.258c1.104 0 2 .896 2 2s-.895 2-2 2z"/><path d="m215.15 166.333h-57.258c-1.104 0-2-.896-2-2s.896-2 2-2h57.258c1.104 0 2 .896 2 2s-.895 2-2 2z"/><path d="m215.15 178.333h-57.258c-1.104 0-2-.896-2-2s.896-2 2-2h57.258c1.104 0 2 .896 2 2s-.895 2-2 2z"/><path d="m221.25 199.125h-72.25c-2.206 0-4-1.794-4-4v-134.25c0-2.206 1.794-4 4-4h72.25c2.206 0 4 1.794 4 4v134.25c0 2.205-1.794 4-4 4zm-72.25-138.25v134.25h72.25v-134.25z"/></g><path d="m119 207.125h-107c-2.209 0-4-1.791-4-4v-150.25c0-2.209 1.791-4 4-4h107z" fill="#a4c9ff"/><path d="m119 48.875h18v158.25h-18z" fill="#4671c6"/><path d="m119 209.125h-107c-3.309 0-6-2.691-6-6v-150.25c0-3.309 2.691-6 6-6h107c1.104 0 2 .896 2 2v158.25c0 1.104-.896 2-2 2zm-107-158.25c-1.103 0-2 .897-2 2v150.25c0 1.103.897 2 2 2h105v-154.25z" fill="#3762cc"/><path d="m137 209.125h-18c-1.104 0-2-.896-2-2v-158.25c0-1.104.896-2 2-2h18c1.104 0 2 .896 2 2v158.25c0 1.104-.896 2-2 2zm-16-4h14v-154.25h-14z" fill="#3762cc"/><path d="m55.75 58.875h74.25c1.105 0 2 .895 2 2v134.25c0 1.105-.895 2-2 2h-72.25c-1.105 0-2-.895-2-2v-102.641l-13.137-2.592c-.937-.185-1.613-1.007-1.613-1.962v-27.055c0-1.105.895-2 2-2z" fill="#f9a7a7"/><path d="m154.577 144.553h-10.654c-.51 0-.923-.413-.923-.923v-45.487c0-.51.413-.923.923-.923h10.654c.51 0 .923.413.923.923v45.487c0 .509-.413.923-.923.923z" fill="#ffea92"/><path d="m131 144.553h-6c-.552 0-1-.448-1-1v-45.334c0-.552.448-1 1-1h6c.552 0 1 .448 1 1v45.333c0 .553-.448 1.001-1 1.001z" fill="#ffea92"/><path d="m154.577 146.553h-10.654c-1.611 0-2.923-1.312-2.923-2.923v-45.487c0-1.612 1.312-2.923 2.923-2.923h10.654c1.611 0 2.923 1.312 2.923 2.923v45.487c0 1.611-1.312 2.923-2.923 2.923zm-9.577-4h8.5v-43.334h-8.5z" fill="#3762cc"/><path d="m131 146.553h-6c-1.654 0-3-1.346-3-3v-45.334c0-1.654 1.346-3 3-3h6c1.654 0 3 1.346 3 3v45.333c0 1.655-1.346 3.001-3 3.001zm-5-4h4v-43.334h-4z" fill="#3762cc"/><path d="m238 114.09v-29.055h-14.75v33.609l13.137-2.592c.937-.185 1.613-1.006 1.613-1.962z" fill="#ffea92"/><path d="m223.25 120.644c-.459 0-.909-.158-1.27-.455-.463-.38-.73-.947-.73-1.545v-33.609c0-1.104.896-2 2-2h14.75c1.104 0 2 .896 2 2v29.055c0 1.906-1.357 3.556-3.227 3.924l-13.137 2.592c-.127.025-.257.038-.386.038zm2-33.609v29.176l10.75-2.121v-27.055z" fill="#3762cc"/><path d="m130 199.125h-72.25c-2.206 0-4-1.794-4-4v-100.997l-11.523-2.273c-1.87-.369-3.227-2.019-3.227-3.925v-27.055c0-2.206 1.794-4 4-4h87c2.206 0 4 1.794 4 4v134.25c0 2.206-1.794 4-4 4zm-87-138.25v27.055l13.137 2.591c.938.185 1.613 1.007 1.613 1.962v102.641h72.25v-134.249z" fill="#3762cc"/><path d="m149.296 112.34h-18.592c-1.908 0-3.454-1.547-3.454-3.454 0-1.908 1.547-3.454 3.454-3.454h18.592c1.908 0 3.454 1.547 3.454 3.454 0 1.908-1.547 3.454-3.454 3.454z" fill="#e0ebfc"/><path d="m149.296 136.34h-18.592c-1.908 0-3.454-1.547-3.454-3.454 0-1.908 1.547-3.454 3.454-3.454h18.592c1.908 0 3.454 1.547 3.454 3.454 0 1.908-1.547 3.454-3.454 3.454z" fill="#e0ebfc"/><path d="m149.296 114.34h-18.592c-3.008 0-5.454-2.447-5.454-5.454 0-3.008 2.446-5.455 5.454-5.455h18.592c3.008 0 5.454 2.447 5.454 5.455s-2.446 5.454-5.454 5.454zm-18.592-6.908c-.802 0-1.454.652-1.454 1.455 0 .802.652 1.454 1.454 1.454h18.592c.802 0 1.454-.652 1.454-1.454s-.652-1.455-1.454-1.455z" fill="#3762cc"/><path d="m149.296 138.34h-18.592c-3.008 0-5.454-2.447-5.454-5.454 0-3.008 2.446-5.455 5.454-5.455h18.592c3.008 0 5.454 2.447 5.454 5.455s-2.446 5.454-5.454 5.454zm-18.592-6.908c-.802 0-1.454.652-1.454 1.455 0 .802.652 1.454 1.454 1.454h18.592c.802 0 1.454-.652 1.454-1.454s-.652-1.455-1.454-1.455z" fill="#3762cc"/></svg>