<svg id="Layer_1" enable-background="new 0 0 256 256" height="512" viewBox="0 0 256 256" width="512" xmlns="http://www.w3.org/2000/svg"><path d="m89.488 95.665h-4.188c-37.869 0-68.567 30.699-68.567 68.568 0 22.603 10.942 42.648 27.814 55.139l-2.225 23.465c-.357 3.766 3.646 6.395 6.96 4.572l27.534-15.149c2.782.344 5.609.541 8.484.541h4.187c37.869 0 68.567-30.699 68.567-68.568.001-37.869-30.698-68.568-68.566-68.568z" fill="#f9cfcf"/><path d="m101.782 176.949h-29.268l-3.438 9.232c-2.783 7.466-3.986 9.183-8.102 9.183-3.56 0-8.468-3.269-6.483-9.625.327-1.048.867-2.504 1.621-4.371 22.294-56.598 21.452-56.749 25.953-59.297 2.499-1.416 11.186-3.619 15.519 6.875 0 0-.533-1.139 20.993 52.029 2.413 5.791 3.358 9.064.123 12.302-2.752 2.749-7.565 2.941-10.043-.197-1.717-2.171-4.094-8.824-6.875-16.131zm-25.438-10.951h21.509l-10.852-29.71z" fill="#4671c6"/><path d="m47.01 249.993c-1.284 0-2.564-.369-3.682-1.104-2.084-1.368-3.232-3.761-2.997-6.242l2.12-22.352c-17.377-13.307-27.717-34.178-27.717-56.063 0-38.911 31.656-70.567 70.567-70.567h4.188c38.911 0 70.567 31.656 70.567 70.567s-31.656 70.568-70.567 70.568h-4.189c-2.638 0-5.289-.157-8.083-.479l-26.971 14.838c-1.012.558-2.126.834-3.236.834zm38.29-152.328c-36.706 0-66.567 29.862-66.567 66.567 0 21.002 10.095 41.014 27.004 53.531.563.417.867 1.099.801 1.796l-2.225 23.465c-.097 1.018.356 1.961 1.21 2.521.853.561 1.898.601 2.794.109l27.535-15.148c.368-.203.791-.284 1.209-.233 2.869.355 5.564.527 8.239.527h4.188c36.705 0 66.567-29.862 66.567-66.568 0-36.705-29.862-66.567-66.567-66.567z" fill="#3762cc"/><path d="m170.7 8h-4.187c-37.869 0-68.567 30.699-68.567 68.568 0 39.287 33.393 73.934 81.239 68.026l27.534 15.149c3.314 1.824 7.318-.806 6.96-4.572l-2.225-23.465c16.872-12.491 27.814-32.535 27.814-55.139-.001-37.868-30.7-68.567-68.568-68.567z" fill="#f9a7a7"/><path d="m138.048 57.919c0-3.801 1.22-7.652 3.661-11.554 13.962-22.318 56.36-15.953 56.36 10.413 0 13.737-13.089 19.755-20.498 28.24-5.405 6.193-1.699 15.275-10.894 15.275-4.032 0-7.382-2.607-7.382-8.102 0-19.798 22.268-23.273 22.268-35.292 0-12.207-16.729-14.244-22.508-8.073-2.081 2.221-3.841 5.492-5.282 9.813-3.455 11.481-15.725 6.529-15.725-.72zm20.167 56.78c0-11.789 18.066-11.921 18.066 0 0 2.801-.9 5.002-2.701 6.602-5.55 4.93-15.365 2.052-15.365-6.602z" fill="#e0ebfc"/><path d="m208.99 162.328c-1.11 0-2.224-.276-3.236-.834l-26.971-14.838c-22.546 2.624-43.534-3.524-59.159-17.339-15.048-13.304-23.679-32.531-23.679-52.75 0-38.911 31.657-70.567 70.568-70.567h4.188c38.91 0 70.566 31.656 70.566 70.567 0 21.887-10.34 42.757-27.717 56.063l2.12 22.352c.234 2.482-.914 4.874-2.998 6.242-1.117.735-2.398 1.104-3.682 1.104zm-29.806-19.734c.336 0 .668.085.964.248l27.534 15.148c.894.49 1.939.453 2.795-.109.854-.561 1.308-1.504 1.211-2.521l-2.226-23.465c-.066-.697.238-1.379.801-1.796 16.909-12.518 27.004-32.529 27.004-53.531 0-36.706-29.862-66.568-66.567-66.568h-4.188c-36.706 0-66.568 29.862-66.568 66.567 0 19.073 8.139 37.208 22.329 49.754 14.902 13.176 35.023 18.96 56.665 16.287.083-.009.164-.014.246-.014z" fill="#3762cc"/></svg>