<svg id="Layer_1" enable-background="new 0 0 256 256" height="512" viewBox="0 0 256 256" width="512" xmlns="http://www.w3.org/2000/svg"><path d="m67.688 240.469h-55.425c-2.355 0-4.263-1.909-4.263-4.263v-209.975c0-2.355 1.909-4.263 4.263-4.263h55.425c2.355 0 4.263 1.909 4.263 4.263v209.975c.001 2.354-1.908 4.263-4.263 4.263z" fill="#f9a7a7"/><path d="m55.964 118.161h-31.976c-1.766 0-3.198-1.432-3.198-3.198v-65.017c0-1.766 1.432-3.198 3.198-3.198h31.976c1.766 0 3.198 1.432 3.198 3.198v65.018c-.001 1.766-1.432 3.197-3.198 3.197z" fill="#e0ebfc"/><path d="m49.7 67.133h-19.449c-1.105 0-2-.895-2-2v-6.659c0-1.105.895-2 2-2h19.449c1.105 0 2 .895 2 2v6.659c0 1.105-.895 2-2 2z" fill="#f9a7a7"/><path d="m47.437 91.381h-14.922c-2.355 0-4.263-1.909-4.263-4.263 0-2.355 1.909-4.263 4.263-4.263h14.922c2.355 0 4.263 1.909 4.263 4.263 0 2.355-1.908 4.263-4.263 4.263z" fill="#b9befc"/><path d="m47.437 108.435h-14.922c-2.355 0-4.263-1.909-4.263-4.263 0-2.355 1.909-4.263 4.263-4.263h14.922c2.355 0 4.263 1.909 4.263 4.263 0 2.354-1.908 4.263-4.263 4.263z" fill="#b9befc"/><circle cx="39.976" cy="196.502" fill="#e0ebfc" r="19.186"/><circle cx="39.976" cy="196.502" fill="#4671c6" r="12.79"/><path d="m144.164 240.469h-55.425c-2.355 0-4.263-1.909-4.263-4.263v-209.975c0-2.355 1.909-4.263 4.263-4.263h55.425c2.355 0 4.263 1.909 4.263 4.263v209.975c0 2.354-1.909 4.263-4.263 4.263z" fill="#6bdddd"/><path d="m132.439 118.161h-31.976c-1.766 0-3.198-1.432-3.198-3.198v-65.017c0-1.766 1.432-3.198 3.198-3.198h31.976c1.766 0 3.198 1.432 3.198 3.198v65.018c0 1.766-1.432 3.197-3.198 3.197z" fill="#e0ebfc"/><path d="m126.176 67.133h-19.449c-1.105 0-2-.895-2-2v-6.659c0-1.105.895-2 2-2h19.449c1.105 0 2 .895 2 2v6.659c0 1.105-.896 2-2 2z" fill="#6bdddd"/><path d="m123.912 91.381h-14.922c-2.355 0-4.263-1.909-4.263-4.263 0-2.355 1.909-4.263 4.263-4.263h14.922c2.355 0 4.263 1.909 4.263 4.263.001 2.355-1.908 4.263-4.263 4.263z" fill="#b9befc"/><path d="m123.912 108.435h-14.922c-2.355 0-4.263-1.909-4.263-4.263 0-2.355 1.909-4.263 4.263-4.263h14.922c2.355 0 4.263 1.909 4.263 4.263.001 2.354-1.908 4.263-4.263 4.263z" fill="#b9befc"/><circle cx="116.451" cy="196.502" fill="#e0ebfc" r="19.186"/><circle cx="116.451" cy="196.502" fill="#4671c6" r="12.79"/><path d="m244.476 230.779-54.583 9.624c-2.319.409-4.53-1.139-4.939-3.458l-36.461-206.785c-.409-2.319 1.139-4.53 3.458-4.939l54.583-9.624c2.319-.409 4.53 1.139 4.939 3.458l36.462 206.785c.408 2.319-1.14 4.53-3.459 4.939z" fill="#a4c9ff"/><path d="m211.691 112.365-31.49 5.553c-1.739.307-3.398-.855-3.704-2.594l-11.29-64.03c-.307-1.739.855-3.398 2.594-3.704l31.49-5.553c1.739-.307 3.398.855 3.704 2.594l11.29 64.03c.307 1.739-.854 3.398-2.594 3.704z" fill="#e0ebfc"/><path d="m196.662 63.2-19.153 3.377c-1.088.192-2.125-.535-2.317-1.622l-1.156-6.557c-.192-1.088.535-2.125 1.622-2.317l19.153-3.377c1.088-.192 2.125.535 2.317 1.622l1.156 6.557c.192 1.088-.534 2.125-1.622 2.317z" fill="#a4c9ff"/><path d="m198.644 87.473-14.695 2.591c-2.319.409-4.53-1.139-4.939-3.458-.409-2.319 1.139-4.53 3.458-4.939l14.695-2.591c2.319-.409 4.53 1.139 4.939 3.458.409 2.319-1.139 4.53-3.458 4.939z" fill="#b9befc"/><path d="m201.605 104.268-14.695 2.591c-2.319.409-4.53-1.139-4.939-3.458-.409-2.319 1.139-4.53 3.458-4.939l14.695-2.591c2.319-.409 4.53 1.139 4.939 3.458.409 2.319-1.139 4.53-3.458 4.939z" fill="#b9befc"/><circle cx="209.55" cy="192.292" fill="#e0ebfc" r="19.186"/><circle cx="209.55" cy="192.292" fill="#4671c6" r="12.79"/><g fill="#3762cc"><path d="m67.688 242.469h-55.424c-3.454 0-6.264-2.81-6.264-6.264v-209.975c0-3.454 2.81-6.263 6.264-6.263h55.425c3.454 0 6.263 2.81 6.263 6.263v209.975c0 3.454-2.81 6.264-6.264 6.264zm-55.424-218.502c-1.248 0-2.264 1.015-2.264 2.263v209.975c0 1.248 1.016 2.264 2.264 2.264h55.425c1.248 0 2.263-1.016 2.263-2.264v-209.975c0-1.248-1.015-2.263-2.263-2.263z"/><path d="m55.964 120.161h-31.976c-2.866 0-5.197-2.332-5.197-5.198v-65.017c0-2.866 2.332-5.197 5.197-5.197h31.976c2.866 0 5.197 2.332 5.197 5.197v65.018c0 2.866-2.331 5.197-5.197 5.197zm-31.976-71.412c-.66 0-1.197.537-1.197 1.197v65.018c0 .661.537 1.198 1.197 1.198h31.976c.66 0 1.197-.537 1.197-1.198v-65.018c0-.66-.537-1.197-1.197-1.197z"/><path d="m39.976 217.688c-11.682 0-21.186-9.504-21.186-21.186s9.504-21.186 21.186-21.186 21.185 9.504 21.185 21.186-9.503 21.186-21.185 21.186zm0-38.372c-9.476 0-17.186 7.709-17.186 17.186s7.709 17.186 17.186 17.186 17.185-7.709 17.185-17.186-7.709-17.186-17.185-17.186z"/><path d="m39.976 211.292c-8.156 0-14.791-6.635-14.791-14.791s6.635-14.791 14.791-14.791c8.155 0 14.79 6.635 14.79 14.791s-6.635 14.791-14.79 14.791zm0-25.581c-5.95 0-10.791 4.841-10.791 10.791s4.841 10.791 10.791 10.791 10.79-4.841 10.79-10.791-4.84-10.791-10.79-10.791z"/><path d="m144.164 242.469h-55.425c-3.454 0-6.264-2.81-6.264-6.264v-209.975c0-3.454 2.81-6.263 6.264-6.263h55.425c3.454 0 6.263 2.81 6.263 6.263v209.975c0 3.454-2.809 6.264-6.263 6.264zm-55.425-218.502c-1.248 0-2.264 1.015-2.264 2.263v209.975c0 1.248 1.016 2.264 2.264 2.264h55.425c1.248 0 2.263-1.016 2.263-2.264v-209.975c0-1.248-1.015-2.263-2.263-2.263z"/><path d="m132.439 120.161h-31.976c-2.866 0-5.197-2.332-5.197-5.198v-65.017c0-2.866 2.332-5.197 5.197-5.197h31.976c2.866 0 5.197 2.332 5.197 5.197v65.018c.001 2.866-2.331 5.197-5.197 5.197zm-31.976-71.412c-.66 0-1.197.537-1.197 1.197v65.018c0 .661.537 1.198 1.197 1.198h31.976c.66 0 1.197-.537 1.197-1.198v-65.018c0-.66-.537-1.197-1.197-1.197z"/><path d="m116.452 217.688c-11.682 0-21.186-9.504-21.186-21.186s9.504-21.186 21.186-21.186 21.185 9.504 21.185 21.186-9.504 21.186-21.185 21.186zm0-38.372c-9.476 0-17.186 7.709-17.186 17.186s7.709 17.186 17.186 17.186 17.185-7.709 17.185-17.186-7.709-17.186-17.185-17.186z"/><path d="m116.452 211.292c-8.156 0-14.791-6.635-14.791-14.791s6.635-14.791 14.791-14.791c8.155 0 14.79 6.635 14.79 14.791s-6.635 14.791-14.79 14.791zm0-25.581c-5.95 0-10.791 4.841-10.791 10.791s4.841 10.791 10.791 10.791 10.79-4.841 10.79-10.791-4.841-10.791-10.79-10.791z"/><path d="m189.15 242.469c-2.981 0-5.63-2.142-6.166-5.177l-36.461-206.785c-.6-3.401 1.68-6.656 5.081-7.256l54.583-9.625c3.396-.6 6.656 1.68 7.256 5.081l36.461 206.785c.6 3.401-1.68 6.656-5.081 7.256l-54.583 9.625c-.365.065-.73.096-1.09.096zm18.125-224.937c-.13 0-.262.011-.394.035l-54.583 9.625c-1.229.216-2.053 1.393-1.836 2.622l36.462 206.785c.217 1.229 1.393 2.053 2.622 1.836l54.583-9.625c1.229-.216 2.053-1.393 1.836-2.622l-36.462-206.786c-.193-1.096-1.15-1.87-2.228-1.87z"/><path d="m179.635 119.968c-1.057 0-2.086-.322-2.97-.941-1.137-.796-1.896-1.988-2.138-3.355l-11.29-64.03c-.498-2.823 1.394-5.524 4.216-6.021l31.49-5.552c2.823-.499 5.523 1.394 6.021 4.216l11.29 64.03c.498 2.822-1.394 5.523-4.216 6.021l-31.49 5.553c-.304.052-.61.079-.913.079zm20.212-75.979c-.069 0-.139.006-.209.019l-31.49 5.552c-.65.115-1.086.737-.971 1.388l11.29 64.03c.055.315.23.589.493.773s.581.256.895.198l31.49-5.553c.65-.115 1.086-.737.971-1.387l-11.29-64.03c-.103-.581-.609-.99-1.179-.99z"/><path d="m209.504 213.483c-4.307 0-8.504-1.315-12.106-3.837-4.635-3.246-7.729-8.103-8.712-13.676s.264-11.194 3.509-15.83c3.246-4.635 8.103-7.729 13.676-8.712 11.501-2.027 22.514 5.681 24.542 17.186.982 5.573-.264 11.194-3.51 15.83-3.246 4.635-8.103 7.729-13.676 8.712-1.241.219-2.487.327-3.723.327zm.054-38.378c-.987 0-1.987.085-2.992.263-4.521.797-8.46 3.307-11.093 7.067s-3.644 8.321-2.847 12.841c.797 4.521 3.307 8.46 7.067 11.093 3.761 2.633 8.321 3.642 12.841 2.847 4.521-.797 8.46-3.307 11.093-7.067s3.645-8.321 2.847-12.841c-1.468-8.327-8.738-14.203-16.916-14.203z"/><path d="m209.526 207.085c-3.006 0-5.938-.919-8.456-2.683-3.24-2.269-5.401-5.657-6.086-9.542s.187-7.809 2.455-11.048c2.269-3.24 5.657-5.401 9.542-6.086 3.882-.684 7.809.187 11.048 2.455 3.24 2.269 5.401 5.657 6.086 9.542s-.187 7.809-2.455 11.048c-2.269 3.24-5.657 5.401-9.542 6.086-.864.153-1.731.228-2.592.228zm.039-25.585c-.627 0-1.258.055-1.889.166-2.833.5-5.305 2.077-6.96 4.44-1.656 2.364-2.292 5.227-1.792 8.06s2.077 5.305 4.44 6.96c2.364 1.655 5.225 2.293 8.06 1.792 2.833-.5 5.305-2.077 6.96-4.44 1.656-2.364 2.292-5.227 1.792-8.06s-2.077-5.305-4.44-6.96c-1.839-1.287-3.978-1.958-6.171-1.958z"/></g></svg>