<svg id="Layer_1" enable-background="new 0 0 256 256" height="512" viewBox="0 0 256 256" width="512" xmlns="http://www.w3.org/2000/svg"><g fill="#4671c6"><path d="m88.098 248h-9.445c-1.534 0-2.777-1.244-2.777-2.777v-13.052c0-1.534 1.244-2.777 2.777-2.777h9.445c1.534 0 2.777 1.244 2.777 2.777v13.052c0 1.533-1.244 2.777-2.777 2.777z"/><path d="m177.348 248h-9.445c-1.534 0-2.777-1.244-2.777-2.777v-13.052c0-1.534 1.244-2.777 2.777-2.777h9.445c1.534 0 2.777 1.244 2.777 2.777v13.052c0 1.533-1.244 2.777-2.777 2.777z"/><path d="m88.098 248h-9.445c-1.534 0-2.777-1.244-2.777-2.777v-13.052c0-1.534 1.244-2.777 2.777-2.777h9.445c1.534 0 2.777 1.244 2.777 2.777v13.052c0 1.533-1.244 2.777-2.777 2.777z"/><path d="m177.348 248h-9.445c-1.534 0-2.777-1.244-2.777-2.777v-13.052c0-1.534 1.244-2.777 2.777-2.777h9.445c1.534 0 2.777 1.244 2.777 2.777v13.052c0 1.533-1.244 2.777-2.777 2.777z"/></g><path d="m88.098 250h-9.445c-2.634 0-4.777-2.143-4.777-4.777v-13.053c0-2.634 2.143-4.777 4.777-4.777h9.445c2.634 0 4.777 2.143 4.777 4.777v13.052c0 2.635-2.143 4.778-4.777 4.778zm-9.446-18.607c-.429 0-.777.349-.777.777v13.052c0 .429.349.777.777.777h9.445c.429 0 .777-.349.777-.777v-13.052c0-.429-.349-.777-.777-.777z" fill="#3762cc"/><path d="m177.348 250h-9.445c-2.634 0-4.777-2.143-4.777-4.777v-13.053c0-2.634 2.144-4.777 4.777-4.777h9.445c2.634 0 4.777 2.143 4.777 4.777v13.052c0 2.635-2.144 4.778-4.777 4.778zm-9.446-18.607c-.429 0-.777.349-.777.777v13.052c0 .429.349.777.777.777h9.445c.429 0 .777-.349.777-.777v-13.052c0-.429-.349-.777-.777-.777z" fill="#3762cc"/><path d="m88.098 250h-9.445c-2.634 0-4.777-2.143-4.777-4.777v-13.053c0-2.634 2.143-4.777 4.777-4.777h9.445c2.634 0 4.777 2.143 4.777 4.777v13.052c0 2.635-2.143 4.778-4.777 4.778zm-9.446-18.607c-.429 0-.777.349-.777.777v13.052c0 .429.349.777.777.777h9.445c.429 0 .777-.349.777-.777v-13.052c0-.429-.349-.777-.777-.777z" fill="#3762cc"/><path d="m177.348 250h-9.445c-2.634 0-4.777-2.143-4.777-4.777v-13.053c0-2.634 2.144-4.777 4.777-4.777h9.445c2.634 0 4.777 2.143 4.777 4.777v13.052c0 2.635-2.144 4.778-4.777 4.778zm-9.446-18.607c-.429 0-.777.349-.777.777v13.052c0 .429.349.777.777.777h9.445c.429 0 .777-.349.777-.777v-13.052c0-.429-.349-.777-.777-.777z" fill="#3762cc"/><path d="m159 21h-62c-2.209 0-4-1.791-4-4v-5c0-2.209 1.791-4 4-4h62c2.209 0 4 1.791 4 4v5c0 2.209-1.791 4-4 4z" fill="#4671c6"/><path d="m159 23h-62c-3.309 0-6-2.691-6-6v-5c0-3.309 2.691-6 6-6h62c3.309 0 6 2.691 6 6v5c0 3.309-2.691 6-6 6zm-62-13c-1.103 0-2 .897-2 2v5c0 1.103.897 2 2 2h62c1.103 0 2-.897 2-2v-5c0-1.103-.897-2-2-2z" fill="#3762cc"/><path d="m182.75 227.393h-109.5c-5.523 0-10-4.477-10-10v-120.956c0-19.33 15.67-35 35-35h59.5c19.33 0 35 15.67 35 35v120.956c0 5.523-4.477 10-10 10z" fill="#f9a7a7"/><path d="m89.125 227.393h-11.5c-2.757 0-5 2.243-5 5v6.037h21.5v-6.037c0-2.757-2.243-5-5-5z" fill="#a4c9ff"/><path d="m178.375 227.393h-11.5c-2.757 0-5 2.243-5 5v6.037h21.5v-6.037c0-2.757-2.243-5-5-5z" fill="#a4c9ff"/><path d="m164.625 215.333h-73.25c-4.418 0-8-3.582-8-8v-41c0-4.418 3.582-8 8-8h73.25c4.418 0 8 3.582 8 8v41c0 4.419-3.582 8-8 8z" fill="#e0ebfc"/><path d="m83.375 166.333v24.333h89.25v-24.333c0-4.418-3.582-8-8-8h-73.25c-4.418 0-8 3.582-8 8z" fill="#a4c9ff"/><path d="m158.75 69.437h-61.5c-14.359 0-26 11.641-26 26 0 1.576 0 50.962 0 50.23 0 .552.448 1 1 1h6c.552 0 1-.448 1-1 0-1.84 0-51.714 0-50.23 0-9.941 8.059-18 18-18h61.5c9.941 0 18 8.059 18 18 0 1.576 0 50.962 0 50.23 0 .552.448 1 1 1h6c.552 0 1-.448 1-1 0-1.84 0-51.714 0-50.23 0-14.36-11.641-26-26-26z" fill="#f9cfcf"/><path d="m142.208 126.961h-28.416c-2.209 0-4-1.791-4-4v-6.566c0-2.209 1.791-4 4-4h28.416c2.209 0 4 1.791 4 4v6.566c0 2.21-1.791 4-4 4z" fill="#6bdddd"/><path d="m182.75 229.393h-109.5c-6.617 0-12-5.383-12-12v-120.956c0-20.402 16.598-37 37-37h59.5c20.402 0 37 16.598 37 37v120.956c0 6.617-5.383 12-12 12zm-84.5-165.956c-18.196 0-33 14.804-33 33v120.956c0 4.411 3.589 8 8 8h109.5c4.411 0 8-3.589 8-8v-120.956c0-18.196-14.804-33-33-33z" fill="#3762cc"/><path d="m183.75 148.667h-6c-1.64 0-2.976-1.322-3-2.956 0-.012 0-.024 0-.037v-50.237c0-8.822-7.178-16-16-16h-61.5c-8.822 0-16 7.178-16 16v50.23c0 1.654-1.346 3-3 3h-6c-1.639 0-2.976-1.322-3-2.956 0-.012 0-.024 0-.037v-50.237c0-15.439 12.561-28 28-28h61.5c15.424 0 27.976 12.537 28 27.956v.012 50.262c0 1.654-1.346 3-3 3zm-5-4h4v-49.23c0-13.234-10.767-24-24-24h-61.5c-13.233 0-24 10.766-24 24v49.23h4v-49.263c0-.005 0-.01 0-.015.026-11.006 8.988-19.953 20-19.953h61.5c11.028 0 20 8.972 20 20z" fill="#3762cc"/><path d="m142.208 128.961h-28.416c-3.309 0-6-2.691-6-6v-6.566c0-3.309 2.691-6 6-6h28.416c3.309 0 6 2.691 6 6v6.566c0 3.309-2.691 6-6 6zm-28.416-14.566c-1.103 0-2 .897-2 2v6.566c0 1.103.897 2 2 2h28.416c1.103 0 2-.897 2-2v-6.566c0-1.103-.897-2-2-2z" fill="#3762cc"/><path d="m71.498 144.272-1.88 12.408c-.201 1.329.828 2.526 2.172 2.526h6.836c1.344 0 2.374-1.197 2.172-2.526l-1.88-12.408c-.278-1.834-1.855-3.19-3.71-3.19-1.855 0-3.432 1.356-3.71 3.19z" fill="#e0ebfc"/><path d="m78.626 161.207h-6.836c-1.224 0-2.384-.532-3.182-1.461-.798-.928-1.151-2.155-.967-3.365l1.88-12.408c.43-2.834 2.822-4.891 5.688-4.891s5.258 2.057 5.688 4.891l1.88 12.408c.184 1.21-.169 2.437-.967 3.365-.799.928-1.959 1.461-3.184 1.461zm-5.15-16.635-1.88 12.408c-.003.022-.014.089.045.158.059.068.126.068.149.068h6.836c.022 0 .09 0 .149-.068.059-.069.049-.136.045-.158l-1.88-12.408c-.131-.864-.859-1.49-1.732-1.49s-1.602.626-1.732 1.49z" fill="#3762cc"/><path d="m164.625 217.333h-73.25c-5.514 0-10-4.486-10-10v-41c0-5.514 4.486-10 10-10h73.25c5.514 0 10 4.486 10 10v41c0 5.515-4.486 10-10 10zm-73.25-57c-3.309 0-6 2.691-6 6v41c0 3.309 2.691 6 6 6h73.25c3.309 0 6-2.691 6-6v-41c0-3.309-2.691-6-6-6z" fill="#3762cc"/><path d="m172.625 192.667h-89.25c-1.104 0-2-.896-2-2v-24.333c0-5.514 4.486-10 10-10h73.25c5.514 0 10 4.486 10 10v24.333c0 1.104-.896 2-2 2zm-87.25-4h85.25v-22.333c0-3.309-2.691-6-6-6h-73.25c-3.309 0-6 2.691-6 6z" fill="#3762cc"/><path d="m128 203c-3.774 0-6.833-3.059-6.833-6.833v-14.167c0-1.105.895-2 2-2h9.667c1.105 0 2 .895 2 2v14.167c-.001 3.774-3.06 6.833-6.834 6.833z" fill="#4671c6"/><path d="m128 205c-4.871 0-8.833-3.963-8.833-8.833v-14.167c0-2.206 1.794-4 4-4h9.667c2.206 0 4 1.794 4 4v14.167c-.001 4.87-3.964 8.833-8.834 8.833zm-4.833-23v14.167c0 2.665 2.168 4.833 4.833 4.833s4.833-2.168 4.833-4.833v-14.167z" fill="#3762cc"/><path d="m94.125 240.43h-21.5c-1.104 0-2-.896-2-2v-6.037c0-3.86 3.14-7 7-7h11.5c3.86 0 7 3.14 7 7v6.037c0 1.105-.896 2-2 2zm-19.5-4h17.5v-4.037c0-1.654-1.346-3-3-3h-11.5c-1.654 0-3 1.346-3 3z" fill="#3762cc"/><path d="m183.375 240.43h-21.5c-1.104 0-2-.896-2-2v-6.037c0-3.86 3.141-7 7-7h11.5c3.859 0 7 3.14 7 7v6.037c0 1.105-.896 2-2 2zm-19.5-4h17.5v-4.037c0-1.654-1.346-3-3-3h-11.5c-1.654 0-3 1.346-3 3z" fill="#3762cc"/><path d="m123 21h10v40.437h-10z" fill="#e0ebfc"/><path d="m133 63.437h-10c-1.104 0-2-.896-2-2v-40.437c0-1.104.896-2 2-2h10c1.104 0 2 .896 2 2v40.437c0 1.104-.896 2-2 2zm-8-4h6v-36.437h-6z" fill="#3762cc"/></svg>