<svg id="Layer_1" enable-background="new 0 0 256 256" height="512" viewBox="0 0 256 256" width="512" xmlns="http://www.w3.org/2000/svg"><path d="m155.296 164.567c0 2.56-2.075 4.635-4.635 4.635-1.052 0-46.174 0-45.322 0-2.56 0-4.635-2.075-4.635-4.635v-10.957c0-2.56 2.075-4.635 4.635-4.635h45.322c2.56 0 4.635 2.075 4.635 4.635z" fill="#4671c6"/><path d="m109.974 169.202-26.266 15.451h88.584l-26.266-15.451z" fill="#a4c9ff"/><path d="m225.339 220.704h-194.678c-1.707 0-3.09-1.383-3.09-3.09v-17.511c0-8.533 6.917-15.451 15.451-15.451h169.957c8.533 0 15.451 6.917 15.451 15.451v17.511c-.001 1.706-1.384 3.09-3.091 3.09z" fill="#a4c9ff"/><path d="m216.069 248h-176.138c-4.267 0-7.725-3.459-7.725-7.725v-19.571h191.588v19.571c0 4.266-3.459 7.725-7.725 7.725z" fill="#6bdddd"/><path d="m157.66 26.91c-5.369-11.534-16.937-18.91-29.66-18.91s-24.291 7.376-29.66 18.91c-4.819 10.352-6.162 21.984-3.829 33.162l18.55 88.902h29.879l18.55-88.902c2.331-11.177.988-22.809-3.83-33.162z" fill="#4671c6"/><g fill="#3762cc"><path d="m150.661 171.202h-45.334c-.005 0-.01 0-.015 0-3.646-.014-6.608-2.985-6.608-6.635v-10.957c0-3.659 2.977-6.635 6.635-6.635h45.322c3.658 0 6.635 2.977 6.635 6.635v10.957c0 3.658-2.977 6.635-6.635 6.635zm-45.322-4h45.322c1.453 0 2.635-1.182 2.635-2.635v-10.957c0-1.453-1.182-2.635-2.635-2.635h-45.322c-1.453 0-2.635 1.182-2.635 2.635v10.957c0 1.453 1.182 2.635 2.635 2.635z"/><path d="m172.292 186.652h-88.584c-.902 0-1.693-.604-1.93-1.475s.138-1.792.916-2.249l26.266-15.451c.308-.181.658-.276 1.014-.276h36.052c.356 0 .707.095 1.014.276l26.266 15.451c.777.457 1.153 1.378.916 2.249s-1.028 1.475-1.93 1.475zm-81.239-4h73.895l-19.466-11.451h-34.963z"/><path d="m225.339 222.704h-194.678c-2.807 0-5.09-2.284-5.09-5.09v-17.511c0-9.623 7.828-17.451 17.451-17.451h169.957c9.623 0 17.451 7.828 17.451 17.451v17.511c-.001 2.806-2.284 5.09-5.091 5.09zm-182.318-36.052c-7.417 0-13.451 6.034-13.451 13.451v17.511c0 .601.489 1.09 1.09 1.09h194.678c.601 0 1.09-.489 1.09-1.09v-17.511c0-7.417-6.034-13.451-13.451-13.451z"/><path d="m216.069 250h-176.138c-5.362 0-9.725-4.363-9.725-9.725v-19.571c0-1.104.896-2 2-2h191.588c1.104 0 2 .896 2 2v19.571c0 5.362-4.363 9.725-9.725 9.725zm-181.863-27.296v17.571c0 3.157 2.568 5.725 5.725 5.725h176.138c3.157 0 5.725-2.568 5.725-5.725v-17.571z"/><path d="m142.939 150.974h-29.879c-.947 0-1.764-.665-1.958-1.591l-18.55-88.901c-2.404-11.523-.992-23.745 3.975-34.415 5.673-12.191 18.027-20.067 31.473-20.067s25.8 7.876 31.473 20.067c4.966 10.669 6.378 22.892 3.974 34.415l-18.55 88.901c-.193.927-1.01 1.591-1.958 1.591zm-28.252-4h26.627l18.218-87.31c2.229-10.684.92-22.016-3.685-31.909-5.02-10.786-15.951-17.755-27.847-17.755s-22.827 6.969-27.846 17.754c-4.605 9.894-5.914 21.226-3.685 31.91z"/></g></svg>