<svg id="Layer_1" enable-background="new 0 0 256 256" height="512" viewBox="0 0 256 256" width="512" xmlns="http://www.w3.org/2000/svg"><path d="m49.23 245.252 196.022-196.022c1.546-1.546 1.546-4.052 0-5.597l-32.884-32.884c-1.546-1.546-4.052-1.546-5.597 0l-196.023 196.021c-1.546 1.546-1.546 4.052 0 5.597l32.884 32.884c1.546 1.546 4.052 1.546 5.598.001z" fill="#a4c9ff"/><g fill="#3762cc"><path d="m209.79 27.662c-.512 0-1.023-.195-1.414-.586l-8.967-8.967c-.781-.781-.781-2.047 0-2.828s2.047-.781 2.828 0l8.967 8.967c.781.781.781 2.047 0 2.828-.391.391-.902.586-1.414.586z"/><path d="m195.796 41.655c-.512 0-1.023-.195-1.414-.586l-8.966-8.967c-.781-.781-.781-2.047 0-2.828s2.047-.781 2.828 0l8.966 8.967c.781.781.781 2.047 0 2.828-.391.391-.902.586-1.414.586z"/><path d="m187.781 61.626c-.512 0-1.023-.195-1.414-.586l-14.944-14.944c-.781-.781-.781-2.047 0-2.828s2.047-.781 2.828 0l14.944 14.944c.781.781.781 2.047 0 2.828-.39.391-.902.586-1.414.586z"/><path d="m167.81 69.642c-.512 0-1.023-.195-1.414-.586l-8.966-8.966c-.781-.781-.781-2.047 0-2.828s2.047-.781 2.828 0l8.966 8.966c.781.781.781 2.047 0 2.828-.391.39-.903.586-1.414.586z"/><path d="m153.816 83.635c-.512 0-1.023-.195-1.414-.586l-8.966-8.966c-.781-.781-.781-2.047 0-2.828s2.047-.781 2.828 0l8.966 8.966c.781.781.781 2.047 0 2.828-.39.39-.902.586-1.414.586z"/><path d="m145.801 103.606c-.512 0-1.023-.195-1.414-.586l-14.943-14.944c-.781-.781-.781-2.047 0-2.828s2.047-.781 2.828 0l14.943 14.944c.781.781.781 2.047 0 2.828-.391.391-.902.586-1.414.586z"/><path d="m125.83 111.622c-.512 0-1.024-.195-1.414-.586l-8.966-8.967c-.781-.781-.781-2.047 0-2.828.78-.781 2.048-.781 2.828 0l8.966 8.967c.781.781.781 2.047 0 2.828-.39.39-.902.586-1.414.586z"/><path d="m111.837 125.615c-.512 0-1.024-.195-1.414-.586l-8.966-8.967c-.781-.781-.781-2.047 0-2.828.78-.781 2.048-.781 2.828 0l8.966 8.967c.781.781.781 2.047 0 2.828-.39.39-.902.586-1.414.586z"/><path d="m103.821 145.585c-.512 0-1.023-.195-1.414-.586l-14.944-14.944c-.781-.781-.781-2.047 0-2.828.78-.781 2.047-.781 2.828 0l14.944 14.944c.781.781.781 2.047 0 2.828-.39.391-.902.586-1.414.586z"/><path d="m83.851 153.601c-.512 0-1.023-.195-1.414-.586l-8.967-8.966c-.781-.781-.781-2.047 0-2.828.78-.781 2.047-.781 2.828 0l8.967 8.966c.781.781.781 2.047 0 2.828-.39.391-.903.586-1.414.586z"/><path d="m69.857 167.594c-.512 0-1.023-.195-1.414-.586l-8.967-8.966c-.781-.781-.781-2.047 0-2.828.78-.781 2.047-.781 2.828 0l8.967 8.966c.781.781.781 2.047 0 2.828-.39.391-.902.586-1.414.586z"/><path d="m61.842 187.565c-.512 0-1.023-.195-1.414-.586l-14.944-14.944c-.781-.781-.781-2.047 0-2.828.78-.781 2.047-.781 2.828 0l14.944 14.944c.781.781.781 2.047 0 2.828-.39.391-.902.586-1.414.586z"/><path d="m40.113 193.823c-.512 0-1.024-.195-1.414-.586l-7.208-7.208c-.781-.781-.781-2.047 0-2.828.78-.781 2.048-.781 2.828 0l7.208 7.208c.781.781.781 2.047 0 2.828-.39.39-.902.586-1.414.586z"/><path d="m55.864 181.587c-.512 0-1.023-.195-1.414-.586l-8.967-8.966c-.781-.781-.781-2.047 0-2.828.78-.781 2.047-.781 2.828 0l8.967 8.966c.781.781.781 2.047 0 2.828-.39.391-.902.586-1.414.586z"/><path d="m41.871 195.581c-.512 0-1.024-.195-1.414-.586l-8.966-8.966c-.781-.781-.781-2.047 0-2.828.78-.781 2.048-.781 2.828 0l8.966 8.966c.781.781.781 2.047 0 2.828-.39.39-.903.586-1.414.586z"/><path d="m27.877 209.574c-.512 0-1.024-.195-1.414-.586l-8.966-8.967c-.781-.781-.781-2.047 0-2.828.78-.781 2.048-.781 2.828 0l8.966 8.967c.781.781.781 2.047 0 2.828-.39.391-.902.586-1.414.586z"/><path d="m46.431 248.408c-1.526 0-3.051-.581-4.213-1.743l-32.884-32.883c-2.323-2.323-2.323-6.103 0-8.426l196.022-196.022c1.124-1.125 2.62-1.746 4.213-1.746 1.591 0 3.088.62 4.213 1.746l32.884 32.883c2.322 2.323 2.322 6.103.001 8.425l-196.023 196.024-1.414-1.414 1.414 1.414c-1.162 1.161-2.687 1.742-4.213 1.742zm163.138-236.819c-.523 0-1.015.204-1.384.573l-196.022 196.022c-.37.37-.574.862-.574 1.385s.204 1.015.574 1.385l32.884 32.884c.74.739 2.029.739 2.77 0l196.021-196.022c.763-.763.763-2.006-.001-2.77l-32.884-32.883c-.37-.371-.861-.574-1.384-.574z"/></g><circle cx="46.898" cy="227.873" fill="#4671c6" r="4.507"/><path d="m46.897 234.38c-3.588 0-6.507-2.919-6.507-6.507s2.919-6.507 6.507-6.507 6.507 2.919 6.507 6.507c.001 3.588-2.918 6.507-6.507 6.507zm0-9.014c-1.382 0-2.507 1.125-2.507 2.507s1.125 2.507 2.507 2.507 2.507-1.125 2.507-2.507-1.124-2.507-2.507-2.507z" fill="#3762cc"/></svg>