<svg id="Layer_1" enable-background="new 0 0 256 256" height="512" viewBox="0 0 256 256" width="512" xmlns="http://www.w3.org/2000/svg"><path d="m206.033 248h-156.066c-6.385 0-11.561-5.176-11.561-11.561v-118.495c0-49.481 40.113-89.594 89.594-89.594 49.444 0 89.594 40.075 89.594 89.594v118.495c0 6.385-5.176 11.561-11.561 11.561z" fill="#a4c9ff"/><path d="m187.768 230.609h-119.536c-5.619 0-10.173-4.555-10.173-10.173v-49.595c0-5.619 4.555-10.173 10.173-10.173h119.536c5.619 0 10.173 4.555 10.173 10.173v49.595c0 5.618-4.555 10.173-10.173 10.173z" fill="#4671c6"/><path d="m187.132 183.134h-118.264c-1.756 0-3.179-1.423-3.179-3.179 0-1.756 1.423-3.179 3.179-3.179h118.264c1.756 0 3.179 1.423 3.179 3.179 0 1.756-1.423 3.179-3.179 3.179z" fill="#e0ebfc"/><path d="m54.423 111.667c2.359 0 4.31-1.778 4.595-4.12 4.181-34.356 33.516-61.061 68.982-61.061s64.801 26.705 68.982 61.061c.285 2.341 2.236 4.12 4.595 4.12 2.784 0 4.934-2.44 4.599-5.204-4.719-38.948-37.975-69.226-78.176-69.226s-73.457 30.278-78.176 69.225c-.335 2.764 1.816 5.205 4.599 5.205z" fill="#e0ebfc"/><path d="m206.034 250h-156.068c-7.477 0-13.56-6.083-13.56-13.561v-118.495c0-50.505 41.089-91.594 91.594-91.594s91.594 41.089 91.594 91.594v118.495c0 7.478-6.083 13.561-13.56 13.561zm-78.034-219.65c-48.299 0-87.594 39.294-87.594 87.594v118.495c0 5.271 4.289 9.561 9.56 9.561h156.067c5.271 0 9.561-4.289 9.561-9.561v-118.495c0-48.299-39.294-87.594-87.594-87.594z" fill="#3762cc"/><path d="m201.577 113.667c-3.343 0-6.172-2.527-6.58-5.878-4.115-33.809-32.917-59.303-66.997-59.303s-62.882 25.494-66.997 59.303c-.407 3.351-3.236 5.878-6.58 5.878-1.895 0-3.703-.814-4.96-2.233-1.261-1.423-1.853-3.323-1.624-5.211 4.903-40.469 39.365-70.986 80.161-70.986s75.258 30.517 80.161 70.985c.229 1.889-.363 3.788-1.624 5.211-1.257 1.42-3.065 2.234-4.96 2.234zm-73.577-69.181c36.1 0 66.609 27.006 70.967 62.819.164 1.346 1.286 2.361 2.609 2.361.762 0 1.46-.314 1.967-.886.51-.576.739-1.313.647-2.077-4.66-38.461-37.415-67.466-76.19-67.466s-71.53 29.004-76.19 67.466c-.092.764.137 1.501.647 2.077.506.571 1.205.886 1.967.886 1.324 0 2.446-1.015 2.609-2.361 4.358-35.813 34.867-62.819 70.967-62.819z" fill="#3762cc"/><path d="m50.011 108.356-1.88 12.408c-.201 1.329.828 2.526 2.172 2.526h6.836c1.344 0 2.374-1.197 2.172-2.526l-1.88-12.408c-.278-1.834-1.855-3.19-3.71-3.19-1.855-.001-3.432 1.355-3.71 3.19z" fill="#f9a7a7"/><g fill="#3762cc"><path d="m57.139 125.29h-6.836c-1.224 0-2.384-.532-3.182-1.46s-1.151-2.154-.968-3.365l1.88-12.409c.43-2.834 2.822-4.891 5.688-4.891s5.258 2.057 5.688 4.891l1.88 12.408c.183 1.211-.169 2.437-.968 3.365s-1.958 1.461-3.182 1.461zm-5.151-16.634-1.88 12.408c-.003.021-.014.089.045.158.059.068.127.068.149.068h6.836c.022 0 .09 0 .149-.069.059-.068.049-.136.045-.158l-1.88-12.408c-.131-.864-.859-1.49-1.732-1.49s-1.6.627-1.732 1.491z"/><path d="m187.768 232.609h-119.536c-6.712 0-12.173-5.461-12.173-12.173v-49.595c0-6.712 5.461-12.173 12.173-12.173h119.536c6.712 0 12.173 5.461 12.173 12.173v49.595c0 6.712-5.461 12.173-12.173 12.173zm-119.536-69.941c-4.506 0-8.173 3.667-8.173 8.173v49.595c0 4.506 3.667 8.173 8.173 8.173h119.536c4.506 0 8.173-3.667 8.173-8.173v-49.595c0-4.507-3.667-8.173-8.173-8.173z"/><path d="m187.132 185.134h-118.264c-2.856 0-5.179-2.323-5.179-5.179s2.323-5.179 5.179-5.179h118.264c2.856 0 5.179 2.323 5.179 5.179s-2.323 5.179-5.179 5.179zm-118.264-6.359c-.65 0-1.179.529-1.179 1.179s.529 1.179 1.179 1.179h118.264c.65 0 1.179-.529 1.179-1.179s-.529-1.179-1.179-1.179z"/></g><path d="m175.736 183.464-2.068 13.649c-.222 1.462.91 2.779 2.389 2.779h7.52c1.479 0 2.611-1.316 2.389-2.779l-2.068-13.649c-.306-2.018-2.04-3.509-4.081-3.509-2.041 0-3.775 1.491-4.081 3.509z" fill="#f9a7a7"/><path d="m183.577 201.892h-7.52c-1.288 0-2.509-.56-3.349-1.537s-1.211-2.268-1.018-3.542l2.068-13.649c.458-3.019 3.005-5.21 6.059-5.21s5.602 2.191 6.059 5.21l2.068 13.648c.193 1.274-.178 2.564-1.018 3.542s-2.061 1.538-3.349 1.538zm-3.76-19.937c-1.06 0-1.945.761-2.104 1.809l-2.068 13.649c-.024.156.039.268.096.334s.158.145.316.145h7.52c.158 0 .259-.079.316-.145s.12-.178.096-.334l-2.068-13.649c-.159-1.049-1.044-1.809-2.104-1.809zm-4.081 1.509h.01z" fill="#3762cc"/><circle cx="128" cy="109.165" fill="#f9a7a7" r="26.601"/><path d="m128 127.366c-10.036 0-18.201-8.165-18.201-18.201s8.165-18.2 18.201-18.2 18.201 8.165 18.201 18.201-8.165 18.2-18.201 18.2z" fill="#f9cfcf"/><path d="m128 137.766c-15.771 0-28.601-12.83-28.601-28.601s12.83-28.601 28.601-28.601 28.601 12.831 28.601 28.601-12.83 28.601-28.601 28.601zm0-53.202c-13.565 0-24.601 11.036-24.601 24.601s11.036 24.601 24.601 24.601 24.601-11.036 24.601-24.601-11.036-24.601-24.601-24.601z" fill="#3762cc"/><path d="m77.202 44.14-15.502-34.106c-.749-1.649-2.642-2.443-4.344-1.824l-24.136 8.785c-1.702.62-2.641 2.444-2.155 4.189l16.144 57.986c6.794-14.131 17.19-26.201 29.993-35.03z" fill="#4671c6"/><path d="m47.209 81.17c-.059 0-.118-.002-.177-.008-.83-.073-1.527-.653-1.75-1.456l-16.143-57.985c-.761-2.733.731-5.635 3.397-6.605l24.137-8.785c2.667-.971 5.674.292 6.848 2.875l15.502 34.106c.401.882.112 1.924-.686 2.474-12.584 8.678-22.725 20.522-29.326 34.25-.335.698-1.038 1.134-1.802 1.134zm11.329-71.169c-.166 0-.333.028-.497.088l-24.137 8.785c-.716.261-1.117 1.04-.912 1.773l14.778 53.079c6.588-11.925 15.804-22.294 26.926-30.268l-14.817-32.597c-.243-.535-.78-.86-1.341-.86z" fill="#3762cc"/><path d="m222.78 16.995-24.137-8.785c-1.702-.62-3.594.175-4.344 1.824l-15.501 34.106c12.803 8.829 23.199 20.899 29.994 35.03l16.143-57.986c.485-1.745-.453-3.57-2.155-4.189z" fill="#4671c6"/><path d="m208.791 81.17c-.763 0-1.467-.437-1.802-1.133-6.601-13.728-16.742-25.572-29.327-34.25-.797-.55-1.086-1.592-.686-2.474l15.502-34.106c1.174-2.583 4.182-3.847 6.849-2.875l24.136 8.785c2.666.971 4.158 3.872 3.397 6.605l-16.143 57.986c-.224.802-.921 1.382-1.75 1.456-.058.004-.117.006-.176.006zm-27.486-37.712c11.122 7.973 20.338 18.344 26.926 30.268l14.777-53.079c.205-.734-.196-1.513-.912-1.773l-24.136-8.785c-.715-.261-1.524.078-1.839.772z" fill="#3762cc"/><path d="m115.094 29.279 1.693-7.236c.245-1.046 1.177-1.785 2.251-1.785h17.923c1.074 0 2.007.74 2.251 1.785l1.693 7.236c3.094.446 6.138 1.049 9.122 1.803l-4.849-16.018c-.59-1.95-2.388-3.284-4.426-3.284-9.219 0-16.277 0-25.506 0-2.038 0-3.835 1.334-4.426 3.284l-4.849 16.018c2.984-.754 6.028-1.356 9.123-1.803z" fill="#f9a7a7"/><path d="m150.028 33.083c-.164 0-.328-.02-.49-.061-2.912-.736-5.912-1.329-8.917-1.763-.814-.118-1.474-.722-1.662-1.524l-1.693-7.236c-.033-.142-.158-.241-.304-.241h-17.923c-.146 0-.271.1-.304.242l-1.693 7.235c-.188.802-.847 1.406-1.662 1.524-3.005.434-6.006 1.026-8.917 1.763-.699.176-1.439-.037-1.937-.558s-.676-1.271-.467-1.96l4.849-16.018c.853-2.814 3.4-4.705 6.34-4.705h25.506c2.939 0 5.487 1.891 6.34 4.704l4.849 16.019c.209.69.03 1.439-.467 1.961-.383.399-.908.618-1.448.618zm-34.934-3.804h.01zm.153-15.499c-1.165 0-2.174.749-2.512 1.864l-3.847 12.708c1.512-.32 3.037-.604 4.567-.848l1.385-5.918c.459-1.961 2.186-3.33 4.199-3.33h17.923c2.014 0 3.74 1.369 4.199 3.33l1.385 5.918c1.53.244 3.056.527 4.567.847l-3.847-12.708c-.338-1.115-1.347-1.864-2.512-1.864h-25.507z" fill="#3762cc"/></svg>