<svg id="Layer_1" enable-background="new 0 0 256 256" height="512" viewBox="0 0 256 256" width="512" xmlns="http://www.w3.org/2000/svg"><path d="m203.987 240.895h-172.036c-9.345 0-16.921-7.576-16.921-16.921v-172.035c0-9.345 7.576-16.921 16.921-16.921h172.036c9.345 0 16.921 7.576 16.921 16.921v172.036c0 9.344-7.576 16.92-16.921 16.92z" fill="#4671c6"/><path d="m203.987 242.896h-172.036c-10.433 0-18.92-8.488-18.92-18.921v-172.037c0-10.433 8.488-18.92 18.92-18.92h172.036c10.433 0 18.92 8.487 18.92 18.92v172.036c.001 10.433-8.487 18.922-18.92 18.922zm-172.036-205.877c-8.227 0-14.92 6.693-14.92 14.92v172.036c0 8.228 6.693 14.921 14.92 14.921h172.036c8.227 0 14.92-6.693 14.92-14.921v-172.037c0-8.227-6.693-14.92-14.92-14.92h-172.036z" fill="#3762cc"/><path d="m164.622 221.299h-94.606c-4.153 0-7.52-3.367-7.52-7.52v-25.849c0-4.153 3.367-7.52 7.52-7.52h94.606c4.153 0 7.52 3.367 7.52 7.52v25.849c0 4.153-3.367 7.52-7.52 7.52z" fill="#a4c9ff"/><path d="m178.644 205.384c-1.817 0-3.29-1.473-3.29-3.29s1.473-3.29 3.29-3.29h5.379l24.282-18.714c1.055-.812 1.685-2.093 1.685-3.425v-65.52c0-1.817 1.473-3.29 3.29-3.29s3.29 1.473 3.29 3.29v65.52c0 3.359-1.588 6.588-4.248 8.637l-25.169 19.398c-1.149.885-1.554.684-8.509.684z" fill="#e0ebfc"/><path d="m172.142 189.403h8.444c2.517 0 4.558 2.041 4.558 4.558v16.265c0 2.517-2.041 4.558-4.558 4.558h-8.444z" fill="#a4c9ff"/><path d="m164.622 223.299h-94.606c-5.25 0-9.52-4.271-9.52-9.521v-25.848c0-5.25 4.271-9.521 9.52-9.521h94.606c5.25 0 9.521 4.271 9.521 9.521v25.849c0 5.249-4.271 9.52-9.521 9.52zm-94.606-40.89c-3.044 0-5.52 2.477-5.52 5.521v25.849c0 3.044 2.476 5.521 5.52 5.521h94.606c3.044 0 5.521-2.477 5.521-5.521v-25.849c0-3.044-2.477-5.521-5.521-5.521z" fill="#3762cc"/><path d="m180.586 216.784h-8.443c-1.104 0-2-.896-2-2v-25.381c0-1.104.896-2 2-2h8.443c3.616 0 6.559 2.941 6.559 6.558v16.266c0 3.616-2.943 6.557-6.559 6.557zm-6.443-4h6.443c1.411 0 2.559-1.147 2.559-2.558v-16.266c0-1.41-1.148-2.558-2.559-2.558h-6.443z" fill="#3762cc"/><circle cx="117.969" cy="107.827" fill="#f9cfcf" r="87.242"/><circle cx="116.97" cy="107.827" fill="#a4c9ff" r="32.831"/><circle cx="116.97" cy="107.827" fill="#e0ebfc" r="15.699"/><path d="m117.969 197.068c-49.208 0-89.242-40.033-89.242-89.241s40.034-89.242 89.242-89.242 89.242 40.034 89.242 89.242-40.034 89.241-89.242 89.241zm0-174.483c-47.002 0-85.242 38.239-85.242 85.242 0 47.002 38.239 85.241 85.242 85.241s85.242-38.239 85.242-85.241c0-47.003-38.239-85.242-85.242-85.242z" fill="#3762cc"/><path d="m116.97 142.658c-19.206 0-34.831-15.625-34.831-34.831s15.625-34.831 34.831-34.831 34.832 15.625 34.832 34.831-15.626 34.831-34.832 34.831zm0-65.662c-17 0-30.831 13.831-30.831 30.831s13.831 30.831 30.831 30.831 30.832-13.831 30.832-30.831-13.831-30.831-30.832-30.831z" fill="#3762cc"/><path d="m217.121 127.008h-7.681c-2.811 0-5.09-2.279-5.09-5.09v-21.547c0-2.811 2.279-5.09 5.09-5.09h7.681c2.811 0 5.09 2.279 5.09 5.09v21.547c-.001 2.811-2.279 5.09-5.09 5.09z" fill="#6bdddd"/><path d="m217.121 129.008h-7.681c-3.909 0-7.09-3.181-7.09-7.09v-21.547c0-3.909 3.181-7.09 7.09-7.09h7.681c3.909 0 7.09 3.181 7.09 7.09v21.547c-.001 3.909-3.181 7.09-7.09 7.09zm-7.682-31.727c-1.704 0-3.09 1.386-3.09 3.09v21.547c0 1.704 1.386 3.09 3.09 3.09h7.681c1.704 0 3.09-1.386 3.09-3.09v-21.547c0-1.704-1.386-3.09-3.09-3.09z" fill="#3762cc"/><path d="m210.905 62.322c.309-4.142-.843-8.178-3.289-11.424-2.432-3.196-6.031-5.404-10.134-6.216-3.884-.769-7.028 3.81-4.735 6.853 0 0 .761 1.153 2.402 1.49 4.394.902 7.405 4.693 7.093 9.321-.388 5.709 8.254 5.459 8.663-.024z" fill="#e0ebfc"/><path d="m225.268 66.283c1.866-8.988.017-17.754-5.205-24.684l-.083-.11c-5.286-6.947-13.272-11.104-22.486-11.706-2.566-.168-4.903 1.909-4.992 4.447-.032.913.232 1.768.764 2.473.688.913 1.775 1.483 2.983 1.563 14.075.942 23.358 13.123 20.51 26.954-.761 3.698 3.176 6.107 6.399 4.062 1.089-.69 1.859-1.784 2.11-2.999z" fill="#e0ebfc"/><path d="m239.498 69.897c3.403-13.485.84-27.211-7.032-37.657l-.12-.158c-7.967-10.471-20.557-16.658-34.541-16.975-3.726-.085-6.103 4.183-4.017 6.952 0 0 .99 1.497 3.096 1.544 11.478.259 21.804 5.326 28.332 13.904l.098.13c6.449 8.558 8.544 19.814 5.749 30.882-.542 2.148.66 4.276 2.868 4.805 2.403.574 4.953-.995 5.567-3.427z" fill="#a4c9ff"/></svg>