<svg id="Layer_1" enable-background="new 0 0 256 256" height="512" viewBox="0 0 256 256" width="512" xmlns="http://www.w3.org/2000/svg"><path d="m229 102.5h-13.9v-26.7c0-11.3-9.2-20.5-20.5-20.5h-161.4c-10.7 0-19.3 8.6-19.3 19.3v88h228v-47.2c0-7.1-5.7-12.9-12.9-12.9z" fill="#ffea92"/><path d="m241.9 164.6h-228c-1.1 0-2-.9-2-2v-88c0-11.8 9.6-21.3 21.3-21.3h161.4c12.4 0 22.5 10.1 22.5 22.5v24.7h11.9c8.2 0 14.9 6.7 14.9 14.9v47.2c0 1.1-.9 2-2 2zm-226-4h224v-45.2c0-6-4.9-10.9-10.9-10.9h-13.9c-1.1 0-2-.9-2-2v-26.7c0-10.2-8.3-18.5-18.5-18.5h-161.4c-9.5 0-17.3 7.8-17.3 17.3z" fill="#3762cc"/><path d="m33.3 71.9c-3 0-5.5 2.5-5.5 5.5v25.3c0 3 2.5 5.5 5.5 5.5h177.9c2.2 0 3.9-1.7 3.9-3.9v-28.5c0-2.1-1.7-3.8-3.8-3.8z" fill="#a4c9ff"/><path d="m53.3 71.9h7.5v36.3h-7.5z" fill="#ffea92"/><path d="m96.2 71.9h7.5v36.3h-7.5z" fill="#ffea92"/><path d="m211.2 110.2h-177.9c-4.1 0-7.5-3.4-7.5-7.5v-25.3c0-4.1 3.4-7.5 7.5-7.5h178c3.2 0 5.8 2.6 5.8 5.8v28.6c0 3.3-2.7 5.9-5.9 5.9zm-177.9-36.3c-1.9 0-3.5 1.6-3.5 3.5v25.3c0 1.9 1.6 3.5 3.5 3.5h177.9c1.1 0 1.9-.9 1.9-1.9v-28.5c0-1-.8-1.8-1.8-1.8z" fill="#3762cc"/><path d="m60.8 110.2h-7.5c-1.1 0-2-.9-2-2v-36.3c0-1.1.9-2 2-2h7.5c1.1 0 2 .9 2 2v36.3c0 1.1-.9 2-2 2zm-5.5-4h3.5v-32.3h-3.5z" fill="#3762cc"/><path d="m103.7 110.2h-7.5c-1.1 0-2-.9-2-2v-36.3c0-1.1.9-2 2-2h7.5c1.1 0 2 .9 2 2v36.3c0 1.1-.9 2-2 2zm-5.5-4h3.5v-32.3h-3.5z" fill="#3762cc"/><path d="m154.2 71.9h25v90.7h-25z" fill="#ffea92"/><path d="m161.7 79.4h9.9v75.6h-9.9z" fill="#a4c9ff"/><path d="m241.9 143h-15.5c-1.7 0-3-1.3-3-3v-9.3c0-1.7 1.3-3 3-3h15.5z" fill="#f9a7a7"/><path d="m129.3 71.9h25v90.7h-25z" fill="#ffea92"/><path d="m136.8 79.4h9.9v75.6h-9.9z" fill="#a4c9ff"/><path d="m248 157.7c0-2.4-1.9-4.3-4.3-4.3-9.7 0-57 0-64.5 0v9.2h-25-25v-9.2h-117c-2.4 0-4.3 1.9-4.3 4.3v9.9c0 2.4 1.9 4.3 4.3 4.3h231.4c2.4 0 4.3-1.9 4.3-4.3v-9.9z" fill="#383838"/><g fill="#3762cc"><path d="m179.2 164.6h-25c-1.1 0-2-.9-2-2v-90.7c0-1.1.9-2 2-2h25c1.1 0 2 .9 2 2v90.7c0 1.1-.9 2-2 2zm-23-4h21v-86.7h-21z"/><path d="m171.6 157.1h-9.9c-1.1 0-2-.9-2-2v-75.7c0-1.1.9-2 2-2h9.9c1.1 0 2 .9 2 2v75.6c0 1.2-.8 2.1-2 2.1zm-7.9-4h5.9v-71.7h-5.9z"/><path d="m154.2 164.6h-25c-1.1 0-2-.9-2-2v-90.7c0-1.1.9-2 2-2h25c1.1 0 2 .9 2 2v90.7c0 1.1-.9 2-2 2zm-22.9-4h21v-86.7h-21z"/><path d="m146.7 157.1h-9.9c-1.1 0-2-.9-2-2v-75.7c0-1.1.9-2 2-2h9.9c1.1 0 2 .9 2 2v75.6c0 1.2-.9 2.1-2 2.1zm-7.9-4h5.9v-71.7h-5.9z"/><path d="m241.9 145h-15.5c-2.8 0-5-2.2-5-5v-9.3c0-2.8 2.2-5 5-5h15.5c1.1 0 2 .9 2 2v15.3c0 1.1-.9 2-2 2zm-15.5-15.3c-.6 0-1 .4-1 1v9.3c0 .6.4 1 1 1h13.5v-11.3z"/></g><path d="m248 157.7c0-2.4-1.9-4.3-4.3-4.3-9.7 0-57 0-64.5 0v9.2h-25-25v-9.2h-117c-2.4 0-4.3 1.9-4.3 4.3v9.9c0 2.4 1.9 4.3 4.3 4.3h231.4c2.4 0 4.3-1.9 4.3-4.3v-9.9z" fill="#4671c6"/><path d="m243.7 173.8h-231.4c-3.5 0-6.3-2.8-6.3-6.3v-9.9c0-3.5 2.8-6.3 6.3-6.3h117c1.1 0 2 .9 2 2v7.2h45.9v-7.2c0-1.1.9-2 2-2h64.5c3.5 0 6.3 2.8 6.3 6.3v9.9c0 3.5-2.8 6.3-6.3 6.3zm-231.4-18.4c-1.3 0-2.3 1-2.3 2.3v9.9c0 1.3 1 2.3 2.3 2.3h231.4c1.3 0 2.3-1 2.3-2.3v-9.9c0-1.3-1-2.3-2.3-2.3h-62.5v7.2c0 1.1-.9 2-2 2h-49.9c-1.1 0-2-.9-2-2v-7.2z" fill="#3762cc"/><circle cx="210.6" cy="177" fill="#a4c9ff" r="23.7"/><circle cx="210.6" cy="177" fill="#f9cfcf" r="10.8"/><circle cx="50.1" cy="177" fill="#a4c9ff" r="23.7"/><circle cx="50.1" cy="177" fill="#f9cfcf" r="10.8"/><path d="m210.6 202.7c-14.1 0-25.7-11.5-25.7-25.7s11.5-25.7 25.7-25.7 25.7 11.5 25.7 25.7-11.6 25.7-25.7 25.7zm0-47.3c-11.9 0-21.7 9.7-21.7 21.7s9.7 21.7 21.7 21.7 21.7-9.7 21.7-21.7-9.8-21.7-21.7-21.7z" fill="#3762cc"/><path d="m210.6 189.8c-7.1 0-12.8-5.7-12.8-12.8s5.7-12.8 12.8-12.8 12.8 5.7 12.8 12.8-5.8 12.8-12.8 12.8zm0-21.6c-4.8 0-8.8 3.9-8.8 8.8s3.9 8.8 8.8 8.8c4.8 0 8.8-3.9 8.8-8.8s-4-8.8-8.8-8.8z" fill="#3762cc"/><path d="m50.1 202.7c-14.2 0-25.7-11.5-25.7-25.7s11.5-25.7 25.7-25.7 25.7 11.5 25.7 25.7-11.6 25.7-25.7 25.7zm0-47.3c-11.9 0-21.7 9.7-21.7 21.7s9.7 21.7 21.7 21.7 21.6-9.8 21.6-21.8-9.7-21.6-21.6-21.6z" fill="#3762cc"/><path d="m50.1 189.8c-7.1 0-12.8-5.7-12.8-12.8s5.7-12.8 12.8-12.8 12.8 5.8 12.8 12.8-5.8 12.8-12.8 12.8zm0-21.6c-4.8 0-8.8 3.9-8.8 8.8s3.9 8.8 8.8 8.8 8.8-3.9 8.8-8.8-4-8.8-8.8-8.8z" fill="#3762cc"/><path d="m13.9 127.7h15.5c1.7 0 3 1.3 3 3v9.3c0 1.7-1.3 3-3 3h-15.5z" fill="#f9a7a7"/><path d="m29.4 145h-15.5c-1.1 0-2-.9-2-2v-15.3c0-1.1.9-2 2-2h15.5c2.8 0 5 2.2 5 5v9.3c0 2.8-2.2 5-5 5zm-13.5-4h13.5c.6 0 1-.4 1-1v-9.3c0-.6-.4-1-1-1h-13.5z" fill="#3762cc"/><path d="m187.7 97.3c-.4 0-.8-.2-1.2-.5-.6-.6-.6-1.7 0-2.3l11.1-11.2c.6-.6 1.7-.6 2.3 0s.6 1.7 0 2.3l-11.1 11.2c-.2.3-.7.5-1.1.5z" fill="#e0ebfc"/><path d="m197.5 97.3c-.4 0-.8-.2-1.2-.5-.6-.6-.6-1.7 0-2.3l11.1-11.2c.6-.6 1.7-.6 2.3 0s.6 1.7 0 2.3l-11.1 11.2c-.2.3-.7.5-1.1.5z" fill="#e0ebfc"/><path d="m68 97.3c-.4 0-.8-.2-1.2-.5-.6-.6-.6-1.7 0-2.3l11.2-11.1c.6-.6 1.7-.6 2.3 0s.6 1.7 0 2.3l-11.1 11.1c-.3.3-.7.5-1.2.5z" fill="#e0ebfc"/><path d="m77.8 97.3c-.4 0-.8-.2-1.2-.5-.6-.6-.6-1.7 0-2.3l11.2-11.2c.6-.6 1.7-.6 2.3 0s.6 1.7 0 2.3l-11.1 11.2c-.3.3-.8.5-1.2.5z" fill="#e0ebfc"/></svg>