<svg id="Layer_1" enable-background="new 0 0 256 256" height="512" viewBox="0 0 256 256" width="512" xmlns="http://www.w3.org/2000/svg"><path d="m222.704 248h-189.408c-6.627 0-12-5.373-12-12v-197.225c0-4.418 3.582-8 8-8h197.408c4.418 0 8 3.582 8 8v197.225c0 6.627-5.373 12-12 12z" fill="#e0ebfc"/><path d="m134.015 165.01 79.846-134.235h-11.635l-71.647 120.452c-1.163 1.955-3.994 1.955-5.157 0l-71.618-120.452h-11.634l79.813 134.234c2.712 4.563 9.319 4.564 12.032.001z" fill="#f9a7a7"/><path d="m226.704 30.775h-12.842l-79.847 134.235c-2.714 4.562-9.32 4.562-12.033-.001l-79.812-134.234h-12.874c-4.418 0-8 3.582-8 8v197.225c0 6.627 5.373 12 12 12h189.408c6.627 0 12-5.373 12-12v-197.225c0-4.419-3.582-8-8-8z" fill="#a4c9ff"/><path d="m222.704 250h-189.408c-7.72 0-14-6.28-14-14v-197.225c0-5.514 4.486-10 10-10h197.408c5.514 0 10 4.486 10 10v197.225c0 7.72-6.28 14-14 14zm-193.408-217.225c-3.309 0-6 2.691-6 6v197.225c0 5.514 4.486 10 10 10h189.408c5.514 0 10-4.486 10-10v-197.225c0-3.309-2.691-6-6-6z" fill="#3762cc"/><path d="m171.384 119.349v43.723c0 2.19 1.272 4.18 3.259 5.101l15.897 7.363c3.747 1.735 8.067 1.735 11.813 0l15.897-7.363c1.987-.92 3.259-2.911 3.259-5.101v-43.723c0-1.552-1.258-2.811-2.811-2.811h-44.503c-1.552.001-2.811 1.259-2.811 2.811z" fill="#e0ebfc"/><path d="m128 37.043-16.55 23.805 6.389 14.825h10.161 10.161l6.389-14.825z" fill="#6bdddd"/><path d="m138.161 77.672h-20.321c-.798 0-1.521-.475-1.836-1.208l-6.39-14.825c-.274-.635-.2-1.366.194-1.933l16.55-23.805c.374-.538.987-.858 1.642-.858s1.268.321 1.642.858l16.55 23.805c.395.567.468 1.298.194 1.933l-6.39 14.825c-.315.733-1.037 1.208-1.835 1.208zm-19.006-4h17.689l5.429-12.596-14.273-20.53-14.274 20.53z" fill="#3762cc"/><path d="m128 154.693c-1.781 0-3.388-.914-4.298-2.445l-71.617-120.451c-.367-.618-.375-1.386-.019-2.011s1.019-1.011 1.738-1.011h74.196.03 74.196c.719 0 1.383.386 1.738 1.011.356.625.348 1.393-.02 2.011l-71.646 120.453c-.91 1.53-2.517 2.443-4.298 2.443zm-70.68-121.918 69.821 117.43c.262.441.688.489.859.489.171 0 .597-.048.86-.489l69.849-117.43h-70.344c-.237.045-.484.047-.731 0z" fill="#3762cc"/><path d="m128 170.432c-.001 0-.001 0 0 0-3.207 0-6.098-1.645-7.736-4.4l-79.813-134.235c-.367-.618-.375-1.386-.019-2.011s1.019-1.011 1.738-1.011h171.691c.719 0 1.383.386 1.738 1.011.356.625.348 1.393-.02 2.011l-79.846 134.235c-1.637 2.755-4.528 4.4-7.733 4.4zm-82.314-137.657 78.016 131.212c.91 1.53 2.517 2.444 4.297 2.444 1.781 0 3.387-.914 4.297-2.444l78.048-131.213h-164.658z" fill="#3762cc"/><path d="m138.161 75.672h-10.161-10.161l-9.101 47.494 16.684 28.06c1.163 1.956 3.994 1.956 5.157 0l16.685-28.05z" fill="#6bdddd"/><path d="m71.24 8-16.546 19.501c-1.606 1.892-1.118 4.775 1.02 6.035l49.819 29.341c1.803 1.062 4.12.555 5.314-1.163l17.153-24.671z" fill="#4671c6"/><path d="m128 8h-56.76l56.76 29.043 56.76-29.043z" fill="#a4c9ff"/><path d="m184.76 8 16.546 19.501c1.606 1.892 1.118 4.775-1.02 6.035l-49.819 29.341c-1.803 1.062-4.12.555-5.314-1.163l-17.153-24.671z" fill="#4671c6"/><g fill="#3762cc"><path d="m107.544 65.423c-1.036 0-2.081-.266-3.026-.823l-49.819-29.341c-1.528-.9-2.575-2.419-2.871-4.169s.193-3.529 1.34-4.883l16.547-19.501c.6-.708 1.61-.91 2.436-.486l56.76 29.043c.514.263.889.735 1.029 1.295s.031 1.153-.298 1.627l-17.152 24.67c-1.156 1.662-3.034 2.568-4.946 2.568zm-35.804-54.921-15.521 18.293c-.388.458-.547 1.036-.447 1.627s.44 1.085.957 1.39l49.819 29.342c.895.527 2.063.272 2.657-.582l15.846-22.791z"/><path d="m128 39.043c-.313 0-.625-.073-.911-.22l-56.76-29.043c-.823-.421-1.25-1.351-1.033-2.249.216-.898 1.02-1.531 1.944-1.531h113.52c.924 0 1.728.633 1.944 1.531s-.21 1.828-1.033 2.249l-56.76 29.043c-.286.147-.598.22-.911.22zm-48.46-29.043 48.46 24.796 48.46-24.796z"/><path d="m148.456 65.423c-1.911 0-3.79-.906-4.945-2.567l-17.152-24.671c-.33-.474-.438-1.067-.298-1.627s.516-1.032 1.029-1.295l56.76-29.043c.829-.423 1.836-.221 2.436.486l16.546 19.501c1.148 1.354 1.637 3.133 1.341 4.883s-1.343 3.269-2.872 4.169l-49.819 29.341c-.945.557-1.991.823-3.026.823zm-17.507-27.642 15.846 22.792c.593.854 1.761 1.109 2.657.582l49.819-29.341c.518-.305.857-.798.958-1.39s-.059-1.17-.447-1.627l-15.522-18.295z"/><path d="m128 154.693c-1.781 0-3.388-.914-4.298-2.445l-16.684-28.06c-.25-.42-.337-.918-.245-1.398l9.101-47.495c.181-.942 1.005-1.624 1.964-1.624h20.321c.959 0 1.784.681 1.964 1.624l9.103 47.504c.092.48.005.979-.246 1.399l-16.685 28.05c-.907 1.532-2.514 2.445-4.295 2.445zm-17.154-31.896 16.295 27.407c.262.441.688.489.859.489.171 0 .597-.048.86-.489l16.296-27.397-8.649-45.135h-17.015z"/></g><path d="m196.447 121.517h-17.437c-1.15 0-2.082.932-2.082 2.082v23.089h19.519z" fill="#f9cfcf"/><path d="m199.509 171.185 14.043-6.504c1.472-.682 2.414-2.156 2.414-3.778v-37.303c0-1.15-.932-2.082-2.082-2.082h-17.437v50.335c1.065-.001 2.096-.221 3.062-.668z" fill="#4671c6"/><path d="m196.447 146.688h-19.519v14.214c0 1.622.942 3.097 2.414 3.779l14.006 6.487c.596.276 1.225.49 1.874.594.413.066.82.091 1.224.091v-25.165z" fill="#f9a7a7"/></svg>