<svg id="Layer_1" enable-background="new 0 0 256 256" height="512" viewBox="0 0 256 256" width="512" xmlns="http://www.w3.org/2000/svg"><path d="m201 248h-146c-3.866 0-7-3.134-7-7v-226c0-3.866 3.134-7 7-7h146c3.866 0 7 3.134 7 7v226c0 3.866-3.134 7-7 7z" fill="#4671c6"/><ellipse cx="128" cy="95.434" fill="#f9a7a7" rx="24.75" ry="21"/><path d="m143.198 94.028-7.666-6.126-6.126-7.666c-.721-.902-2.092-.902-2.812 0l-6.126 7.666-7.666 6.126c-.902.721-.902 2.092 0 2.812l7.666 6.126 6.126 7.666c.721.902 2.092.902 2.812 0l6.126-7.666 7.666-6.126c.902-.721.902-2.092 0-2.812z" fill="#f9cfcf"/><path d="m58 60.252v-38.252c0-2.209 1.791-4 4-4h132c2.209 0 4 1.791 4 4v38.252c0 2.209-1.791 4-4 4h-132c-2.209 0-4-1.791-4-4z" fill="#6bdddd"/><path d="m58.867 137.047v-8.431c0-1.105.895-2 2-2h20.862c1.105 0 2 .895 2 2v8.431c0 1.105-.895 2-2 2h-20.862c-1.104 0-2-.896-2-2z" fill="#f9a7a7"/><path d="m96.668 137.047v-8.431c0-1.105.895-2 2-2h20.862c1.105 0 2 .895 2 2v8.431c0 1.105-.895 2-2 2h-20.862c-1.104 0-2-.896-2-2z" fill="#f9a7a7"/><path d="m134.47 137.047v-8.431c0-1.105.895-2 2-2h20.862c1.105 0 2 .895 2 2v8.431c0 1.105-.895 2-2 2h-20.862c-1.105 0-2-.896-2-2z" fill="#f9a7a7"/><path d="m172.271 137.047v-8.431c0-1.105.895-2 2-2h20.862c1.105 0 2 .895 2 2v8.431c0 1.105-.895 2-2 2h-20.862c-1.105 0-2-.896-2-2z" fill="#f9a7a7"/><path d="m58.867 167.978v-20.862c0-1.105.895-2 2-2h20.862c1.105 0 2 .895 2 2v20.862c0 1.105-.895 2-2 2h-20.862c-1.104 0-2-.896-2-2z" fill="#f9cfcf"/><path d="m96.668 167.978v-20.862c0-1.105.895-2 2-2h20.862c1.105 0 2 .895 2 2v20.862c0 1.105-.895 2-2 2h-20.862c-1.104 0-2-.896-2-2z" fill="#f9cfcf"/><path d="m134.47 167.978v-20.862c0-1.105.895-2 2-2h20.862c1.105 0 2 .895 2 2v20.862c0 1.105-.895 2-2 2h-20.862c-1.105 0-2-.896-2-2z" fill="#f9cfcf"/><path d="m58.867 201.989v-20.862c0-1.105.895-2 2-2h20.862c1.105 0 2 .895 2 2v20.862c0 1.105-.895 2-2 2h-20.862c-1.104 0-2-.896-2-2z" fill="#f9cfcf"/><path d="m96.668 201.989v-20.862c0-1.105.895-2 2-2h20.862c1.105 0 2 .895 2 2v20.862c0 1.105-.895 2-2 2h-20.862c-1.104 0-2-.896-2-2z" fill="#f9cfcf"/><path d="m134.47 201.989v-20.862c0-1.105.895-2 2-2h20.862c1.105 0 2 .895 2 2v20.862c0 1.105-.895 2-2 2h-20.862c-1.105 0-2-.896-2-2z" fill="#f9cfcf"/><path d="m58.867 236v-20.862c0-1.105.895-2 2-2h20.862c1.105 0 2 .895 2 2v20.862c0 1.105-.895 2-2 2h-20.862c-1.104 0-2-.895-2-2z" fill="#f9cfcf"/><path d="m96.668 236v-20.862c0-1.105.895-2 2-2h20.862c1.105 0 2 .895 2 2v20.862c0 1.105-.895 2-2 2h-20.862c-1.104 0-2-.895-2-2z" fill="#f9cfcf"/><path d="m134.47 236v-20.862c0-1.105.895-2 2-2h20.862c1.105 0 2 .895 2 2v20.862c0 1.105-.895 2-2 2h-20.862c-1.105 0-2-.895-2-2z" fill="#f9cfcf"/><path d="m172.271 235v-50.25c0-1.657 1.343-3 3-3h18.862c1.657 0 3 1.343 3 3v50.25c0 1.657-1.343 3-3 3h-18.862c-1.657 0-3-1.343-3-3z" fill="#f9a7a7"/><path d="m172.271 155.547v-8.431c0-1.105.895-2 2-2h20.862c1.105 0 2 .895 2 2v8.431c0 1.105-.895 2-2 2h-20.862c-1.105 0-2-.896-2-2z" fill="#f9a7a7"/><path d="m172.271 173.978v-8.431c0-1.105.895-2 2-2h20.862c1.105 0 2 .895 2 2v8.431c0 1.105-.895 2-2 2h-20.862c-1.105 0-2-.896-2-2z" fill="#f9a7a7"/><path d="m58.867 83.434c0-4.971 4.029-9 9-9h15.54c4.971 0 9 4.029 9 9 0 4.971-4.029 9-9 9h-15.54c-4.97 0-9-4.03-9-9z" fill="#f9a7a7"/><path d="m58.867 107.434c0-4.971 4.029-9 9-9h15.54c4.971 0 9 4.029 9 9 0 4.971-4.029 9-9 9h-15.54c-4.97 0-9-4.03-9-9z" fill="#f9a7a7"/><path d="m163.593 83.434c0-4.971 4.029-9 9-9h15.54c4.971 0 9 4.029 9 9 0 4.971-4.029 9-9 9h-15.54c-4.971 0-9-4.03-9-9z" fill="#f9a7a7"/><path d="m163.593 107.434c0-4.971 4.029-9 9-9h15.54c4.971 0 9 4.029 9 9 0 4.971-4.029 9-9 9h-15.54c-4.971 0-9-4.03-9-9z" fill="#f9a7a7"/><path d="m143.634 43.615c-1.887 2.228-4.593 2.558-6.716 1.607-5.684-2.545-4.454-12.517 3.181-12.517 1.147 0 2.169.209 3.067.627 3.25 1.513 4.174 5.336 4.174 8.936 0 12.573-10.062 11.734-12.523 8.116-1.768-2.6.391-4.025 1.854-3.001.312.218.547.545.707.98.777 2.121 3.622 2.486 5.108.293.641-.951 1.023-2.632 1.148-5.041zm-.307-4.081c0-5.414-6.388-5.711-6.388-.24 0 5.42 6.388 4.839 6.388.24z" fill="#4671c6"/><path d="m123.145 27.936c0-1.405-2.033-1.89-2.743-.368-.134.289-.246.673-.5.79-.766.354-1.512-.401-.923-1.475 2.062-3.766 8.731-.218 4.841 3.049.985.531 1.628 1.314 1.628 2.433 0 4.425-6.978 3.843-6.978.484 0-.967 1.261-1.166 1.492-.497 1.513 4.043 4.895.627 3.182-1.155-.945-.982-2.787.226-2.787-1.107.002-1.415 2.788.062 2.788-2.154z" fill="#4671c6"/><path d="m157.356 49.005h-2.484v-3.669h-3.688v-2.523h3.688v-3.688h2.484v3.688h3.708v2.523h-3.708z" fill="#4671c6"/><path d="m170.353 38.413c-2.259 1.734-3.779 2.601-4.561 2.601-.75 0-1.427-.688-1.427-1.48 0-1 .672-1.235 1.934-1.827 1.762-.831 3.061-1.764 4.295-3.481.875-1.219.913-1.52 1.827-1.52 1.08 0 1.561.966 1.561 2.054v15.27c0 3.077-2.232 3.134-3.134 2.134-.81-.896-.495-2.067-.495-13.751z" fill="#4671c6"/><path d="m177.503 37.787c0-5.393 7.744-6.452 10.936-3.554 2.198 1.997 2.378 5.888-1.107 7.596 5.557 2.156 4.404 10.856-3.52 10.856-8.057 0-9.123-8.672-3.575-10.856-1.823-.855-2.734-2.202-2.734-4.042zm9.562 8.829c0-4.504-6.562-4.676-6.562.027 0 1.303.556 2.447 1.613 3.061 1.976 1.145 4.949.05 4.949-3.088zm-6.122-8.603c0 3.058 4.371 3.552 5.402 1.047.294-.715.285-1.708-.153-2.487-1.237-2.192-5.249-1.746-5.249 1.44z" fill="#4671c6"/><path d="m151.183 26.549c0-.663-.538-1.201-1.201-1.201h-16.831-1.43c-.461 0-.863.316-.972.764-6.5 26.766-6.159 25.23-6.498 27.145h-.067c-.299-1.421-4.607-13.314-4.252-12.314-.281-.79-1.168-1.182-1.941-.857l-2.439 1.025c-.428.18-.632.67-.458 1.101.178.441.683.649 1.12.463l1.723-.735c5.317 14.312 4.963 14.374 6.352 14.374 1.599 0 .952.741 8.262-28.562h17.431c.663-.002 1.201-.54 1.201-1.203z" fill="#4671c6"/><g fill="#3762cc"><path d="m135.1 104.534h-14.2c-1.104 0-2-.896-2-2v-14.2c0-1.104.896-2 2-2h14.2c1.104 0 2 .896 2 2v14.2c0 1.104-.896 2-2 2zm-12.2-4h10.2v-10.2h-10.2z"/><path d="m128 118.434c-14.75 0-26.75-10.318-26.75-23s12-23 26.75-23 26.75 10.318 26.75 23-12 23-26.75 23zm0-42c-12.544 0-22.75 8.523-22.75 19s10.206 19 22.75 19 22.75-8.523 22.75-19-10.206-19-22.75-19z"/><path d="m128 113.308c-1.161 0-2.243-.521-2.968-1.427l-5.987-7.492-7.491-5.986c-.907-.725-1.428-1.807-1.428-2.969s.521-2.244 1.428-2.969l7.491-5.986 5.986-7.491c.726-.907 1.808-1.428 2.969-1.428s2.243.521 2.969 1.427l5.986 7.492 7.492 5.986c.907.725 1.427 1.807 1.427 2.968s-.52 2.243-1.427 2.968l-7.492 5.987-5.986 7.492c-.726.908-1.808 1.428-2.969 1.428zm-13.754-17.874 7.47 5.97c.116.093.221.198.314.314l5.97 7.471 5.97-7.471c.093-.116.198-.221.313-.314l7.471-5.97-7.471-5.97c-.115-.093-.221-.198-.313-.314l-5.97-7.47-5.97 7.47c-.093.116-.198.221-.314.314z"/><path d="m135.1 104.534h-14.2c-1.104 0-2-.896-2-2v-14.2c0-1.104.896-2 2-2h14.2c1.104 0 2 .896 2 2v14.2c0 1.104-.896 2-2 2zm-12.2-4h10.2v-10.2h-10.2z"/><path d="m83.407 94.434h-15.54c-6.065 0-11-4.935-11-11s4.935-11 11-11h15.54c6.065 0 11 4.935 11 11s-4.935 11-11 11zm-15.54-18c-3.86 0-7 3.14-7 7s3.14 7 7 7h15.54c3.86 0 7-3.14 7-7s-3.14-7-7-7z"/><path d="m83.407 118.434h-15.54c-6.065 0-11-4.935-11-11s4.935-11 11-11h15.54c6.065 0 11 4.935 11 11s-4.935 11-11 11zm-15.54-18c-3.86 0-7 3.14-7 7s3.14 7 7 7h15.54c3.86 0 7-3.14 7-7s-3.14-7-7-7z"/><path d="m188.133 94.434h-15.54c-6.065 0-11-4.935-11-11s4.935-11 11-11h15.54c6.065 0 11 4.935 11 11s-4.935 11-11 11zm-15.54-18c-3.859 0-7 3.14-7 7s3.141 7 7 7h15.54c3.859 0 7-3.14 7-7s-3.141-7-7-7z"/><path d="m188.133 118.434h-15.54c-6.065 0-11-4.935-11-11s4.935-11 11-11h15.54c6.065 0 11 4.935 11 11s-4.935 11-11 11zm-15.54-18c-3.859 0-7 3.14-7 7s3.141 7 7 7h15.54c3.859 0 7-3.14 7-7s-3.141-7-7-7z"/><path d="m81.729 171.978h-20.862c-2.206 0-4-1.794-4-4v-20.862c0-2.206 1.794-4 4-4h20.862c2.206 0 4 1.794 4 4v20.862c0 2.206-1.794 4-4 4zm-20.862-24.862v20.865l20.862-.002v-20.862h-20.862z"/><path d="m119.53 171.978h-20.862c-2.206 0-4-1.794-4-4v-20.862c0-2.206 1.794-4 4-4h20.862c2.206 0 4 1.794 4 4v20.862c0 2.206-1.794 4-4 4zm-20.862-24.862v20.865l20.862-.002v-20.862h-20.862z"/><path d="m157.331 171.978h-20.861c-2.206 0-4-1.794-4-4v-20.862c0-2.206 1.794-4 4-4h20.861c2.206 0 4 1.794 4 4v20.862c0 2.206-1.794 4-4 4zm-20.861-24.862v20.865l20.861-.002v-20.862h-20.861z"/><path d="m81.729 205.989h-20.862c-2.206 0-4-1.794-4-4v-20.862c0-2.206 1.794-4 4-4h20.862c2.206 0 4 1.794 4 4v20.862c0 2.205-1.794 4-4 4zm-20.862-24.862v20.864l20.862-.002v-20.862z"/><path d="m119.53 205.989h-20.862c-2.206 0-4-1.794-4-4v-20.862c0-2.206 1.794-4 4-4h20.862c2.206 0 4 1.794 4 4v20.862c0 2.205-1.794 4-4 4zm-20.862-24.862v20.864l20.862-.002v-20.862z"/><path d="m157.331 205.989h-20.861c-2.206 0-4-1.794-4-4v-20.862c0-2.206 1.794-4 4-4h20.861c2.206 0 4 1.794 4 4v20.862c0 2.205-1.794 4-4 4zm-20.861-24.862v20.864l20.861-.002v-20.862z"/><path d="m81.729 240h-20.862c-2.206 0-4-1.794-4-4v-20.862c0-2.206 1.794-4 4-4h20.862c2.206 0 4 1.794 4 4v20.862c0 2.206-1.794 4-4 4zm-20.862-24.862v20.864l20.862-.002v-20.862z"/><path d="m119.53 240h-20.862c-2.206 0-4-1.794-4-4v-20.862c0-2.206 1.794-4 4-4h20.862c2.206 0 4 1.794 4 4v20.862c0 2.206-1.794 4-4 4zm-20.862-24.862v20.864l20.862-.002v-20.862z"/><path d="m157.331 240h-20.861c-2.206 0-4-1.794-4-4v-20.862c0-2.206 1.794-4 4-4h20.861c2.206 0 4 1.794 4 4v20.862c0 2.206-1.794 4-4 4zm-20.861-24.862v20.864l20.861-.002v-20.862z"/><path d="m81.729 141.047h-20.862c-2.206 0-4-1.794-4-4v-8.431c0-2.206 1.794-4 4-4h20.862c2.206 0 4 1.794 4 4v8.431c0 2.205-1.794 4-4 4zm-20.862-12.431v8.434l20.862-.002v-8.431h-20.862z"/><path d="m119.53 141.047h-20.862c-2.206 0-4-1.794-4-4v-8.431c0-2.206 1.794-4 4-4h20.862c2.206 0 4 1.794 4 4v8.431c0 2.205-1.794 4-4 4zm-20.862-12.431v8.434l20.862-.002v-8.431h-20.862z"/><path d="m157.331 141.047h-20.861c-2.206 0-4-1.794-4-4v-8.431c0-2.206 1.794-4 4-4h20.861c2.206 0 4 1.794 4 4v8.431c0 2.205-1.794 4-4 4zm-20.861-12.431v8.434l20.861-.002v-8.431h-20.861z"/><path d="m195.133 141.047h-20.862c-2.206 0-4-1.794-4-4v-8.431c0-2.206 1.794-4 4-4h20.862c2.206 0 4 1.794 4 4v8.431c0 2.205-1.794 4-4 4zm-20.862-12.431v8.434l20.862-.002v-8.431h-20.862z"/><path d="m194.133 240h-18.862c-2.757 0-5-2.243-5-5v-50.25c0-2.757 2.243-5 5-5h18.862c2.757 0 5 2.243 5 5v50.25c0 2.757-2.243 5-5 5zm-18.862-56.25c-.552 0-1 .449-1 1v50.25c0 .551.448 1 1 1h18.862c.552 0 1-.449 1-1v-50.25c0-.551-.448-1-1-1z"/><path d="m195.133 159.547h-20.862c-2.206 0-4-1.794-4-4v-8.431c0-2.206 1.794-4 4-4h20.862c2.206 0 4 1.794 4 4v8.431c0 2.205-1.794 4-4 4zm-20.862-12.431v8.434l20.862-.002v-8.431h-20.862z"/><path d="m195.133 177.978h-20.862c-2.206 0-4-1.794-4-4v-8.431c0-2.206 1.794-4 4-4h20.862c2.206 0 4 1.794 4 4v8.431c0 2.206-1.794 4-4 4zm-20.862-12.431v8.434l20.862-.002v-8.431h-20.862z"/><path d="m201 250h-146c-4.962 0-9-4.038-9-9v-226c0-4.962 4.038-9 9-9h146c4.963 0 9 4.038 9 9v226c0 4.962-4.037 9-9 9zm-146-240c-2.757 0-5 2.243-5 5v226c0 2.757 2.243 5 5 5h146c2.757 0 5-2.243 5-5v-226c0-2.757-2.243-5-5-5z"/><path d="m194 66.251h-132c-3.309 0-6-2.691-6-6v-38.251c0-3.309 2.691-6 6-6h132c3.309 0 6 2.691 6 6v38.251c0 3.309-2.691 6-6 6zm-132-46.251c-1.103 0-2 .897-2 2v38.251c0 1.103.897 2 2 2h132c1.103 0 2-.897 2-2v-38.251c0-1.103-.897-2-2-2z"/></g></svg>