<svg id="Layer_1" enable-background="new 0 0 256 256" height="512" viewBox="0 0 256 256" width="512" xmlns="http://www.w3.org/2000/svg"><path d="m95.829 61.969 52.43-52.43c2.655-2.655 6.959-2.655 9.614 0l88.588 88.588c2.655 2.655 2.655 6.959 0 9.614l-52.43 52.43c-.271.271-.674.35-1.032.213-9.019-3.448-19.617-1.54-26.886 5.729s-9.177 17.867-5.729 26.886c.137.358.058.761-.213 1.032l-52.43 52.43c-2.655 2.655-6.959 2.655-9.614 0l-88.588-88.588c-2.655-2.655-2.655-6.959 0-9.614l52.43-52.43c.271-.271.674-.35 1.032-.213 9.019 3.448 19.617 1.54 26.886-5.729s9.177-17.867 5.729-26.886c-.137-.358-.058-.761.213-1.032z" fill="#f9a7a7"/><path d="m33.231 181.565 41.204 41.204 108.503-108.503c11.378-11.378 11.378-29.826 0-41.204-11.37-11.37-29.817-11.387-41.204 0z" fill="#a4c9ff"/><path d="m169.333 65.378c21.837 5.38 29.706 32.786 13.605 48.887l-108.503 108.504-31.246-31.246z" fill="#e0ebfc"/><circle cx="137.786" cy="137.786" fill="#4671c6" r="7.852"/><g fill="#3762cc"><path d="m74.435 224.769c-.512 0-1.024-.195-1.414-.586l-41.204-41.204c-.781-.781-.781-2.047 0-2.828l108.503-108.504c12.14-12.14 31.893-12.14 44.032 0s12.14 31.893 0 44.032l-108.503 108.504c-.39.39-.902.586-1.414.586zm-38.375-43.204 38.375 38.375 107.089-107.088c10.58-10.581 10.58-27.795 0-38.376-10.58-10.579-27.794-10.58-38.376 0z"/><path d="m102.935 250.452c-2.35 0-4.56-.915-6.222-2.577l-88.588-88.588c-1.662-1.662-2.577-3.871-2.577-6.221s.915-4.56 2.577-6.221l52.43-52.43c.823-.824 2.064-1.084 3.16-.667 8.561 3.273 18.28 1.203 24.758-5.275s8.548-16.196 5.275-24.757c-.419-1.096-.157-2.336.667-3.16l52.43-52.43c1.662-1.662 3.871-2.577 6.221-2.577s4.56.915 6.222 2.577l88.587 88.588c1.662 1.662 2.577 3.871 2.577 6.221s-.915 4.56-2.577 6.221l-52.43 52.43c-.823.824-2.063 1.085-3.16.667-8.562-3.272-18.279-1.203-24.758 5.275-6.478 6.478-8.548 16.196-5.275 24.757.419 1.096.157 2.336-.667 3.16l-52.43 52.43c-1.661 1.662-3.87 2.577-6.22 2.577zm-40.023-152.738-51.958 51.958c-.906.907-1.405 2.112-1.405 3.393 0 1.282.499 2.486 1.405 3.393l88.588 88.588c.907.906 2.111 1.405 3.393 1.405 1.281 0 2.486-.499 3.393-1.405l51.958-51.958c-3.503-9.878-1.021-20.954 6.414-28.389 7.434-7.435 18.509-9.917 28.389-6.414l51.958-51.958c.906-.907 1.405-2.112 1.405-3.393 0-1.282-.499-2.486-1.405-3.393l-88.588-88.588c-.907-.906-2.111-1.405-3.393-1.405-1.281 0-2.486.499-3.393 1.405l-51.959 51.959c3.503 9.878 1.021 20.954-6.414 28.389-7.434 7.435-18.509 9.917-28.388 6.413z"/></g></svg>