<svg id="Layer_1" enable-background="new 0 0 256 256" height="512" viewBox="0 0 256 256" width="512" xmlns="http://www.w3.org/2000/svg"><path d="m210.5 230.667h-165v-145.667c0-3.314 2.686-6 6-6h153c3.314 0 6 2.686 6 6z" fill="#a4c9ff"/><path d="m108 118.438v-14c0-1.105.895-2 2-2h36c1.105 0 2 .895 2 2v14c0 1.105-.895 2-2 2h-36c-1.105 0-2-.895-2-2z" fill="#e0ebfc"/><path d="m45.5 230.667 1.922 11.021c.334 1.915 1.997 3.313 3.941 3.313 3.667 0 155.846 0 153.275 0 1.944 0 3.606-1.398 3.941-3.313l1.922-11.021c-7.257 0-157.771 0-165.001 0z" fill="#4671c6"/><path d="m76.648 79 4.901-45.75c.488-4.552 4.15-7.993 8.508-7.993h75.886c4.358 0 8.02 3.441 8.508 7.993l4.901 45.75h13.648l-5.573-52.014c-.975-9.104-8.3-15.986-17.016-15.986h-84.822c-8.716 0-16.041 6.882-17.016 15.986l-5.573 52.014z" fill="#e0ebfc"/><g fill="#3762cc"><path d="m210.5 232.667h-165c-1.104 0-2-.896-2-2v-145.667c0-4.411 3.589-8 8-8h153c4.411 0 8 3.589 8 8v145.667c0 1.104-.896 2-2 2zm-163-4h161v-143.667c0-2.206-1.794-4-4-4h-153c-2.206 0-4 1.794-4 4z"/><path d="m204.67 247h-153.308c-2.923 0-5.408-2.09-5.911-4.969l-1.922-11.021c-.101-.582.06-1.179.439-1.631.381-.452.94-.713 1.531-.713h165c.591 0 1.15.261 1.531.713.38.452.54 1.049.439 1.631l-1.922 11.021c-.498 2.854-2.945 4.933-5.835 4.968-.013.001-.027.001-.042.001zm-156.791-14.333 1.514 8.677c.167.96.995 1.656 1.97 1.656h153.275c.975 0 1.803-.696 1.97-1.656l1.514-8.677z"/><path d="m193 81h-13.647c-1.022 0-1.88-.771-1.988-1.787l-4.901-45.75c-.379-3.538-3.182-6.206-6.52-6.206h-75.887c-3.338 0-6.141 2.668-6.52 6.206l-4.901 45.75c-.109 1.016-.966 1.787-1.989 1.787h-13.647c-.567 0-1.108-.241-1.487-.663-.38-.422-.562-.986-.501-1.55l5.572-52.014c1.085-10.132 9.256-17.773 19.005-17.773h84.822c9.749 0 17.92 7.641 19.005 17.773l5.572 52.014c.061.564-.121 1.127-.501 1.55-.379.422-.92.663-1.487.663zm-11.851-4h9.625l-5.335-49.801c-.868-8.095-7.328-14.199-15.028-14.199h-84.822c-7.7 0-14.16 6.104-15.028 14.199l-5.335 49.801h9.625l4.71-43.963c.597-5.575 5.109-9.78 10.496-9.78h75.887c5.387 0 9.899 4.205 10.496 9.78z"/></g></svg>