<svg id="Layer_1" enable-background="new 0 0 256 256" height="512" viewBox="0 0 256 256" width="512" xmlns="http://www.w3.org/2000/svg"><path d="m242 218.489h-228c-3.314 0-6-2.686-6-6v-151.333c0-3.314 2.686-6 6-6h228c3.314 0 6 2.686 6 6v151.333c0 3.314-2.686 6-6 6z" fill="#6bdddd"/><path d="m60.5 200.006v-126.366c0-1.657 1.343-3 3-3h169.5c1.657 0 3 1.343 3 3v126.366c0 1.657-1.343 3-3 3h-169.5c-1.657 0-3-1.343-3-3z" fill="#4671c6"/><path d="m242 220.489h-228c-4.411 0-8-3.589-8-8v-151.333c0-4.411 3.589-8 8-8h228c4.411 0 8 3.589 8 8v151.333c0 4.411-3.589 8-8 8zm-228-163.333c-2.206 0-4 1.794-4 4v151.333c0 2.206 1.794 4 4 4h228c2.206 0 4-1.794 4-4v-151.333c0-2.206-1.794-4-4-4z" fill="#3762cc"/><path d="m233 205.006h-169.5c-2.757 0-5-2.243-5-5v-126.366c0-2.757 2.243-5 5-5h169.5c2.757 0 5 2.243 5 5v126.366c0 2.757-2.243 5-5 5zm-169.5-132.366c-.551 0-1 .449-1 1v126.366c0 .551.449 1 1 1h169.5c.551 0 1-.449 1-1v-126.366c0-.551-.449-1-1-1z" fill="#3762cc"/><circle cx="34.333" cy="88.823" fill="#e0ebfc" r="13.167"/><circle cx="34.333" cy="136.823" fill="#e0ebfc" r="13.167"/><circle cx="34.333" cy="184.823" fill="#e0ebfc" r="13.167"/><path d="m127.868 155.186c-4.865 0-11.301-1.246-17.176-5.888l-21.066-16.646c-.867-.685-1.014-1.942-.33-2.809.686-.867 1.943-1.014 2.809-.33l21.066 16.646c8.644 6.83 18.099 4.864 19.968 4.378.103-.054.211-.1.325-.136.001-.001.002-.001.003-.001.027-.009.055-.017.083-.024 1.712-.464 3.042-1.716 3.65-3.433.629-1.779.361-3.668-.736-5.185-1.921-2.657-2.355-6.076-1.16-9.145 1.168-3.001 3.722-5.173 6.829-5.81 10.368-2.125 15.605 4.829 20.227 10.964 4.025 5.343 7.827 10.39 14.697 10.39h7.36c1.104 0 2 .896 2 2s-.896 2-2 2h-7.36c-8.865 0-13.66-6.366-17.892-11.983-4.474-5.938-8.334-11.068-16.229-9.452-1.797.368-3.221 1.586-3.904 3.342-.7 1.798-.448 3.798.674 5.35 1.85 2.558 2.323 5.871 1.266 8.862-1 2.829-3.255 5.002-6.067 5.871-1.2.474-3.763 1.039-7.037 1.039z" fill="#e0ebfc"/><path d="m198.123 50.05h15v90h-15z" fill="#e0ebfc" transform="matrix(-.94 -.342 .342 -.94 366.336 254.695)"/><path d="m183.184 134.771 14.096 5.13-11.779 10.434z" fill="#a4c9ff"/><path d="m213.966 50.199 14.095 5.13 3.42-9.397c.944-2.595-.393-5.464-2.988-6.409l-4.698-1.71c-2.595-.944-5.464.393-6.409 2.988z" fill="#e0ebfc"/><path d="m189.353 117.824-4.022-1.464c-1.237-.45-1.874-1.817-1.424-3.054l5.21-14.316c.45-1.237 1.817-1.874 3.054-1.424l4.022 1.464z" fill="#a4c9ff"/><g fill="#3762cc"><path d="m197.28 141.901c-.231 0-.463-.04-.684-.121l-14.095-5.13c-1.038-.378-1.573-1.525-1.195-2.563l30.782-84.572c.182-.499.553-.904 1.034-1.128.48-.224 1.032-.249 1.529-.067l14.095 5.13c1.038.378 1.573 1.525 1.195 2.563l-30.782 84.572c-.182.499-.553.904-1.034 1.128-.267.125-.556.188-.845.188zm-11.532-8.325 10.336 3.762 29.414-80.813-10.336-3.762z"/><path d="m185.5 152.335c-.229 0-.461-.04-.684-.121-.689-.251-1.186-.859-1.294-1.585l-2.316-15.564c-.104-.697.167-1.398.713-1.844s1.287-.571 1.949-.33l14.095 5.13c.663.241 1.149.813 1.281 1.506.132.692-.111 1.403-.639 1.871l-11.779 10.434c-.37.33-.844.503-1.326.503zm.157-14.536 1.279 8.593 6.503-5.76z"/><path d="m228.062 57.33c-.228 0-.458-.039-.684-.121l-14.095-5.13c-1.038-.378-1.573-1.525-1.195-2.563l3.42-9.397c1.321-3.626 5.346-5.504 8.972-4.184l4.699 1.71c3.627 1.321 5.503 5.346 4.184 8.972l-3.42 9.397c-.297.811-1.065 1.316-1.881 1.316zm-11.532-8.327 10.336 3.762 2.736-7.518c.566-1.554-.239-3.279-1.793-3.845l-4.699-1.71c-1.554-.565-3.28.238-3.845 1.793z"/><path d="m189.353 119.824c-.227 0-.458-.039-.684-.121l-4.021-1.463c-1.1-.4-1.979-1.206-2.473-2.267-.495-1.061-.547-2.251-.146-3.351l5.21-14.316c.827-2.271 3.347-3.447 5.618-2.619l4.021 1.463c.499.181.904.553 1.128 1.034.224.48.249 1.031.067 1.529l-6.84 18.794c-.296.813-1.064 1.317-1.88 1.317zm2.004-20.401c-.157 0-.304.097-.36.251l-5.21 14.316c-.045.123-.018.227.013.292.031.066.093.153.216.198l2.142.779 5.472-15.035-2.142-.779c-.044-.015-.088-.022-.131-.022z"/><path d="m34.333 103.989c-8.363 0-15.167-6.804-15.167-15.167s6.804-15.167 15.167-15.167 15.167 6.805 15.167 15.168-6.804 15.166-15.167 15.166zm0-26.333c-6.157 0-11.167 5.009-11.167 11.167s5.009 11.167 11.167 11.167 11.167-5.01 11.167-11.167-5.009-11.167-11.167-11.167z"/><path d="m34.333 151.989c-8.363 0-15.167-6.804-15.167-15.167s6.804-15.167 15.167-15.167 15.167 6.805 15.167 15.168-6.804 15.166-15.167 15.166zm0-26.333c-6.157 0-11.167 5.009-11.167 11.167s5.009 11.167 11.167 11.167 11.167-5.01 11.167-11.167-5.009-11.167-11.167-11.167z"/><path d="m34.333 199.989c-8.363 0-15.167-6.804-15.167-15.167s6.804-15.167 15.167-15.167 15.167 6.805 15.167 15.168-6.804 15.166-15.167 15.166zm0-26.333c-6.157 0-11.167 5.009-11.167 11.167s5.009 11.167 11.167 11.167 11.167-5.01 11.167-11.167-5.009-11.167-11.167-11.167z"/></g></svg>