<svg id="Layer_1" enable-background="new 0 0 256 256" height="512" viewBox="0 0 256 256" width="512" xmlns="http://www.w3.org/2000/svg"><path d="m208.385 126.688c-.946 1.046-2.3 1.715-3.822 1.715h-153.063c-1.546 0-2.917-.692-3.865-1.767l-4.068 40.37c-.589 5.851 3.133 12.317 11.292 12.317h147.28c5.726 0 10.368-4.979 10.368-11.122.001-.983.211 1.484-4.122-41.513z" fill="#a4c9ff"/><path d="m199.734 76.677h-143.405c-5.523 0-10 4.477-10 10v36.555c0 2.856 2.315 5.171 5.171 5.171h153.063c2.856 0 5.171-2.315 5.171-5.171v-36.555c0-5.522-4.477-10-10-10z" fill="#e0ebfc"/><path d="m204.563 130.403h-153.063c-3.954 0-7.171-3.217-7.171-7.171v-36.555c0-6.617 5.383-12 12-12h143.405c6.617 0 12 5.383 12 12v36.555c0 3.954-3.216 7.171-7.171 7.171zm-148.234-51.726c-4.411 0-8 3.589-8 8v36.555c0 1.749 1.423 3.171 3.171 3.171h153.063c1.748 0 3.171-1.423 3.171-3.171v-36.555c0-4.411-3.589-8-8-8z" fill="#3762cc"/><path d="m212.178 164.327c.242 2.397.33 2.982.33 3.874 0 6.142-4.642 11.122-10.368 11.122h41.66c2.285 0 4.137-1.852 4.137-4.137v-10.859z" fill="#6bdddd"/><path d="m243.8 181.323h-41.66c-1.104 0-2-.896-2-2s.896-2 2-2c4.614 0 8.368-4.092 8.368-9.122 0-.583-.048-1.042-.176-2.269l-.145-1.406c-.057-.563.128-1.123.507-1.542s.918-.659 1.483-.659h35.759c1.104 0 2 .896 2 2v10.859c.001 3.386-2.752 6.139-6.136 6.139zm-32.778-4h32.778c1.178 0 2.137-.959 2.137-2.137v-8.859h-31.543c.08.796.114 1.265.114 1.875 0 3.54-1.329 6.758-3.486 9.121z" fill="#3762cc"/><path d="m131.134 145.409h-6.205c-3.427 0-6.205-2.778-6.205-6.205v-22.408c0-3.427 2.778-6.205 6.205-6.205h6.205c3.427 0 6.205 2.778 6.205 6.205v22.408c.001 3.427-2.777 6.205-6.205 6.205z" fill="#4671c6"/><path d="m131.135 147.409h-6.205c-4.524 0-8.206-3.681-8.206-8.205v-22.408c0-4.524 3.682-8.205 8.206-8.205h6.205c4.524 0 8.205 3.681 8.205 8.205v22.408c0 4.525-3.681 8.205-8.205 8.205zm-6.205-34.818c-2.319 0-4.206 1.886-4.206 4.205v22.408c0 2.319 1.887 4.205 4.206 4.205h6.205c2.318 0 4.205-1.886 4.205-4.205v-22.408c0-2.319-1.887-4.205-4.205-4.205z" fill="#3762cc"/><path d="m46.329 123.232v-30.741l-38.265 71.836h16.991l21.373-40.123c-.061-.316-.099-.639-.099-.972z" fill="#6bdddd"/><path d="m209.734 92.61v30.622c0 .365-.04.721-.112 1.065l21.323 40.03h16.991z" fill="#6bdddd"/><g fill="#3762cc"><path d="m202.14 181.322h-147.281c-5.17 0-8.294-2.255-10.005-4.146-2.471-2.732-3.665-6.512-3.277-10.37l4.068-40.37c.08-.791.621-1.46 1.378-1.704.758-.243 1.587-.015 2.112.582.62.703 1.459 1.089 2.364 1.089h153.063c.891 0 1.722-.375 2.339-1.057.531-.585 1.358-.803 2.107-.558.751.247 1.286.913 1.365 1.699l2.706 26.802c1.435 14.189 1.435 14.189 1.428 14.815.001 7.332-5.548 13.218-12.367 13.218zm-152.838-51.271-3.744 37.156c-.271 2.695.575 5.419 2.264 7.286 1.674 1.851 4.107 2.83 7.038 2.83h147.28c4.614 0 8.368-4.092 8.368-9.121l.001-.145c.005-.399-.102-1.454-1.407-14.364l-2.386-23.626c-.691.222-1.417.338-2.152.338h-153.064c-.753-.002-1.494-.123-2.198-.354z"/><path d="m25.055 166.327h-16.992c-.702 0-1.354-.369-1.715-.971s-.381-1.35-.051-1.97l38.266-71.836c.432-.809 1.356-1.226 2.25-1 .891.223 1.516 1.022 1.516 1.94v30.741c0 .18.021.375.063.595.087.449.017.914-.198 1.317l-21.374 40.124c-.347.652-1.026 1.06-1.765 1.06zm-13.66-4h12.46l20.503-38.49c-.02-.205-.028-.405-.028-.605v-22.732z"/><path d="m247.937 166.327h-16.991c-.739 0-1.418-.408-1.766-1.06l-21.323-40.03c-.22-.414-.288-.893-.191-1.352.046-.22.069-.44.069-.654v-30.621c0-.918.625-1.718 1.516-1.94.892-.223 1.818.19 2.25 1l38.202 71.717c.33.62.311 1.368-.051 1.97s-1.013.97-1.715.97zm-15.791-4h12.459l-32.871-61.708v22.613c0 .235-.012.472-.036.708z"/></g><path d="m43.568 167.006.27-2.679h-35.774v10.859c0 2.285 1.852 4.137 4.137 4.137h42.659c-8.16 0-11.881-6.467-11.292-12.317z" fill="#6bdddd"/><path d="m54.859 181.322h-42.659c-3.384 0-6.137-2.753-6.137-6.137v-10.859c0-1.104.896-2 2-2h35.774c.565 0 1.104.239 1.483.659s.563.979.507 1.542l-.271 2.679c-.271 2.695.575 5.419 2.264 7.286 1.674 1.851 4.107 2.83 7.038 2.83 1.104 0 2 .896 2 2s-.894 2-1.999 2zm-44.796-14.995v8.859c0 1.178.959 2.137 2.137 2.137h32.789c-.046-.049-.091-.098-.135-.146-2.471-2.732-3.665-6.512-3.277-10.37l.049-.479h-31.563z" fill="#3762cc"/><path d="m140.442 134.895h-24.821c-1.142 0-2.068-.926-2.068-2.068v-9.653c0-1.142.926-2.068 2.068-2.068h24.821c1.142 0 2.068.926 2.068 2.068v9.653c.001 1.142-.925 2.068-2.068 2.068z" fill="#f9cfcf"/><path d="m140.442 136.895h-24.821c-2.243 0-4.068-1.825-4.068-4.068v-9.652c0-2.243 1.825-4.068 4.068-4.068h24.821c2.243 0 4.068 1.825 4.068 4.068v9.652c.001 2.242-1.824 4.068-4.068 4.068zm-24.821-13.79-.068 9.721 24.89.068c.038 0 .068-.031.068-.068v-9.652z" fill="#3762cc"/></svg>