<svg id="Layer_1" enable-background="new 0 0 256 256" height="512" viewBox="0 0 256 256" width="512" xmlns="http://www.w3.org/2000/svg"><path d="m242 209.696h-228c-3.314 0-6-2.686-6-6v-158c0-3.314 2.686-6 6-6h228c3.314 0 6 2.686 6 6v158c0 3.313-2.686 6-6 6z" fill="#e0ebfc"/><path d="m20 194.696v-140c0-1.657 1.343-3 3-3h210c1.657 0 3 1.343 3 3v140c0 1.657-1.343 3-3 3h-210c-1.657 0-3-1.343-3-3z" fill="#a4c9ff"/><path d="m242 211.695h-228c-4.411 0-8-3.589-8-8v-158c0-4.411 3.589-8 8-8h228c4.411 0 8 3.589 8 8v158c0 4.411-3.589 8-8 8zm-228-170c-2.206 0-4 1.794-4 4v158c0 2.206 1.794 4 4 4h228c2.206 0 4-1.794 4-4v-158c0-2.206-1.794-4-4-4z" fill="#3762cc"/><path d="m233 199.696h-210c-2.757 0-5-2.243-5-5v-140c0-2.757 2.243-5 5-5h210c2.757 0 5 2.243 5 5v140c0 2.757-2.243 5-5 5zm-210-146c-.552 0-1 .448-1 1v140c0 .552.448 1 1 1h210c.552 0 1-.448 1-1v-140c0-.552-.448-1-1-1z" fill="#3762cc"/><circle cx="181.032" cy="123.934" fill="#e0ebfc" r="47.5"/><path d="m162.634 157.829c-.449-1.096-1.642-1.688-2.787-1.383l-10.565 2.811c.479.431.964.854 1.461 1.265.045.037.09.075.135.112 4.806 3.953 10.404 6.973 16.517 8.803z" fill="#4671c6"/><path d="m202.312 156.446c-1.144-.304-2.337.288-2.787 1.383l-4.749 11.577c6.771-2.044 12.905-5.555 18.028-10.169z" fill="#4671c6"/><path d="m221.669 99.326c-.009-.014-.017-.029-.026-.043-.688-1.132-1.431-2.227-2.209-3.294l-4.957 16.519c-.34 1.134.214 2.345 1.295 2.829l12.662 5.667c-.482-7.903-2.886-15.285-6.765-21.678z" fill="#4671c6"/><path d="m179.524 106.159-16.988 14.922c-.758.666-1.008 1.741-.622 2.673l7.44 17.961c.365.881 1.224 1.455 2.177 1.455h9.547 9.547c.953 0 1.813-.574 2.177-1.455l7.44-17.961c.386-.932.136-2.007-.622-2.673l-16.988-14.922c-.887-.782-2.218-.782-3.108 0z" fill="#4671c6"/><path d="m161.403 158.57c-.367 0-.738-.101-1.071-.313-.932-.593-1.207-1.828-.614-2.761l8.787-13.82c.592-.934 1.828-1.208 2.761-.614.932.593 1.207 1.828.614 2.761l-8.787 13.82c-.381.6-1.029.927-1.69.927z" fill="#3762cc"/><path d="m200.725 158.562c-.656 0-1.3-.322-1.683-.915l-8.868-13.737c-.599-.929-.332-2.166.596-2.766.93-.599 2.166-.333 2.766.596l8.868 13.737c.599.929.332 2.166-.596 2.766-.336.215-.712.319-1.083.319z" fill="#3762cc"/><path d="m200.4 124.521c-.682 0-1.347-.349-1.721-.977-.564-.949-.254-2.177.695-2.742l14.125-8.409c.951-.564 2.178-.253 2.742.695.564.949.254 2.177-.695 2.742l-14.125 8.409c-.32.191-.673.282-1.021.282z" fill="#3762cc"/><path d="m161.759 124.526c-.349 0-.701-.091-1.021-.282l-14.162-8.438c-.949-.565-1.26-1.793-.694-2.741.565-.949 1.794-1.261 2.741-.694l14.162 8.438c.949.565 1.26 1.793.694 2.741-.375.628-1.039.976-1.72.976z" fill="#3762cc"/><path d="m181.08 107.578c-1.104 0-2-.896-2-2v-16.675c0-1.104.896-2 2-2s2 .896 2 2v16.675c0 1.105-.895 2-2 2z" fill="#3762cc"/><path d="m133.681 121.023 12.705-5.686c1.081-.484 1.635-1.694 1.295-2.829l-4.961-16.531c-5.198 7.108-8.465 15.711-9.039 25.046z" fill="#4671c6"/><path d="m168.105 78.29 11.419 10.031c.89.782 2.221.782 3.111 0l11.419-10.031c-4.126-1.169-8.474-1.809-12.975-1.809-4.5 0-8.848.64-12.974 1.809z" fill="#4671c6"/><g fill="#3762cc"><path d="m190.627 145.17h-19.095c-1.77 0-3.349-1.057-4.025-2.69l-7.439-17.96c-.715-1.724-.253-3.709 1.148-4.94l16.988-14.922c1.638-1.44 4.111-1.442 5.751 0l16.988 14.921c1.4 1.231 1.862 3.217 1.15 4.94l-7.441 17.962c-.677 1.633-2.257 2.689-4.025 2.689zm-9.548-37.597c-.084 0-.167.029-.234.088v.001l-16.988 14.922c-.114.101-.152.263-.094.404l7.44 17.961c.056.135.185.221.329.221h19.095c.145 0 .274-.087.33-.221l7.44-17.961c.059-.141.021-.304-.095-.405l-16.988-14.921c-.066-.059-.151-.089-.235-.089zm-1.555-1.414h.01z"/><path d="m133.681 123.023c-.4 0-.799-.12-1.139-.355-.575-.398-.9-1.069-.857-1.768.581-9.441 3.838-18.468 9.421-26.104.447-.611 1.209-.912 1.952-.791.748.129 1.359.67 1.578 1.396l4.961 16.531v.001c.626 2.09-.403 4.338-2.395 5.229l-12.704 5.686c-.262.118-.54.175-.817.175zm8.348-22.389c-3.147 5.255-5.193 11.08-6.021 17.157l9.561-4.279c.164-.073.248-.258.196-.429z"/><path d="m167.396 171.437c-.191 0-.385-.027-.573-.084-6.323-1.892-12.115-4.979-17.215-9.173l-.138-.115c-.52-.431-1.026-.872-1.525-1.321-.546-.491-.778-1.241-.606-1.955.172-.713.721-1.275 1.431-1.464l10.565-2.811c2.106-.561 4.322.538 5.15 2.557l4.762 11.607c.292.713.149 1.53-.368 2.102-.387.424-.928.657-1.483.657zm-13.854-11.244c3.172 2.412 6.626 4.382 10.312 5.88l-3.07-7.485c-.068-.165-.25-.252-.421-.209z"/><path d="m194.776 171.406c-.555 0-1.096-.231-1.48-.655-.519-.571-.663-1.39-.37-2.104l4.749-11.577c.828-2.02 3.04-3.119 5.151-2.557l10.492 2.792c.709.188 1.258.751 1.43 1.464.172.714-.061 1.464-.606 1.955-5.382 4.847-11.878 8.511-18.787 10.597-.191.057-.385.085-.579.085zm6.93-13.039c-.142 0-.274.085-.33.221l-3.049 7.432c3.629-1.497 7.076-3.471 10.21-5.847l-6.74-1.794c-.03-.008-.061-.012-.091-.012z"/><path d="m228.434 123.004c-.277 0-.556-.058-.817-.175l-12.662-5.667c-1.991-.892-3.021-3.14-2.392-5.229l4.956-16.518c.219-.728.83-1.269 1.579-1.396.751-.125 1.507.18 1.953.794.866 1.188 1.619 2.311 2.301 3.432 0 0 .026.044.027.045 4.127 6.801 6.564 14.613 7.051 22.593.043.698-.282 1.368-.857 1.767-.342.234-.739.354-1.139.354zm-8.307-22.361-3.733 12.441c-.052.171.032.354.195.428l9.519 4.26c-.825-6.048-2.865-11.908-5.981-17.129z"/><path d="m133.681 123.023c-.4 0-.799-.12-1.139-.355-.575-.398-.9-1.069-.857-1.768.581-9.441 3.838-18.468 9.421-26.104.447-.611 1.209-.912 1.952-.791.748.129 1.359.67 1.578 1.396l4.961 16.531v.001c.626 2.09-.403 4.338-2.395 5.229l-12.704 5.686c-.262.118-.54.175-.817.175zm8.348-22.389c-3.147 5.255-5.193 11.08-6.021 17.157l9.561-4.279c.164-.073.248-.258.196-.429z"/><path d="m181.079 90.903c-1.027 0-2.055-.359-2.874-1.079l-11.42-10.031c-.55-.483-.792-1.229-.631-1.944.162-.714.701-1.283 1.406-1.482 8.824-2.501 18.213-2.502 27.039 0 .705.199 1.244.769 1.406 1.482.161.715-.081 1.461-.631 1.944l-11.42 10.031c-.819.72-1.847 1.079-2.875 1.079zm-8.754-11.568 8.52 7.483c.133.12.336.118.471 0l8.52-7.483c-5.776-1.135-11.735-1.135-17.511 0z"/><path d="m181.032 173.434c-27.294 0-49.5-22.206-49.5-49.5s22.206-49.5 49.5-49.5 49.5 22.206 49.5 49.5-22.206 49.5-49.5 49.5zm0-95c-25.089 0-45.5 20.411-45.5 45.5s20.411 45.5 45.5 45.5 45.5-20.411 45.5-45.5-20.411-45.5-45.5-45.5z"/></g><path d="m131.634 103.593-8.687-6.254c-5.208-3.75-8.951-8.975-10.913-14.824-18.032 16.608-45.942 15.489-45.942 15.489s-4.828-.166-7.269-.39c-12.964-1.19-22.682-4.861-29.967-9.522-.728 3.433-1.116 6.989-1.116 10.636v4.864c-8.948-.198-16.177 6.95-16.177 15.689 0 9.275 8.097 16.612 17.549 15.612 5.361 22.774 25.961 39.745 50.575 39.745s45.215-16.97 50.575-39.745c9.439.998 17.549-6.325 17.549-15.612 0-8.796-7.295-15.885-16.177-15.688z" fill="#f9cfcf"/><path d="m130.659 59.789c-2.14-2.79-5.784-3.961-9.148-2.942l-.047.014c.564 2.802.674 5.748.298 8.671-.792 6.152-3.681 11.609-7.896 15.203-.597.616-1.209 1.207-1.831 1.78 1.962 5.85 5.705 11.074 10.913 14.824l8.687 6.254c.11-.002.218-.017.328-.017 2.745 0 5.327.692 7.578 1.91l1.102-8.082c1.822-13.368-1.773-26.91-9.984-37.615z" fill="#4671c6"/><path d="m112.345 180.062h-8.615c-.019-.001-.037-.004-.056-.004l-.003.004h-56.672c-14.972 0-27.109 12.137-27.109 27.109v24.612h119.563c0-9.177 0-15.439 0-24.612.001-14.972-12.136-27.109-27.108-27.109z" fill="#e0ebfc"/><path d="m79.698 152.58c-3.561 0-6.876-1.282-9.095-3.52-1.685-1.698-2.612-3.841-2.612-6.032 0-1.104.896-2 2-2s2 .896 2 2c0 1.146.502 2.258 1.452 3.216 1.451 1.463 3.789 2.336 6.255 2.336 2.48 0 4.748-.852 6.221-2.336.95-.959 1.452-2.07 1.452-3.216 0-1.104.896-2 2-2s2 .896 2 2c0 2.19-.928 4.333-2.611 6.032-2.22 2.237-5.523 3.52-9.062 3.52z" fill="#3762cc"/><path d="m53.99 131.855c-3.458 0-6.271-2.813-6.271-6.27v-10.451c0-3.458 2.813-6.271 6.271-6.271 3.457 0 6.27 2.813 6.27 6.271v10.451c0 3.457-2.813 6.27-6.27 6.27z" fill="#3762cc"/><path d="m105.372 131.855c-3.458 0-6.271-2.813-6.271-6.27v-10.451c0-3.458 2.813-6.271 6.271-6.271 3.457 0 6.27 2.813 6.27 6.271v10.451c.001 3.457-2.813 6.27-6.27 6.27z" fill="#3762cc"/><path d="m79.679 174.639c-8.713 0-16.917-2.135-24.127-5.892v13.719c0 10.463 8.482 18.945 18.945 18.945h10.336c10.463 0 18.945-8.482 18.945-18.945v-13.706c-7.202 3.749-15.397 5.879-24.099 5.879z" fill="#f9cfcf"/><path d="m139.454 233.782h-119.563c-1.104 0-2-.896-2-2v-24.611c0-16.051 13.058-29.109 29.108-29.109h6.553v-9.315c0-.699.365-1.348.963-1.71.599-.363 1.34-.388 1.962-.063 7.213 3.76 15.02 5.666 23.202 5.666 8.172 0 15.97-1.901 23.178-5.652.619-.321 1.363-.297 1.961.064.597.363.962 1.011.962 1.71v9.301h6.565c16.051 0 29.109 13.059 29.109 29.109v24.611c0 1.104-.895 1.999-2 1.999zm-117.563-4h115.563v-22.611c0-13.846-11.264-25.109-25.109-25.109h-8.565c-1.104 0-2-.896-2-2v-8.117c-6.916 3.078-14.491 4.694-22.101 4.694-7.62 0-15.204-1.62-22.127-4.707v8.13c0 1.104-.896 2-2 2h-8.553c-13.845 0-25.108 11.264-25.108 25.109z" fill="#3762cc"/><path d="m46.999 180.062c-14.972 0-27.109 12.137-27.109 27.109v24.612h52.2v-22.141l-13.977-29.58z" fill="#f9a7a7"/><path d="m112.345 180.062c14.972 0 27.109 12.137 27.109 27.109v24.612h-52.2v-22.141l13.977-29.58z" fill="#f9a7a7"/><path d="m19.891 215.63h52.2v7.5h-52.2z" fill="#f9cfcf"/><path d="m87.253 215.63h52.2v7.5h-52.2z" fill="#f9cfcf"/><path d="m72.091 233.782h-52.2c-1.104 0-2-.896-2-2v-24.611c0-16.051 13.058-29.109 29.108-29.109h11.115c.773 0 1.478.446 1.809 1.146l13.977 29.58c.126.268.191.559.191.854v22.141c0 1.104-.896 1.999-2 1.999zm-50.2-4h48.2v-19.692l-13.243-28.028h-9.849c-13.845 0-25.108 11.264-25.108 25.109z" fill="#3762cc"/><path d="m139.454 233.782h-52.201c-1.104 0-2-.896-2-2v-22.141c0-.296.065-.587.191-.854l13.977-29.58c.331-.699 1.035-1.146 1.809-1.146h11.115c16.051 0 29.109 13.059 29.109 29.109v24.611c0 1.106-.895 2.001-2 2.001zm-50.201-4h48.201v-22.611c0-13.846-11.264-25.109-25.109-25.109h-9.849l-13.243 28.028z" fill="#3762cc"/><path d="m55.552 174.639h-4.874c-1.87 0-3.638.852-4.803 2.315l-10.676 13.408c-.712.895-.593 2.192.272 2.941.588.51 1.407.659 2.137.389l11.96-4.42c1.33-.491 2.825-.148 3.806.875l18.717 19.494z" fill="#e0ebfc"/><path d="m103.792 174.639h4.874c1.87 0 3.638.852 4.803 2.315l10.676 13.408c.712.895.593 2.192-.272 2.941-.588.51-1.407.659-2.137.389l-11.96-4.42c-1.33-.491-2.825-.148-3.806.875l-18.717 19.494z" fill="#e0ebfc"/><path d="m72.092 211.642c-.529 0-1.055-.209-1.443-.615l-18.717-19.494c-.432-.447-1.085-.6-1.67-.384l-11.961 4.421c-1.417.521-3.001.232-4.141-.755-1.68-1.455-1.91-3.958-.525-5.698l10.676-13.408c1.554-1.95 3.875-3.069 6.368-3.069h4.873c.773 0 1.478.446 1.809 1.146l16.539 35.003c.419.887.133 1.945-.674 2.502-.345.234-.741.351-1.134.351zm-21.289-24.591c1.488 0 2.945.599 4.014 1.712l10.232 10.656-10.764-22.78h-3.606c-1.269 0-2.449.569-3.239 1.562l-10.676 13.408c-.045.056-.037.137.017.184.036.032.087.044.134.025l11.961-4.421c.628-.233 1.28-.346 1.927-.346z" fill="#3762cc"/><path d="m87.252 211.642c-.394 0-.789-.116-1.134-.353-.807-.557-1.093-1.615-.674-2.502l16.539-35.003c.331-.699 1.035-1.146 1.809-1.146h4.874c2.493 0 4.814 1.119 6.368 3.069l10.676 13.408c1.385 1.742 1.152 4.245-.528 5.699-1.137.986-2.722 1.276-4.138.754l-11.961-4.421c-.585-.216-1.239-.064-1.671.385l-18.717 19.493c-.388.408-.914.617-1.443.617zm17.807-35.003-10.764 22.78 10.232-10.656c1.534-1.598 3.866-2.135 5.942-1.366l11.96 4.421c.047.019.098.007.133-.024.056-.048.063-.129.018-.187l-10.675-13.407c-.79-.992-1.971-1.562-3.239-1.562h-3.607z" fill="#3762cc"/><path d="m139.541 107.485c-.327 0-.654-.08-.951-.24-2.021-1.092-4.312-1.669-6.627-1.669-.12.009-.197.014-.275.016-.425.02-.866-.121-1.222-.376l-8.688-6.254c-5.465-3.936-9.49-9.402-11.64-15.812-.25-.747-.039-1.572.541-2.106.634-.584 1.206-1.141 1.751-1.702.044-.045.09-.089.138-.13 3.867-3.296 6.495-8.375 7.21-13.935.347-2.694.255-5.393-.275-8.021-.202-1.004.387-1.998 1.364-2.304 4.203-1.271 8.749.189 11.379 3.62 8.477 11.05 12.259 25.302 10.378 39.102l-1.102 8.082c-.089.65-.49 1.216-1.076 1.513-.284.144-.594.216-.905.216zm-7.281-5.906c1.932.031 3.847.376 5.657 1.01l.744-5.456c1.737-12.749-1.757-25.917-9.589-36.127-1.274-1.661-3.286-2.576-5.315-2.516.307 2.41.303 4.856-.012 7.298-.835 6.498-3.935 12.472-8.509 16.406-.284.292-.575.582-.876.875 1.962 5.097 5.315 9.45 9.756 12.646z" fill="#3762cc"/><path d="m17.957 78.659c-1.474 6.077-1.841 12.428-.98 18.745l1.241 9.102c2.695-1.908 5.953-2.992 9.523-2.913v-4.864c0-3.646.403-7.196 1.131-10.627-4.514-2.885-8.086-6.148-10.915-9.443z" fill="#4671c6"/><path d="m18.217 108.505c-.271 0-.541-.055-.797-.166-.642-.278-1.091-.871-1.185-1.563l-1.24-9.102c-.886-6.496-.543-13.052 1.019-19.486.177-.729.747-1.298 1.477-1.473.727-.174 1.495.072 1.984.642 2.988 3.479 6.512 6.527 10.474 9.06.702.449 1.053 1.286.879 2.101-.721 3.397-1.087 6.833-1.087 10.212v4.864c0 .54-.218 1.057-.604 1.433-.387.377-.921.585-1.448.566-.078-.002-.155-.007-.232-.012-.006 0-.012 0-.018 0-2.929 0-5.702.885-8.065 2.558-.346.242-.75.366-1.157.366zm.927-25.636c-.77 4.736-.832 9.519-.186 14.264l.837 6.143c1.871-.882 3.876-1.43 5.945-1.622v-2.925c0-3.211.305-6.466.906-9.696-2.709-1.833-5.219-3.895-7.502-6.164z" fill="#3762cc"/><path d="m79.688 176.639c-24.635 0-45.826-16.223-52.111-39.656-4.479.012-8.822-1.588-12.153-4.584-3.724-3.351-5.859-8.132-5.859-13.117 0-5.701 2.805-11.089 7.503-14.412 2.569-1.814 5.567-2.923 8.674-3.209v-2.932c0-3.607.385-7.271 1.143-10.893.033-.248.113-.494.244-.725.526-.926 1.682-1.278 2.634-.802.041.021.082.043.122.067.031.018.062.036.091.056 7.922 5.057 17.689 8.148 29.032 9.19 2.355.216 7.107.381 7.154.382.288.009 27.326.875 44.521-14.961.498-.46 1.196-.633 1.853-.467.656.169 1.183.659 1.398 1.302 1.881 5.609 5.403 10.395 10.185 13.837l8.161 5.875c4.604.068 8.92 1.86 12.22 5.087 3.427 3.352 5.314 7.828 5.314 12.604 0 4.984-2.135 9.765-5.857 13.115-3.294 2.964-7.586 4.586-12.004 4.586-.051 0-.101 0-.151-.001-6.289 23.435-27.481 39.658-52.114 39.658zm-50.574-43.745c.917 0 1.73.631 1.945 1.542 5.294 22.493 25.29 38.203 48.628 38.203 23.337 0 43.333-15.71 48.628-38.203.23-.98 1.154-1.623 2.157-1.531 3.949.422 7.884-.852 10.806-3.481 2.881-2.593 4.533-6.289 4.533-10.142 0-3.69-1.46-7.15-4.111-9.744-2.688-2.627-6.216-4.019-10.021-3.945-.445.024-.859-.122-1.213-.376l-8.688-6.254c-4.669-3.362-8.287-7.843-10.582-13.073-18.358 15-44.058 14.165-45.185 14.113-.188-.006-4.902-.17-7.371-.396-10.833-.994-20.345-3.783-28.324-8.301-.383 2.48-.576 4.967-.576 7.424v4.864c0 .538-.217 1.054-.602 1.431s-.896.598-1.444.568l-.206-.005c-.393-.01-.59-.016-1.359.055-2.383.215-4.781 1.101-6.754 2.494-3.639 2.574-5.812 6.741-5.812 11.146 0 3.854 1.653 7.55 4.535 10.144 2.922 2.63 6.853 3.899 10.804 3.479.071-.009.142-.012.212-.012z" fill="#3762cc"/><path d="m117.303 47.405c-4.965-6.554-10.264-11.435-15.749-14.955l.012.001c-17.435-10.319-39.163-9.839-52.026-4.57l.023.002c-19.195 6.865-34.277 21.847-39.277 27.253-.331.296-1.557 1.555-1.778 1.993-.505 1.001-.647 2.222-.334 3.367 2.326 8.508 12.386 33.606 50.649 37.118 2.441.224 7.269.39 7.269.39s29.871 1.201 47.774-17.27c4.215-3.594 7.104-9.05 7.896-15.203.843-6.552-.741-13.219-4.459-18.126z" fill="#4671c6"/><path d="m67.415 100.024c-.779 0-1.265-.017-1.403-.022-.188-.006-4.902-.17-7.371-.396-39.829-3.657-50.174-30.456-52.396-38.583-.435-1.584-.261-3.332.477-4.795.41-.81 1.76-2.133 2.133-2.49 5.596-6.045 20.573-20.713 39.83-27.666.032-.016.064-.029.098-.043 13.054-5.348 35.459-6.157 53.803 4.7.065.038.128.08.188.125 5.852 3.781 11.276 8.942 16.125 15.342h.001c4.003 5.285 5.77 12.426 4.847 19.592-.835 6.497-3.935 12.471-8.508 16.405-16.297 16.746-41.553 17.831-47.824 17.831zm-16.917-70.375c-.083.044-.171.083-.262.115-18.564 6.64-33.096 20.904-38.481 26.729-.043.046-.087.09-.134.132-.308.275-1.19 1.212-1.376 1.49-.248.504-.318 1.21-.143 1.853 2.051 7.5 11.637 32.233 48.903 35.655 2.356.216 7.107.381 7.154.382.308.011 29.22.928 46.27-16.662.045-.046.091-.089.139-.13 3.867-3.298 6.495-8.377 7.21-13.936.789-6.135-.693-12.209-4.069-16.665h.001c-4.603-6.073-9.729-10.945-15.235-14.479-.02-.013-.038-.025-.057-.038-17.05-10.026-37.754-9.344-49.92-4.446z" fill="#3762cc"/></svg>