<svg id="Layer_1" enable-background="new 0 0 256 256" height="512" viewBox="0 0 256 256" width="512" xmlns="http://www.w3.org/2000/svg"><path d="m180.214 74.214v153.214c0 5.523-4.477 10-10 10h-105.714-42.5c-5.523 0-10-4.477-10-10v-42.5-110.714c0-2.761 2.239-5 5-5h158.214c2.762 0 5 2.239 5 5z" fill="#ffea92"/><path d="m180.214 74.214v153.214c0 5.523-4.477 10-10 10h-105.714l-52.5-52.5v-110.714c0-2.761 2.239-5 5-5h158.214c2.762 0 5 2.239 5 5z" fill="#a4c9ff"/><path d="m180.214 99.071h-168.214c-1.104 0-2-.896-2-2v-22.857c0-3.86 3.14-7 7-7h158.214c3.86 0 7 3.14 7 7v22.857c0 1.105-.895 2-2 2zm-166.214-4h164.214v-20.857c0-1.654-1.346-3-3-3h-158.214c-1.654 0-3 1.346-3 3z" fill="#3762cc"/><path d="m54.5 184.929h-42.5l52.5 52.5v-42.5c0-5.523-4.477-10-10-10z" fill="#4671c6"/><g fill="#3762cc"><path d="m170.214 239.428h-105.714c-.53 0-1.039-.211-1.414-.586l-52.5-52.5c-.375-.375-.586-.884-.586-1.414v-110.714c0-3.86 3.14-7 7-7h158.214c3.86 0 7 3.14 7 7v153.214c0 6.617-5.383 12-12 12zm-104.885-4h104.886c4.411 0 8-3.589 8-8v-153.214c0-1.654-1.346-3-3-3h-158.215c-1.654 0-3 1.346-3 3v109.886z"/><path d="m64.5 239.429c-.521 0-1.032-.203-1.415-.586l-52.5-52.5c-.572-.572-.743-1.432-.434-2.179.31-.748 1.039-1.235 1.848-1.235h42.5c6.617 0 12 5.383 12 12v42.5c0 .809-.487 1.538-1.235 1.848-.246.102-.506.152-.764.152zm-47.671-52.5 45.671 45.671v-37.671c0-4.411-3.589-8-8-8z"/><path d="m170.214 239.428h-148.214c-6.617 0-12-5.383-12-12v-153.214c0-3.86 3.14-7 7-7h158.214c3.86 0 7 3.14 7 7v153.214c0 6.617-5.383 12-12 12zm-153.214-168.214c-1.654 0-3 1.346-3 3v153.214c0 4.411 3.589 8 8 8h148.214c4.411 0 8-3.589 8-8v-153.214c0-1.654-1.346-3-3-3z"/></g><path d="m75.786 28.571v148.214c0 5.523 4.477 10 10 10h105.714 42.5c5.523 0 10-4.477 10-10 0-2.712 0-151.221 0-148.214 0-5.523-4.477-10-10-10h-148.214c-5.523 0-10 4.478-10 10z" fill="#ffea92"/><path d="m234 188.786h-148.214c-6.617 0-12-5.383-12-12v-148.215c0-6.617 5.383-12 12-12h148.214c6.591 0 11.958 5.342 12 11.924v.031 148.259c0 6.617-5.383 12.001-12 12.001zm-148.214-168.215c-4.411 0-8 3.589-8 8v148.214c0 4.411 3.589 8 8 8h148.214c4.411 0 8-3.589 8-8v-148.214c0-4.411-3.589-8-8-8z" fill="#3762cc"/><path d="m221.839 75.679h-123.893c-2.761 0-5-2.239-5-5 0-2.761 2.239-5 5-5h123.893c2.761 0 5 2.239 5 5 0 2.761-2.238 5-5 5z" fill="#4671c6"/><path d="m221.839 107.679h-123.893c-2.761 0-5-2.239-5-5 0-2.761 2.239-5 5-5h123.893c2.761 0 5 2.239 5 5 0 2.761-2.238 5-5 5z" fill="#4671c6"/><path d="m221.839 139.679h-123.893c-2.761 0-5-2.239-5-5 0-2.761 2.239-5 5-5h123.893c2.761 0 5 2.239 5 5 0 2.761-2.238 5-5 5z" fill="#4671c6"/></svg>