<svg id="Layer_1" enable-background="new 0 0 256 256" height="512" viewBox="0 0 256 256" width="512" xmlns="http://www.w3.org/2000/svg"><path d="m128 248h-115c-2.761 0-5-2.239-5-5v-148.25c0-2.761 2.239-5 5-5h106.063c4.936 0 8.937 4.001 8.937 8.937z" fill="#4671c6"/><path d="m128 248h115c2.761 0 5-2.239 5-5v-148.25c0-2.761-2.239-5-5-5h-106.063c-4.936 0-8.937 4.001-8.937 8.937z" fill="#4671c6"/><path d="m128 250h-115c-3.859 0-7-3.141-7-7v-148.25c0-3.859 3.141-7 7-7h106.063c6.03 0 10.937 4.906 10.937 10.937v149.313c0 1.104-.896 2-2 2zm-115-158.25c-1.654 0-3 1.346-3 3v148.25c0 1.654 1.346 3 3 3h113v-147.313c0-3.825-3.111-6.937-6.937-6.937z" fill="#3762cc"/><path d="m243 250h-115c-1.104 0-2-.896-2-2v-149.313c0-6.03 4.906-10.937 10.937-10.937h106.063c3.859 0 7 3.141 7 7v148.25c0 3.859-3.141 7-7 7zm-113-4h113c1.654 0 3-1.346 3-3v-148.25c0-1.654-1.346-3-3-3h-106.063c-3.825 0-6.937 3.111-6.937 6.937z" fill="#3762cc"/><path d="m228 81.5v8.25h-100-100v-8.25c-7.667.833-8.108 8.25-8.108 8.25v150h108.108 108.108v-150s-.441-7.417-8.108-8.25z" fill="#a4c9ff"/><path d="m236.108 241.75h-216.216c-1.104 0-2-.896-2-2v-150c0-.04.001-.079.004-.119.188-3.148 2.495-9.315 9.889-10.119.569-.063 1.129.121 1.552.5s.663.92.663 1.488v6.25h196v-6.25c0-.568.241-1.109.664-1.488.423-.38.985-.564 1.552-.5 7.394.804 9.701 6.971 9.889 10.119.003.04.004.079.004.119v150c-.001 1.104-.896 2-2.001 2zm-214.216-4h212.217v-147.926c-.055-.643-.524-4.324-4.108-5.793v5.719c0 1.104-.896 2-2 2h-200.001c-1.104 0-2-.896-2-2v-5.717c-3.639 1.495-4.067 5.278-4.108 5.786z" fill="#3762cc"/><path d="m128 239.75h-100v-158.25h91.783c4.538 0 8.217 3.679 8.217 8.217z" fill="#e0ebfc"/><path d="m128 239.75h100v-158.25h-91.783c-4.538 0-8.217 3.679-8.217 8.217z" fill="#e0ebfc"/><g fill="#b9befc"><path d="m214.833 110.859h-71c-1.933 0-3.5-1.567-3.5-3.5 0-1.933 1.567-3.5 3.5-3.5h71c1.933 0 3.5 1.567 3.5 3.5 0 1.933-1.567 3.5-3.5 3.5z"/><path d="m214.833 130.859h-71c-1.933 0-3.5-1.567-3.5-3.5 0-1.933 1.567-3.5 3.5-3.5h71c1.933 0 3.5 1.567 3.5 3.5 0 1.933-1.567 3.5-3.5 3.5z"/><path d="m214.833 150.859h-71c-1.933 0-3.5-1.567-3.5-3.5 0-1.933 1.567-3.5 3.5-3.5h71c1.933 0 3.5 1.567 3.5 3.5 0 1.933-1.567 3.5-3.5 3.5z"/><path d="m214.833 170.859h-71c-1.933 0-3.5-1.567-3.5-3.5 0-1.933 1.567-3.5 3.5-3.5h71c1.933 0 3.5 1.567 3.5 3.5 0 1.933-1.567 3.5-3.5 3.5z"/><path d="m214.833 190.859h-71c-1.933 0-3.5-1.567-3.5-3.5 0-1.933 1.567-3.5 3.5-3.5h71c1.933 0 3.5 1.567 3.5 3.5 0 1.933-1.567 3.5-3.5 3.5z"/><path d="m214.833 210.859h-71c-1.933 0-3.5-1.567-3.5-3.5 0-1.933 1.567-3.5 3.5-3.5h71c1.933 0 3.5 1.567 3.5 3.5 0 1.933-1.567 3.5-3.5 3.5z"/><path d="m113.5 110.859h-71c-1.933 0-3.5-1.567-3.5-3.5 0-1.933 1.567-3.5 3.5-3.5h71c1.933 0 3.5 1.567 3.5 3.5 0 1.933-1.567 3.5-3.5 3.5z"/><path d="m113.5 130.859h-71c-1.933 0-3.5-1.567-3.5-3.5 0-1.933 1.567-3.5 3.5-3.5h71c1.933 0 3.5 1.567 3.5 3.5 0 1.933-1.567 3.5-3.5 3.5z"/><path d="m113.5 150.859h-71c-1.933 0-3.5-1.567-3.5-3.5 0-1.933 1.567-3.5 3.5-3.5h71c1.933 0 3.5 1.567 3.5 3.5 0 1.933-1.567 3.5-3.5 3.5z"/><path d="m113.5 170.859h-71c-1.933 0-3.5-1.567-3.5-3.5 0-1.933 1.567-3.5 3.5-3.5h71c1.933 0 3.5 1.567 3.5 3.5 0 1.933-1.567 3.5-3.5 3.5z"/><path d="m115 210.859h-74c-1.105 0-2-.895-2-2v-23c0-1.105.895-2 2-2h74c1.105 0 2 .895 2 2v23c0 1.105-.895 2-2 2z"/></g><path d="m128 241.75h-100c-1.104 0-2-.896-2-2v-158.25c0-1.104.896-2 2-2h91.783c5.634 0 10.217 4.583 10.217 10.217v150.033c0 1.104-.896 2-2 2zm-98-4h96v-148.033c0-3.428-2.789-6.217-6.217-6.217h-89.783z" fill="#3762cc"/><path d="m228 241.75h-100c-1.104 0-2-.896-2-2v-150.033c0-5.634 4.583-10.217 10.217-10.217h91.783c1.104 0 2 .896 2 2v158.25c0 1.104-.896 2-2 2zm-98-4h96v-154.25h-89.783c-3.428 0-6.217 2.789-6.217 6.217z" fill="#3762cc"/><path d="m119.892 231.5h-91.892c-7.667.833-8.108 8.25-8.108 8.25h8.108 100s-.441-7.417-8.108-8.25z" fill="#a4c9ff"/><path d="m228 231.5h-91.892c-7.667.833-8.108 8.25-8.108 8.25h100 8.108s-.441-7.417-8.108-8.25z" fill="#a4c9ff"/><path d="m128 241.75h-108.108c-.551 0-1.078-.228-1.456-.629-.378-.4-.573-.939-.54-1.49.188-3.148 2.495-9.315 9.889-10.119.071-.008.144-.012.216-.012h91.892c.072 0 .145.004.216.012 7.394.804 9.701 6.971 9.889 10.119.033.551-.162 1.09-.54 1.49-.38.401-.907.629-1.458.629zm-105.601-4h103.094c-.669-1.695-2.204-3.831-5.715-4.25h-91.665c-3.509.419-5.044 2.553-5.714 4.25z" fill="#3762cc"/><path d="m236.108 241.75h-108.108c-.551 0-1.078-.228-1.456-.629-.378-.4-.573-.939-.54-1.49.188-3.148 2.495-9.315 9.889-10.119.071-.008.144-.012.216-.012h91.891c.072 0 .145.004.216.012 7.394.804 9.701 6.971 9.889 10.119.033.551-.162 1.09-.54 1.49-.378.401-.906.629-1.457.629zm-105.6-4h103.094c-.669-1.695-2.204-3.831-5.715-4.25h-91.665c-3.509.419-5.044 2.553-5.714 4.25z" fill="#3762cc"/><path d="m129.616 8h-3.232c-29.232 0-52.928 23.697-52.928 52.928 0 24.902 17.202 45.775 40.367 51.416l10.963 20.721c1.365 2.581 5.063 2.581 6.428 0l10.963-20.721c23.166-5.64 40.368-26.514 40.368-51.416-.001-29.231-23.698-52.928-52.929-52.928z" fill="#6bdddd"/><path d="m142.73 66.91c3.308-3.613 5.327-8.426 5.327-13.71 0-11.218-9.094-20.312-20.312-20.312s-20.312 9.094-20.312 20.312c0 5.285 2.02 10.097 5.327 13.71h-.053c3.359 3.977 5.389 9.112 5.389 14.726 0 .341-.011.679-.026 1.016h2.057 6.601 2.031 6.094 2.565c-.015-.337-.026-.675-.026-1.016 0-5.614 2.03-10.749 5.389-14.726z" fill="#ffea94"/><path d="m133.84 63.356c0-3.365-2.728-6.094-6.094-6.094-3.365 0-6.094 2.728-6.094 6.094 0 2.836 1.947 5.198 4.57 5.878v14.808h3.047v-14.808c2.624-.68 4.571-3.042 4.571-5.878zm-6.094 3.564c-1.965 0-3.564-1.599-3.564-3.564s1.599-3.564 3.564-3.564 3.564 1.599 3.564 3.564-1.599 3.564-3.564 3.564z" fill="#f9a7a7"/><path d="m143.036 34.78.084.084c1.167 1.167 3.058 1.167 4.225 0l6.547-6.547c1.167-1.167 1.167-3.058 0-4.225l-.084-.084c-1.167-1.167-3.058-1.167-4.225 0l-6.547 6.547c-1.167 1.167-1.167 3.058 0 4.225z" fill="#ffe164"/><path d="m128.055 28.846h-.11c-1.652 0-2.992-1.339-2.992-2.992v-9.291c0-1.652 1.339-2.992 2.992-2.992h.11c1.652 0 2.992 1.339 2.992 2.992v9.291c0 1.653-1.34 2.992-2.992 2.992z" fill="#ffe164"/><path d="m113.218 34.78-.084.084c-1.167 1.167-3.058 1.167-4.225 0l-6.547-6.547c-1.167-1.167-1.167-3.058 0-4.225l.084-.084c1.167-1.167 3.058-1.167 4.225 0l6.547 6.547c1.167 1.167 1.167 3.058 0 4.225z" fill="#ffe164"/><path d="m149.835 43.611v-.118c0-1.65 1.338-2.988 2.988-2.988h9.259c1.65 0 2.988 1.338 2.988 2.988v.118c0 1.65-1.338 2.988-2.988 2.988h-9.259c-1.65 0-2.988-1.338-2.988-2.988z" fill="#ffdc85"/><path d="m90.931 43.611v-.118c0-1.65 1.338-2.988 2.988-2.988h9.259c1.65 0 2.988 1.338 2.988 2.988v.118c0 1.65-1.338 2.988-2.988 2.988h-9.259c-1.65 0-2.988-1.338-2.988-2.988z" fill="#ffe164"/><path d="m137.805 88.746h-20.118c-.614 0-1.113-.498-1.113-1.113v-3.868c0-.614.498-1.113 1.113-1.113h20.118c.614 0 1.113.498 1.113 1.113v3.868c0 .614-.499 1.113-1.113 1.113z" fill="#4671c6"/><path d="m136.143 94.839h-16.286c-.971 0-1.759-.788-1.759-1.759v-4.334h19.804v4.334c0 .972-.788 1.759-1.759 1.759z" fill="#4671c6"/><path d="m129.777 102.964h-4.062c-3.365 0-6.094-2.728-6.094-6.094v-2.031h16.249v2.031c.001 3.366-2.727 6.094-6.093 6.094z" fill="#4671c6"/><path d="m128 137c-2.094 0-4.003-1.149-4.981-3l-10.547-19.935c-24.197-6.308-41.016-28.029-41.016-53.138 0-30.286 24.641-54.927 54.928-54.927h3.232c30.287 0 54.928 24.641 54.928 54.928 0 25.108-16.818 46.83-41.016 53.138l-10.547 19.934c-.978 1.851-2.887 3-4.981 3zm-1.616-127c-28.082 0-50.928 22.846-50.928 50.928 0 23.561 15.972 43.904 38.841 49.473.556.136 1.026.502 1.294 1.008l10.963 20.721c.416.786 1.15.871 1.446.871s1.03-.085 1.446-.871l10.963-20.721c.268-.506.738-.872 1.294-1.008 22.869-5.568 38.841-25.912 38.841-49.473 0-28.082-22.846-50.928-50.928-50.928z" fill="#3762cc"/></svg>