<svg id="Layer_1" enable-background="new 0 0 256 256" height="512" viewBox="0 0 256 256" width="512" xmlns="http://www.w3.org/2000/svg"><path d="m208.05 248h-169c-4.418 0-8-3.582-8-8v-224c0-4.418 3.582-8 8-8h169c4.418 0 8 3.582 8 8v224c0 4.418-3.582 8-8 8z" fill="#e0ebfc"/><path d="m44.349 212.5v-182c0-2.209 1.791-4 4-4h150.401c2.209 0 4 1.791 4 4v182c0 2.209-1.791 4-4 4h-150.401c-2.209 0-4-1.791-4-4z" fill="#4671c6"/><path d="m208.05 250h-169c-5.514 0-10-4.486-10-10v-224c0-5.514 4.486-10 10-10h169c5.514 0 10 4.486 10 10v224c0 5.514-4.486 10-10 10zm-169-240c-3.309 0-6 2.691-6 6v224c0 3.309 2.691 6 6 6h169c3.309 0 6-2.691 6-6v-224c0-3.309-2.691-6-6-6z" fill="#3762cc"/><path d="m198.75 218.5h-150.401c-3.309 0-6-2.691-6-6v-182c0-3.309 2.691-6 6-6h150.401c3.309 0 6 2.691 6 6v182c0 3.309-2.691 6-6 6zm-150.401-190c-1.103 0-2 .897-2 2v182c0 1.103.897 2 2 2h150.401c1.103 0 2-.897 2-2v-182c0-1.103-.897-2-2-2z" fill="#3762cc"/><circle cx="123.55" cy="16.625" fill="#f9a7a7" r="3.875"/><circle cx="123.55" cy="232" fill="#a4c9ff" r="10.656"/><path d="m119.55 96.5h-55.5c-2.209 0-4-1.791-4-4v-41c0-2.209 1.791-4 4-4h55.5c2.209 0 4 1.791 4 4v41c0 2.209-1.791 4-4 4z" fill="#6bdddd"/><path d="m191.378 57.5h-56c-1.105 0-2-.895-2-2v-6c0-1.105.895-2 2-2h56c1.105 0 2 .895 2 2v6c0 1.105-.896 2-2 2z" fill="#6bdddd"/><g fill="#a4c9ff"><path d="m189.378 79.5h-52c-2.209 0-4-1.791-4-4 0-2.209 1.791-4 4-4h52c2.209 0 4 1.791 4 4 0 2.209-1.791 4-4 4z"/><path d="m189.752 95.5h-52.749c-2.002 0-3.625-1.623-3.625-3.625v-.749c0-2.002 1.623-3.625 3.625-3.625h52.749c2.002 0 3.625 1.623 3.625 3.625v.749c.001 2.002-1.622 3.625-3.625 3.625z"/><path d="m189.378 115.5h-125.328c-2.209 0-4-1.791-4-4 0-2.209 1.791-4 4-4h125.328c2.209 0 4 1.791 4 4 0 2.209-1.791 4-4 4z"/><path d="m189.378 135.5h-125.328c-2.209 0-4-1.791-4-4 0-2.209 1.791-4 4-4h125.328c2.209 0 4 1.791 4 4 0 2.209-1.791 4-4 4z"/><path d="m189.378 155.5h-125.328c-2.209 0-4-1.791-4-4 0-2.209 1.791-4 4-4h125.328c2.209 0 4 1.791 4 4 0 2.209-1.791 4-4 4z"/><path d="m189.378 175.5h-125.328c-2.209 0-4-1.791-4-4 0-2.209 1.791-4 4-4h125.328c2.209 0 4 1.791 4 4 0 2.209-1.791 4-4 4z"/><path d="m189.378 195.5h-125.328c-2.209 0-4-1.791-4-4 0-2.209 1.791-4 4-4h125.328c2.209 0 4 1.791 4 4 0 2.209-1.791 4-4 4z"/></g><path d="m187.613 40.47h16.638v99.827h-16.638z" fill="#e0ebfc" transform="matrix(-.94 -.342 .342 -.94 349.135 242.329)"/><path d="m171.043 134.441 15.635 5.691-13.065 11.573z" fill="#f9cfcf"/><path d="m205.186 40.635 15.634 5.69 3.794-10.423c1.048-2.878-.436-6.061-3.315-7.108l-5.211-1.897c-2.878-1.048-6.061.436-7.108 3.315z" fill="#f9cfcf"/><path d="m186.678 142.132c-.227 0-.458-.039-.684-.121l-15.634-5.69c-.499-.182-.904-.553-1.128-1.034s-.249-1.031-.067-1.529l34.143-93.807c.378-1.038 1.526-1.573 2.563-1.195l15.634 5.69c.499.182.904.553 1.128 1.034s.249 1.031.067 1.529l-34.143 93.807c-.295.812-1.062 1.316-1.879 1.316zm-13.071-8.886 11.875 4.322 32.775-90.048-11.875-4.322z" fill="#3762cc"/><path d="m173.612 153.705c-.229 0-.461-.04-.684-.121-.689-.251-1.186-.859-1.294-1.585l-2.569-17.264c-.104-.697.167-1.398.713-1.844.546-.445 1.287-.571 1.949-.33l15.634 5.69c.663.241 1.149.813 1.281 1.506.132.692-.111 1.403-.639 1.871l-13.065 11.573c-.371.33-.844.504-1.326.504zm-.096-16.235 1.532 10.292 7.789-6.899z" fill="#3762cc"/><path d="m220.821 48.325c-.231 0-.463-.04-.684-.121l-15.634-5.69c-1.038-.378-1.573-1.525-1.195-2.563l3.793-10.423c.689-1.894 2.075-3.406 3.902-4.258 1.825-.852 3.875-.942 5.77-.252l5.211 1.896c1.894.689 3.406 2.075 4.258 3.902s.941 3.876.252 5.77l-3.794 10.423c-.182.499-.553.904-1.034 1.128-.267.125-.556.188-.845.188zm-13.071-8.886 11.875 4.322 3.109-8.543c.324-.89.282-1.853-.118-2.711-.4-.859-1.111-1.51-2.001-1.834l-5.211-1.896c-.89-.324-1.854-.282-2.711.118-.858.4-1.51 1.111-1.833 2.001z" fill="#3762cc"/><path d="m123.55 244.656c-6.979 0-12.656-5.678-12.656-12.656s5.678-12.656 12.656-12.656 12.656 5.678 12.656 12.656-5.678 12.656-12.656 12.656zm0-21.312c-4.773 0-8.656 3.883-8.656 8.656s3.883 8.656 8.656 8.656 8.656-3.883 8.656-8.656-3.883-8.656-8.656-8.656z" fill="#3762cc"/></svg>