<svg id="Layer_1" enable-background="new 0 0 256 256" height="512" viewBox="0 0 256 256" width="512" xmlns="http://www.w3.org/2000/svg"><path d="m128 248c-24.853 0-45-20.147-45-45v-141c0-2.209 1.791-4 4-4h82c2.209 0 4 1.791 4 4v141c0 24.853-20.147 45-45 45z" fill="#4671c6"/><path d="m162.25 58h-68.5v-46c0-2.209 1.791-4 4-4h60.5c2.209 0 4 1.791 4 4z" fill="#e0ebfc"/><path d="m120.2 51.438h-14.7c-1.105 0-2-.895-2-2v-2.375c0-1.105.895-2 2-2h14.7c1.105 0 2 .895 2 2v2.375c0 1.104-.895 2-2 2z" fill="#4671c6"/><path d="m150.5 51.438h-14.7c-1.105 0-2-.895-2-2v-2.375c0-1.105.895-2 2-2h14.7c1.105 0 2 .895 2 2v2.375c0 1.104-.895 2-2 2z" fill="#4671c6"/><path d="m131.5 33h-7c-.552 0-1-.448-1-1v-24h9v24c0 .552-.448 1-1 1z" fill="#a4c9ff"/><path d="m111.5 33h-7c-.552 0-1-.448-1-1v-24h9v24c0 .552-.448 1-1 1z" fill="#a4c9ff"/><path d="m151.5 33h-7c-.552 0-1-.448-1-1v-24h9v24c0 .552-.448 1-1 1z" fill="#a4c9ff"/><g fill="#3762cc"><path d="m162.25 60h-68.5c-1.104 0-2-.896-2-2v-46c0-3.309 2.691-6 6-6h60.5c3.309 0 6 2.691 6 6v46c0 1.104-.896 2-2 2zm-66.5-4h64.5v-44c0-1.103-.897-2-2-2h-60.5c-1.103 0-2 .897-2 2z"/><path d="m131.5 35h-7c-1.654 0-3-1.346-3-3v-24c0-1.104.896-2 2-2h9c1.104 0 2 .896 2 2v24c0 1.654-1.346 3-3 3zm-6-4h5v-21h-5z"/><path d="m111.5 35h-7c-1.654 0-3-1.346-3-3v-24c0-1.104.896-2 2-2h9c1.104 0 2 .896 2 2v24c0 1.654-1.346 3-3 3zm-6-4h5v-21h-5z"/><path d="m151.5 35h-7c-1.654 0-3-1.346-3-3v-24c0-1.104.896-2 2-2h9c1.104 0 2 .896 2 2v24c0 1.654-1.346 3-3 3zm-6-4h5v-21h-5z"/></g><path d="m145.5 82.101c-2.209 0-4 1.791-4 4v26.887l-9.312 9.106v-41.993c0-2.209-1.791-4-4-4s-4 1.791-4 4v78.862l-9.688-9.475v-26.887c0-2.209-1.791-4-4-4s-4 1.791-4 4v28.57c0 1.076.434 2.107 1.203 2.86l16.485 16.122v24.513c-3.88 1.589-6.615 5.397-6.615 9.849 0 5.879 4.766 10.644 10.644 10.644s10.644-4.766 10.644-10.644c0-4.474-2.763-8.296-6.674-9.871v-61.36l16.108-15.753c.77-.752 1.203-1.784 1.203-2.86v-28.57c.002-2.209-1.789-4-3.998-4z" fill="#6bdddd"/><path d="m128 250c-25.916 0-47-21.084-47-47v-141c0-3.309 2.691-6 6-6h82c3.309 0 6 2.691 6 6v141c0 25.916-21.084 47-47 47zm-41-190c-1.103 0-2 .897-2 2v141c0 23.71 19.29 43 43 43s43-19.29 43-43v-141c0-1.103-.897-2-2-2z" fill="#3762cc"/></svg>