<svg id="Layer_1" enable-background="new 0 0 256 256" height="512" viewBox="0 0 256 256" width="512" xmlns="http://www.w3.org/2000/svg"><path d="m191.172 210.734h-158.918c-12.327 0-22.321-9.993-22.321-22.321v-137.221c0-12.327 9.993-22.321 22.321-22.321h158.918c12.327 0 22.321 9.993 22.321 22.321v137.222c-.001 12.327-9.994 22.32-22.321 22.32z" fill="#f9cfcf"/><g fill="#f9a7a7"><path d="m73.522 114.842v-19.826c0-1.991 1.614-3.605 3.605-3.605h25.233c1.991 0 3.605 1.614 3.605 3.605v19.826c0 1.991-1.614 3.605-3.605 3.605h-25.233c-1.991 0-3.605-1.614-3.605-3.605z"/><path d="m116.921 114.842v-19.826c0-1.991 1.614-3.605 3.605-3.605h25.233c1.991 0 3.605 1.614 3.605 3.605v19.826c0 1.991-1.614 3.605-3.605 3.605h-25.233c-1.991 0-3.605-1.614-3.605-3.605z"/><path d="m160.321 114.842v-19.826c0-1.991 1.614-3.605 3.605-3.605h25.233c1.991 0 3.605 1.614 3.605 3.605v19.826c0 1.991-1.614 3.605-3.605 3.605h-25.233c-1.991 0-3.605-1.614-3.605-3.605z"/><path d="m30.123 150.889v-19.826c0-1.991 1.614-3.605 3.605-3.605h25.232c1.991 0 3.605 1.614 3.605 3.605v19.826c0 1.991-1.614 3.605-3.605 3.605h-25.233c-1.991 0-3.604-1.614-3.604-3.605z"/><path d="m73.522 150.889v-19.826c0-1.991 1.614-3.605 3.605-3.605h25.233c1.991 0 3.605 1.614 3.605 3.605v19.826c0 1.991-1.614 3.605-3.605 3.605h-25.233c-1.991 0-3.605-1.614-3.605-3.605z"/><path d="m116.921 150.889v-19.826c0-1.991 1.614-3.605 3.605-3.605h25.233c1.991 0 3.605 1.614 3.605 3.605v19.826c0 1.991-1.614 3.605-3.605 3.605h-25.233c-1.991 0-3.605-1.614-3.605-3.605z"/><path d="m160.321 150.889v-19.826c0-1.991 1.614-3.605 3.605-3.605h25.233c1.991 0 3.605 1.614 3.605 3.605v19.826c0 1.991-1.614 3.605-3.605 3.605h-25.233c-1.991 0-3.605-1.614-3.605-3.605z"/><path d="m30.123 188.739v-19.826c0-1.991 1.614-3.605 3.605-3.605h25.232c1.991 0 3.605 1.614 3.605 3.605v19.826c0 1.991-1.614 3.605-3.605 3.605h-25.233c-1.991-.001-3.604-1.615-3.604-3.605z"/><path d="m73.522 188.739v-19.826c0-1.991 1.614-3.605 3.605-3.605h25.233c1.991 0 3.605 1.614 3.605 3.605v19.826c0 1.991-1.614 3.605-3.605 3.605h-25.233c-1.991-.001-3.605-1.615-3.605-3.605z"/><path d="m116.921 188.739v-19.826c0-1.991 1.614-3.605 3.605-3.605h25.233c1.991 0 3.605 1.614 3.605 3.605v19.826c0 1.991-1.614 3.605-3.605 3.605h-25.233c-1.991-.001-3.605-1.615-3.605-3.605z"/></g><path d="m9.933 51.192v23.589h203.56v-23.589c0-12.327-9.993-22.321-22.321-22.321h-158.918c-12.328 0-22.321 9.994-22.321 22.321z" fill="#4671c6"/><path d="m191.172 212.734h-158.918c-13.411 0-24.321-10.91-24.321-24.321v-137.222c0-13.41 10.91-24.32 24.321-24.32h158.918c13.41 0 24.32 10.91 24.32 24.32v137.222c0 13.411-10.91 24.321-24.32 24.321zm-158.918-181.863c-11.205 0-20.321 9.115-20.321 20.32v137.222c0 11.205 9.116 20.321 20.321 20.321h158.918c11.205 0 20.32-9.116 20.32-20.321v-137.222c0-11.205-9.115-20.32-20.32-20.32z" fill="#3762cc"/><path d="m213.492 76.78h-203.559c-1.104 0-2-.896-2-2v-23.589c0-13.41 10.91-24.32 24.321-24.32h158.918c13.41 0 24.32 10.91 24.32 24.32v23.589c0 1.105-.895 2-2 2zm-201.559-4h199.56v-21.589c0-11.205-9.115-20.32-20.32-20.32h-158.919c-11.205 0-20.321 9.115-20.321 20.32z" fill="#3762cc"/><path d="m172.535 56.784h-.446c-5.855 0-10.602-4.747-10.602-10.602v-26.505c0-5.855 4.747-10.602 10.602-10.602h.446c5.855 0 10.602 4.747 10.602 10.602v26.505c0 5.855-4.747 10.602-10.602 10.602z" fill="#a4c9ff"/><path d="m51.336 56.784h-.446c-5.855 0-10.602-4.747-10.602-10.602v-26.505c0-5.855 4.747-10.602 10.602-10.602h.446c5.855 0 10.602 4.747 10.602 10.602v26.505c0 5.855-4.746 10.602-10.602 10.602z" fill="#a4c9ff"/><path d="m172.535 58.784h-.446c-6.948 0-12.602-5.653-12.602-12.603v-26.504c0-6.948 5.653-12.602 12.602-12.602h.446c6.948 0 12.602 5.653 12.602 12.602v26.505c0 6.949-5.654 12.602-12.602 12.602zm-.446-47.709c-4.743 0-8.602 3.858-8.602 8.602v26.505c0 4.743 3.858 8.603 8.602 8.603h.446c4.743 0 8.602-3.859 8.602-8.603v-26.505c0-4.743-3.858-8.602-8.602-8.602z" fill="#3762cc"/><path d="m51.336 58.784h-.445c-6.949 0-12.603-5.653-12.603-12.603v-26.504c0-6.948 5.653-12.602 12.603-12.602h.445c6.949 0 12.603 5.653 12.603 12.602v26.505c-.001 6.949-5.654 12.602-12.603 12.602zm-.445-47.709c-4.743 0-8.603 3.858-8.603 8.602v26.505c0 4.743 3.859 8.603 8.603 8.603h.445c4.743 0 8.603-3.859 8.603-8.603v-26.505c0-4.743-3.859-8.602-8.603-8.602z" fill="#3762cc"/><path d="m111.666 56.784h-.446c-5.855 0-10.602-4.747-10.602-10.602v-26.505c0-5.855 4.747-10.602 10.602-10.602h.446c5.855 0 10.602 4.747 10.602 10.602v26.505c0 5.855-4.747 10.602-10.602 10.602z" fill="#a4c9ff"/><path d="m172.535 58.784h-.446c-6.948 0-12.602-5.653-12.602-12.603v-26.504c0-6.948 5.653-12.602 12.602-12.602h.446c6.948 0 12.602 5.653 12.602 12.602v26.505c0 6.949-5.654 12.602-12.602 12.602zm-.446-47.709c-4.743 0-8.602 3.858-8.602 8.602v26.505c0 4.743 3.858 8.603 8.602 8.603h.446c4.743 0 8.602-3.859 8.602-8.603v-26.505c0-4.743-3.858-8.602-8.602-8.602z" fill="#3762cc"/><path d="m111.666 58.784h-.446c-6.948 0-12.602-5.653-12.602-12.603v-26.504c0-6.948 5.653-12.602 12.602-12.602h.446c6.948 0 12.602 5.653 12.602 12.602v26.505c0 6.949-5.654 12.602-12.602 12.602zm-.446-47.709c-4.743 0-8.602 3.858-8.602 8.602v26.505c0 4.743 3.858 8.603 8.602 8.603h.446c4.743 0 8.602-3.859 8.602-8.603v-26.505c0-4.743-3.858-8.602-8.602-8.602z" fill="#3762cc"/><circle cx="192.439" cy="193.297" fill="#6bdddd" r="53.628"/><circle cx="192.439" cy="193.297" fill="#e0ebfc" r="39.264"/><path d="m192.439 197.493c-1.645 0-2.979-1.334-2.979-2.979v-28.855c0-1.645 1.334-2.979 2.979-2.979s2.979 1.334 2.979 2.979v28.855c0 1.645-1.334 2.979-2.979 2.979z" fill="#4671c6"/><path d="m221.294 197.493h-28.855c-1.645 0-2.979-1.334-2.979-2.979s1.334-2.979 2.979-2.979h28.855c1.645 0 2.979 1.334 2.979 2.979s-1.334 2.979-2.979 2.979z" fill="#f9a7a7"/><path d="m192.438 248.925c-30.674 0-55.628-24.954-55.628-55.628s24.954-55.628 55.628-55.628 55.629 24.954 55.629 55.628-24.955 55.628-55.629 55.628zm0-107.256c-28.468 0-51.628 23.16-51.628 51.628s23.16 51.628 51.628 51.628c28.469 0 51.629-23.16 51.629-51.628s-23.16-51.628-51.629-51.628z" fill="#3762cc"/><path d="m192.438 234.561c-22.753 0-41.264-18.511-41.264-41.264s18.511-41.264 41.264-41.264 41.264 18.511 41.264 41.264-18.511 41.264-41.264 41.264zm0-78.528c-20.547 0-37.264 16.717-37.264 37.264s16.717 37.264 37.264 37.264 37.264-16.717 37.264-37.264-16.717-37.264-37.264-37.264z" fill="#3762cc"/><path d="m88.744 149.803c-.11 0-.219-.004-.329-.014-1.173-.097-2.242-.712-2.918-1.676l-8.244-11.778c-1.255-1.793-.819-4.265.974-5.521 1.797-1.255 4.265-.817 5.521.974l5.51 7.874 21.981-22.363c1.534-1.562 4.045-1.583 5.605-.049 1.561 1.534 1.583 4.044.049 5.605l-25.322 25.763c-.749.76-1.769 1.185-2.827 1.185z" fill="#6bdddd"/><path d="m175.568 114.257c-.11 0-.219-.004-.329-.014-1.173-.097-2.242-.712-2.918-1.676l-8.244-11.778c-1.255-1.793-.819-4.265.974-5.521 1.797-1.255 4.265-.817 5.521.974l5.51 7.874 21.981-22.363c1.534-1.562 4.045-1.583 5.605-.049 1.561 1.534 1.583 4.044.049 5.605l-25.322 25.763c-.748.76-1.769 1.185-2.827 1.185z" fill="#6bdddd"/></svg>