<svg id="Layer_1" enable-background="new 0 0 256 256" height="512" viewBox="0 0 256 256" width="512" xmlns="http://www.w3.org/2000/svg"><path d="m52.503 75.081c-4.452 0-8.597-1.302-12.085-3.539-.1 0-1.764-1.254-1.846-1.319-10.701-7.171-21.259-5.619-27.39-3.619-2.014.657-3.845-1.417-2.947-3.335 17.244-36.859 44.268-33.041 44.268-33.041 12.386 0 22.426 10.041 22.426 22.426 0 12.386-10.041 22.427-22.426 22.427z" fill="#a4c9ff"/><path d="m52.503 77.081c-4.631 0-9.139-1.307-13.046-3.78-.418-.221-1.031-.646-2.063-1.46-9.723-6.483-19.281-5.395-25.592-3.336-1.699.555-3.495.066-4.683-1.277-1.188-1.344-1.455-3.186-.696-4.808 17.195-36.753 43.731-34.491 46.211-34.19 13.409.07 24.295 11 24.295 24.425 0 13.468-10.957 24.426-24.426 24.426zm-11.187-7.327c.062.031.122.065.181.103 3.288 2.108 7.094 3.223 11.006 3.223 11.263 0 20.426-9.163 20.426-20.426s-9.163-20.426-20.426-20.426c-.094 0-.187-.006-.28-.02-1.041-.142-25.821-3.053-42.177 31.906-.078.167-.055.322.069.462.124.139.274.18.446.125 5.87-1.914 17.459-3.958 29.123 3.859.044.03.087.061.128.094.191.147 1.184.886 1.504 1.1zm-.875-.213h.001s0 0-.001 0zm-.005 0h.003c-.001 0-.002 0-.003 0zm-.004 0h.003c-.001 0-.002 0-.003 0zm-.005 0h.003c-.001 0-.002 0-.003 0zm-.005 0h.003s-.001 0-.003 0zm-.005 0h.004c-.001 0-.002 0-.004 0z" fill="#3762cc"/><path d="m243 225.884h-230c-2.761 0-5-2.239-5-5v-115c0-2.761 2.239-5 5-5h230c2.761 0 5 2.239 5 5v115c0 2.762-2.239 5-5 5z" fill="#e0ebfc"/><circle cx="128" cy="135.12" fill="#ffea92" r="22.52"/><circle cx="202.18" cy="135.12" fill="#6bdddd" r="22.52"/><circle cx="53.82" cy="135.12" fill="#f9a7a7" r="22.52"/><circle cx="128" cy="191.648" fill="#b9befc" r="22.52"/><circle cx="202.18" cy="191.648" fill="#a4c9ff" r="22.52"/><circle cx="53.82" cy="191.648" fill="#4671c6" r="22.52"/><path d="m71.304 62.187v-19.065c0-1.105.895-2 2-2h8.723c2.347 0 4.249 1.902 4.249 4.249v14.567c0 2.347-1.902 4.249-4.249 4.249h-8.723c-1.105 0-2-.896-2-2z" fill="#eaa97d"/><path d="m43.798 42.316c-12.926 0-23.673 12.915-24.18 13.534-.627.766-.515 1.896.251 2.524s1.896.517 2.525-.249c.125-.153 12.692-15.229 25.496-11.664.956.266 1.945-.292 2.211-1.247s-.292-1.944-1.247-2.21c-1.709-.476-3.401-.688-5.056-.688z" fill="#4671c6"/><g fill="#3762cc"><path d="m243 227.884h-230c-3.86 0-7-3.14-7-7v-115c0-3.86 3.14-7 7-7h230c3.859 0 7 3.14 7 7v115c0 3.86-3.141 7-7 7zm-230-125c-1.654 0-3 1.346-3 3v115c0 1.654 1.346 3 3 3h230c1.654 0 3-1.346 3-3v-115c0-1.654-1.346-3-3-3z"/><path d="m128 159.64c-13.521 0-24.52-11-24.52-24.52s11-24.52 24.52-24.52 24.52 11 24.52 24.52-10.999 24.52-24.52 24.52zm0-45.04c-11.315 0-20.52 9.205-20.52 20.52s9.205 20.52 20.52 20.52c11.314 0 20.52-9.205 20.52-20.52s-9.206-20.52-20.52-20.52z"/><path d="m202.18 159.64c-13.521 0-24.52-11-24.52-24.52s10.999-24.52 24.52-24.52 24.521 11 24.521 24.52-11.001 24.52-24.521 24.52zm0-45.04c-11.314 0-20.52 9.205-20.52 20.52s9.205 20.52 20.52 20.52 20.521-9.205 20.521-20.52-9.206-20.52-20.521-20.52z"/><path d="m53.82 159.64c-13.521 0-24.52-11-24.52-24.52s11-24.52 24.52-24.52 24.52 11 24.52 24.52-11 24.52-24.52 24.52zm0-45.04c-11.315 0-20.52 9.205-20.52 20.52s9.205 20.52 20.52 20.52 20.52-9.205 20.52-20.52-9.205-20.52-20.52-20.52z"/><path d="m128 216.168c-13.521 0-24.52-11-24.52-24.52s11-24.52 24.52-24.52 24.52 11 24.52 24.52-10.999 24.52-24.52 24.52zm0-45.04c-11.315 0-20.52 9.205-20.52 20.52s9.205 20.52 20.52 20.52c11.314 0 20.52-9.205 20.52-20.52s-9.206-20.52-20.52-20.52z"/><path d="m202.18 216.168c-13.521 0-24.52-11-24.52-24.52s10.999-24.52 24.52-24.52 24.521 11 24.521 24.52c-.001 13.52-11.001 24.52-24.521 24.52zm0-45.04c-11.314 0-20.52 9.205-20.52 20.52s9.205 20.52 20.52 20.52 20.521-9.205 20.521-20.52c-.001-11.315-9.206-20.52-20.521-20.52z"/><path d="m53.82 216.168c-13.521 0-24.52-11-24.52-24.52s11-24.52 24.52-24.52 24.52 11 24.52 24.52-11 24.52-24.52 24.52zm0-45.04c-11.315 0-20.52 9.205-20.52 20.52s9.205 20.52 20.52 20.52 20.52-9.205 20.52-20.52-9.205-20.52-20.52-20.52z"/><path d="m82.027 66.187h-8.723c-2.206 0-4-1.794-4-4v-19.065c0-2.206 1.794-4 4-4h8.723c3.445 0 6.249 2.803 6.249 6.249v14.567c0 3.446-2.803 6.249-6.249 6.249zm-8.723-23.065v19.067l8.723-.002c1.24 0 2.249-1.009 2.249-2.249v-14.567c0-1.24-1.009-2.249-2.249-2.249z"/></g><path d="m236.522 42.302c-3.61-.966-7.479-1.518-11.403-1.67v-.012c-7.03.225-131.774 4.223-138.874 4.45.007.101.03.198.03.301v14.567c0 .103-.023.2-.03.301.016.001 138.716 4.445 138.716 4.445l.158.005v-.012c3.923-.152 7.792-.704 11.403-1.67 7.001-1.874 11.478-5.912 11.478-10.353 0-4.44-4.477-8.478-11.478-10.352z" fill="#eaa97d"/><path d="m225.117 66.689c-.021 0-.044 0-.065-.001l-.158-.005c.003 0-138.539-4.439-138.711-4.445-.544-.018-1.058-.256-1.422-.66-.364-.405-.548-.94-.509-1.483.005-.078.015-.155.025-.231v-14.418c-.012-.088-.02-.16-.025-.231-.04-.543.144-1.079.509-1.483.364-.405.877-.643 1.422-.661l138.873-4.45c.122-.003.243.003.361.021 4.076.173 7.985.754 11.623 1.728 7.994 2.14 12.96 6.847 12.96 12.284s-4.966 10.145-12.96 12.285c-3.641.974-7.553 1.556-11.631 1.728-.096.015-.193.022-.292.022zm-136.841-8.386c13.955.447 98.47 3.155 136.694 4.38.023-.001.048-.003.072-.004 3.857-.15 7.547-.689 10.964-1.604 5.978-1.6 9.994-4.984 9.994-8.42s-4.017-6.82-9.994-8.42c-3.417-.915-7.106-1.454-10.964-1.604-.025-.001-.051-.002-.075-.004l-136.691 4.38z" fill="#3762cc"/></svg>